{
 "cells": [
  {
   "cell_type": "code",
   "execution_count": 1,
   "metadata": {},
   "outputs": [],
   "source": [
    "from mido import MidiFile, bpm2tempo, tempo2bpm\n",
    "\n",
    "def extract_tempo(midi_file_path):\n",
    "    mid = MidiFile(midi_file_path)\n",
    "    for track in mid.tracks:\n",
    "        for msg in track:\n",
    "            if msg.type == 'set_tempo':\n",
    "                tempo = msg.tempo\n",
    "                bpm = tempo2bpm(tempo)\n",
    "                return bpm\n",
    "    # Default MIDI tempo is 120 BPM if no 'set_tempo' message is found\n",
    "    return 120"
   ]
  },
  {
   "cell_type": "code",
   "execution_count": 2,
   "metadata": {},
   "outputs": [
    {
     "name": "stdout",
     "output_type": "stream",
     "text": [
      "Tempo: 116.00008506672904 BPM\n"
     ]
    }
   ],
   "source": [
    "midi_file_path = \"/Users/fernando/dev/upf/cmc24/gdrm/dataset/drummer1/session1/4_jazz-funk_116_beat_4-4.mid\"\n",
    "bpm = extract_tempo(midi_file_path)\n",
    "print(f'Tempo: {bpm} BPM')"
   ]
  },
  {
   "cell_type": "code",
   "execution_count": 4,
   "metadata": {},
   "outputs": [
    {
     "name": "stdout",
     "output_type": "stream",
     "text": [
      "Track 0: \n",
      "MetaMessage('set_tempo', tempo=517241, time=0)\n",
      "MetaMessage('time_signature', numerator=4, denominator=4, clocks_per_click=24, notated_32nd_notes_per_beat=8, time=0)\n",
      "MetaMessage('key_signature', key='C', time=0)\n",
      "program_change channel=9 program=0 time=0\n",
      "control_change channel=9 control=4 value=81 time=0\n",
      "program_change channel=9 program=0 time=0\n",
      "control_change channel=9 control=4 value=80 time=421\n",
      "control_change channel=9 control=4 value=79 time=417\n",
      "note_on channel=9 note=44 velocity=40 time=97\n",
      "note_on channel=9 note=44 velocity=0 time=94\n",
      "control_change channel=9 control=4 value=78 time=228\n",
      "control_change channel=9 control=4 value=58 time=22\n",
      "note_on channel=9 note=43 velocity=104 time=14\n",
      "control_change channel=9 control=4 value=38 time=8\n",
      "control_change channel=9 control=4 value=33 time=4\n",
      "control_change channel=9 control=4 value=51 time=22\n",
      "control_change channel=9 control=4 value=70 time=22\n",
      "control_change channel=9 control=4 value=76 time=7\n",
      "control_change channel=9 control=4 value=83 time=22\n",
      "note_on channel=9 note=43 velocity=0 time=9\n",
      "control_change channel=9 control=4 value=90 time=12\n",
      "note_on channel=9 note=58 velocity=120 time=25\n",
      "control_change channel=9 control=4 value=87 time=19\n",
      "control_change channel=9 control=4 value=84 time=43\n",
      "note_on channel=9 note=58 velocity=0 time=32\n",
      "control_change channel=9 control=4 value=81 time=12\n",
      "control_change channel=9 control=4 value=78 time=43\n",
      "control_change channel=9 control=4 value=75 time=44\n",
      "note_on channel=9 note=44 velocity=67 time=17\n",
      "control_change channel=9 control=4 value=72 time=26\n",
      "control_change channel=9 control=4 value=69 time=44\n",
      "note_on channel=9 note=44 velocity=0 time=24\n",
      "control_change channel=9 control=4 value=66 time=19\n",
      "control_change channel=9 control=4 value=63 time=44\n",
      "control_change channel=9 control=4 value=60 time=43\n",
      "control_change channel=9 control=4 value=57 time=44\n",
      "note_on channel=9 note=55 velocity=64 time=5\n",
      "note_on channel=9 note=36 velocity=43 time=2\n",
      "note_on channel=9 note=59 velocity=71 time=14\n",
      "control_change channel=9 control=4 value=54 time=22\n",
      "control_change channel=9 control=4 value=51 time=44\n",
      "note_on channel=9 note=55 velocity=0 time=11\n",
      "note_on channel=9 note=36 velocity=0 time=3\n",
      "note_on channel=9 note=59 velocity=0 time=13\n",
      "control_change channel=9 control=4 value=48 time=16\n",
      "control_change channel=9 control=4 value=45 time=44\n",
      "control_change channel=9 control=4 value=42 time=43\n",
      "note_on channel=9 note=44 velocity=85 time=22\n",
      "control_change channel=9 control=4 value=39 time=22\n",
      "note_on channel=9 note=51 velocity=37 time=2\n",
      "control_change channel=9 control=4 value=36 time=41\n",
      "note_on channel=9 note=44 velocity=0 time=28\n",
      "control_change channel=9 control=4 value=33 time=16\n",
      "note_on channel=9 note=51 velocity=0 time=9\n",
      "note_on channel=9 note=36 velocity=38 time=17\n",
      "control_change channel=9 control=4 value=30 time=17\n",
      "control_change channel=9 control=4 value=26 time=44\n",
      "control_change channel=9 control=4 value=46 time=22\n",
      "note_on channel=9 note=36 velocity=0 time=10\n",
      "control_change channel=9 control=4 value=66 time=11\n",
      "note_on channel=9 note=38 velocity=72 time=9\n",
      "control_change channel=9 control=4 value=78 time=4\n",
      "note_on channel=9 note=51 velocity=82 time=6\n",
      "control_change channel=9 control=4 value=84 time=16\n",
      "control_change channel=9 control=4 value=90 time=22\n",
      "control_change channel=9 control=4 value=87 time=43\n",
      "note_on channel=9 note=38 velocity=0 time=2\n",
      "note_on channel=9 note=51 velocity=0 time=10\n",
      "note_on channel=9 note=38 velocity=29 time=17\n",
      "control_change channel=9 control=4 value=83 time=15\n",
      "control_change channel=9 control=4 value=79 time=43\n",
      "note_on channel=9 note=38 velocity=0 time=37\n",
      "control_change channel=9 control=4 value=75 time=7\n",
      "note_on channel=9 note=44 velocity=92 time=10\n",
      "note_on channel=9 note=51 velocity=62 time=14\n",
      "control_change channel=9 control=4 value=72 time=19\n",
      "control_change channel=9 control=4 value=68 time=44\n",
      "note_on channel=9 note=44 velocity=0 time=16\n",
      "note_on channel=9 note=51 velocity=0 time=15\n",
      "control_change channel=9 control=4 value=64 time=12\n",
      "note_on channel=9 note=38 velocity=38 time=9\n",
      "note_on channel=9 note=51 velocity=59 time=8\n",
      "control_change channel=9 control=4 value=60 time=27\n",
      "control_change channel=9 control=4 value=57 time=43\n",
      "note_on channel=9 note=38 velocity=0 time=16\n",
      "note_on channel=9 note=51 velocity=0 time=7\n",
      "control_change channel=9 control=4 value=53 time=21\n",
      "note_on channel=9 note=51 velocity=69 time=20\n",
      "control_change channel=9 control=4 value=49 time=23\n",
      "control_change channel=9 control=4 value=45 time=44\n",
      "note_on channel=9 note=51 velocity=0 time=26\n",
      "control_change channel=9 control=4 value=42 time=7\n",
      "note_on channel=9 note=38 velocity=27 time=11\n",
      "control_change channel=9 control=4 value=23 time=11\n",
      "control_change channel=9 control=4 value=4 time=22\n",
      "control_change channel=9 control=4 value=0 time=4\n",
      "control_change channel=9 control=4 value=30 time=22\n",
      "control_change channel=9 control=4 value=60 time=22\n",
      "control_change channel=9 control=4 value=71 time=7\n",
      "note_on channel=9 note=38 velocity=0 time=5\n",
      "control_change channel=9 control=4 value=80 time=17\n",
      "note_on channel=9 note=44 velocity=85 time=5\n",
      "note_on channel=9 note=38 velocity=21 time=14\n",
      "note_on channel=9 note=51 velocity=62 time=0\n",
      "control_change channel=9 control=4 value=89 time=2\n",
      "control_change channel=9 control=4 value=90 time=0\n",
      "note_on channel=9 note=36 velocity=25 time=0\n",
      "control_change channel=9 control=4 value=88 time=45\n",
      "note_on channel=9 note=44 velocity=0 time=32\n",
      "control_change channel=9 control=4 value=85 time=12\n",
      "note_on channel=9 note=36 velocity=0 time=3\n",
      "note_on channel=9 note=38 velocity=0 time=0\n",
      "note_on channel=9 note=51 velocity=0 time=0\n",
      "note_on channel=9 note=36 velocity=26 time=5\n",
      "note_on channel=9 note=51 velocity=58 time=16\n",
      "control_change channel=9 control=4 value=82 time=18\n",
      "control_change channel=9 control=4 value=80 time=45\n",
      "note_on channel=9 note=36 velocity=0 time=14\n",
      "note_on channel=9 note=51 velocity=0 time=16\n",
      "control_change channel=9 control=4 value=77 time=13\n",
      "note_on channel=9 note=37 velocity=76 time=14\n",
      "note_on channel=9 note=59 velocity=69 time=9\n",
      "control_change channel=9 control=4 value=74 time=21\n",
      "control_change channel=9 control=4 value=72 time=43\n",
      "note_on channel=9 note=37 velocity=0 time=19\n",
      "note_on channel=9 note=59 velocity=0 time=10\n",
      "control_change channel=9 control=4 value=69 time=15\n",
      "note_on channel=9 note=38 velocity=22 time=10\n",
      "control_change channel=9 control=4 value=66 time=33\n",
      "control_change channel=9 control=4 value=64 time=44\n",
      "note_on channel=9 note=38 velocity=0 time=16\n",
      "note_on channel=9 note=44 velocity=102 time=6\n",
      "control_change channel=9 control=4 value=61 time=21\n",
      "note_on channel=9 note=51 velocity=69 time=0\n",
      "control_change channel=9 control=4 value=58 time=44\n",
      "control_change channel=9 control=4 value=57 time=11\n",
      "note_on channel=9 note=44 velocity=0 time=18\n",
      "control_change channel=9 control=4 value=32 time=4\n",
      "note_on channel=9 note=38 velocity=32 time=17\n",
      "note_on channel=9 note=51 velocity=0 time=0\n",
      "control_change channel=9 control=4 value=6 time=5\n",
      "control_change channel=9 control=4 value=0 time=4\n",
      "note_on channel=9 note=51 velocity=61 time=11\n",
      "control_change channel=9 control=4 value=20 time=11\n",
      "control_change channel=9 control=4 value=41 time=22\n",
      "control_change channel=9 control=4 value=62 time=21\n",
      "control_change channel=9 control=4 value=66 time=5\n",
      "note_on channel=9 note=38 velocity=0 time=15\n",
      "control_change channel=9 control=4 value=77 time=7\n",
      "note_on channel=9 note=51 velocity=0 time=13\n",
      "control_change channel=9 control=4 value=89 time=8\n",
      "control_change channel=9 control=4 value=90 time=2\n",
      "note_on channel=9 note=36 velocity=43 time=0\n",
      "note_on channel=9 note=51 velocity=64 time=15\n",
      "control_change channel=9 control=4 value=88 time=28\n",
      "control_change channel=9 control=4 value=85 time=44\n",
      "note_on channel=9 note=36 velocity=0 time=7\n",
      "note_on channel=9 note=51 velocity=0 time=15\n",
      "control_change channel=9 control=4 value=83 time=21\n",
      "note_on channel=9 note=38 velocity=24 time=3\n",
      "control_change channel=9 control=4 value=80 time=41\n",
      "control_change channel=9 control=4 value=78 time=43\n",
      "note_on channel=9 note=38 velocity=0 time=10\n",
      "note_on channel=9 note=44 velocity=87 time=12\n",
      "note_on channel=9 note=38 velocity=17 time=11\n",
      "note_on channel=9 note=51 velocity=61 time=4\n",
      "control_change channel=9 control=4 value=75 time=7\n",
      "control_change channel=9 control=4 value=73 time=43\n",
      "note_on channel=9 note=44 velocity=0 time=29\n",
      "note_on channel=9 note=38 velocity=0 time=11\n",
      "control_change channel=9 control=4 value=70 time=4\n",
      "note_on channel=9 note=51 velocity=0 time=0\n",
      "note_on channel=9 note=36 velocity=20 time=16\n",
      "note_on channel=9 note=51 velocity=51 time=15\n",
      "control_change channel=9 control=4 value=67 time=12\n",
      "control_change channel=9 control=4 value=65 time=44\n",
      "note_on channel=9 note=36 velocity=0 time=22\n",
      "note_on channel=9 note=51 velocity=0 time=15\n",
      "control_change channel=9 control=4 value=62 time=6\n",
      "note_on channel=9 note=37 velocity=75 time=21\n",
      "note_on channel=9 note=51 velocity=79 time=5\n",
      "control_change channel=9 control=4 value=60 time=18\n",
      "control_change channel=9 control=4 value=57 time=36\n",
      "control_change channel=9 control=4 value=34 time=22\n",
      "note_on channel=9 note=37 velocity=0 time=12\n",
      "note_on channel=9 note=51 velocity=0 time=5\n",
      "control_change channel=9 control=4 value=11 time=4\n",
      "control_change channel=9 control=4 value=0 time=11\n",
      "control_change channel=9 control=4 value=23 time=21\n",
      "note_on channel=9 note=38 velocity=11 time=6\n",
      "control_change channel=9 control=4 value=46 time=16\n",
      "control_change channel=9 control=4 value=68 time=20\n",
      "control_change channel=9 control=4 value=78 time=22\n",
      "note_on channel=9 note=44 velocity=90 time=16\n",
      "control_change channel=9 control=4 value=89 time=6\n",
      "control_change channel=9 control=4 value=90 time=1\n",
      "note_on channel=9 note=38 velocity=0 time=12\n",
      "note_on channel=9 note=51 velocity=66 time=12\n",
      "note_on channel=9 note=38 velocity=23 time=12\n",
      "note_on channel=9 note=44 velocity=0 time=50\n",
      "note_on channel=9 note=51 velocity=0 time=32\n",
      "note_on channel=9 note=38 velocity=0 time=11\n",
      "note_on channel=9 note=36 velocity=49 time=8\n",
      "note_on channel=9 note=51 velocity=66 time=10\n",
      "note_on channel=9 note=36 velocity=0 time=83\n",
      "control_change channel=9 control=4 value=90 time=5\n",
      "note_on channel=9 note=51 velocity=0 time=5\n",
      "note_on channel=9 note=51 velocity=65 time=22\n",
      "control_change channel=9 control=4 value=86 time=17\n",
      "control_change channel=9 control=4 value=81 time=43\n",
      "note_on channel=9 note=51 velocity=0 time=33\n",
      "control_change channel=9 control=4 value=76 time=11\n",
      "note_on channel=9 note=38 velocity=18 time=12\n",
      "control_change channel=9 control=4 value=71 time=31\n",
      "control_change channel=9 control=4 value=67 time=44\n",
      "note_on channel=9 note=38 velocity=0 time=19\n",
      "note_on channel=9 note=36 velocity=32 time=11\n",
      "note_on channel=9 note=51 velocity=64 time=7\n",
      "note_on channel=9 note=44 velocity=87 time=1\n",
      "note_on channel=9 note=38 velocity=20 time=2\n",
      "control_change channel=9 control=4 value=62 time=3\n",
      "control_change channel=9 control=4 value=58 time=32\n",
      "control_change channel=9 control=4 value=29 time=22\n",
      "control_change channel=9 control=4 value=0 time=22\n",
      "note_on channel=9 note=36 velocity=0 time=4\n",
      "note_on channel=9 note=44 velocity=0 time=8\n",
      "note_on channel=9 note=51 velocity=0 time=0\n",
      "note_on channel=9 note=38 velocity=0 time=4\n",
      "control_change channel=9 control=4 value=22 time=5\n",
      "note_on channel=9 note=51 velocity=58 time=19\n",
      "note_on channel=9 note=36 velocity=50 time=1\n",
      "control_change channel=9 control=4 value=44 time=2\n",
      "control_change channel=9 control=4 value=66 time=22\n",
      "control_change channel=9 control=4 value=78 time=10\n",
      "control_change channel=9 control=4 value=84 time=22\n",
      "control_change channel=9 control=4 value=90 time=22\n",
      "note_on channel=9 note=36 velocity=0 time=14\n",
      "note_on channel=9 note=51 velocity=0 time=0\n",
      "control_change channel=9 control=4 value=87 time=29\n",
      "note_on channel=9 note=51 velocity=95 time=6\n",
      "note_on channel=9 note=37 velocity=70 time=3\n",
      "control_change channel=9 control=4 value=83 time=35\n",
      "control_change channel=9 control=4 value=79 time=43\n",
      "note_on channel=9 note=51 velocity=0 time=12\n",
      "note_on channel=9 note=37 velocity=0 time=4\n",
      "control_change channel=9 control=4 value=75 time=28\n",
      "note_on channel=9 note=38 velocity=15 time=14\n",
      "control_change channel=9 control=4 value=71 time=29\n",
      "control_change channel=9 control=4 value=68 time=44\n",
      "note_on channel=9 note=38 velocity=0 time=21\n",
      "note_on channel=9 note=44 velocity=102 time=2\n",
      "note_on channel=9 note=51 velocity=67 time=9\n",
      "control_change channel=9 control=4 value=64 time=11\n",
      "control_change channel=9 control=4 value=60 time=44\n",
      "note_on channel=9 note=38 velocity=33 time=30\n",
      "note_on channel=9 note=44 velocity=0 time=0\n",
      "note_on channel=9 note=51 velocity=0 time=9\n",
      "control_change channel=9 control=4 value=56 time=4\n",
      "note_on channel=9 note=51 velocity=59 time=16\n",
      "control_change channel=9 control=4 value=52 time=28\n",
      "note_on channel=9 note=38 velocity=0 time=37\n",
      "control_change channel=9 control=4 value=49 time=6\n",
      "note_on channel=9 note=51 velocity=0 time=23\n",
      "note_on channel=9 note=36 velocity=44 time=15\n",
      "control_change channel=9 control=4 value=45 time=6\n",
      "note_on channel=9 note=51 velocity=66 time=8\n",
      "control_change channel=9 control=4 value=42 time=19\n",
      "control_change channel=9 control=4 value=22 time=22\n",
      "control_change channel=9 control=4 value=0 time=22\n",
      "control_change channel=9 control=4 value=1 time=0\n",
      "note_on channel=9 note=36 velocity=0 time=16\n",
      "control_change channel=9 control=4 value=29 time=5\n",
      "note_on channel=9 note=51 velocity=0 time=9\n",
      "control_change channel=9 control=4 value=58 time=13\n",
      "note_on channel=9 note=38 velocity=24 time=9\n",
      "control_change channel=9 control=4 value=76 time=4\n",
      "control_change channel=9 control=4 value=83 time=22\n",
      "control_change channel=9 control=4 value=90 time=22\n",
      "note_on channel=9 note=38 velocity=0 time=46\n",
      "note_on channel=9 note=44 velocity=85 time=28\n",
      "note_on channel=9 note=51 velocity=64 time=1\n",
      "note_on channel=9 note=36 velocity=33 time=3\n",
      "note_on channel=9 note=38 velocity=15 time=9\n",
      "note_on channel=9 note=44 velocity=0 time=81\n",
      "note_on channel=9 note=51 velocity=0 time=0\n",
      "note_on channel=9 note=36 velocity=0 time=3\n",
      "note_on channel=9 note=38 velocity=0 time=10\n",
      "note_on channel=9 note=36 velocity=43 time=15\n",
      "note_on channel=9 note=51 velocity=49 time=6\n",
      "control_change channel=9 control=4 value=90 time=34\n",
      "control_change channel=9 control=4 value=86 time=44\n",
      "note_on channel=9 note=36 velocity=0 time=9\n",
      "note_on channel=9 note=51 velocity=0 time=7\n",
      "control_change channel=9 control=4 value=81 time=27\n",
      "note_on channel=9 note=51 velocity=77 time=2\n",
      "note_on channel=9 note=38 velocity=75 time=9\n",
      "control_change channel=9 control=4 value=76 time=33\n",
      "control_change channel=9 control=4 value=71 time=43\n",
      "note_on channel=9 note=51 velocity=0 time=9\n",
      "note_on channel=9 note=38 velocity=0 time=9\n",
      "control_change channel=9 control=4 value=66 time=26\n",
      "control_change channel=9 control=4 value=62 time=43\n",
      "control_change channel=9 control=4 value=58 time=28\n",
      "note_on channel=9 note=44 velocity=90 time=20\n",
      "control_change channel=9 control=4 value=32 time=1\n",
      "control_change channel=9 control=4 value=5 time=22\n",
      "control_change channel=9 control=4 value=0 time=3\n",
      "note_on channel=9 note=51 velocity=55 time=3\n",
      "note_on channel=9 note=38 velocity=20 time=4\n",
      "control_change channel=9 control=4 value=23 time=15\n",
      "control_change channel=9 control=4 value=47 time=21\n",
      "control_change channel=9 control=4 value=70 time=22\n",
      "note_on channel=9 note=44 velocity=0 time=3\n",
      "control_change channel=9 control=4 value=78 time=4\n",
      "control_change channel=9 control=4 value=84 time=22\n",
      "note_on channel=9 note=36 velocity=45 time=3\n",
      "note_on channel=9 note=51 velocity=0 time=0\n",
      "note_on channel=9 note=38 velocity=0 time=4\n",
      "control_change channel=9 control=4 value=90 time=15\n",
      "note_on channel=9 note=51 velocity=58 time=3\n",
      "note_on channel=9 note=36 velocity=0 time=72\n",
      "control_change channel=9 control=4 value=88 time=12\n",
      "note_on channel=9 note=51 velocity=0 time=9\n",
      "note_on channel=9 note=51 velocity=53 time=24\n",
      "control_change channel=9 control=4 value=85 time=54\n",
      "note_on channel=9 note=38 velocity=21 time=35\n",
      "note_on channel=9 note=51 velocity=0 time=4\n",
      "control_change channel=9 control=4 value=83 time=6\n",
      "control_change channel=9 control=4 value=86 time=22\n",
      "control_change channel=9 control=4 value=89 time=21\n",
      "control_change channel=9 control=4 value=90 time=2\n",
      "note_on channel=9 note=38 velocity=0 time=38\n",
      "control_change channel=9 control=4 value=86 time=5\n",
      "note_on channel=9 note=36 velocity=23 time=18\n",
      "note_on channel=9 note=44 velocity=92 time=7\n",
      "note_on channel=9 note=51 velocity=65 time=10\n",
      "control_change channel=9 control=4 value=81 time=9\n",
      "control_change channel=9 control=4 value=76 time=43\n",
      "note_on channel=9 note=36 velocity=0 time=25\n",
      "note_on channel=9 note=44 velocity=0 time=6\n",
      "note_on channel=9 note=51 velocity=0 time=11\n",
      "control_change channel=9 control=4 value=71 time=2\n",
      "note_on channel=9 note=36 velocity=37 time=3\n",
      "note_on channel=9 note=51 velocity=54 time=19\n",
      "control_change channel=9 control=4 value=67 time=21\n",
      "control_change channel=9 control=4 value=62 time=44\n",
      "note_on channel=9 note=36 velocity=0 time=10\n",
      "note_on channel=9 note=51 velocity=0 time=18\n",
      "control_change channel=9 control=4 value=58 time=4\n",
      "control_change channel=9 control=4 value=33 time=22\n",
      "note_on channel=9 note=51 velocity=76 time=7\n",
      "note_on channel=9 note=38 velocity=89 time=9\n",
      "control_change channel=9 control=4 value=7 time=5\n",
      "control_change channel=9 control=4 value=0 time=6\n",
      "control_change channel=9 control=4 value=20 time=22\n",
      "control_change channel=9 control=4 value=40 time=22\n",
      "control_change channel=9 control=4 value=61 time=21\n",
      "control_change channel=9 control=4 value=66 time=5\n",
      "note_on channel=9 note=51 velocity=0 time=3\n",
      "note_on channel=9 note=38 velocity=0 time=10\n",
      "control_change channel=9 control=4 value=77 time=8\n",
      "control_change channel=9 control=4 value=89 time=22\n",
      "control_change channel=9 control=4 value=90 time=0\n",
      "note_on channel=9 note=38 velocity=28 time=10\n",
      "note_on channel=9 note=38 velocity=0 time=95\n",
      "note_on channel=9 note=44 velocity=100 time=0\n",
      "note_on channel=9 note=51 velocity=71 time=2\n",
      "note_on channel=9 note=44 velocity=0 time=92\n",
      "note_on channel=9 note=51 velocity=0 time=2\n",
      "note_on channel=9 note=51 velocity=64 time=26\n",
      "note_on channel=9 note=38 velocity=24 time=7\n",
      "control_change channel=9 control=4 value=90 time=27\n",
      "control_change channel=9 control=4 value=85 time=44\n",
      "note_on channel=9 note=51 velocity=0 time=15\n",
      "note_on channel=9 note=38 velocity=0 time=7\n",
      "note_on channel=9 note=36 velocity=37 time=8\n",
      "note_on channel=9 note=51 velocity=76 time=5\n",
      "control_change channel=9 control=4 value=80 time=8\n",
      "control_change channel=9 control=4 value=75 time=44\n",
      "note_on channel=9 note=36 velocity=0 time=37\n",
      "note_on channel=9 note=51 velocity=0 time=5\n",
      "control_change channel=9 control=4 value=70 time=1\n",
      "control_change channel=9 control=4 value=65 time=44\n",
      "note_on channel=9 note=38 velocity=26 time=1\n",
      "control_change channel=9 control=4 value=60 time=42\n",
      "control_change channel=9 control=4 value=57 time=20\n",
      "control_change channel=9 control=4 value=29 time=22\n",
      "note_on channel=9 note=36 velocity=30 time=6\n",
      "note_on channel=9 note=38 velocity=0 time=4\n",
      "note_on channel=9 note=44 velocity=82 time=8\n",
      "note_on channel=9 note=51 velocity=68 time=0\n",
      "control_change channel=9 control=4 value=0 time=4\n",
      "note_on channel=9 note=38 velocity=31 time=1\n",
      "control_change channel=9 control=4 value=21 time=21\n",
      "control_change channel=9 control=4 value=43 time=21\n",
      "control_change channel=9 control=4 value=65 time=22\n",
      "control_change channel=9 control=4 value=76 time=10\n",
      "note_on channel=9 note=36 velocity=0 time=2\n",
      "note_on channel=9 note=44 velocity=0 time=12\n",
      "note_on channel=9 note=51 velocity=0 time=0\n",
      "note_on channel=9 note=38 velocity=0 time=5\n",
      "control_change channel=9 control=4 value=83 time=3\n",
      "note_on channel=9 note=51 velocity=57 time=17\n",
      "note_on channel=9 note=36 velocity=43 time=2\n",
      "control_change channel=9 control=4 value=90 time=3\n",
      "control_change channel=9 control=4 value=87 time=43\n",
      "control_change channel=9 control=4 value=83 time=44\n",
      "note_on channel=9 note=51 velocity=0 time=1\n",
      "note_on channel=9 note=36 velocity=0 time=3\n",
      "note_on channel=9 note=51 velocity=78 time=34\n",
      "control_change channel=9 control=4 value=79 time=5\n",
      "note_on channel=9 note=38 velocity=73 time=2\n",
      "control_change channel=9 control=4 value=75 time=42\n",
      "control_change channel=9 control=4 value=71 time=43\n",
      "note_on channel=9 note=51 velocity=0 time=2\n",
      "note_on channel=9 note=38 velocity=0 time=6\n",
      "note_on channel=9 note=38 velocity=36 time=17\n",
      "control_change channel=9 control=4 value=67 time=19\n",
      "control_change channel=9 control=4 value=63 time=43\n",
      "note_on channel=9 note=38 velocity=0 time=31\n",
      "control_change channel=9 control=4 value=60 time=13\n",
      "note_on channel=9 note=44 velocity=100 time=12\n",
      "note_on channel=9 note=51 velocity=64 time=5\n",
      "note_on channel=9 note=38 velocity=26 time=6\n",
      "control_change channel=9 control=4 value=56 time=20\n",
      "control_change channel=9 control=4 value=52 time=44\n",
      "note_on channel=9 note=44 velocity=0 time=20\n",
      "note_on channel=9 note=51 velocity=0 time=3\n",
      "note_on channel=9 note=38 velocity=0 time=7\n",
      "control_change channel=9 control=4 value=48 time=13\n",
      "note_on channel=9 note=51 velocity=57 time=10\n",
      "note_on channel=9 note=36 velocity=44 time=6\n",
      "control_change channel=9 control=4 value=44 time=28\n",
      "control_change channel=9 control=4 value=42 time=19\n",
      "control_change channel=9 control=4 value=24 time=21\n",
      "note_on channel=9 note=51 velocity=0 time=19\n",
      "control_change channel=9 control=4 value=5 time=3\n",
      "note_on channel=9 note=36 velocity=0 time=3\n",
      "control_change channel=9 control=4 value=0 time=2\n",
      "note_on channel=9 note=51 velocity=64 time=10\n",
      "control_change channel=9 control=4 value=23 time=11\n",
      "control_change channel=9 control=4 value=47 time=22\n",
      "control_change channel=9 control=4 value=71 time=22\n",
      "control_change channel=9 control=4 value=80 time=22\n",
      "note_on channel=9 note=51 velocity=0 time=17\n",
      "control_change channel=9 control=4 value=89 time=4\n",
      "control_change channel=9 control=4 value=90 time=0\n",
      "note_on channel=9 note=38 velocity=33 time=20\n",
      "control_change channel=9 control=4 value=87 time=25\n",
      "control_change channel=9 control=4 value=83 time=44\n",
      "note_on channel=9 note=38 velocity=0 time=24\n",
      "note_on channel=9 note=36 velocity=33 time=6\n",
      "note_on channel=9 note=51 velocity=76 time=8\n",
      "control_change channel=9 control=4 value=79 time=5\n",
      "note_on channel=9 note=44 velocity=100 time=6\n",
      "control_change channel=9 control=4 value=75 time=38\n",
      "note_on channel=9 note=36 velocity=0 time=36\n",
      "control_change channel=9 control=4 value=71 time=7\n",
      "control_change channel=9 control=4 value=72 time=0\n",
      "note_on channel=9 note=51 velocity=0 time=2\n",
      "note_on channel=9 note=44 velocity=0 time=10\n",
      "control_change channel=9 control=4 value=75 time=10\n",
      "note_on channel=9 note=51 velocity=66 time=6\n",
      "note_on channel=9 note=36 velocity=40 time=7\n",
      "control_change channel=9 control=4 value=79 time=9\n",
      "control_change channel=9 control=4 value=84 time=22\n",
      "control_change channel=9 control=4 value=88 time=21\n",
      "control_change channel=9 control=4 value=90 time=6\n",
      "control_change channel=9 control=4 value=87 time=22\n",
      "note_on channel=9 note=51 velocity=0 time=7\n",
      "note_on channel=9 note=36 velocity=0 time=7\n",
      "control_change channel=9 control=4 value=84 time=8\n",
      "note_on channel=9 note=51 velocity=86 time=13\n",
      "note_on channel=9 note=37 velocity=88 time=1\n",
      "control_change channel=9 control=4 value=81 time=7\n",
      "control_change channel=9 control=4 value=77 time=22\n",
      "control_change channel=9 control=4 value=74 time=22\n",
      "control_change channel=9 control=4 value=71 time=22\n",
      "note_on channel=9 note=51 velocity=0 time=19\n",
      "control_change channel=9 control=4 value=67 time=2\n",
      "note_on channel=9 note=37 velocity=0 time=0\n",
      "control_change channel=9 control=4 value=64 time=22\n",
      "control_change channel=9 control=4 value=61 time=22\n",
      "control_change channel=9 control=4 value=58 time=14\n",
      "control_change channel=9 control=4 value=33 time=22\n",
      "control_change channel=9 control=4 value=7 time=22\n",
      "control_change channel=9 control=4 value=0 time=6\n",
      "control_change channel=9 control=4 value=23 time=21\n",
      "note_on channel=9 note=44 velocity=105 time=21\n",
      "control_change channel=9 control=4 value=47 time=1\n",
      "note_on channel=9 note=40 velocity=94 time=8\n",
      "note_on channel=9 note=51 velocity=84 time=3\n",
      "control_change channel=9 control=4 value=71 time=11\n",
      "control_change channel=9 control=4 value=76 time=4\n",
      "control_change channel=9 control=4 value=83 time=22\n",
      "control_change channel=9 control=4 value=90 time=22\n",
      "note_on channel=9 note=44 velocity=0 time=23\n",
      "note_on channel=9 note=40 velocity=0 time=9\n",
      "note_on channel=9 note=51 velocity=0 time=2\n",
      "control_change channel=9 control=4 value=87 time=9\n",
      "note_on channel=9 note=51 velocity=53 time=26\n",
      "control_change channel=9 control=4 value=84 time=18\n",
      "control_change channel=9 control=4 value=81 time=43\n",
      "note_on channel=9 note=51 velocity=0 time=32\n",
      "control_change channel=9 control=4 value=78 time=12\n",
      "note_on channel=9 note=36 velocity=48 time=3\n",
      "note_on channel=9 note=51 velocity=87 time=12\n",
      "control_change channel=9 control=4 value=75 time=28\n",
      "control_change channel=9 control=4 value=80 time=22\n",
      "control_change channel=9 control=4 value=85 time=22\n",
      "note_on channel=9 note=36 velocity=0 time=9\n",
      "control_change channel=9 control=4 value=90 time=11\n",
      "note_on channel=9 note=51 velocity=0 time=2\n",
      "control_change channel=9 control=4 value=86 time=20\n",
      "note_on channel=9 note=38 velocity=25 time=18\n",
      "control_change channel=9 control=4 value=82 time=4\n",
      "control_change channel=9 control=4 value=78 time=21\n",
      "control_change channel=9 control=4 value=74 time=22\n",
      "control_change channel=9 control=4 value=70 time=22\n",
      "control_change channel=9 control=4 value=66 time=22\n",
      "note_on channel=9 note=38 velocity=0 time=3\n",
      "note_on channel=9 note=44 velocity=90 time=1\n",
      "note_on channel=9 note=51 velocity=71 time=9\n",
      "note_on channel=9 note=38 velocity=32 time=6\n",
      "control_change channel=9 control=4 value=62 time=2\n",
      "control_change channel=9 control=4 value=58 time=22\n",
      "control_change channel=9 control=4 value=54 time=22\n",
      "control_change channel=9 control=4 value=50 time=22\n",
      "note_on channel=9 note=44 velocity=0 time=11\n",
      "note_on channel=9 note=51 velocity=0 time=8\n",
      "control_change channel=9 control=4 value=46 time=2\n",
      "note_on channel=9 note=38 velocity=0 time=5\n",
      "note_on channel=9 note=36 velocity=46 time=7\n",
      "control_change channel=9 control=4 value=43 time=1\n",
      "note_on channel=9 note=51 velocity=53 time=16\n",
      "control_change channel=9 control=4 value=22 time=6\n",
      "control_change channel=9 control=4 value=0 time=22\n",
      "control_change channel=9 control=4 value=1 time=0\n",
      "control_change channel=9 control=4 value=25 time=22\n",
      "control_change channel=9 control=4 value=50 time=21\n",
      "note_on channel=9 note=36 velocity=0 time=7\n",
      "control_change channel=9 control=4 value=76 time=15\n",
      "note_on channel=9 note=51 velocity=0 time=1\n",
      "control_change channel=9 control=4 value=78 time=1\n",
      "note_on channel=9 note=51 velocity=73 time=17\n",
      "control_change channel=9 control=4 value=84 time=4\n",
      "note_on channel=9 note=37 velocity=84 time=2\n",
      "control_change channel=9 control=4 value=90 time=20\n",
      "control_change channel=9 control=4 value=89 time=44\n",
      "note_on channel=9 note=51 velocity=0 time=24\n",
      "note_on channel=9 note=37 velocity=0 time=6\n",
      "control_change channel=9 control=4 value=87 time=13\n",
      "control_change channel=9 control=4 value=85 time=44\n",
      "control_change channel=9 control=4 value=83 time=43\n",
      "control_change channel=9 control=4 value=82 time=22\n",
      "note_on channel=9 note=44 velocity=100 time=8\n",
      "control_change channel=9 control=4 value=85 time=14\n",
      "note_on channel=9 note=51 velocity=76 time=3\n",
      "control_change channel=9 control=4 value=88 time=18\n",
      "control_change channel=9 control=4 value=90 time=9\n",
      "control_change channel=9 control=4 value=86 time=43\n",
      "note_on channel=9 note=44 velocity=0 time=7\n",
      "note_on channel=9 note=51 velocity=0 time=17\n",
      "control_change channel=9 control=4 value=81 time=20\n",
      "note_on channel=9 note=51 velocity=67 time=4\n",
      "note_on channel=9 note=36 velocity=47 time=4\n",
      "control_change channel=9 control=4 value=76 time=35\n",
      "control_change channel=9 control=4 value=72 time=44\n",
      "note_on channel=9 note=51 velocity=0 time=11\n",
      "note_on channel=9 note=36 velocity=0 time=3\n",
      "note_on channel=9 note=51 velocity=62 time=18\n",
      "control_change channel=9 control=4 value=67 time=11\n",
      "control_change channel=9 control=4 value=62 time=44\n",
      "control_change channel=9 control=4 value=58 time=32\n",
      "note_on channel=9 note=51 velocity=0 time=6\n",
      "control_change channel=9 control=4 value=33 time=16\n",
      "note_on channel=9 note=38 velocity=34 time=9\n",
      "control_change channel=9 control=4 value=7 time=12\n",
      "control_change channel=9 control=4 value=0 time=6\n",
      "control_change channel=9 control=4 value=19 time=22\n",
      "control_change channel=9 control=4 value=38 time=22\n",
      "control_change channel=9 control=4 value=58 time=21\n",
      "note_on channel=9 note=38 velocity=0 time=11\n",
      "note_on channel=9 note=38 velocity=17 time=3\n",
      "control_change channel=9 control=4 value=71 time=1\n",
      "note_on channel=9 note=36 velocity=29 time=7\n",
      "note_on channel=9 note=51 velocity=79 time=7\n",
      "note_on channel=9 note=44 velocity=90 time=3\n",
      "control_change channel=9 control=4 value=80 time=5\n",
      "control_change channel=9 control=4 value=89 time=21\n",
      "control_change channel=9 control=4 value=90 time=0\n",
      "control_change channel=9 control=4 value=89 time=44\n",
      "note_on channel=9 note=38 velocity=0 time=5\n",
      "note_on channel=9 note=36 velocity=0 time=9\n",
      "note_on channel=9 note=51 velocity=0 time=6\n",
      "note_on channel=9 note=44 velocity=0 time=4\n",
      "control_change channel=9 control=4 value=87 time=19\n",
      "note_on channel=9 note=51 velocity=62 time=0\n",
      "note_on channel=9 note=36 velocity=40 time=4\n",
      "control_change channel=9 control=4 value=85 time=40\n",
      "control_change channel=9 control=4 value=83 time=43\n",
      "note_on channel=9 note=51 velocity=0 time=7\n",
      "note_on channel=9 note=36 velocity=0 time=4\n",
      "control_change channel=9 control=4 value=82 time=11\n",
      "note_on channel=9 note=51 velocity=76 time=19\n",
      "note_on channel=9 note=40 velocity=120 time=10\n",
      "control_change channel=9 control=4 value=87 time=15\n",
      "control_change channel=9 control=4 value=90 time=17\n",
      "control_change channel=9 control=4 value=87 time=22\n",
      "control_change channel=9 control=4 value=83 time=20\n",
      "note_on channel=9 note=51 velocity=0 time=9\n",
      "note_on channel=9 note=40 velocity=0 time=10\n",
      "control_change channel=9 control=4 value=79 time=4\n",
      "control_change channel=9 control=4 value=76 time=22\n",
      "note_on channel=9 note=38 velocity=27 time=2\n",
      "control_change channel=9 control=4 value=72 time=20\n",
      "control_change channel=9 control=4 value=68 time=22\n",
      "control_change channel=9 control=4 value=64 time=21\n",
      "control_change channel=9 control=4 value=61 time=22\n",
      "note_on channel=9 note=38 velocity=0 time=9\n",
      "control_change channel=9 control=4 value=57 time=13\n",
      "note_on channel=9 note=44 velocity=95 time=1\n",
      "note_on channel=9 note=51 velocity=68 time=7\n",
      "control_change channel=9 control=4 value=53 time=14\n",
      "control_change channel=9 control=4 value=50 time=21\n",
      "control_change channel=9 control=4 value=46 time=22\n",
      "control_change channel=9 control=4 value=42 time=19\n",
      "note_on channel=9 note=44 velocity=0 time=11\n",
      "note_on channel=9 note=51 velocity=0 time=6\n",
      "control_change channel=9 control=4 value=22 time=5\n",
      "note_on channel=9 note=51 velocity=62 time=16\n",
      "control_change channel=9 control=4 value=0 time=5\n",
      "control_change channel=9 control=4 value=1 time=0\n",
      "note_on channel=9 note=38 velocity=38 time=11\n",
      "control_change channel=9 control=4 value=22 time=13\n",
      "control_change channel=9 control=4 value=45 time=21\n",
      "control_change channel=9 control=4 value=68 time=22\n",
      "control_change channel=9 control=4 value=70 time=2\n",
      "note_on channel=9 note=51 velocity=0 time=19\n",
      "control_change channel=9 control=4 value=80 time=2\n",
      "note_on channel=9 note=38 velocity=0 time=15\n",
      "note_on channel=9 note=36 velocity=37 time=1\n",
      "note_on channel=9 note=51 velocity=51 time=5\n",
      "control_change channel=9 control=4 value=90 time=1\n",
      "control_change channel=9 control=4 value=87 time=44\n",
      "control_change channel=9 control=4 value=83 time=43\n",
      "note_on channel=9 note=36 velocity=0 time=1\n",
      "note_on channel=9 note=51 velocity=0 time=4\n",
      "control_change channel=9 control=4 value=80 time=39\n",
      "note_on channel=9 note=38 velocity=30 time=14\n",
      "control_change channel=9 control=4 value=76 time=29\n",
      "control_change channel=9 control=4 value=73 time=33\n",
      "note_on channel=9 note=44 velocity=90 time=21\n",
      "note_on channel=9 note=38 velocity=0 time=11\n",
      "note_on channel=9 note=51 velocity=68 time=10\n",
      "control_change channel=9 control=4 value=78 time=2\n",
      "note_on channel=9 note=38 velocity=21 time=2\n",
      "control_change channel=9 control=4 value=80 time=7\n",
      "control_change channel=9 control=4 value=84 time=21\n",
      "control_change channel=9 control=4 value=89 time=22\n",
      "control_change channel=9 control=4 value=90 time=0\n",
      "note_on channel=9 note=44 velocity=0 time=19\n",
      "control_change channel=9 control=4 value=87 time=3\n",
      "note_on channel=9 note=51 velocity=0 time=18\n",
      "note_on channel=9 note=38 velocity=0 time=3\n",
      "control_change channel=9 control=4 value=84 time=1\n",
      "note_on channel=9 note=36 velocity=46 time=19\n",
      "control_change channel=9 control=4 value=81 time=2\n",
      "note_on channel=9 note=51 velocity=49 time=5\n",
      "control_change channel=9 control=4 value=78 time=17\n",
      "control_change channel=9 control=4 value=75 time=22\n",
      "control_change channel=9 control=4 value=72 time=22\n",
      "control_change channel=9 control=4 value=69 time=21\n",
      "note_on channel=9 note=36 velocity=0 time=4\n",
      "note_on channel=9 note=51 velocity=0 time=8\n",
      "control_change channel=9 control=4 value=66 time=10\n",
      "note_on channel=9 note=51 velocity=79 time=16\n",
      "note_on channel=9 note=37 velocity=78 time=3\n",
      "control_change channel=9 control=4 value=63 time=3\n",
      "control_change channel=9 control=4 value=60 time=22\n",
      "control_change channel=9 control=4 value=58 time=13\n",
      "control_change channel=9 control=4 value=31 time=21\n",
      "control_change channel=9 control=4 value=4 time=22\n",
      "control_change channel=9 control=4 value=0 time=3\n",
      "note_on channel=9 note=51 velocity=0 time=6\n",
      "note_on channel=9 note=37 velocity=0 time=4\n",
      "control_change channel=9 control=4 value=21 time=12\n",
      "note_on channel=9 note=38 velocity=29 time=17\n",
      "control_change channel=9 control=4 value=43 time=5\n",
      "control_change channel=9 control=4 value=65 time=21\n",
      "control_change channel=9 control=4 value=78 time=13\n",
      "control_change channel=9 control=4 value=84 time=22\n",
      "control_change channel=9 control=4 value=90 time=22\n",
      "note_on channel=9 note=38 velocity=0 time=11\n",
      "note_on channel=9 note=44 velocity=100 time=11\n",
      "note_on channel=9 note=38 velocity=19 time=13\n",
      "control_change channel=9 control=4 value=87 time=8\n",
      "note_on channel=9 note=51 velocity=65 time=1\n",
      "control_change channel=9 control=4 value=83 time=43\n",
      "note_on channel=9 note=44 velocity=0 time=28\n",
      "note_on channel=9 note=38 velocity=0 time=14\n",
      "control_change channel=9 control=4 value=79 time=1\n",
      "note_on channel=9 note=51 velocity=0 time=7\n",
      "note_on channel=9 note=36 velocity=45 time=10\n",
      "note_on channel=9 note=51 velocity=69 time=11\n",
      "control_change channel=9 control=4 value=75 time=16\n",
      "control_change channel=9 control=4 value=73 time=17\n",
      "control_change channel=9 control=4 value=78 time=44\n",
      "note_on channel=9 note=36 velocity=0 time=6\n",
      "control_change channel=9 control=4 value=80 time=8\n",
      "note_on channel=9 note=51 velocity=0 time=2\n",
      "note_on channel=9 note=51 velocity=58 time=17\n",
      "control_change channel=9 control=4 value=84 time=3\n",
      "control_change channel=9 control=4 value=89 time=22\n",
      "control_change channel=9 control=4 value=90 time=0\n",
      "control_change channel=9 control=4 value=87 time=22\n",
      "control_change channel=9 control=4 value=84 time=21\n",
      "control_change channel=9 control=4 value=81 time=22\n",
      "note_on channel=9 note=51 velocity=0 time=3\n",
      "control_change channel=9 control=4 value=78 time=19\n",
      "note_on channel=9 note=38 velocity=32 time=7\n",
      "control_change channel=9 control=4 value=75 time=15\n",
      "control_change channel=9 control=4 value=72 time=21\n",
      "control_change channel=9 control=4 value=69 time=22\n",
      "control_change channel=9 control=4 value=66 time=22\n",
      "note_on channel=9 note=38 velocity=0 time=14\n",
      "control_change channel=9 control=4 value=63 time=8\n",
      "note_on channel=9 note=38 velocity=24 time=0\n",
      "note_on channel=9 note=36 velocity=25 time=1\n",
      "note_on channel=9 note=51 velocity=83 time=9\n",
      "note_on channel=9 note=44 velocity=95 time=4\n",
      "control_change channel=9 control=4 value=60 time=7\n",
      "control_change channel=9 control=4 value=59 time=3\n",
      "control_change channel=9 control=4 value=35 time=22\n",
      "control_change channel=9 control=4 value=10 time=22\n",
      "control_change channel=9 control=4 value=0 time=8\n",
      "note_on channel=9 note=38 velocity=0 time=18\n",
      "note_on channel=9 note=36 velocity=0 time=1\n",
      "control_change channel=9 control=4 value=19 time=3\n",
      "note_on channel=9 note=51 velocity=0 time=5\n",
      "note_on channel=9 note=44 velocity=0 time=5\n",
      "note_on channel=9 note=36 velocity=37 time=11\n",
      "control_change channel=9 control=4 value=39 time=1\n",
      "note_on channel=9 note=51 velocity=63 time=7\n",
      "control_change channel=9 control=4 value=59 time=15\n",
      "control_change channel=9 control=4 value=71 time=11\n",
      "control_change channel=9 control=4 value=80 time=22\n",
      "control_change channel=9 control=4 value=89 time=22\n",
      "control_change channel=9 control=4 value=90 time=0\n",
      "note_on channel=9 note=36 velocity=0 time=15\n",
      "note_on channel=9 note=51 velocity=0 time=9\n",
      "note_on channel=9 note=38 velocity=89 time=29\n",
      "note_on channel=9 note=51 velocity=88 time=0\n",
      "control_change channel=9 control=4 value=88 time=35\n",
      "note_on channel=9 note=38 velocity=0 time=58\n",
      "note_on channel=9 note=51 velocity=0 time=0\n",
      "control_change channel=9 control=4 value=85 time=29\n",
      "note_on channel=9 note=38 velocity=29 time=4\n",
      "control_change channel=9 control=4 value=84 time=5\n",
      "control_change channel=9 control=4 value=87 time=43\n",
      "control_change channel=9 control=4 value=90 time=25\n",
      "note_on channel=9 note=38 velocity=0 time=21\n",
      "control_change channel=9 control=4 value=85 time=23\n",
      "note_on channel=9 note=44 velocity=100 time=3\n",
      "note_on channel=9 note=51 velocity=77 time=1\n",
      "control_change channel=9 control=4 value=80 time=39\n",
      "control_change channel=9 control=4 value=75 time=44\n",
      "note_on channel=9 note=44 velocity=0 time=9\n",
      "note_on channel=9 note=51 velocity=0 time=0\n",
      "note_on channel=9 note=38 velocity=55 time=10\n",
      "note_on channel=9 note=51 velocity=68 time=0\n",
      "control_change channel=9 control=4 value=69 time=24\n",
      "control_change channel=9 control=4 value=64 time=44\n",
      "note_on channel=9 note=38 velocity=0 time=25\n",
      "note_on channel=9 note=51 velocity=0 time=0\n",
      "control_change channel=9 control=4 value=58 time=18\n",
      "control_change channel=9 control=4 value=59 time=0\n",
      "note_on channel=9 note=36 velocity=45 time=2\n",
      "note_on channel=9 note=51 velocity=64 time=10\n",
      "control_change channel=9 control=4 value=32 time=11\n",
      "control_change channel=9 control=4 value=6 time=22\n",
      "control_change channel=9 control=4 value=0 time=4\n",
      "control_change channel=9 control=4 value=18 time=22\n",
      "control_change channel=9 control=4 value=36 time=22\n",
      "note_on channel=9 note=36 velocity=0 time=2\n",
      "note_on channel=9 note=51 velocity=0 time=11\n",
      "control_change channel=9 control=4 value=54 time=9\n",
      "control_change channel=9 control=4 value=72 time=20\n",
      "note_on channel=9 note=38 velocity=21 time=1\n",
      "control_change channel=9 control=4 value=80 time=21\n",
      "control_change channel=9 control=4 value=89 time=21\n",
      "control_change channel=9 control=4 value=90 time=0\n",
      "control_change channel=9 control=4 value=87 time=44\n",
      "note_on channel=9 note=38 velocity=0 time=8\n",
      "note_on channel=9 note=44 velocity=100 time=15\n",
      "note_on channel=9 note=51 velocity=69 time=4\n",
      "note_on channel=9 note=38 velocity=24 time=7\n",
      "control_change channel=9 control=4 value=84 time=9\n",
      "control_change channel=9 control=4 value=81 time=44\n",
      "note_on channel=9 note=44 velocity=0 time=30\n",
      "note_on channel=9 note=51 velocity=0 time=4\n",
      "note_on channel=9 note=38 velocity=0 time=7\n",
      "control_change channel=9 control=4 value=77 time=2\n",
      "note_on channel=9 note=51 velocity=50 time=24\n",
      "control_change channel=9 control=4 value=75 time=1\n",
      "note_on channel=9 note=36 velocity=46 time=6\n",
      "control_change channel=9 control=4 value=78 time=16\n",
      "control_change channel=9 control=4 value=82 time=22\n",
      "control_change channel=9 control=4 value=85 time=21\n",
      "control_change channel=9 control=4 value=89 time=22\n",
      "control_change channel=9 control=4 value=90 time=3\n",
      "note_on channel=9 note=51 velocity=0 time=2\n",
      "note_on channel=9 note=36 velocity=0 time=7\n",
      "note_on channel=9 note=51 velocity=77 time=18\n",
      "note_on channel=9 note=37 velocity=79 time=9\n",
      "control_change channel=9 control=4 value=85 time=7\n",
      "control_change channel=9 control=4 value=79 time=44\n",
      "note_on channel=9 note=51 velocity=0 time=34\n",
      "control_change channel=9 control=4 value=73 time=9\n",
      "note_on channel=9 note=37 velocity=0 time=0\n",
      "note_on channel=9 note=38 velocity=26 time=31\n",
      "control_change channel=9 control=4 value=67 time=13\n",
      "control_change channel=9 control=4 value=61 time=43\n",
      "control_change channel=9 control=4 value=57 time=27\n",
      "note_on channel=9 note=38 velocity=0 time=11\n",
      "control_change channel=9 control=4 value=32 time=10\n",
      "note_on channel=9 note=44 velocity=87 time=7\n",
      "note_on channel=9 note=51 velocity=61 time=4\n",
      "note_on channel=9 note=38 velocity=25 time=4\n",
      "control_change channel=9 control=4 value=7 time=7\n",
      "control_change channel=9 control=4 value=0 time=6\n",
      "control_change channel=9 control=4 value=20 time=22\n",
      "control_change channel=9 control=4 value=41 time=21\n",
      "control_change channel=9 control=4 value=62 time=22\n",
      "note_on channel=9 note=44 velocity=0 time=7\n",
      "note_on channel=9 note=51 velocity=0 time=5\n",
      "control_change channel=9 control=4 value=78 time=4\n",
      "note_on channel=9 note=38 velocity=0 time=0\n",
      "note_on channel=9 note=51 velocity=65 time=19\n",
      "control_change channel=9 control=4 value=84 time=3\n",
      "control_change channel=9 control=4 value=90 time=22\n",
      "note_on channel=9 note=36 velocity=51 time=0\n",
      "control_change channel=9 control=4 value=87 time=43\n",
      "note_on channel=9 note=51 velocity=0 time=26\n",
      "control_change channel=9 control=4 value=84 time=18\n",
      "note_on channel=9 note=51 velocity=61 time=1\n",
      "note_on channel=9 note=36 velocity=0 time=5\n",
      "control_change channel=9 control=4 value=81 time=37\n",
      "control_change channel=9 control=4 value=78 time=44\n",
      "note_on channel=9 note=51 velocity=0 time=8\n",
      "note_on channel=9 note=38 velocity=38 time=21\n",
      "control_change channel=9 control=4 value=75 time=14\n",
      "control_change channel=9 control=4 value=74 time=15\n",
      "control_change channel=9 control=4 value=79 time=21\n",
      "control_change channel=9 control=4 value=84 time=22\n",
      "control_change channel=9 control=4 value=89 time=22\n",
      "note_on channel=9 note=38 velocity=0 time=0\n",
      "control_change channel=9 control=4 value=90 time=3\n",
      "note_on channel=9 note=44 velocity=92 time=19\n",
      "control_change channel=9 control=4 value=87 time=2\n",
      "note_on channel=9 note=51 velocity=66 time=1\n",
      "note_on channel=9 note=36 velocity=30 time=9\n",
      "control_change channel=9 control=4 value=84 time=12\n",
      "control_change channel=9 control=4 value=81 time=22\n",
      "control_change channel=9 control=4 value=77 time=22\n",
      "control_change channel=9 control=4 value=74 time=21\n",
      "note_on channel=9 note=44 velocity=0 time=5\n",
      "note_on channel=9 note=51 velocity=0 time=3\n",
      "note_on channel=9 note=36 velocity=0 time=8\n",
      "control_change channel=9 control=4 value=71 time=6\n",
      "note_on channel=9 note=51 velocity=62 time=15\n",
      "note_on channel=9 note=36 velocity=38 time=1\n",
      "control_change channel=9 control=4 value=67 time=6\n",
      "control_change channel=9 control=4 value=64 time=22\n",
      "control_change channel=9 control=4 value=61 time=21\n",
      "control_change channel=9 control=4 value=57 time=22\n",
      "note_on channel=9 note=36 velocity=0 time=21\n",
      "note_on channel=9 note=51 velocity=0 time=0\n",
      "control_change channel=9 control=4 value=29 time=1\n",
      "note_on channel=9 note=37 velocity=79 time=7\n",
      "note_on channel=9 note=51 velocity=88 time=13\n",
      "control_change channel=9 control=4 value=0 time=2\n",
      "control_change channel=9 control=4 value=1 time=0\n",
      "control_change channel=9 control=4 value=19 time=21\n",
      "control_change channel=9 control=4 value=39 time=22\n",
      "control_change channel=9 control=4 value=58 time=22\n",
      "note_on channel=9 note=37 velocity=0 time=14\n",
      "control_change channel=9 control=4 value=77 time=6\n",
      "note_on channel=9 note=51 velocity=0 time=6\n",
      "control_change channel=9 control=4 value=83 time=16\n",
      "note_on channel=9 note=38 velocity=31 time=14\n",
      "control_change channel=9 control=4 value=90 time=8\n",
      "control_change channel=9 control=4 value=88 time=43\n",
      "note_on channel=9 note=38 velocity=0 time=43\n",
      "control_change channel=9 control=4 value=85 time=1\n",
      "note_on channel=9 note=44 velocity=102 time=12\n",
      "note_on channel=9 note=51 velocity=79 time=12\n",
      "control_change channel=9 control=4 value=82 time=19\n",
      "control_change channel=9 control=4 value=79 time=44\n",
      "note_on channel=9 note=44 velocity=0 time=20\n",
      "note_on channel=9 note=38 velocity=15 time=5\n",
      "note_on channel=9 note=51 velocity=0 time=6\n",
      "control_change channel=9 control=4 value=75 time=12\n",
      "control_change channel=9 control=4 value=76 time=0\n",
      "note_on channel=9 note=51 velocity=68 time=10\n",
      "control_change channel=9 control=4 value=79 time=13\n",
      "control_change channel=9 control=4 value=83 time=22\n",
      "control_change channel=9 control=4 value=87 time=22\n",
      "note_on channel=9 note=38 velocity=0 time=9\n",
      "control_change channel=9 control=4 value=90 time=1\n",
      "control_change channel=9 control=4 value=86 time=22\n",
      "note_on channel=9 note=51 velocity=0 time=5\n",
      "control_change channel=9 control=4 value=82 time=17\n",
      "note_on channel=9 note=36 velocity=49 time=5\n",
      "note_on channel=9 note=51 velocity=86 time=13\n",
      "control_change channel=9 control=4 value=78 time=3\n",
      "control_change channel=9 control=4 value=73 time=22\n",
      "control_change channel=9 control=4 value=69 time=22\n",
      "control_change channel=9 control=4 value=65 time=22\n",
      "note_on channel=9 note=36 velocity=0 time=12\n",
      "control_change channel=9 control=4 value=60 time=9\n",
      "note_on channel=9 note=51 velocity=0 time=4\n",
      "control_change channel=9 control=4 value=56 time=18\n",
      "note_on channel=9 note=38 velocity=20 time=10\n",
      "control_change channel=9 control=4 value=52 time=12\n",
      "control_change channel=9 control=4 value=47 time=22\n",
      "control_change channel=9 control=4 value=43 time=21\n",
      "control_change channel=9 control=4 value=42 time=3\n",
      "control_change channel=9 control=4 value=21 time=22\n",
      "note_on channel=9 note=44 velocity=102 time=11\n",
      "note_on channel=9 note=38 velocity=0 time=3\n",
      "control_change channel=9 control=4 value=0 time=8\n",
      "note_on channel=9 note=43 velocity=113 time=11\n",
      "control_change channel=9 control=4 value=19 time=10\n",
      "control_change channel=9 control=4 value=38 time=22\n",
      "control_change channel=9 control=4 value=57 time=22\n",
      "control_change channel=9 control=4 value=67 time=10\n",
      "note_on channel=9 note=44 velocity=0 time=8\n",
      "control_change channel=9 control=4 value=78 time=14\n",
      "note_on channel=9 note=43 velocity=0 time=8\n",
      "control_change channel=9 control=4 value=89 time=14\n",
      "control_change channel=9 control=4 value=90 time=0\n",
      "note_on channel=9 note=38 velocity=14 time=21\n",
      "control_change channel=9 control=4 value=87 time=22\n",
      "control_change channel=9 control=4 value=83 time=44\n",
      "note_on channel=9 note=38 velocity=0 time=28\n",
      "control_change channel=9 control=4 value=79 time=15\n",
      "note_on channel=9 note=45 velocity=89 time=10\n",
      "control_change channel=9 control=4 value=75 time=34\n",
      "control_change channel=9 control=4 value=73 time=23\n",
      "note_on channel=9 note=45 velocity=0 time=36\n",
      "note_on channel=9 note=38 velocity=18 time=5\n",
      "control_change channel=9 control=4 value=77 time=2\n",
      "control_change channel=9 control=4 value=79 time=18\n",
      "control_change channel=9 control=4 value=84 time=21\n",
      "control_change channel=9 control=4 value=90 time=22\n",
      "control_change channel=9 control=4 value=87 time=22\n",
      "note_on channel=9 note=38 velocity=0 time=9\n",
      "control_change channel=9 control=4 value=84 time=13\n",
      "note_on channel=9 note=44 velocity=97 time=3\n",
      "control_change channel=9 control=4 value=81 time=18\n",
      "note_on channel=9 note=48 velocity=105 time=2\n",
      "control_change channel=9 control=4 value=77 time=20\n",
      "control_change channel=9 control=4 value=74 time=22\n",
      "control_change channel=9 control=4 value=71 time=22\n",
      "note_on channel=9 note=44 velocity=0 time=9\n",
      "control_change channel=9 control=4 value=68 time=12\n",
      "note_on channel=9 note=48 velocity=0 time=9\n",
      "control_change channel=9 control=4 value=64 time=13\n",
      "note_on channel=9 note=38 velocity=24 time=8\n",
      "control_change channel=9 control=4 value=61 time=14\n",
      "control_change channel=9 control=4 value=58 time=22\n",
      "control_change channel=9 control=4 value=57 time=3\n",
      "control_change channel=9 control=4 value=34 time=21\n",
      "control_change channel=9 control=4 value=10 time=22\n",
      "control_change channel=9 control=4 value=0 time=9\n",
      "note_on channel=9 note=38 velocity=0 time=2\n",
      "control_change channel=9 control=4 value=19 time=20\n",
      "note_on channel=9 note=38 velocity=74 time=17\n",
      "control_change channel=9 control=4 value=39 time=4\n",
      "control_change channel=9 control=4 value=59 time=22\n",
      "control_change channel=9 control=4 value=71 time=13\n",
      "control_change channel=9 control=4 value=80 time=22\n",
      "control_change channel=9 control=4 value=89 time=22\n",
      "control_change channel=9 control=4 value=90 time=0\n",
      "note_on channel=9 note=38 velocity=0 time=11\n",
      "note_on channel=9 note=38 velocity=93 time=31\n",
      "control_change channel=9 control=4 value=87 time=1\n",
      "control_change channel=9 control=4 value=84 time=44\n",
      "control_change channel=9 control=4 value=81 time=43\n",
      "note_on channel=9 note=44 velocity=95 time=2\n",
      "note_on channel=9 note=38 velocity=0 time=4\n",
      "control_change channel=9 control=4 value=78 time=38\n",
      "control_change channel=9 control=4 value=76 time=26\n",
      "control_change channel=9 control=4 value=80 time=21\n",
      "note_on channel=9 note=44 velocity=0 time=5\n",
      "control_change channel=9 control=4 value=84 time=17\n",
      "control_change channel=9 control=4 value=88 time=22\n",
      "control_change channel=9 control=4 value=90 time=9\n",
      "note_on channel=9 note=38 velocity=100 time=11\n",
      "control_change channel=9 control=4 value=86 time=10\n",
      "control_change channel=9 control=4 value=81 time=22\n",
      "control_change channel=9 control=4 value=76 time=22\n",
      "control_change channel=9 control=4 value=71 time=22\n",
      "note_on channel=9 note=38 velocity=0 time=17\n",
      "control_change channel=9 control=4 value=67 time=4\n",
      "control_change channel=9 control=4 value=62 time=22\n",
      "note_on channel=9 note=40 velocity=113 time=11\n",
      "control_change channel=9 control=4 value=57 time=11\n",
      "control_change channel=9 control=4 value=52 time=22\n",
      "control_change channel=9 control=4 value=48 time=21\n",
      "control_change channel=9 control=4 value=43 time=22\n",
      "control_change channel=9 control=4 value=41 time=7\n",
      "note_on channel=9 note=40 velocity=0 time=11\n",
      "control_change channel=9 control=4 value=22 time=11\n",
      "control_change channel=9 control=4 value=2 time=22\n",
      "control_change channel=9 control=4 value=0 time=1\n",
      "control_change channel=9 control=4 value=18 time=22\n",
      "control_change channel=9 control=4 value=37 time=22\n",
      "control_change channel=9 control=4 value=56 time=22\n",
      "control_change channel=9 control=4 value=75 time=21\n",
      "control_change channel=9 control=4 value=77 time=3\n",
      "note_on channel=9 note=44 velocity=100 time=13\n",
      "control_change channel=9 control=4 value=83 time=9\n",
      "control_change channel=9 control=4 value=90 time=22\n",
      "control_change channel=9 control=4 value=88 time=43\n",
      "note_on channel=9 note=44 velocity=0 time=20\n",
      "control_change channel=9 control=4 value=86 time=24\n",
      "note_on channel=9 note=51 velocity=57 time=14\n",
      "control_change channel=9 control=4 value=84 time=29\n",
      "control_change channel=9 control=4 value=82 time=32\n",
      "note_on channel=9 note=51 velocity=0 time=3\n",
      "note_on channel=9 note=51 velocity=85 time=0\n",
      "note_on channel=9 note=51 velocity=0 time=30\n",
      "control_change channel=9 control=4 value=79 time=11\n",
      "control_change channel=9 control=4 value=78 time=3\n",
      "note_on channel=9 note=36 velocity=66 time=9\n",
      "note_on channel=9 note=55 velocity=96 time=2\n",
      "control_change channel=9 control=4 value=82 time=10\n",
      "control_change channel=9 control=4 value=86 time=22\n",
      "control_change channel=9 control=4 value=90 time=20\n",
      "note_on channel=9 note=36 velocity=0 time=40\n",
      "note_on channel=9 note=55 velocity=0 time=1\n",
      "control_change channel=9 control=4 value=85 time=3\n",
      "control_change channel=9 control=4 value=80 time=43\n",
      "control_change channel=9 control=4 value=74 time=44\n",
      "control_change channel=9 control=4 value=69 time=43\n",
      "note_on channel=9 note=44 velocity=102 time=10\n",
      "control_change channel=9 control=4 value=64 time=34\n",
      "control_change channel=9 control=4 value=58 time=43\n",
      "control_change channel=9 control=4 value=57 time=8\n",
      "note_on channel=9 note=44 velocity=0 time=9\n",
      "control_change channel=9 control=4 value=29 time=12\n",
      "note_on channel=9 note=36 velocity=47 time=1\n",
      "control_change channel=9 control=4 value=0 time=21\n",
      "control_change channel=9 control=4 value=1 time=0\n",
      "control_change channel=9 control=4 value=19 time=22\n",
      "control_change channel=9 control=4 value=38 time=22\n",
      "control_change channel=9 control=4 value=57 time=21\n",
      "note_on channel=9 note=36 velocity=0 time=8\n",
      "control_change channel=9 control=4 value=76 time=14\n",
      "control_change channel=9 control=4 value=78 time=3\n",
      "note_on channel=9 note=38 velocity=93 time=19\n",
      "control_change channel=9 control=4 value=84 time=3\n",
      "note_on channel=9 note=51 velocity=127 time=7\n",
      "control_change channel=9 control=4 value=90 time=15\n",
      "control_change channel=9 control=4 value=87 time=43\n",
      "note_on channel=9 note=38 velocity=0 time=26\n",
      "note_on channel=9 note=51 velocity=0 time=9\n",
      "control_change channel=9 control=4 value=83 time=9\n",
      "note_on channel=9 note=38 velocity=20 time=13\n",
      "control_change channel=9 control=4 value=80 time=30\n",
      "control_change channel=9 control=4 value=76 time=44\n",
      "note_on channel=9 note=38 velocity=0 time=20\n",
      "control_change channel=9 control=4 value=73 time=16\n",
      "note_on channel=9 note=51 velocity=48 time=13\n",
      "note_on channel=9 note=44 velocity=105 time=5\n",
      "control_change channel=9 control=4 value=77 time=4\n",
      "control_change channel=9 control=4 value=81 time=21\n",
      "control_change channel=9 control=4 value=85 time=22\n",
      "control_change channel=9 control=4 value=89 time=22\n",
      "control_change channel=9 control=4 value=90 time=0\n",
      "note_on channel=9 note=38 velocity=37 time=14\n",
      "note_on channel=9 note=51 velocity=0 time=6\n",
      "control_change channel=9 control=4 value=87 time=2\n",
      "note_on channel=9 note=44 velocity=0 time=3\n",
      "note_on channel=9 note=51 velocity=48 time=9\n",
      "control_change channel=9 control=4 value=84 time=9\n",
      "control_change channel=9 control=4 value=81 time=22\n",
      "control_change channel=9 control=4 value=77 time=22\n",
      "note_on channel=9 note=38 velocity=0 time=21\n",
      "control_change channel=9 control=4 value=74 time=1\n",
      "note_on channel=9 note=51 velocity=0 time=19\n",
      "control_change channel=9 control=4 value=71 time=2\n",
      "control_change channel=9 control=4 value=67 time=22\n",
      "note_on channel=9 note=51 velocity=95 time=14\n",
      "control_change channel=9 control=4 value=64 time=8\n",
      "control_change channel=9 control=4 value=61 time=22\n",
      "control_change channel=9 control=4 value=57 time=21\n",
      "control_change channel=9 control=4 value=34 time=22\n",
      "note_on channel=9 note=51 velocity=0 time=21\n",
      "control_change channel=9 control=4 value=11 time=1\n",
      "note_on channel=9 note=38 velocity=28 time=9\n",
      "control_change channel=9 control=4 value=0 time=1\n",
      "control_change channel=9 control=4 value=19 time=22\n",
      "control_change channel=9 control=4 value=38 time=21\n",
      "control_change channel=9 control=4 value=58 time=22\n",
      "control_change channel=9 control=4 value=77 time=20\n",
      "note_on channel=9 note=38 velocity=0 time=8\n",
      "control_change channel=9 control=4 value=83 time=14\n",
      "note_on channel=9 note=36 velocity=27 time=4\n",
      "note_on channel=9 note=51 velocity=71 time=12\n",
      "control_change channel=9 control=4 value=90 time=6\n",
      "note_on channel=9 note=44 velocity=105 time=1\n",
      "note_on channel=9 note=38 velocity=33 time=1\n",
      "control_change channel=9 control=4 value=87 time=41\n",
      "note_on channel=9 note=36 velocity=0 time=32\n",
      "control_change channel=9 control=4 value=83 time=12\n",
      "note_on channel=9 note=51 velocity=0 time=1\n",
      "note_on channel=9 note=38 velocity=0 time=7\n",
      "note_on channel=9 note=44 velocity=0 time=0\n",
      "note_on channel=9 note=36 velocity=45 time=9\n",
      "note_on channel=9 note=51 velocity=62 time=9\n",
      "control_change channel=9 control=4 value=79 time=17\n",
      "control_change channel=9 control=4 value=76 time=44\n",
      "note_on channel=9 note=36 velocity=0 time=24\n",
      "control_change channel=9 control=4 value=73 time=4\n",
      "note_on channel=9 note=51 velocity=0 time=4\n",
      "control_change channel=9 control=4 value=75 time=39\n",
      "note_on channel=9 note=51 velocity=127 time=0\n",
      "note_on channel=9 note=37 velocity=81 time=4\n",
      "control_change channel=9 control=4 value=77 time=13\n",
      "control_change channel=9 control=4 value=82 time=22\n",
      "control_change channel=9 control=4 value=88 time=22\n",
      "control_change channel=9 control=4 value=90 time=7\n",
      "control_change channel=9 control=4 value=87 time=22\n",
      "note_on channel=9 note=51 velocity=0 time=4\n",
      "note_on channel=9 note=37 velocity=0 time=2\n",
      "control_change channel=9 control=4 value=84 time=16\n",
      "note_on channel=9 note=38 velocity=31 time=19\n",
      "control_change channel=9 control=4 value=81 time=2\n",
      "control_change channel=9 control=4 value=77 time=22\n",
      "control_change channel=9 control=4 value=74 time=22\n",
      "control_change channel=9 control=4 value=71 time=22\n",
      "control_change channel=9 control=4 value=68 time=21\n",
      "note_on channel=9 note=38 velocity=0 time=4\n",
      "note_on channel=9 note=44 velocity=102 time=11\n",
      "control_change channel=9 control=4 value=64 time=7\n",
      "note_on channel=9 note=51 velocity=66 time=15\n",
      "control_change channel=9 control=4 value=61 time=7\n",
      "control_change channel=9 control=4 value=58 time=19\n",
      "control_change channel=9 control=4 value=31 time=22\n",
      "control_change channel=9 control=4 value=4 time=21\n",
      "control_change channel=9 control=4 value=0 time=3\n",
      "note_on channel=9 note=44 velocity=0 time=0\n",
      "note_on channel=9 note=51 velocity=0 time=21\n",
      "control_change channel=9 control=4 value=20 time=1\n",
      "note_on channel=9 note=51 velocity=62 time=12\n",
      "note_on channel=9 note=38 velocity=26 time=8\n",
      "control_change channel=9 control=4 value=40 time=2\n",
      "control_change channel=9 control=4 value=61 time=21\n",
      "control_change channel=9 control=4 value=76 time=16\n",
      "control_change channel=9 control=4 value=83 time=22\n",
      "control_change channel=9 control=4 value=90 time=22\n",
      "note_on channel=9 note=51 velocity=0 time=3\n",
      "note_on channel=9 note=38 velocity=0 time=7\n",
      "note_on channel=9 note=36 velocity=43 time=15\n",
      "note_on channel=9 note=51 velocity=73 time=4\n",
      "control_change channel=9 control=4 value=86 time=14\n",
      "control_change channel=9 control=4 value=81 time=44\n",
      "note_on channel=9 note=36 velocity=0 time=32\n",
      "note_on channel=9 note=51 velocity=0 time=3\n",
      "control_change channel=9 control=4 value=76 time=8\n",
      "note_on channel=9 note=38 velocity=24 time=26\n",
      "control_change channel=9 control=4 value=71 time=18\n",
      "control_change channel=9 control=4 value=68 time=25\n",
      "control_change channel=9 control=4 value=71 time=21\n",
      "control_change channel=9 control=4 value=74 time=22\n",
      "control_change channel=9 control=4 value=75 time=0\n",
      "note_on channel=9 note=38 velocity=0 time=7\n",
      "note_on channel=9 note=44 velocity=102 time=10\n",
      "note_on channel=9 note=51 velocity=67 time=4\n",
      "control_change channel=9 control=4 value=81 time=2\n",
      "note_on channel=9 note=38 velocity=26 time=9\n",
      "control_change channel=9 control=4 value=88 time=13\n",
      "control_change channel=9 control=4 value=90 time=6\n",
      "control_change channel=9 control=4 value=87 time=22\n",
      "control_change channel=9 control=4 value=83 time=21\n",
      "note_on channel=9 note=44 velocity=0 time=16\n",
      "note_on channel=9 note=51 velocity=0 time=5\n",
      "control_change channel=9 control=4 value=80 time=1\n",
      "note_on channel=9 note=38 velocity=0 time=9\n",
      "control_change channel=9 control=4 value=76 time=13\n",
      "note_on channel=9 note=36 velocity=42 time=2\n",
      "note_on channel=9 note=51 velocity=63 time=0\n",
      "control_change channel=9 control=4 value=72 time=20\n",
      "control_change channel=9 control=4 value=69 time=21\n",
      "control_change channel=9 control=4 value=65 time=22\n",
      "control_change channel=9 control=4 value=61 time=20\n",
      "note_on channel=9 note=36 velocity=0 time=10\n",
      "note_on channel=9 note=51 velocity=0 time=0\n",
      "control_change channel=9 control=4 value=58 time=9\n",
      "control_change channel=9 control=4 value=32 time=22\n",
      "note_on channel=9 note=51 velocity=86 time=4\n",
      "note_on channel=9 note=38 velocity=67 time=1\n",
      "control_change channel=9 control=4 value=5 time=17\n",
      "control_change channel=9 control=4 value=0 time=3\n",
      "control_change channel=9 control=4 value=12 time=21\n",
      "control_change channel=9 control=4 value=25 time=22\n",
      "control_change channel=9 control=4 value=37 time=22\n",
      "note_on channel=9 note=38 velocity=0 time=7\n",
      "note_on channel=9 note=51 velocity=0 time=0\n",
      "control_change channel=9 control=4 value=50 time=15\n",
      "note_on channel=9 note=38 velocity=19 time=10\n",
      "control_change channel=9 control=4 value=68 time=11\n",
      "control_change channel=9 control=4 value=87 time=22\n",
      "control_change channel=9 control=4 value=90 time=3\n",
      "note_on channel=9 note=38 velocity=0 time=58\n",
      "note_on channel=9 note=44 velocity=97 time=6\n",
      "control_change channel=9 control=4 value=88 time=23\n",
      "note_on channel=9 note=51 velocity=64 time=5\n",
      "note_on channel=9 note=38 velocity=26 time=4\n",
      "note_on channel=9 note=44 velocity=0 time=62\n",
      "control_change channel=9 control=4 value=86 time=16\n",
      "note_on channel=9 note=51 velocity=0 time=12\n",
      "note_on channel=9 note=38 velocity=0 time=4\n",
      "note_on channel=9 note=51 velocity=61 time=1\n",
      "note_on channel=9 note=36 velocity=55 time=2\n",
      "control_change channel=9 control=4 value=84 time=19\n",
      "control_change channel=9 control=4 value=89 time=43\n",
      "control_change channel=9 control=4 value=90 time=5\n",
      "note_on channel=9 note=51 velocity=0 time=25\n",
      "note_on channel=9 note=36 velocity=0 time=2\n",
      "control_change channel=9 control=4 value=86 time=16\n",
      "note_on channel=9 note=51 velocity=71 time=16\n",
      "control_change channel=9 control=4 value=81 time=28\n",
      "control_change channel=9 control=4 value=77 time=43\n",
      "note_on channel=9 note=51 velocity=0 time=23\n",
      "note_on channel=9 note=38 velocity=28 time=17\n",
      "control_change channel=9 control=4 value=72 time=4\n",
      "control_change channel=9 control=4 value=67 time=43\n",
      "control_change channel=9 control=4 value=63 time=44\n",
      "note_on channel=9 note=38 velocity=0 time=3\n",
      "note_on channel=9 note=44 velocity=87 time=16\n",
      "note_on channel=9 note=51 velocity=61 time=10\n",
      "note_on channel=9 note=36 velocity=25 time=1\n",
      "control_change channel=9 control=4 value=58 time=7\n",
      "control_change channel=9 control=4 value=32 time=22\n",
      "control_change channel=9 control=4 value=5 time=22\n",
      "control_change channel=9 control=4 value=0 time=4\n",
      "control_change channel=9 control=4 value=24 time=22\n",
      "note_on channel=9 note=44 velocity=0 time=6\n",
      "note_on channel=9 note=51 velocity=0 time=9\n",
      "note_on channel=9 note=36 velocity=0 time=2\n",
      "control_change channel=9 control=4 value=49 time=5\n",
      "note_on channel=9 note=36 velocity=39 time=9\n",
      "control_change channel=9 control=4 value=73 time=12\n",
      "note_on channel=9 note=51 velocity=56 time=2\n",
      "control_change channel=9 control=4 value=78 time=1\n",
      "control_change channel=9 control=4 value=84 time=22\n",
      "control_change channel=9 control=4 value=90 time=22\n",
      "note_on channel=9 note=36 velocity=0 time=35\n",
      "control_change channel=9 control=4 value=87 time=8\n",
      "note_on channel=9 note=51 velocity=0 time=6\n",
      "note_on channel=9 note=37 velocity=77 time=16\n",
      "note_on channel=9 note=51 velocity=94 time=5\n",
      "control_change channel=9 control=4 value=83 time=17\n",
      "control_change channel=9 control=4 value=80 time=43\n",
      "note_on channel=9 note=37 velocity=0 time=28\n",
      "note_on channel=9 note=51 velocity=0 time=6\n",
      "control_change channel=9 control=4 value=76 time=10\n",
      "note_on channel=9 note=38 velocity=14 time=28\n",
      "control_change channel=9 control=4 value=73 time=9\n",
      "control_change channel=9 control=4 value=77 time=22\n",
      "control_change channel=9 control=4 value=82 time=22\n",
      "control_change channel=9 control=4 value=87 time=22\n",
      "control_change channel=9 control=4 value=90 time=13\n",
      "note_on channel=9 note=38 velocity=0 time=6\n",
      "note_on channel=9 note=44 velocity=100 time=6\n",
      "control_change channel=9 control=4 value=87 time=9\n",
      "note_on channel=9 note=51 velocity=70 time=1\n",
      "control_change channel=9 control=4 value=84 time=21\n",
      "control_change channel=9 control=4 value=80 time=22\n",
      "control_change channel=9 control=4 value=77 time=22\n",
      "note_on channel=9 note=44 velocity=0 time=19\n",
      "control_change channel=9 control=4 value=74 time=2\n",
      "note_on channel=9 note=51 velocity=0 time=8\n",
      "control_change channel=9 control=4 value=70 time=14\n",
      "note_on channel=9 note=38 velocity=44 time=3\n",
      "note_on channel=9 note=51 velocity=66 time=6\n",
      "control_change channel=9 control=4 value=67 time=13\n",
      "control_change channel=9 control=4 value=64 time=22\n",
      "control_change channel=9 control=4 value=60 time=21\n",
      "control_change channel=9 control=4 value=58 time=12\n",
      "note_on channel=9 note=38 velocity=0 time=19\n",
      "control_change channel=9 control=4 value=34 time=3\n",
      "note_on channel=9 note=51 velocity=0 time=3\n",
      "control_change channel=9 control=4 value=10 time=19\n",
      "note_on channel=9 note=51 velocity=69 time=6\n",
      "control_change channel=9 control=4 value=0 time=2\n",
      "note_on channel=9 note=36 velocity=38 time=4\n",
      "control_change channel=9 control=4 value=18 time=18\n",
      "control_change channel=9 control=4 value=37 time=22\n",
      "control_change channel=9 control=4 value=56 time=22\n",
      "control_change channel=9 control=4 value=70 time=15\n",
      "note_on channel=9 note=51 velocity=0 time=11\n",
      "note_on channel=9 note=36 velocity=0 time=5\n",
      "control_change channel=9 control=4 value=79 time=6\n",
      "note_on channel=9 note=38 velocity=30 time=11\n",
      "control_change channel=9 control=4 value=89 time=11\n",
      "control_change channel=9 control=4 value=90 time=0\n",
      "control_change channel=9 control=4 value=87 time=43\n",
      "note_on channel=9 note=38 velocity=0 time=40\n",
      "control_change channel=9 control=4 value=83 time=4\n",
      "note_on channel=9 note=36 velocity=53 time=23\n",
      "note_on channel=9 note=51 velocity=71 time=4\n",
      "note_on channel=9 note=44 velocity=107 time=1\n",
      "note_on channel=9 note=38 velocity=32 time=5\n",
      "control_change channel=9 control=4 value=79 time=10\n",
      "control_change channel=9 control=4 value=75 time=44\n",
      "control_change channel=9 control=4 value=73 time=22\n",
      "note_on channel=9 note=36 velocity=0 time=7\n",
      "note_on channel=9 note=51 velocity=0 time=4\n",
      "note_on channel=9 note=44 velocity=0 time=2\n",
      "note_on channel=9 note=38 velocity=0 time=5\n",
      "control_change channel=9 control=4 value=76 time=3\n",
      "control_change channel=9 control=4 value=80 time=22\n",
      "note_on channel=9 note=51 velocity=63 time=2\n",
      "control_change channel=9 control=4 value=84 time=20\n",
      "control_change channel=9 control=4 value=88 time=22\n",
      "control_change channel=9 control=4 value=90 time=11\n",
      "control_change channel=9 control=4 value=87 time=22\n",
      "note_on channel=9 note=51 velocity=0 time=19\n",
      "control_change channel=9 control=4 value=84 time=3\n",
      "note_on channel=9 note=51 velocity=80 time=16\n",
      "note_on channel=9 note=38 velocity=74 time=5\n",
      "control_change channel=9 control=4 value=80 time=1\n",
      "control_change channel=9 control=4 value=77 time=21\n",
      "control_change channel=9 control=4 value=74 time=22\n",
      "control_change channel=9 control=4 value=70 time=22\n",
      "control_change channel=9 control=4 value=67 time=22\n",
      "note_on channel=9 note=51 velocity=0 time=1\n",
      "note_on channel=9 note=38 velocity=0 time=5\n",
      "control_change channel=9 control=4 value=64 time=15\n",
      "note_on channel=9 note=36 velocity=53 time=16\n",
      "control_change channel=9 control=4 value=60 time=6\n",
      "control_change channel=9 control=4 value=57 time=19\n",
      "control_change channel=9 control=4 value=30 time=22\n",
      "control_change channel=9 control=4 value=2 time=21\n",
      "control_change channel=9 control=4 value=0 time=2\n",
      "control_change channel=9 control=4 value=19 time=22\n",
      "note_on channel=9 note=36 velocity=0 time=1\n",
      "note_on channel=9 note=44 velocity=102 time=19\n",
      "control_change channel=9 control=4 value=38 time=1\n",
      "note_on channel=9 note=51 velocity=60 time=12\n",
      "control_change channel=9 control=4 value=57 time=10\n",
      "control_change channel=9 control=4 value=76 time=20\n",
      "control_change channel=9 control=4 value=83 time=22\n",
      "control_change channel=9 control=4 value=90 time=22\n",
      "note_on channel=9 note=44 velocity=0 time=7\n",
      "note_on channel=9 note=51 velocity=0 time=13\n",
      "control_change channel=9 control=4 value=87 time=23\n",
      "note_on channel=9 note=51 velocity=47 time=17\n",
      "note_on channel=9 note=36 velocity=53 time=4\n",
      "control_change channel=9 control=4 value=84 time=23\n",
      "control_change channel=9 control=4 value=81 time=43\n",
      "note_on channel=9 note=51 velocity=0 time=23\n",
      "note_on channel=9 note=36 velocity=0 time=5\n",
      "control_change channel=9 control=4 value=77 time=14\n",
      "note_on channel=9 note=51 velocity=70 time=12\n",
      "control_change channel=9 control=4 value=74 time=32\n",
      "control_change channel=9 control=4 value=72 time=16\n",
      "control_change channel=9 control=4 value=79 time=22\n",
      "control_change channel=9 control=4 value=87 time=21\n",
      "note_on channel=9 note=51 velocity=0 time=3\n",
      "control_change channel=9 control=4 value=90 time=5\n",
      "note_on channel=9 note=38 velocity=26 time=6\n",
      "control_change channel=9 control=4 value=87 time=15\n",
      "control_change channel=9 control=4 value=84 time=22\n",
      "control_change channel=9 control=4 value=81 time=22\n",
      "control_change channel=9 control=4 value=77 time=22\n",
      "note_on channel=9 note=38 velocity=0 time=13\n",
      "control_change channel=9 control=4 value=74 time=8\n",
      "note_on channel=9 note=36 velocity=40 time=7\n",
      "note_on channel=9 note=44 velocity=110 time=6\n",
      "control_change channel=9 control=4 value=71 time=9\n",
      "note_on channel=9 note=38 velocity=32 time=4\n",
      "note_on channel=9 note=51 velocity=75 time=4\n",
      "control_change channel=9 control=4 value=67 time=14\n",
      "control_change channel=9 control=4 value=64 time=22\n",
      "control_change channel=9 control=4 value=61 time=21\n",
      "control_change channel=9 control=4 value=59 time=11\n",
      "note_on channel=9 note=36 velocity=0 time=3\n",
      "note_on channel=9 note=44 velocity=0 time=5\n",
      "control_change channel=9 control=4 value=36 time=13\n",
      "note_on channel=9 note=38 velocity=0 time=0\n",
      "note_on channel=9 note=51 velocity=0 time=5\n",
      "control_change channel=9 control=4 value=13 time=17\n",
      "note_on channel=9 note=36 velocity=52 time=2\n",
      "control_change channel=9 control=4 value=0 time=10\n",
      "note_on channel=9 note=51 velocity=62 time=2\n",
      "control_change channel=9 control=4 value=18 time=19\n",
      "control_change channel=9 control=4 value=36 time=22\n",
      "control_change channel=9 control=4 value=54 time=22\n",
      "note_on channel=9 note=36 velocity=0 time=18\n",
      "control_change channel=9 control=4 value=72 time=4\n",
      "control_change channel=9 control=4 value=78 time=5\n",
      "note_on channel=9 note=51 velocity=0 time=4\n",
      "note_on channel=9 note=38 velocity=76 time=17\n",
      "control_change channel=9 control=4 value=84 time=1\n",
      "note_on channel=9 note=51 velocity=90 time=14\n",
      "control_change channel=9 control=4 value=90 time=8\n",
      "control_change channel=9 control=4 value=85 time=43\n",
      "note_on channel=9 note=38 velocity=0 time=27\n",
      "note_on channel=9 note=51 velocity=0 time=16\n",
      "control_change channel=9 control=4 value=79 time=1\n",
      "note_on channel=9 note=38 velocity=34 time=6\n",
      "control_change channel=9 control=4 value=74 time=37\n",
      "control_change channel=9 control=4 value=68 time=44\n",
      "note_on channel=9 note=38 velocity=0 time=12\n",
      "control_change channel=9 control=4 value=64 time=20\n",
      "note_on channel=9 note=44 velocity=110 time=3\n",
      "note_on channel=9 note=51 velocity=91 time=13\n",
      "control_change channel=9 control=4 value=69 time=6\n",
      "control_change channel=9 control=4 value=74 time=21\n",
      "control_change channel=9 control=4 value=77 time=11\n",
      "control_change channel=9 control=4 value=83 time=21\n",
      "control_change channel=9 control=4 value=89 time=22\n",
      "note_on channel=9 note=44 velocity=0 time=0\n",
      "control_change channel=9 control=4 value=90 time=3\n",
      "note_on channel=9 note=51 velocity=0 time=9\n",
      "control_change channel=9 control=4 value=85 time=13\n",
      "note_on channel=9 note=51 velocity=71 time=7\n",
      "control_change channel=9 control=4 value=80 time=14\n",
      "control_change channel=9 control=4 value=75 time=22\n",
      "control_change channel=9 control=4 value=70 time=22\n",
      "control_change channel=9 control=4 value=65 time=22\n",
      "note_on channel=9 note=51 velocity=0 time=14\n",
      "control_change channel=9 control=4 value=59 time=7\n",
      "note_on channel=9 note=36 velocity=44 time=14\n",
      "control_change channel=9 control=4 value=54 time=8\n",
      "note_on channel=9 note=51 velocity=81 time=2\n",
      "control_change channel=9 control=4 value=49 time=20\n",
      "control_change channel=9 control=4 value=44 time=22\n",
      "control_change channel=9 control=4 value=42 time=4\n",
      "control_change channel=9 control=4 value=22 time=22\n",
      "note_on channel=9 note=36 velocity=0 time=15\n",
      "control_change channel=9 control=4 value=0 time=7\n",
      "control_change channel=9 control=4 value=1 time=0\n",
      "note_on channel=9 note=51 velocity=0 time=3\n",
      "control_change channel=9 control=4 value=15 time=20\n",
      "note_on channel=9 note=38 velocity=29 time=11\n",
      "control_change channel=9 control=4 value=31 time=10\n",
      "control_change channel=9 control=4 value=47 time=22\n",
      "control_change channel=9 control=4 value=63 time=22\n",
      "control_change channel=9 control=4 value=71 time=10\n",
      "control_change channel=9 control=4 value=80 time=22\n",
      "note_on channel=9 note=38 velocity=0 time=8\n",
      "note_on channel=9 note=44 velocity=100 time=7\n",
      "control_change channel=9 control=4 value=89 time=7\n",
      "control_change channel=9 control=4 value=90 time=0\n",
      "note_on channel=9 note=43 velocity=108 time=2\n",
      "control_change channel=9 control=4 value=88 time=43\n",
      "control_change channel=9 control=4 value=86 time=43\n",
      "note_on channel=9 note=44 velocity=0 time=0\n",
      "note_on channel=9 note=43 velocity=0 time=8\n",
      "note_on channel=9 note=38 velocity=24 time=19\n",
      "control_change channel=9 control=4 value=83 time=17\n",
      "control_change channel=9 control=4 value=81 time=36\n",
      "control_change channel=9 control=4 value=70 time=22\n",
      "note_on channel=9 note=38 velocity=0 time=18\n",
      "control_change channel=9 control=4 value=58 time=3\n",
      "note_on channel=9 note=38 velocity=29 time=18\n",
      "control_change channel=9 control=4 value=61 time=4\n",
      "control_change channel=9 control=4 value=65 time=22\n",
      "control_change channel=9 control=4 value=66 time=1\n",
      "control_change channel=9 control=4 value=75 time=22\n",
      "control_change channel=9 control=4 value=84 time=22\n",
      "control_change channel=9 control=4 value=90 time=13\n",
      "note_on channel=9 note=38 velocity=0 time=10\n",
      "control_change channel=9 control=4 value=86 time=33\n",
      "note_on channel=9 note=51 velocity=99 time=3\n",
      "note_on channel=9 note=36 velocity=47 time=6\n",
      "control_change channel=9 control=4 value=82 time=35\n",
      "control_change channel=9 control=4 value=78 time=43\n",
      "note_on channel=9 note=51 velocity=0 time=10\n",
      "note_on channel=9 note=36 velocity=0 time=5\n",
      "note_on channel=9 note=44 velocity=100 time=1\n",
      "note_on channel=9 note=38 velocity=59 time=14\n",
      "control_change channel=9 control=4 value=74 time=11\n",
      "control_change channel=9 control=4 value=44 time=22\n",
      "control_change channel=9 control=4 value=14 time=21\n",
      "control_change channel=9 control=4 value=0 time=9\n",
      "note_on channel=9 note=44 velocity=0 time=18\n",
      "control_change channel=9 control=4 value=14 time=4\n",
      "note_on channel=9 note=38 velocity=0 time=8\n",
      "control_change channel=9 control=4 value=28 time=14\n",
      "note_on channel=9 note=36 velocity=45 time=19\n",
      "control_change channel=9 control=4 value=43 time=2\n",
      "note_on channel=9 note=51 velocity=75 time=7\n",
      "control_change channel=9 control=4 value=57 time=15\n",
      "control_change channel=9 control=4 value=71 time=22\n",
      "control_change channel=9 control=4 value=78 time=10\n",
      "control_change channel=9 control=4 value=84 time=22\n",
      "note_on channel=9 note=44 velocity=20 time=8\n",
      "note_on channel=9 note=36 velocity=0 time=8\n",
      "control_change channel=9 control=4 value=90 time=6\n",
      "note_on channel=9 note=51 velocity=0 time=3\n",
      "note_on channel=9 note=51 velocity=67 time=25\n",
      "control_change channel=9 control=4 value=86 time=15\n",
      "note_on channel=9 note=44 velocity=0 time=37\n",
      "control_change channel=9 control=4 value=82 time=7\n",
      "note_on channel=9 note=51 velocity=0 time=35\n",
      "control_change channel=9 control=4 value=77 time=8\n",
      "note_on channel=9 note=38 velocity=31 time=14\n",
      "control_change channel=9 control=4 value=72 time=30\n",
      "control_change channel=9 control=4 value=73 time=0\n",
      "control_change channel=9 control=4 value=61 time=21\n",
      "control_change channel=9 control=4 value=49 time=22\n",
      "control_change channel=9 control=4 value=40 time=17\n",
      "note_on channel=9 note=38 velocity=0 time=3\n",
      "control_change channel=9 control=4 value=52 time=19\n",
      "note_on channel=9 note=44 velocity=95 time=3\n",
      "note_on channel=9 note=36 velocity=53 time=2\n",
      "note_on channel=9 note=51 velocity=70 time=14\n",
      "control_change channel=9 control=4 value=65 time=3\n",
      "control_change channel=9 control=4 value=68 time=4\n",
      "control_change channel=9 control=4 value=77 time=22\n",
      "control_change channel=9 control=4 value=86 time=22\n",
      "control_change channel=9 control=4 value=90 time=8\n",
      "note_on channel=9 note=44 velocity=0 time=19\n",
      "note_on channel=9 note=36 velocity=0 time=2\n",
      "note_on channel=9 note=38 velocity=80 time=14\n",
      "note_on channel=9 note=51 velocity=0 time=0\n",
      "control_change channel=9 control=4 value=87 time=9\n",
      "control_change channel=9 control=4 value=83 time=43\n",
      "note_on channel=9 note=38 velocity=0 time=42\n",
      "control_change channel=9 control=4 value=79 time=2\n",
      "control_change channel=9 control=4 value=76 time=43\n",
      "note_on channel=9 note=43 velocity=127 time=5\n",
      "control_change channel=9 control=4 value=74 time=10\n",
      "control_change channel=9 control=4 value=44 time=22\n",
      "control_change channel=9 control=4 value=13 time=21\n",
      "control_change channel=9 control=4 value=0 time=9\n",
      "control_change channel=9 control=4 value=12 time=22\n",
      "note_on channel=9 note=43 velocity=0 time=10\n",
      "note_on channel=9 note=38 velocity=33 time=11\n",
      "control_change channel=9 control=4 value=24 time=1\n",
      "control_change channel=9 control=4 value=37 time=21\n",
      "control_change channel=9 control=4 value=49 time=22\n",
      "control_change channel=9 control=4 value=62 time=22\n",
      "control_change channel=9 control=4 value=71 time=14\n",
      "note_on channel=9 note=44 velocity=100 time=13\n",
      "note_on channel=9 note=38 velocity=0 time=1\n",
      "control_change channel=9 control=4 value=80 time=8\n",
      "control_change channel=9 control=4 value=89 time=22\n",
      "control_change channel=9 control=4 value=90 time=0\n",
      "note_on channel=9 note=51 velocity=75 time=0\n",
      "control_change channel=9 control=4 value=88 time=45\n",
      "note_on channel=9 note=44 velocity=0 time=18\n",
      "control_change channel=9 control=4 value=85 time=25\n",
      "note_on channel=9 note=51 velocity=0 time=6\n",
      "note_on channel=9 note=36 velocity=37 time=13\n",
      "control_change channel=9 control=4 value=82 time=25\n",
      "control_change channel=9 control=4 value=80 time=29\n",
      "control_change channel=9 control=4 value=70 time=22\n",
      "note_on channel=9 note=36 velocity=0 time=18\n",
      "control_change channel=9 control=4 value=59 time=3\n",
      "control_change channel=9 control=4 value=49 time=21\n",
      "note_on channel=9 note=36 velocity=53 time=6\n",
      "note_on channel=9 note=59 velocity=97 time=12\n",
      "control_change channel=9 control=4 value=56 time=3\n",
      "control_change channel=9 control=4 value=63 time=22\n",
      "control_change channel=9 control=4 value=65 time=6\n",
      "control_change channel=9 control=4 value=74 time=22\n",
      "control_change channel=9 control=4 value=84 time=21\n",
      "note_on channel=9 note=36 velocity=0 time=8\n",
      "control_change channel=9 control=4 value=90 time=4\n",
      "note_on channel=9 note=38 velocity=13 time=3\n",
      "note_on channel=9 note=59 velocity=0 time=4\n",
      "control_change channel=9 control=4 value=87 time=15\n",
      "control_change channel=9 control=4 value=83 time=22\n",
      "control_change channel=9 control=4 value=79 time=21\n",
      "control_change channel=9 control=4 value=75 time=22\n",
      "note_on channel=9 note=38 velocity=0 time=10\n",
      "control_change channel=9 control=4 value=71 time=12\n",
      "note_on channel=9 note=38 velocity=17 time=0\n",
      "note_on channel=9 note=44 velocity=102 time=10\n",
      "control_change channel=9 control=4 value=67 time=12\n",
      "control_change channel=9 control=4 value=63 time=21\n",
      "note_on channel=9 note=51 velocity=48 time=8\n",
      "control_change channel=9 control=4 value=59 time=14\n",
      "control_change channel=9 control=4 value=58 time=4\n",
      "control_change channel=9 control=4 value=30 time=22\n",
      "note_on channel=9 note=38 velocity=0 time=3\n",
      "note_on channel=9 note=44 velocity=0 time=10\n",
      "control_change channel=9 control=4 value=2 time=9\n",
      "control_change channel=9 control=4 value=0 time=1\n",
      "control_change channel=9 control=4 value=13 time=22\n",
      "note_on channel=9 note=36 velocity=44 time=5\n",
      "note_on channel=9 note=51 velocity=0 time=4\n",
      "control_change channel=9 control=4 value=27 time=13\n",
      "note_on channel=9 note=51 velocity=54 time=13\n",
      "control_change channel=9 control=4 value=40 time=9\n",
      "control_change channel=9 control=4 value=54 time=21\n",
      "control_change channel=9 control=4 value=67 time=22\n",
      "control_change channel=9 control=4 value=69 time=3\n",
      "note_on channel=9 note=36 velocity=0 time=9\n",
      "control_change channel=9 control=4 value=79 time=13\n",
      "note_on channel=9 note=37 velocity=83 time=16\n",
      "note_on channel=9 note=51 velocity=0 time=0\n",
      "control_change channel=9 control=4 value=89 time=6\n",
      "control_change channel=9 control=4 value=90 time=0\n",
      "note_on channel=9 note=51 velocity=80 time=7\n",
      "control_change channel=9 control=4 value=88 time=36\n",
      "control_change channel=9 control=4 value=85 time=44\n",
      "note_on channel=9 note=37 velocity=0 time=0\n",
      "note_on channel=9 note=51 velocity=0 time=13\n",
      "note_on channel=9 note=38 velocity=32 time=10\n",
      "control_change channel=9 control=4 value=82 time=20\n",
      "control_change channel=9 control=4 value=80 time=32\n",
      "control_change channel=9 control=4 value=71 time=22\n",
      "note_on channel=9 note=38 velocity=0 time=19\n",
      "control_change channel=9 control=4 value=62 time=2\n",
      "note_on channel=9 note=44 velocity=92 time=21\n",
      "control_change channel=9 control=4 value=52 time=1\n",
      "note_on channel=9 note=51 velocity=79 time=0\n",
      "control_change channel=9 control=4 value=59 time=22\n",
      "control_change channel=9 control=4 value=67 time=22\n",
      "control_change channel=9 control=4 value=68 time=1\n",
      "control_change channel=9 control=4 value=77 time=22\n",
      "control_change channel=9 control=4 value=86 time=22\n",
      "note_on channel=9 note=44 velocity=0 time=4\n",
      "note_on channel=9 note=51 velocity=0 time=0\n",
      "control_change channel=9 control=4 value=90 time=3\n",
      "note_on channel=9 note=38 velocity=40 time=1\n",
      "note_on channel=9 note=51 velocity=64 time=12\n",
      "control_change channel=9 control=4 value=87 time=9\n",
      "control_change channel=9 control=4 value=84 time=21\n",
      "control_change channel=9 control=4 value=80 time=22\n",
      "control_change channel=9 control=4 value=77 time=22\n",
      "note_on channel=9 note=38 velocity=0 time=8\n",
      "note_on channel=9 note=51 velocity=0 time=12\n",
      "control_change channel=9 control=4 value=73 time=2\n",
      "control_change channel=9 control=4 value=70 time=21\n",
      "note_on channel=9 note=51 velocity=59 time=3\n",
      "note_on channel=9 note=36 velocity=43 time=8\n",
      "control_change channel=9 control=4 value=66 time=11\n",
      "control_change channel=9 control=4 value=63 time=22\n",
      "control_change channel=9 control=4 value=60 time=22\n",
      "control_change channel=9 control=4 value=58 time=7\n",
      "control_change channel=9 control=4 value=30 time=22\n",
      "note_on channel=9 note=51 velocity=0 time=1\n",
      "note_on channel=9 note=36 velocity=0 time=9\n",
      "control_change channel=9 control=4 value=0 time=11\n",
      "control_change channel=9 control=4 value=1 time=0\n",
      "note_on channel=9 note=38 velocity=32 time=4\n",
      "control_change channel=9 control=4 value=14 time=18\n",
      "control_change channel=9 control=4 value=29 time=22\n",
      "control_change channel=9 control=4 value=44 time=22\n",
      "control_change channel=9 control=4 value=59 time=21\n",
      "control_change channel=9 control=4 value=66 time=11\n",
      "note_on channel=9 note=38 velocity=0 time=0\n",
      "control_change channel=9 control=4 value=77 time=21\n",
      "note_on channel=9 note=51 velocity=69 time=4\n",
      "note_on channel=9 note=38 velocity=30 time=6\n",
      "note_on channel=9 note=44 velocity=105 time=3\n",
      "control_change channel=9 control=4 value=89 time=9\n",
      "control_change channel=9 control=4 value=90 time=0\n",
      "control_change channel=9 control=4 value=87 time=22\n",
      "control_change channel=9 control=4 value=84 time=22\n",
      "control_change channel=9 control=4 value=81 time=21\n",
      "note_on channel=9 note=51 velocity=0 time=11\n",
      "note_on channel=9 note=38 velocity=0 time=6\n",
      "note_on channel=9 note=44 velocity=0 time=2\n",
      "control_change channel=9 control=4 value=78 time=3\n",
      "control_change channel=9 control=4 value=75 time=22\n",
      "note_on channel=9 note=51 velocity=57 time=2\n",
      "note_on channel=9 note=36 velocity=48 time=14\n",
      "control_change channel=9 control=4 value=72 time=6\n",
      "control_change channel=9 control=4 value=69 time=21\n",
      "control_change channel=9 control=4 value=66 time=22\n",
      "control_change channel=9 control=4 value=62 time=22\n",
      "control_change channel=9 control=4 value=61 time=7\n",
      "note_on channel=9 note=51 velocity=0 time=1\n",
      "note_on channel=9 note=36 velocity=0 time=14\n",
      "note_on channel=9 note=37 velocity=79 time=23\n",
      "note_on channel=9 note=59 velocity=82 time=0\n",
      "control_change channel=9 control=4 value=65 time=6\n",
      "control_change channel=9 control=4 value=68 time=18\n",
      "control_change channel=9 control=4 value=76 time=22\n",
      "control_change channel=9 control=4 value=85 time=22\n",
      "control_change channel=9 control=4 value=90 time=13\n",
      "note_on channel=9 note=37 velocity=0 time=13\n",
      "note_on channel=9 note=59 velocity=0 time=0\n",
      "control_change channel=9 control=4 value=87 time=9\n",
      "note_on channel=9 note=38 velocity=21 time=13\n",
      "control_change channel=9 control=4 value=83 time=8\n",
      "control_change channel=9 control=4 value=79 time=22\n",
      "control_change channel=9 control=4 value=75 time=22\n",
      "control_change channel=9 control=4 value=71 time=22\n",
      "note_on channel=9 note=38 velocity=0 time=18\n",
      "control_change channel=9 control=4 value=67 time=3\n",
      "control_change channel=9 control=4 value=63 time=22\n",
      "note_on channel=9 note=44 velocity=95 time=13\n",
      "note_on channel=9 note=51 velocity=59 time=8\n",
      "control_change channel=9 control=4 value=59 time=1\n",
      "control_change channel=9 control=4 value=58 time=1\n",
      "control_change channel=9 control=4 value=33 time=22\n",
      "control_change channel=9 control=4 value=7 time=22\n",
      "control_change channel=9 control=4 value=0 time=6\n",
      "control_change channel=9 control=4 value=16 time=21\n",
      "note_on channel=9 note=38 velocity=41 time=11\n",
      "note_on channel=9 note=44 velocity=0 time=2\n",
      "note_on channel=9 note=51 velocity=0 time=7\n",
      "control_change channel=9 control=4 value=33 time=2\n",
      "note_on channel=9 note=51 velocity=54 time=19\n",
      "control_change channel=9 control=4 value=49 time=3\n",
      "control_change channel=9 control=4 value=66 time=22\n",
      "control_change channel=9 control=4 value=69 time=3\n",
      "control_change channel=9 control=4 value=79 time=21\n",
      "note_on channel=9 note=38 velocity=0 time=15\n",
      "control_change channel=9 control=4 value=89 time=7\n",
      "control_change channel=9 control=4 value=90 time=0\n",
      "control_change channel=9 control=4 value=87 time=23\n",
      "note_on channel=9 note=51 velocity=0 time=0\n",
      "control_change channel=9 control=4 value=83 time=22\n",
      "note_on channel=9 note=36 velocity=45 time=1\n",
      "note_on channel=9 note=51 velocity=64 time=9\n",
      "control_change channel=9 control=4 value=79 time=12\n",
      "control_change channel=9 control=4 value=75 time=22\n",
      "control_change channel=9 control=4 value=71 time=21\n",
      "control_change channel=9 control=4 value=67 time=22\n",
      "note_on channel=9 note=36 velocity=0 time=7\n",
      "note_on channel=9 note=51 velocity=0 time=10\n",
      "control_change channel=9 control=4 value=63 time=5\n",
      "note_on channel=9 note=38 velocity=28 time=19\n",
      "control_change channel=9 control=4 value=60 time=3\n",
      "control_change channel=9 control=4 value=55 time=21\n",
      "control_change channel=9 control=4 value=56 time=0\n",
      "control_change channel=9 control=4 value=60 time=22\n",
      "control_change channel=9 control=4 value=65 time=22\n",
      "control_change channel=9 control=4 value=67 time=8\n",
      "note_on channel=9 note=38 velocity=0 time=19\n",
      "control_change channel=9 control=4 value=75 time=3\n",
      "note_on channel=9 note=44 velocity=92 time=14\n",
      "note_on channel=9 note=51 velocity=67 time=7\n",
      "control_change channel=9 control=4 value=84 time=1\n",
      "note_on channel=9 note=38 velocity=33 time=12\n",
      "control_change channel=9 control=4 value=90 time=1\n",
      "control_change channel=9 control=4 value=87 time=22\n",
      "control_change channel=9 control=4 value=84 time=22\n",
      "control_change channel=9 control=4 value=81 time=21\n",
      "note_on channel=9 note=44 velocity=0 time=8\n",
      "note_on channel=9 note=51 velocity=0 time=7\n",
      "control_change channel=9 control=4 value=78 time=7\n",
      "note_on channel=9 note=38 velocity=0 time=6\n",
      "control_change channel=9 control=4 value=75 time=16\n",
      "note_on channel=9 note=51 velocity=49 time=4\n",
      "note_on channel=9 note=36 velocity=48 time=5\n",
      "control_change channel=9 control=4 value=71 time=13\n",
      "control_change channel=9 control=4 value=68 time=21\n",
      "control_change channel=9 control=4 value=65 time=22\n",
      "control_change channel=9 control=4 value=62 time=22\n",
      "note_on channel=9 note=51 velocity=0 time=10\n",
      "note_on channel=9 note=36 velocity=0 time=6\n",
      "control_change channel=9 control=4 value=59 time=6\n",
      "control_change channel=9 control=4 value=57 time=7\n",
      "note_on channel=9 note=51 velocity=112 time=16\n",
      "note_on channel=9 note=38 velocity=82 time=3\n",
      "control_change channel=9 control=4 value=29 time=3\n",
      "control_change channel=9 control=4 value=0 time=21\n",
      "control_change channel=9 control=4 value=19 time=22\n",
      "control_change channel=9 control=4 value=38 time=22\n",
      "control_change channel=9 control=4 value=58 time=22\n",
      "note_on channel=9 note=51 velocity=0 time=0\n",
      "note_on channel=9 note=38 velocity=0 time=4\n",
      "control_change channel=9 control=4 value=70 time=9\n",
      "note_on channel=9 note=38 velocity=32 time=15\n",
      "control_change channel=9 control=4 value=80 time=6\n",
      "control_change channel=9 control=4 value=90 time=22\n",
      "control_change channel=9 control=4 value=88 time=44\n",
      "note_on channel=9 note=38 velocity=0 time=21\n",
      "control_change channel=9 control=4 value=85 time=22\n",
      "note_on channel=9 note=44 velocity=105 time=1\n",
      "note_on channel=9 note=51 velocity=68 time=3\n",
      "control_change channel=9 control=4 value=82 time=40\n",
      "note_on channel=9 note=38 velocity=14 time=37\n",
      "control_change channel=9 control=4 value=80 time=6\n",
      "note_on channel=9 note=44 velocity=0 time=9\n",
      "note_on channel=9 note=51 velocity=0 time=2\n",
      "note_on channel=9 note=51 velocity=61 time=16\n",
      "control_change channel=9 control=4 value=77 time=17\n",
      "control_change channel=9 control=4 value=74 time=43\n",
      "note_on channel=9 note=38 velocity=0 time=1\n",
      "note_on channel=9 note=51 velocity=0 time=32\n",
      "control_change channel=9 control=4 value=72 time=11\n",
      "note_on channel=9 note=36 velocity=40 time=14\n",
      "note_on channel=9 note=51 velocity=79 time=5\n",
      "control_change channel=9 control=4 value=69 time=24\n",
      "control_change channel=9 control=4 value=66 time=44\n",
      "note_on channel=9 note=36 velocity=0 time=20\n",
      "note_on channel=9 note=51 velocity=0 time=7\n",
      "control_change channel=9 control=4 value=64 time=16\n",
      "note_on channel=9 note=37 velocity=74 time=25\n",
      "control_change channel=9 control=4 value=61 time=19\n",
      "control_change channel=9 control=4 value=58 time=42\n",
      "control_change channel=9 control=4 value=31 time=21\n",
      "note_on channel=9 note=37 velocity=0 time=11\n",
      "control_change channel=9 control=4 value=3 time=11\n",
      "control_change channel=9 control=4 value=0 time=2\n",
      "note_on channel=9 note=51 velocity=70 time=2\n",
      "note_on channel=9 note=44 velocity=102 time=5\n",
      "control_change channel=9 control=4 value=17 time=14\n",
      "control_change channel=9 control=4 value=34 time=22\n",
      "control_change channel=9 control=4 value=52 time=22\n",
      "control_change channel=9 control=4 value=66 time=17\n",
      "note_on channel=9 note=51 velocity=0 time=15\n",
      "note_on channel=9 note=44 velocity=0 time=4\n",
      "control_change channel=9 control=4 value=77 time=3\n",
      "note_on channel=9 note=51 velocity=59 time=16\n",
      "note_on channel=9 note=36 velocity=46 time=1\n",
      "control_change channel=9 control=4 value=89 time=5\n",
      "control_change channel=9 control=4 value=90 time=0\n",
      "control_change channel=9 control=4 value=89 time=45\n",
      "control_change channel=9 control=4 value=87 time=43\n",
      "note_on channel=9 note=36 velocity=0 time=0\n",
      "note_on channel=9 note=51 velocity=0 time=0\n",
      "note_on channel=9 note=38 velocity=70 time=27\n",
      "note_on channel=9 note=51 velocity=105 time=0\n",
      "control_change channel=9 control=4 value=85 time=17\n",
      "control_change channel=9 control=4 value=83 time=43\n",
      "control_change channel=9 control=4 value=82 time=13\n",
      "note_on channel=9 note=38 velocity=0 time=20\n",
      "note_on channel=9 note=51 velocity=0 time=0\n",
      "control_change channel=9 control=4 value=85 time=2\n",
      "note_on channel=9 note=38 velocity=35 time=20\n",
      "control_change channel=9 control=4 value=88 time=2\n",
      "control_change channel=9 control=4 value=90 time=8\n",
      "control_change channel=9 control=4 value=85 time=44\n",
      "note_on channel=9 note=38 velocity=0 time=39\n",
      "control_change channel=9 control=4 value=80 time=4\n",
      "note_on channel=9 note=51 velocity=77 time=25\n",
      "note_on channel=9 note=44 velocity=100 time=6\n",
      "control_change channel=9 control=4 value=75 time=13\n",
      "control_change channel=9 control=4 value=70 time=43\n",
      "note_on channel=9 note=38 velocity=42 time=31\n",
      "note_on channel=9 note=51 velocity=0 time=1\n",
      "note_on channel=9 note=44 velocity=0 time=5\n",
      "control_change channel=9 control=4 value=65 time=7\n",
      "note_on channel=9 note=51 velocity=65 time=8\n",
      "control_change channel=9 control=4 value=59 time=35\n",
      "control_change channel=9 control=4 value=58 time=9\n",
      "control_change channel=9 control=4 value=32 time=22\n",
      "note_on channel=9 note=38 velocity=0 time=6\n",
      "control_change channel=9 control=4 value=6 time=16\n",
      "control_change channel=9 control=4 value=0 time=4\n",
      "note_on channel=9 note=51 velocity=0 time=2\n",
      "control_change channel=9 control=4 value=18 time=20\n",
      "note_on channel=9 note=36 velocity=42 time=5\n",
      "note_on channel=9 note=51 velocity=56 time=2\n",
      "control_change channel=9 control=4 value=37 time=14\n",
      "control_change channel=9 control=4 value=55 time=22\n",
      "control_change channel=9 control=4 value=68 time=15\n",
      "control_change channel=9 control=4 value=78 time=21\n",
      "note_on channel=9 note=36 velocity=0 time=20\n",
      "control_change channel=9 control=4 value=89 time=1\n",
      "control_change channel=9 control=4 value=90 time=0\n",
      "note_on channel=9 note=51 velocity=0 time=1\n",
      "note_on channel=9 note=38 velocity=29 time=33\n",
      "control_change channel=9 control=4 value=86 time=11\n",
      "control_change channel=9 control=4 value=82 time=43\n",
      "note_on channel=9 note=38 velocity=0 time=40\n",
      "control_change channel=9 control=4 value=78 time=4\n",
      "note_on channel=9 note=44 velocity=102 time=18\n",
      "note_on channel=9 note=38 velocity=21 time=4\n",
      "note_on channel=9 note=51 velocity=61 time=3\n",
      "control_change channel=9 control=4 value=74 time=18\n",
      "control_change channel=9 control=4 value=72 time=21\n",
      "control_change channel=9 control=4 value=76 time=21\n",
      "control_change channel=9 control=4 value=80 time=22\n",
      "note_on channel=9 note=44 velocity=0 time=5\n",
      "note_on channel=9 note=38 velocity=0 time=4\n",
      "note_on channel=9 note=51 velocity=0 time=2\n",
      "control_change channel=9 control=4 value=84 time=11\n",
      "note_on channel=9 note=36 velocity=46 time=13\n",
      "control_change channel=9 control=4 value=89 time=9\n",
      "note_on channel=9 note=51 velocity=47 time=0\n",
      "control_change channel=9 control=4 value=90 time=5\n",
      "control_change channel=9 control=4 value=86 time=22\n",
      "control_change channel=9 control=4 value=81 time=22\n",
      "control_change channel=9 control=4 value=76 time=22\n",
      "note_on channel=9 note=36 velocity=0 time=14\n",
      "control_change channel=9 control=4 value=72 time=7\n",
      "note_on channel=9 note=51 velocity=0 time=2\n",
      "note_on channel=9 note=51 velocity=82 time=15\n",
      "note_on channel=9 note=38 velocity=77 time=2\n",
      "control_change channel=9 control=4 value=67 time=3\n",
      "control_change channel=9 control=4 value=62 time=22\n",
      "control_change channel=9 control=4 value=57 time=22\n",
      "control_change channel=9 control=4 value=53 time=21\n",
      "control_change channel=9 control=4 value=48 time=22\n",
      "note_on channel=9 note=51 velocity=0 time=0\n",
      "note_on channel=9 note=38 velocity=0 time=5\n",
      "control_change channel=9 control=4 value=43 time=17\n",
      "control_change channel=9 control=4 value=42 time=3\n",
      "control_change channel=9 control=4 value=22 time=21\n",
      "control_change channel=9 control=4 value=2 time=22\n",
      "control_change channel=9 control=4 value=0 time=3\n",
      "control_change channel=9 control=4 value=16 time=22\n",
      "control_change channel=9 control=4 value=32 time=22\n",
      "control_change channel=9 control=4 value=48 time=21\n",
      "note_on channel=9 note=44 velocity=100 time=14\n",
      "note_on channel=9 note=51 velocity=68 time=7\n",
      "control_change channel=9 control=4 value=64 time=1\n",
      "control_change channel=9 control=4 value=68 time=4\n",
      "control_change channel=9 control=4 value=78 time=22\n",
      "control_change channel=9 control=4 value=89 time=22\n",
      "control_change channel=9 control=4 value=90 time=1\n",
      "note_on channel=9 note=44 velocity=0 time=37\n",
      "control_change channel=9 control=4 value=87 time=7\n",
      "note_on channel=9 note=51 velocity=0 time=0\n",
      "note_on channel=9 note=38 velocity=16 time=3\n",
      "note_on channel=9 note=51 velocity=56 time=16\n",
      "control_change channel=9 control=4 value=84 time=24\n",
      "control_change channel=9 control=4 value=81 time=44\n",
      "note_on channel=9 note=38 velocity=0 time=10\n",
      "note_on channel=9 note=51 velocity=0 time=16\n",
      "control_change channel=9 control=4 value=78 time=17\n",
      "note_on channel=9 note=51 velocity=64 time=3\n",
      "note_on channel=9 note=36 velocity=37 time=4\n",
      "control_change channel=9 control=4 value=75 time=21\n",
      "control_change channel=9 control=4 value=78 time=22\n",
      "control_change channel=9 control=4 value=82 time=21\n",
      "control_change channel=9 control=4 value=86 time=22\n",
      "note_on channel=9 note=51 velocity=0 time=4\n",
      "note_on channel=9 note=36 velocity=0 time=4\n",
      "control_change channel=9 control=4 value=90 time=11\n",
      "note_on channel=9 note=38 velocity=25 time=24\n",
      "control_change channel=9 control=4 value=87 time=20\n",
      "control_change channel=9 control=4 value=84 time=43\n",
      "note_on channel=9 note=38 velocity=0 time=32\n",
      "note_on channel=9 note=44 velocity=100 time=11\n",
      "control_change channel=9 control=4 value=81 time=1\n",
      "note_on channel=9 note=51 velocity=73 time=9\n",
      "note_on channel=9 note=38 velocity=33 time=7\n",
      "control_change channel=9 control=4 value=78 time=27\n",
      "control_change channel=9 control=4 value=75 time=44\n",
      "note_on channel=9 note=44 velocity=0 time=5\n",
      "control_change channel=9 control=4 value=74 time=6\n",
      "note_on channel=9 note=51 velocity=0 time=5\n",
      "note_on channel=9 note=38 velocity=0 time=7\n",
      "control_change channel=9 control=4 value=40 time=10\n",
      "note_on channel=9 note=36 velocity=46 time=3\n",
      "note_on channel=9 note=51 velocity=57 time=9\n",
      "control_change channel=9 control=4 value=6 time=10\n",
      "control_change channel=9 control=4 value=0 time=4\n",
      "control_change channel=9 control=4 value=18 time=22\n",
      "control_change channel=9 control=4 value=37 time=22\n",
      "control_change channel=9 control=4 value=56 time=21\n",
      "note_on channel=9 note=36 velocity=0 time=6\n",
      "note_on channel=9 note=51 velocity=0 time=9\n",
      "control_change channel=9 control=4 value=74 time=7\n",
      "control_change channel=9 control=4 value=78 time=3\n",
      "note_on channel=9 note=38 velocity=90 time=7\n",
      "note_on channel=9 note=51 velocity=73 time=0\n",
      "control_change channel=9 control=4 value=84 time=15\n",
      "control_change channel=9 control=4 value=90 time=21\n",
      "control_change channel=9 control=4 value=89 time=44\n",
      "note_on channel=9 note=38 velocity=0 time=13\n",
      "note_on channel=9 note=51 velocity=0 time=0\n",
      "control_change channel=9 control=4 value=87 time=30\n",
      "note_on channel=9 note=38 velocity=16 time=22\n",
      "control_change channel=9 control=4 value=85 time=22\n",
      "control_change channel=9 control=4 value=83 time=43\n",
      "control_change channel=9 control=4 value=82 time=19\n",
      "note_on channel=9 note=38 velocity=0 time=10\n",
      "note_on channel=9 note=51 velocity=81 time=11\n",
      "note_on channel=9 note=44 velocity=102 time=3\n",
      "control_change channel=9 control=4 value=87 time=20\n",
      "control_change channel=9 control=4 value=90 time=16\n",
      "control_change channel=9 control=4 value=87 time=21\n",
      "control_change channel=9 control=4 value=83 time=22\n",
      "note_on channel=9 note=51 velocity=0 time=12\n",
      "note_on channel=9 note=44 velocity=0 time=2\n",
      "control_change channel=9 control=4 value=79 time=8\n",
      "note_on channel=9 note=51 velocity=61 time=12\n",
      "control_change channel=9 control=4 value=75 time=10\n",
      "control_change channel=9 control=4 value=71 time=21\n",
      "control_change channel=9 control=4 value=67 time=22\n",
      "control_change channel=9 control=4 value=63 time=22\n",
      "note_on channel=9 note=51 velocity=0 time=18\n",
      "control_change channel=9 control=4 value=59 time=4\n",
      "note_on channel=9 note=36 velocity=43 time=19\n",
      "control_change channel=9 control=4 value=55 time=2\n",
      "note_on channel=9 note=51 velocity=62 time=7\n",
      "control_change channel=9 control=4 value=51 time=15\n",
      "control_change channel=9 control=4 value=47 time=22\n",
      "control_change channel=9 control=4 value=43 time=22\n",
      "control_change channel=9 control=4 value=42 time=3\n",
      "control_change channel=9 control=4 value=22 time=21\n",
      "note_on channel=9 note=36 velocity=0 time=1\n",
      "note_on channel=9 note=51 velocity=0 time=9\n",
      "control_change channel=9 control=4 value=2 time=12\n",
      "control_change channel=9 control=4 value=0 time=2\n",
      "control_change channel=9 control=4 value=16 time=21\n",
      "control_change channel=9 control=4 value=32 time=22\n",
      "control_change channel=9 control=4 value=49 time=22\n",
      "control_change channel=9 control=4 value=65 time=22\n",
      "control_change channel=9 control=4 value=78 time=16\n",
      "note_on channel=9 note=44 velocity=102 time=18\n",
      "control_change channel=9 control=4 value=84 time=3\n",
      "note_on channel=9 note=38 velocity=89 time=8\n",
      "control_change channel=9 control=4 value=90 time=14\n",
      "control_change channel=9 control=4 value=87 time=44\n",
      "note_on channel=9 note=44 velocity=0 time=25\n",
      "note_on channel=9 note=38 velocity=0 time=11\n",
      "control_change channel=9 control=4 value=83 time=7\n",
      "note_on channel=9 note=38 velocity=73 time=18\n",
      "control_change channel=9 control=4 value=80 time=26\n",
      "control_change channel=9 control=4 value=76 time=43\n",
      "note_on channel=9 note=44 velocity=22 time=24\n",
      "note_on channel=9 note=38 velocity=0 time=1\n",
      "control_change channel=9 control=4 value=73 time=5\n",
      "note_on channel=9 note=38 velocity=86 time=24\n",
      "control_change channel=9 control=4 value=75 time=20\n",
      "control_change channel=9 control=4 value=76 time=14\n",
      "control_change channel=9 control=4 value=81 time=22\n",
      "note_on channel=9 note=44 velocity=0 time=7\n",
      "control_change channel=9 control=4 value=87 time=15\n",
      "control_change channel=9 control=4 value=90 time=9\n",
      "note_on channel=9 note=38 velocity=0 time=6\n",
      "control_change channel=9 control=4 value=87 time=15\n",
      "note_on channel=9 note=38 velocity=80 time=12\n",
      "control_change channel=9 control=4 value=83 time=10\n",
      "control_change channel=9 control=4 value=79 time=22\n",
      "control_change channel=9 control=4 value=75 time=22\n",
      "control_change channel=9 control=4 value=71 time=21\n",
      "note_on channel=9 note=44 velocity=100 time=12\n",
      "note_on channel=9 note=38 velocity=0 time=7\n",
      "control_change channel=9 control=4 value=67 time=3\n",
      "note_on channel=9 note=38 velocity=76 time=14\n",
      "control_change channel=9 control=4 value=63 time=8\n",
      "control_change channel=9 control=4 value=59 time=22\n",
      "control_change channel=9 control=4 value=57 time=8\n",
      "control_change channel=9 control=4 value=30 time=22\n",
      "note_on channel=9 note=44 velocity=0 time=9\n",
      "control_change channel=9 control=4 value=2 time=13\n",
      "control_change channel=9 control=4 value=0 time=1\n",
      "note_on channel=9 note=38 velocity=0 time=11\n",
      "control_change channel=9 control=4 value=13 time=11\n",
      "note_on channel=9 note=38 velocity=59 time=11\n",
      "control_change channel=9 control=4 value=27 time=11\n",
      "control_change channel=9 control=4 value=40 time=22\n",
      "control_change channel=9 control=4 value=54 time=21\n",
      "control_change channel=9 control=4 value=67 time=22\n",
      "control_change channel=9 control=4 value=68 time=0\n",
      "note_on channel=9 note=38 velocity=0 time=18\n",
      "control_change channel=9 control=4 value=78 time=4\n",
      "note_on channel=9 note=44 velocity=20 time=0\n",
      "note_on channel=9 note=36 velocity=46 time=17\n",
      "control_change channel=9 control=4 value=89 time=5\n",
      "control_change channel=9 control=4 value=90 time=0\n",
      "note_on channel=9 note=51 velocity=67 time=3\n",
      "control_change channel=9 control=4 value=85 time=42\n",
      "note_on channel=9 note=44 velocity=0 time=27\n",
      "control_change channel=9 control=4 value=80 time=16\n",
      "note_on channel=9 note=36 velocity=0 time=0\n",
      "note_on channel=9 note=38 velocity=29 time=7\n",
      "note_on channel=9 note=51 velocity=0 time=2\n",
      "control_change channel=9 control=4 value=75 time=35\n",
      "control_change channel=9 control=4 value=71 time=26\n",
      "control_change channel=9 control=4 value=65 time=20\n",
      "note_on channel=9 note=38 velocity=0 time=11\n",
      "control_change channel=9 control=4 value=59 time=12\n",
      "control_change channel=9 control=4 value=58 time=3\n",
      "note_on channel=9 note=38 velocity=33 time=8\n",
      "control_change channel=9 control=4 value=67 time=14\n",
      "note_on channel=9 note=44 velocity=97 time=2\n",
      "control_change channel=9 control=4 value=76 time=20\n",
      "control_change channel=9 control=4 value=79 time=5\n",
      "control_change channel=9 control=4 value=84 time=22\n",
      "control_change channel=9 control=4 value=90 time=22\n",
      "note_on channel=9 note=38 velocity=0 time=8\n",
      "note_on channel=9 note=44 velocity=0 time=16\n",
      "note_on channel=9 note=36 velocity=51 time=10\n",
      "control_change channel=9 control=4 value=85 time=9\n",
      "control_change channel=9 control=4 value=79 time=44\n",
      "note_on channel=9 note=36 velocity=0 time=41\n",
      "control_change channel=9 control=4 value=73 time=2\n",
      "note_on channel=9 note=55 velocity=70 time=43\n",
      "control_change channel=9 control=4 value=67 time=1\n",
      "note_on channel=9 note=40 velocity=108 time=10\n",
      "control_change channel=9 control=4 value=61 time=33\n",
      "control_change channel=9 control=4 value=59 time=10\n",
      "control_change channel=9 control=4 value=35 time=22\n",
      "note_on channel=9 note=55 velocity=0 time=17\n",
      "control_change channel=9 control=4 value=10 time=5\n",
      "note_on channel=9 note=40 velocity=0 time=7\n",
      "control_change channel=9 control=4 value=0 time=2\n",
      "control_change channel=9 control=4 value=18 time=21\n",
      "note_on channel=9 note=38 velocity=32 time=20\n",
      "control_change channel=9 control=4 value=36 time=2\n",
      "control_change channel=9 control=4 value=55 time=22\n",
      "control_change channel=9 control=4 value=73 time=22\n",
      "control_change channel=9 control=4 value=78 time=5\n",
      "control_change channel=9 control=4 value=84 time=22\n",
      "note_on channel=9 note=44 velocity=97 time=7\n",
      "note_on channel=9 note=38 velocity=0 time=13\n",
      "control_change channel=9 control=4 value=90 time=2\n",
      "note_on channel=9 note=51 velocity=51 time=15\n",
      "control_change channel=9 control=4 value=89 time=28\n",
      "note_on channel=9 note=44 velocity=0 time=37\n",
      "control_change channel=9 control=4 value=87 time=6\n",
      "note_on channel=9 note=51 velocity=0 time=22\n",
      "note_on channel=9 note=38 velocity=66 time=10\n",
      "control_change channel=9 control=4 value=86 time=12\n",
      "control_change channel=9 control=4 value=84 time=35\n",
      "control_change channel=9 control=4 value=80 time=22\n",
      "control_change channel=9 control=4 value=76 time=22\n",
      "note_on channel=9 note=38 velocity=0 time=2\n",
      "control_change channel=9 control=4 value=73 time=12\n",
      "control_change channel=9 control=4 value=77 time=22\n",
      "note_on channel=9 note=36 velocity=46 time=2\n",
      "note_on channel=9 note=51 velocity=79 time=2\n",
      "control_change channel=9 control=4 value=82 time=18\n",
      "control_change channel=9 control=4 value=86 time=22\n",
      "control_change channel=9 control=4 value=90 time=14\n",
      "control_change channel=9 control=4 value=87 time=22\n",
      "note_on channel=9 note=36 velocity=0 time=16\n",
      "note_on channel=9 note=51 velocity=0 time=0\n",
      "control_change channel=9 control=4 value=84 time=6\n",
      "note_on channel=9 note=38 velocity=22 time=12\n",
      "control_change channel=9 control=4 value=81 time=9\n",
      "control_change channel=9 control=4 value=77 time=22\n",
      "control_change channel=9 control=4 value=74 time=22\n",
      "control_change channel=9 control=4 value=71 time=22\n",
      "note_on channel=9 note=38 velocity=0 time=19\n",
      "control_change channel=9 control=4 value=67 time=2\n",
      "note_on channel=9 note=38 velocity=27 time=17\n",
      "note_on channel=9 note=44 velocity=97 time=0\n",
      "control_change channel=9 control=4 value=64 time=5\n",
      "note_on channel=9 note=51 velocity=58 time=6\n",
      "control_change channel=9 control=4 value=61 time=16\n",
      "control_change channel=9 control=4 value=57 time=20\n",
      "control_change channel=9 control=4 value=29 time=22\n",
      "control_change channel=9 control=4 value=0 time=22\n",
      "note_on channel=9 note=38 velocity=0 time=3\n",
      "note_on channel=9 note=44 velocity=0 time=0\n",
      "note_on channel=9 note=51 velocity=0 time=10\n",
      "control_change channel=9 control=4 value=17 time=8\n",
      "note_on channel=9 note=51 velocity=55 time=11\n",
      "note_on channel=9 note=36 velocity=50 time=5\n",
      "control_change channel=9 control=4 value=34 time=6\n",
      "control_change channel=9 control=4 value=51 time=22\n",
      "control_change channel=9 control=4 value=68 time=22\n",
      "control_change channel=9 control=4 value=77 time=11\n",
      "control_change channel=9 control=4 value=83 time=22\n",
      "note_on channel=9 note=51 velocity=0 time=6\n",
      "note_on channel=9 note=36 velocity=0 time=4\n",
      "control_change channel=9 control=4 value=90 time=12\n",
      "note_on channel=9 note=38 velocity=77 time=10\n",
      "note_on channel=9 note=51 velocity=127 time=10\n",
      "control_change channel=9 control=4 value=88 time=23\n",
      "control_change channel=9 control=4 value=85 time=44\n",
      "note_on channel=9 note=38 velocity=0 time=17\n",
      "note_on channel=9 note=51 velocity=0 time=9\n",
      "control_change channel=9 control=4 value=82 time=17\n",
      "note_on channel=9 note=38 velocity=33 time=6\n",
      "control_change channel=9 control=4 value=80 time=10\n",
      "control_change channel=9 control=4 value=71 time=22\n",
      "control_change channel=9 control=4 value=62 time=22\n",
      "control_change channel=9 control=4 value=52 time=21\n",
      "control_change channel=9 control=4 value=53 time=0\n",
      "note_on channel=9 note=38 velocity=0 time=18\n",
      "control_change channel=9 control=4 value=62 time=4\n",
      "note_on channel=9 note=44 velocity=95 time=11\n",
      "control_change channel=9 control=4 value=72 time=11\n",
      "note_on channel=9 note=51 velocity=65 time=3\n",
      "control_change channel=9 control=4 value=77 time=7\n",
      "control_change channel=9 control=4 value=83 time=22\n",
      "control_change channel=9 control=4 value=89 time=22\n",
      "control_change channel=9 control=4 value=90 time=2\n",
      "control_change channel=9 control=4 value=87 time=22\n",
      "note_on channel=9 note=44 velocity=0 time=5\n",
      "note_on channel=9 note=38 velocity=37 time=3\n",
      "note_on channel=9 note=51 velocity=0 time=11\n",
      "control_change channel=9 control=4 value=83 time=3\n",
      "control_change channel=9 control=4 value=79 time=22\n",
      "note_on channel=9 note=51 velocity=52 time=1\n",
      "control_change channel=9 control=4 value=75 time=20\n",
      "control_change channel=9 control=4 value=72 time=22\n",
      "note_on channel=9 note=38 velocity=0 time=14\n",
      "control_change channel=9 control=4 value=68 time=8\n",
      "control_change channel=9 control=4 value=64 time=22\n",
      "note_on channel=9 note=36 velocity=41 time=4\n",
      "note_on channel=9 note=51 velocity=0 time=4\n",
      "control_change channel=9 control=4 value=60 time=13\n",
      "control_change channel=9 control=4 value=58 time=12\n",
      "note_on channel=9 note=51 velocity=75 time=2\n",
      "control_change channel=9 control=4 value=32 time=20\n",
      "control_change channel=9 control=4 value=6 time=22\n",
      "control_change channel=9 control=4 value=0 time=4\n",
      "note_on channel=9 note=36 velocity=0 time=17\n",
      "control_change channel=9 control=4 value=16 time=5\n",
      "control_change channel=9 control=4 value=33 time=21\n",
      "note_on channel=9 note=51 velocity=0 time=5\n",
      "note_on channel=9 note=38 velocity=26 time=13\n",
      "control_change channel=9 control=4 value=50 time=4\n",
      "control_change channel=9 control=4 value=66 time=22\n",
      "control_change channel=9 control=4 value=78 time=14\n",
      "control_change channel=9 control=4 value=84 time=22\n",
      "control_change channel=9 control=4 value=90 time=22\n",
      "note_on channel=9 note=38 velocity=0 time=10\n",
      "note_on channel=9 note=44 velocity=97 time=8\n",
      "note_on channel=9 note=38 velocity=33 time=10\n",
      "note_on channel=9 note=51 velocity=78 time=9\n",
      "control_change channel=9 control=4 value=88 time=6\n",
      "control_change channel=9 control=4 value=86 time=44\n",
      "note_on channel=9 note=44 velocity=0 time=26\n",
      "note_on channel=9 note=38 velocity=0 time=9\n",
      "control_change channel=9 control=4 value=83 time=8\n",
      "note_on channel=9 note=51 velocity=0 time=0\n",
      "note_on channel=9 note=36 velocity=46 time=15\n",
      "control_change channel=9 control=4 value=81 time=13\n",
      "note_on channel=9 note=51 velocity=69 time=3\n",
      "control_change channel=9 control=4 value=74 time=19\n",
      "control_change channel=9 control=4 value=67 time=21\n",
      "control_change channel=9 control=4 value=66 time=2\n",
      "note_on channel=9 note=36 velocity=0 time=36\n",
      "control_change channel=9 control=4 value=71 time=7\n",
      "note_on channel=9 note=51 velocity=0 time=8\n",
      "note_on channel=9 note=38 velocity=67 time=12\n",
      "control_change channel=9 control=4 value=75 time=4\n",
      "note_on channel=9 note=51 velocity=101 time=12\n",
      "control_change channel=9 control=4 value=81 time=9\n",
      "control_change channel=9 control=4 value=88 time=22\n",
      "control_change channel=9 control=4 value=90 time=7\n",
      "control_change channel=9 control=4 value=86 time=22\n",
      "note_on channel=9 note=38 velocity=0 time=18\n",
      "control_change channel=9 control=4 value=81 time=4\n",
      "note_on channel=9 note=51 velocity=0 time=12\n",
      "control_change channel=9 control=4 value=77 time=10\n",
      "note_on channel=9 note=38 velocity=26 time=14\n",
      "control_change channel=9 control=4 value=72 time=7\n",
      "control_change channel=9 control=4 value=67 time=22\n",
      "control_change channel=9 control=4 value=63 time=22\n",
      "control_change channel=9 control=4 value=58 time=19\n",
      "control_change channel=9 control=4 value=33 time=21\n",
      "note_on channel=9 note=38 velocity=0 time=3\n",
      "note_on channel=9 note=44 velocity=102 time=6\n",
      "note_on channel=9 note=51 velocity=127 time=5\n",
      "control_change channel=9 control=4 value=7 time=8\n",
      "control_change channel=9 control=4 value=0 time=6\n",
      "control_change channel=9 control=4 value=14 time=22\n",
      "control_change channel=9 control=4 value=29 time=21\n",
      "control_change channel=9 control=4 value=44 time=22\n",
      "note_on channel=9 note=44 velocity=0 time=9\n",
      "note_on channel=9 note=51 velocity=0 time=5\n",
      "control_change channel=9 control=4 value=58 time=8\n",
      "control_change channel=9 control=4 value=73 time=22\n",
      "control_change channel=9 control=4 value=77 time=4\n",
      "note_on channel=9 note=38 velocity=80 time=7\n",
      "control_change channel=9 control=4 value=83 time=15\n",
      "control_change channel=9 control=4 value=90 time=22\n",
      "control_change channel=9 control=4 value=86 time=21\n",
      "control_change channel=9 control=4 value=81 time=22\n",
      "note_on channel=9 note=38 velocity=0 time=14\n",
      "control_change channel=9 control=4 value=76 time=8\n",
      "note_on channel=9 note=36 velocity=39 time=11\n",
      "note_on channel=9 note=51 velocity=52 time=0\n",
      "control_change channel=9 control=4 value=71 time=11\n",
      "control_change channel=9 control=4 value=66 time=21\n",
      "control_change channel=9 control=4 value=62 time=22\n",
      "control_change channel=9 control=4 value=57 time=22\n",
      "note_on channel=9 note=36 velocity=0 time=18\n",
      "note_on channel=9 note=51 velocity=0 time=0\n",
      "control_change channel=9 control=4 value=52 time=1\n",
      "control_change channel=9 control=4 value=42 time=21\n",
      "note_on channel=9 note=51 velocity=51 time=5\n",
      "control_change channel=9 control=4 value=32 time=17\n",
      "control_change channel=9 control=4 value=23 time=18\n",
      "control_change channel=9 control=4 value=45 time=21\n",
      "control_change channel=9 control=4 value=68 time=22\n",
      "control_change channel=9 control=4 value=78 time=9\n",
      "note_on channel=9 note=51 velocity=0 time=7\n",
      "note_on channel=9 note=44 velocity=100 time=14\n",
      "control_change channel=9 control=4 value=84 time=1\n",
      "note_on channel=9 note=51 velocity=98 time=17\n",
      "control_change channel=9 control=4 value=90 time=4\n",
      "control_change channel=9 control=4 value=86 time=22\n",
      "control_change channel=9 control=4 value=81 time=22\n",
      "control_change channel=9 control=4 value=76 time=22\n",
      "note_on channel=9 note=44 velocity=0 time=5\n",
      "control_change channel=9 control=4 value=71 time=16\n",
      "note_on channel=9 note=51 velocity=0 time=2\n",
      "control_change channel=9 control=4 value=66 time=20\n",
      "note_on channel=9 note=36 velocity=42 time=3\n",
      "control_change channel=9 control=4 value=61 time=19\n",
      "control_change channel=9 control=4 value=56 time=22\n",
      "control_change channel=9 control=4 value=51 time=21\n",
      "control_change channel=9 control=4 value=46 time=22\n",
      "note_on channel=9 note=36 velocity=0 time=10\n",
      "control_change channel=9 control=4 value=42 time=7\n",
      "note_on channel=9 note=38 velocity=58 time=16\n",
      "note_on channel=9 note=51 velocity=83 time=5\n",
      "control_change channel=9 control=4 value=23 time=1\n",
      "control_change channel=9 control=4 value=4 time=22\n",
      "control_change channel=9 control=4 value=0 time=4\n",
      "control_change channel=9 control=4 value=16 time=22\n",
      "control_change channel=9 control=4 value=32 time=22\n",
      "note_on channel=9 note=38 velocity=0 time=18\n",
      "control_change channel=9 control=4 value=48 time=4\n",
      "note_on channel=9 note=51 velocity=0 time=1\n",
      "note_on channel=9 note=38 velocity=29 time=7\n",
      "control_change channel=9 control=4 value=64 time=13\n",
      "control_change channel=9 control=4 value=67 time=3\n",
      "note_on channel=9 note=51 velocity=51 time=7\n",
      "control_change channel=9 control=4 value=78 time=15\n",
      "control_change channel=9 control=4 value=89 time=22\n",
      "control_change channel=9 control=4 value=90 time=0\n",
      "note_on channel=9 note=38 velocity=0 time=34\n",
      "control_change channel=9 control=4 value=88 time=9\n",
      "note_on channel=9 note=51 velocity=0 time=12\n",
      "note_on channel=9 note=44 velocity=97 time=19\n",
      "note_on channel=9 note=51 velocity=95 time=4\n",
      "control_change channel=9 control=4 value=86 time=9\n",
      "control_change channel=9 control=4 value=84 time=43\n",
      "note_on channel=9 note=44 velocity=0 time=38\n",
      "note_on channel=9 note=51 velocity=0 time=4\n",
      "control_change channel=9 control=4 value=82 time=2\n",
      "note_on channel=9 note=38 velocity=62 time=13\n",
      "control_change channel=9 control=4 value=80 time=30\n",
      "control_change channel=9 control=4 value=78 time=38\n",
      "control_change channel=9 control=4 value=82 time=22\n",
      "note_on channel=9 note=38 velocity=0 time=3\n",
      "control_change channel=9 control=4 value=87 time=18\n",
      "note_on channel=9 note=36 velocity=38 time=3\n",
      "note_on channel=9 note=44 velocity=20 time=1\n",
      "control_change channel=9 control=4 value=90 time=7\n",
      "note_on channel=9 note=51 velocity=52 time=13\n",
      "control_change channel=9 control=4 value=86 time=30\n",
      "note_on channel=9 note=36 velocity=0 time=43\n",
      "control_change channel=9 control=4 value=81 time=1\n",
      "note_on channel=9 note=44 velocity=0 time=0\n",
      "note_on channel=9 note=51 velocity=0 time=19\n",
      "note_on channel=9 note=38 velocity=32 time=14\n",
      "control_change channel=9 control=4 value=77 time=10\n",
      "control_change channel=9 control=4 value=74 time=19\n",
      "control_change channel=9 control=4 value=42 time=20\n",
      "control_change channel=9 control=4 value=9 time=23\n",
      "control_change channel=9 control=4 value=0 time=6\n",
      "note_on channel=9 note=38 velocity=0 time=15\n",
      "control_change channel=9 control=4 value=15 time=7\n",
      "note_on channel=9 note=44 velocity=100 time=12\n",
      "note_on channel=9 note=51 velocity=74 time=8\n",
      "control_change channel=9 control=4 value=31 time=2\n",
      "note_on channel=9 note=38 velocity=32 time=1\n",
      "control_change channel=9 control=4 value=47 time=20\n",
      "control_change channel=9 control=4 value=62 time=22\n",
      "control_change channel=9 control=4 value=76 time=18\n",
      "control_change channel=9 control=4 value=83 time=21\n",
      "note_on channel=9 note=44 velocity=0 time=1\n",
      "note_on channel=9 note=51 velocity=0 time=8\n",
      "note_on channel=9 note=38 velocity=0 time=4\n",
      "control_change channel=9 control=4 value=90 time=9\n",
      "note_on channel=9 note=51 velocity=64 time=15\n",
      "note_on channel=9 note=36 velocity=43 time=1\n",
      "control_change channel=9 control=4 value=87 time=28\n",
      "control_change channel=9 control=4 value=83 time=43\n",
      "note_on channel=9 note=36 velocity=0 time=22\n",
      "note_on channel=9 note=51 velocity=0 time=0\n",
      "note_on channel=9 note=44 velocity=27 time=5\n",
      "control_change channel=9 control=4 value=80 time=17\n",
      "note_on channel=9 note=51 velocity=90 time=4\n",
      "note_on channel=9 note=38 velocity=69 time=5\n",
      "control_change channel=9 control=4 value=76 time=34\n",
      "control_change channel=9 control=4 value=74 time=20\n",
      "note_on channel=9 note=44 velocity=0 time=13\n",
      "note_on channel=9 note=51 velocity=0 time=22\n",
      "note_on channel=9 note=38 velocity=0 time=5\n",
      "control_change channel=9 control=4 value=76 time=4\n",
      "control_change channel=9 control=4 value=78 time=23\n",
      "note_on channel=9 note=38 velocity=35 time=9\n",
      "control_change channel=9 control=4 value=83 time=13\n",
      "control_change channel=9 control=4 value=89 time=22\n",
      "control_change channel=9 control=4 value=90 time=4\n",
      "control_change channel=9 control=4 value=87 time=22\n",
      "control_change channel=9 control=4 value=83 time=21\n",
      "note_on channel=9 note=44 velocity=100 time=9\n",
      "note_on channel=9 note=38 velocity=0 time=3\n",
      "control_change channel=9 control=4 value=80 time=10\n",
      "note_on channel=9 note=51 velocity=98 time=6\n",
      "control_change channel=9 control=4 value=76 time=16\n",
      "control_change channel=9 control=4 value=72 time=22\n",
      "control_change channel=9 control=4 value=69 time=21\n",
      "note_on channel=9 note=44 velocity=0 time=16\n",
      "control_change channel=9 control=4 value=65 time=6\n",
      "note_on channel=9 note=51 velocity=0 time=12\n",
      "control_change channel=9 control=4 value=61 time=10\n",
      "control_change channel=9 control=4 value=58 time=16\n",
      "note_on channel=9 note=38 velocity=45 time=3\n",
      "note_on channel=9 note=51 velocity=65 time=4\n",
      "control_change channel=9 control=4 value=31 time=15\n",
      "control_change channel=9 control=4 value=4 time=21\n",
      "control_change channel=9 control=4 value=0 time=3\n",
      "control_change channel=9 control=4 value=15 time=22\n",
      "control_change channel=9 control=4 value=31 time=22\n",
      "note_on channel=9 note=38 velocity=0 time=6\n",
      "note_on channel=9 note=51 velocity=0 time=5\n",
      "note_on channel=9 note=36 velocity=38 time=10\n",
      "control_change channel=9 control=4 value=47 time=1\n",
      "note_on channel=9 note=51 velocity=62 time=9\n",
      "control_change channel=9 control=4 value=63 time=12\n",
      "control_change channel=9 control=4 value=78 time=21\n",
      "control_change channel=9 control=4 value=84 time=21\n",
      "control_change channel=9 control=4 value=90 time=22\n",
      "note_on channel=9 note=36 velocity=0 time=8\n",
      "note_on channel=9 note=51 velocity=0 time=10\n",
      "control_change channel=9 control=4 value=87 time=26\n",
      "note_on channel=9 note=38 velocity=30 time=1\n",
      "control_change channel=9 control=4 value=83 time=42\n",
      "control_change channel=9 control=4 value=80 time=44\n",
      "note_on channel=9 note=38 velocity=0 time=7\n",
      "note_on channel=9 note=44 velocity=105 time=0\n",
      "note_on channel=9 note=51 velocity=72 time=21\n",
      "note_on channel=9 note=38 velocity=33 time=7\n",
      "control_change channel=9 control=4 value=76 time=8\n",
      "control_change channel=9 control=4 value=74 time=17\n",
      "note_on channel=9 note=44 velocity=0 time=41\n",
      "control_change channel=9 control=4 value=76 time=3\n",
      "note_on channel=9 note=51 velocity=0 time=18\n",
      "control_change channel=9 control=4 value=78 time=5\n",
      "note_on channel=9 note=38 velocity=0 time=2\n",
      "control_change channel=9 control=4 value=83 time=20\n",
      "note_on channel=9 note=51 velocity=71 time=6\n",
      "note_on channel=9 note=36 velocity=40 time=7\n",
      "control_change channel=9 control=4 value=88 time=9\n",
      "control_change channel=9 control=4 value=90 time=5\n",
      "control_change channel=9 control=4 value=87 time=22\n",
      "control_change channel=9 control=4 value=84 time=22\n",
      "control_change channel=9 control=4 value=81 time=22\n",
      "note_on channel=9 note=51 velocity=0 time=7\n",
      "note_on channel=9 note=36 velocity=0 time=6\n",
      "control_change channel=9 control=4 value=78 time=8\n",
      "note_on channel=9 note=51 velocity=83 time=10\n",
      "note_on channel=9 note=37 velocity=71 time=4\n",
      "control_change channel=9 control=4 value=75 time=8\n",
      "control_change channel=9 control=4 value=71 time=22\n",
      "control_change channel=9 control=4 value=68 time=22\n",
      "control_change channel=9 control=4 value=65 time=21\n",
      "note_on channel=9 note=51 velocity=0 time=17\n",
      "note_on channel=9 note=37 velocity=0 time=3\n",
      "control_change channel=9 control=4 value=62 time=2\n",
      "control_change channel=9 control=4 value=59 time=22\n",
      "note_on channel=9 note=38 velocity=18 time=0\n",
      "control_change channel=9 control=4 value=58 time=1\n",
      "control_change channel=9 control=4 value=31 time=22\n",
      "control_change channel=9 control=4 value=3 time=22\n",
      "control_change channel=9 control=4 value=0 time=1\n",
      "control_change channel=9 control=4 value=17 time=22\n",
      "control_change channel=9 control=4 value=34 time=22\n",
      "note_on channel=9 note=38 velocity=0 time=3\n",
      "note_on channel=9 note=44 velocity=95 time=9\n",
      "control_change channel=9 control=4 value=52 time=10\n",
      "control_change channel=9 control=4 value=69 time=21\n",
      "control_change channel=9 control=4 value=70 time=0\n",
      "note_on channel=9 note=38 velocity=28 time=1\n",
      "control_change channel=9 control=4 value=79 time=23\n",
      "control_change channel=9 control=4 value=89 time=21\n",
      "control_change channel=9 control=4 value=90 time=0\n",
      "note_on channel=9 note=44 velocity=0 time=18\n",
      "control_change channel=9 control=4 value=85 time=26\n",
      "note_on channel=9 note=38 velocity=0 time=6\n",
      "note_on channel=9 note=36 velocity=46 time=16\n",
      "note_on channel=9 note=51 velocity=102 time=6\n",
      "control_change channel=9 control=4 value=80 time=15\n",
      "control_change channel=9 control=4 value=75 time=44\n",
      "note_on channel=9 note=44 velocity=17 time=22\n",
      "note_on channel=9 note=36 velocity=0 time=7\n",
      "note_on channel=9 note=51 velocity=0 time=5\n",
      "control_change channel=9 control=4 value=70 time=9\n",
      "note_on channel=9 note=38 velocity=22 time=28\n",
      "control_change channel=9 control=4 value=65 time=16\n",
      "control_change channel=9 control=4 value=64 time=9\n",
      "control_change channel=9 control=4 value=68 time=21\n",
      "note_on channel=9 note=44 velocity=0 time=0\n",
      "control_change channel=9 control=4 value=72 time=22\n",
      "control_change channel=9 control=4 value=75 time=13\n",
      "note_on channel=9 note=36 velocity=11 time=9\n",
      "note_on channel=9 note=38 velocity=0 time=4\n",
      "note_on channel=9 note=51 velocity=54 time=7\n",
      "control_change channel=9 control=4 value=81 time=2\n",
      "control_change channel=9 control=4 value=88 time=22\n",
      "control_change channel=9 control=4 value=90 time=7\n",
      "control_change channel=9 control=4 value=86 time=22\n",
      "control_change channel=9 control=4 value=82 time=21\n",
      "note_on channel=9 note=36 velocity=0 time=9\n",
      "note_on channel=9 note=51 velocity=0 time=11\n",
      "control_change channel=9 control=4 value=77 time=2\n",
      "note_on channel=9 note=36 velocity=52 time=12\n",
      "note_on channel=9 note=44 velocity=105 time=1\n",
      "note_on channel=9 note=51 velocity=113 time=4\n",
      "control_change channel=9 control=4 value=73 time=5\n",
      "control_change channel=9 control=4 value=69 time=22\n",
      "control_change channel=9 control=4 value=64 time=21\n",
      "control_change channel=9 control=4 value=60 time=22\n",
      "control_change channel=9 control=4 value=58 time=7\n",
      "note_on channel=9 note=36 velocity=0 time=11\n",
      "note_on channel=9 note=44 velocity=0 time=0\n",
      "note_on channel=9 note=51 velocity=0 time=6\n",
      "control_change channel=9 control=4 value=34 time=5\n",
      "note_on channel=9 note=38 velocity=25 time=19\n",
      "control_change channel=9 control=4 value=10 time=3\n",
      "control_change channel=9 control=4 value=0 time=9\n",
      "control_change channel=9 control=4 value=15 time=21\n",
      "control_change channel=9 control=4 value=31 time=22\n",
      "control_change channel=9 control=4 value=47 time=22\n",
      "note_on channel=9 note=38 velocity=0 time=17\n",
      "note_on channel=9 note=44 velocity=22 time=4\n",
      "control_change channel=9 control=4 value=63 time=1\n",
      "control_change channel=9 control=4 value=73 time=13\n",
      "note_on channel=9 note=38 velocity=33 time=10\n",
      "control_change channel=9 control=4 value=81 time=11\n",
      "control_change channel=9 control=4 value=90 time=22\n",
      "note_on channel=9 note=44 velocity=0 time=36\n",
      "control_change channel=9 control=4 value=86 time=8\n",
      "note_on channel=9 note=38 velocity=0 time=16\n",
      "note_on channel=9 note=36 velocity=52 time=22\n",
      "control_change channel=9 control=4 value=82 time=5\n",
      "note_on channel=9 note=51 velocity=127 time=10\n",
      "control_change channel=9 control=4 value=78 time=34\n",
      "control_change channel=9 control=4 value=74 time=43\n",
      "note_on channel=9 note=36 velocity=0 time=2\n",
      "control_change channel=9 control=4 value=73 time=2\n",
      "note_on channel=9 note=44 velocity=97 time=10\n",
      "note_on channel=9 note=51 velocity=0 time=3\n",
      "control_change channel=9 control=4 value=67 time=9\n",
      "note_on channel=9 note=37 velocity=77 time=6\n",
      "control_change channel=9 control=4 value=61 time=16\n",
      "control_change channel=9 control=4 value=58 time=10\n",
      "control_change channel=9 control=4 value=65 time=22\n",
      "control_change channel=9 control=4 value=73 time=22\n",
      "note_on channel=9 note=44 velocity=0 time=5\n",
      "control_change channel=9 control=4 value=78 time=6\n",
      "note_on channel=9 note=37 velocity=0 time=12\n",
      "control_change channel=9 control=4 value=83 time=10\n",
      "control_change channel=9 control=4 value=89 time=22\n",
      "note_on channel=9 note=38 velocity=41 time=2\n",
      "control_change channel=9 control=4 value=90 time=1\n",
      "control_change channel=9 control=4 value=87 time=21\n",
      "control_change channel=9 control=4 value=83 time=22\n",
      "control_change channel=9 control=4 value=80 time=22\n",
      "control_change channel=9 control=4 value=76 time=22\n",
      "note_on channel=9 note=38 velocity=0 time=6\n",
      "note_on channel=9 note=36 velocity=51 time=3\n",
      "control_change channel=9 control=4 value=73 time=12\n",
      "control_change channel=9 control=4 value=69 time=22\n",
      "note_on channel=9 note=51 velocity=117 time=2\n",
      "control_change channel=9 control=4 value=66 time=20\n",
      "control_change channel=9 control=4 value=62 time=22\n",
      "note_on channel=9 note=36 velocity=0 time=16\n",
      "control_change channel=9 control=4 value=59 time=5\n",
      "control_change channel=9 control=4 value=57 time=6\n",
      "note_on channel=9 note=38 velocity=21 time=7\n",
      "control_change channel=9 control=4 value=29 time=15\n",
      "note_on channel=9 note=51 velocity=0 time=3\n",
      "control_change channel=9 control=4 value=0 time=19\n",
      "control_change channel=9 control=4 value=16 time=21\n",
      "control_change channel=9 control=4 value=33 time=22\n",
      "note_on channel=9 note=38 velocity=0 time=14\n",
      "control_change channel=9 control=4 value=50 time=8\n",
      "note_on channel=9 note=44 velocity=102 time=20\n",
      "control_change channel=9 control=4 value=67 time=2\n",
      "control_change channel=9 control=4 value=76 time=11\n",
      "note_on channel=9 note=45 velocity=98 time=6\n",
      "control_change channel=9 control=4 value=83 time=16\n",
      "control_change channel=9 control=4 value=90 time=22\n",
      "note_on channel=9 note=44 velocity=0 time=37\n",
      "control_change channel=9 control=4 value=88 time=6\n",
      "note_on channel=9 note=45 velocity=0 time=13\n",
      "note_on channel=9 note=38 velocity=30 time=9\n",
      "control_change channel=9 control=4 value=86 time=22\n",
      "control_change channel=9 control=4 value=84 time=43\n",
      "note_on channel=9 note=38 velocity=0 time=29\n",
      "control_change channel=9 control=4 value=81 time=15\n",
      "control_change channel=9 control=4 value=80 time=17\n",
      "note_on channel=9 note=38 velocity=28 time=1\n",
      "control_change channel=9 control=4 value=72 time=21\n",
      "control_change channel=9 control=4 value=63 time=22\n",
      "control_change channel=9 control=4 value=68 time=21\n",
      "control_change channel=9 control=4 value=73 time=22\n",
      "control_change channel=9 control=4 value=74 time=4\n",
      "note_on channel=9 note=38 velocity=0 time=3\n",
      "note_on channel=9 note=36 velocity=18 time=11\n",
      "control_change channel=9 control=4 value=80 time=8\n",
      "control_change channel=9 control=4 value=87 time=22\n",
      "note_on channel=9 note=51 velocity=85 time=6\n",
      "control_change channel=9 control=4 value=90 time=3\n",
      "control_change channel=9 control=4 value=86 time=21\n",
      "control_change channel=9 control=4 value=82 time=22\n",
      "note_on channel=9 note=36 velocity=0 time=12\n",
      "control_change channel=9 control=4 value=78 time=10\n",
      "control_change channel=9 control=4 value=74 time=22\n",
      "note_on channel=9 note=51 velocity=0 time=3\n",
      "note_on channel=9 note=36 velocity=55 time=8\n",
      "note_on channel=9 note=44 velocity=97 time=2\n",
      "control_change channel=9 control=4 value=70 time=8\n",
      "note_on channel=9 note=51 velocity=127 time=8\n",
      "control_change channel=9 control=4 value=66 time=14\n",
      "control_change channel=9 control=4 value=62 time=22\n",
      "control_change channel=9 control=4 value=58 time=22\n",
      "note_on channel=9 note=36 velocity=0 time=17\n",
      "note_on channel=9 note=44 velocity=0 time=2\n",
      "control_change channel=9 control=4 value=29 time=2\n",
      "note_on channel=9 note=51 velocity=0 time=15\n",
      "control_change channel=9 control=4 value=0 time=7\n",
      "note_on channel=9 note=38 velocity=29 time=4\n",
      "control_change channel=9 control=4 value=16 time=18\n",
      "control_change channel=9 control=4 value=32 time=22\n",
      "control_change channel=9 control=4 value=48 time=21\n",
      "control_change channel=9 control=4 value=64 time=22\n",
      "control_change channel=9 control=4 value=71 time=9\n",
      "note_on channel=9 note=38 velocity=0 time=2\n",
      "control_change channel=9 control=4 value=80 time=20\n",
      "note_on channel=9 note=38 velocity=31 time=3\n",
      "control_change channel=9 control=4 value=90 time=18\n",
      "control_change channel=9 control=4 value=87 time=44\n",
      "note_on channel=9 note=38 velocity=0 time=32\n",
      "control_change channel=9 control=4 value=84 time=11\n",
      "note_on channel=9 note=36 velocity=26 time=14\n",
      "note_on channel=9 note=51 velocity=80 time=5\n",
      "control_change channel=9 control=4 value=80 time=25\n",
      "control_change channel=9 control=4 value=78 time=25\n",
      "control_change channel=9 control=4 value=66 time=21\n",
      "note_on channel=9 note=36 velocity=0 time=17\n",
      "control_change channel=9 control=4 value=54 time=5\n",
      "note_on channel=9 note=51 velocity=0 time=1\n",
      "control_change channel=9 control=4 value=45 time=14\n",
      "note_on channel=9 note=44 velocity=102 time=20\n",
      "control_change channel=9 control=4 value=54 time=1\n",
      "note_on channel=9 note=36 velocity=56 time=1\n",
      "note_on channel=9 note=51 velocity=117 time=4\n",
      "control_change channel=9 control=4 value=63 time=17\n",
      "control_change channel=9 control=4 value=72 time=22\n",
      "control_change channel=9 control=4 value=73 time=0\n",
      "control_change channel=9 control=4 value=80 time=22\n",
      "control_change channel=9 control=4 value=88 time=21\n",
      "control_change channel=9 control=4 value=90 time=5\n",
      "note_on channel=9 note=44 velocity=0 time=0\n",
      "note_on channel=9 note=36 velocity=0 time=3\n",
      "note_on channel=9 note=51 velocity=0 time=4\n",
      "control_change channel=9 control=4 value=87 time=14\n",
      "note_on channel=9 note=38 velocity=33 time=6\n",
      "control_change channel=9 control=4 value=84 time=16\n",
      "control_change channel=9 control=4 value=81 time=22\n",
      "control_change channel=9 control=4 value=77 time=22\n",
      "control_change channel=9 control=4 value=74 time=21\n",
      "note_on channel=9 note=38 velocity=0 time=13\n",
      "control_change channel=9 control=4 value=71 time=9\n",
      "note_on channel=9 note=44 velocity=22 time=6\n",
      "note_on channel=9 note=38 velocity=32 time=7\n",
      "control_change channel=9 control=4 value=67 time=9\n",
      "control_change channel=9 control=4 value=64 time=22\n",
      "control_change channel=9 control=4 value=61 time=21\n",
      "control_change channel=9 control=4 value=59 time=11\n",
      "control_change channel=9 control=4 value=31 time=21\n",
      "note_on channel=9 note=44 velocity=0 time=2\n",
      "note_on channel=9 note=38 velocity=0 time=8\n",
      "control_change channel=9 control=4 value=2 time=12\n",
      "control_change channel=9 control=4 value=0 time=1\n",
      "note_on channel=9 note=43 velocity=106 time=19\n",
      "control_change channel=9 control=4 value=16 time=3\n",
      "control_change channel=9 control=4 value=32 time=22\n",
      "control_change channel=9 control=4 value=48 time=22\n",
      "control_change channel=9 control=4 value=64 time=21\n",
      "control_change channel=9 control=4 value=78 time=18\n",
      "note_on channel=9 note=43 velocity=0 time=7\n",
      "control_change channel=9 control=4 value=84 time=15\n",
      "note_on channel=9 note=37 velocity=71 time=0\n",
      "note_on channel=9 note=44 velocity=102 time=2\n",
      "control_change channel=9 control=4 value=90 time=19\n",
      "control_change channel=9 control=4 value=86 time=44\n",
      "note_on channel=9 note=37 velocity=0 time=29\n",
      "note_on channel=9 note=44 velocity=0 time=2\n",
      "control_change channel=9 control=4 value=82 time=12\n",
      "note_on channel=9 note=36 velocity=51 time=18\n",
      "note_on channel=9 note=51 velocity=88 time=2\n",
      "control_change channel=9 control=4 value=78 time=24\n",
      "control_change channel=9 control=4 value=74 time=43\n",
      "control_change channel=9 control=4 value=73 time=5\n",
      "note_on channel=9 note=36 velocity=0 time=20\n",
      "note_on channel=9 note=51 velocity=0 time=0\n",
      "control_change channel=9 control=4 value=64 time=1\n",
      "note_on channel=9 note=38 velocity=29 time=11\n",
      "control_change channel=9 control=4 value=55 time=11\n",
      "control_change channel=9 control=4 value=54 time=2\n",
      "control_change channel=9 control=4 value=59 time=21\n",
      "control_change channel=9 control=4 value=64 time=22\n",
      "control_change channel=9 control=4 value=67 time=10\n",
      "control_change channel=9 control=4 value=75 time=22\n",
      "note_on channel=9 note=38 velocity=0 time=6\n",
      "control_change channel=9 control=4 value=83 time=16\n",
      "note_on channel=9 note=36 velocity=26 time=13\n",
      "control_change channel=9 control=4 value=90 time=3\n",
      "note_on channel=9 note=51 velocity=77 time=0\n",
      "control_change channel=9 control=4 value=87 time=22\n",
      "control_change channel=9 control=4 value=83 time=21\n",
      "control_change channel=9 control=4 value=79 time=22\n",
      "control_change channel=9 control=4 value=75 time=22\n",
      "note_on channel=9 note=36 velocity=0 time=4\n",
      "note_on channel=9 note=51 velocity=0 time=2\n",
      "control_change channel=9 control=4 value=72 time=16\n",
      "note_on channel=9 note=44 velocity=85 time=8\n",
      "note_on channel=9 note=51 velocity=99 time=12\n",
      "control_change channel=9 control=4 value=68 time=1\n",
      "note_on channel=9 note=36 velocity=51 time=8\n",
      "control_change channel=9 control=4 value=64 time=14\n",
      "control_change channel=9 control=4 value=60 time=22\n",
      "control_change channel=9 control=4 value=59 time=6\n",
      "control_change channel=9 control=4 value=33 time=21\n",
      "note_on channel=9 note=44 velocity=0 time=10\n",
      "control_change channel=9 control=4 value=7 time=12\n",
      "note_on channel=9 note=51 velocity=0 time=0\n",
      "control_change channel=9 control=4 value=0 time=6\n",
      "note_on channel=9 note=38 velocity=21 time=1\n",
      "note_on channel=9 note=36 velocity=0 time=2\n",
      "control_change channel=9 control=4 value=18 time=19\n",
      "control_change channel=9 control=4 value=36 time=21\n",
      "control_change channel=9 control=4 value=54 time=22\n",
      "control_change channel=9 control=4 value=72 time=22\n",
      "control_change channel=9 control=4 value=78 time=7\n",
      "note_on channel=9 note=38 velocity=0 time=0\n",
      "control_change channel=9 control=4 value=84 time=22\n",
      "note_on channel=9 note=51 velocity=36 time=7\n",
      "control_change channel=9 control=4 value=90 time=15\n",
      "note_on channel=9 note=38 velocity=12 time=6\n",
      "control_change channel=9 control=4 value=88 time=37\n",
      "note_on channel=9 note=51 velocity=0 time=36\n",
      "control_change channel=9 control=4 value=86 time=8\n",
      "note_on channel=9 note=38 velocity=0 time=13\n",
      "note_on channel=9 note=51 velocity=29 time=20\n",
      "note_on channel=9 note=36 velocity=48 time=1\n",
      "control_change channel=9 control=4 value=83 time=9\n",
      "control_change channel=9 control=4 value=81 time=28\n",
      "control_change channel=9 control=4 value=76 time=21\n",
      "control_change channel=9 control=4 value=71 time=22\n",
      "control_change channel=9 control=4 value=67 time=13\n",
      "note_on channel=9 note=36 velocity=0 time=0\n",
      "note_on channel=9 note=51 velocity=0 time=0\n",
      "control_change channel=9 control=4 value=70 time=22\n",
      "note_on channel=9 note=44 velocity=102 time=13\n",
      "note_on channel=9 note=53 velocity=84 time=6\n",
      "control_change channel=9 control=4 value=73 time=1\n",
      "note_on channel=9 note=40 velocity=98 time=3\n",
      "control_change channel=9 control=4 value=76 time=20\n",
      "control_change channel=9 control=4 value=77 time=0\n",
      "control_change channel=9 control=4 value=82 time=22\n",
      "control_change channel=9 control=4 value=87 time=22\n",
      "control_change channel=9 control=4 value=90 time=9\n",
      "note_on channel=9 note=44 velocity=0 time=10\n",
      "note_on channel=9 note=53 velocity=0 time=7\n",
      "note_on channel=9 note=40 velocity=0 time=4\n",
      "control_change channel=9 control=4 value=86 time=22\n",
      "note_on channel=9 note=38 velocity=32 time=24\n",
      "control_change channel=9 control=4 value=82 time=20\n",
      "control_change channel=9 control=4 value=77 time=43\n",
      "note_on channel=9 note=44 velocity=25 time=20\n",
      "control_change channel=9 control=4 value=74 time=8\n",
      "note_on channel=9 note=38 velocity=0 time=3\n",
      "note_on channel=9 note=36 velocity=41 time=11\n",
      "control_change channel=9 control=4 value=42 time=7\n",
      "note_on channel=9 note=51 velocity=43 time=8\n",
      "control_change channel=9 control=4 value=10 time=14\n",
      "control_change channel=9 control=4 value=0 time=7\n",
      "control_change channel=9 control=4 value=15 time=22\n",
      "note_on channel=9 note=44 velocity=0 time=14\n",
      "control_change channel=9 control=4 value=31 time=8\n",
      "note_on channel=9 note=36 velocity=0 time=13\n",
      "control_change channel=9 control=4 value=47 time=9\n",
      "note_on channel=9 note=38 velocity=19 time=5\n",
      "note_on channel=9 note=51 velocity=0 time=1\n",
      "control_change channel=9 control=4 value=63 time=15\n",
      "control_change channel=9 control=4 value=78 time=19\n",
      "control_change channel=9 control=4 value=84 time=22\n",
      "control_change channel=9 control=4 value=90 time=22\n",
      "note_on channel=9 note=38 velocity=0 time=15\n",
      "note_on channel=9 note=44 velocity=97 time=25\n",
      "note_on channel=9 note=38 velocity=16 time=1\n",
      "control_change channel=9 control=4 value=88 time=2\n",
      "note_on channel=9 note=51 velocity=79 time=6\n",
      "control_change channel=9 control=4 value=86 time=38\n",
      "control_change channel=9 control=4 value=84 time=43\n",
      "note_on channel=9 note=38 velocity=0 time=4\n",
      "note_on channel=9 note=44 velocity=0 time=0\n",
      "note_on channel=9 note=51 velocity=0 time=9\n",
      "control_change channel=9 control=4 value=82 time=29\n",
      "note_on channel=9 note=36 velocity=44 time=4\n",
      "control_change channel=9 control=4 value=72 time=18\n",
      "control_change channel=9 control=4 value=61 time=22\n",
      "control_change channel=9 control=4 value=64 time=22\n",
      "control_change channel=9 control=4 value=67 time=21\n",
      "note_on channel=9 note=36 velocity=0 time=10\n",
      "control_change channel=9 control=4 value=69 time=2\n",
      "note_on channel=9 note=44 velocity=20 time=13\n",
      "note_on channel=9 note=37 velocity=81 time=3\n",
      "control_change channel=9 control=4 value=77 time=6\n",
      "note_on channel=9 note=51 velocity=40 time=11\n",
      "control_change channel=9 control=4 value=86 time=10\n",
      "control_change channel=9 control=4 value=90 time=11\n",
      "control_change channel=9 control=4 value=86 time=43\n",
      "note_on channel=9 note=44 velocity=0 time=9\n",
      "note_on channel=9 note=37 velocity=0 time=5\n",
      "note_on channel=9 note=51 velocity=0 time=16\n",
      "control_change channel=9 control=4 value=82 time=14\n",
      "note_on channel=9 note=38 velocity=29 time=8\n",
      "note_on channel=9 note=51 velocity=39 time=4\n",
      "control_change channel=9 control=4 value=77 time=31\n",
      "control_change channel=9 control=4 value=74 time=31\n",
      "control_change channel=9 control=4 value=44 time=21\n",
      "note_on channel=9 note=38 velocity=0 time=6\n",
      "note_on channel=9 note=51 velocity=0 time=6\n",
      "control_change channel=9 control=4 value=14 time=10\n",
      "control_change channel=9 control=4 value=0 time=9\n",
      "note_on channel=9 note=44 velocity=102 time=4\n",
      "note_on channel=9 note=53 velocity=72 time=3\n",
      "control_change channel=9 control=4 value=14 time=15\n",
      "control_change channel=9 control=4 value=29 time=21\n",
      "control_change channel=9 control=4 value=44 time=22\n",
      "control_change channel=9 control=4 value=59 time=22\n",
      "note_on channel=9 note=44 velocity=0 time=10\n",
      "control_change channel=9 control=4 value=69 time=4\n",
      "note_on channel=9 note=53 velocity=0 time=0\n",
      "control_change channel=9 control=4 value=79 time=22\n",
      "note_on channel=9 note=38 velocity=31 time=12\n",
      "control_change channel=9 control=4 value=89 time=10\n",
      "control_change channel=9 control=4 value=90 time=0\n",
      "control_change channel=9 control=4 value=87 time=45\n",
      "note_on channel=9 note=38 velocity=0 time=39\n",
      "control_change channel=9 control=4 value=84 time=4\n",
      "note_on channel=9 note=36 velocity=34 time=7\n",
      "note_on channel=9 note=44 velocity=30 time=4\n",
      "note_on channel=9 note=51 velocity=35 time=6\n",
      "control_change channel=9 control=4 value=81 time=27\n",
      "note_on channel=9 note=38 velocity=8 time=19\n",
      "control_change channel=9 control=4 value=78 time=24\n",
      "note_on channel=9 note=36 velocity=0 time=14\n",
      "control_change channel=9 control=4 value=76 time=2\n",
      "note_on channel=9 note=44 velocity=0 time=2\n",
      "note_on channel=9 note=51 velocity=0 time=6\n",
      "note_on channel=9 note=51 velocity=22 time=18\n",
      "control_change channel=9 control=4 value=81 time=18\n",
      "note_on channel=9 note=38 velocity=0 time=10\n",
      "control_change channel=9 control=4 value=86 time=33\n",
      "note_on channel=9 note=51 velocity=0 time=33\n",
      "control_change channel=9 control=4 value=90 time=2\n",
      "note_on channel=9 note=53 velocity=73 time=20\n",
      "control_change channel=9 control=4 value=87 time=2\n",
      "note_on channel=9 note=44 velocity=100 time=7\n",
      "control_change channel=9 control=4 value=83 time=14\n",
      "control_change channel=9 control=4 value=80 time=22\n",
      "control_change channel=9 control=4 value=76 time=22\n",
      "control_change channel=9 control=4 value=73 time=22\n",
      "note_on channel=9 note=53 velocity=0 time=4\n",
      "note_on channel=9 note=44 velocity=0 time=10\n",
      "control_change channel=9 control=4 value=69 time=7\n",
      "note_on channel=9 note=36 velocity=40 time=3\n",
      "control_change channel=9 control=4 value=66 time=19\n",
      "control_change channel=9 control=4 value=62 time=22\n",
      "control_change channel=9 control=4 value=59 time=22\n",
      "control_change channel=9 control=4 value=57 time=8\n",
      "control_change channel=9 control=4 value=29 time=22\n",
      "note_on channel=9 note=36 velocity=0 time=1\n",
      "control_change channel=9 control=4 value=0 time=21\n",
      "note_on channel=9 note=51 velocity=42 time=12\n",
      "note_on channel=9 note=44 velocity=25 time=9\n",
      "control_change channel=9 control=4 value=16 time=1\n",
      "note_on channel=9 note=38 velocity=70 time=2\n",
      "control_change channel=9 control=4 value=33 time=19\n",
      "control_change channel=9 control=4 value=50 time=22\n",
      "control_change channel=9 control=4 value=67 time=22\n",
      "control_change channel=9 control=4 value=78 time=13\n",
      "note_on channel=9 note=51 velocity=0 time=6\n",
      "note_on channel=9 note=38 velocity=0 time=9\n",
      "note_on channel=9 note=38 velocity=22 time=0\n",
      "note_on channel=9 note=44 velocity=0 time=0\n",
      "note_on channel=9 note=38 velocity=0 time=3\n",
      "control_change channel=9 control=4 value=84 time=4\n",
      "note_on channel=9 note=51 velocity=38 time=8\n",
      "control_change channel=9 control=4 value=90 time=13\n",
      "control_change channel=9 control=4 value=88 time=44\n",
      "note_on channel=9 note=51 velocity=0 time=36\n",
      "control_change channel=9 control=4 value=86 time=7\n",
      "note_on channel=9 note=53 velocity=66 time=28\n",
      "note_on channel=9 note=44 velocity=97 time=9\n",
      "control_change channel=9 control=4 value=83 time=7\n",
      "control_change channel=9 control=4 value=81 time=33\n",
      "control_change channel=9 control=4 value=73 time=22\n",
      "control_change channel=9 control=4 value=64 time=22\n",
      "note_on channel=9 note=53 velocity=0 time=0\n",
      "control_change channel=9 control=4 value=63 time=3\n",
      "note_on channel=9 note=44 velocity=0 time=8\n",
      "control_change channel=9 control=4 value=66 time=13\n",
      "note_on channel=9 note=38 velocity=28 time=2\n",
      "control_change channel=9 control=4 value=70 time=20\n",
      "control_change channel=9 control=4 value=74 time=22\n",
      "control_change channel=9 control=4 value=75 time=1\n",
      "control_change channel=9 control=4 value=81 time=22\n",
      "control_change channel=9 control=4 value=87 time=22\n",
      "note_on channel=9 note=38 velocity=0 time=7\n",
      "control_change channel=9 control=4 value=90 time=2\n",
      "note_on channel=9 note=36 velocity=36 time=10\n",
      "note_on channel=9 note=44 velocity=30 time=13\n",
      "note_on channel=9 note=38 velocity=30 time=1\n",
      "note_on channel=9 note=51 velocity=35 time=5\n",
      "control_change channel=9 control=4 value=86 time=14\n",
      "control_change channel=9 control=4 value=82 time=44\n",
      "note_on channel=9 note=36 velocity=0 time=16\n",
      "note_on channel=9 note=38 velocity=0 time=14\n",
      "note_on channel=9 note=44 velocity=0 time=0\n",
      "note_on channel=9 note=51 velocity=0 time=5\n",
      "control_change channel=9 control=4 value=77 time=8\n",
      "note_on channel=9 note=51 velocity=36 time=10\n",
      "note_on channel=9 note=38 velocity=26 time=11\n",
      "control_change channel=9 control=4 value=74 time=8\n",
      "control_change channel=9 control=4 value=44 time=22\n",
      "control_change channel=9 control=4 value=14 time=22\n",
      "control_change channel=9 control=4 value=0 time=10\n",
      "note_on channel=9 note=51 velocity=0 time=21\n",
      "control_change channel=9 control=4 value=14 time=1\n",
      "note_on channel=9 note=38 velocity=0 time=10\n",
      "control_change channel=9 control=4 value=29 time=11\n",
      "note_on channel=9 note=53 velocity=67 time=6\n",
      "note_on channel=9 note=44 velocity=100 time=2\n",
      "control_change channel=9 control=4 value=44 time=14\n",
      "control_change channel=9 control=4 value=59 time=22\n",
      "control_change channel=9 control=4 value=67 time=10\n",
      "control_change channel=9 control=4 value=78 time=22\n",
      "control_change channel=9 control=4 value=89 time=21\n",
      "control_change channel=9 control=4 value=90 time=2\n",
      "note_on channel=9 note=44 velocity=0 time=1\n",
      "note_on channel=9 note=53 velocity=0 time=0\n",
      "note_on channel=9 note=36 velocity=44 time=12\n",
      "control_change channel=9 control=4 value=86 time=30\n",
      "control_change channel=9 control=4 value=82 time=44\n",
      "note_on channel=9 note=36 velocity=0 time=19\n",
      "control_change channel=9 control=4 value=78 time=24\n",
      "note_on channel=9 note=38 velocity=80 time=11\n",
      "note_on channel=9 note=44 velocity=22 time=1\n",
      "note_on channel=9 note=51 velocity=45 time=9\n",
      "control_change channel=9 control=4 value=74 time=23\n",
      "control_change channel=9 control=4 value=73 time=4\n",
      "control_change channel=9 control=4 value=67 time=22\n",
      "control_change channel=9 control=4 value=60 time=22\n",
      "control_change channel=9 control=4 value=59 time=3\n",
      "note_on channel=9 note=38 velocity=0 time=9\n",
      "note_on channel=9 note=44 velocity=0 time=3\n",
      "note_on channel=9 note=51 velocity=0 time=7\n",
      "control_change channel=9 control=4 value=64 time=2\n",
      "note_on channel=9 note=38 velocity=31 time=21\n",
      "control_change channel=9 control=4 value=69 time=1\n",
      "note_on channel=9 note=51 velocity=23 time=3\n",
      "control_change channel=9 control=4 value=71 time=4\n",
      "control_change channel=9 control=4 value=78 time=22\n",
      "control_change channel=9 control=4 value=85 time=22\n",
      "control_change channel=9 control=4 value=90 time=13\n",
      "control_change channel=9 control=4 value=87 time=22\n",
      "note_on channel=9 note=38 velocity=0 time=6\n",
      "note_on channel=9 note=51 velocity=0 time=5\n",
      "control_change channel=9 control=4 value=84 time=10\n",
      "note_on channel=9 note=53 velocity=93 time=13\n",
      "control_change channel=9 control=4 value=80 time=9\n",
      "note_on channel=9 note=44 velocity=100 time=2\n",
      "control_change channel=9 control=4 value=77 time=20\n",
      "control_change channel=9 control=4 value=74 time=22\n",
      "control_change channel=9 control=4 value=70 time=21\n",
      "note_on channel=9 note=53 velocity=0 time=20\n",
      "control_change channel=9 control=4 value=67 time=2\n",
      "note_on channel=9 note=44 velocity=0 time=9\n",
      "note_on channel=9 note=37 velocity=72 time=7\n",
      "control_change channel=9 control=4 value=64 time=6\n",
      "control_change channel=9 control=4 value=60 time=22\n",
      "control_change channel=9 control=4 value=58 time=11\n",
      "control_change channel=9 control=4 value=29 time=22\n",
      "control_change channel=9 control=4 value=0 time=22\n",
      "note_on channel=9 note=37 velocity=0 time=10\n",
      "control_change channel=9 control=4 value=17 time=12\n",
      "control_change channel=9 control=4 value=35 time=21\n",
      "note_on channel=9 note=51 velocity=32 time=4\n",
      "note_on channel=9 note=36 velocity=44 time=13\n",
      "control_change channel=9 control=4 value=53 time=5\n",
      "control_change channel=9 control=4 value=71 time=22\n",
      "control_change channel=9 control=4 value=77 time=7\n",
      "control_change channel=9 control=4 value=83 time=22\n",
      "control_change channel=9 control=4 value=90 time=22\n",
      "note_on channel=9 note=51 velocity=0 time=2\n",
      "note_on channel=9 note=36 velocity=0 time=14\n",
      "control_change channel=9 control=4 value=87 time=5\n",
      "note_on channel=9 note=51 velocity=34 time=8\n",
      "control_change channel=9 control=4 value=84 time=14\n",
      "control_change channel=9 control=4 value=80 time=22\n",
      "control_change channel=9 control=4 value=77 time=22\n",
      "control_change channel=9 control=4 value=74 time=21\n",
      "note_on channel=9 note=38 velocity=19 time=8\n",
      "note_on channel=9 note=51 velocity=0 time=7\n",
      "control_change channel=9 control=4 value=70 time=7\n",
      "control_change channel=9 control=4 value=67 time=22\n",
      "note_on channel=9 note=53 velocity=61 time=5\n",
      "note_on channel=9 note=44 velocity=102 time=1\n",
      "control_change channel=9 control=4 value=63 time=16\n",
      "control_change channel=9 control=4 value=60 time=17\n",
      "note_on channel=9 note=38 velocity=0 time=19\n",
      "control_change channel=9 control=4 value=64 time=24\n",
      "note_on channel=9 note=53 velocity=0 time=16\n",
      "note_on channel=9 note=44 velocity=0 time=2\n",
      "control_change channel=9 control=4 value=67 time=3\n",
      "note_on channel=9 note=36 velocity=48 time=14\n",
      "control_change channel=9 control=4 value=75 time=7\n",
      "control_change channel=9 control=4 value=84 time=22\n",
      "control_change channel=9 control=4 value=90 time=13\n",
      "control_change channel=9 control=4 value=86 time=22\n",
      "control_change channel=9 control=4 value=82 time=22\n",
      "note_on channel=9 note=36 velocity=0 time=7\n",
      "control_change channel=9 control=4 value=78 time=15\n",
      "note_on channel=9 note=37 velocity=72 time=16\n",
      "note_on channel=9 note=51 velocity=39 time=1\n",
      "note_on channel=9 note=44 velocity=22 time=2\n",
      "control_change channel=9 control=4 value=74 time=2\n",
      "control_change channel=9 control=4 value=70 time=22\n",
      "control_change channel=9 control=4 value=65 time=22\n",
      "control_change channel=9 control=4 value=61 time=22\n",
      "control_change channel=9 control=4 value=58 time=14\n",
      "note_on channel=9 note=37 velocity=0 time=8\n",
      "note_on channel=9 note=51 velocity=0 time=2\n",
      "note_on channel=9 note=44 velocity=0 time=1\n",
      "control_change channel=9 control=4 value=30 time=11\n",
      "note_on channel=9 note=51 velocity=32 time=10\n",
      "note_on channel=9 note=38 velocity=28 time=7\n",
      "control_change channel=9 control=4 value=2 time=5\n",
      "control_change channel=9 control=4 value=0 time=1\n",
      "control_change channel=9 control=4 value=15 time=22\n",
      "control_change channel=9 control=4 value=30 time=21\n",
      "control_change channel=9 control=4 value=46 time=22\n",
      "note_on channel=9 note=51 velocity=0 time=16\n",
      "control_change channel=9 control=4 value=61 time=6\n",
      "note_on channel=9 note=38 velocity=0 time=0\n",
      "control_change channel=9 control=4 value=76 time=22\n",
      "note_on channel=9 note=53 velocity=66 time=0\n",
      "control_change channel=9 control=4 value=78 time=1\n",
      "control_change channel=9 control=4 value=84 time=22\n",
      "note_on channel=9 note=44 velocity=97 time=0\n",
      "control_change channel=9 control=4 value=90 time=22\n",
      "control_change channel=9 control=4 value=85 time=43\n",
      "note_on channel=9 note=53 velocity=0 time=5\n",
      "note_on channel=9 note=44 velocity=0 time=24\n",
      "note_on channel=9 note=38 velocity=37 time=6\n",
      "control_change channel=9 control=4 value=79 time=9\n",
      "control_change channel=9 control=4 value=73 time=43\n",
      "control_change channel=9 control=4 value=68 time=34\n",
      "note_on channel=9 note=38 velocity=0 time=8\n",
      "control_change channel=9 control=4 value=54 time=13\n",
      "note_on channel=9 note=51 velocity=28 time=15\n",
      "note_on channel=9 note=36 velocity=36 time=1\n",
      "control_change channel=9 control=4 value=39 time=6\n",
      "control_change channel=9 control=4 value=31 time=10\n",
      "note_on channel=9 note=44 velocity=25 time=3\n",
      "note_on channel=9 note=38 velocity=17 time=4\n",
      "control_change channel=9 control=4 value=43 time=15\n",
      "control_change channel=9 control=4 value=56 time=22\n",
      "control_change channel=9 control=4 value=63 time=11\n",
      "note_on channel=9 note=36 velocity=0 time=21\n",
      "note_on channel=9 note=51 velocity=0 time=0\n",
      "control_change channel=9 control=4 value=74 time=1\n",
      "note_on channel=9 note=44 velocity=0 time=20\n",
      "control_change channel=9 control=4 value=86 time=2\n",
      "note_on channel=9 note=38 velocity=0 time=1\n",
      "note_on channel=9 note=51 velocity=31 time=3\n",
      "control_change channel=9 control=4 value=90 time=2\n",
      "note_on channel=9 note=38 velocity=13 time=7\n",
      "control_change channel=9 control=4 value=86 time=14\n",
      "control_change channel=9 control=4 value=81 time=22\n",
      "control_change channel=9 control=4 value=76 time=22\n",
      "control_change channel=9 control=4 value=71 time=22\n",
      "note_on channel=9 note=51 velocity=0 time=5\n",
      "note_on channel=9 note=38 velocity=0 time=9\n",
      "control_change channel=9 control=4 value=67 time=7\n",
      "note_on channel=9 note=53 velocity=69 time=6\n",
      "note_on channel=9 note=44 velocity=105 time=13\n",
      "control_change channel=9 control=4 value=62 time=3\n",
      "control_change channel=9 control=4 value=58 time=15\n",
      "control_change channel=9 control=4 value=30 time=21\n",
      "control_change channel=9 control=4 value=2 time=22\n",
      "control_change channel=9 control=4 value=0 time=2\n",
      "note_on channel=9 note=53 velocity=0 time=18\n",
      "control_change channel=9 control=4 value=14 time=3\n",
      "note_on channel=9 note=44 velocity=0 time=10\n",
      "note_on channel=9 note=36 velocity=41 time=7\n",
      "control_change channel=9 control=4 value=28 time=5\n",
      "control_change channel=9 control=4 value=43 time=22\n",
      "control_change channel=9 control=4 value=57 time=22\n",
      "control_change channel=9 control=4 value=72 time=21\n",
      "control_change channel=9 control=4 value=80 time=22\n",
      "note_on channel=9 note=36 velocity=0 time=1\n",
      "control_change channel=9 control=4 value=89 time=21\n",
      "control_change channel=9 control=4 value=90 time=0\n",
      "note_on channel=9 note=38 velocity=64 time=6\n",
      "note_on channel=9 note=51 velocity=39 time=10\n",
      "note_on channel=9 note=44 velocity=30 time=4\n",
      "control_change channel=9 control=4 value=87 time=2\n",
      "control_change channel=9 control=4 value=84 time=21\n",
      "control_change channel=9 control=4 value=81 time=22\n",
      "control_change channel=9 control=4 value=77 time=22\n",
      "note_on channel=9 note=38 velocity=0 time=13\n",
      "control_change channel=9 control=4 value=74 time=9\n",
      "note_on channel=9 note=51 velocity=0 time=0\n",
      "note_on channel=9 note=44 velocity=0 time=5\n",
      "note_on channel=9 note=51 velocity=31 time=15\n",
      "control_change channel=9 control=4 value=71 time=1\n",
      "note_on channel=9 note=38 velocity=21 time=11\n",
      "control_change channel=9 control=4 value=68 time=11\n",
      "control_change channel=9 control=4 value=65 time=15\n",
      "control_change channel=9 control=4 value=56 time=21\n",
      "control_change channel=9 control=4 value=46 time=22\n",
      "note_on channel=9 note=51 velocity=0 time=13\n",
      "control_change channel=9 control=4 value=36 time=7\n",
      "note_on channel=9 note=38 velocity=0 time=5\n",
      "control_change channel=9 control=4 value=45 time=17\n",
      "note_on channel=9 note=53 velocity=76 time=2\n",
      "note_on channel=9 note=44 velocity=102 time=1\n",
      "control_change channel=9 control=4 value=55 time=19\n",
      "control_change channel=9 control=4 value=64 time=22\n",
      "control_change channel=9 control=4 value=66 time=2\n",
      "control_change channel=9 control=4 value=76 time=22\n",
      "control_change channel=9 control=4 value=87 time=22\n",
      "control_change channel=9 control=4 value=90 time=4\n",
      "note_on channel=9 note=44 velocity=0 time=2\n",
      "note_on channel=9 note=53 velocity=0 time=0\n",
      "note_on channel=9 note=38 velocity=29 time=10\n",
      "control_change channel=9 control=4 value=86 time=10\n",
      "control_change channel=9 control=4 value=82 time=22\n",
      "control_change channel=9 control=4 value=78 time=22\n",
      "control_change channel=9 control=4 value=74 time=21\n",
      "note_on channel=9 note=38 velocity=0 time=18\n",
      "control_change channel=9 control=4 value=70 time=4\n",
      "control_change channel=9 control=4 value=66 time=22\n",
      "note_on channel=9 note=36 velocity=36 time=5\n",
      "note_on channel=9 note=44 velocity=27 time=6\n",
      "note_on channel=9 note=51 velocity=38 time=9\n",
      "control_change channel=9 control=4 value=62 time=2\n",
      "note_on channel=9 note=38 velocity=9 time=8\n",
      "control_change channel=9 control=4 value=58 time=13\n",
      "control_change channel=9 control=4 value=32 time=22\n",
      "control_change channel=9 control=4 value=6 time=22\n",
      "control_change channel=9 control=4 value=0 time=4\n",
      "note_on channel=9 note=36 velocity=0 time=7\n",
      "note_on channel=9 note=44 velocity=0 time=7\n",
      "control_change channel=9 control=4 value=17 time=8\n",
      "note_on channel=9 note=51 velocity=0 time=1\n",
      "note_on channel=9 note=38 velocity=0 time=10\n",
      "note_on channel=9 note=51 velocity=33 time=10\n",
      "control_change channel=9 control=4 value=34 time=1\n",
      "note_on channel=9 note=38 velocity=21 time=13\n",
      "control_change channel=9 control=4 value=52 time=8\n",
      "control_change channel=9 control=4 value=69 time=22\n",
      "control_change channel=9 control=4 value=78 time=10\n",
      "control_change channel=9 control=4 value=84 time=22\n",
      "note_on channel=9 note=51 velocity=0 time=18\n",
      "control_change channel=9 control=4 value=90 time=4\n",
      "note_on channel=9 note=44 velocity=100 time=8\n",
      "note_on channel=9 note=38 velocity=0 time=2\n",
      "note_on channel=9 note=53 velocity=71 time=9\n",
      "control_change channel=9 control=4 value=88 time=24\n",
      "control_change channel=9 control=4 value=85 time=44\n",
      "note_on channel=9 note=44 velocity=0 time=14\n",
      "note_on channel=9 note=53 velocity=0 time=11\n",
      "note_on channel=9 note=36 velocity=42 time=15\n",
      "control_change channel=9 control=4 value=83 time=3\n",
      "control_change channel=9 control=4 value=81 time=24\n",
      "control_change channel=9 control=4 value=73 time=21\n",
      "control_change channel=9 control=4 value=64 time=22\n",
      "control_change channel=9 control=4 value=63 time=1\n",
      "note_on channel=9 note=36 velocity=0 time=22\n",
      "note_on channel=9 note=44 velocity=25 time=21\n",
      "note_on channel=9 note=37 velocity=72 time=7\n",
      "note_on channel=9 note=51 velocity=45 time=6\n",
      "control_change channel=9 control=4 value=65 time=8\n",
      "control_change channel=9 control=4 value=73 time=22\n",
      "control_change channel=9 control=4 value=82 time=22\n",
      "control_change channel=9 control=4 value=90 time=20\n",
      "note_on channel=9 note=44 velocity=0 time=9\n",
      "note_on channel=9 note=37 velocity=0 time=7\n",
      "note_on channel=9 note=51 velocity=0 time=5\n",
      "control_change channel=9 control=4 value=86 time=1\n",
      "control_change channel=9 control=4 value=82 time=22\n",
      "note_on channel=9 note=51 velocity=31 time=0\n",
      "control_change channel=9 control=4 value=78 time=21\n",
      "control_change channel=9 control=4 value=73 time=22\n",
      "control_change channel=9 control=4 value=69 time=22\n",
      "control_change channel=9 control=4 value=65 time=22\n",
      "note_on channel=9 note=51 velocity=0 time=7\n",
      "note_on channel=9 note=44 velocity=100 time=13\n",
      "control_change channel=9 control=4 value=60 time=1\n",
      "control_change channel=9 control=4 value=58 time=9\n",
      "note_on channel=9 note=53 velocity=106 time=7\n",
      "control_change channel=9 control=4 value=32 time=15\n",
      "control_change channel=9 control=4 value=5 time=22\n",
      "control_change channel=9 control=4 value=0 time=2\n",
      "control_change channel=9 control=4 value=16 time=22\n",
      "note_on channel=9 note=44 velocity=0 time=16\n",
      "control_change channel=9 control=4 value=32 time=6\n",
      "note_on channel=9 note=53 velocity=0 time=11\n",
      "control_change channel=9 control=4 value=48 time=11\n",
      "control_change channel=9 control=4 value=64 time=21\n",
      "control_change channel=9 control=4 value=78 time=19\n",
      "control_change channel=9 control=4 value=84 time=22\n",
      "control_change channel=9 control=4 value=90 time=22\n",
      "control_change channel=9 control=4 value=88 time=43\n",
      "note_on channel=9 note=36 velocity=36 time=7\n",
      "note_on channel=9 note=51 velocity=43 time=4\n",
      "control_change channel=9 control=4 value=85 time=33\n",
      "control_change channel=9 control=4 value=83 time=43\n",
      "note_on channel=9 note=36 velocity=0 time=14\n",
      "note_on channel=9 note=51 velocity=0 time=4\n",
      "control_change channel=9 control=4 value=81 time=4\n",
      "note_on channel=9 note=51 velocity=38 time=16\n",
      "control_change channel=9 control=4 value=74 time=6\n",
      "note_on channel=9 note=45 velocity=95 time=11\n",
      "control_change channel=9 control=4 value=67 time=11\n",
      "control_change channel=9 control=4 value=64 time=8\n",
      "control_change channel=9 control=4 value=67 time=44\n",
      "note_on channel=9 note=51 velocity=0 time=14\n",
      "control_change channel=9 control=4 value=69 time=5\n",
      "note_on channel=9 note=44 velocity=102 time=11\n",
      "note_on channel=9 note=45 velocity=0 time=1\n",
      "note_on channel=9 note=51 velocity=57 time=8\n",
      "control_change channel=9 control=4 value=77 time=1\n",
      "control_change channel=9 control=4 value=86 time=22\n",
      "control_change channel=9 control=4 value=90 time=9\n",
      "control_change channel=9 control=4 value=87 time=22\n",
      "control_change channel=9 control=4 value=83 time=21\n",
      "note_on channel=9 note=44 velocity=0 time=11\n",
      "note_on channel=9 note=51 velocity=0 time=7\n",
      "control_change channel=9 control=4 value=80 time=4\n",
      "control_change channel=9 control=4 value=76 time=22\n",
      "note_on channel=9 note=36 velocity=45 time=2\n",
      "control_change channel=9 control=4 value=72 time=20\n",
      "control_change channel=9 control=4 value=69 time=21\n",
      "control_change channel=9 control=4 value=65 time=22\n",
      "control_change channel=9 control=4 value=62 time=22\n",
      "note_on channel=9 note=36 velocity=0 time=8\n",
      "control_change channel=9 control=4 value=58 time=11\n",
      "note_on channel=9 note=43 velocity=104 time=10\n",
      "control_change channel=9 control=4 value=33 time=11\n",
      "note_on channel=9 note=51 velocity=38 time=0\n",
      "control_change channel=9 control=4 value=7 time=22\n",
      "control_change channel=9 control=4 value=0 time=4\n",
      "control_change channel=9 control=4 value=16 time=22\n",
      "control_change channel=9 control=4 value=32 time=22\n",
      "note_on channel=9 note=43 velocity=0 time=13\n",
      "control_change channel=9 control=4 value=48 time=9\n",
      "note_on channel=9 note=51 velocity=0 time=2\n",
      "control_change channel=9 control=4 value=65 time=19\n",
      "note_on channel=9 note=51 velocity=43 time=0\n",
      "control_change channel=9 control=4 value=76 time=15\n",
      "control_change channel=9 control=4 value=83 time=22\n",
      "control_change channel=9 control=4 value=90 time=21\n",
      "note_on channel=9 note=51 velocity=0 time=36\n",
      "control_change channel=9 control=4 value=87 time=8\n",
      "note_on channel=9 note=44 velocity=97 time=15\n",
      "note_on channel=9 note=53 velocity=73 time=11\n",
      "control_change channel=9 control=4 value=84 time=17\n",
      "control_change channel=9 control=4 value=81 time=44\n",
      "control_change channel=9 control=4 value=79 time=20\n",
      "note_on channel=9 note=44 velocity=0 time=3\n",
      "note_on channel=9 note=53 velocity=0 time=10\n",
      "control_change channel=9 control=4 value=65 time=9\n",
      "note_on channel=9 note=36 velocity=36 time=9\n",
      "control_change channel=9 control=4 value=51 time=13\n",
      "control_change channel=9 control=4 value=42 time=13\n",
      "control_change channel=9 control=4 value=51 time=22\n",
      "control_change channel=9 control=4 value=60 time=21\n",
      "control_change channel=9 control=4 value=70 time=22\n",
      "note_on channel=9 note=36 velocity=0 time=2\n",
      "control_change channel=9 control=4 value=72 time=2\n",
      "note_on channel=9 note=44 velocity=25 time=18\n",
      "note_on channel=9 note=55 velocity=61 time=2\n",
      "note_on channel=9 note=36 velocity=40 time=1\n",
      "control_change channel=9 control=4 value=79 time=1\n",
      "control_change channel=9 control=4 value=87 time=22\n",
      "note_on channel=9 note=51 velocity=36 time=4\n",
      "control_change channel=9 control=4 value=90 time=2\n",
      "control_change channel=9 control=4 value=86 time=21\n",
      "control_change channel=9 control=4 value=82 time=22\n",
      "note_on channel=9 note=44 velocity=0 time=19\n",
      "note_on channel=9 note=36 velocity=0 time=1\n",
      "note_on channel=9 note=55 velocity=0 time=0\n",
      "control_change channel=9 control=4 value=78 time=2\n",
      "control_change channel=9 control=4 value=74 time=22\n",
      "note_on channel=9 note=51 velocity=0 time=4\n",
      "control_change channel=9 control=4 value=70 time=17\n",
      "note_on channel=9 note=51 velocity=38 time=0\n",
      "control_change channel=9 control=4 value=66 time=22\n",
      "control_change channel=9 control=4 value=62 time=22\n",
      "control_change channel=9 control=4 value=58 time=22\n",
      "control_change channel=9 control=4 value=32 time=21\n",
      "note_on channel=9 note=51 velocity=0 time=7\n",
      "note_on channel=9 note=44 velocity=97 time=14\n",
      "control_change channel=9 control=4 value=6 time=1\n",
      "control_change channel=9 control=4 value=0 time=5\n",
      "note_on channel=9 note=53 velocity=82 time=12\n",
      "control_change channel=9 control=4 value=16 time=9\n",
      "control_change channel=9 control=4 value=33 time=22\n",
      "control_change channel=9 control=4 value=50 time=22\n",
      "control_change channel=9 control=4 value=66 time=22\n",
      "note_on channel=9 note=44 velocity=0 time=0\n",
      "control_change channel=9 control=4 value=78 time=14\n",
      "note_on channel=9 note=53 velocity=0 time=5\n",
      "note_on channel=9 note=36 velocity=44 time=8\n",
      "control_change channel=9 control=4 value=84 time=7\n",
      "control_change channel=9 control=4 value=90 time=24\n",
      "control_change channel=9 control=4 value=88 time=43\n",
      "note_on channel=9 note=36 velocity=0 time=20\n",
      "note_on channel=9 note=44 velocity=35 time=22\n",
      "control_change channel=9 control=4 value=86 time=2\n",
      "note_on channel=9 note=38 velocity=84 time=5\n",
      "note_on channel=9 note=51 velocity=37 time=10\n",
      "control_change channel=9 control=4 value=84 time=28\n",
      "control_change channel=9 control=4 value=82 time=28\n",
      "note_on channel=9 note=44 velocity=0 time=20\n",
      "control_change channel=9 control=4 value=73 time=1\n",
      "note_on channel=9 note=38 velocity=0 time=7\n",
      "note_on channel=9 note=51 velocity=0 time=9\n",
      "control_change channel=9 control=4 value=63 time=6\n",
      "note_on channel=9 note=51 velocity=35 time=15\n",
      "control_change channel=9 control=4 value=53 time=7\n",
      "control_change channel=9 control=4 value=52 time=3\n",
      "control_change channel=9 control=4 value=57 time=22\n",
      "control_change channel=9 control=4 value=63 time=21\n",
      "control_change channel=9 control=4 value=66 time=10\n",
      "control_change channel=9 control=4 value=74 time=22\n",
      "note_on channel=9 note=51 velocity=0 time=8\n",
      "control_change channel=9 control=4 value=83 time=14\n",
      "control_change channel=9 control=4 value=90 time=14\n",
      "note_on channel=9 note=44 velocity=100 time=0\n",
      "note_on channel=9 note=53 velocity=68 time=5\n",
      "control_change channel=9 control=4 value=85 time=17\n",
      "control_change channel=9 control=4 value=80 time=22\n",
      "control_change channel=9 control=4 value=75 time=22\n",
      "control_change channel=9 control=4 value=70 time=21\n",
      "note_on channel=9 note=44 velocity=0 time=7\n",
      "note_on channel=9 note=53 velocity=0 time=4\n",
      "note_on channel=9 note=36 velocity=46 time=8\n",
      "control_change channel=9 control=4 value=65 time=3\n",
      "control_change channel=9 control=4 value=60 time=22\n",
      "control_change channel=9 control=4 value=57 time=9\n",
      "control_change channel=9 control=4 value=30 time=21\n",
      "control_change channel=9 control=4 value=3 time=22\n",
      "control_change channel=9 control=4 value=0 time=3\n",
      "note_on channel=9 note=36 velocity=0 time=13\n",
      "control_change channel=9 control=4 value=15 time=9\n",
      "control_change channel=9 control=4 value=31 time=22\n",
      "note_on channel=9 note=44 velocity=17 time=4\n",
      "note_on channel=9 note=51 velocity=42 time=0\n",
      "control_change channel=9 control=4 value=46 time=17\n",
      "control_change channel=9 control=4 value=62 time=22\n",
      "control_change channel=9 control=4 value=76 time=19\n",
      "control_change channel=9 control=4 value=83 time=22\n",
      "note_on channel=9 note=44 velocity=0 time=13\n",
      "note_on channel=9 note=51 velocity=0 time=0\n",
      "control_change channel=9 control=4 value=90 time=8\n",
      "note_on channel=9 note=45 velocity=108 time=3\n",
      "note_on channel=9 note=53 velocity=42 time=9\n",
      "control_change channel=9 control=4 value=87 time=10\n",
      "control_change channel=9 control=4 value=83 time=22\n",
      "control_change channel=9 control=4 value=80 time=22\n",
      "control_change channel=9 control=4 value=76 time=21\n",
      "note_on channel=9 note=45 velocity=0 time=9\n",
      "note_on channel=9 note=53 velocity=0 time=10\n",
      "control_change channel=9 control=4 value=73 time=3\n",
      "control_change channel=9 control=4 value=69 time=22\n",
      "note_on channel=9 note=53 velocity=71 time=5\n",
      "note_on channel=9 note=44 velocity=102 time=11\n",
      "control_change channel=9 control=4 value=66 time=6\n",
      "control_change channel=9 control=4 value=62 time=21\n",
      "control_change channel=9 control=4 value=59 time=22\n",
      "control_change channel=9 control=4 value=58 time=2\n",
      "note_on channel=9 note=36 velocity=46 time=19\n",
      "control_change channel=9 control=4 value=50 time=2\n",
      "note_on channel=9 note=53 velocity=0 time=11\n",
      "control_change channel=9 control=4 value=41 time=11\n",
      "control_change channel=9 control=4 value=42 time=0\n",
      "note_on channel=9 note=44 velocity=0 time=0\n",
      "control_change channel=9 control=4 value=53 time=23\n",
      "control_change channel=9 control=4 value=65 time=22\n",
      "control_change channel=9 control=4 value=70 time=7\n",
      "note_on channel=9 note=36 velocity=0 time=18\n",
      "control_change channel=9 control=4 value=78 time=4\n",
      "control_change channel=9 control=4 value=87 time=22\n",
      "control_change channel=9 control=4 value=90 time=7\n",
      "control_change channel=9 control=4 value=86 time=22\n",
      "note_on channel=9 note=53 velocity=49 time=2\n",
      "note_on channel=9 note=43 velocity=127 time=13\n",
      "control_change channel=9 control=4 value=81 time=7\n",
      "control_change channel=9 control=4 value=77 time=21\n",
      "control_change channel=9 control=4 value=72 time=22\n",
      "control_change channel=9 control=4 value=68 time=22\n",
      "note_on channel=9 note=53 velocity=0 time=9\n",
      "control_change channel=9 control=4 value=63 time=13\n",
      "note_on channel=9 note=43 velocity=0 time=0\n",
      "note_on channel=9 note=51 velocity=32 time=18\n",
      "control_change channel=9 control=4 value=58 time=3\n",
      "control_change channel=9 control=4 value=59 time=0\n",
      "control_change channel=9 control=4 value=33 time=22\n",
      "control_change channel=9 control=4 value=7 time=22\n",
      "control_change channel=9 control=4 value=0 time=6\n",
      "control_change channel=9 control=4 value=14 time=21\n",
      "note_on channel=9 note=51 velocity=0 time=19\n",
      "control_change channel=9 control=4 value=29 time=3\n",
      "note_on channel=9 note=44 velocity=97 time=11\n",
      "control_change channel=9 control=4 value=43 time=11\n",
      "note_on channel=9 note=53 velocity=62 time=8\n",
      "control_change channel=9 control=4 value=58 time=14\n",
      "control_change channel=9 control=4 value=72 time=21\n",
      "control_change channel=9 control=4 value=73 time=0\n",
      "control_change channel=9 control=4 value=81 time=22\n",
      "note_on channel=9 note=44 velocity=0 time=17\n",
      "control_change channel=9 control=4 value=90 time=5\n",
      "note_on channel=9 note=53 velocity=0 time=15\n",
      "control_change channel=9 control=4 value=87 time=28\n",
      "note_on channel=9 note=40 velocity=91 time=9\n",
      "control_change channel=9 control=4 value=84 time=35\n",
      "control_change channel=9 control=4 value=81 time=43\n",
      "note_on channel=9 note=40 velocity=0 time=15\n",
      "control_change channel=9 control=4 value=79 time=6\n",
      "note_on channel=9 note=51 velocity=37 time=20\n",
      "control_change channel=9 control=4 value=72 time=1\n",
      "note_on channel=9 note=36 velocity=47 time=3\n",
      "control_change channel=9 control=4 value=65 time=19\n",
      "control_change channel=9 control=4 value=64 time=3\n",
      "control_change channel=9 control=4 value=57 time=22\n",
      "control_change channel=9 control=4 value=49 time=22\n",
      "control_change channel=9 control=4 value=48 time=2\n",
      "note_on channel=9 note=51 velocity=0 time=21\n",
      "control_change channel=9 control=4 value=61 time=1\n",
      "note_on channel=9 note=36 velocity=0 time=4\n",
      "note_on channel=9 note=51 velocity=35 time=9\n",
      "control_change channel=9 control=4 value=75 time=9\n",
      "control_change channel=9 control=4 value=77 time=1\n",
      "control_change channel=9 control=4 value=83 time=22\n",
      "control_change channel=9 control=4 value=89 time=22\n",
      "control_change channel=9 control=4 value=90 time=1\n",
      "control_change channel=9 control=4 value=86 time=22\n",
      "note_on channel=9 note=51 velocity=0 time=16\n",
      "control_change channel=9 control=4 value=82 time=6\n",
      "note_on channel=9 note=44 velocity=97 time=12\n",
      "control_change channel=9 control=4 value=78 time=10\n",
      "note_on channel=9 note=53 velocity=55 time=11\n",
      "control_change channel=9 control=4 value=73 time=10\n",
      "control_change channel=9 control=4 value=69 time=22\n",
      "control_change channel=9 control=4 value=65 time=22\n",
      "note_on channel=9 note=44 velocity=0 time=18\n",
      "control_change channel=9 control=4 value=61 time=4\n",
      "control_change channel=9 control=4 value=58 time=11\n",
      "note_on channel=9 note=53 velocity=0 time=7\n",
      "control_change channel=9 control=4 value=30 time=15\n",
      "note_on channel=9 note=36 velocity=51 time=4\n",
      "control_change channel=9 control=4 value=0 time=18\n",
      "control_change channel=9 control=4 value=1 time=0\n",
      "control_change channel=9 control=4 value=13 time=21\n",
      "control_change channel=9 control=4 value=26 time=22\n",
      "control_change channel=9 control=4 value=39 time=22\n",
      "note_on channel=9 note=36 velocity=0 time=10\n",
      "control_change channel=9 control=4 value=52 time=12\n",
      "note_on channel=9 note=40 velocity=108 time=7\n",
      "control_change channel=9 control=4 value=65 time=14\n",
      "control_change channel=9 control=4 value=67 time=3\n",
      "note_on channel=9 note=53 velocity=33 time=8\n",
      "control_change channel=9 control=4 value=78 time=14\n",
      "control_change channel=9 control=4 value=89 time=22\n",
      "control_change channel=9 control=4 value=90 time=0\n",
      "control_change channel=9 control=4 value=86 time=23\n",
      "note_on channel=9 note=40 velocity=0 time=10\n",
      "control_change channel=9 control=4 value=82 time=12\n",
      "note_on channel=9 note=53 velocity=0 time=13\n",
      "control_change channel=9 control=4 value=77 time=9\n",
      "note_on channel=9 note=51 velocity=36 time=10\n",
      "control_change channel=9 control=4 value=73 time=11\n",
      "control_change channel=9 control=4 value=68 time=22\n",
      "control_change channel=9 control=4 value=64 time=22\n",
      "control_change channel=9 control=4 value=59 time=22\n",
      "note_on channel=9 note=51 velocity=0 time=16\n",
      "control_change channel=9 control=4 value=55 time=5\n",
      "note_on channel=9 note=44 velocity=97 time=0\n",
      "control_change channel=9 control=4 value=54 time=2\n",
      "note_on channel=9 note=53 velocity=70 time=19\n",
      "control_change channel=9 control=4 value=49 time=2\n",
      "control_change channel=9 control=4 value=44 time=22\n",
      "control_change channel=9 control=4 value=41 time=12\n",
      "control_change channel=9 control=4 value=50 time=22\n",
      "note_on channel=9 note=44 velocity=0 time=15\n",
      "control_change channel=9 control=4 value=60 time=6\n",
      "note_on channel=9 note=53 velocity=0 time=14\n",
      "control_change channel=9 control=4 value=68 time=2\n",
      "control_change channel=9 control=4 value=76 time=22\n",
      "note_on channel=9 note=45 velocity=77 time=4\n",
      "control_change channel=9 control=4 value=85 time=18\n",
      "control_change channel=9 control=4 value=90 time=11\n",
      "control_change channel=9 control=4 value=86 time=22\n",
      "control_change channel=9 control=4 value=82 time=22\n",
      "note_on channel=9 note=45 velocity=0 time=21\n",
      "control_change channel=9 control=4 value=78 time=1\n",
      "note_on channel=9 note=51 velocity=42 time=13\n",
      "control_change channel=9 control=4 value=74 time=8\n",
      "control_change channel=9 control=4 value=70 time=22\n",
      "control_change channel=9 control=4 value=66 time=22\n",
      "control_change channel=9 control=4 value=62 time=22\n",
      "control_change channel=9 control=4 value=59 time=11\n",
      "note_on channel=9 note=51 velocity=0 time=9\n",
      "control_change channel=9 control=4 value=32 time=13\n",
      "note_on channel=9 note=51 velocity=36 time=2\n",
      "control_change channel=9 control=4 value=5 time=20\n",
      "control_change channel=9 control=4 value=0 time=3\n",
      "control_change channel=9 control=4 value=14 time=21\n",
      "control_change channel=9 control=4 value=29 time=22\n",
      "control_change channel=9 control=4 value=44 time=22\n",
      "note_on channel=9 note=51 velocity=0 time=5\n",
      "control_change channel=9 control=4 value=59 time=17\n",
      "note_on channel=9 note=44 velocity=97 time=10\n",
      "note_on channel=9 note=53 velocity=69 time=3\n",
      "control_change channel=9 control=4 value=74 time=8\n",
      "control_change channel=9 control=4 value=77 time=5\n",
      "control_change channel=9 control=4 value=83 time=21\n",
      "control_change channel=9 control=4 value=90 time=22\n",
      "note_on channel=9 note=44 velocity=0 time=35\n",
      "note_on channel=9 note=53 velocity=0 time=2\n",
      "control_change channel=9 control=4 value=85 time=7\n",
      "note_on channel=9 note=36 velocity=47 time=18\n",
      "control_change channel=9 control=4 value=80 time=25\n",
      "control_change channel=9 control=4 value=75 time=44\n",
      "note_on channel=9 note=36 velocity=0 time=24\n",
      "control_change channel=9 control=4 value=70 time=13\n",
      "control_change channel=9 control=4 value=59 time=22\n",
      "note_on channel=9 note=53 velocity=37 time=16\n",
      "note_on channel=9 note=58 velocity=98 time=3\n",
      "control_change channel=9 control=4 value=48 time=3\n",
      "control_change channel=9 control=4 value=39 time=16\n",
      "control_change channel=9 control=4 value=50 time=22\n",
      "control_change channel=9 control=4 value=62 time=21\n",
      "control_change channel=9 control=4 value=69 time=12\n",
      "note_on channel=9 note=53 velocity=0 time=17\n",
      "note_on channel=9 note=58 velocity=0 time=3\n",
      "control_change channel=9 control=4 value=78 time=2\n",
      "note_on channel=9 note=51 velocity=33 time=20\n",
      "control_change channel=9 control=4 value=88 time=1\n",
      "control_change channel=9 control=4 value=90 time=5\n",
      "control_change channel=9 control=4 value=86 time=22\n",
      "control_change channel=9 control=4 value=81 time=21\n",
      "control_change channel=9 control=4 value=76 time=22\n",
      "control_change channel=9 control=4 value=72 time=22\n",
      "note_on channel=9 note=51 velocity=0 time=1\n",
      "note_on channel=9 note=44 velocity=100 time=14\n",
      "control_change channel=9 control=4 value=67 time=7\n",
      "note_on channel=9 note=53 velocity=63 time=1\n",
      "control_change channel=9 control=4 value=62 time=20\n",
      "control_change channel=9 control=4 value=58 time=18\n",
      "control_change channel=9 control=4 value=30 time=21\n",
      "control_change channel=9 control=4 value=2 time=22\n",
      "control_change channel=9 control=4 value=0 time=2\n",
      "note_on channel=9 note=44 velocity=0 time=3\n",
      "note_on channel=9 note=53 velocity=0 time=8\n",
      "control_change channel=9 control=4 value=15 time=10\n",
      "note_on channel=9 note=36 velocity=34 time=20\n",
      "control_change channel=9 control=4 value=30 time=2\n",
      "control_change channel=9 control=4 value=46 time=22\n",
      "control_change channel=9 control=4 value=61 time=22\n",
      "control_change channel=9 control=4 value=77 time=21\n",
      "control_change channel=9 control=4 value=78 time=0\n",
      "control_change channel=9 control=4 value=84 time=24\n",
      "note_on channel=9 note=36 velocity=0 time=2\n",
      "note_on channel=9 note=44 velocity=27 time=3\n",
      "control_change channel=9 control=4 value=90 time=16\n",
      "note_on channel=9 note=51 velocity=38 time=13\n",
      "note_on channel=9 note=36 velocity=44 time=1\n",
      "control_change channel=9 control=4 value=87 time=30\n",
      "note_on channel=9 note=44 velocity=0 time=34\n",
      "control_change channel=9 control=4 value=83 time=9\n",
      "note_on channel=9 note=51 velocity=0 time=20\n",
      "note_on channel=9 note=36 velocity=0 time=1\n",
      "note_on channel=9 note=51 velocity=31 time=11\n",
      "control_change channel=9 control=4 value=79 time=12\n",
      "control_change channel=9 control=4 value=78 time=6\n",
      "control_change channel=9 control=4 value=63 time=21\n",
      "control_change channel=9 control=4 value=48 time=22\n",
      "control_change channel=9 control=4 value=38 time=15\n",
      "note_on channel=9 note=51 velocity=0 time=18\n",
      "control_change channel=9 control=4 value=31 time=3\n",
      "note_on channel=9 note=44 velocity=97 time=6\n",
      "note_on channel=9 note=53 velocity=73 time=15\n",
      "control_change channel=9 control=4 value=23 time=1\n",
      "control_change channel=9 control=4 value=44 time=22\n",
      "control_change channel=9 control=4 value=65 time=22\n",
      "control_change channel=9 control=4 value=68 time=3\n",
      "control_change channel=9 control=4 value=78 time=21\n",
      "note_on channel=9 note=44 velocity=0 time=10\n",
      "control_change channel=9 control=4 value=88 time=11\n",
      "control_change channel=9 control=4 value=90 time=4\n",
      "note_on channel=9 note=53 velocity=0 time=0\n",
      "note_on channel=9 note=36 velocity=49 time=20\n",
      "control_change channel=9 control=4 value=86 time=2\n",
      "control_change channel=9 control=4 value=82 time=21\n",
      "control_change channel=9 control=4 value=78 time=22\n",
      "control_change channel=9 control=4 value=74 time=22\n",
      "control_change channel=9 control=4 value=70 time=22\n",
      "note_on channel=9 note=36 velocity=0 time=4\n",
      "control_change channel=9 control=4 value=65 time=17\n",
      "note_on channel=9 note=37 velocity=85 time=17\n",
      "control_change channel=9 control=4 value=61 time=5\n",
      "note_on channel=9 note=53 velocity=39 time=0\n",
      "control_change channel=9 control=4 value=59 time=9\n",
      "control_change channel=9 control=4 value=33 time=22\n",
      "control_change channel=9 control=4 value=6 time=21\n",
      "control_change channel=9 control=4 value=0 time=5\n",
      "control_change channel=9 control=4 value=14 time=22\n",
      "note_on channel=9 note=37 velocity=0 time=9\n",
      "note_on channel=9 note=53 velocity=0 time=6\n",
      "control_change channel=9 control=4 value=28 time=6\n",
      "note_on channel=9 note=51 velocity=32 time=11\n",
      "control_change channel=9 control=4 value=43 time=11\n",
      "control_change channel=9 control=4 value=57 time=22\n",
      "control_change channel=9 control=4 value=71 time=19\n",
      "control_change channel=9 control=4 value=80 time=21\n",
      "note_on channel=9 note=51 velocity=0 time=21\n",
      "control_change channel=9 control=4 value=90 time=1\n",
      "control_change channel=9 control=4 value=87 time=22\n",
      "note_on channel=9 note=44 velocity=95 time=0\n",
      "note_on channel=9 note=53 velocity=75 time=13\n",
      "control_change channel=9 control=4 value=84 time=9\n",
      "control_change channel=9 control=4 value=80 time=21\n",
      "control_change channel=9 control=4 value=77 time=22\n",
      "control_change channel=9 control=4 value=74 time=22\n",
      "note_on channel=9 note=44 velocity=0 time=6\n",
      "note_on channel=9 note=53 velocity=0 time=13\n",
      "control_change channel=9 control=4 value=70 time=3\n",
      "note_on channel=9 note=36 velocity=53 time=16\n",
      "control_change channel=9 control=4 value=67 time=5\n",
      "control_change channel=9 control=4 value=64 time=22\n",
      "control_change channel=9 control=4 value=61 time=13\n",
      "control_change channel=9 control=4 value=56 time=22\n",
      "control_change channel=9 control=4 value=51 time=22\n",
      "note_on channel=9 note=36 velocity=0 time=10\n",
      "control_change channel=9 control=4 value=47 time=6\n",
      "note_on channel=9 note=44 velocity=30 time=15\n",
      "control_change channel=9 control=4 value=60 time=6\n",
      "note_on channel=9 note=51 velocity=36 time=14\n",
      "control_change channel=9 control=4 value=73 time=8\n",
      "control_change channel=9 control=4 value=74 time=0\n",
      "control_change channel=9 control=4 value=81 time=22\n",
      "control_change channel=9 control=4 value=89 time=22\n",
      "control_change channel=9 control=4 value=90 time=3\n",
      "note_on channel=9 note=44 velocity=0 time=20\n",
      "control_change channel=9 control=4 value=86 time=1\n",
      "note_on channel=9 note=51 velocity=0 time=17\n",
      "note_on channel=9 note=45 velocity=112 time=4\n",
      "control_change channel=9 control=4 value=81 time=1\n",
      "control_change channel=9 control=4 value=77 time=22\n",
      "control_change channel=9 control=4 value=72 time=22\n",
      "control_change channel=9 control=4 value=68 time=21\n",
      "control_change channel=9 control=4 value=63 time=22\n",
      "note_on channel=9 note=45 velocity=0 time=6\n",
      "control_change channel=9 control=4 value=58 time=16\n",
      "note_on channel=9 note=53 velocity=65 time=15\n",
      "note_on channel=9 note=44 velocity=100 time=1\n",
      "control_change channel=9 control=4 value=31 time=6\n",
      "control_change channel=9 control=4 value=3 time=21\n",
      "control_change channel=9 control=4 value=0 time=3\n",
      "control_change channel=9 control=4 value=14 time=22\n",
      "control_change channel=9 control=4 value=29 time=22\n",
      "note_on channel=9 note=44 velocity=0 time=19\n",
      "note_on channel=9 note=53 velocity=0 time=0\n",
      "control_change channel=9 control=4 value=44 time=2\n",
      "control_change channel=9 control=4 value=58 time=22\n",
      "note_on channel=9 note=36 velocity=48 time=1\n",
      "control_change channel=9 control=4 value=73 time=19\n",
      "control_change channel=9 control=4 value=81 time=22\n",
      "control_change channel=9 control=4 value=90 time=22\n",
      "note_on channel=9 note=36 velocity=0 time=31\n",
      "control_change channel=9 control=4 value=85 time=12\n",
      "note_on channel=9 note=44 velocity=20 time=0\n",
      "note_on channel=9 note=53 velocity=43 time=28\n",
      "note_on channel=9 note=43 velocity=100 time=2\n",
      "control_change channel=9 control=4 value=79 time=14\n",
      "control_change channel=9 control=4 value=73 time=43\n",
      "note_on channel=9 note=44 velocity=0 time=7\n",
      "note_on channel=9 note=53 velocity=0 time=27\n",
      "control_change channel=9 control=4 value=68 time=1\n",
      "note_on channel=9 note=43 velocity=0 time=2\n",
      "control_change channel=9 control=4 value=61 time=20\n",
      "note_on channel=9 note=51 velocity=33 time=6\n",
      "control_change channel=9 control=4 value=54 time=16\n",
      "control_change channel=9 control=4 value=52 time=3\n",
      "control_change channel=9 control=4 value=57 time=21\n",
      "control_change channel=9 control=4 value=62 time=22\n",
      "control_change channel=9 control=4 value=68 time=22\n",
      "note_on channel=9 note=51 velocity=0 time=10\n",
      "control_change channel=9 control=4 value=71 time=2\n",
      "note_on channel=9 note=44 velocity=102 time=5\n",
      "control_change channel=9 control=4 value=78 time=16\n",
      "note_on channel=9 note=53 velocity=71 time=0\n",
      "control_change channel=9 control=4 value=85 time=22\n",
      "control_change channel=9 control=4 value=90 time=13\n",
      "control_change channel=9 control=4 value=86 time=22\n",
      "control_change channel=9 control=4 value=82 time=22\n",
      "note_on channel=9 note=44 velocity=0 time=0\n",
      "note_on channel=9 note=53 velocity=0 time=15\n",
      "control_change channel=9 control=4 value=78 time=6\n",
      "note_on channel=9 note=38 velocity=90 time=19\n",
      "control_change channel=9 control=4 value=73 time=3\n",
      "control_change channel=9 control=4 value=69 time=22\n",
      "control_change channel=9 control=4 value=65 time=22\n",
      "control_change channel=9 control=4 value=60 time=21\n",
      "control_change channel=9 control=4 value=57 time=13\n",
      "note_on channel=9 note=44 velocity=22 time=7\n",
      "note_on channel=9 note=38 velocity=0 time=6\n",
      "control_change channel=9 control=4 value=30 time=9\n",
      "control_change channel=9 control=4 value=2 time=22\n",
      "note_on channel=9 note=51 velocity=40 time=0\n",
      "control_change channel=9 control=4 value=0 time=1\n",
      "control_change channel=9 control=4 value=15 time=22\n",
      "control_change channel=9 control=4 value=30 time=22\n",
      "note_on channel=9 note=44 velocity=0 time=12\n",
      "control_change channel=9 control=4 value=45 time=10\n",
      "control_change channel=9 control=4 value=60 time=21\n",
      "note_on channel=9 note=51 velocity=0 time=6\n",
      "note_on channel=9 note=51 velocity=39 time=11\n",
      "control_change channel=9 control=4 value=75 time=5\n",
      "control_change channel=9 control=4 value=78 time=3\n",
      "control_change channel=9 control=4 value=84 time=22\n",
      "control_change channel=9 control=4 value=90 time=21\n",
      "control_change channel=9 control=4 value=87 time=22\n",
      "control_change channel=9 control=4 value=83 time=22\n",
      "note_on channel=9 note=51 velocity=0 time=0\n",
      "note_on channel=9 note=44 velocity=97 time=1\n",
      "control_change channel=9 control=4 value=80 time=21\n",
      "note_on channel=9 note=53 velocity=70 time=13\n",
      "control_change channel=9 control=4 value=76 time=8\n",
      "control_change channel=9 control=4 value=72 time=22\n",
      "control_change channel=9 control=4 value=69 time=22\n",
      "note_on channel=9 note=44 velocity=0 time=7\n",
      "control_change channel=9 control=4 value=65 time=15\n",
      "note_on channel=9 note=53 velocity=0 time=20\n",
      "control_change channel=9 control=4 value=61 time=1\n",
      "note_on channel=9 note=36 velocity=48 time=4\n",
      "control_change channel=9 control=4 value=58 time=12\n",
      "control_change channel=9 control=4 value=50 time=22\n",
      "control_change channel=9 control=4 value=42 time=22\n",
      "control_change channel=9 control=4 value=40 time=3\n",
      "control_change channel=9 control=4 value=56 time=22\n",
      "note_on channel=9 note=36 velocity=0 time=12\n",
      "control_change channel=9 control=4 value=72 time=9\n",
      "note_on channel=9 note=44 velocity=17 time=0\n",
      "control_change channel=9 control=4 value=79 time=9\n",
      "note_on channel=9 note=40 velocity=93 time=21\n",
      "control_change channel=9 control=4 value=84 time=1\n",
      "note_on channel=9 note=51 velocity=45 time=10\n",
      "control_change channel=9 control=4 value=90 time=12\n",
      "control_change channel=9 control=4 value=86 time=21\n",
      "note_on channel=9 note=44 velocity=0 time=20\n",
      "control_change channel=9 control=4 value=82 time=2\n",
      "control_change channel=9 control=4 value=78 time=22\n",
      "note_on channel=9 note=40 velocity=0 time=6\n",
      "note_on channel=9 note=51 velocity=0 time=11\n",
      "control_change channel=9 control=4 value=74 time=5\n",
      "note_on channel=9 note=51 velocity=39 time=6\n",
      "control_change channel=9 control=4 value=70 time=15\n",
      "control_change channel=9 control=4 value=66 time=22\n",
      "control_change channel=9 control=4 value=62 time=22\n",
      "control_change channel=9 control=4 value=59 time=13\n",
      "control_change channel=9 control=4 value=36 time=22\n",
      "note_on channel=9 note=51 velocity=0 time=0\n",
      "note_on channel=9 note=44 velocity=97 time=10\n",
      "control_change channel=9 control=4 value=12 time=11\n",
      "note_on channel=9 note=53 velocity=72 time=10\n",
      "control_change channel=9 control=4 value=0 time=2\n",
      "control_change channel=9 control=4 value=14 time=22\n",
      "control_change channel=9 control=4 value=29 time=21\n",
      "control_change channel=9 control=4 value=43 time=22\n",
      "note_on channel=9 note=44 velocity=0 time=6\n",
      "control_change channel=9 control=4 value=58 time=16\n",
      "note_on channel=9 note=53 velocity=0 time=5\n",
      "control_change channel=9 control=4 value=73 time=17\n",
      "note_on channel=9 note=47 velocity=98 time=1\n",
      "control_change channel=9 control=4 value=81 time=20\n",
      "control_change channel=9 control=4 value=89 time=22\n",
      "control_change channel=9 control=4 value=90 time=0\n",
      "control_change channel=9 control=4 value=87 time=22\n",
      "control_change channel=9 control=4 value=83 time=22\n",
      "note_on channel=9 note=44 velocity=17 time=8\n",
      "note_on channel=9 note=47 velocity=0 time=0\n",
      "control_change channel=9 control=4 value=80 time=13\n",
      "control_change channel=9 control=4 value=76 time=22\n",
      "control_change channel=9 control=4 value=73 time=22\n",
      "control_change channel=9 control=4 value=69 time=22\n",
      "note_on channel=9 note=44 velocity=0 time=16\n",
      "control_change channel=9 control=4 value=66 time=5\n",
      "control_change channel=9 control=4 value=64 time=8\n",
      "note_on channel=9 note=43 velocity=88 time=17\n",
      "control_change channel=9 control=4 value=54 time=4\n",
      "control_change channel=9 control=4 value=43 time=22\n",
      "control_change channel=9 control=4 value=35 time=16\n",
      "control_change channel=9 control=4 value=47 time=22\n",
      "control_change channel=9 control=4 value=60 time=22\n",
      "note_on channel=9 note=43 velocity=0 time=7\n",
      "control_change channel=9 control=4 value=65 time=1\n",
      "note_on channel=9 note=44 velocity=95 time=21\n",
      "control_change channel=9 control=4 value=76 time=1\n",
      "note_on channel=9 note=51 velocity=127 time=2\n",
      "control_change channel=9 control=4 value=87 time=20\n",
      "control_change channel=9 control=4 value=90 time=6\n",
      "control_change channel=9 control=4 value=86 time=21\n",
      "control_change channel=9 control=4 value=81 time=22\n",
      "control_change channel=9 control=4 value=77 time=22\n",
      "note_on channel=9 note=44 velocity=0 time=0\n",
      "note_on channel=9 note=51 velocity=0 time=2\n",
      "control_change channel=9 control=4 value=72 time=20\n",
      "note_on channel=9 note=36 velocity=47 time=1\n",
      "control_change channel=9 control=4 value=67 time=20\n",
      "control_change channel=9 control=4 value=63 time=22\n",
      "control_change channel=9 control=4 value=58 time=22\n",
      "control_change channel=9 control=4 value=57 time=3\n",
      "control_change channel=9 control=4 value=30 time=22\n",
      "note_on channel=9 note=36 velocity=0 time=4\n",
      "note_on channel=9 note=44 velocity=25 time=15\n",
      "control_change channel=9 control=4 value=2 time=2\n",
      "control_change channel=9 control=4 value=0 time=2\n",
      "note_on channel=9 note=43 velocity=104 time=20\n",
      "control_change channel=9 control=4 value=14 time=1\n",
      "control_change channel=9 control=4 value=28 time=22\n",
      "control_change channel=9 control=4 value=42 time=22\n",
      "control_change channel=9 control=4 value=56 time=22\n",
      "note_on channel=9 note=44 velocity=0 time=4\n",
      "control_change channel=9 control=4 value=71 time=17\n",
      "control_change channel=9 control=4 value=72 time=2\n",
      "note_on channel=9 note=43 velocity=0 time=4\n",
      "control_change channel=9 control=4 value=80 time=18\n",
      "note_on channel=9 note=43 velocity=107 time=7\n",
      "control_change channel=9 control=4 value=89 time=14\n",
      "control_change channel=9 control=4 value=90 time=0\n",
      "control_change channel=9 control=4 value=87 time=24\n",
      "control_change channel=9 control=4 value=84 time=21\n",
      "control_change channel=9 control=4 value=81 time=22\n",
      "note_on channel=9 note=43 velocity=0 time=13\n",
      "note_on channel=9 note=44 velocity=95 time=6\n",
      "control_change channel=9 control=4 value=78 time=3\n",
      "note_on channel=9 note=43 velocity=71 time=7\n",
      "control_change channel=9 control=4 value=74 time=15\n",
      "control_change channel=9 control=4 value=71 time=21\n",
      "control_change channel=9 control=4 value=68 time=22\n",
      "control_change channel=9 control=4 value=65 time=22\n",
      "note_on channel=9 note=44 velocity=0 time=3\n",
      "control_change channel=9 control=4 value=63 time=4\n",
      "note_on channel=9 note=43 velocity=0 time=6\n",
      "note_on channel=9 note=59 velocity=44 time=34\n",
      "control_change channel=9 control=4 value=59 time=4\n",
      "note_on channel=9 note=36 velocity=34 time=1\n",
      "control_change channel=9 control=4 value=58 time=3\n",
      "control_change channel=9 control=4 value=64 time=22\n",
      "control_change channel=9 control=4 value=71 time=21\n",
      "control_change channel=9 control=4 value=73 time=5\n",
      "control_change channel=9 control=4 value=80 time=22\n",
      "note_on channel=9 note=59 velocity=0 time=15\n",
      "note_on channel=9 note=44 velocity=27 time=2\n",
      "note_on channel=9 note=36 velocity=0 time=3\n",
      "control_change channel=9 control=4 value=88 time=1\n",
      "control_change channel=9 control=4 value=90 time=5\n",
      "note_on channel=9 note=55 velocity=86 time=6\n",
      "note_on channel=9 note=36 velocity=43 time=3\n",
      "control_change channel=9 control=4 value=86 time=12\n",
      "control_change channel=9 control=4 value=81 time=22\n",
      "control_change channel=9 control=4 value=77 time=22\n",
      "note_on channel=9 note=44 velocity=0 time=19\n",
      "control_change channel=9 control=4 value=72 time=3\n",
      "note_on channel=9 note=55 velocity=0 time=13\n",
      "note_on channel=9 note=36 velocity=0 time=3\n",
      "control_change channel=9 control=4 value=68 time=5\n",
      "control_change channel=9 control=4 value=63 time=22\n",
      "control_change channel=9 control=4 value=59 time=22\n",
      "control_change channel=9 control=4 value=58 time=3\n",
      "control_change channel=9 control=4 value=36 time=22\n",
      "control_change channel=9 control=4 value=13 time=21\n",
      "control_change channel=9 control=4 value=0 time=12\n",
      "control_change channel=9 control=4 value=13 time=22\n",
      "note_on channel=9 note=44 velocity=97 time=3\n",
      "note_on channel=9 note=51 velocity=33 time=12\n",
      "control_change channel=9 control=4 value=26 time=6\n",
      "control_change channel=9 control=4 value=40 time=22\n",
      "control_change channel=9 control=4 value=53 time=22\n",
      "control_change channel=9 control=4 value=67 time=22\n",
      "control_change channel=9 control=4 value=69 time=3\n",
      "note_on channel=9 note=44 velocity=0 time=7\n",
      "note_on channel=9 note=51 velocity=0 time=11\n",
      "control_change channel=9 control=4 value=79 time=3\n",
      "control_change channel=9 control=4 value=89 time=22\n",
      "control_change channel=9 control=4 value=90 time=0\n",
      "note_on channel=9 note=36 velocity=46 time=22\n",
      "control_change channel=9 control=4 value=88 time=22\n",
      "control_change channel=9 control=4 value=86 time=43\n",
      "note_on channel=9 note=36 velocity=0 time=28\n",
      "control_change channel=9 control=4 value=84 time=16\n",
      "note_on channel=9 note=38 velocity=83 time=4\n",
      "control_change channel=9 control=4 value=82 time=20\n",
      "note_on channel=9 note=51 velocity=28 time=0\n",
      "control_change channel=9 control=4 value=78 time=22\n",
      "control_change channel=9 control=4 value=73 time=22\n",
      "control_change channel=9 control=4 value=69 time=16\n",
      "note_on channel=9 note=38 velocity=0 time=14\n",
      "control_change channel=9 control=4 value=72 time=7\n",
      "note_on channel=9 note=51 velocity=0 time=13\n",
      "control_change channel=9 control=4 value=75 time=9\n",
      "note_on channel=9 note=51 velocity=34 time=20\n",
      "control_change channel=9 control=4 value=78 time=2\n",
      "control_change channel=9 control=4 value=79 time=1\n",
      "control_change channel=9 control=4 value=84 time=22\n",
      "control_change channel=9 control=4 value=89 time=22\n",
      "control_change channel=9 control=4 value=90 time=1\n",
      "control_change channel=9 control=4 value=86 time=22\n",
      "note_on channel=9 note=44 velocity=90 time=4\n",
      "control_change channel=9 control=4 value=82 time=18\n",
      "note_on channel=9 note=51 velocity=0 time=1\n",
      "note_on channel=9 note=53 velocity=64 time=19\n",
      "control_change channel=9 control=4 value=78 time=2\n",
      "control_change channel=9 control=4 value=74 time=21\n",
      "control_change channel=9 control=4 value=69 time=22\n",
      "note_on channel=9 note=44 velocity=0 time=11\n",
      "control_change channel=9 control=4 value=65 time=11\n",
      "control_change channel=9 control=4 value=61 time=22\n",
      "note_on channel=9 note=53 velocity=0 time=4\n",
      "control_change channel=9 control=4 value=58 time=7\n",
      "note_on channel=9 note=36 velocity=44 time=3\n",
      "note_on channel=9 note=38 velocity=26 time=7\n",
      "control_change channel=9 control=4 value=34 time=12\n",
      "control_change channel=9 control=4 value=10 time=22\n",
      "control_change channel=9 control=4 value=0 time=8\n",
      "control_change channel=9 control=4 value=13 time=22\n",
      "control_change channel=9 control=4 value=26 time=22\n",
      "note_on channel=9 note=36 velocity=0 time=1\n",
      "note_on channel=9 note=38 velocity=0 time=6\n",
      "note_on channel=9 note=44 velocity=17 time=1\n",
      "control_change channel=9 control=4 value=39 time=14\n",
      "control_change channel=9 control=4 value=53 time=21\n",
      "note_on channel=9 note=51 velocity=35 time=1\n",
      "control_change channel=9 control=4 value=66 time=21\n",
      "control_change channel=9 control=4 value=78 time=19\n",
      "note_on channel=9 note=44 velocity=0 time=18\n",
      "control_change channel=9 control=4 value=84 time=4\n",
      "control_change channel=9 control=4 value=90 time=21\n",
      "note_on channel=9 note=51 velocity=0 time=10\n",
      "note_on channel=9 note=51 velocity=30 time=15\n",
      "control_change channel=9 control=4 value=87 time=19\n",
      "control_change channel=9 control=4 value=83 time=43\n",
      "note_on channel=9 note=51 velocity=0 time=32\n",
      "note_on channel=9 note=44 velocity=97 time=1\n",
      "control_change channel=9 control=4 value=79 time=11\n",
      "control_change channel=9 control=4 value=78 time=10\n",
      "note_on channel=9 note=51 velocity=73 time=1\n",
      "control_change channel=9 control=4 value=71 time=21\n",
      "control_change channel=9 control=4 value=63 time=22\n",
      "control_change channel=9 control=4 value=57 time=21\n",
      "note_on channel=9 note=44 velocity=0 time=8\n",
      "control_change channel=9 control=4 value=51 time=14\n",
      "control_change channel=9 control=4 value=49 time=7\n",
      "note_on channel=9 note=51 velocity=0 time=0\n",
      "control_change channel=9 control=4 value=61 time=22\n",
      "note_on channel=9 note=36 velocity=43 time=9\n",
      "control_change channel=9 control=4 value=74 time=13\n",
      "control_change channel=9 control=4 value=77 time=3\n",
      "control_change channel=9 control=4 value=83 time=22\n",
      "control_change channel=9 control=4 value=89 time=21\n",
      "control_change channel=9 control=4 value=90 time=2\n",
      "control_change channel=9 control=4 value=84 time=21\n",
      "note_on channel=9 note=36 velocity=0 time=12\n",
      "control_change channel=9 control=4 value=78 time=10\n",
      "note_on channel=9 note=51 velocity=46 time=20\n",
      "control_change channel=9 control=4 value=72 time=2\n",
      "note_on channel=9 note=38 velocity=84 time=11\n",
      "control_change channel=9 control=4 value=66 time=11\n",
      "control_change channel=9 control=4 value=59 time=21\n",
      "control_change channel=9 control=4 value=53 time=22\n",
      "control_change channel=9 control=4 value=47 time=22\n",
      "note_on channel=9 note=51 velocity=0 time=4\n",
      "control_change channel=9 control=4 value=42 time=12\n",
      "note_on channel=9 note=38 velocity=0 time=2\n",
      "control_change channel=9 control=4 value=24 time=20\n",
      "note_on channel=9 note=51 velocity=33 time=0\n",
      "control_change channel=9 control=4 value=5 time=21\n",
      "control_change channel=9 control=4 value=0 time=6\n",
      "control_change channel=9 control=4 value=12 time=22\n",
      "control_change channel=9 control=4 value=24 time=22\n",
      "control_change channel=9 control=4 value=36 time=21\n",
      "note_on channel=9 note=51 velocity=0 time=1\n",
      "note_on channel=9 note=44 velocity=97 time=19\n",
      "control_change channel=9 control=4 value=48 time=2\n",
      "note_on channel=9 note=51 velocity=81 time=0\n",
      "control_change channel=9 control=4 value=61 time=22\n",
      "control_change channel=9 control=4 value=68 time=13\n",
      "control_change channel=9 control=4 value=78 time=22\n",
      "control_change channel=9 control=4 value=89 time=22\n",
      "control_change channel=9 control=4 value=90 time=1\n",
      "note_on channel=9 note=44 velocity=0 time=11\n",
      "note_on channel=9 note=51 velocity=0 time=3\n",
      "note_on channel=9 note=38 velocity=34 time=24\n",
      "control_change channel=9 control=4 value=86 time=5\n",
      "control_change channel=9 control=4 value=81 time=44\n",
      "note_on channel=9 note=38 velocity=0 time=3\n",
      "note_on channel=9 note=38 velocity=24 time=0\n",
      "control_change channel=9 control=4 value=76 time=40\n",
      "note_on channel=9 note=38 velocity=0 time=2\n",
      "control_change channel=9 control=4 value=75 time=4\n",
      "control_change channel=9 control=4 value=63 time=22\n",
      "note_on channel=9 note=44 velocity=32 time=3\n",
      "note_on channel=9 note=51 velocity=42 time=12\n",
      "note_on channel=9 note=36 velocity=44 time=3\n",
      "control_change channel=9 control=4 value=50 time=4\n",
      "control_change channel=9 control=4 value=40 time=16\n",
      "control_change channel=9 control=4 value=34 time=21\n",
      "control_change channel=9 control=4 value=26 time=22\n",
      "control_change channel=9 control=4 value=27 time=0\n",
      "note_on channel=9 note=44 velocity=0 time=16\n",
      "control_change channel=9 control=4 value=47 time=6\n",
      "note_on channel=9 note=51 velocity=0 time=6\n",
      "note_on channel=9 note=36 velocity=0 time=3\n",
      "note_on channel=9 note=51 velocity=40 time=11\n",
      "control_change channel=9 control=4 value=68 time=2\n",
      "control_change channel=9 control=4 value=71 time=3\n",
      "control_change channel=9 control=4 value=79 time=21\n",
      "control_change channel=9 control=4 value=88 time=22\n",
      "control_change channel=9 control=4 value=90 time=3\n",
      "control_change channel=9 control=4 value=86 time=22\n",
      "note_on channel=9 note=51 velocity=0 time=21\n",
      "control_change channel=9 control=4 value=81 time=1\n",
      "control_change channel=9 control=4 value=76 time=21\n",
      "note_on channel=9 note=53 velocity=67 time=2\n",
      "note_on channel=9 note=44 velocity=97 time=2\n",
      "control_change channel=9 control=4 value=72 time=18\n",
      "control_change channel=9 control=4 value=67 time=22\n",
      "control_change channel=9 control=4 value=62 time=22\n",
      "control_change channel=9 control=4 value=58 time=15\n",
      "note_on channel=9 note=53 velocity=0 time=14\n",
      "note_on channel=9 note=44 velocity=0 time=3\n",
      "control_change channel=9 control=4 value=33 time=5\n",
      "control_change channel=9 control=4 value=8 time=22\n",
      "control_change channel=9 control=4 value=0 time=7\n",
      "note_on channel=9 note=36 velocity=46 time=8\n",
      "control_change channel=9 control=4 value=14 time=14\n",
      "control_change channel=9 control=4 value=29 time=22\n",
      "control_change channel=9 control=4 value=44 time=21\n",
      "control_change channel=9 control=4 value=59 time=22\n",
      "note_on channel=9 note=36 velocity=0 time=15\n",
      "control_change channel=9 control=4 value=74 time=7\n",
      "control_change channel=9 control=4 value=76 time=1\n",
      "note_on channel=9 note=51 velocity=45 time=14\n",
      "note_on channel=9 note=38 velocity=68 time=5\n",
      "control_change channel=9 control=4 value=83 time=5\n",
      "control_change channel=9 control=4 value=90 time=21\n",
      "control_change channel=9 control=4 value=86 time=44\n",
      "note_on channel=9 note=51 velocity=0 time=19\n",
      "note_on channel=9 note=38 velocity=0 time=5\n",
      "control_change channel=9 control=4 value=81 time=19\n",
      "note_on channel=9 note=51 velocity=35 time=0\n",
      "control_change channel=9 control=4 value=76 time=44\n",
      "control_change channel=9 control=4 value=71 time=35\n",
      "note_on channel=9 note=51 velocity=0 time=15\n",
      "control_change channel=9 control=4 value=63 time=6\n",
      "note_on channel=9 note=53 velocity=72 time=14\n",
      "note_on channel=9 note=44 velocity=97 time=1\n",
      "control_change channel=9 control=4 value=54 time=7\n",
      "control_change channel=9 control=4 value=45 time=20\n",
      "control_change channel=9 control=4 value=58 time=22\n",
      "control_change channel=9 control=4 value=72 time=22\n",
      "control_change channel=9 control=4 value=76 time=6\n",
      "note_on channel=9 note=44 velocity=0 time=16\n",
      "note_on channel=9 note=53 velocity=0 time=0\n",
      "control_change channel=9 control=4 value=82 time=6\n",
      "control_change channel=9 control=4 value=89 time=21\n",
      "control_change channel=9 control=4 value=90 time=2\n",
      "note_on channel=9 note=38 velocity=8 time=14\n",
      "note_on channel=9 note=36 velocity=49 time=5\n",
      "control_change channel=9 control=4 value=86 time=2\n",
      "control_change channel=9 control=4 value=82 time=22\n",
      "control_change channel=9 control=4 value=77 time=22\n",
      "control_change channel=9 control=4 value=73 time=22\n",
      "note_on channel=9 note=38 velocity=0 time=20\n",
      "control_change channel=9 control=4 value=69 time=1\n",
      "note_on channel=9 note=36 velocity=0 time=5\n",
      "note_on channel=9 note=44 velocity=25 time=7\n",
      "note_on channel=9 note=51 velocity=40 time=0\n",
      "control_change channel=9 control=4 value=64 time=10\n",
      "control_change channel=9 control=4 value=60 time=22\n",
      "control_change channel=9 control=4 value=58 time=7\n",
      "control_change channel=9 control=4 value=35 time=22\n",
      "control_change channel=9 control=4 value=11 time=22\n",
      "control_change channel=9 control=4 value=0 time=10\n",
      "note_on channel=9 note=44 velocity=0 time=1\n",
      "note_on channel=9 note=51 velocity=0 time=0\n",
      "control_change channel=9 control=4 value=13 time=21\n",
      "note_on channel=9 note=51 velocity=39 time=6\n",
      "note_on channel=9 note=38 velocity=48 time=14\n",
      "control_change channel=9 control=4 value=27 time=1\n",
      "control_change channel=9 control=4 value=40 time=22\n",
      "control_change channel=9 control=4 value=54 time=22\n",
      "control_change channel=9 control=4 value=66 time=17\n",
      "note_on channel=9 note=51 velocity=0 time=18\n",
      "control_change channel=9 control=4 value=77 time=4\n",
      "note_on channel=9 note=38 velocity=0 time=10\n",
      "control_change channel=9 control=4 value=89 time=12\n",
      "control_change channel=9 control=4 value=90 time=1\n",
      "note_on channel=9 note=44 velocity=97 time=0\n",
      "note_on channel=9 note=53 velocity=78 time=6\n",
      "control_change channel=9 control=4 value=85 time=38\n",
      "control_change channel=9 control=4 value=79 time=43\n",
      "note_on channel=9 note=44 velocity=0 time=7\n",
      "note_on channel=9 note=53 velocity=0 time=6\n",
      "control_change channel=9 control=4 value=73 time=31\n",
      "note_on channel=9 note=36 velocity=47 time=20\n",
      "control_change channel=9 control=4 value=68 time=16\n",
      "control_change channel=9 control=4 value=57 time=22\n",
      "control_change channel=9 control=4 value=45 time=21\n",
      "control_change channel=9 control=4 value=35 time=19\n",
      "note_on channel=9 note=44 velocity=17 time=2\n",
      "note_on channel=9 note=36 velocity=0 time=13\n",
      "control_change channel=9 control=4 value=47 time=7\n",
      "note_on channel=9 note=51 velocity=40 time=7\n",
      "note_on channel=9 note=37 velocity=71 time=11\n",
      "control_change channel=9 control=4 value=59 time=4\n",
      "control_change channel=9 control=4 value=71 time=22\n",
      "control_change channel=9 control=4 value=76 time=8\n",
      "control_change channel=9 control=4 value=82 time=22\n",
      "note_on channel=9 note=44 velocity=0 time=0\n",
      "control_change channel=9 control=4 value=89 time=22\n",
      "control_change channel=9 control=4 value=90 time=1\n",
      "note_on channel=9 note=51 velocity=0 time=3\n",
      "note_on channel=9 note=37 velocity=0 time=11\n",
      "control_change channel=9 control=4 value=86 time=8\n",
      "note_on channel=9 note=51 velocity=38 time=12\n",
      "control_change channel=9 control=4 value=82 time=10\n",
      "control_change channel=9 control=4 value=78 time=21\n",
      "control_change channel=9 control=4 value=74 time=22\n",
      "control_change channel=9 control=4 value=69 time=22\n",
      "note_on channel=9 note=51 velocity=0 time=19\n",
      "control_change channel=9 control=4 value=65 time=3\n",
      "note_on channel=9 note=44 velocity=105 time=14\n",
      "control_change channel=9 control=4 value=61 time=7\n",
      "note_on channel=9 note=53 velocity=70 time=0\n",
      "control_change channel=9 control=4 value=59 time=8\n",
      "control_change channel=9 control=4 value=36 time=21\n",
      "control_change channel=9 control=4 value=12 time=22\n",
      "control_change channel=9 control=4 value=0 time=10\n",
      "control_change channel=9 control=4 value=13 time=22\n",
      "note_on channel=9 note=44 velocity=0 time=4\n",
      "note_on channel=9 note=53 velocity=0 time=6\n",
      "note_on channel=9 note=38 velocity=34 time=7\n",
      "control_change channel=9 control=4 value=27 time=5\n",
      "control_change channel=9 control=4 value=41 time=22\n",
      "control_change channel=9 control=4 value=55 time=21\n",
      "note_on channel=9 note=38 velocity=0 time=20\n",
      "note_on channel=9 note=38 velocity=31 time=0\n",
      "control_change channel=9 control=4 value=69 time=2\n",
      "control_change channel=9 control=4 value=76 time=10\n",
      "note_on channel=9 note=38 velocity=0 time=14\n",
      "control_change channel=9 control=4 value=83 time=8\n",
      "control_change channel=9 control=4 value=90 time=22\n",
      "note_on channel=9 note=51 velocity=37 time=22\n",
      "note_on channel=9 note=36 velocity=43 time=11\n",
      "control_change channel=9 control=4 value=86 time=10\n",
      "control_change channel=9 control=4 value=82 time=44\n",
      "note_on channel=9 note=51 velocity=0 time=28\n",
      "note_on channel=9 note=38 velocity=20 time=6\n",
      "note_on channel=9 note=36 velocity=0 time=5\n",
      "control_change channel=9 control=4 value=78 time=4\n",
      "control_change channel=9 control=4 value=77 time=10\n",
      "note_on channel=9 note=51 velocity=24 time=5\n",
      "control_change channel=9 control=4 value=66 time=17\n",
      "control_change channel=9 control=4 value=55 time=22\n",
      "control_change channel=9 control=4 value=45 time=19\n",
      "note_on channel=9 note=38 velocity=0 time=12\n",
      "control_change channel=9 control=4 value=38 time=10\n",
      "note_on channel=9 note=51 velocity=0 time=14\n",
      "control_change channel=9 control=4 value=31 time=7\n",
      "control_change channel=9 control=4 value=30 time=3\n",
      "note_on channel=9 note=53 velocity=67 time=3\n",
      "note_on channel=9 note=44 velocity=100 time=2\n",
      "control_change channel=9 control=4 value=52 time=17\n",
      "control_change channel=9 control=4 value=75 time=22\n",
      "control_change channel=9 control=4 value=78 time=3\n",
      "control_change channel=9 control=4 value=84 time=21\n",
      "control_change channel=9 control=4 value=90 time=22\n",
      "note_on channel=9 note=53 velocity=0 time=6\n",
      "note_on channel=9 note=44 velocity=0 time=3\n",
      "control_change channel=9 control=4 value=86 time=13\n",
      "note_on channel=9 note=36 velocity=46 time=6\n",
      "control_change channel=9 control=4 value=81 time=16\n",
      "control_change channel=9 control=4 value=76 time=21\n",
      "control_change channel=9 control=4 value=72 time=22\n",
      "control_change channel=9 control=4 value=67 time=22\n",
      "note_on channel=9 note=36 velocity=0 time=14\n",
      "control_change channel=9 control=4 value=62 time=8\n",
      "note_on channel=9 note=38 velocity=64 time=12\n",
      "note_on channel=9 note=44 velocity=27 time=3\n",
      "control_change channel=9 control=4 value=58 time=2\n",
      "note_on channel=9 note=51 velocity=33 time=4\n",
      "control_change channel=9 control=4 value=32 time=18\n",
      "control_change channel=9 control=4 value=6 time=21\n",
      "control_change channel=9 control=4 value=0 time=5\n",
      "control_change channel=9 control=4 value=13 time=22\n",
      "note_on channel=9 note=38 velocity=0 time=19\n",
      "control_change channel=9 control=4 value=27 time=2\n",
      "note_on channel=9 note=44 velocity=0 time=0\n",
      "note_on channel=9 note=51 velocity=0 time=7\n",
      "control_change channel=9 control=4 value=41 time=15\n",
      "note_on channel=9 note=51 velocity=33 time=9\n",
      "control_change channel=9 control=4 value=54 time=13\n",
      "control_change channel=9 control=4 value=68 time=22\n",
      "control_change channel=9 control=4 value=76 time=11\n",
      "control_change channel=9 control=4 value=83 time=22\n",
      "control_change channel=9 control=4 value=90 time=22\n",
      "note_on channel=9 note=51 velocity=0 time=4\n",
      "note_on channel=9 note=44 velocity=100 time=16\n",
      "note_on channel=9 note=53 velocity=69 time=6\n",
      "control_change channel=9 control=4 value=86 time=17\n",
      "control_change channel=9 control=4 value=82 time=44\n",
      "note_on channel=9 note=44 velocity=0 time=26\n",
      "note_on channel=9 note=53 velocity=0 time=7\n",
      "control_change channel=9 control=4 value=78 time=10\n",
      "note_on channel=9 note=38 velocity=27 time=13\n",
      "control_change channel=9 control=4 value=76 time=2\n",
      "note_on channel=9 note=36 velocity=40 time=0\n",
      "control_change channel=9 control=4 value=61 time=21\n",
      "control_change channel=9 control=4 value=46 time=22\n",
      "control_change channel=9 control=4 value=37 time=13\n",
      "control_change channel=9 control=4 value=30 time=22\n",
      "note_on channel=9 note=38 velocity=0 time=14\n",
      "note_on channel=9 note=36 velocity=0 time=1\n",
      "control_change channel=9 control=4 value=22 time=7\n",
      "control_change channel=9 control=4 value=23 time=0\n",
      "note_on channel=9 note=44 velocity=22 time=9\n",
      "control_change channel=9 control=4 value=38 time=12\n",
      "note_on channel=9 note=51 velocity=35 time=2\n",
      "control_change channel=9 control=4 value=54 time=20\n",
      "control_change channel=9 control=4 value=65 time=15\n",
      "control_change channel=9 control=4 value=76 time=21\n",
      "control_change channel=9 control=4 value=87 time=22\n",
      "note_on channel=9 note=44 velocity=0 time=1\n",
      "control_change channel=9 control=4 value=90 time=5\n",
      "note_on channel=9 note=51 velocity=0 time=10\n",
      "control_change channel=9 control=4 value=86 time=12\n",
      "note_on channel=9 note=51 velocity=37 time=10\n",
      "control_change channel=9 control=4 value=82 time=12\n",
      "control_change channel=9 control=4 value=78 time=21\n",
      "control_change channel=9 control=4 value=74 time=22\n",
      "control_change channel=9 control=4 value=70 time=22\n",
      "note_on channel=9 note=51 velocity=0 time=17\n",
      "control_change channel=9 control=4 value=65 time=5\n",
      "note_on channel=9 note=44 velocity=105 time=15\n",
      "control_change channel=9 control=4 value=61 time=6\n",
      "note_on channel=9 note=53 velocity=75 time=0\n",
      "control_change channel=9 control=4 value=59 time=9\n",
      "control_change channel=9 control=4 value=36 time=22\n",
      "control_change channel=9 control=4 value=12 time=21\n",
      "control_change channel=9 control=4 value=0 time=11\n",
      "control_change channel=9 control=4 value=14 time=21\n",
      "note_on channel=9 note=44 velocity=0 time=3\n",
      "note_on channel=9 note=53 velocity=0 time=7\n",
      "control_change channel=9 control=4 value=28 time=12\n",
      "control_change channel=9 control=4 value=43 time=22\n",
      "note_on channel=9 note=36 velocity=43 time=10\n",
      "control_change channel=9 control=4 value=57 time=12\n",
      "control_change channel=9 control=4 value=71 time=21\n",
      "control_change channel=9 control=4 value=76 time=8\n",
      "control_change channel=9 control=4 value=83 time=21\n",
      "note_on channel=9 note=44 velocity=17 time=18\n",
      "control_change channel=9 control=4 value=90 time=4\n",
      "note_on channel=9 note=36 velocity=0 time=9\n",
      "note_on channel=9 note=38 velocity=61 time=24\n",
      "note_on channel=9 note=51 velocity=36 time=7\n",
      "control_change channel=9 control=4 value=86 time=4\n",
      "control_change channel=9 control=4 value=82 time=43\n",
      "note_on channel=9 note=44 velocity=0 time=3\n",
      "note_on channel=9 note=38 velocity=0 time=36\n",
      "control_change channel=9 control=4 value=77 time=5\n",
      "note_on channel=9 note=51 velocity=0 time=2\n",
      "control_change channel=9 control=4 value=75 time=14\n",
      "note_on channel=9 note=51 velocity=41 time=10\n",
      "control_change channel=9 control=4 value=64 time=11\n",
      "control_change channel=9 control=4 value=52 time=22\n",
      "control_change channel=9 control=4 value=42 time=19\n",
      "control_change channel=9 control=4 value=36 time=22\n",
      "note_on channel=9 note=51 velocity=0 time=19\n",
      "control_change channel=9 control=4 value=29 time=2\n",
      "note_on channel=9 note=44 velocity=100 time=4\n",
      "control_change channel=9 control=4 value=27 time=1\n",
      "note_on channel=9 note=53 velocity=95 time=15\n",
      "control_change channel=9 control=4 value=49 time=7\n",
      "control_change channel=9 control=4 value=72 time=21\n",
      "control_change channel=9 control=4 value=78 time=6\n",
      "control_change channel=9 control=4 value=84 time=22\n",
      "control_change channel=9 control=4 value=90 time=22\n",
      "note_on channel=9 note=44 velocity=0 time=0\n",
      "note_on channel=9 note=53 velocity=0 time=16\n",
      "control_change channel=9 control=4 value=86 time=5\n",
      "note_on channel=9 note=38 velocity=36 time=12\n",
      "control_change channel=9 control=4 value=81 time=10\n",
      "control_change channel=9 control=4 value=77 time=22\n",
      "control_change channel=9 control=4 value=72 time=22\n",
      "control_change channel=9 control=4 value=68 time=21\n",
      "note_on channel=9 note=38 velocity=0 time=19\n",
      "control_change channel=9 control=4 value=63 time=3\n",
      "note_on channel=9 note=44 velocity=27 time=8\n",
      "control_change channel=9 control=4 value=58 time=14\n",
      "note_on channel=9 note=36 velocity=38 time=1\n",
      "note_on channel=9 note=51 velocity=50 time=12\n",
      "control_change channel=9 control=4 value=33 time=9\n",
      "control_change channel=9 control=4 value=8 time=21\n",
      "control_change channel=9 control=4 value=0 time=6\n",
      "control_change channel=9 control=4 value=14 time=22\n",
      "note_on channel=9 note=44 velocity=0 time=9\n",
      "control_change channel=9 control=4 value=29 time=13\n",
      "note_on channel=9 note=36 velocity=0 time=2\n",
      "note_on channel=9 note=51 velocity=0 time=12\n",
      "control_change channel=9 control=4 value=44 time=7\n",
      "note_on channel=9 note=48 velocity=81 time=16\n",
      "control_change channel=9 control=4 value=59 time=6\n",
      "control_change channel=9 control=4 value=72 time=19\n",
      "control_change channel=9 control=4 value=80 time=22\n",
      "control_change channel=9 control=4 value=89 time=21\n",
      "control_change channel=9 control=4 value=90 time=0\n",
      "control_change channel=9 control=4 value=86 time=22\n",
      "note_on channel=9 note=48 velocity=0 time=3\n",
      "note_on channel=9 note=44 velocity=92 time=9\n",
      "control_change channel=9 control=4 value=81 time=10\n",
      "note_on channel=9 note=48 velocity=81 time=9\n",
      "control_change channel=9 control=4 value=76 time=13\n",
      "control_change channel=9 control=4 value=71 time=21\n",
      "control_change channel=9 control=4 value=67 time=22\n",
      "note_on channel=9 note=44 velocity=0 time=18\n",
      "control_change channel=9 control=4 value=62 time=4\n",
      "note_on channel=9 note=48 velocity=0 time=15\n",
      "control_change channel=9 control=4 value=57 time=7\n",
      "note_on channel=9 note=36 velocity=48 time=10\n",
      "control_change channel=9 control=4 value=52 time=11\n",
      "control_change channel=9 control=4 value=41 time=22\n",
      "control_change channel=9 control=4 value=29 time=22\n",
      "control_change channel=9 control=4 value=21 time=14\n",
      "control_change channel=9 control=4 value=37 time=22\n",
      "note_on channel=9 note=36 velocity=0 time=3\n",
      "note_on channel=9 note=44 velocity=30 time=3\n",
      "control_change channel=9 control=4 value=54 time=16\n",
      "note_on channel=9 note=45 velocity=94 time=18\n",
      "control_change channel=9 control=4 value=71 time=4\n",
      "control_change channel=9 control=4 value=78 time=8\n",
      "control_change channel=9 control=4 value=84 time=22\n",
      "control_change channel=9 control=4 value=90 time=22\n",
      "note_on channel=9 note=44 velocity=0 time=4\n",
      "control_change channel=9 control=4 value=86 time=18\n",
      "note_on channel=9 note=45 velocity=0 time=16\n",
      "control_change channel=9 control=4 value=82 time=5\n",
      "note_on channel=9 note=38 velocity=35 time=2\n",
      "control_change channel=9 control=4 value=77 time=20\n",
      "control_change channel=9 control=4 value=73 time=22\n",
      "note_on channel=9 note=38 velocity=0 time=18\n",
      "note_on channel=9 note=38 velocity=31 time=0\n",
      "control_change channel=9 control=4 value=69 time=4\n",
      "control_change channel=9 control=4 value=64 time=21\n",
      "note_on channel=9 note=38 velocity=0 time=8\n",
      "control_change channel=9 control=4 value=60 time=14\n",
      "control_change channel=9 control=4 value=58 time=9\n",
      "note_on channel=9 note=43 velocity=114 time=3\n",
      "note_on channel=9 note=44 velocity=97 time=2\n",
      "control_change channel=9 control=4 value=32 time=17\n",
      "control_change channel=9 control=4 value=6 time=21\n",
      "control_change channel=9 control=4 value=0 time=5\n",
      "control_change channel=9 control=4 value=15 time=21\n",
      "control_change channel=9 control=4 value=31 time=22\n",
      "note_on channel=9 note=38 velocity=37 time=5\n",
      "note_on channel=9 note=43 velocity=0 time=2\n",
      "note_on channel=9 note=44 velocity=0 time=0\n",
      "control_change channel=9 control=4 value=47 time=15\n",
      "control_change channel=9 control=4 value=63 time=22\n",
      "control_change channel=9 control=4 value=77 time=17\n",
      "note_on channel=9 note=38 velocity=0 time=8\n",
      "note_on channel=9 note=38 velocity=36 time=0\n",
      "control_change channel=9 control=4 value=83 time=14\n",
      "note_on channel=9 note=38 velocity=0 time=16\n",
      "control_change channel=9 control=4 value=90 time=6\n",
      "control_change channel=9 control=4 value=87 time=21\n",
      "note_on channel=9 note=44 velocity=22 time=15\n",
      "note_on channel=9 note=38 velocity=109 time=3\n",
      "control_change channel=9 control=4 value=84 time=4\n",
      "note_on channel=9 note=38 velocity=0 time=15\n",
      "control_change channel=9 control=4 value=81 time=7\n",
      "control_change channel=9 control=4 value=77 time=22\n",
      "control_change channel=9 control=4 value=74 time=21\n",
      "note_on channel=9 note=44 velocity=0 time=21\n",
      "control_change channel=9 control=4 value=71 time=1\n",
      "control_change channel=9 control=4 value=67 time=22\n",
      "control_change channel=9 control=4 value=66 time=7\n",
      "note_on channel=9 note=38 velocity=30 time=11\n",
      "control_change channel=9 control=4 value=52 time=11\n",
      "control_change channel=9 control=4 value=37 time=22\n",
      "control_change channel=9 control=4 value=29 time=11\n",
      "control_change channel=9 control=4 value=43 time=22\n",
      "control_change channel=9 control=4 value=57 time=22\n",
      "note_on channel=9 note=38 velocity=0 time=6\n",
      "control_change channel=9 control=4 value=72 time=15\n",
      "note_on channel=9 note=44 velocity=95 time=0\n",
      "control_change channel=9 control=4 value=77 time=8\n",
      "note_on channel=9 note=38 velocity=104 time=0\n",
      "control_change channel=9 control=4 value=83 time=21\n",
      "control_change channel=9 control=4 value=90 time=22\n",
      "note_on channel=9 note=44 velocity=0 time=43\n",
      "control_change channel=9 control=4 value=86 time=1\n",
      "note_on channel=9 note=38 velocity=0 time=6\n",
      "control_change channel=9 control=4 value=81 time=37\n",
      "control_change channel=9 control=4 value=76 time=44\n",
      "control_change channel=9 control=4 value=74 time=10\n",
      "control_change channel=9 control=4 value=44 time=22\n",
      "note_on channel=9 note=44 velocity=37 time=17\n",
      "control_change channel=9 control=4 value=13 time=4\n",
      "control_change channel=9 control=4 value=0 time=9\n",
      "note_on channel=9 note=38 velocity=102 time=19\n",
      "control_change channel=9 control=4 value=13 time=3\n",
      "control_change channel=9 control=4 value=27 time=22\n",
      "control_change channel=9 control=4 value=40 time=21\n",
      "note_on channel=9 note=44 velocity=0 time=16\n",
      "control_change channel=9 control=4 value=54 time=6\n",
      "control_change channel=9 control=4 value=68 time=22\n",
      "control_change channel=9 control=4 value=70 time=3\n",
      "note_on channel=9 note=38 velocity=0 time=1\n",
      "control_change channel=9 control=4 value=79 time=20\n",
      "note_on channel=9 note=38 velocity=82 time=5\n",
      "control_change channel=9 control=4 value=89 time=17\n",
      "control_change channel=9 control=4 value=90 time=0\n",
      "control_change channel=9 control=4 value=86 time=45\n",
      "note_on channel=9 note=44 velocity=102 time=28\n",
      "note_on channel=9 note=38 velocity=0 time=4\n",
      "control_change channel=9 control=4 value=81 time=12\n",
      "note_on channel=9 note=38 velocity=77 time=10\n",
      "control_change channel=9 control=4 value=76 time=30\n",
      "control_change channel=9 control=4 value=61 time=22\n",
      "note_on channel=9 note=44 velocity=0 time=15\n",
      "control_change channel=9 control=4 value=46 time=7\n",
      "control_change channel=9 control=4 value=37 time=13\n",
      "note_on channel=9 note=38 velocity=0 time=7\n",
      "control_change channel=9 control=4 value=29 time=15\n",
      "note_on channel=9 note=36 velocity=36 time=5\n",
      "control_change channel=9 control=4 value=20 time=16\n",
      "control_change channel=9 control=4 value=38 time=22\n",
      "control_change channel=9 control=4 value=56 time=22\n",
      "control_change channel=9 control=4 value=74 time=22\n",
      "control_change channel=9 control=4 value=78 time=2\n",
      "note_on channel=9 note=36 velocity=0 time=9\n",
      "control_change channel=9 control=4 value=84 time=13\n",
      "note_on channel=9 note=55 velocity=73 time=1\n",
      "note_on channel=9 note=36 velocity=48 time=2\n",
      "control_change channel=9 control=4 value=90 time=19\n",
      "control_change channel=9 control=4 value=86 time=22\n",
      "control_change channel=9 control=4 value=82 time=21\n",
      "control_change channel=9 control=4 value=78 time=22\n",
      "note_on channel=9 note=55 velocity=0 time=8\n",
      "note_on channel=9 note=36 velocity=0 time=2\n",
      "control_change channel=9 control=4 value=74 time=12\n",
      "note_on channel=9 note=38 velocity=11 time=21\n",
      "control_change channel=9 control=4 value=70 time=1\n",
      "control_change channel=9 control=4 value=66 time=21\n",
      "control_change channel=9 control=4 value=62 time=22\n",
      "control_change channel=9 control=4 value=58 time=18\n",
      "control_change channel=9 control=4 value=30 time=21\n",
      "note_on channel=9 note=38 velocity=0 time=8\n",
      "note_on channel=9 note=38 velocity=13 time=0\n",
      "note_on channel=9 note=38 velocity=0 time=2\n",
      "note_on channel=9 note=44 velocity=97 time=9\n",
      "control_change channel=9 control=4 value=0 time=3\n",
      "control_change channel=9 control=4 value=1 time=0\n",
      "note_on channel=9 note=51 velocity=59 time=21\n",
      "control_change channel=9 control=4 value=13 time=1\n",
      "control_change channel=9 control=4 value=26 time=22\n",
      "control_change channel=9 control=4 value=40 time=21\n",
      "control_change channel=9 control=4 value=53 time=22\n",
      "note_on channel=9 note=44 velocity=0 time=4\n",
      "control_change channel=9 control=4 value=66 time=18\n",
      "control_change channel=9 control=4 value=70 time=6\n",
      "note_on channel=9 note=51 velocity=0 time=0\n",
      "note_on channel=9 note=36 velocity=46 time=17\n",
      "control_change channel=9 control=4 value=79 time=4\n",
      "note_on channel=9 note=51 velocity=44 time=10\n",
      "control_change channel=9 control=4 value=89 time=12\n",
      "control_change channel=9 control=4 value=90 time=0\n",
      "control_change channel=9 control=4 value=85 time=44\n",
      "note_on channel=9 note=36 velocity=0 time=24\n",
      "note_on channel=9 note=51 velocity=0 time=14\n",
      "note_on channel=9 note=44 velocity=22 time=2\n",
      "control_change channel=9 control=4 value=80 time=3\n",
      "note_on channel=9 note=51 velocity=80 time=10\n",
      "note_on channel=9 note=38 velocity=68 time=4\n",
      "control_change channel=9 control=4 value=74 time=30\n",
      "control_change channel=9 control=4 value=69 time=43\n",
      "control_change channel=9 control=4 value=68 time=3\n",
      "note_on channel=9 note=44 velocity=0 time=0\n",
      "note_on channel=9 note=51 velocity=0 time=13\n",
      "note_on channel=9 note=38 velocity=0 time=4\n",
      "control_change channel=9 control=4 value=59 time=5\n",
      "note_on channel=9 note=38 velocity=35 time=19\n",
      "control_change channel=9 control=4 value=49 time=3\n",
      "control_change channel=9 control=4 value=41 time=18\n",
      "control_change channel=9 control=4 value=51 time=22\n",
      "control_change channel=9 control=4 value=62 time=22\n",
      "control_change channel=9 control=4 value=69 time=13\n",
      "note_on channel=9 note=38 velocity=0 time=15\n",
      "control_change channel=9 control=4 value=78 time=7\n",
      "note_on channel=9 note=51 velocity=88 time=8\n",
      "note_on channel=9 note=44 velocity=100 time=4\n",
      "control_change channel=9 control=4 value=87 time=9\n",
      "control_change channel=9 control=4 value=90 time=6\n",
      "control_change channel=9 control=4 value=86 time=22\n",
      "control_change channel=9 control=4 value=81 time=22\n",
      "control_change channel=9 control=4 value=76 time=22\n",
      "note_on channel=9 note=51 velocity=0 time=9\n",
      "note_on channel=9 note=44 velocity=0 time=5\n",
      "note_on channel=9 note=38 velocity=53 time=1\n",
      "control_change channel=9 control=4 value=71 time=6\n",
      "note_on channel=9 note=51 velocity=88 time=5\n",
      "control_change channel=9 control=4 value=66 time=17\n",
      "control_change channel=9 control=4 value=62 time=22\n",
      "control_change channel=9 control=4 value=57 time=17\n",
      "control_change channel=9 control=4 value=30 time=22\n",
      "note_on channel=9 note=38 velocity=0 time=4\n",
      "note_on channel=9 note=51 velocity=0 time=12\n",
      "control_change channel=9 control=4 value=3 time=6\n",
      "note_on channel=9 note=36 velocity=37 time=0\n",
      "control_change channel=9 control=4 value=0 time=3\n",
      "note_on channel=9 note=44 velocity=17 time=18\n",
      "control_change channel=9 control=4 value=13 time=3\n",
      "control_change channel=9 control=4 value=26 time=22\n",
      "control_change channel=9 control=4 value=39 time=22\n",
      "control_change channel=9 control=4 value=53 time=22\n",
      "note_on channel=9 note=36 velocity=0 time=4\n",
      "control_change channel=9 control=4 value=66 time=17\n",
      "note_on channel=9 note=44 velocity=0 time=4\n",
      "control_change channel=9 control=4 value=69 time=1\n",
      "note_on channel=9 note=38 velocity=25 time=3\n",
      "control_change channel=9 control=4 value=79 time=18\n",
      "control_change channel=9 control=4 value=90 time=22\n",
      "note_on channel=9 note=51 velocity=72 time=7\n",
      "control_change channel=9 control=4 value=85 time=37\n",
      "note_on channel=9 note=38 velocity=0 time=9\n",
      "note_on channel=9 note=38 velocity=26 time=30\n",
      "control_change channel=9 control=4 value=80 time=4\n",
      "note_on channel=9 note=51 velocity=0 time=13\n",
      "note_on channel=9 note=44 velocity=102 time=11\n",
      "note_on channel=9 note=51 velocity=56 time=0\n",
      "control_change channel=9 control=4 value=75 time=20\n",
      "control_change channel=9 control=4 value=74 time=8\n",
      "control_change channel=9 control=4 value=57 time=22\n",
      "note_on channel=9 note=38 velocity=0 time=16\n",
      "control_change channel=9 control=4 value=40 time=6\n",
      "control_change channel=9 control=4 value=32 time=9\n",
      "note_on channel=9 note=44 velocity=0 time=13\n",
      "note_on channel=9 note=51 velocity=0 time=0\n",
      "control_change channel=9 control=4 value=26 time=8\n",
      "control_change channel=9 control=4 value=20 time=22\n",
      "note_on channel=9 note=36 velocity=47 time=1\n",
      "control_change channel=9 control=4 value=18 time=3\n",
      "control_change channel=9 control=4 value=34 time=22\n",
      "control_change channel=9 control=4 value=51 time=22\n",
      "control_change channel=9 control=4 value=61 time=12\n",
      "control_change channel=9 control=4 value=73 time=21\n",
      "note_on channel=9 note=51 velocity=94 time=12\n",
      "note_on channel=9 note=36 velocity=0 time=1\n",
      "note_on channel=9 note=38 velocity=54 time=7\n",
      "control_change channel=9 control=4 value=85 time=2\n",
      "note_on channel=9 note=44 velocity=30 time=4\n",
      "control_change channel=9 control=4 value=90 time=3\n",
      "control_change channel=9 control=4 value=87 time=22\n",
      "control_change channel=9 control=4 value=83 time=22\n",
      "control_change channel=9 control=4 value=80 time=22\n",
      "note_on channel=9 note=51 velocity=0 time=11\n",
      "note_on channel=9 note=38 velocity=0 time=7\n",
      "control_change channel=9 control=4 value=76 time=3\n",
      "note_on channel=9 note=44 velocity=0 time=4\n",
      "control_change channel=9 control=4 value=73 time=18\n",
      "note_on channel=9 note=51 velocity=78 time=3\n",
      "note_on channel=9 note=38 velocity=38 time=16\n",
      "control_change channel=9 control=4 value=69 time=3\n",
      "control_change channel=9 control=4 value=65 time=22\n",
      "control_change channel=9 control=4 value=62 time=21\n",
      "control_change channel=9 control=4 value=61 time=2\n",
      "control_change channel=9 control=4 value=34 time=21\n",
      "note_on channel=9 note=51 velocity=0 time=8\n",
      "control_change channel=9 control=4 value=7 time=14\n",
      "note_on channel=9 note=38 velocity=0 time=3\n",
      "control_change channel=9 control=4 value=0 time=3\n",
      "note_on channel=9 note=44 velocity=102 time=12\n",
      "note_on channel=9 note=36 velocity=39 time=5\n",
      "control_change channel=9 control=4 value=15 time=5\n",
      "control_change channel=9 control=4 value=30 time=22\n",
      "control_change channel=9 control=4 value=46 time=21\n",
      "control_change channel=9 control=4 value=61 time=22\n",
      "note_on channel=9 note=44 velocity=0 time=19\n",
      "control_change channel=9 control=4 value=77 time=3\n",
      "control_change channel=9 control=4 value=78 time=0\n",
      "note_on channel=9 note=36 velocity=0 time=2\n",
      "control_change channel=9 control=4 value=84 time=20\n",
      "note_on channel=9 note=51 velocity=125 time=7\n",
      "note_on channel=9 note=38 velocity=69 time=4\n",
      "control_change channel=9 control=4 value=90 time=10\n",
      "control_change channel=9 control=4 value=86 time=44\n",
      "note_on channel=9 note=51 velocity=0 time=36\n",
      "note_on channel=9 note=38 velocity=0 time=4\n",
      "control_change channel=9 control=4 value=82 time=3\n",
      "note_on channel=9 note=36 velocity=46 time=23\n",
      "control_change channel=9 control=4 value=77 time=21\n",
      "control_change channel=9 control=4 value=73 time=43\n",
      "control_change channel=9 control=4 value=72 time=6\n",
      "control_change channel=9 control=4 value=60 time=22\n",
      "note_on channel=9 note=36 velocity=0 time=2\n",
      "control_change channel=9 control=4 value=47 time=20\n",
      "note_on channel=9 note=51 velocity=58 time=13\n",
      "control_change channel=9 control=4 value=37 time=3\n",
      "note_on channel=9 note=38 velocity=17 time=5\n",
      "control_change channel=9 control=4 value=47 time=16\n",
      "control_change channel=9 control=4 value=57 time=22\n",
      "control_change channel=9 control=4 value=65 time=17\n",
      "control_change channel=9 control=4 value=76 time=22\n",
      "note_on channel=9 note=51 velocity=0 time=9\n",
      "note_on channel=9 note=38 velocity=0 time=7\n",
      "control_change channel=9 control=4 value=87 time=6\n",
      "control_change channel=9 control=4 value=90 time=6\n",
      "note_on channel=9 note=44 velocity=97 time=3\n",
      "note_on channel=9 note=51 velocity=57 time=3\n",
      "note_on channel=9 note=38 velocity=23 time=9\n",
      "control_change channel=9 control=4 value=85 time=6\n",
      "control_change channel=9 control=4 value=80 time=22\n",
      "control_change channel=9 control=4 value=75 time=21\n",
      "control_change channel=9 control=4 value=70 time=23\n",
      "note_on channel=9 note=44 velocity=0 time=9\n",
      "note_on channel=9 note=51 velocity=0 time=4\n",
      "control_change channel=9 control=4 value=65 time=8\n",
      "note_on channel=9 note=38 velocity=0 time=0\n",
      "control_change channel=9 control=4 value=60 time=22\n",
      "note_on channel=9 note=36 velocity=46 time=1\n",
      "control_change channel=9 control=4 value=57 time=11\n",
      "control_change channel=9 control=4 value=30 time=22\n",
      "control_change channel=9 control=4 value=3 time=21\n",
      "control_change channel=9 control=4 value=0 time=2\n",
      "control_change channel=9 control=4 value=15 time=22\n",
      "note_on channel=9 note=36 velocity=0 time=16\n",
      "control_change channel=9 control=4 value=30 time=5\n",
      "note_on channel=9 note=44 velocity=20 time=7\n",
      "note_on channel=9 note=38 velocity=64 time=5\n",
      "note_on channel=9 note=51 velocity=112 time=2\n",
      "control_change channel=9 control=4 value=45 time=8\n",
      "control_change channel=9 control=4 value=60 time=22\n",
      "control_change channel=9 control=4 value=69 time=13\n",
      "control_change channel=9 control=4 value=79 time=22\n",
      "control_change channel=9 control=4 value=89 time=21\n",
      "control_change channel=9 control=4 value=90 time=0\n",
      "note_on channel=9 note=44 velocity=0 time=1\n",
      "note_on channel=9 note=38 velocity=0 time=4\n",
      "note_on channel=9 note=51 velocity=0 time=2\n",
      "control_change channel=9 control=4 value=87 time=38\n",
      "control_change channel=9 control=4 value=83 time=44\n",
      "control_change channel=9 control=4 value=80 time=43\n",
      "note_on channel=9 note=37 velocity=83 time=4\n",
      "note_on channel=9 note=59 velocity=93 time=7\n",
      "control_change channel=9 control=4 value=78 time=7\n",
      "note_on channel=9 note=44 velocity=97 time=0\n",
      "control_change channel=9 control=4 value=61 time=21\n",
      "control_change channel=9 control=4 value=44 time=22\n",
      "control_change channel=9 control=4 value=35 time=10\n",
      "control_change channel=9 control=4 value=28 time=22\n",
      "note_on channel=9 note=37 velocity=0 time=4\n",
      "note_on channel=9 note=59 velocity=0 time=8\n",
      "note_on channel=9 note=44 velocity=0 time=7\n",
      "control_change channel=9 control=4 value=20 time=3\n",
      "control_change channel=9 control=4 value=18 time=3\n",
      "control_change channel=9 control=4 value=44 time=21\n",
      "note_on channel=9 note=38 velocity=25 time=2\n",
      "control_change channel=9 control=4 value=70 time=20\n",
      "control_change channel=9 control=4 value=78 time=6\n",
      "control_change channel=9 control=4 value=84 time=22\n",
      "control_change channel=9 control=4 value=90 time=22\n",
      "control_change channel=9 control=4 value=86 time=21\n",
      "note_on channel=9 note=38 velocity=0 time=3\n",
      "note_on channel=9 note=44 velocity=25 time=15\n",
      "control_change channel=9 control=4 value=81 time=4\n",
      "note_on channel=9 note=36 velocity=34 time=3\n",
      "note_on channel=9 note=51 velocity=51 time=2\n",
      "control_change channel=9 control=4 value=76 time=17\n",
      "control_change channel=9 control=4 value=71 time=22\n",
      "control_change channel=9 control=4 value=66 time=21\n",
      "control_change channel=9 control=4 value=61 time=22\n",
      "note_on channel=9 note=44 velocity=0 time=3\n",
      "note_on channel=9 note=36 velocity=0 time=6\n",
      "control_change channel=9 control=4 value=58 time=1\n",
      "note_on channel=9 note=51 velocity=0 time=1\n",
      "control_change channel=9 control=4 value=32 time=21\n",
      "note_on channel=9 note=51 velocity=53 time=3\n",
      "control_change channel=9 control=4 value=5 time=19\n",
      "control_change channel=9 control=4 value=0 time=4\n",
      "control_change channel=9 control=4 value=13 time=22\n",
      "control_change channel=9 control=4 value=27 time=22\n",
      "control_change channel=9 control=4 value=40 time=20\n",
      "note_on channel=9 note=51 velocity=0 time=6\n",
      "control_change channel=9 control=4 value=54 time=17\n",
      "note_on channel=9 note=51 velocity=127 time=8\n",
      "note_on channel=9 note=44 velocity=97 time=5\n",
      "control_change channel=9 control=4 value=68 time=9\n",
      "control_change channel=9 control=4 value=79 time=22\n",
      "control_change channel=9 control=4 value=90 time=21\n",
      "note_on channel=9 note=51 velocity=0 time=36\n",
      "note_on channel=9 note=44 velocity=0 time=7\n",
      "control_change channel=9 control=4 value=87 time=1\n",
      "note_on channel=9 note=36 velocity=37 time=26\n",
      "control_change channel=9 control=4 value=83 time=17\n",
      "control_change channel=9 control=4 value=79 time=44\n",
      "control_change channel=9 control=4 value=78 time=8\n",
      "control_change channel=9 control=4 value=64 time=22\n",
      "note_on channel=9 note=36 velocity=0 time=2\n",
      "note_on channel=9 note=38 velocity=60 time=19\n",
      "note_on channel=9 note=51 velocity=66 time=0\n",
      "control_change channel=9 control=4 value=49 time=1\n",
      "note_on channel=9 note=44 velocity=37 time=11\n",
      "control_change channel=9 control=4 value=40 time=2\n",
      "control_change channel=9 control=4 value=32 time=22\n",
      "control_change channel=9 control=4 value=23 time=22\n",
      "control_change channel=9 control=4 value=44 time=21\n",
      "note_on channel=9 note=38 velocity=0 time=14\n",
      "note_on channel=9 note=51 velocity=0 time=0\n",
      "control_change channel=9 control=4 value=65 time=8\n",
      "note_on channel=9 note=44 velocity=0 time=4\n",
      "control_change channel=9 control=4 value=78 time=9\n",
      "note_on channel=9 note=51 velocity=55 time=7\n",
      "control_change channel=9 control=4 value=84 time=15\n",
      "control_change channel=9 control=4 value=90 time=22\n",
      "control_change channel=9 control=4 value=85 time=21\n",
      "control_change channel=9 control=4 value=80 time=22\n",
      "note_on channel=9 note=51 velocity=0 time=14\n",
      "control_change channel=9 control=4 value=74 time=8\n",
      "note_on channel=9 note=51 velocity=123 time=20\n",
      "control_change channel=9 control=4 value=69 time=2\n",
      "note_on channel=9 note=44 velocity=92 time=12\n",
      "control_change channel=9 control=4 value=63 time=9\n",
      "control_change channel=9 control=4 value=58 time=21\n",
      "control_change channel=9 control=4 value=34 time=21\n",
      "control_change channel=9 control=4 value=10 time=22\n",
      "note_on channel=9 note=51 velocity=0 time=7\n",
      "control_change channel=9 control=4 value=0 time=2\n",
      "note_on channel=9 note=44 velocity=0 time=11\n",
      "note_on channel=9 note=37 velocity=60 time=7\n",
      "control_change channel=9 control=4 value=14 time=4\n",
      "control_change channel=9 control=4 value=29 time=21\n",
      "control_change channel=9 control=4 value=44 time=22\n",
      "control_change channel=9 control=4 value=58 time=22\n",
      "control_change channel=9 control=4 value=71 time=17\n",
      "note_on channel=9 note=37 velocity=0 time=8\n",
      "control_change channel=9 control=4 value=80 time=14\n",
      "control_change channel=9 control=4 value=89 time=22\n",
      "control_change channel=9 control=4 value=90 time=0\n",
      "note_on channel=9 note=36 velocity=38 time=0\n",
      "note_on channel=9 note=44 velocity=37 time=3\n",
      "note_on channel=9 note=51 velocity=58 time=9\n",
      "control_change channel=9 control=4 value=85 time=33\n",
      "note_on channel=9 note=38 velocity=23 time=29\n",
      "control_change channel=9 control=4 value=79 time=14\n",
      "note_on channel=9 note=36 velocity=0 time=6\n",
      "note_on channel=9 note=44 velocity=0 time=4\n",
      "note_on channel=9 note=51 velocity=0 time=8\n",
      "control_change channel=9 control=4 value=74 time=26\n",
      "note_on channel=9 note=51 velocity=49 time=2\n",
      "control_change channel=9 control=4 value=69 time=31\n",
      "note_on channel=9 note=38 velocity=0 time=2\n",
      "control_change channel=9 control=4 value=58 time=20\n",
      "control_change channel=9 control=4 value=47 time=22\n",
      "note_on channel=9 note=38 velocity=22 time=7\n",
      "note_on channel=9 note=51 velocity=0 time=12\n",
      "control_change channel=9 control=4 value=36 time=1\n",
      "note_on channel=9 note=44 velocity=95 time=18\n",
      "note_on channel=9 note=51 velocity=90 time=2\n",
      "control_change channel=9 control=4 value=47 time=2\n",
      "control_change channel=9 control=4 value=58 time=21\n",
      "control_change channel=9 control=4 value=68 time=19\n",
      "note_on channel=9 note=38 velocity=0 time=19\n",
      "control_change channel=9 control=4 value=78 time=3\n",
      "control_change channel=9 control=4 value=88 time=22\n",
      "control_change channel=9 control=4 value=90 time=4\n",
      "note_on channel=9 note=44 velocity=0 time=2\n",
      "note_on channel=9 note=51 velocity=0 time=0\n",
      "control_change channel=9 control=4 value=85 time=20\n",
      "note_on channel=9 note=36 velocity=44 time=0\n",
      "control_change channel=9 control=4 value=80 time=22\n",
      "control_change channel=9 control=4 value=75 time=21\n",
      "control_change channel=9 control=4 value=69 time=22\n",
      "control_change channel=9 control=4 value=64 time=22\n",
      "note_on channel=9 note=36 velocity=0 time=7\n",
      "control_change channel=9 control=4 value=59 time=15\n",
      "control_change channel=9 control=4 value=57 time=5\n",
      "note_on channel=9 note=37 velocity=71 time=1\n",
      "note_on channel=9 note=51 velocity=81 time=7\n",
      "note_on channel=9 note=44 velocity=40 time=8\n",
      "control_change channel=9 control=4 value=31 time=6\n",
      "control_change channel=9 control=4 value=4 time=22\n",
      "control_change channel=9 control=4 value=0 time=3\n",
      "control_change channel=9 control=4 value=14 time=21\n",
      "control_change channel=9 control=4 value=28 time=22\n",
      "note_on channel=9 note=37 velocity=0 time=5\n",
      "note_on channel=9 note=51 velocity=0 time=6\n",
      "note_on channel=9 note=44 velocity=0 time=9\n",
      "control_change channel=9 control=4 value=42 time=2\n",
      "control_change channel=9 control=4 value=57 time=22\n",
      "note_on channel=9 note=51 velocity=55 time=0\n",
      "control_change channel=9 control=4 value=71 time=21\n",
      "control_change channel=9 control=4 value=77 time=9\n",
      "control_change channel=9 control=4 value=83 time=22\n",
      "control_change channel=9 control=4 value=90 time=22\n",
      "note_on channel=9 note=51 velocity=0 time=20\n",
      "control_change channel=9 control=4 value=88 time=23\n",
      "note_on channel=9 note=51 velocity=127 time=1\n",
      "note_on channel=9 note=44 velocity=100 time=16\n",
      "control_change channel=9 control=4 value=85 time=27\n",
      "control_change channel=9 control=4 value=82 time=43\n",
      "note_on channel=9 note=51 velocity=0 time=8\n",
      "control_change channel=9 control=4 value=80 time=8\n",
      "note_on channel=9 note=44 velocity=0 time=8\n",
      "note_on channel=9 note=38 velocity=32 time=8\n",
      "control_change channel=9 control=4 value=73 time=6\n",
      "control_change channel=9 control=4 value=64 time=22\n",
      "control_change channel=9 control=4 value=65 time=0\n",
      "control_change channel=9 control=4 value=68 time=43\n",
      "note_on channel=9 note=38 velocity=0 time=15\n",
      "note_on channel=9 note=38 velocity=31 time=0\n",
      "note_on channel=9 note=38 velocity=0 time=8\n",
      "control_change channel=9 control=4 value=71 time=6\n",
      "control_change channel=9 control=4 value=78 time=22\n",
      "note_on channel=9 note=36 velocity=35 time=14\n",
      "note_on channel=9 note=44 velocity=50 time=1\n",
      "note_on channel=9 note=51 velocity=62 time=2\n",
      "control_change channel=9 control=4 value=85 time=5\n",
      "control_change channel=9 control=4 value=90 time=13\n",
      "control_change channel=9 control=4 value=87 time=21\n",
      "control_change channel=9 control=4 value=83 time=22\n",
      "control_change channel=9 control=4 value=79 time=22\n",
      "note_on channel=9 note=36 velocity=0 time=8\n",
      "note_on channel=9 note=44 velocity=0 time=1\n",
      "note_on channel=9 note=51 velocity=0 time=0\n",
      "control_change channel=9 control=4 value=75 time=13\n",
      "note_on channel=9 note=51 velocity=51 time=19\n",
      "control_change channel=9 control=4 value=71 time=2\n",
      "note_on channel=9 note=38 velocity=29 time=2\n",
      "control_change channel=9 control=4 value=68 time=20\n",
      "control_change channel=9 control=4 value=64 time=22\n",
      "control_change channel=9 control=4 value=60 time=22\n",
      "control_change channel=9 control=4 value=59 time=3\n",
      "control_change channel=9 control=4 value=34 time=21\n",
      "note_on channel=9 note=51 velocity=0 time=2\n",
      "note_on channel=9 note=38 velocity=0 time=4\n",
      "note_on channel=9 note=51 velocity=88 time=2\n",
      "control_change channel=9 control=4 value=9 time=14\n",
      "note_on channel=9 note=44 velocity=97 time=0\n",
      "control_change channel=9 control=4 value=0 time=7\n",
      "control_change channel=9 control=4 value=15 time=22\n",
      "control_change channel=9 control=4 value=30 time=22\n",
      "control_change channel=9 control=4 value=45 time=22\n",
      "note_on channel=9 note=51 velocity=0 time=7\n",
      "control_change channel=9 control=4 value=60 time=14\n",
      "note_on channel=9 note=44 velocity=0 time=0\n",
      "control_change channel=9 control=4 value=75 time=22\n",
      "note_on channel=9 note=36 velocity=41 time=2\n",
      "control_change channel=9 control=4 value=77 time=1\n",
      "control_change channel=9 control=4 value=83 time=22\n",
      "control_change channel=9 control=4 value=90 time=21\n",
      "control_change channel=9 control=4 value=87 time=22\n",
      "control_change channel=9 control=4 value=84 time=22\n",
      "note_on channel=9 note=36 velocity=0 time=6\n",
      "control_change channel=9 control=4 value=81 time=16\n",
      "note_on channel=9 note=51 velocity=86 time=6\n",
      "note_on channel=9 note=44 velocity=37 time=1\n",
      "note_on channel=9 note=38 velocity=61 time=1\n",
      "control_change channel=9 control=4 value=78 time=13\n",
      "control_change channel=9 control=4 value=75 time=22\n",
      "control_change channel=9 control=4 value=72 time=22\n",
      "control_change channel=9 control=4 value=69 time=22\n",
      "control_change channel=9 control=4 value=68 time=6\n",
      "note_on channel=9 note=51 velocity=0 time=7\n",
      "note_on channel=9 note=38 velocity=0 time=1\n",
      "note_on channel=9 note=44 velocity=0 time=0\n",
      "control_change channel=9 control=4 value=59 time=13\n",
      "note_on channel=9 note=38 velocity=27 time=11\n",
      "control_change channel=9 control=4 value=50 time=11\n",
      "control_change channel=9 control=4 value=40 time=22\n",
      "control_change channel=9 control=4 value=41 time=0\n",
      "control_change channel=9 control=4 value=49 time=22\n",
      "control_change channel=9 control=4 value=59 time=21\n",
      "note_on channel=9 note=38 velocity=0 time=17\n",
      "control_change channel=9 control=4 value=69 time=5\n",
      "note_on channel=9 note=51 velocity=112 time=18\n",
      "control_change channel=9 control=4 value=78 time=4\n",
      "note_on channel=9 note=44 velocity=100 time=8\n",
      "control_change channel=9 control=4 value=87 time=14\n",
      "control_change channel=9 control=4 value=90 time=5\n",
      "control_change channel=9 control=4 value=86 time=22\n",
      "control_change channel=9 control=4 value=82 time=22\n",
      "note_on channel=9 note=51 velocity=0 time=19\n",
      "control_change channel=9 control=4 value=77 time=3\n",
      "note_on channel=9 note=44 velocity=0 time=8\n",
      "note_on channel=9 note=38 velocity=24 time=5\n",
      "control_change channel=9 control=4 value=73 time=8\n",
      "control_change channel=9 control=4 value=69 time=22\n",
      "control_change channel=9 control=4 value=64 time=22\n",
      "control_change channel=9 control=4 value=60 time=22\n",
      "control_change channel=9 control=4 value=58 time=8\n",
      "note_on channel=9 note=38 velocity=0 time=12\n",
      "control_change channel=9 control=4 value=29 time=10\n",
      "control_change channel=9 control=4 value=0 time=22\n",
      "note_on channel=9 note=44 velocity=95 time=14\n",
      "control_change channel=9 control=4 value=14 time=8\n",
      "control_change channel=9 control=4 value=28 time=21\n",
      "control_change channel=9 control=4 value=43 time=22\n",
      "control_change channel=9 control=4 value=57 time=22\n",
      "note_on channel=9 note=44 velocity=0 time=21\n",
      "control_change channel=9 control=4 value=71 time=1\n",
      "note_on channel=9 note=38 velocity=24 time=6\n",
      "control_change channel=9 control=4 value=78 time=2\n",
      "control_change channel=9 control=4 value=84 time=22\n",
      "control_change channel=9 control=4 value=90 time=22\n",
      "note_on channel=9 note=38 velocity=0 time=14\n",
      "note_on channel=9 note=38 velocity=40 time=0\n",
      "control_change channel=9 control=4 value=86 time=29\n",
      "note_on channel=9 note=38 velocity=0 time=5\n",
      "control_change channel=9 control=4 value=81 time=39\n",
      "control_change channel=9 control=4 value=76 time=43\n",
      "control_change channel=9 control=4 value=64 time=22\n",
      "control_change channel=9 control=4 value=51 time=22\n",
      "control_change channel=9 control=4 value=41 time=17\n",
      "note_on channel=9 note=38 velocity=92 time=9\n",
      "control_change channel=9 control=4 value=35 time=13\n",
      "control_change channel=9 control=4 value=28 time=22\n",
      "control_change channel=9 control=4 value=27 time=3\n",
      "control_change channel=9 control=4 value=45 time=21\n",
      "control_change channel=9 control=4 value=63 time=22\n",
      "note_on channel=9 note=38 velocity=0 time=13\n",
      "control_change channel=9 control=4 value=78 time=4\n",
      "control_change channel=9 control=4 value=83 time=22\n",
      "note_on channel=9 note=37 velocity=78 time=2\n",
      "control_change channel=9 control=4 value=89 time=20\n",
      "control_change channel=9 control=4 value=90 time=0\n",
      "control_change channel=9 control=4 value=86 time=22\n",
      "control_change channel=9 control=4 value=81 time=21\n",
      "control_change channel=9 control=4 value=76 time=22\n",
      "note_on channel=9 note=37 velocity=0 time=8\n",
      "control_change channel=9 control=4 value=71 time=14\n",
      "note_on channel=9 note=48 velocity=98 time=10\n",
      "control_change channel=9 control=4 value=66 time=12\n",
      "control_change channel=9 control=4 value=62 time=21\n",
      "control_change channel=9 control=4 value=58 time=15\n",
      "control_change channel=9 control=4 value=32 time=22\n",
      "control_change channel=9 control=4 value=5 time=21\n",
      "control_change channel=9 control=4 value=0 time=3\n",
      "note_on channel=9 note=48 velocity=0 time=0\n",
      "control_change channel=9 control=4 value=12 time=22\n",
      "note_on channel=9 note=38 velocity=12 time=5\n",
      "control_change channel=9 control=4 value=24 time=17\n",
      "control_change channel=9 control=4 value=36 time=22\n",
      "control_change channel=9 control=4 value=48 time=21\n",
      "control_change channel=9 control=4 value=60 time=22\n",
      "note_on channel=9 note=38 velocity=0 time=12\n",
      "control_change channel=9 control=4 value=68 time=1\n",
      "note_on channel=9 note=36 velocity=38 time=5\n",
      "note_on channel=9 note=26 velocity=69 time=15\n",
      "control_change channel=9 control=4 value=78 time=2\n",
      "control_change channel=9 control=4 value=89 time=22\n",
      "control_change channel=9 control=4 value=90 time=0\n",
      "control_change channel=9 control=4 value=86 time=23\n",
      "note_on channel=9 note=44 velocity=57 time=14\n",
      "control_change channel=9 control=4 value=82 time=8\n",
      "note_on channel=9 note=36 velocity=0 time=9\n",
      "control_change channel=9 control=4 value=78 time=12\n",
      "note_on channel=9 note=26 velocity=0 time=4\n",
      "control_change channel=9 control=4 value=74 time=18\n",
      "note_on channel=9 note=38 velocity=14 time=2\n",
      "control_change channel=9 control=4 value=69 time=20\n",
      "note_on channel=9 note=44 velocity=0 time=20\n",
      "control_change channel=9 control=4 value=65 time=2\n",
      "control_change channel=9 control=4 value=61 time=21\n",
      "control_change channel=9 control=4 value=57 time=22\n",
      "note_on channel=9 note=38 velocity=0 time=8\n",
      "control_change channel=9 control=4 value=54 time=4\n",
      "control_change channel=9 control=4 value=42 time=21\n",
      "note_on channel=9 note=46 velocity=51 time=7\n",
      "note_on channel=9 note=36 velocity=34 time=3\n",
      "control_change channel=9 control=4 value=30 time=12\n",
      "control_change channel=9 control=4 value=21 time=16\n",
      "control_change channel=9 control=4 value=44 time=22\n",
      "control_change channel=9 control=4 value=67 time=22\n",
      "control_change channel=9 control=4 value=78 time=10\n",
      "note_on channel=9 note=46 velocity=0 time=9\n",
      "note_on channel=9 note=36 velocity=0 time=2\n",
      "note_on channel=9 note=36 velocity=46 time=4\n",
      "control_change channel=9 control=4 value=84 time=7\n",
      "note_on channel=9 note=26 velocity=98 time=6\n",
      "control_change channel=9 control=4 value=90 time=15\n",
      "control_change channel=9 control=4 value=86 time=44\n",
      "note_on channel=9 note=36 velocity=0 time=22\n",
      "note_on channel=9 note=26 velocity=0 time=13\n",
      "control_change channel=9 control=4 value=81 time=8\n",
      "control_change channel=9 control=4 value=77 time=44\n",
      "control_change channel=9 control=4 value=74 time=20\n",
      "note_on channel=9 note=38 velocity=11 time=5\n",
      "control_change channel=9 control=4 value=45 time=17\n",
      "control_change channel=9 control=4 value=16 time=22\n",
      "control_change channel=9 control=4 value=0 time=11\n",
      "note_on channel=9 note=38 velocity=0 time=8\n",
      "note_on channel=9 note=38 velocity=14 time=0\n",
      "control_change channel=9 control=4 value=12 time=14\n",
      "note_on channel=9 note=38 velocity=0 time=21\n",
      "note_on channel=9 note=38 velocity=13 time=0\n",
      "control_change channel=9 control=4 value=25 time=1\n",
      "note_on channel=9 note=38 velocity=0 time=0\n",
      "control_change channel=9 control=4 value=38 time=21\n",
      "control_change channel=9 control=4 value=51 time=22\n",
      "control_change channel=9 control=4 value=64 time=22\n",
      "control_change channel=9 control=4 value=68 time=6\n",
      "note_on channel=9 note=38 velocity=23 time=8\n",
      "control_change channel=9 control=4 value=78 time=13\n",
      "note_on channel=9 note=38 velocity=0 time=0\n",
      "control_change channel=9 control=4 value=89 time=22\n",
      "control_change channel=9 control=4 value=90 time=2\n",
      "note_on channel=9 note=38 velocity=48 time=22\n",
      "control_change channel=9 control=4 value=86 time=21\n",
      "note_on channel=9 note=38 velocity=0 time=13\n",
      "control_change channel=9 control=4 value=82 time=31\n",
      "note_on channel=9 note=37 velocity=71 time=8\n",
      "control_change channel=9 control=4 value=77 time=31\n",
      "control_change channel=9 control=4 value=64 time=22\n",
      "control_change channel=9 control=4 value=50 time=21\n",
      "control_change channel=9 control=4 value=41 time=13\n",
      "note_on channel=9 note=37 velocity=0 time=7\n",
      "control_change channel=9 control=4 value=34 time=15\n",
      "control_change channel=9 control=4 value=27 time=22\n",
      "control_change channel=9 control=4 value=26 time=1\n",
      "note_on channel=9 note=36 velocity=43 time=0\n",
      "control_change channel=9 control=4 value=39 time=22\n",
      "control_change channel=9 control=4 value=53 time=22\n",
      "control_change channel=9 control=4 value=65 time=17\n",
      "control_change channel=9 control=4 value=75 time=22\n",
      "note_on channel=9 note=36 velocity=0 time=9\n",
      "note_on channel=9 note=36 velocity=40 time=0\n",
      "note_on channel=9 note=36 velocity=0 time=2\n",
      "control_change channel=9 control=4 value=86 time=11\n",
      "control_change channel=9 control=4 value=90 time=7\n",
      "control_change channel=9 control=4 value=87 time=22\n",
      "control_change channel=9 control=4 value=83 time=21\n",
      "control_change channel=9 control=4 value=79 time=22\n",
      "control_change channel=9 control=4 value=75 time=22\n",
      "control_change channel=9 control=4 value=71 time=22\n",
      "control_change channel=9 control=4 value=67 time=21\n",
      "control_change channel=9 control=4 value=63 time=22\n",
      "control_change channel=9 control=4 value=60 time=13\n",
      "control_change channel=9 control=4 value=34 time=22\n",
      "control_change channel=9 control=4 value=7 time=22\n",
      "control_change channel=9 control=4 value=0 time=6\n",
      "control_change channel=9 control=4 value=16 time=21\n",
      "control_change channel=9 control=4 value=32 time=22\n",
      "control_change channel=9 control=4 value=49 time=22\n",
      "control_change channel=9 control=4 value=65 time=22\n",
      "control_change channel=9 control=4 value=78 time=16\n",
      "control_change channel=9 control=4 value=84 time=21\n",
      "control_change channel=9 control=4 value=90 time=22\n",
      "control_change channel=9 control=4 value=86 time=22\n",
      "control_change channel=9 control=4 value=82 time=22\n",
      "control_change channel=9 control=4 value=78 time=21\n",
      "control_change channel=9 control=4 value=73 time=22\n",
      "control_change channel=9 control=4 value=69 time=22\n",
      "control_change channel=9 control=4 value=65 time=22\n",
      "control_change channel=9 control=4 value=61 time=21\n",
      "control_change channel=9 control=4 value=56 time=22\n",
      "control_change channel=9 control=4 value=54 time=10\n",
      "control_change channel=9 control=4 value=48 time=22\n",
      "control_change channel=9 control=4 value=42 time=22\n",
      "control_change channel=9 control=4 value=40 time=4\n",
      "control_change channel=9 control=4 value=51 time=22\n",
      "control_change channel=9 control=4 value=62 time=22\n",
      "control_change channel=9 control=4 value=64 time=4\n",
      "control_change channel=9 control=4 value=74 time=22\n",
      "control_change channel=9 control=4 value=85 time=21\n",
      "control_change channel=9 control=4 value=90 time=11\n",
      "control_change channel=9 control=4 value=87 time=21\n",
      "control_change channel=9 control=4 value=84 time=22\n",
      "control_change channel=9 control=4 value=81 time=22\n",
      "control_change channel=9 control=4 value=78 time=22\n",
      "control_change channel=9 control=4 value=75 time=21\n",
      "control_change channel=9 control=4 value=74 time=8\n",
      "control_change channel=9 control=4 value=42 time=21\n",
      "control_change channel=9 control=4 value=10 time=22\n",
      "control_change channel=9 control=4 value=0 time=6\n",
      "control_change channel=9 control=4 value=13 time=22\n",
      "control_change channel=9 control=4 value=26 time=21\n",
      "control_change channel=9 control=4 value=40 time=22\n",
      "control_change channel=9 control=4 value=53 time=22\n",
      "control_change channel=9 control=4 value=66 time=22\n",
      "control_change channel=9 control=4 value=68 time=2\n",
      "control_change channel=9 control=4 value=78 time=22\n",
      "control_change channel=9 control=4 value=89 time=22\n",
      "control_change channel=9 control=4 value=90 time=1\n",
      "control_change channel=9 control=4 value=86 time=44\n",
      "control_change channel=9 control=4 value=81 time=43\n",
      "control_change channel=9 control=4 value=77 time=44\n",
      "control_change channel=9 control=4 value=75 time=10\n",
      "control_change channel=9 control=4 value=63 time=22\n",
      "control_change channel=9 control=4 value=51 time=22\n",
      "control_change channel=9 control=4 value=43 time=14\n",
      "control_change channel=9 control=4 value=50 time=22\n",
      "control_change channel=9 control=4 value=58 time=22\n",
      "control_change channel=9 control=4 value=66 time=21\n",
      "control_change channel=9 control=4 value=74 time=22\n",
      "control_change channel=9 control=4 value=75 time=3\n",
      "control_change channel=9 control=4 value=82 time=22\n",
      "control_change channel=9 control=4 value=89 time=21\n",
      "control_change channel=9 control=4 value=90 time=3\n",
      "control_change channel=9 control=4 value=86 time=22\n",
      "control_change channel=9 control=4 value=82 time=22\n",
      "control_change channel=9 control=4 value=77 time=22\n",
      "control_change channel=9 control=4 value=73 time=21\n",
      "control_change channel=9 control=4 value=69 time=22\n",
      "control_change channel=9 control=4 value=64 time=22\n",
      "control_change channel=9 control=4 value=60 time=22\n",
      "control_change channel=9 control=4 value=58 time=7\n",
      "control_change channel=9 control=4 value=30 time=22\n",
      "control_change channel=9 control=4 value=0 time=21\n",
      "control_change channel=9 control=4 value=1 time=0\n",
      "control_change channel=9 control=4 value=13 time=22\n",
      "control_change channel=9 control=4 value=26 time=22\n",
      "control_change channel=9 control=4 value=40 time=22\n",
      "control_change channel=9 control=4 value=53 time=21\n",
      "control_change channel=9 control=4 value=67 time=22\n",
      "control_change channel=9 control=4 value=77 time=16\n",
      "control_change channel=9 control=4 value=83 time=22\n",
      "control_change channel=9 control=4 value=90 time=22\n",
      "control_change channel=9 control=4 value=85 time=21\n",
      "control_change channel=9 control=4 value=80 time=22\n",
      "control_change channel=9 control=4 value=75 time=22\n",
      "control_change channel=9 control=4 value=70 time=22\n",
      "control_change channel=9 control=4 value=65 time=21\n",
      "control_change channel=9 control=4 value=60 time=22\n",
      "control_change channel=9 control=4 value=55 time=22\n",
      "control_change channel=9 control=4 value=49 time=22\n",
      "control_change channel=9 control=4 value=50 time=0\n",
      "control_change channel=9 control=4 value=43 time=23\n",
      "control_change channel=9 control=4 value=37 time=22\n",
      "control_change channel=9 control=4 value=35 time=2\n",
      "control_change channel=9 control=4 value=45 time=22\n",
      "control_change channel=9 control=4 value=56 time=22\n",
      "control_change channel=9 control=4 value=67 time=22\n",
      "control_change channel=9 control=4 value=74 time=14\n",
      "control_change channel=9 control=4 value=81 time=22\n",
      "control_change channel=9 control=4 value=89 time=22\n",
      "control_change channel=9 control=4 value=90 time=3\n",
      "control_change channel=9 control=4 value=85 time=43\n",
      "control_change channel=9 control=4 value=80 time=44\n",
      "control_change channel=9 control=4 value=75 time=43\n",
      "control_change channel=9 control=4 value=74 time=6\n",
      "control_change channel=9 control=4 value=45 time=22\n",
      "control_change channel=9 control=4 value=15 time=21\n",
      "control_change channel=9 control=4 value=0 time=11\n",
      "control_change channel=9 control=4 value=12 time=21\n",
      "control_change channel=9 control=4 value=25 time=22\n",
      "control_change channel=9 control=4 value=38 time=22\n",
      "control_change channel=9 control=4 value=50 time=22\n",
      "control_change channel=9 control=4 value=63 time=21\n",
      "control_change channel=9 control=4 value=68 time=9\n",
      "control_change channel=9 control=4 value=78 time=22\n",
      "control_change channel=9 control=4 value=89 time=21\n",
      "control_change channel=9 control=4 value=90 time=2\n",
      "control_change channel=9 control=4 value=88 time=43\n",
      "control_change channel=9 control=4 value=86 time=44\n",
      "control_change channel=9 control=4 value=84 time=43\n",
      "control_change channel=9 control=4 value=82 time=21\n",
      "control_change channel=9 control=4 value=76 time=21\n",
      "control_change channel=9 control=4 value=69 time=22\n",
      "control_change channel=9 control=4 value=67 time=5\n",
      "control_change channel=9 control=4 value=70 time=21\n",
      "control_change channel=9 control=4 value=73 time=22\n",
      "control_change channel=9 control=4 value=76 time=22\n",
      "control_change channel=9 control=4 value=78 time=11\n",
      "control_change channel=9 control=4 value=83 time=22\n",
      "control_change channel=9 control=4 value=89 time=22\n",
      "control_change channel=9 control=4 value=90 time=3\n",
      "control_change channel=9 control=4 value=86 time=22\n",
      "control_change channel=9 control=4 value=82 time=21\n",
      "control_change channel=9 control=4 value=77 time=22\n",
      "control_change channel=9 control=4 value=73 time=22\n",
      "control_change channel=9 control=4 value=68 time=22\n",
      "control_change channel=9 control=4 value=64 time=21\n",
      "control_change channel=9 control=4 value=59 time=22\n",
      "control_change channel=9 control=4 value=58 time=4\n",
      "control_change channel=9 control=4 value=31 time=22\n",
      "control_change channel=9 control=4 value=4 time=22\n",
      "control_change channel=9 control=4 value=0 time=3\n",
      "control_change channel=9 control=4 value=13 time=22\n",
      "control_change channel=9 control=4 value=26 time=21\n",
      "control_change channel=9 control=4 value=40 time=22\n",
      "control_change channel=9 control=4 value=53 time=22\n",
      "control_change channel=9 control=4 value=67 time=22\n",
      "control_change channel=9 control=4 value=77 time=16\n",
      "control_change channel=9 control=4 value=83 time=21\n",
      "control_change channel=9 control=4 value=90 time=22\n",
      "control_change channel=9 control=4 value=87 time=22\n",
      "control_change channel=9 control=4 value=83 time=22\n",
      "control_change channel=9 control=4 value=80 time=21\n",
      "control_change channel=9 control=4 value=76 time=22\n",
      "control_change channel=9 control=4 value=73 time=22\n",
      "control_change channel=9 control=4 value=69 time=22\n",
      "control_change channel=9 control=4 value=66 time=17\n",
      "control_change channel=9 control=4 value=56 time=22\n",
      "control_change channel=9 control=4 value=45 time=21\n",
      "control_change channel=9 control=4 value=35 time=19\n",
      "control_change channel=9 control=4 value=43 time=22\n",
      "control_change channel=9 control=4 value=51 time=22\n",
      "control_change channel=9 control=4 value=60 time=22\n",
      "control_change channel=9 control=4 value=63 time=7\n",
      "control_change channel=9 control=4 value=73 time=22\n",
      "control_change channel=9 control=4 value=84 time=21\n",
      "control_change channel=9 control=4 value=90 time=12\n",
      "control_change channel=9 control=4 value=86 time=43\n",
      "control_change channel=9 control=4 value=82 time=44\n",
      "control_change channel=9 control=4 value=78 time=43\n",
      "control_change channel=9 control=4 value=74 time=32\n",
      "control_change channel=9 control=4 value=44 time=22\n",
      "control_change channel=9 control=4 value=14 time=22\n",
      "control_change channel=9 control=4 value=0 time=10\n",
      "control_change channel=9 control=4 value=13 time=22\n",
      "control_change channel=9 control=4 value=27 time=21\n",
      "control_change channel=9 control=4 value=41 time=22\n",
      "control_change channel=9 control=4 value=55 time=22\n",
      "control_change channel=9 control=4 value=69 time=22\n",
      "control_change channel=9 control=4 value=76 time=8\n",
      "control_change channel=9 control=4 value=83 time=22\n",
      "control_change channel=9 control=4 value=90 time=22\n",
      "control_change channel=9 control=4 value=86 time=22\n",
      "control_change channel=9 control=4 value=82 time=21\n",
      "control_change channel=9 control=4 value=78 time=22\n",
      "control_change channel=9 control=4 value=73 time=22\n",
      "control_change channel=9 control=4 value=69 time=22\n",
      "control_change channel=9 control=4 value=65 time=21\n",
      "control_change channel=9 control=4 value=62 time=12\n",
      "control_change channel=9 control=4 value=51 time=22\n",
      "control_change channel=9 control=4 value=40 time=21\n",
      "control_change channel=9 control=4 value=31 time=16\n",
      "control_change channel=9 control=4 value=43 time=22\n",
      "control_change channel=9 control=4 value=55 time=22\n",
      "control_change channel=9 control=4 value=67 time=22\n",
      "control_change channel=9 control=4 value=78 time=19\n",
      "control_change channel=9 control=4 value=84 time=21\n",
      "control_change channel=9 control=4 value=90 time=22\n",
      "control_change channel=9 control=4 value=86 time=22\n",
      "control_change channel=9 control=4 value=81 time=22\n",
      "control_change channel=9 control=4 value=76 time=21\n",
      "control_change channel=9 control=4 value=71 time=22\n",
      "control_change channel=9 control=4 value=66 time=22\n",
      "control_change channel=9 control=4 value=61 time=22\n",
      "control_change channel=9 control=4 value=58 time=11\n",
      "control_change channel=9 control=4 value=30 time=22\n",
      "control_change channel=9 control=4 value=0 time=22\n",
      "control_change channel=9 control=4 value=1 time=0\n",
      "control_change channel=9 control=4 value=13 time=21\n",
      "control_change channel=9 control=4 value=26 time=22\n",
      "control_change channel=9 control=4 value=40 time=22\n",
      "control_change channel=9 control=4 value=53 time=22\n",
      "control_change channel=9 control=4 value=66 time=21\n",
      "control_change channel=9 control=4 value=71 time=8\n",
      "control_change channel=9 control=4 value=80 time=21\n",
      "control_change channel=9 control=4 value=89 time=22\n",
      "control_change channel=9 control=4 value=90 time=0\n",
      "control_change channel=9 control=4 value=86 time=44\n",
      "control_change channel=9 control=4 value=82 time=43\n",
      "control_change channel=9 control=4 value=77 time=44\n",
      "control_change channel=9 control=4 value=76 time=7\n",
      "control_change channel=9 control=4 value=68 time=22\n",
      "control_change channel=9 control=4 value=59 time=21\n",
      "control_change channel=9 control=4 value=57 time=5\n",
      "control_change channel=9 control=4 value=60 time=21\n",
      "control_change channel=9 control=4 value=63 time=22\n",
      "control_change channel=9 control=4 value=67 time=22\n",
      "control_change channel=9 control=4 value=70 time=22\n",
      "control_change channel=9 control=4 value=73 time=13\n",
      "control_change channel=9 control=4 value=80 time=22\n",
      "control_change channel=9 control=4 value=87 time=21\n",
      "control_change channel=9 control=4 value=90 time=8\n",
      "control_change channel=9 control=4 value=86 time=21\n",
      "control_change channel=9 control=4 value=82 time=22\n",
      "control_change channel=9 control=4 value=78 time=22\n",
      "control_change channel=9 control=4 value=74 time=22\n",
      "control_change channel=9 control=4 value=70 time=21\n",
      "control_change channel=9 control=4 value=66 time=22\n",
      "control_change channel=9 control=4 value=62 time=22\n",
      "control_change channel=9 control=4 value=59 time=16\n",
      "control_change channel=9 control=4 value=31 time=21\n",
      "control_change channel=9 control=4 value=3 time=22\n",
      "control_change channel=9 control=4 value=0 time=3\n",
      "control_change channel=9 control=4 value=14 time=22\n",
      "control_change channel=9 control=4 value=29 time=22\n",
      "control_change channel=9 control=4 value=44 time=21\n",
      "control_change channel=9 control=4 value=59 time=22\n",
      "control_change channel=9 control=4 value=74 time=22\n",
      "control_change channel=9 control=4 value=78 time=6\n",
      "control_change channel=9 control=4 value=84 time=21\n",
      "control_change channel=9 control=4 value=90 time=22\n",
      "control_change channel=9 control=4 value=85 time=44\n",
      "control_change channel=9 control=4 value=79 time=43\n",
      "control_change channel=9 control=4 value=73 time=44\n",
      "control_change channel=9 control=4 value=68 time=36\n",
      "control_change channel=9 control=4 value=58 time=22\n",
      "control_change channel=9 control=4 value=47 time=21\n",
      "control_change channel=9 control=4 value=39 time=22\n",
      "control_change channel=9 control=4 value=30 time=22\n",
      "control_change channel=9 control=4 value=29 time=1\n",
      "control_change channel=9 control=4 value=49 time=22\n",
      "control_change channel=9 control=4 value=70 time=22\n",
      "control_change channel=9 control=4 value=78 time=7\n",
      "control_change channel=9 control=4 value=84 time=22\n",
      "control_change channel=9 control=4 value=90 time=22\n",
      "control_change channel=9 control=4 value=86 time=21\n",
      "control_change channel=9 control=4 value=81 time=22\n",
      "control_change channel=9 control=4 value=77 time=22\n",
      "control_change channel=9 control=4 value=72 time=22\n",
      "control_change channel=9 control=4 value=67 time=21\n",
      "control_change channel=9 control=4 value=63 time=22\n",
      "control_change channel=9 control=4 value=59 time=16\n",
      "control_change channel=9 control=4 value=32 time=22\n",
      "control_change channel=9 control=4 value=4 time=22\n",
      "control_change channel=9 control=4 value=0 time=2\n",
      "control_change channel=9 control=4 value=13 time=22\n",
      "control_change channel=9 control=4 value=27 time=22\n",
      "control_change channel=9 control=4 value=41 time=22\n",
      "control_change channel=9 control=4 value=55 time=21\n",
      "control_change channel=9 control=4 value=68 time=22\n",
      "control_change channel=9 control=4 value=72 time=5\n",
      "control_change channel=9 control=4 value=80 time=21\n",
      "control_change channel=9 control=4 value=89 time=22\n",
      "control_change channel=9 control=4 value=90 time=0\n",
      "control_change channel=9 control=4 value=87 time=23\n",
      "control_change channel=9 control=4 value=84 time=22\n",
      "control_change channel=9 control=4 value=81 time=22\n",
      "control_change channel=9 control=4 value=78 time=22\n",
      "control_change channel=9 control=4 value=74 time=21\n",
      "control_change channel=9 control=4 value=71 time=21\n",
      "control_change channel=9 control=4 value=68 time=23\n",
      "control_change channel=9 control=4 value=67 time=3\n",
      "control_change channel=9 control=4 value=55 time=21\n",
      "control_change channel=9 control=4 value=43 time=22\n",
      "control_change channel=9 control=4 value=34 time=16\n",
      "control_change channel=9 control=4 value=48 time=22\n",
      "control_change channel=9 control=4 value=62 time=22\n",
      "control_change channel=9 control=4 value=77 time=21\n",
      "control_change channel=9 control=4 value=79 time=3\n",
      "control_change channel=9 control=4 value=84 time=22\n",
      "control_change channel=9 control=4 value=90 time=22\n",
      "control_change channel=9 control=4 value=86 time=22\n",
      "control_change channel=9 control=4 value=82 time=21\n",
      "control_change channel=9 control=4 value=78 time=22\n",
      "control_change channel=9 control=4 value=74 time=22\n",
      "control_change channel=9 control=4 value=70 time=22\n",
      "control_change channel=9 control=4 value=65 time=21\n",
      "control_change channel=9 control=4 value=61 time=22\n",
      "control_change channel=9 control=4 value=59 time=9\n",
      "control_change channel=9 control=4 value=33 time=21\n",
      "control_change channel=9 control=4 value=6 time=22\n",
      "control_change channel=9 control=4 value=0 time=5\n",
      "control_change channel=9 control=4 value=14 time=21\n",
      "control_change channel=9 control=4 value=29 time=22\n",
      "control_change channel=9 control=4 value=44 time=22\n",
      "control_change channel=9 control=4 value=59 time=22\n",
      "control_change channel=9 control=4 value=74 time=21\n",
      "control_change channel=9 control=4 value=77 time=3\n",
      "control_change channel=9 control=4 value=83 time=22\n",
      "control_change channel=9 control=4 value=90 time=22\n",
      "control_change channel=9 control=4 value=87 time=21\n",
      "control_change channel=9 control=4 value=83 time=22\n",
      "control_change channel=9 control=4 value=80 time=22\n",
      "control_change channel=9 control=4 value=76 time=22\n",
      "control_change channel=9 control=4 value=72 time=21\n",
      "control_change channel=9 control=4 value=69 time=22\n",
      "control_change channel=9 control=4 value=66 time=13\n",
      "control_change channel=9 control=4 value=52 time=22\n",
      "control_change channel=9 control=4 value=38 time=22\n",
      "control_change channel=9 control=4 value=30 time=11\n",
      "control_change channel=9 control=4 value=43 time=22\n",
      "control_change channel=9 control=4 value=56 time=22\n",
      "control_change channel=9 control=4 value=69 time=22\n",
      "control_change channel=9 control=4 value=78 time=14\n",
      "control_change channel=9 control=4 value=84 time=22\n",
      "control_change channel=9 control=4 value=90 time=22\n",
      "control_change channel=9 control=4 value=86 time=21\n",
      "control_change channel=9 control=4 value=81 time=22\n",
      "control_change channel=9 control=4 value=76 time=22\n",
      "control_change channel=9 control=4 value=71 time=22\n",
      "control_change channel=9 control=4 value=66 time=21\n",
      "control_change channel=9 control=4 value=61 time=22\n",
      "control_change channel=9 control=4 value=58 time=12\n",
      "control_change channel=9 control=4 value=30 time=21\n",
      "control_change channel=9 control=4 value=2 time=22\n",
      "control_change channel=9 control=4 value=0 time=2\n",
      "control_change channel=9 control=4 value=13 time=21\n",
      "control_change channel=9 control=4 value=26 time=22\n",
      "control_change channel=9 control=4 value=39 time=22\n",
      "control_change channel=9 control=4 value=52 time=22\n",
      "control_change channel=9 control=4 value=65 time=21\n",
      "control_change channel=9 control=4 value=68 time=5\n",
      "control_change channel=9 control=4 value=78 time=22\n",
      "control_change channel=9 control=4 value=89 time=21\n",
      "control_change channel=9 control=4 value=90 time=0\n",
      "control_change channel=9 control=4 value=86 time=22\n",
      "control_change channel=9 control=4 value=81 time=22\n",
      "control_change channel=9 control=4 value=77 time=22\n",
      "control_change channel=9 control=4 value=72 time=21\n",
      "control_change channel=9 control=4 value=67 time=22\n",
      "control_change channel=9 control=4 value=63 time=22\n",
      "control_change channel=9 control=4 value=58 time=22\n",
      "control_change channel=9 control=4 value=54 time=17\n",
      "control_change channel=9 control=4 value=45 time=22\n",
      "control_change channel=9 control=4 value=36 time=21\n",
      "control_change channel=9 control=4 value=27 time=19\n",
      "control_change channel=9 control=4 value=42 time=22\n",
      "control_change channel=9 control=4 value=57 time=22\n",
      "control_change channel=9 control=4 value=71 time=20\n",
      "control_change channel=9 control=4 value=79 time=22\n",
      "control_change channel=9 control=4 value=88 time=22\n",
      "control_change channel=9 control=4 value=90 time=2\n",
      "control_change channel=9 control=4 value=86 time=22\n",
      "control_change channel=9 control=4 value=82 time=22\n",
      "control_change channel=9 control=4 value=77 time=22\n",
      "control_change channel=9 control=4 value=73 time=21\n",
      "control_change channel=9 control=4 value=69 time=22\n",
      "control_change channel=9 control=4 value=64 time=22\n",
      "control_change channel=9 control=4 value=60 time=20\n",
      "control_change channel=9 control=4 value=34 time=22\n",
      "control_change channel=9 control=4 value=7 time=22\n",
      "control_change channel=9 control=4 value=0 time=4\n",
      "control_change channel=9 control=4 value=14 time=22\n",
      "control_change channel=9 control=4 value=28 time=22\n",
      "control_change channel=9 control=4 value=42 time=21\n",
      "control_change channel=9 control=4 value=56 time=22\n",
      "control_change channel=9 control=4 value=70 time=22\n",
      "control_change channel=9 control=4 value=78 time=11\n",
      "control_change channel=9 control=4 value=84 time=22\n",
      "control_change channel=9 control=4 value=90 time=22\n",
      "control_change channel=9 control=4 value=86 time=22\n",
      "control_change channel=9 control=4 value=82 time=21\n",
      "control_change channel=9 control=4 value=78 time=22\n",
      "control_change channel=9 control=4 value=74 time=22\n",
      "control_change channel=9 control=4 value=70 time=22\n",
      "control_change channel=9 control=4 value=66 time=21\n",
      "control_change channel=9 control=4 value=62 time=21\n",
      "control_change channel=9 control=4 value=58 time=23\n",
      "control_change channel=9 control=4 value=56 time=6\n",
      "control_change channel=9 control=4 value=50 time=22\n",
      "control_change channel=9 control=4 value=43 time=21\n",
      "control_change channel=9 control=4 value=42 time=3\n",
      "control_change channel=9 control=4 value=55 time=22\n",
      "control_change channel=9 control=4 value=68 time=22\n",
      "control_change channel=9 control=4 value=79 time=17\n",
      "control_change channel=9 control=4 value=84 time=22\n",
      "control_change channel=9 control=4 value=90 time=22\n",
      "control_change channel=9 control=4 value=85 time=21\n",
      "control_change channel=9 control=4 value=80 time=22\n",
      "control_change channel=9 control=4 value=75 time=22\n",
      "control_change channel=9 control=4 value=69 time=22\n",
      "control_change channel=9 control=4 value=64 time=21\n",
      "control_change channel=9 control=4 value=59 time=22\n",
      "control_change channel=9 control=4 value=58 time=2\n",
      "control_change channel=9 control=4 value=31 time=21\n",
      "control_change channel=9 control=4 value=4 time=22\n",
      "control_change channel=9 control=4 value=0 time=3\n",
      "control_change channel=9 control=4 value=12 time=22\n",
      "control_change channel=9 control=4 value=24 time=21\n",
      "control_change channel=9 control=4 value=36 time=22\n",
      "control_change channel=9 control=4 value=48 time=22\n",
      "control_change channel=9 control=4 value=60 time=22\n",
      "control_change channel=9 control=4 value=68 time=14\n",
      "control_change channel=9 control=4 value=78 time=22\n",
      "control_change channel=9 control=4 value=89 time=22\n",
      "control_change channel=9 control=4 value=90 time=1\n",
      "control_change channel=9 control=4 value=87 time=22\n",
      "control_change channel=9 control=4 value=84 time=22\n",
      "control_change channel=9 control=4 value=81 time=21\n",
      "control_change channel=9 control=4 value=78 time=22\n",
      "control_change channel=9 control=4 value=75 time=22\n",
      "control_change channel=9 control=4 value=72 time=22\n",
      "control_change channel=9 control=4 value=68 time=21\n",
      "control_change channel=9 control=4 value=55 time=22\n",
      "control_change channel=9 control=4 value=42 time=22\n",
      "control_change channel=9 control=4 value=33 time=13\n",
      "control_change channel=9 control=4 value=45 time=22\n",
      "control_change channel=9 control=4 value=58 time=21\n",
      "control_change channel=9 control=4 value=71 time=22\n",
      "control_change channel=9 control=4 value=78 time=10\n",
      "control_change channel=9 control=4 value=84 time=22\n",
      "control_change channel=9 control=4 value=90 time=22\n",
      "control_change channel=9 control=4 value=85 time=22\n",
      "control_change channel=9 control=4 value=80 time=21\n",
      "control_change channel=9 control=4 value=75 time=22\n",
      "control_change channel=9 control=4 value=70 time=22\n",
      "control_change channel=9 control=4 value=65 time=22\n",
      "control_change channel=9 control=4 value=60 time=21\n",
      "control_change channel=9 control=4 value=58 time=9\n",
      "control_change channel=9 control=4 value=33 time=22\n",
      "control_change channel=9 control=4 value=8 time=22\n",
      "control_change channel=9 control=4 value=0 time=7\n",
      "control_change channel=9 control=4 value=14 time=22\n",
      "control_change channel=9 control=4 value=28 time=21\n",
      "control_change channel=9 control=4 value=42 time=22\n",
      "control_change channel=9 control=4 value=56 time=22\n",
      "control_change channel=9 control=4 value=70 time=22\n",
      "control_change channel=9 control=4 value=76 time=8\n",
      "control_change channel=9 control=4 value=83 time=22\n",
      "control_change channel=9 control=4 value=90 time=22\n",
      "control_change channel=9 control=4 value=86 time=21\n",
      "control_change channel=9 control=4 value=82 time=22\n",
      "control_change channel=9 control=4 value=77 time=22\n",
      "control_change channel=9 control=4 value=73 time=22\n",
      "control_change channel=9 control=4 value=68 time=20\n",
      "control_change channel=9 control=4 value=64 time=23\n",
      "control_change channel=9 control=4 value=60 time=22\n",
      "control_change channel=9 control=4 value=56 time=14\n",
      "control_change channel=9 control=4 value=46 time=22\n",
      "control_change channel=9 control=4 value=35 time=22\n",
      "control_change channel=9 control=4 value=26 time=17\n",
      "control_change channel=9 control=4 value=40 time=22\n",
      "control_change channel=9 control=4 value=55 time=22\n",
      "control_change channel=9 control=4 value=68 time=19\n",
      "control_change channel=9 control=4 value=78 time=21\n",
      "control_change channel=9 control=4 value=88 time=22\n",
      "control_change channel=9 control=4 value=90 time=3\n",
      "control_change channel=9 control=4 value=86 time=22\n",
      "control_change channel=9 control=4 value=81 time=22\n",
      "control_change channel=9 control=4 value=76 time=21\n",
      "control_change channel=9 control=4 value=71 time=22\n",
      "control_change channel=9 control=4 value=66 time=22\n",
      "control_change channel=9 control=4 value=61 time=22\n",
      "control_change channel=9 control=4 value=59 time=5\n",
      "control_change channel=9 control=4 value=34 time=22\n",
      "control_change channel=9 control=4 value=8 time=22\n",
      "control_change channel=9 control=4 value=0 time=6\n",
      "control_change channel=9 control=4 value=13 time=21\n",
      "control_change channel=9 control=4 value=26 time=22\n",
      "control_change channel=9 control=4 value=40 time=22\n",
      "control_change channel=9 control=4 value=53 time=22\n",
      "control_change channel=9 control=4 value=66 time=21\n",
      "control_change channel=9 control=4 value=77 time=18\n",
      "control_change channel=9 control=4 value=83 time=22\n",
      "control_change channel=9 control=4 value=90 time=21\n",
      "control_change channel=9 control=4 value=86 time=22\n",
      "control_change channel=9 control=4 value=82 time=22\n",
      "control_change channel=9 control=4 value=78 time=22\n",
      "control_change channel=9 control=4 value=74 time=21\n",
      "control_change channel=9 control=4 value=70 time=22\n",
      "control_change channel=9 control=4 value=66 time=22\n",
      "control_change channel=9 control=4 value=62 time=22\n",
      "control_change channel=9 control=4 value=58 time=21\n",
      "control_change channel=9 control=4 value=57 time=2\n",
      "control_change channel=9 control=4 value=51 time=22\n",
      "control_change channel=9 control=4 value=45 time=21\n",
      "control_change channel=9 control=4 value=42 time=9\n",
      "control_change channel=9 control=4 value=51 time=22\n",
      "control_change channel=9 control=4 value=61 time=22\n",
      "control_change channel=9 control=4 value=68 time=15\n",
      "control_change channel=9 control=4 value=77 time=22\n",
      "control_change channel=9 control=4 value=86 time=22\n",
      "control_change channel=9 control=4 value=90 time=7\n",
      "control_change channel=9 control=4 value=86 time=22\n",
      "control_change channel=9 control=4 value=81 time=22\n",
      "control_change channel=9 control=4 value=76 time=21\n",
      "control_change channel=9 control=4 value=72 time=22\n",
      "control_change channel=9 control=4 value=67 time=22\n",
      "control_change channel=9 control=4 value=62 time=22\n",
      "control_change channel=9 control=4 value=58 time=19\n",
      "control_change channel=9 control=4 value=30 time=21\n",
      "control_change channel=9 control=4 value=2 time=22\n",
      "control_change channel=9 control=4 value=0 time=2\n",
      "control_change channel=9 control=4 value=12 time=21\n",
      "control_change channel=9 control=4 value=25 time=22\n",
      "control_change channel=9 control=4 value=37 time=22\n",
      "control_change channel=9 control=4 value=50 time=22\n",
      "control_change channel=9 control=4 value=62 time=21\n",
      "control_change channel=9 control=4 value=70 time=13\n",
      "control_change channel=9 control=4 value=79 time=22\n",
      "control_change channel=9 control=4 value=89 time=22\n",
      "control_change channel=9 control=4 value=90 time=0\n",
      "control_change channel=9 control=4 value=87 time=43\n",
      "control_change channel=9 control=4 value=83 time=44\n",
      "control_change channel=9 control=4 value=80 time=43\n",
      "control_change channel=9 control=4 value=78 time=15\n",
      "control_change channel=9 control=4 value=72 time=22\n",
      "control_change channel=9 control=4 value=66 time=21\n",
      "control_change channel=9 control=4 value=62 time=10\n",
      "control_change channel=9 control=4 value=54 time=22\n",
      "control_change channel=9 control=4 value=45 time=22\n",
      "control_change channel=9 control=4 value=44 time=1\n",
      "control_change channel=9 control=4 value=55 time=22\n",
      "control_change channel=9 control=4 value=66 time=22\n",
      "control_change channel=9 control=4 value=77 time=20\n",
      "control_change channel=9 control=4 value=83 time=22\n",
      "control_change channel=9 control=4 value=90 time=22\n",
      "control_change channel=9 control=4 value=85 time=43\n",
      "control_change channel=9 control=4 value=80 time=44\n",
      "control_change channel=9 control=4 value=74 time=43\n",
      "control_change channel=9 control=4 value=44 time=22\n",
      "control_change channel=9 control=4 value=14 time=22\n",
      "control_change channel=9 control=4 value=0 time=10\n",
      "control_change channel=9 control=4 value=13 time=22\n",
      "control_change channel=9 control=4 value=26 time=21\n",
      "control_change channel=9 control=4 value=40 time=22\n",
      "control_change channel=9 control=4 value=53 time=22\n",
      "control_change channel=9 control=4 value=66 time=22\n",
      "control_change channel=9 control=4 value=73 time=10\n",
      "control_change channel=9 control=4 value=81 time=22\n",
      "control_change channel=9 control=4 value=90 time=21\n",
      "control_change channel=9 control=4 value=88 time=44\n",
      "control_change channel=9 control=4 value=85 time=43\n",
      "control_change channel=9 control=4 value=82 time=44\n",
      "control_change channel=9 control=4 value=80 time=17\n",
      "control_change channel=9 control=4 value=73 time=22\n",
      "control_change channel=9 control=4 value=65 time=22\n",
      "control_change channel=9 control=4 value=63 time=5\n",
      "control_change channel=9 control=4 value=68 time=44\n",
      "control_change channel=9 control=4 value=71 time=16\n",
      "control_change channel=9 control=4 value=77 time=22\n",
      "control_change channel=9 control=4 value=83 time=21\n",
      "control_change channel=9 control=4 value=89 time=22\n",
      "control_change channel=9 control=4 value=90 time=2\n",
      "control_change channel=9 control=4 value=87 time=21\n",
      "control_change channel=9 control=4 value=84 time=22\n",
      "control_change channel=9 control=4 value=81 time=22\n",
      "control_change channel=9 control=4 value=78 time=22\n",
      "control_change channel=9 control=4 value=75 time=21\n",
      "control_change channel=9 control=4 value=72 time=22\n",
      "control_change channel=9 control=4 value=68 time=22\n",
      "control_change channel=9 control=4 value=65 time=22\n",
      "control_change channel=9 control=4 value=62 time=21\n",
      "control_change channel=9 control=4 value=61 time=5\n",
      "control_change channel=9 control=4 value=35 time=21\n",
      "control_change channel=9 control=4 value=8 time=22\n",
      "control_change channel=9 control=4 value=0 time=6\n",
      "control_change channel=9 control=4 value=13 time=22\n",
      "control_change channel=9 control=4 value=27 time=22\n",
      "control_change channel=9 control=4 value=40 time=21\n",
      "control_change channel=9 control=4 value=54 time=22\n",
      "control_change channel=9 control=4 value=68 time=22\n",
      "control_change channel=9 control=4 value=76 time=13\n",
      "control_change channel=9 control=4 value=83 time=22\n",
      "control_change channel=9 control=4 value=90 time=21\n",
      "control_change channel=9 control=4 value=86 time=22\n",
      "control_change channel=9 control=4 value=82 time=22\n",
      "control_change channel=9 control=4 value=78 time=22\n",
      "control_change channel=9 control=4 value=74 time=21\n",
      "control_change channel=9 control=4 value=70 time=22\n",
      "control_change channel=9 control=4 value=66 time=22\n",
      "control_change channel=9 control=4 value=62 time=22\n",
      "control_change channel=9 control=4 value=58 time=21\n",
      "control_change channel=9 control=4 value=57 time=5\n",
      "control_change channel=9 control=4 value=47 time=21\n",
      "control_change channel=9 control=4 value=37 time=22\n",
      "control_change channel=9 control=4 value=28 time=19\n",
      "control_change channel=9 control=4 value=43 time=22\n",
      "control_change channel=9 control=4 value=59 time=22\n",
      "control_change channel=9 control=4 value=75 time=21\n",
      "control_change channel=9 control=4 value=78 time=5\n",
      "control_change channel=9 control=4 value=84 time=21\n",
      "control_change channel=9 control=4 value=90 time=22\n",
      "control_change channel=9 control=4 value=85 time=22\n",
      "control_change channel=9 control=4 value=80 time=22\n",
      "control_change channel=9 control=4 value=75 time=21\n",
      "control_change channel=9 control=4 value=70 time=22\n",
      "control_change channel=9 control=4 value=65 time=22\n",
      "control_change channel=9 control=4 value=60 time=22\n",
      "control_change channel=9 control=4 value=58 time=8\n",
      "control_change channel=9 control=4 value=30 time=22\n",
      "control_change channel=9 control=4 value=0 time=22\n",
      "control_change channel=9 control=4 value=1 time=0\n",
      "control_change channel=9 control=4 value=14 time=22\n",
      "control_change channel=9 control=4 value=28 time=21\n",
      "control_change channel=9 control=4 value=42 time=22\n",
      "control_change channel=9 control=4 value=56 time=22\n",
      "control_change channel=9 control=4 value=70 time=22\n",
      "control_change channel=9 control=4 value=78 time=13\n",
      "control_change channel=9 control=4 value=84 time=21\n",
      "control_change channel=9 control=4 value=90 time=22\n",
      "control_change channel=9 control=4 value=86 time=22\n",
      "control_change channel=9 control=4 value=81 time=22\n",
      "control_change channel=9 control=4 value=77 time=21\n",
      "control_change channel=9 control=4 value=72 time=22\n",
      "control_change channel=9 control=4 value=68 time=22\n",
      "control_change channel=9 control=4 value=63 time=22\n",
      "control_change channel=9 control=4 value=59 time=21\n",
      "control_change channel=9 control=4 value=54 time=22\n",
      "control_change channel=9 control=4 value=50 time=22\n",
      "control_change channel=9 control=4 value=45 time=22\n",
      "control_change channel=9 control=4 value=42 time=8\n",
      "control_change channel=9 control=4 value=50 time=22\n",
      "control_change channel=9 control=4 value=59 time=22\n",
      "control_change channel=9 control=4 value=67 time=20\n",
      "control_change channel=9 control=4 value=76 time=22\n",
      "control_change channel=9 control=4 value=86 time=22\n",
      "control_change channel=9 control=4 value=90 time=7\n",
      "control_change channel=9 control=4 value=86 time=22\n",
      "control_change channel=9 control=4 value=82 time=21\n",
      "control_change channel=9 control=4 value=77 time=22\n",
      "control_change channel=9 control=4 value=73 time=22\n",
      "control_change channel=9 control=4 value=69 time=22\n",
      "control_change channel=9 control=4 value=64 time=21\n",
      "control_change channel=9 control=4 value=60 time=22\n",
      "control_change channel=9 control=4 value=59 time=3\n",
      "control_change channel=9 control=4 value=33 time=22\n",
      "control_change channel=9 control=4 value=6 time=22\n",
      "control_change channel=9 control=4 value=0 time=4\n",
      "control_change channel=9 control=4 value=13 time=22\n",
      "control_change channel=9 control=4 value=27 time=21\n",
      "control_change channel=9 control=4 value=40 time=22\n",
      "control_change channel=9 control=4 value=54 time=22\n",
      "control_change channel=9 control=4 value=67 time=22\n",
      "control_change channel=9 control=4 value=71 time=5\n",
      "control_change channel=9 control=4 value=80 time=22\n",
      "control_change channel=9 control=4 value=89 time=22\n",
      "control_change channel=9 control=4 value=90 time=0\n",
      "control_change channel=9 control=4 value=87 time=22\n",
      "control_change channel=9 control=4 value=84 time=21\n",
      "control_change channel=9 control=4 value=81 time=22\n",
      "control_change channel=9 control=4 value=78 time=22\n",
      "control_change channel=9 control=4 value=75 time=22\n",
      "control_change channel=9 control=4 value=72 time=21\n",
      "control_change channel=9 control=4 value=69 time=22\n",
      "control_change channel=9 control=4 value=67 time=10\n",
      "control_change channel=9 control=4 value=57 time=22\n",
      "control_change channel=9 control=4 value=47 time=22\n",
      "control_change channel=9 control=4 value=40 time=22\n",
      "control_change channel=9 control=4 value=32 time=21\n",
      "control_change channel=9 control=4 value=30 time=3\n",
      "control_change channel=9 control=4 value=48 time=22\n",
      "control_change channel=9 control=4 value=67 time=22\n",
      "control_change channel=9 control=4 value=78 time=11\n",
      "control_change channel=9 control=4 value=84 time=22\n",
      "control_change channel=9 control=4 value=90 time=22\n",
      "control_change channel=9 control=4 value=86 time=22\n",
      "control_change channel=9 control=4 value=81 time=21\n",
      "control_change channel=9 control=4 value=76 time=22\n",
      "control_change channel=9 control=4 value=71 time=22\n",
      "control_change channel=9 control=4 value=67 time=22\n",
      "control_change channel=9 control=4 value=62 time=21\n",
      "control_change channel=9 control=4 value=58 time=16\n",
      "control_change channel=9 control=4 value=30 time=22\n",
      "control_change channel=9 control=4 value=2 time=22\n",
      "control_change channel=9 control=4 value=0 time=1\n",
      "control_change channel=9 control=4 value=13 time=22\n",
      "control_change channel=9 control=4 value=26 time=22\n",
      "control_change channel=9 control=4 value=39 time=21\n",
      "control_change channel=9 control=4 value=52 time=22\n",
      "control_change channel=9 control=4 value=65 time=22\n",
      "control_change channel=9 control=4 value=69 time=7\n",
      "control_change channel=9 control=4 value=79 time=22\n",
      "control_change channel=9 control=4 value=89 time=22\n",
      "control_change channel=9 control=4 value=90 time=0\n",
      "control_change channel=9 control=4 value=86 time=43\n",
      "control_change channel=9 control=4 value=81 time=44\n",
      "control_change channel=9 control=4 value=77 time=43\n",
      "control_change channel=9 control=4 value=76 time=2\n",
      "control_change channel=9 control=4 value=62 time=21\n",
      "control_change channel=9 control=4 value=47 time=22\n",
      "control_change channel=9 control=4 value=38 time=13\n",
      "control_change channel=9 control=4 value=32 time=22\n",
      "control_change channel=9 control=4 value=25 time=22\n",
      "control_change channel=9 control=4 value=23 time=4\n",
      "control_change channel=9 control=4 value=42 time=22\n",
      "control_change channel=9 control=4 value=61 time=22\n",
      "control_change channel=9 control=4 value=68 time=7\n",
      "control_change channel=9 control=4 value=78 time=22\n",
      "control_change channel=9 control=4 value=88 time=21\n",
      "control_change channel=9 control=4 value=90 time=5\n",
      "control_change channel=9 control=4 value=87 time=21\n",
      "control_change channel=9 control=4 value=83 time=22\n",
      "control_change channel=9 control=4 value=79 time=22\n",
      "control_change channel=9 control=4 value=75 time=22\n",
      "control_change channel=9 control=4 value=71 time=21\n",
      "control_change channel=9 control=4 value=68 time=22\n",
      "control_change channel=9 control=4 value=64 time=22\n",
      "control_change channel=9 control=4 value=60 time=22\n",
      "control_change channel=9 control=4 value=59 time=3\n",
      "control_change channel=9 control=4 value=36 time=21\n",
      "control_change channel=9 control=4 value=12 time=22\n",
      "control_change channel=9 control=4 value=0 time=10\n",
      "control_change channel=9 control=4 value=15 time=22\n",
      "control_change channel=9 control=4 value=30 time=22\n",
      "control_change channel=9 control=4 value=45 time=21\n",
      "control_change channel=9 control=4 value=60 time=22\n",
      "control_change channel=9 control=4 value=73 time=19\n",
      "control_change channel=9 control=4 value=81 time=22\n",
      "control_change channel=9 control=4 value=90 time=22\n",
      "control_change channel=9 control=4 value=89 time=43\n",
      "control_change channel=9 control=4 value=87 time=44\n",
      "control_change channel=9 control=4 value=85 time=43\n",
      "control_change channel=9 control=4 value=82 time=44\n",
      "control_change channel=9 control=4 value=83 time=0\n",
      "control_change channel=9 control=4 value=75 time=23\n",
      "control_change channel=9 control=4 value=67 time=22\n",
      "control_change channel=9 control=4 value=65 time=2\n",
      "control_change channel=9 control=4 value=69 time=44\n",
      "control_change channel=9 control=4 value=72 time=19\n",
      "control_change channel=9 control=4 value=79 time=22\n",
      "control_change channel=9 control=4 value=86 time=21\n",
      "control_change channel=9 control=4 value=90 time=9\n",
      "control_change channel=9 control=4 value=86 time=22\n",
      "control_change channel=9 control=4 value=82 time=21\n",
      "control_change channel=9 control=4 value=78 time=22\n",
      "control_change channel=9 control=4 value=74 time=22\n",
      "control_change channel=9 control=4 value=70 time=22\n",
      "control_change channel=9 control=4 value=65 time=21\n",
      "control_change channel=9 control=4 value=61 time=22\n",
      "control_change channel=9 control=4 value=59 time=9\n",
      "control_change channel=9 control=4 value=32 time=22\n",
      "control_change channel=9 control=4 value=4 time=21\n",
      "control_change channel=9 control=4 value=0 time=3\n",
      "control_change channel=9 control=4 value=12 time=22\n",
      "control_change channel=9 control=4 value=25 time=22\n",
      "control_change channel=9 control=4 value=38 time=22\n",
      "control_change channel=9 control=4 value=51 time=21\n",
      "control_change channel=9 control=4 value=64 time=22\n",
      "control_change channel=9 control=4 value=68 time=6\n",
      "control_change channel=9 control=4 value=78 time=22\n",
      "control_change channel=9 control=4 value=89 time=21\n",
      "control_change channel=9 control=4 value=90 time=2\n",
      "control_change channel=9 control=4 value=85 time=43\n",
      "control_change channel=9 control=4 value=80 time=44\n",
      "control_change channel=9 control=4 value=75 time=42\n",
      "control_change channel=9 control=4 value=59 time=22\n",
      "control_change channel=9 control=4 value=43 time=21\n",
      "control_change channel=9 control=4 value=35 time=11\n",
      "control_change channel=9 control=4 value=29 time=21\n",
      "control_change channel=9 control=4 value=23 time=22\n",
      "control_change channel=9 control=4 value=21 time=4\n",
      "control_change channel=9 control=4 value=41 time=22\n",
      "control_change channel=9 control=4 value=62 time=22\n",
      "control_change channel=9 control=4 value=78 time=17\n",
      "control_change channel=9 control=4 value=84 time=22\n",
      "control_change channel=9 control=4 value=90 time=22\n",
      "control_change channel=9 control=4 value=86 time=22\n",
      "control_change channel=9 control=4 value=81 time=21\n",
      "control_change channel=9 control=4 value=76 time=22\n",
      "control_change channel=9 control=4 value=71 time=22\n",
      "control_change channel=9 control=4 value=66 time=22\n",
      "control_change channel=9 control=4 value=61 time=21\n",
      "control_change channel=9 control=4 value=58 time=12\n",
      "control_change channel=9 control=4 value=31 time=22\n",
      "control_change channel=9 control=4 value=4 time=21\n",
      "control_change channel=9 control=4 value=0 time=3\n",
      "control_change channel=9 control=4 value=14 time=22\n",
      "control_change channel=9 control=4 value=28 time=22\n",
      "control_change channel=9 control=4 value=42 time=22\n",
      "control_change channel=9 control=4 value=56 time=21\n",
      "control_change channel=9 control=4 value=69 time=21\n",
      "control_change channel=9 control=4 value=79 time=21\n",
      "control_change channel=9 control=4 value=90 time=22\n",
      "control_change channel=9 control=4 value=85 time=44\n",
      "control_change channel=9 control=4 value=79 time=43\n",
      "control_change channel=9 control=4 value=73 time=44\n",
      "control_change channel=9 control=4 value=68 time=31\n",
      "control_change channel=9 control=4 value=57 time=22\n",
      "control_change channel=9 control=4 value=45 time=22\n",
      "control_change channel=9 control=4 value=35 time=17\n",
      "control_change channel=9 control=4 value=45 time=22\n",
      "control_change channel=9 control=4 value=56 time=22\n",
      "control_change channel=9 control=4 value=66 time=22\n",
      "control_change channel=9 control=4 value=68 time=3\n",
      "control_change channel=9 control=4 value=78 time=21\n",
      "control_change channel=9 control=4 value=88 time=22\n",
      "control_change channel=9 control=4 value=90 time=4\n",
      "control_change channel=9 control=4 value=86 time=44\n",
      "control_change channel=9 control=4 value=82 time=43\n",
      "control_change channel=9 control=4 value=77 time=44\n",
      "control_change channel=9 control=4 value=74 time=27\n",
      "control_change channel=9 control=4 value=42 time=22\n",
      "control_change channel=9 control=4 value=10 time=22\n",
      "control_change channel=9 control=4 value=0 time=6\n",
      "control_change channel=9 control=4 value=16 time=21\n",
      "control_change channel=9 control=4 value=32 time=22\n",
      "control_change channel=9 control=4 value=48 time=22\n",
      "control_change channel=9 control=4 value=64 time=22\n",
      "control_change channel=9 control=4 value=76 time=16\n",
      "control_change channel=9 control=4 value=83 time=21\n",
      "control_change channel=9 control=4 value=90 time=22\n",
      "control_change channel=9 control=4 value=87 time=22\n",
      "control_change channel=9 control=4 value=84 time=22\n",
      "control_change channel=9 control=4 value=80 time=21\n",
      "control_change channel=9 control=4 value=77 time=22\n",
      "control_change channel=9 control=4 value=73 time=22\n",
      "control_change channel=9 control=4 value=70 time=22\n",
      "control_change channel=9 control=4 value=66 time=21\n",
      "control_change channel=9 control=4 value=67 time=0\n",
      "control_change channel=9 control=4 value=51 time=22\n",
      "control_change channel=9 control=4 value=35 time=22\n",
      "control_change channel=9 control=4 value=26 time=12\n",
      "control_change channel=9 control=4 value=39 time=21\n",
      "control_change channel=9 control=4 value=53 time=22\n",
      "control_change channel=9 control=4 value=67 time=22\n",
      "control_change channel=9 control=4 value=70 time=4\n",
      "control_change channel=9 control=4 value=79 time=22\n",
      "control_change channel=9 control=4 value=88 time=22\n",
      "control_change channel=9 control=4 value=90 time=4\n",
      "control_change channel=9 control=4 value=87 time=22\n",
      "control_change channel=9 control=4 value=84 time=21\n",
      "control_change channel=9 control=4 value=80 time=22\n",
      "control_change channel=9 control=4 value=77 time=22\n",
      "control_change channel=9 control=4 value=73 time=22\n",
      "control_change channel=9 control=4 value=70 time=21\n",
      "control_change channel=9 control=4 value=66 time=22\n",
      "control_change channel=9 control=4 value=63 time=18\n",
      "control_change channel=9 control=4 value=37 time=21\n",
      "control_change channel=9 control=4 value=11 time=22\n",
      "control_change channel=9 control=4 value=0 time=9\n",
      "control_change channel=9 control=4 value=13 time=22\n",
      "control_change channel=9 control=4 value=27 time=21\n",
      "control_change channel=9 control=4 value=41 time=22\n",
      "control_change channel=9 control=4 value=55 time=22\n",
      "control_change channel=9 control=4 value=69 time=22\n",
      "control_change channel=9 control=4 value=71 time=1\n",
      "control_change channel=9 control=4 value=80 time=22\n",
      "control_change channel=9 control=4 value=89 time=22\n",
      "control_change channel=9 control=4 value=90 time=0\n",
      "control_change channel=9 control=4 value=87 time=23\n",
      "control_change channel=9 control=4 value=83 time=21\n",
      "control_change channel=9 control=4 value=79 time=22\n",
      "control_change channel=9 control=4 value=75 time=22\n",
      "control_change channel=9 control=4 value=71 time=22\n",
      "control_change channel=9 control=4 value=67 time=21\n",
      "control_change channel=9 control=4 value=63 time=22\n",
      "control_change channel=9 control=4 value=59 time=19\n",
      "control_change channel=9 control=4 value=49 time=22\n",
      "control_change channel=9 control=4 value=38 time=22\n",
      "control_change channel=9 control=4 value=28 time=18\n",
      "control_change channel=9 control=4 value=46 time=22\n",
      "control_change channel=9 control=4 value=64 time=22\n",
      "control_change channel=9 control=4 value=78 time=16\n",
      "control_change channel=9 control=4 value=84 time=22\n",
      "control_change channel=9 control=4 value=90 time=21\n",
      "control_change channel=9 control=4 value=86 time=22\n",
      "control_change channel=9 control=4 value=81 time=22\n",
      "control_change channel=9 control=4 value=76 time=22\n",
      "control_change channel=9 control=4 value=71 time=21\n",
      "control_change channel=9 control=4 value=66 time=22\n",
      "control_change channel=9 control=4 value=62 time=22\n",
      "control_change channel=9 control=4 value=58 time=14\n",
      "control_change channel=9 control=4 value=31 time=22\n",
      "control_change channel=9 control=4 value=4 time=22\n",
      "control_change channel=9 control=4 value=0 time=3\n",
      "control_change channel=9 control=4 value=12 time=22\n",
      "control_change channel=9 control=4 value=25 time=21\n",
      "control_change channel=9 control=4 value=38 time=22\n",
      "control_change channel=9 control=4 value=50 time=22\n",
      "control_change channel=9 control=4 value=63 time=22\n",
      "control_change channel=9 control=4 value=71 time=13\n",
      "control_change channel=9 control=4 value=80 time=21\n",
      "control_change channel=9 control=4 value=89 time=22\n",
      "control_change channel=9 control=4 value=90 time=0\n",
      "control_change channel=9 control=4 value=87 time=22\n",
      "control_change channel=9 control=4 value=83 time=22\n",
      "control_change channel=9 control=4 value=79 time=21\n",
      "control_change channel=9 control=4 value=75 time=22\n",
      "control_change channel=9 control=4 value=72 time=22\n",
      "control_change channel=9 control=4 value=68 time=22\n",
      "control_change channel=9 control=4 value=64 time=21\n",
      "control_change channel=9 control=4 value=63 time=5\n",
      "control_change channel=9 control=4 value=49 time=21\n",
      "control_change channel=9 control=4 value=35 time=22\n",
      "control_change channel=9 control=4 value=26 time=15\n",
      "control_change channel=9 control=4 value=39 time=21\n",
      "control_change channel=9 control=4 value=53 time=22\n",
      "control_change channel=9 control=4 value=67 time=22\n",
      "control_change channel=9 control=4 value=68 time=1\n",
      "control_change channel=9 control=4 value=78 time=22\n",
      "control_change channel=9 control=4 value=88 time=22\n",
      "control_change channel=9 control=4 value=90 time=3\n",
      "control_change channel=9 control=4 value=86 time=22\n",
      "control_change channel=9 control=4 value=81 time=21\n",
      "control_change channel=9 control=4 value=76 time=22\n",
      "control_change channel=9 control=4 value=72 time=22\n",
      "control_change channel=9 control=4 value=67 time=22\n",
      "control_change channel=9 control=4 value=62 time=21\n",
      "control_change channel=9 control=4 value=59 time=13\n",
      "control_change channel=9 control=4 value=37 time=22\n",
      "control_change channel=9 control=4 value=14 time=22\n",
      "control_change channel=9 control=4 value=0 time=13\n",
      "control_change channel=9 control=4 value=11 time=22\n",
      "control_change channel=9 control=4 value=23 time=21\n",
      "control_change channel=9 control=4 value=34 time=22\n",
      "control_change channel=9 control=4 value=46 time=22\n",
      "control_change channel=9 control=4 value=58 time=22\n",
      "control_change channel=9 control=4 value=68 time=17\n",
      "control_change channel=9 control=4 value=78 time=22\n",
      "control_change channel=9 control=4 value=89 time=22\n",
      "control_change channel=9 control=4 value=90 time=0\n",
      "control_change channel=9 control=4 value=87 time=23\n",
      "control_change channel=9 control=4 value=84 time=21\n",
      "control_change channel=9 control=4 value=81 time=22\n",
      "control_change channel=9 control=4 value=78 time=22\n",
      "control_change channel=9 control=4 value=75 time=22\n",
      "control_change channel=9 control=4 value=72 time=21\n",
      "control_change channel=9 control=4 value=69 time=22\n",
      "control_change channel=9 control=4 value=68 time=7\n",
      "control_change channel=9 control=4 value=59 time=22\n",
      "control_change channel=9 control=4 value=50 time=22\n",
      "control_change channel=9 control=4 value=41 time=20\n",
      "control_change channel=9 control=4 value=54 time=22\n",
      "control_change channel=9 control=4 value=67 time=22\n",
      "control_change channel=9 control=4 value=79 time=19\n",
      "control_change channel=9 control=4 value=84 time=21\n",
      "control_change channel=9 control=4 value=90 time=22\n",
      "control_change channel=9 control=4 value=85 time=22\n",
      "control_change channel=9 control=4 value=80 time=22\n",
      "control_change channel=9 control=4 value=75 time=21\n",
      "control_change channel=9 control=4 value=69 time=22\n",
      "control_change channel=9 control=4 value=64 time=22\n",
      "control_change channel=9 control=4 value=59 time=22\n",
      "control_change channel=9 control=4 value=58 time=1\n",
      "control_change channel=9 control=4 value=34 time=22\n",
      "control_change channel=9 control=4 value=9 time=22\n",
      "control_change channel=9 control=4 value=0 time=7\n",
      "control_change channel=9 control=4 value=12 time=22\n",
      "control_change channel=9 control=4 value=24 time=21\n",
      "control_change channel=9 control=4 value=36 time=22\n",
      "control_change channel=9 control=4 value=49 time=22\n",
      "control_change channel=9 control=4 value=61 time=22\n",
      "control_change channel=9 control=4 value=71 time=17\n",
      "control_change channel=9 control=4 value=80 time=22\n",
      "control_change channel=9 control=4 value=89 time=21\n",
      "control_change channel=9 control=4 value=90 time=0\n",
      "control_change channel=9 control=4 value=86 time=22\n",
      "control_change channel=9 control=4 value=81 time=22\n",
      "control_change channel=9 control=4 value=76 time=22\n",
      "control_change channel=9 control=4 value=72 time=21\n",
      "control_change channel=9 control=4 value=67 time=22\n",
      "control_change channel=9 control=4 value=62 time=22\n",
      "control_change channel=9 control=4 value=57 time=22\n",
      "control_change channel=9 control=4 value=53 time=17\n",
      "control_change channel=9 control=4 value=41 time=22\n",
      "control_change channel=9 control=4 value=29 time=22\n",
      "control_change channel=9 control=4 value=21 time=14\n",
      "control_change channel=9 control=4 value=40 time=22\n",
      "control_change channel=9 control=4 value=59 time=22\n",
      "control_change channel=9 control=4 value=78 time=20\n",
      "control_change channel=9 control=4 value=84 time=22\n",
      "control_change channel=9 control=4 value=90 time=21\n",
      "control_change channel=9 control=4 value=85 time=22\n",
      "control_change channel=9 control=4 value=80 time=22\n",
      "control_change channel=9 control=4 value=75 time=22\n",
      "control_change channel=9 control=4 value=70 time=21\n",
      "control_change channel=9 control=4 value=65 time=22\n",
      "control_change channel=9 control=4 value=60 time=22\n",
      "control_change channel=9 control=4 value=59 time=4\n",
      "control_change channel=9 control=4 value=35 time=22\n",
      "control_change channel=9 control=4 value=10 time=20\n",
      "control_change channel=9 control=4 value=0 time=10\n",
      "control_change channel=9 control=4 value=12 time=22\n",
      "control_change channel=9 control=4 value=25 time=22\n",
      "control_change channel=9 control=4 value=37 time=22\n",
      "control_change channel=9 control=4 value=50 time=21\n",
      "control_change channel=9 control=4 value=62 time=22\n",
      "control_change channel=9 control=4 value=68 time=9\n",
      "control_change channel=9 control=4 value=78 time=22\n",
      "control_change channel=9 control=4 value=89 time=21\n",
      "control_change channel=9 control=4 value=90 time=2\n",
      "control_change channel=9 control=4 value=86 time=43\n",
      "control_change channel=9 control=4 value=81 time=44\n",
      "control_change channel=9 control=4 value=77 time=35\n",
      "control_change channel=9 control=4 value=65 time=21\n",
      "control_change channel=9 control=4 value=53 time=22\n",
      "control_change channel=9 control=4 value=45 time=15\n",
      "control_change channel=9 control=4 value=52 time=21\n",
      "control_change channel=9 control=4 value=60 time=22\n",
      "control_change channel=9 control=4 value=68 time=22\n",
      "control_change channel=9 control=4 value=74 time=16\n",
      "control_change channel=9 control=4 value=81 time=22\n",
      "control_change channel=9 control=4 value=89 time=21\n",
      "control_change channel=9 control=4 value=90 time=3\n",
      "control_change channel=9 control=4 value=86 time=22\n",
      "control_change channel=9 control=4 value=82 time=22\n",
      "control_change channel=9 control=4 value=78 time=22\n",
      "control_change channel=9 control=4 value=73 time=21\n",
      "control_change channel=9 control=4 value=69 time=22\n",
      "control_change channel=9 control=4 value=65 time=22\n",
      "control_change channel=9 control=4 value=60 time=22\n",
      "control_change channel=9 control=4 value=58 time=10\n",
      "control_change channel=9 control=4 value=34 time=21\n",
      "control_change channel=9 control=4 value=9 time=22\n",
      "control_change channel=9 control=4 value=0 time=7\n",
      "control_change channel=9 control=4 value=11 time=22\n",
      "control_change channel=9 control=4 value=23 time=22\n",
      "control_change channel=9 control=4 value=34 time=22\n",
      "control_change channel=9 control=4 value=46 time=21\n",
      "control_change channel=9 control=4 value=57 time=22\n",
      "control_change channel=9 control=4 value=68 time=19\n",
      "control_change channel=9 control=4 value=78 time=22\n",
      "control_change channel=9 control=4 value=89 time=22\n",
      "control_change channel=9 control=4 value=90 time=1\n",
      "control_change channel=9 control=4 value=87 time=22\n",
      "control_change channel=9 control=4 value=83 time=21\n",
      "control_change channel=9 control=4 value=79 time=22\n",
      "control_change channel=9 control=4 value=75 time=22\n",
      "control_change channel=9 control=4 value=71 time=22\n",
      "control_change channel=9 control=4 value=67 time=21\n",
      "control_change channel=9 control=4 value=64 time=22\n",
      "control_change channel=9 control=4 value=60 time=22\n",
      "control_change channel=9 control=4 value=58 time=7\n",
      "control_change channel=9 control=4 value=47 time=22\n",
      "control_change channel=9 control=4 value=36 time=22\n",
      "control_change channel=9 control=4 value=28 time=16\n",
      "control_change channel=9 control=4 value=42 time=21\n",
      "control_change channel=9 control=4 value=57 time=22\n",
      "control_change channel=9 control=4 value=72 time=22\n",
      "control_change channel=9 control=4 value=76 time=4\n",
      "control_change channel=9 control=4 value=83 time=23\n",
      "control_change channel=9 control=4 value=90 time=22\n",
      "control_change channel=9 control=4 value=86 time=22\n",
      "control_change channel=9 control=4 value=81 time=22\n",
      "control_change channel=9 control=4 value=77 time=21\n",
      "control_change channel=9 control=4 value=72 time=22\n",
      "control_change channel=9 control=4 value=68 time=22\n",
      "control_change channel=9 control=4 value=63 time=22\n",
      "control_change channel=9 control=4 value=59 time=17\n",
      "control_change channel=9 control=4 value=32 time=22\n",
      "control_change channel=9 control=4 value=5 time=22\n",
      "control_change channel=9 control=4 value=0 time=3\n",
      "control_change channel=9 control=4 value=14 time=21\n",
      "control_change channel=9 control=4 value=28 time=22\n",
      "control_change channel=9 control=4 value=42 time=22\n",
      "control_change channel=9 control=4 value=56 time=22\n",
      "control_change channel=9 control=4 value=70 time=21\n",
      "control_change channel=9 control=4 value=78 time=12\n",
      "control_change channel=9 control=4 value=84 time=22\n",
      "control_change channel=9 control=4 value=90 time=21\n",
      "control_change channel=9 control=4 value=85 time=44\n",
      "control_change channel=9 control=4 value=80 time=43\n",
      "control_change channel=9 control=4 value=75 time=44\n",
      "control_change channel=9 control=4 value=71 time=33\n",
      "control_change channel=9 control=4 value=64 time=22\n",
      "control_change channel=9 control=4 value=56 time=22\n",
      "control_change channel=9 control=4 value=54 time=3\n",
      "control_change channel=9 control=4 value=59 time=43\n",
      "control_change channel=9 control=4 value=63 time=23\n",
      "control_change channel=9 control=4 value=74 time=22\n",
      "control_change channel=9 control=4 value=85 time=22\n",
      "control_change channel=9 control=4 value=90 time=9\n",
      "control_change channel=9 control=4 value=86 time=21\n",
      "control_change channel=9 control=4 value=82 time=22\n",
      "control_change channel=9 control=4 value=77 time=22\n",
      "control_change channel=9 control=4 value=73 time=22\n",
      "control_change channel=9 control=4 value=68 time=21\n",
      "control_change channel=9 control=4 value=64 time=22\n",
      "control_change channel=9 control=4 value=59 time=22\n",
      "control_change channel=9 control=4 value=58 time=3\n",
      "control_change channel=9 control=4 value=30 time=21\n",
      "control_change channel=9 control=4 value=0 time=22\n",
      "control_change channel=9 control=4 value=1 time=0\n",
      "control_change channel=9 control=4 value=13 time=23\n",
      "control_change channel=9 control=4 value=26 time=22\n",
      "control_change channel=9 control=4 value=39 time=22\n",
      "control_change channel=9 control=4 value=52 time=22\n",
      "control_change channel=9 control=4 value=66 time=21\n",
      "control_change channel=9 control=4 value=71 time=8\n",
      "control_change channel=9 control=4 value=80 time=21\n",
      "control_change channel=9 control=4 value=89 time=22\n",
      "control_change channel=9 control=4 value=90 time=0\n",
      "control_change channel=9 control=4 value=87 time=23\n",
      "control_change channel=9 control=4 value=83 time=22\n",
      "control_change channel=9 control=4 value=79 time=22\n",
      "control_change channel=9 control=4 value=75 time=22\n",
      "control_change channel=9 control=4 value=72 time=21\n",
      "control_change channel=9 control=4 value=68 time=22\n",
      "control_change channel=9 control=4 value=64 time=22\n",
      "control_change channel=9 control=4 value=63 time=3\n",
      "control_change channel=9 control=4 value=48 time=21\n",
      "control_change channel=9 control=4 value=33 time=22\n",
      "control_change channel=9 control=4 value=24 time=12\n",
      "control_change channel=9 control=4 value=38 time=22\n",
      "control_change channel=9 control=4 value=52 time=21\n",
      "control_change channel=9 control=4 value=67 time=22\n",
      "control_change channel=9 control=4 value=78 time=16\n",
      "control_change channel=9 control=4 value=84 time=22\n",
      "control_change channel=9 control=4 value=90 time=22\n",
      "control_change channel=9 control=4 value=86 time=21\n",
      "control_change channel=9 control=4 value=81 time=22\n",
      "control_change channel=9 control=4 value=76 time=22\n",
      "control_change channel=9 control=4 value=71 time=22\n",
      "control_change channel=9 control=4 value=66 time=21\n",
      "control_change channel=9 control=4 value=62 time=22\n",
      "control_change channel=9 control=4 value=58 time=15\n",
      "control_change channel=9 control=4 value=30 time=21\n",
      "control_change channel=9 control=4 value=0 time=22\n",
      "control_change channel=9 control=4 value=1 time=0\n",
      "control_change channel=9 control=4 value=13 time=23\n",
      "control_change channel=9 control=4 value=26 time=22\n",
      "control_change channel=9 control=4 value=39 time=22\n",
      "control_change channel=9 control=4 value=52 time=21\n",
      "control_change channel=9 control=4 value=65 time=22\n",
      "control_change channel=9 control=4 value=69 time=6\n",
      "control_change channel=9 control=4 value=79 time=22\n",
      "control_change channel=9 control=4 value=90 time=22\n",
      "control_change channel=9 control=4 value=86 time=21\n",
      "control_change channel=9 control=4 value=82 time=22\n",
      "control_change channel=9 control=4 value=78 time=22\n",
      "control_change channel=9 control=4 value=73 time=22\n",
      "control_change channel=9 control=4 value=69 time=21\n",
      "control_change channel=9 control=4 value=65 time=22\n",
      "control_change channel=9 control=4 value=60 time=22\n",
      "control_change channel=9 control=4 value=56 time=22\n",
      "control_change channel=9 control=4 value=55 time=4\n",
      "control_change channel=9 control=4 value=47 time=22\n",
      "control_change channel=9 control=4 value=37 time=21\n",
      "control_change channel=9 control=4 value=38 time=0\n",
      "control_change channel=9 control=4 value=51 time=22\n",
      "control_change channel=9 control=4 value=65 time=22\n",
      "control_change channel=9 control=4 value=79 time=20\n",
      "control_change channel=9 control=4 value=84 time=22\n",
      "control_change channel=9 control=4 value=90 time=22\n",
      "control_change channel=9 control=4 value=87 time=21\n",
      "control_change channel=9 control=4 value=83 time=22\n",
      "control_change channel=9 control=4 value=80 time=22\n",
      "control_change channel=9 control=4 value=76 time=22\n",
      "control_change channel=9 control=4 value=73 time=21\n",
      "control_change channel=9 control=4 value=69 time=22\n",
      "control_change channel=9 control=4 value=66 time=22\n",
      "control_change channel=9 control=4 value=62 time=20\n",
      "control_change channel=9 control=4 value=38 time=22\n",
      "control_change channel=9 control=4 value=14 time=22\n",
      "control_change channel=9 control=4 value=0 time=11\n",
      "control_change channel=9 control=4 value=12 time=22\n",
      "control_change channel=9 control=4 value=25 time=22\n",
      "control_change channel=9 control=4 value=38 time=22\n",
      "control_change channel=9 control=4 value=51 time=21\n",
      "control_change channel=9 control=4 value=64 time=22\n",
      "control_change channel=9 control=4 value=68 time=4\n",
      "control_change channel=9 control=4 value=78 time=22\n",
      "control_change channel=9 control=4 value=89 time=22\n",
      "control_change channel=9 control=4 value=90 time=0\n",
      "control_change channel=9 control=4 value=87 time=23\n",
      "control_change channel=9 control=4 value=84 time=22\n",
      "control_change channel=9 control=4 value=80 time=22\n",
      "control_change channel=9 control=4 value=77 time=21\n",
      "control_change channel=9 control=4 value=74 time=22\n",
      "control_change channel=9 control=4 value=70 time=22\n",
      "control_change channel=9 control=4 value=67 time=22\n",
      "control_change channel=9 control=4 value=66 time=1\n",
      "control_change channel=9 control=4 value=55 time=22\n",
      "control_change channel=9 control=4 value=44 time=22\n",
      "control_change channel=9 control=4 value=35 time=17\n",
      "control_change channel=9 control=4 value=43 time=22\n",
      "control_change channel=9 control=4 value=51 time=21\n",
      "control_change channel=9 control=4 value=59 time=22\n",
      "control_change channel=9 control=4 value=63 time=9\n",
      "control_change channel=9 control=4 value=74 time=22\n",
      "control_change channel=9 control=4 value=86 time=21\n",
      "control_change channel=9 control=4 value=90 time=8\n",
      "control_change channel=9 control=4 value=86 time=21\n",
      "control_change channel=9 control=4 value=81 time=22\n",
      "control_change channel=9 control=4 value=76 time=22\n",
      "control_change channel=9 control=4 value=71 time=22\n",
      "control_change channel=9 control=4 value=66 time=21\n",
      "control_change channel=9 control=4 value=61 time=22\n",
      "control_change channel=9 control=4 value=59 time=5\n",
      "control_change channel=9 control=4 value=37 time=21\n",
      "control_change channel=9 control=4 value=14 time=22\n",
      "control_change channel=9 control=4 value=0 time=13\n",
      "control_change channel=9 control=4 value=14 time=22\n",
      "control_change channel=9 control=4 value=28 time=22\n",
      "control_change channel=9 control=4 value=43 time=21\n",
      "control_change channel=9 control=4 value=57 time=22\n",
      "control_change channel=9 control=4 value=72 time=22\n",
      "control_change channel=9 control=4 value=78 time=9\n",
      "control_change channel=9 control=4 value=84 time=21\n",
      "control_change channel=9 control=4 value=90 time=22\n",
      "control_change channel=9 control=4 value=87 time=22\n",
      "control_change channel=9 control=4 value=84 time=22\n",
      "control_change channel=9 control=4 value=81 time=21\n",
      "control_change channel=9 control=4 value=78 time=22\n",
      "control_change channel=9 control=4 value=75 time=22\n",
      "control_change channel=9 control=4 value=72 time=22\n",
      "control_change channel=9 control=4 value=69 time=21\n",
      "control_change channel=9 control=4 value=67 time=10\n",
      "control_change channel=9 control=4 value=57 time=22\n",
      "control_change channel=9 control=4 value=46 time=22\n",
      "control_change channel=9 control=4 value=38 time=16\n",
      "control_change channel=9 control=4 value=50 time=22\n",
      "control_change channel=9 control=4 value=62 time=21\n",
      "control_change channel=9 control=4 value=75 time=22\n",
      "control_change channel=9 control=4 value=79 time=6\n",
      "control_change channel=9 control=4 value=84 time=22\n",
      "control_change channel=9 control=4 value=90 time=21\n",
      "control_change channel=9 control=4 value=86 time=22\n",
      "control_change channel=9 control=4 value=82 time=22\n",
      "control_change channel=9 control=4 value=78 time=22\n",
      "control_change channel=9 control=4 value=74 time=21\n",
      "control_change channel=9 control=4 value=70 time=22\n",
      "control_change channel=9 control=4 value=66 time=22\n",
      "control_change channel=9 control=4 value=62 time=22\n",
      "control_change channel=9 control=4 value=61 time=4\n",
      "control_change channel=9 control=4 value=36 time=22\n",
      "control_change channel=9 control=4 value=10 time=22\n",
      "control_change channel=9 control=4 value=0 time=7\n",
      "control_change channel=9 control=4 value=15 time=22\n",
      "control_change channel=9 control=4 value=30 time=21\n",
      "control_change channel=9 control=4 value=45 time=22\n",
      "control_change channel=9 control=4 value=60 time=22\n",
      "control_change channel=9 control=4 value=75 time=22\n",
      "control_change channel=9 control=4 value=78 time=2\n",
      "control_change channel=9 control=4 value=84 time=22\n",
      "control_change channel=9 control=4 value=90 time=22\n",
      "control_change channel=9 control=4 value=86 time=43\n",
      "control_change channel=9 control=4 value=82 time=44\n",
      "control_change channel=9 control=4 value=78 time=43\n",
      "control_change channel=9 control=4 value=77 time=6\n",
      "control_change channel=9 control=4 value=64 time=22\n",
      "control_change channel=9 control=4 value=51 time=22\n",
      "control_change channel=9 control=4 value=42 time=13\n",
      "control_change channel=9 control=4 value=33 time=22\n",
      "control_change channel=9 control=4 value=22 time=21\n",
      "control_change channel=9 control=4 value=23 time=0\n",
      "control_change channel=9 control=4 value=36 time=23\n",
      "control_change channel=9 control=4 value=50 time=22\n",
      "control_change channel=9 control=4 value=65 time=22\n",
      "control_change channel=9 control=4 value=70 time=7\n",
      "control_change channel=9 control=4 value=79 time=22\n",
      "control_change channel=9 control=4 value=89 time=22\n",
      "control_change channel=9 control=4 value=90 time=1\n",
      "control_change channel=9 control=4 value=86 time=22\n",
      "control_change channel=9 control=4 value=81 time=22\n",
      "control_change channel=9 control=4 value=76 time=21\n",
      "control_change channel=9 control=4 value=71 time=22\n",
      "control_change channel=9 control=4 value=66 time=22\n",
      "control_change channel=9 control=4 value=61 time=22\n",
      "control_change channel=9 control=4 value=58 time=13\n",
      "control_change channel=9 control=4 value=32 time=21\n",
      "control_change channel=9 control=4 value=5 time=22\n",
      "control_change channel=9 control=4 value=0 time=5\n",
      "control_change channel=9 control=4 value=12 time=21\n",
      "control_change channel=9 control=4 value=24 time=22\n",
      "control_change channel=9 control=4 value=37 time=22\n",
      "control_change channel=9 control=4 value=49 time=22\n",
      "control_change channel=9 control=4 value=61 time=21\n",
      "control_change channel=9 control=4 value=69 time=12\n",
      "control_change channel=9 control=4 value=79 time=22\n",
      "control_change channel=9 control=4 value=90 time=21\n",
      "control_change channel=9 control=4 value=86 time=22\n",
      "control_change channel=9 control=4 value=82 time=22\n",
      "control_change channel=9 control=4 value=77 time=22\n",
      "control_change channel=9 control=4 value=73 time=21\n",
      "control_change channel=9 control=4 value=68 time=22\n",
      "control_change channel=9 control=4 value=64 time=22\n",
      "control_change channel=9 control=4 value=59 time=22\n",
      "control_change channel=9 control=4 value=55 time=17\n",
      "control_change channel=9 control=4 value=44 time=22\n",
      "control_change channel=9 control=4 value=33 time=22\n",
      "control_change channel=9 control=4 value=24 time=17\n",
      "control_change channel=9 control=4 value=42 time=22\n",
      "control_change channel=9 control=4 value=60 time=21\n",
      "control_change channel=9 control=4 value=78 time=22\n",
      "control_change channel=9 control=4 value=79 time=0\n",
      "control_change channel=9 control=4 value=84 time=23\n",
      "control_change channel=9 control=4 value=90 time=22\n",
      "control_change channel=9 control=4 value=86 time=22\n",
      "control_change channel=9 control=4 value=82 time=22\n",
      "control_change channel=9 control=4 value=78 time=21\n",
      "control_change channel=9 control=4 value=73 time=22\n",
      "control_change channel=9 control=4 value=69 time=22\n",
      "control_change channel=9 control=4 value=65 time=22\n",
      "control_change channel=9 control=4 value=61 time=14\n",
      "control_change channel=9 control=4 value=35 time=22\n",
      "control_change channel=9 control=4 value=8 time=22\n",
      "control_change channel=9 control=4 value=0 time=7\n",
      "control_change channel=9 control=4 value=14 time=22\n",
      "control_change channel=9 control=4 value=29 time=21\n",
      "control_change channel=9 control=4 value=44 time=22\n",
      "control_change channel=9 control=4 value=58 time=20\n",
      "control_change channel=9 control=4 value=73 time=24\n",
      "control_change channel=9 control=4 value=77 time=4\n",
      "control_change channel=9 control=4 value=83 time=22\n",
      "control_change channel=9 control=4 value=90 time=22\n",
      "control_change channel=9 control=4 value=85 time=21\n",
      "control_change channel=9 control=4 value=80 time=22\n",
      "control_change channel=9 control=4 value=74 time=22\n",
      "control_change channel=9 control=4 value=69 time=22\n",
      "control_change channel=9 control=4 value=63 time=21\n",
      "control_change channel=9 control=4 value=58 time=22\n",
      "control_change channel=9 control=4 value=52 time=22\n",
      "control_change channel=9 control=4 value=47 time=22\n",
      "control_change channel=9 control=4 value=46 time=1\n",
      "control_change channel=9 control=4 value=34 time=22\n",
      "control_change channel=9 control=4 value=22 time=21\n",
      "control_change channel=9 control=4 value=14 time=15\n",
      "control_change channel=9 control=4 value=31 time=22\n",
      "control_change channel=9 control=4 value=49 time=21\n",
      "control_change channel=9 control=4 value=66 time=22\n",
      "control_change channel=9 control=4 value=77 time=12\n",
      "control_change channel=9 control=4 value=83 time=22\n",
      "control_change channel=9 control=4 value=90 time=21\n",
      "control_change channel=9 control=4 value=86 time=22\n",
      "control_change channel=9 control=4 value=82 time=22\n",
      "control_change channel=9 control=4 value=77 time=22\n",
      "control_change channel=9 control=4 value=73 time=21\n",
      "control_change channel=9 control=4 value=69 time=22\n",
      "control_change channel=9 control=4 value=64 time=22\n",
      "control_change channel=9 control=4 value=60 time=22\n",
      "control_change channel=9 control=4 value=59 time=2\n",
      "control_change channel=9 control=4 value=35 time=22\n",
      "control_change channel=9 control=4 value=10 time=22\n",
      "control_change channel=9 control=4 value=0 time=9\n",
      "control_change channel=9 control=4 value=13 time=21\n",
      "control_change channel=9 control=4 value=26 time=22\n",
      "control_change channel=9 control=4 value=39 time=22\n",
      "control_change channel=9 control=4 value=53 time=22\n",
      "control_change channel=9 control=4 value=66 time=21\n",
      "control_change channel=9 control=4 value=69 time=5\n",
      "control_change channel=9 control=4 value=79 time=22\n",
      "control_change channel=9 control=4 value=89 time=21\n",
      "control_change channel=9 control=4 value=90 time=0\n",
      "control_change channel=9 control=4 value=85 time=22\n",
      "control_change channel=9 control=4 value=80 time=22\n",
      "control_change channel=9 control=4 value=75 time=22\n",
      "control_change channel=9 control=4 value=70 time=21\n",
      "control_change channel=9 control=4 value=65 time=22\n",
      "control_change channel=9 control=4 value=60 time=22\n",
      "control_change channel=9 control=4 value=55 time=22\n",
      "control_change channel=9 control=4 value=50 time=21\n",
      "control_change channel=9 control=4 value=49 time=5\n",
      "control_change channel=9 control=4 value=35 time=21\n",
      "control_change channel=9 control=4 value=21 time=22\n",
      "control_change channel=9 control=4 value=12 time=13\n",
      "control_change channel=9 control=4 value=32 time=22\n",
      "control_change channel=9 control=4 value=52 time=22\n",
      "control_change channel=9 control=4 value=73 time=21\n",
      "control_change channel=9 control=4 value=78 time=5\n",
      "control_change channel=9 control=4 value=84 time=22\n",
      "control_change channel=9 control=4 value=90 time=21\n",
      "control_change channel=9 control=4 value=86 time=22\n",
      "control_change channel=9 control=4 value=81 time=22\n",
      "control_change channel=9 control=4 value=76 time=22\n",
      "control_change channel=9 control=4 value=71 time=21\n",
      "control_change channel=9 control=4 value=66 time=22\n",
      "control_change channel=9 control=4 value=62 time=22\n",
      "control_change channel=9 control=4 value=59 time=10\n",
      "control_change channel=9 control=4 value=31 time=22\n",
      "control_change channel=9 control=4 value=3 time=21\n",
      "control_change channel=9 control=4 value=0 time=2\n",
      "control_change channel=9 control=4 value=14 time=22\n",
      "control_change channel=9 control=4 value=28 time=21\n",
      "control_change channel=9 control=4 value=42 time=22\n",
      "control_change channel=9 control=4 value=56 time=22\n",
      "control_change channel=9 control=4 value=70 time=22\n",
      "control_change channel=9 control=4 value=77 time=10\n",
      "control_change channel=9 control=4 value=83 time=22\n",
      "control_change channel=9 control=4 value=90 time=21\n",
      "control_change channel=9 control=4 value=85 time=22\n",
      "control_change channel=9 control=4 value=80 time=22\n",
      "control_change channel=9 control=4 value=74 time=22\n",
      "control_change channel=9 control=4 value=69 time=21\n",
      "control_change channel=9 control=4 value=63 time=22\n",
      "control_change channel=9 control=4 value=58 time=22\n",
      "control_change channel=9 control=4 value=53 time=22\n",
      "control_change channel=9 control=4 value=48 time=15\n",
      "control_change channel=9 control=4 value=37 time=22\n",
      "control_change channel=9 control=4 value=26 time=22\n",
      "control_change channel=9 control=4 value=16 time=19\n",
      "control_change channel=9 control=4 value=31 time=22\n",
      "control_change channel=9 control=4 value=47 time=21\n",
      "control_change channel=9 control=4 value=60 time=18\n",
      "control_change channel=9 control=4 value=73 time=21\n",
      "control_change channel=9 control=4 value=87 time=22\n",
      "control_change channel=9 control=4 value=90 time=5\n",
      "control_change channel=9 control=4 value=86 time=21\n",
      "control_change channel=9 control=4 value=81 time=22\n",
      "control_change channel=9 control=4 value=76 time=22\n",
      "control_change channel=9 control=4 value=72 time=22\n",
      "control_change channel=9 control=4 value=67 time=21\n",
      "control_change channel=9 control=4 value=62 time=22\n",
      "control_change channel=9 control=4 value=58 time=17\n",
      "control_change channel=9 control=4 value=33 time=22\n",
      "control_change channel=9 control=4 value=7 time=22\n",
      "control_change channel=9 control=4 value=0 time=6\n",
      "control_change channel=9 control=4 value=13 time=22\n",
      "control_change channel=9 control=4 value=26 time=21\n",
      "control_change channel=9 control=4 value=40 time=22\n",
      "control_change channel=9 control=4 value=53 time=22\n",
      "control_change channel=9 control=4 value=67 time=22\n",
      "control_change channel=9 control=4 value=71 time=5\n",
      "control_change channel=9 control=4 value=80 time=22\n",
      "control_change channel=9 control=4 value=89 time=22\n",
      "control_change channel=9 control=4 value=90 time=0\n",
      "control_change channel=9 control=4 value=83 time=23\n",
      "control_change channel=9 control=4 value=75 time=22\n",
      "control_change channel=9 control=4 value=67 time=22\n",
      "control_change channel=9 control=4 value=59 time=21\n",
      "control_change channel=9 control=4 value=51 time=22\n",
      "control_change channel=9 control=4 value=44 time=22\n",
      "control_change channel=9 control=4 value=42 time=3\n",
      "control_change channel=9 control=4 value=22 time=21\n",
      "control_change channel=9 control=4 value=0 time=22\n",
      "control_change channel=9 control=4 value=1 time=0\n",
      "control_change channel=9 control=4 value=12 time=22\n",
      "control_change channel=9 control=4 value=24 time=22\n",
      "control_change channel=9 control=4 value=36 time=21\n",
      "control_change channel=9 control=4 value=48 time=22\n",
      "control_change channel=9 control=4 value=60 time=22\n",
      "control_change channel=9 control=4 value=69 time=16\n",
      "control_change channel=9 control=4 value=79 time=22\n",
      "control_change channel=9 control=4 value=89 time=21\n",
      "control_change channel=9 control=4 value=90 time=0\n",
      "control_change channel=9 control=4 value=87 time=22\n",
      "control_change channel=9 control=4 value=83 time=22\n",
      "control_change channel=9 control=4 value=79 time=22\n",
      "control_change channel=9 control=4 value=75 time=21\n",
      "control_change channel=9 control=4 value=71 time=22\n",
      "control_change channel=9 control=4 value=68 time=22\n",
      "control_change channel=9 control=4 value=64 time=22\n",
      "control_change channel=9 control=4 value=60 time=21\n",
      "control_change channel=9 control=4 value=59 time=3\n",
      "control_change channel=9 control=4 value=52 time=22\n",
      "control_change channel=9 control=4 value=44 time=22\n",
      "control_change channel=9 control=4 value=42 time=3\n",
      "control_change channel=9 control=4 value=52 time=21\n",
      "control_change channel=9 control=4 value=63 time=22\n",
      "control_change channel=9 control=4 value=72 time=16\n",
      "control_change channel=9 control=4 value=79 time=22\n",
      "control_change channel=9 control=4 value=87 time=22\n",
      "control_change channel=9 control=4 value=90 time=7\n",
      "control_change channel=9 control=4 value=86 time=43\n",
      "control_change channel=9 control=4 value=81 time=44\n",
      "control_change channel=9 control=4 value=77 time=43\n",
      "control_change channel=9 control=4 value=75 time=13\n",
      "control_change channel=9 control=4 value=78 time=22\n",
      "control_change channel=9 control=4 value=81 time=22\n",
      "control_change channel=9 control=4 value=84 time=22\n",
      "control_change channel=9 control=4 value=87 time=21\n",
      "control_change channel=9 control=4 value=90 time=22\n",
      "control_change channel=9 control=4 value=88 time=44\n",
      "control_change channel=9 control=4 value=85 time=43\n",
      "control_change channel=9 control=4 value=82 time=44\n",
      "control_change channel=9 control=4 value=79 time=43\n",
      "control_change channel=9 control=4 value=76 time=44\n",
      "control_change channel=9 control=4 value=73 time=43\n",
      "control_change channel=9 control=4 value=70 time=44\n",
      "control_change channel=9 control=4 value=68 time=43\n",
      "control_change channel=9 control=4 value=65 time=44\n",
      "control_change channel=9 control=4 value=62 time=43\n",
      "control_change channel=9 control=4 value=59 time=35\n",
      "control_change channel=9 control=4 value=33 time=22\n",
      "control_change channel=9 control=4 value=7 time=21\n",
      "control_change channel=9 control=4 value=0 time=6\n",
      "control_change channel=9 control=4 value=0 time=45\n",
      "control_change channel=9 control=4 value=17 time=22\n",
      "control_change channel=9 control=4 value=34 time=22\n",
      "control_change channel=9 control=4 value=51 time=21\n",
      "control_change channel=9 control=4 value=68 time=21\n",
      "control_change channel=9 control=4 value=78 time=22\n",
      "control_change channel=9 control=4 value=89 time=21\n",
      "control_change channel=9 control=4 value=90 time=2\n",
      "control_change channel=9 control=4 value=87 time=43\n",
      "control_change channel=9 control=4 value=83 time=44\n",
      "control_change channel=9 control=4 value=79 time=43\n",
      "control_change channel=9 control=4 value=78 time=7\n",
      "control_change channel=9 control=4 value=55 time=22\n",
      "control_change channel=9 control=4 value=30 time=22\n",
      "control_change channel=9 control=4 value=31 time=0\n",
      "control_change channel=9 control=4 value=16 time=22\n",
      "control_change channel=9 control=4 value=0 time=21\n",
      "control_change channel=9 control=4 value=1 time=0\n",
      "control_change channel=9 control=4 value=0 time=156\n",
      "control_change channel=9 control=4 value=1 time=87\n",
      "control_change channel=9 control=4 value=2 time=87\n",
      "control_change channel=9 control=4 value=3 time=87\n",
      "control_change channel=9 control=4 value=4 time=87\n",
      "control_change channel=9 control=4 value=5 time=87\n",
      "control_change channel=9 control=4 value=6 time=87\n",
      "control_change channel=9 control=4 value=7 time=87\n",
      "control_change channel=9 control=4 value=8 time=87\n",
      "control_change channel=9 control=4 value=10 time=87\n",
      "control_change channel=9 control=4 value=11 time=87\n",
      "control_change channel=9 control=4 value=12 time=87\n",
      "control_change channel=9 control=4 value=13 time=87\n",
      "control_change channel=9 control=4 value=14 time=46\n",
      "MetaMessage('end_of_track', time=1)\n",
      "\n"
     ]
    }
   ],
   "source": [
    "mid = MidiFile(midi_file_path)\n",
    "for i, track in enumerate(mid.tracks):\n",
    "    print(f'Track {i}: {track.name}')\n",
    "    for msg in track:\n",
    "        print(msg)\n",
    "    print()"
   ]
  },
  {
   "cell_type": "code",
   "execution_count": 5,
   "metadata": {},
   "outputs": [],
   "source": [
    "mid.save(\"mido_output.mid\")"
   ]
  },
  {
   "cell_type": "code",
   "execution_count": 6,
   "metadata": {},
   "outputs": [],
   "source": [
    "from mido import MidiFile, MidiTrack, MetaMessage, bpm2tempo\n",
    "\n",
    "def set_tempo_in_midi(input_path, output_path, bpm):\n",
    "    # Load the existing MIDI file\n",
    "    mid = MidiFile(input_path)\n",
    "\n",
    "    # Convert BPM to MIDI tempo\n",
    "    tempo = bpm2tempo(bpm)\n",
    "\n",
    "    # Iterate through each track and insert the set_tempo message at the beginning\n",
    "    for track in mid.tracks:\n",
    "        # Remove existing set_tempo messages\n",
    "        track[:] = [msg for msg in track if msg.type != 'set_tempo']\n",
    "        # Insert the new set_tempo message at the beginning\n",
    "        track.insert(0, MetaMessage('set_tempo', tempo=tempo, time=0))\n",
    "\n",
    "    # Save the modified MIDI file\n",
    "    mid.save(output_path)\n",
    "\n",
    "# Example usage\n",
    "input_midi = '/Users/fernando/dev/upf/cmc24/gdrm/dataset/drummer1/session1/4_jazz-funk_116_beat_4-4.mid'\n",
    "output_midi = 'mido_output.mid'\n",
    "desired_bpm = 116\n",
    "\n",
    "set_tempo_in_midi(input_midi, output_midi, desired_bpm)"
   ]
  },
  {
   "cell_type": "code",
   "execution_count": 8,
   "metadata": {},
   "outputs": [
    {
     "name": "stdout",
     "output_type": "stream",
     "text": [
      "{'note': 44, 'velocity': 40, 'start_time': 935, 'track': 0, 'end_time': 1029, 'duration': 94}\n",
      "{'note': 43, 'velocity': 104, 'start_time': 1293, 'track': 0, 'end_time': 1387, 'duration': 94}\n",
      "{'note': 58, 'velocity': 120, 'start_time': 1424, 'track': 0, 'end_time': 1518, 'duration': 94}\n",
      "{'note': 44, 'velocity': 67, 'start_time': 1634, 'track': 0, 'end_time': 1728, 'duration': 94}\n",
      "{'note': 55, 'velocity': 64, 'start_time': 1883, 'track': 0, 'end_time': 1976, 'duration': 93}\n",
      "{'note': 36, 'velocity': 43, 'start_time': 1885, 'track': 0, 'end_time': 1979, 'duration': 94}\n",
      "{'note': 59, 'velocity': 71, 'start_time': 1899, 'track': 0, 'end_time': 1992, 'duration': 93}\n",
      "{'note': 44, 'velocity': 85, 'start_time': 2117, 'track': 0, 'end_time': 2210, 'duration': 93}\n",
      "{'note': 51, 'velocity': 37, 'start_time': 2141, 'track': 0, 'end_time': 2235, 'duration': 94}\n",
      "{'note': 36, 'velocity': 38, 'start_time': 2252, 'track': 0, 'end_time': 2345, 'duration': 93}\n",
      "{'note': 38, 'velocity': 72, 'start_time': 2365, 'track': 0, 'end_time': 2458, 'duration': 93}\n",
      "{'note': 51, 'velocity': 82, 'start_time': 2375, 'track': 0, 'end_time': 2468, 'duration': 93}\n",
      "{'note': 38, 'velocity': 29, 'start_time': 2485, 'track': 0, 'end_time': 2580, 'duration': 95}\n",
      "{'note': 44, 'velocity': 92, 'start_time': 2597, 'track': 0, 'end_time': 2690, 'duration': 93}\n",
      "{'note': 51, 'velocity': 62, 'start_time': 2611, 'track': 0, 'end_time': 2705, 'duration': 94}\n",
      "{'note': 38, 'velocity': 38, 'start_time': 2726, 'track': 0, 'end_time': 2820, 'duration': 94}\n",
      "{'note': 51, 'velocity': 59, 'start_time': 2734, 'track': 0, 'end_time': 2827, 'duration': 93}\n",
      "{'note': 51, 'velocity': 69, 'start_time': 2868, 'track': 0, 'end_time': 2961, 'duration': 93}\n",
      "{'note': 38, 'velocity': 27, 'start_time': 2979, 'track': 0, 'end_time': 3072, 'duration': 93}\n",
      "{'note': 44, 'velocity': 85, 'start_time': 3094, 'track': 0, 'end_time': 3187, 'duration': 93}\n",
      "{'note': 38, 'velocity': 21, 'start_time': 3108, 'track': 0, 'end_time': 3202, 'duration': 94}\n",
      "{'note': 51, 'velocity': 62, 'start_time': 3108, 'track': 0, 'end_time': 3202, 'duration': 94}\n",
      "{'note': 36, 'velocity': 25, 'start_time': 3110, 'track': 0, 'end_time': 3202, 'duration': 92}\n",
      "{'note': 36, 'velocity': 26, 'start_time': 3207, 'track': 0, 'end_time': 3300, 'duration': 93}\n",
      "{'note': 51, 'velocity': 58, 'start_time': 3223, 'track': 0, 'end_time': 3316, 'duration': 93}\n",
      "{'note': 37, 'velocity': 76, 'start_time': 3343, 'track': 0, 'end_time': 3435, 'duration': 92}\n",
      "{'note': 59, 'velocity': 69, 'start_time': 3352, 'track': 0, 'end_time': 3445, 'duration': 93}\n",
      "{'note': 38, 'velocity': 22, 'start_time': 3470, 'track': 0, 'end_time': 3563, 'duration': 93}\n",
      "{'note': 44, 'velocity': 102, 'start_time': 3569, 'track': 0, 'end_time': 3663, 'duration': 94}\n",
      "{'note': 51, 'velocity': 69, 'start_time': 3590, 'track': 0, 'end_time': 3684, 'duration': 94}\n",
      "{'note': 38, 'velocity': 32, 'start_time': 3684, 'track': 0, 'end_time': 3778, 'duration': 94}\n",
      "{'note': 51, 'velocity': 61, 'start_time': 3704, 'track': 0, 'end_time': 3798, 'duration': 94}\n",
      "{'note': 36, 'velocity': 43, 'start_time': 3808, 'track': 0, 'end_time': 3902, 'duration': 94}\n",
      "{'note': 51, 'velocity': 64, 'start_time': 3823, 'track': 0, 'end_time': 3917, 'duration': 94}\n",
      "{'note': 38, 'velocity': 24, 'start_time': 3941, 'track': 0, 'end_time': 4035, 'duration': 94}\n",
      "{'note': 44, 'velocity': 87, 'start_time': 4047, 'track': 0, 'end_time': 4141, 'duration': 94}\n",
      "{'note': 38, 'velocity': 17, 'start_time': 4058, 'track': 0, 'end_time': 4152, 'duration': 94}\n",
      "{'note': 51, 'velocity': 61, 'start_time': 4062, 'track': 0, 'end_time': 4156, 'duration': 94}\n",
      "{'note': 36, 'velocity': 20, 'start_time': 4172, 'track': 0, 'end_time': 4265, 'duration': 93}\n",
      "{'note': 51, 'velocity': 51, 'start_time': 4187, 'track': 0, 'end_time': 4280, 'duration': 93}\n",
      "{'note': 37, 'velocity': 75, 'start_time': 4307, 'track': 0, 'end_time': 4400, 'duration': 93}\n",
      "{'note': 51, 'velocity': 79, 'start_time': 4312, 'track': 0, 'end_time': 4405, 'duration': 93}\n",
      "{'note': 38, 'velocity': 11, 'start_time': 4447, 'track': 0, 'end_time': 4540, 'duration': 93}\n",
      "{'note': 44, 'velocity': 90, 'start_time': 4521, 'track': 0, 'end_time': 4614, 'duration': 93}\n",
      "{'note': 51, 'velocity': 66, 'start_time': 4552, 'track': 0, 'end_time': 4646, 'duration': 94}\n",
      "{'note': 38, 'velocity': 23, 'start_time': 4564, 'track': 0, 'end_time': 4657, 'duration': 93}\n",
      "{'note': 36, 'velocity': 49, 'start_time': 4665, 'track': 0, 'end_time': 4758, 'duration': 93}\n",
      "{'note': 51, 'velocity': 66, 'start_time': 4675, 'track': 0, 'end_time': 4768, 'duration': 93}\n",
      "{'note': 51, 'velocity': 65, 'start_time': 4790, 'track': 0, 'end_time': 4883, 'duration': 93}\n",
      "{'note': 38, 'velocity': 18, 'start_time': 4906, 'track': 0, 'end_time': 5000, 'duration': 94}\n",
      "{'note': 36, 'velocity': 32, 'start_time': 5011, 'track': 0, 'end_time': 5104, 'duration': 93}\n",
      "{'note': 51, 'velocity': 64, 'start_time': 5018, 'track': 0, 'end_time': 5112, 'duration': 94}\n",
      "{'note': 44, 'velocity': 87, 'start_time': 5019, 'track': 0, 'end_time': 5112, 'duration': 93}\n",
      "{'note': 38, 'velocity': 20, 'start_time': 5021, 'track': 0, 'end_time': 5116, 'duration': 95}\n",
      "{'note': 51, 'velocity': 58, 'start_time': 5140, 'track': 0, 'end_time': 5233, 'duration': 93}\n",
      "{'note': 36, 'velocity': 50, 'start_time': 5141, 'track': 0, 'end_time': 5233, 'duration': 92}\n",
      "{'note': 51, 'velocity': 95, 'start_time': 5268, 'track': 0, 'end_time': 5361, 'duration': 93}\n",
      "{'note': 37, 'velocity': 70, 'start_time': 5271, 'track': 0, 'end_time': 5365, 'duration': 94}\n",
      "{'note': 38, 'velocity': 15, 'start_time': 5407, 'track': 0, 'end_time': 5501, 'duration': 94}\n",
      "{'note': 44, 'velocity': 102, 'start_time': 5503, 'track': 0, 'end_time': 5597, 'duration': 94}\n",
      "{'note': 51, 'velocity': 67, 'start_time': 5512, 'track': 0, 'end_time': 5606, 'duration': 94}\n",
      "{'note': 38, 'velocity': 33, 'start_time': 5597, 'track': 0, 'end_time': 5691, 'duration': 94}\n",
      "{'note': 51, 'velocity': 59, 'start_time': 5626, 'track': 0, 'end_time': 5720, 'duration': 94}\n",
      "{'note': 36, 'velocity': 44, 'start_time': 5735, 'track': 0, 'end_time': 5828, 'duration': 93}\n",
      "{'note': 51, 'velocity': 66, 'start_time': 5749, 'track': 0, 'end_time': 5842, 'duration': 93}\n",
      "{'note': 38, 'velocity': 24, 'start_time': 5864, 'track': 0, 'end_time': 5958, 'duration': 94}\n",
      "{'note': 44, 'velocity': 85, 'start_time': 5986, 'track': 0, 'end_time': 6080, 'duration': 94}\n",
      "{'note': 51, 'velocity': 64, 'start_time': 5987, 'track': 0, 'end_time': 6080, 'duration': 93}\n",
      "{'note': 36, 'velocity': 33, 'start_time': 5990, 'track': 0, 'end_time': 6083, 'duration': 93}\n",
      "{'note': 38, 'velocity': 15, 'start_time': 5999, 'track': 0, 'end_time': 6093, 'duration': 94}\n",
      "{'note': 36, 'velocity': 43, 'start_time': 6108, 'track': 0, 'end_time': 6201, 'duration': 93}\n",
      "{'note': 51, 'velocity': 49, 'start_time': 6114, 'track': 0, 'end_time': 6208, 'duration': 94}\n",
      "{'note': 51, 'velocity': 77, 'start_time': 6237, 'track': 0, 'end_time': 6331, 'duration': 94}\n",
      "{'note': 38, 'velocity': 75, 'start_time': 6246, 'track': 0, 'end_time': 6340, 'duration': 94}\n",
      "{'note': 44, 'velocity': 90, 'start_time': 6457, 'track': 0, 'end_time': 6551, 'duration': 94}\n",
      "{'note': 51, 'velocity': 55, 'start_time': 6486, 'track': 0, 'end_time': 6580, 'duration': 94}\n",
      "{'note': 38, 'velocity': 20, 'start_time': 6490, 'track': 0, 'end_time': 6584, 'duration': 94}\n",
      "{'note': 36, 'velocity': 45, 'start_time': 6580, 'track': 0, 'end_time': 6674, 'duration': 94}\n",
      "{'note': 51, 'velocity': 58, 'start_time': 6602, 'track': 0, 'end_time': 6695, 'duration': 93}\n",
      "{'note': 51, 'velocity': 53, 'start_time': 6719, 'track': 0, 'end_time': 6812, 'duration': 93}\n",
      "{'note': 38, 'velocity': 21, 'start_time': 6808, 'track': 0, 'end_time': 6901, 'duration': 93}\n",
      "{'note': 36, 'velocity': 23, 'start_time': 6924, 'track': 0, 'end_time': 7018, 'duration': 94}\n",
      "{'note': 44, 'velocity': 92, 'start_time': 6931, 'track': 0, 'end_time': 7024, 'duration': 93}\n",
      "{'note': 51, 'velocity': 65, 'start_time': 6941, 'track': 0, 'end_time': 7035, 'duration': 94}\n",
      "{'note': 36, 'velocity': 37, 'start_time': 7040, 'track': 0, 'end_time': 7134, 'duration': 94}\n",
      "{'note': 51, 'velocity': 54, 'start_time': 7059, 'track': 0, 'end_time': 7152, 'duration': 93}\n",
      "{'note': 51, 'velocity': 76, 'start_time': 7185, 'track': 0, 'end_time': 7278, 'duration': 93}\n",
      "{'note': 38, 'velocity': 89, 'start_time': 7194, 'track': 0, 'end_time': 7288, 'duration': 94}\n",
      "{'note': 38, 'velocity': 28, 'start_time': 7328, 'track': 0, 'end_time': 7423, 'duration': 95}\n",
      "{'note': 44, 'velocity': 100, 'start_time': 7423, 'track': 0, 'end_time': 7517, 'duration': 94}\n",
      "{'note': 51, 'velocity': 71, 'start_time': 7425, 'track': 0, 'end_time': 7519, 'duration': 94}\n",
      "{'note': 51, 'velocity': 64, 'start_time': 7545, 'track': 0, 'end_time': 7638, 'duration': 93}\n",
      "{'note': 38, 'velocity': 24, 'start_time': 7552, 'track': 0, 'end_time': 7645, 'duration': 93}\n",
      "{'note': 36, 'velocity': 37, 'start_time': 7653, 'track': 0, 'end_time': 7747, 'duration': 94}\n",
      "{'note': 51, 'velocity': 76, 'start_time': 7658, 'track': 0, 'end_time': 7752, 'duration': 94}\n",
      "{'note': 38, 'velocity': 26, 'start_time': 7798, 'track': 0, 'end_time': 7892, 'duration': 94}\n",
      "{'note': 36, 'velocity': 30, 'start_time': 7888, 'track': 0, 'end_time': 7981, 'duration': 93}\n",
      "{'note': 44, 'velocity': 82, 'start_time': 7900, 'track': 0, 'end_time': 7993, 'duration': 93}\n",
      "{'note': 51, 'velocity': 68, 'start_time': 7900, 'track': 0, 'end_time': 7993, 'duration': 93}\n",
      "{'note': 38, 'velocity': 31, 'start_time': 7905, 'track': 0, 'end_time': 7998, 'duration': 93}\n",
      "{'note': 51, 'velocity': 57, 'start_time': 8018, 'track': 0, 'end_time': 8111, 'duration': 93}\n",
      "{'note': 36, 'velocity': 43, 'start_time': 8020, 'track': 0, 'end_time': 8114, 'duration': 94}\n",
      "{'note': 51, 'velocity': 78, 'start_time': 8148, 'track': 0, 'end_time': 8242, 'duration': 94}\n",
      "{'note': 38, 'velocity': 73, 'start_time': 8155, 'track': 0, 'end_time': 8248, 'duration': 93}\n",
      "{'note': 38, 'velocity': 36, 'start_time': 8265, 'track': 0, 'end_time': 8358, 'duration': 93}\n",
      "{'note': 44, 'velocity': 100, 'start_time': 8383, 'track': 0, 'end_time': 8478, 'duration': 95}\n",
      "{'note': 51, 'velocity': 64, 'start_time': 8388, 'track': 0, 'end_time': 8481, 'duration': 93}\n",
      "{'note': 38, 'velocity': 26, 'start_time': 8394, 'track': 0, 'end_time': 8488, 'duration': 94}\n",
      "{'note': 51, 'velocity': 57, 'start_time': 8511, 'track': 0, 'end_time': 8604, 'duration': 93}\n",
      "{'note': 36, 'velocity': 44, 'start_time': 8517, 'track': 0, 'end_time': 8610, 'duration': 93}\n",
      "{'note': 51, 'velocity': 64, 'start_time': 8622, 'track': 0, 'end_time': 8716, 'duration': 94}\n",
      "{'note': 38, 'velocity': 33, 'start_time': 8740, 'track': 0, 'end_time': 8833, 'duration': 93}\n",
      "{'note': 36, 'velocity': 33, 'start_time': 8839, 'track': 0, 'end_time': 8932, 'duration': 93}\n",
      "{'note': 51, 'velocity': 76, 'start_time': 8847, 'track': 0, 'end_time': 8941, 'duration': 94}\n",
      "{'note': 44, 'velocity': 100, 'start_time': 8858, 'track': 0, 'end_time': 8951, 'duration': 93}\n",
      "{'note': 51, 'velocity': 66, 'start_time': 8967, 'track': 0, 'end_time': 9061, 'duration': 94}\n",
      "{'note': 36, 'velocity': 40, 'start_time': 8974, 'track': 0, 'end_time': 9068, 'duration': 94}\n",
      "{'note': 51, 'velocity': 86, 'start_time': 9089, 'track': 0, 'end_time': 9182, 'duration': 93}\n",
      "{'note': 37, 'velocity': 88, 'start_time': 9090, 'track': 0, 'end_time': 9184, 'duration': 94}\n",
      "{'note': 44, 'velocity': 105, 'start_time': 9334, 'track': 0, 'end_time': 9428, 'duration': 94}\n",
      "{'note': 40, 'velocity': 94, 'start_time': 9343, 'track': 0, 'end_time': 9437, 'duration': 94}\n",
      "{'note': 51, 'velocity': 84, 'start_time': 9346, 'track': 0, 'end_time': 9439, 'duration': 93}\n",
      "{'note': 51, 'velocity': 53, 'start_time': 9474, 'track': 0, 'end_time': 9567, 'duration': 93}\n",
      "{'note': 36, 'velocity': 48, 'start_time': 9582, 'track': 0, 'end_time': 9675, 'duration': 93}\n",
      "{'note': 51, 'velocity': 87, 'start_time': 9594, 'track': 0, 'end_time': 9688, 'duration': 94}\n",
      "{'note': 38, 'velocity': 25, 'start_time': 9726, 'track': 0, 'end_time': 9820, 'duration': 94}\n",
      "{'note': 44, 'velocity': 90, 'start_time': 9821, 'track': 0, 'end_time': 9915, 'duration': 94}\n",
      "{'note': 51, 'velocity': 71, 'start_time': 9830, 'track': 0, 'end_time': 9923, 'duration': 93}\n",
      "{'note': 38, 'velocity': 32, 'start_time': 9836, 'track': 0, 'end_time': 9930, 'duration': 94}\n",
      "{'note': 36, 'velocity': 46, 'start_time': 9937, 'track': 0, 'end_time': 10032, 'duration': 95}\n",
      "{'note': 51, 'velocity': 53, 'start_time': 9954, 'track': 0, 'end_time': 10048, 'duration': 94}\n",
      "{'note': 51, 'velocity': 73, 'start_time': 10066, 'track': 0, 'end_time': 10160, 'duration': 94}\n",
      "{'note': 37, 'velocity': 84, 'start_time': 10072, 'track': 0, 'end_time': 10166, 'duration': 94}\n",
      "{'note': 44, 'velocity': 100, 'start_time': 10296, 'track': 0, 'end_time': 10390, 'duration': 94}\n",
      "{'note': 51, 'velocity': 76, 'start_time': 10313, 'track': 0, 'end_time': 10407, 'duration': 94}\n",
      "{'note': 51, 'velocity': 67, 'start_time': 10431, 'track': 0, 'end_time': 10525, 'duration': 94}\n",
      "{'note': 36, 'velocity': 47, 'start_time': 10435, 'track': 0, 'end_time': 10528, 'duration': 93}\n",
      "{'note': 51, 'velocity': 62, 'start_time': 10546, 'track': 0, 'end_time': 10639, 'duration': 93}\n",
      "{'note': 38, 'velocity': 34, 'start_time': 10664, 'track': 0, 'end_time': 10758, 'duration': 94}\n",
      "{'note': 38, 'velocity': 17, 'start_time': 10761, 'track': 0, 'end_time': 10854, 'duration': 93}\n",
      "{'note': 36, 'velocity': 29, 'start_time': 10769, 'track': 0, 'end_time': 10863, 'duration': 94}\n",
      "{'note': 51, 'velocity': 79, 'start_time': 10776, 'track': 0, 'end_time': 10869, 'duration': 93}\n",
      "{'note': 44, 'velocity': 90, 'start_time': 10779, 'track': 0, 'end_time': 10873, 'duration': 94}\n",
      "{'note': 51, 'velocity': 62, 'start_time': 10892, 'track': 0, 'end_time': 10986, 'duration': 94}\n",
      "{'note': 36, 'velocity': 40, 'start_time': 10896, 'track': 0, 'end_time': 10990, 'duration': 94}\n",
      "{'note': 51, 'velocity': 76, 'start_time': 11020, 'track': 0, 'end_time': 11113, 'duration': 93}\n",
      "{'note': 40, 'velocity': 120, 'start_time': 11030, 'track': 0, 'end_time': 11123, 'duration': 93}\n",
      "{'note': 38, 'velocity': 27, 'start_time': 11151, 'track': 0, 'end_time': 11245, 'duration': 94}\n",
      "{'note': 44, 'velocity': 95, 'start_time': 11259, 'track': 0, 'end_time': 11353, 'duration': 94}\n",
      "{'note': 51, 'velocity': 68, 'start_time': 11266, 'track': 0, 'end_time': 11359, 'duration': 93}\n",
      "{'note': 51, 'velocity': 62, 'start_time': 11380, 'track': 0, 'end_time': 11473, 'duration': 93}\n",
      "{'note': 38, 'velocity': 38, 'start_time': 11396, 'track': 0, 'end_time': 11490, 'duration': 94}\n",
      "{'note': 36, 'velocity': 37, 'start_time': 11491, 'track': 0, 'end_time': 11585, 'duration': 94}\n",
      "{'note': 51, 'velocity': 51, 'start_time': 11496, 'track': 0, 'end_time': 11589, 'duration': 93}\n",
      "{'note': 38, 'velocity': 30, 'start_time': 11642, 'track': 0, 'end_time': 11736, 'duration': 94}\n",
      "{'note': 44, 'velocity': 90, 'start_time': 11725, 'track': 0, 'end_time': 11819, 'duration': 94}\n",
      "{'note': 51, 'velocity': 68, 'start_time': 11746, 'track': 0, 'end_time': 11840, 'duration': 94}\n",
      "{'note': 38, 'velocity': 21, 'start_time': 11750, 'track': 0, 'end_time': 11843, 'duration': 93}\n",
      "{'note': 36, 'velocity': 46, 'start_time': 11863, 'track': 0, 'end_time': 11956, 'duration': 93}\n",
      "{'note': 51, 'velocity': 49, 'start_time': 11870, 'track': 0, 'end_time': 11964, 'duration': 94}\n",
      "{'note': 51, 'velocity': 79, 'start_time': 11990, 'track': 0, 'end_time': 12083, 'duration': 93}\n",
      "{'note': 37, 'velocity': 78, 'start_time': 11993, 'track': 0, 'end_time': 12087, 'duration': 94}\n",
      "{'note': 38, 'velocity': 29, 'start_time': 12116, 'track': 0, 'end_time': 12210, 'duration': 94}\n",
      "{'note': 44, 'velocity': 100, 'start_time': 12221, 'track': 0, 'end_time': 12314, 'duration': 93}\n",
      "{'note': 38, 'velocity': 19, 'start_time': 12234, 'track': 0, 'end_time': 12328, 'duration': 94}\n",
      "{'note': 51, 'velocity': 65, 'start_time': 12243, 'track': 0, 'end_time': 12336, 'duration': 93}\n",
      "{'note': 36, 'velocity': 45, 'start_time': 12346, 'track': 0, 'end_time': 12440, 'duration': 94}\n",
      "{'note': 51, 'velocity': 69, 'start_time': 12357, 'track': 0, 'end_time': 12450, 'duration': 93}\n",
      "{'note': 51, 'velocity': 58, 'start_time': 12467, 'track': 0, 'end_time': 12560, 'duration': 93}\n",
      "{'note': 38, 'velocity': 32, 'start_time': 12586, 'track': 0, 'end_time': 12680, 'duration': 94}\n",
      "{'note': 38, 'velocity': 24, 'start_time': 12688, 'track': 0, 'end_time': 12782, 'duration': 94}\n",
      "{'note': 36, 'velocity': 25, 'start_time': 12689, 'track': 0, 'end_time': 12783, 'duration': 94}\n",
      "{'note': 51, 'velocity': 83, 'start_time': 12698, 'track': 0, 'end_time': 12791, 'duration': 93}\n",
      "{'note': 44, 'velocity': 95, 'start_time': 12702, 'track': 0, 'end_time': 12796, 'duration': 94}\n",
      "{'note': 36, 'velocity': 37, 'start_time': 12807, 'track': 0, 'end_time': 12900, 'duration': 93}\n",
      "{'note': 51, 'velocity': 63, 'start_time': 12815, 'track': 0, 'end_time': 12909, 'duration': 94}\n",
      "{'note': 38, 'velocity': 89, 'start_time': 12938, 'track': 0, 'end_time': 13031, 'duration': 93}\n",
      "{'note': 51, 'velocity': 88, 'start_time': 12938, 'track': 0, 'end_time': 13031, 'duration': 93}\n",
      "{'note': 38, 'velocity': 29, 'start_time': 13064, 'track': 0, 'end_time': 13158, 'duration': 94}\n",
      "{'note': 44, 'velocity': 100, 'start_time': 13184, 'track': 0, 'end_time': 13277, 'duration': 93}\n",
      "{'note': 51, 'velocity': 77, 'start_time': 13185, 'track': 0, 'end_time': 13277, 'duration': 92}\n",
      "{'note': 38, 'velocity': 55, 'start_time': 13287, 'track': 0, 'end_time': 13380, 'duration': 93}\n",
      "{'note': 51, 'velocity': 68, 'start_time': 13287, 'track': 0, 'end_time': 13380, 'duration': 93}\n",
      "{'note': 36, 'velocity': 45, 'start_time': 13400, 'track': 0, 'end_time': 13493, 'duration': 93}\n",
      "{'note': 51, 'velocity': 64, 'start_time': 13410, 'track': 0, 'end_time': 13504, 'duration': 94}\n",
      "{'note': 38, 'velocity': 21, 'start_time': 13534, 'track': 0, 'end_time': 13628, 'duration': 94}\n",
      "{'note': 44, 'velocity': 100, 'start_time': 13643, 'track': 0, 'end_time': 13737, 'duration': 94}\n",
      "{'note': 51, 'velocity': 69, 'start_time': 13647, 'track': 0, 'end_time': 13741, 'duration': 94}\n",
      "{'note': 38, 'velocity': 24, 'start_time': 13654, 'track': 0, 'end_time': 13748, 'duration': 94}\n",
      "{'note': 51, 'velocity': 50, 'start_time': 13774, 'track': 0, 'end_time': 13867, 'duration': 93}\n",
      "{'note': 36, 'velocity': 46, 'start_time': 13781, 'track': 0, 'end_time': 13874, 'duration': 93}\n",
      "{'note': 51, 'velocity': 77, 'start_time': 13892, 'track': 0, 'end_time': 13986, 'duration': 94}\n",
      "{'note': 37, 'velocity': 79, 'start_time': 13901, 'track': 0, 'end_time': 13995, 'duration': 94}\n",
      "{'note': 38, 'velocity': 26, 'start_time': 14026, 'track': 0, 'end_time': 14120, 'duration': 94}\n",
      "{'note': 44, 'velocity': 87, 'start_time': 14137, 'track': 0, 'end_time': 14230, 'duration': 93}\n",
      "{'note': 51, 'velocity': 61, 'start_time': 14141, 'track': 0, 'end_time': 14235, 'duration': 94}\n",
      "{'note': 38, 'velocity': 25, 'start_time': 14145, 'track': 0, 'end_time': 14239, 'duration': 94}\n",
      "{'note': 51, 'velocity': 65, 'start_time': 14258, 'track': 0, 'end_time': 14352, 'duration': 94}\n",
      "{'note': 36, 'velocity': 51, 'start_time': 14283, 'track': 0, 'end_time': 14376, 'duration': 93}\n",
      "{'note': 51, 'velocity': 61, 'start_time': 14371, 'track': 0, 'end_time': 14465, 'duration': 94}\n",
      "{'note': 38, 'velocity': 38, 'start_time': 14486, 'track': 0, 'end_time': 14580, 'duration': 94}\n",
      "{'note': 44, 'velocity': 92, 'start_time': 14602, 'track': 0, 'end_time': 14696, 'duration': 94}\n",
      "{'note': 51, 'velocity': 66, 'start_time': 14605, 'track': 0, 'end_time': 14699, 'duration': 94}\n",
      "{'note': 36, 'velocity': 30, 'start_time': 14614, 'track': 0, 'end_time': 14707, 'duration': 93}\n",
      "{'note': 51, 'velocity': 62, 'start_time': 14728, 'track': 0, 'end_time': 14821, 'duration': 93}\n",
      "{'note': 36, 'velocity': 38, 'start_time': 14729, 'track': 0, 'end_time': 14821, 'duration': 92}\n",
      "{'note': 37, 'velocity': 79, 'start_time': 14829, 'track': 0, 'end_time': 14923, 'duration': 94}\n",
      "{'note': 51, 'velocity': 88, 'start_time': 14842, 'track': 0, 'end_time': 14935, 'duration': 93}\n",
      "{'note': 38, 'velocity': 31, 'start_time': 14965, 'track': 0, 'end_time': 15059, 'duration': 94}\n",
      "{'note': 44, 'velocity': 102, 'start_time': 15072, 'track': 0, 'end_time': 15167, 'duration': 95}\n",
      "{'note': 51, 'velocity': 79, 'start_time': 15084, 'track': 0, 'end_time': 15178, 'duration': 94}\n",
      "{'note': 38, 'velocity': 15, 'start_time': 15172, 'track': 0, 'end_time': 15266, 'duration': 94}\n",
      "{'note': 51, 'velocity': 68, 'start_time': 15200, 'track': 0, 'end_time': 15294, 'duration': 94}\n",
      "{'note': 36, 'velocity': 49, 'start_time': 15316, 'track': 0, 'end_time': 15410, 'duration': 94}\n",
      "{'note': 51, 'velocity': 86, 'start_time': 15329, 'track': 0, 'end_time': 15423, 'duration': 94}\n",
      "{'note': 38, 'velocity': 20, 'start_time': 15451, 'track': 0, 'end_time': 15545, 'duration': 94}\n",
      "{'note': 44, 'velocity': 102, 'start_time': 15542, 'track': 0, 'end_time': 15636, 'duration': 94}\n",
      "{'note': 43, 'velocity': 113, 'start_time': 15564, 'track': 0, 'end_time': 15658, 'duration': 94}\n",
      "{'note': 38, 'velocity': 14, 'start_time': 15693, 'track': 0, 'end_time': 15787, 'duration': 94}\n",
      "{'note': 45, 'velocity': 89, 'start_time': 15812, 'track': 0, 'end_time': 15905, 'duration': 93}\n",
      "{'note': 38, 'velocity': 18, 'start_time': 15910, 'track': 0, 'end_time': 16004, 'duration': 94}\n",
      "{'note': 44, 'velocity': 97, 'start_time': 16020, 'track': 0, 'end_time': 16113, 'duration': 93}\n",
      "{'note': 48, 'velocity': 105, 'start_time': 16040, 'track': 0, 'end_time': 16134, 'duration': 94}\n",
      "{'note': 38, 'velocity': 24, 'start_time': 16155, 'track': 0, 'end_time': 16248, 'duration': 93}\n",
      "{'note': 38, 'velocity': 74, 'start_time': 16285, 'track': 0, 'end_time': 16379, 'duration': 94}\n",
      "{'note': 38, 'velocity': 93, 'start_time': 16410, 'track': 0, 'end_time': 16504, 'duration': 94}\n",
      "{'note': 44, 'velocity': 95, 'start_time': 16500, 'track': 0, 'end_time': 16594, 'duration': 94}\n",
      "{'note': 38, 'velocity': 100, 'start_time': 16653, 'track': 0, 'end_time': 16746, 'duration': 93}\n",
      "{'note': 40, 'velocity': 113, 'start_time': 16783, 'track': 0, 'end_time': 16877, 'duration': 94}\n",
      "{'note': 44, 'velocity': 100, 'start_time': 17014, 'track': 0, 'end_time': 17108, 'duration': 94}\n",
      "{'note': 51, 'velocity': 57, 'start_time': 17146, 'track': 0, 'end_time': 17210, 'duration': 64}\n",
      "{'note': 51, 'velocity': 85, 'start_time': 17210, 'track': 0, 'end_time': 17240, 'duration': 30}\n",
      "{'note': 36, 'velocity': 66, 'start_time': 17263, 'track': 0, 'end_time': 17357, 'duration': 94}\n",
      "{'note': 55, 'velocity': 96, 'start_time': 17265, 'track': 0, 'end_time': 17358, 'duration': 93}\n",
      "{'note': 44, 'velocity': 102, 'start_time': 17501, 'track': 0, 'end_time': 17595, 'duration': 94}\n",
      "{'note': 36, 'velocity': 47, 'start_time': 17608, 'track': 0, 'end_time': 17702, 'duration': 94}\n",
      "{'note': 38, 'velocity': 93, 'start_time': 17738, 'track': 0, 'end_time': 17832, 'duration': 94}\n",
      "{'note': 51, 'velocity': 127, 'start_time': 17748, 'track': 0, 'end_time': 17841, 'duration': 93}\n",
      "{'note': 38, 'velocity': 20, 'start_time': 17863, 'track': 0, 'end_time': 17957, 'duration': 94}\n",
      "{'note': 51, 'velocity': 48, 'start_time': 17986, 'track': 0, 'end_time': 18080, 'duration': 94}\n",
      "{'note': 44, 'velocity': 105, 'start_time': 17991, 'track': 0, 'end_time': 18085, 'duration': 94}\n",
      "{'note': 38, 'velocity': 37, 'start_time': 18074, 'track': 0, 'end_time': 18168, 'duration': 94}\n",
      "{'note': 51, 'velocity': 48, 'start_time': 18094, 'track': 0, 'end_time': 18188, 'duration': 94}\n",
      "{'note': 51, 'velocity': 95, 'start_time': 18226, 'track': 0, 'end_time': 18320, 'duration': 94}\n",
      "{'note': 38, 'velocity': 28, 'start_time': 18330, 'track': 0, 'end_time': 18424, 'duration': 94}\n",
      "{'note': 36, 'velocity': 27, 'start_time': 18442, 'track': 0, 'end_time': 18535, 'duration': 93}\n",
      "{'note': 51, 'velocity': 71, 'start_time': 18454, 'track': 0, 'end_time': 18548, 'duration': 94}\n",
      "{'note': 44, 'velocity': 105, 'start_time': 18461, 'track': 0, 'end_time': 18555, 'duration': 94}\n",
      "{'note': 38, 'velocity': 33, 'start_time': 18462, 'track': 0, 'end_time': 18555, 'duration': 93}\n",
      "{'note': 36, 'velocity': 45, 'start_time': 18564, 'track': 0, 'end_time': 18658, 'duration': 94}\n",
      "{'note': 51, 'velocity': 62, 'start_time': 18573, 'track': 0, 'end_time': 18666, 'duration': 93}\n",
      "{'note': 51, 'velocity': 127, 'start_time': 18705, 'track': 0, 'end_time': 18799, 'duration': 94}\n",
      "{'note': 37, 'velocity': 81, 'start_time': 18709, 'track': 0, 'end_time': 18801, 'duration': 92}\n",
      "{'note': 38, 'velocity': 31, 'start_time': 18836, 'track': 0, 'end_time': 18929, 'duration': 93}\n",
      "{'note': 44, 'velocity': 102, 'start_time': 18940, 'track': 0, 'end_time': 19034, 'duration': 94}\n",
      "{'note': 51, 'velocity': 66, 'start_time': 18962, 'track': 0, 'end_time': 19055, 'duration': 93}\n",
      "{'note': 51, 'velocity': 62, 'start_time': 19068, 'track': 0, 'end_time': 19162, 'duration': 94}\n",
      "{'note': 38, 'velocity': 26, 'start_time': 19076, 'track': 0, 'end_time': 19169, 'duration': 93}\n",
      "{'note': 36, 'velocity': 43, 'start_time': 19184, 'track': 0, 'end_time': 19278, 'duration': 94}\n",
      "{'note': 51, 'velocity': 73, 'start_time': 19188, 'track': 0, 'end_time': 19281, 'duration': 93}\n",
      "{'note': 38, 'velocity': 24, 'start_time': 19315, 'track': 0, 'end_time': 19408, 'duration': 93}\n",
      "{'note': 44, 'velocity': 102, 'start_time': 19418, 'track': 0, 'end_time': 19511, 'duration': 93}\n",
      "{'note': 51, 'velocity': 67, 'start_time': 19422, 'track': 0, 'end_time': 19516, 'duration': 94}\n",
      "{'note': 38, 'velocity': 26, 'start_time': 19433, 'track': 0, 'end_time': 19526, 'duration': 93}\n",
      "{'note': 36, 'velocity': 42, 'start_time': 19541, 'track': 0, 'end_time': 19634, 'duration': 93}\n",
      "{'note': 51, 'velocity': 63, 'start_time': 19541, 'track': 0, 'end_time': 19634, 'duration': 93}\n",
      "{'note': 51, 'velocity': 86, 'start_time': 19669, 'track': 0, 'end_time': 19762, 'duration': 93}\n",
      "{'note': 38, 'velocity': 67, 'start_time': 19670, 'track': 0, 'end_time': 19762, 'duration': 92}\n",
      "{'note': 38, 'velocity': 19, 'start_time': 19787, 'track': 0, 'end_time': 19881, 'duration': 94}\n",
      "{'note': 44, 'velocity': 97, 'start_time': 19887, 'track': 0, 'end_time': 19981, 'duration': 94}\n",
      "{'note': 51, 'velocity': 64, 'start_time': 19915, 'track': 0, 'end_time': 20009, 'duration': 94}\n",
      "{'note': 38, 'velocity': 26, 'start_time': 19919, 'track': 0, 'end_time': 20013, 'duration': 94}\n",
      "{'note': 51, 'velocity': 61, 'start_time': 20014, 'track': 0, 'end_time': 20108, 'duration': 94}\n",
      "{'note': 36, 'velocity': 55, 'start_time': 20016, 'track': 0, 'end_time': 20110, 'duration': 94}\n",
      "{'note': 51, 'velocity': 71, 'start_time': 20142, 'track': 0, 'end_time': 20236, 'duration': 94}\n",
      "{'note': 38, 'velocity': 28, 'start_time': 20253, 'track': 0, 'end_time': 20347, 'duration': 94}\n",
      "{'note': 44, 'velocity': 87, 'start_time': 20363, 'track': 0, 'end_time': 20457, 'duration': 94}\n",
      "{'note': 51, 'velocity': 61, 'start_time': 20373, 'track': 0, 'end_time': 20466, 'duration': 93}\n",
      "{'note': 36, 'velocity': 25, 'start_time': 20374, 'track': 0, 'end_time': 20468, 'duration': 94}\n",
      "{'note': 36, 'velocity': 39, 'start_time': 20482, 'track': 0, 'end_time': 20576, 'duration': 94}\n",
      "{'note': 51, 'velocity': 56, 'start_time': 20496, 'track': 0, 'end_time': 20590, 'duration': 94}\n",
      "{'note': 37, 'velocity': 77, 'start_time': 20606, 'track': 0, 'end_time': 20699, 'duration': 93}\n",
      "{'note': 51, 'velocity': 94, 'start_time': 20611, 'track': 0, 'end_time': 20705, 'duration': 94}\n",
      "{'note': 38, 'velocity': 14, 'start_time': 20743, 'track': 0, 'end_time': 20837, 'duration': 94}\n",
      "{'note': 44, 'velocity': 100, 'start_time': 20843, 'track': 0, 'end_time': 20937, 'duration': 94}\n",
      "{'note': 51, 'velocity': 70, 'start_time': 20853, 'track': 0, 'end_time': 20947, 'duration': 94}\n",
      "{'note': 38, 'velocity': 44, 'start_time': 20964, 'track': 0, 'end_time': 21057, 'duration': 93}\n",
      "{'note': 51, 'velocity': 66, 'start_time': 20970, 'track': 0, 'end_time': 21063, 'duration': 93}\n",
      "{'note': 51, 'velocity': 69, 'start_time': 21088, 'track': 0, 'end_time': 21182, 'duration': 94}\n",
      "{'note': 36, 'velocity': 38, 'start_time': 21094, 'track': 0, 'end_time': 21187, 'duration': 93}\n",
      "{'note': 38, 'velocity': 30, 'start_time': 21204, 'track': 0, 'end_time': 21298, 'duration': 94}\n",
      "{'note': 36, 'velocity': 53, 'start_time': 21325, 'track': 0, 'end_time': 21418, 'duration': 93}\n",
      "{'note': 51, 'velocity': 71, 'start_time': 21329, 'track': 0, 'end_time': 21422, 'duration': 93}\n",
      "{'note': 44, 'velocity': 107, 'start_time': 21330, 'track': 0, 'end_time': 21424, 'duration': 94}\n",
      "{'note': 38, 'velocity': 32, 'start_time': 21335, 'track': 0, 'end_time': 21429, 'duration': 94}\n",
      "{'note': 51, 'velocity': 63, 'start_time': 21456, 'track': 0, 'end_time': 21550, 'duration': 94}\n",
      "{'note': 51, 'velocity': 80, 'start_time': 21569, 'track': 0, 'end_time': 21663, 'duration': 94}\n",
      "{'note': 38, 'velocity': 74, 'start_time': 21574, 'track': 0, 'end_time': 21668, 'duration': 94}\n",
      "{'note': 36, 'velocity': 53, 'start_time': 21699, 'track': 0, 'end_time': 21792, 'duration': 93}\n",
      "{'note': 44, 'velocity': 102, 'start_time': 21811, 'track': 0, 'end_time': 21905, 'duration': 94}\n",
      "{'note': 51, 'velocity': 60, 'start_time': 21824, 'track': 0, 'end_time': 21918, 'duration': 94}\n",
      "{'note': 51, 'velocity': 47, 'start_time': 21958, 'track': 0, 'end_time': 22051, 'duration': 93}\n",
      "{'note': 36, 'velocity': 53, 'start_time': 21962, 'track': 0, 'end_time': 22056, 'duration': 94}\n",
      "{'note': 51, 'velocity': 70, 'start_time': 22082, 'track': 0, 'end_time': 22176, 'duration': 94}\n",
      "{'note': 38, 'velocity': 26, 'start_time': 22187, 'track': 0, 'end_time': 22281, 'duration': 94}\n",
      "{'note': 36, 'velocity': 40, 'start_time': 22296, 'track': 0, 'end_time': 22390, 'duration': 94}\n",
      "{'note': 44, 'velocity': 110, 'start_time': 22302, 'track': 0, 'end_time': 22395, 'duration': 93}\n",
      "{'note': 38, 'velocity': 32, 'start_time': 22315, 'track': 0, 'end_time': 22408, 'duration': 93}\n",
      "{'note': 51, 'velocity': 75, 'start_time': 22319, 'track': 0, 'end_time': 22413, 'duration': 94}\n",
      "{'note': 36, 'velocity': 52, 'start_time': 22432, 'track': 0, 'end_time': 22525, 'duration': 93}\n",
      "{'note': 51, 'velocity': 62, 'start_time': 22444, 'track': 0, 'end_time': 22538, 'duration': 94}\n",
      "{'note': 38, 'velocity': 76, 'start_time': 22555, 'track': 0, 'end_time': 22648, 'duration': 93}\n",
      "{'note': 51, 'velocity': 90, 'start_time': 22570, 'track': 0, 'end_time': 22664, 'duration': 94}\n",
      "{'note': 38, 'velocity': 34, 'start_time': 22671, 'track': 0, 'end_time': 22764, 'duration': 93}\n",
      "{'note': 44, 'velocity': 110, 'start_time': 22787, 'track': 0, 'end_time': 22881, 'duration': 94}\n",
      "{'note': 51, 'velocity': 91, 'start_time': 22800, 'track': 0, 'end_time': 22893, 'duration': 93}\n",
      "{'note': 51, 'velocity': 71, 'start_time': 22913, 'track': 0, 'end_time': 23007, 'duration': 94}\n",
      "{'note': 36, 'velocity': 44, 'start_time': 23028, 'track': 0, 'end_time': 23121, 'duration': 93}\n",
      "{'note': 51, 'velocity': 81, 'start_time': 23038, 'track': 0, 'end_time': 23131, 'duration': 93}\n",
      "{'note': 38, 'velocity': 29, 'start_time': 23162, 'track': 0, 'end_time': 23256, 'duration': 94}\n",
      "{'note': 44, 'velocity': 100, 'start_time': 23263, 'track': 0, 'end_time': 23358, 'duration': 95}\n",
      "{'note': 43, 'velocity': 108, 'start_time': 23272, 'track': 0, 'end_time': 23366, 'duration': 94}\n",
      "{'note': 38, 'velocity': 24, 'start_time': 23385, 'track': 0, 'end_time': 23478, 'duration': 93}\n",
      "{'note': 38, 'velocity': 29, 'start_time': 23499, 'track': 0, 'end_time': 23593, 'duration': 94}\n",
      "{'note': 51, 'velocity': 99, 'start_time': 23629, 'track': 0, 'end_time': 23723, 'duration': 94}\n",
      "{'note': 36, 'velocity': 47, 'start_time': 23635, 'track': 0, 'end_time': 23728, 'duration': 93}\n",
      "{'note': 44, 'velocity': 100, 'start_time': 23729, 'track': 0, 'end_time': 23824, 'duration': 95}\n",
      "{'note': 38, 'velocity': 59, 'start_time': 23743, 'track': 0, 'end_time': 23836, 'duration': 93}\n",
      "{'note': 36, 'velocity': 45, 'start_time': 23869, 'track': 0, 'end_time': 23963, 'duration': 94}\n",
      "{'note': 51, 'velocity': 75, 'start_time': 23878, 'track': 0, 'end_time': 23972, 'duration': 94}\n",
      "{'note': 44, 'velocity': 20, 'start_time': 23955, 'track': 0, 'end_time': 24049, 'duration': 94}\n",
      "{'note': 51, 'velocity': 67, 'start_time': 23997, 'track': 0, 'end_time': 24091, 'duration': 94}\n",
      "{'note': 38, 'velocity': 31, 'start_time': 24113, 'track': 0, 'end_time': 24206, 'duration': 93}\n",
      "{'note': 44, 'velocity': 95, 'start_time': 24228, 'track': 0, 'end_time': 24322, 'duration': 94}\n",
      "{'note': 36, 'velocity': 53, 'start_time': 24230, 'track': 0, 'end_time': 24324, 'duration': 94}\n",
      "{'note': 51, 'velocity': 70, 'start_time': 24244, 'track': 0, 'end_time': 24338, 'duration': 94}\n",
      "{'note': 38, 'velocity': 80, 'start_time': 24338, 'track': 0, 'end_time': 24432, 'duration': 94}\n",
      "{'note': 43, 'velocity': 127, 'start_time': 24482, 'track': 0, 'end_time': 24576, 'duration': 94}\n",
      "{'note': 38, 'velocity': 33, 'start_time': 24587, 'track': 0, 'end_time': 24681, 'duration': 94}\n",
      "{'note': 44, 'velocity': 100, 'start_time': 24680, 'track': 0, 'end_time': 24774, 'duration': 94}\n",
      "{'note': 51, 'velocity': 75, 'start_time': 24711, 'track': 0, 'end_time': 24805, 'duration': 94}\n",
      "{'note': 36, 'velocity': 37, 'start_time': 24818, 'track': 0, 'end_time': 24912, 'duration': 94}\n",
      "{'note': 36, 'velocity': 53, 'start_time': 24942, 'track': 0, 'end_time': 25036, 'duration': 94}\n",
      "{'note': 59, 'velocity': 97, 'start_time': 24954, 'track': 0, 'end_time': 25047, 'duration': 93}\n",
      "{'note': 38, 'velocity': 13, 'start_time': 25043, 'track': 0, 'end_time': 25137, 'duration': 94}\n",
      "{'note': 38, 'velocity': 17, 'start_time': 25149, 'track': 0, 'end_time': 25243, 'duration': 94}\n",
      "{'note': 44, 'velocity': 102, 'start_time': 25159, 'track': 0, 'end_time': 25253, 'duration': 94}\n",
      "{'note': 51, 'velocity': 48, 'start_time': 25200, 'track': 0, 'end_time': 25294, 'duration': 94}\n",
      "{'note': 36, 'velocity': 44, 'start_time': 25290, 'track': 0, 'end_time': 25384, 'duration': 94}\n",
      "{'note': 51, 'velocity': 54, 'start_time': 25320, 'track': 0, 'end_time': 25413, 'duration': 93}\n",
      "{'note': 37, 'velocity': 83, 'start_time': 25413, 'track': 0, 'end_time': 25506, 'duration': 93}\n",
      "{'note': 51, 'velocity': 80, 'start_time': 25426, 'track': 0, 'end_time': 25519, 'duration': 93}\n",
      "{'note': 38, 'velocity': 32, 'start_time': 25529, 'track': 0, 'end_time': 25622, 'duration': 93}\n",
      "{'note': 44, 'velocity': 92, 'start_time': 25645, 'track': 0, 'end_time': 25739, 'duration': 94}\n",
      "{'note': 51, 'velocity': 79, 'start_time': 25646, 'track': 0, 'end_time': 25739, 'duration': 93}\n",
      "{'note': 38, 'velocity': 40, 'start_time': 25743, 'track': 0, 'end_time': 25837, 'duration': 94}\n",
      "{'note': 51, 'velocity': 64, 'start_time': 25755, 'track': 0, 'end_time': 25849, 'duration': 94}\n",
      "{'note': 51, 'velocity': 59, 'start_time': 25875, 'track': 0, 'end_time': 25968, 'duration': 93}\n",
      "{'note': 36, 'velocity': 43, 'start_time': 25883, 'track': 0, 'end_time': 25977, 'duration': 94}\n",
      "{'note': 38, 'velocity': 32, 'start_time': 25992, 'track': 0, 'end_time': 26086, 'duration': 94}\n",
      "{'note': 51, 'velocity': 69, 'start_time': 26111, 'track': 0, 'end_time': 26205, 'duration': 94}\n",
      "{'note': 38, 'velocity': 30, 'start_time': 26117, 'track': 0, 'end_time': 26211, 'duration': 94}\n",
      "{'note': 44, 'velocity': 105, 'start_time': 26120, 'track': 0, 'end_time': 26213, 'duration': 93}\n",
      "{'note': 51, 'velocity': 57, 'start_time': 26240, 'track': 0, 'end_time': 26333, 'duration': 93}\n",
      "{'note': 36, 'velocity': 48, 'start_time': 26254, 'track': 0, 'end_time': 26347, 'duration': 93}\n",
      "{'note': 37, 'velocity': 79, 'start_time': 26370, 'track': 0, 'end_time': 26464, 'duration': 94}\n",
      "{'note': 59, 'velocity': 82, 'start_time': 26370, 'track': 0, 'end_time': 26464, 'duration': 94}\n",
      "{'note': 38, 'velocity': 21, 'start_time': 26486, 'track': 0, 'end_time': 26578, 'duration': 92}\n",
      "{'note': 44, 'velocity': 95, 'start_time': 26616, 'track': 0, 'end_time': 26710, 'duration': 94}\n",
      "{'note': 51, 'velocity': 59, 'start_time': 26624, 'track': 0, 'end_time': 26717, 'duration': 93}\n",
      "{'note': 38, 'velocity': 41, 'start_time': 26708, 'track': 0, 'end_time': 26802, 'duration': 94}\n",
      "{'note': 51, 'velocity': 54, 'start_time': 26738, 'track': 0, 'end_time': 26832, 'duration': 94}\n",
      "{'note': 36, 'velocity': 45, 'start_time': 26855, 'track': 0, 'end_time': 26948, 'duration': 93}\n",
      "{'note': 51, 'velocity': 64, 'start_time': 26864, 'track': 0, 'end_time': 26958, 'duration': 94}\n",
      "{'note': 38, 'velocity': 28, 'start_time': 26982, 'track': 0, 'end_time': 27077, 'duration': 95}\n",
      "{'note': 44, 'velocity': 92, 'start_time': 27094, 'track': 0, 'end_time': 27188, 'duration': 94}\n",
      "{'note': 51, 'velocity': 67, 'start_time': 27101, 'track': 0, 'end_time': 27195, 'duration': 94}\n",
      "{'note': 38, 'velocity': 33, 'start_time': 27114, 'track': 0, 'end_time': 27208, 'duration': 94}\n",
      "{'note': 51, 'velocity': 49, 'start_time': 27228, 'track': 0, 'end_time': 27321, 'duration': 93}\n",
      "{'note': 36, 'velocity': 48, 'start_time': 27233, 'track': 0, 'end_time': 27327, 'duration': 94}\n",
      "{'note': 51, 'velocity': 112, 'start_time': 27356, 'track': 0, 'end_time': 27449, 'duration': 93}\n",
      "{'note': 38, 'velocity': 82, 'start_time': 27359, 'track': 0, 'end_time': 27453, 'duration': 94}\n",
      "{'note': 38, 'velocity': 32, 'start_time': 27477, 'track': 0, 'end_time': 27570, 'duration': 93}\n",
      "{'note': 44, 'velocity': 105, 'start_time': 27593, 'track': 0, 'end_time': 27688, 'duration': 95}\n",
      "{'note': 51, 'velocity': 68, 'start_time': 27596, 'track': 0, 'end_time': 27690, 'duration': 94}\n",
      "{'note': 38, 'velocity': 14, 'start_time': 27673, 'track': 0, 'end_time': 27767, 'duration': 94}\n",
      "{'note': 51, 'velocity': 61, 'start_time': 27706, 'track': 0, 'end_time': 27799, 'duration': 93}\n",
      "{'note': 36, 'velocity': 40, 'start_time': 27824, 'track': 0, 'end_time': 27917, 'duration': 93}\n",
      "{'note': 51, 'velocity': 79, 'start_time': 27829, 'track': 0, 'end_time': 27924, 'duration': 95}\n",
      "{'note': 37, 'velocity': 74, 'start_time': 27965, 'track': 0, 'end_time': 28058, 'duration': 93}\n",
      "{'note': 51, 'velocity': 70, 'start_time': 28073, 'track': 0, 'end_time': 28168, 'duration': 95}\n",
      "{'note': 44, 'velocity': 102, 'start_time': 28078, 'track': 0, 'end_time': 28172, 'duration': 94}\n",
      "{'note': 51, 'velocity': 59, 'start_time': 28191, 'track': 0, 'end_time': 28285, 'duration': 94}\n",
      "{'note': 36, 'velocity': 46, 'start_time': 28192, 'track': 0, 'end_time': 28285, 'duration': 93}\n",
      "{'note': 38, 'velocity': 70, 'start_time': 28312, 'track': 0, 'end_time': 28405, 'duration': 93}\n",
      "{'note': 51, 'velocity': 105, 'start_time': 28312, 'track': 0, 'end_time': 28405, 'duration': 93}\n",
      "{'note': 38, 'velocity': 35, 'start_time': 28427, 'track': 0, 'end_time': 28520, 'duration': 93}\n",
      "{'note': 51, 'velocity': 77, 'start_time': 28549, 'track': 0, 'end_time': 28643, 'duration': 94}\n",
      "{'note': 44, 'velocity': 100, 'start_time': 28555, 'track': 0, 'end_time': 28648, 'duration': 93}\n",
      "{'note': 38, 'velocity': 42, 'start_time': 28642, 'track': 0, 'end_time': 28735, 'duration': 93}\n",
      "{'note': 51, 'velocity': 65, 'start_time': 28663, 'track': 0, 'end_time': 28757, 'duration': 94}\n",
      "{'note': 36, 'velocity': 42, 'start_time': 28782, 'track': 0, 'end_time': 28876, 'duration': 94}\n",
      "{'note': 51, 'velocity': 56, 'start_time': 28784, 'track': 0, 'end_time': 28878, 'duration': 94}\n",
      "{'note': 38, 'velocity': 29, 'start_time': 28911, 'track': 0, 'end_time': 29005, 'duration': 94}\n",
      "{'note': 44, 'velocity': 102, 'start_time': 29027, 'track': 0, 'end_time': 29121, 'duration': 94}\n",
      "{'note': 38, 'velocity': 21, 'start_time': 29031, 'track': 0, 'end_time': 29125, 'duration': 94}\n",
      "{'note': 51, 'velocity': 61, 'start_time': 29034, 'track': 0, 'end_time': 29127, 'duration': 93}\n",
      "{'note': 36, 'velocity': 46, 'start_time': 29151, 'track': 0, 'end_time': 29245, 'duration': 94}\n",
      "{'note': 51, 'velocity': 47, 'start_time': 29160, 'track': 0, 'end_time': 29254, 'duration': 94}\n",
      "{'note': 51, 'velocity': 82, 'start_time': 29269, 'track': 0, 'end_time': 29361, 'duration': 92}\n",
      "{'note': 38, 'velocity': 77, 'start_time': 29271, 'track': 0, 'end_time': 29366, 'duration': 95}\n",
      "{'note': 44, 'velocity': 100, 'start_time': 29511, 'track': 0, 'end_time': 29605, 'duration': 94}\n",
      "{'note': 51, 'velocity': 68, 'start_time': 29518, 'track': 0, 'end_time': 29612, 'duration': 94}\n",
      "{'note': 38, 'velocity': 16, 'start_time': 29615, 'track': 0, 'end_time': 29709, 'duration': 94}\n",
      "{'note': 51, 'velocity': 56, 'start_time': 29631, 'track': 0, 'end_time': 29725, 'duration': 94}\n",
      "{'note': 51, 'velocity': 64, 'start_time': 29745, 'track': 0, 'end_time': 29839, 'duration': 94}\n",
      "{'note': 36, 'velocity': 37, 'start_time': 29749, 'track': 0, 'end_time': 29843, 'duration': 94}\n",
      "{'note': 38, 'velocity': 25, 'start_time': 29878, 'track': 0, 'end_time': 29973, 'duration': 95}\n",
      "{'note': 44, 'velocity': 100, 'start_time': 29984, 'track': 0, 'end_time': 30077, 'duration': 93}\n",
      "{'note': 51, 'velocity': 73, 'start_time': 29994, 'track': 0, 'end_time': 30088, 'duration': 94}\n",
      "{'note': 38, 'velocity': 33, 'start_time': 30001, 'track': 0, 'end_time': 30095, 'duration': 94}\n",
      "{'note': 36, 'velocity': 46, 'start_time': 30108, 'track': 0, 'end_time': 30202, 'duration': 94}\n",
      "{'note': 51, 'velocity': 57, 'start_time': 30117, 'track': 0, 'end_time': 30211, 'duration': 94}\n",
      "{'note': 38, 'velocity': 90, 'start_time': 30228, 'track': 0, 'end_time': 30321, 'duration': 93}\n",
      "{'note': 51, 'velocity': 73, 'start_time': 30228, 'track': 0, 'end_time': 30321, 'duration': 93}\n",
      "{'note': 38, 'velocity': 16, 'start_time': 30373, 'track': 0, 'end_time': 30467, 'duration': 94}\n",
      "{'note': 51, 'velocity': 81, 'start_time': 30478, 'track': 0, 'end_time': 30572, 'duration': 94}\n",
      "{'note': 44, 'velocity': 102, 'start_time': 30481, 'track': 0, 'end_time': 30574, 'duration': 93}\n",
      "{'note': 51, 'velocity': 61, 'start_time': 30594, 'track': 0, 'end_time': 30687, 'duration': 93}\n",
      "{'note': 36, 'velocity': 43, 'start_time': 30710, 'track': 0, 'end_time': 30803, 'duration': 93}\n",
      "{'note': 51, 'velocity': 62, 'start_time': 30719, 'track': 0, 'end_time': 30812, 'duration': 93}\n",
      "{'note': 44, 'velocity': 102, 'start_time': 30947, 'track': 0, 'end_time': 31041, 'duration': 94}\n",
      "{'note': 38, 'velocity': 89, 'start_time': 30958, 'track': 0, 'end_time': 31052, 'duration': 94}\n",
      "{'note': 38, 'velocity': 73, 'start_time': 31077, 'track': 0, 'end_time': 31171, 'duration': 94}\n",
      "{'note': 44, 'velocity': 22, 'start_time': 31170, 'track': 0, 'end_time': 31263, 'duration': 93}\n",
      "{'note': 38, 'velocity': 86, 'start_time': 31200, 'track': 0, 'end_time': 31293, 'duration': 93}\n",
      "{'note': 38, 'velocity': 80, 'start_time': 31320, 'track': 0, 'end_time': 31414, 'duration': 94}\n",
      "{'note': 44, 'velocity': 100, 'start_time': 31407, 'track': 0, 'end_time': 31500, 'duration': 93}\n",
      "{'note': 38, 'velocity': 76, 'start_time': 31431, 'track': 0, 'end_time': 31525, 'duration': 94}\n",
      "{'note': 38, 'velocity': 59, 'start_time': 31547, 'track': 0, 'end_time': 31641, 'duration': 94}\n",
      "{'note': 44, 'velocity': 20, 'start_time': 31645, 'track': 0, 'end_time': 31739, 'duration': 94}\n",
      "{'note': 36, 'velocity': 46, 'start_time': 31662, 'track': 0, 'end_time': 31755, 'duration': 93}\n",
      "{'note': 51, 'velocity': 67, 'start_time': 31670, 'track': 0, 'end_time': 31764, 'duration': 94}\n",
      "{'note': 38, 'velocity': 29, 'start_time': 31762, 'track': 0, 'end_time': 31856, 'duration': 94}\n",
      "{'note': 38, 'velocity': 33, 'start_time': 31879, 'track': 0, 'end_time': 31972, 'duration': 93}\n",
      "{'note': 44, 'velocity': 97, 'start_time': 31895, 'track': 0, 'end_time': 31988, 'duration': 93}\n",
      "{'note': 36, 'velocity': 51, 'start_time': 31998, 'track': 0, 'end_time': 32092, 'duration': 94}\n",
      "{'note': 55, 'velocity': 70, 'start_time': 32137, 'track': 0, 'end_time': 32230, 'duration': 93}\n",
      "{'note': 40, 'velocity': 108, 'start_time': 32148, 'track': 0, 'end_time': 32242, 'duration': 94}\n",
      "{'note': 38, 'velocity': 32, 'start_time': 32285, 'track': 0, 'end_time': 32378, 'duration': 93}\n",
      "{'note': 44, 'velocity': 97, 'start_time': 32365, 'track': 0, 'end_time': 32460, 'duration': 95}\n",
      "{'note': 51, 'velocity': 51, 'start_time': 32395, 'track': 0, 'end_time': 32488, 'duration': 93}\n",
      "{'note': 38, 'velocity': 66, 'start_time': 32498, 'track': 0, 'end_time': 32591, 'duration': 93}\n",
      "{'note': 36, 'velocity': 46, 'start_time': 32627, 'track': 0, 'end_time': 32721, 'duration': 94}\n",
      "{'note': 51, 'velocity': 79, 'start_time': 32629, 'track': 0, 'end_time': 32721, 'duration': 92}\n",
      "{'note': 38, 'velocity': 22, 'start_time': 32739, 'track': 0, 'end_time': 32833, 'duration': 94}\n",
      "{'note': 38, 'velocity': 27, 'start_time': 32852, 'track': 0, 'end_time': 32946, 'duration': 94}\n",
      "{'note': 44, 'velocity': 97, 'start_time': 32852, 'track': 0, 'end_time': 32946, 'duration': 94}\n",
      "{'note': 51, 'velocity': 58, 'start_time': 32863, 'track': 0, 'end_time': 32956, 'duration': 93}\n",
      "{'note': 51, 'velocity': 55, 'start_time': 32975, 'track': 0, 'end_time': 33069, 'duration': 94}\n",
      "{'note': 36, 'velocity': 50, 'start_time': 32980, 'track': 0, 'end_time': 33073, 'duration': 93}\n",
      "{'note': 38, 'velocity': 77, 'start_time': 33095, 'track': 0, 'end_time': 33189, 'duration': 94}\n",
      "{'note': 51, 'velocity': 127, 'start_time': 33105, 'track': 0, 'end_time': 33198, 'duration': 93}\n",
      "{'note': 38, 'velocity': 33, 'start_time': 33221, 'track': 0, 'end_time': 33314, 'duration': 93}\n",
      "{'note': 44, 'velocity': 95, 'start_time': 33329, 'track': 0, 'end_time': 33423, 'duration': 94}\n",
      "{'note': 51, 'velocity': 65, 'start_time': 33343, 'track': 0, 'end_time': 33437, 'duration': 94}\n",
      "{'note': 38, 'velocity': 37, 'start_time': 33426, 'track': 0, 'end_time': 33519, 'duration': 93}\n",
      "{'note': 51, 'velocity': 52, 'start_time': 33463, 'track': 0, 'end_time': 33557, 'duration': 94}\n",
      "{'note': 36, 'velocity': 41, 'start_time': 33553, 'track': 0, 'end_time': 33647, 'duration': 94}\n",
      "{'note': 51, 'velocity': 75, 'start_time': 33584, 'track': 0, 'end_time': 33678, 'duration': 94}\n",
      "{'note': 38, 'velocity': 26, 'start_time': 33691, 'track': 0, 'end_time': 33785, 'duration': 94}\n",
      "{'note': 44, 'velocity': 97, 'start_time': 33793, 'track': 0, 'end_time': 33888, 'duration': 95}\n",
      "{'note': 38, 'velocity': 33, 'start_time': 33803, 'track': 0, 'end_time': 33897, 'duration': 94}\n",
      "{'note': 51, 'velocity': 78, 'start_time': 33812, 'track': 0, 'end_time': 33905, 'duration': 93}\n",
      "{'note': 36, 'velocity': 46, 'start_time': 33920, 'track': 0, 'end_time': 34014, 'duration': 94}\n",
      "{'note': 51, 'velocity': 69, 'start_time': 33936, 'track': 0, 'end_time': 34029, 'duration': 93}\n",
      "{'note': 38, 'velocity': 67, 'start_time': 34041, 'track': 0, 'end_time': 34135, 'duration': 94}\n",
      "{'note': 51, 'velocity': 101, 'start_time': 34057, 'track': 0, 'end_time': 34151, 'duration': 94}\n",
      "{'note': 38, 'velocity': 26, 'start_time': 34175, 'track': 0, 'end_time': 34269, 'duration': 94}\n",
      "{'note': 44, 'velocity': 102, 'start_time': 34275, 'track': 0, 'end_time': 34368, 'duration': 93}\n",
      "{'note': 51, 'velocity': 127, 'start_time': 34280, 'track': 0, 'end_time': 34373, 'duration': 93}\n",
      "{'note': 38, 'velocity': 80, 'start_time': 34414, 'track': 0, 'end_time': 34508, 'duration': 94}\n",
      "{'note': 36, 'velocity': 39, 'start_time': 34527, 'track': 0, 'end_time': 34621, 'duration': 94}\n",
      "{'note': 51, 'velocity': 52, 'start_time': 34527, 'track': 0, 'end_time': 34621, 'duration': 94}\n",
      "{'note': 51, 'velocity': 51, 'start_time': 34648, 'track': 0, 'end_time': 34742, 'duration': 94}\n",
      "{'note': 44, 'velocity': 100, 'start_time': 34756, 'track': 0, 'end_time': 34849, 'duration': 93}\n",
      "{'note': 51, 'velocity': 98, 'start_time': 34774, 'track': 0, 'end_time': 34867, 'duration': 93}\n",
      "{'note': 36, 'velocity': 42, 'start_time': 34890, 'track': 0, 'end_time': 34984, 'duration': 94}\n",
      "{'note': 38, 'velocity': 58, 'start_time': 35007, 'track': 0, 'end_time': 35101, 'duration': 94}\n",
      "{'note': 51, 'velocity': 83, 'start_time': 35012, 'track': 0, 'end_time': 35106, 'duration': 94}\n",
      "{'note': 38, 'velocity': 29, 'start_time': 35113, 'track': 0, 'end_time': 35207, 'duration': 94}\n",
      "{'note': 51, 'velocity': 51, 'start_time': 35136, 'track': 0, 'end_time': 35228, 'duration': 92}\n",
      "{'note': 44, 'velocity': 97, 'start_time': 35247, 'track': 0, 'end_time': 35341, 'duration': 94}\n",
      "{'note': 51, 'velocity': 95, 'start_time': 35251, 'track': 0, 'end_time': 35345, 'duration': 94}\n",
      "{'note': 38, 'velocity': 62, 'start_time': 35360, 'track': 0, 'end_time': 35453, 'duration': 93}\n",
      "{'note': 36, 'velocity': 38, 'start_time': 35474, 'track': 0, 'end_time': 35568, 'duration': 94}\n",
      "{'note': 44, 'velocity': 20, 'start_time': 35475, 'track': 0, 'end_time': 35569, 'duration': 94}\n",
      "{'note': 51, 'velocity': 52, 'start_time': 35495, 'track': 0, 'end_time': 35588, 'duration': 93}\n",
      "{'note': 38, 'velocity': 32, 'start_time': 35602, 'track': 0, 'end_time': 35695, 'duration': 93}\n",
      "{'note': 44, 'velocity': 100, 'start_time': 35714, 'track': 0, 'end_time': 35807, 'duration': 93}\n",
      "{'note': 51, 'velocity': 74, 'start_time': 35722, 'track': 0, 'end_time': 35815, 'duration': 93}\n",
      "{'note': 38, 'velocity': 32, 'start_time': 35725, 'track': 0, 'end_time': 35819, 'duration': 94}\n",
      "{'note': 51, 'velocity': 64, 'start_time': 35843, 'track': 0, 'end_time': 35937, 'duration': 94}\n",
      "{'note': 36, 'velocity': 43, 'start_time': 35844, 'track': 0, 'end_time': 35937, 'duration': 93}\n",
      "{'note': 44, 'velocity': 27, 'start_time': 35942, 'track': 0, 'end_time': 36035, 'duration': 93}\n",
      "{'note': 51, 'velocity': 90, 'start_time': 35963, 'track': 0, 'end_time': 36057, 'duration': 94}\n",
      "{'note': 38, 'velocity': 69, 'start_time': 35968, 'track': 0, 'end_time': 36062, 'duration': 94}\n",
      "{'note': 38, 'velocity': 35, 'start_time': 36098, 'track': 0, 'end_time': 36192, 'duration': 94}\n",
      "{'note': 44, 'velocity': 100, 'start_time': 36189, 'track': 0, 'end_time': 36283, 'duration': 94}\n",
      "{'note': 51, 'velocity': 98, 'start_time': 36208, 'track': 0, 'end_time': 36301, 'duration': 93}\n",
      "{'note': 38, 'velocity': 45, 'start_time': 36330, 'track': 0, 'end_time': 36423, 'duration': 93}\n",
      "{'note': 51, 'velocity': 65, 'start_time': 36334, 'track': 0, 'end_time': 36428, 'duration': 94}\n",
      "{'note': 36, 'velocity': 38, 'start_time': 36438, 'track': 0, 'end_time': 36532, 'duration': 94}\n",
      "{'note': 51, 'velocity': 62, 'start_time': 36448, 'track': 0, 'end_time': 36542, 'duration': 94}\n",
      "{'note': 38, 'velocity': 30, 'start_time': 36569, 'track': 0, 'end_time': 36662, 'duration': 93}\n",
      "{'note': 44, 'velocity': 105, 'start_time': 36662, 'track': 0, 'end_time': 36756, 'duration': 94}\n",
      "{'note': 51, 'velocity': 72, 'start_time': 36683, 'track': 0, 'end_time': 36777, 'duration': 94}\n",
      "{'note': 38, 'velocity': 33, 'start_time': 36690, 'track': 0, 'end_time': 36784, 'duration': 94}\n",
      "{'note': 51, 'velocity': 71, 'start_time': 36810, 'track': 0, 'end_time': 36904, 'duration': 94}\n",
      "{'note': 36, 'velocity': 40, 'start_time': 36817, 'track': 0, 'end_time': 36910, 'duration': 93}\n",
      "{'note': 51, 'velocity': 83, 'start_time': 36928, 'track': 0, 'end_time': 37022, 'duration': 94}\n",
      "{'note': 37, 'velocity': 71, 'start_time': 36932, 'track': 0, 'end_time': 37025, 'duration': 93}\n",
      "{'note': 38, 'velocity': 18, 'start_time': 37049, 'track': 0, 'end_time': 37142, 'duration': 93}\n",
      "{'note': 44, 'velocity': 95, 'start_time': 37151, 'track': 0, 'end_time': 37245, 'duration': 94}\n",
      "{'note': 38, 'velocity': 28, 'start_time': 37183, 'track': 0, 'end_time': 37277, 'duration': 94}\n",
      "{'note': 36, 'velocity': 46, 'start_time': 37293, 'track': 0, 'end_time': 37387, 'duration': 94}\n",
      "{'note': 51, 'velocity': 102, 'start_time': 37299, 'track': 0, 'end_time': 37392, 'duration': 93}\n",
      "{'note': 44, 'velocity': 17, 'start_time': 37380, 'track': 0, 'end_time': 37475, 'duration': 95}\n",
      "{'note': 38, 'velocity': 22, 'start_time': 37429, 'track': 0, 'end_time': 37523, 'duration': 94}\n",
      "{'note': 36, 'velocity': 11, 'start_time': 37519, 'track': 0, 'end_time': 37613, 'duration': 94}\n",
      "{'note': 51, 'velocity': 54, 'start_time': 37530, 'track': 0, 'end_time': 37624, 'duration': 94}\n",
      "{'note': 36, 'velocity': 52, 'start_time': 37638, 'track': 0, 'end_time': 37731, 'duration': 93}\n",
      "{'note': 44, 'velocity': 105, 'start_time': 37639, 'track': 0, 'end_time': 37731, 'duration': 92}\n",
      "{'note': 51, 'velocity': 113, 'start_time': 37643, 'track': 0, 'end_time': 37737, 'duration': 94}\n",
      "{'note': 38, 'velocity': 25, 'start_time': 37761, 'track': 0, 'end_time': 37855, 'duration': 94}\n",
      "{'note': 44, 'velocity': 22, 'start_time': 37859, 'track': 0, 'end_time': 37952, 'duration': 93}\n",
      "{'note': 38, 'velocity': 33, 'start_time': 37883, 'track': 0, 'end_time': 37976, 'duration': 93}\n",
      "{'note': 36, 'velocity': 52, 'start_time': 37998, 'track': 0, 'end_time': 38092, 'duration': 94}\n",
      "{'note': 51, 'velocity': 127, 'start_time': 38013, 'track': 0, 'end_time': 38107, 'duration': 94}\n",
      "{'note': 44, 'velocity': 97, 'start_time': 38104, 'track': 0, 'end_time': 38197, 'duration': 93}\n",
      "{'note': 37, 'velocity': 77, 'start_time': 38122, 'track': 0, 'end_time': 38215, 'duration': 93}\n",
      "{'note': 38, 'velocity': 41, 'start_time': 38249, 'track': 0, 'end_time': 38343, 'duration': 94}\n",
      "{'note': 36, 'velocity': 51, 'start_time': 38346, 'track': 0, 'end_time': 38440, 'duration': 94}\n",
      "{'note': 51, 'velocity': 117, 'start_time': 38382, 'track': 0, 'end_time': 38476, 'duration': 94}\n",
      "{'note': 38, 'velocity': 21, 'start_time': 38458, 'track': 0, 'end_time': 38552, 'duration': 94}\n",
      "{'note': 44, 'velocity': 102, 'start_time': 38580, 'track': 0, 'end_time': 38674, 'duration': 94}\n",
      "{'note': 45, 'velocity': 98, 'start_time': 38599, 'track': 0, 'end_time': 38693, 'duration': 94}\n",
      "{'note': 38, 'velocity': 30, 'start_time': 38702, 'track': 0, 'end_time': 38796, 'duration': 94}\n",
      "{'note': 38, 'velocity': 28, 'start_time': 38829, 'track': 0, 'end_time': 38922, 'duration': 93}\n",
      "{'note': 36, 'velocity': 18, 'start_time': 38933, 'track': 0, 'end_time': 39027, 'duration': 94}\n",
      "{'note': 51, 'velocity': 85, 'start_time': 38969, 'track': 0, 'end_time': 39062, 'duration': 93}\n",
      "{'note': 36, 'velocity': 55, 'start_time': 39070, 'track': 0, 'end_time': 39163, 'duration': 93}\n",
      "{'note': 44, 'velocity': 97, 'start_time': 39072, 'track': 0, 'end_time': 39165, 'duration': 93}\n",
      "{'note': 51, 'velocity': 127, 'start_time': 39088, 'track': 0, 'end_time': 39182, 'duration': 94}\n",
      "{'note': 38, 'velocity': 29, 'start_time': 39193, 'track': 0, 'end_time': 39287, 'duration': 94}\n",
      "{'note': 38, 'velocity': 31, 'start_time': 39310, 'track': 0, 'end_time': 39404, 'duration': 94}\n",
      "{'note': 36, 'velocity': 26, 'start_time': 39429, 'track': 0, 'end_time': 39522, 'duration': 93}\n",
      "{'note': 51, 'velocity': 80, 'start_time': 39434, 'track': 0, 'end_time': 39528, 'duration': 94}\n",
      "{'note': 44, 'velocity': 102, 'start_time': 39562, 'track': 0, 'end_time': 39655, 'duration': 93}\n",
      "{'note': 36, 'velocity': 56, 'start_time': 39564, 'track': 0, 'end_time': 39658, 'duration': 94}\n",
      "{'note': 51, 'velocity': 117, 'start_time': 39568, 'track': 0, 'end_time': 39662, 'duration': 94}\n",
      "{'note': 38, 'velocity': 33, 'start_time': 39682, 'track': 0, 'end_time': 39776, 'duration': 94}\n",
      "{'note': 44, 'velocity': 22, 'start_time': 39791, 'track': 0, 'end_time': 39884, 'duration': 93}\n",
      "{'note': 38, 'velocity': 32, 'start_time': 39798, 'track': 0, 'end_time': 39892, 'duration': 94}\n",
      "{'note': 43, 'velocity': 106, 'start_time': 39924, 'track': 0, 'end_time': 40017, 'duration': 93}\n",
      "{'note': 37, 'velocity': 71, 'start_time': 40032, 'track': 0, 'end_time': 40126, 'duration': 94}\n",
      "{'note': 44, 'velocity': 102, 'start_time': 40034, 'track': 0, 'end_time': 40128, 'duration': 94}\n",
      "{'note': 36, 'velocity': 51, 'start_time': 40158, 'track': 0, 'end_time': 40252, 'duration': 94}\n",
      "{'note': 51, 'velocity': 88, 'start_time': 40160, 'track': 0, 'end_time': 40252, 'duration': 92}\n",
      "{'note': 38, 'velocity': 29, 'start_time': 40264, 'track': 0, 'end_time': 40358, 'duration': 94}\n",
      "{'note': 36, 'velocity': 26, 'start_time': 40387, 'track': 0, 'end_time': 40481, 'duration': 94}\n",
      "{'note': 51, 'velocity': 77, 'start_time': 40390, 'track': 0, 'end_time': 40483, 'duration': 93}\n",
      "{'note': 44, 'velocity': 85, 'start_time': 40507, 'track': 0, 'end_time': 40601, 'duration': 94}\n",
      "{'note': 51, 'velocity': 99, 'start_time': 40519, 'track': 0, 'end_time': 40613, 'duration': 94}\n",
      "{'note': 36, 'velocity': 51, 'start_time': 40528, 'track': 0, 'end_time': 40622, 'duration': 94}\n",
      "{'note': 38, 'velocity': 21, 'start_time': 40620, 'track': 0, 'end_time': 40713, 'duration': 93}\n",
      "{'note': 51, 'velocity': 36, 'start_time': 40742, 'track': 0, 'end_time': 40836, 'duration': 94}\n",
      "{'note': 38, 'velocity': 12, 'start_time': 40763, 'track': 0, 'end_time': 40857, 'duration': 94}\n",
      "{'note': 51, 'velocity': 29, 'start_time': 40877, 'track': 0, 'end_time': 40971, 'duration': 94}\n",
      "{'note': 36, 'velocity': 48, 'start_time': 40878, 'track': 0, 'end_time': 40971, 'duration': 93}\n",
      "{'note': 44, 'velocity': 102, 'start_time': 41006, 'track': 0, 'end_time': 41099, 'duration': 93}\n",
      "{'note': 53, 'velocity': 84, 'start_time': 41012, 'track': 0, 'end_time': 41106, 'duration': 94}\n",
      "{'note': 40, 'velocity': 98, 'start_time': 41016, 'track': 0, 'end_time': 41110, 'duration': 94}\n",
      "{'note': 38, 'velocity': 32, 'start_time': 41156, 'track': 0, 'end_time': 41250, 'duration': 94}\n",
      "{'note': 44, 'velocity': 25, 'start_time': 41239, 'track': 0, 'end_time': 41333, 'duration': 94}\n",
      "{'note': 36, 'velocity': 41, 'start_time': 41261, 'track': 0, 'end_time': 41354, 'duration': 93}\n",
      "{'note': 51, 'velocity': 43, 'start_time': 41276, 'track': 0, 'end_time': 41369, 'duration': 93}\n",
      "{'note': 38, 'velocity': 19, 'start_time': 41368, 'track': 0, 'end_time': 41462, 'duration': 94}\n",
      "{'note': 44, 'velocity': 97, 'start_time': 41487, 'track': 0, 'end_time': 41581, 'duration': 94}\n",
      "{'note': 38, 'velocity': 16, 'start_time': 41488, 'track': 0, 'end_time': 41581, 'duration': 93}\n",
      "{'note': 51, 'velocity': 79, 'start_time': 41496, 'track': 0, 'end_time': 41590, 'duration': 94}\n",
      "{'note': 36, 'velocity': 44, 'start_time': 41623, 'track': 0, 'end_time': 41716, 'duration': 93}\n",
      "{'note': 44, 'velocity': 20, 'start_time': 41731, 'track': 0, 'end_time': 41824, 'duration': 93}\n",
      "{'note': 37, 'velocity': 81, 'start_time': 41734, 'track': 0, 'end_time': 41829, 'duration': 95}\n",
      "{'note': 51, 'velocity': 40, 'start_time': 41751, 'track': 0, 'end_time': 41845, 'duration': 94}\n",
      "{'note': 38, 'velocity': 29, 'start_time': 41867, 'track': 0, 'end_time': 41960, 'duration': 93}\n",
      "{'note': 51, 'velocity': 39, 'start_time': 41871, 'track': 0, 'end_time': 41966, 'duration': 95}\n",
      "{'note': 44, 'velocity': 102, 'start_time': 41989, 'track': 0, 'end_time': 42082, 'duration': 93}\n",
      "{'note': 53, 'velocity': 72, 'start_time': 41992, 'track': 0, 'end_time': 42086, 'duration': 94}\n",
      "{'note': 38, 'velocity': 31, 'start_time': 42120, 'track': 0, 'end_time': 42214, 'duration': 94}\n",
      "{'note': 36, 'velocity': 34, 'start_time': 42225, 'track': 0, 'end_time': 42319, 'duration': 94}\n",
      "{'note': 44, 'velocity': 30, 'start_time': 42229, 'track': 0, 'end_time': 42323, 'duration': 94}\n",
      "{'note': 51, 'velocity': 35, 'start_time': 42235, 'track': 0, 'end_time': 42329, 'duration': 94}\n",
      "{'note': 38, 'velocity': 8, 'start_time': 42281, 'track': 0, 'end_time': 42375, 'duration': 94}\n",
      "{'note': 51, 'velocity': 22, 'start_time': 42347, 'track': 0, 'end_time': 42441, 'duration': 94}\n",
      "{'note': 53, 'velocity': 73, 'start_time': 42463, 'track': 0, 'end_time': 42556, 'duration': 93}\n",
      "{'note': 44, 'velocity': 100, 'start_time': 42472, 'track': 0, 'end_time': 42566, 'duration': 94}\n",
      "{'note': 36, 'velocity': 40, 'start_time': 42576, 'track': 0, 'end_time': 42670, 'duration': 94}\n",
      "{'note': 51, 'velocity': 42, 'start_time': 42703, 'track': 0, 'end_time': 42797, 'duration': 94}\n",
      "{'note': 44, 'velocity': 25, 'start_time': 42712, 'track': 0, 'end_time': 42806, 'duration': 94}\n",
      "{'note': 38, 'velocity': 70, 'start_time': 42715, 'track': 0, 'end_time': 42806, 'duration': 91}\n",
      "{'note': 38, 'velocity': 22, 'start_time': 42806, 'track': 0, 'end_time': 42809, 'duration': 3}\n",
      "{'note': 51, 'velocity': 38, 'start_time': 42821, 'track': 0, 'end_time': 42914, 'duration': 93}\n",
      "{'note': 53, 'velocity': 66, 'start_time': 42949, 'track': 0, 'end_time': 43042, 'duration': 93}\n",
      "{'note': 44, 'velocity': 97, 'start_time': 42958, 'track': 0, 'end_time': 43053, 'duration': 95}\n",
      "{'note': 38, 'velocity': 28, 'start_time': 43068, 'track': 0, 'end_time': 43162, 'duration': 94}\n",
      "{'note': 36, 'velocity': 36, 'start_time': 43174, 'track': 0, 'end_time': 43267, 'duration': 93}\n",
      "{'note': 44, 'velocity': 30, 'start_time': 43187, 'track': 0, 'end_time': 43281, 'duration': 94}\n",
      "{'note': 38, 'velocity': 30, 'start_time': 43188, 'track': 0, 'end_time': 43281, 'duration': 93}\n",
      "{'note': 51, 'velocity': 35, 'start_time': 43193, 'track': 0, 'end_time': 43286, 'duration': 93}\n",
      "{'note': 51, 'velocity': 36, 'start_time': 43304, 'track': 0, 'end_time': 43398, 'duration': 94}\n",
      "{'note': 38, 'velocity': 26, 'start_time': 43315, 'track': 0, 'end_time': 43409, 'duration': 94}\n",
      "{'note': 53, 'velocity': 67, 'start_time': 43426, 'track': 0, 'end_time': 43520, 'duration': 94}\n",
      "{'note': 44, 'velocity': 100, 'start_time': 43428, 'track': 0, 'end_time': 43520, 'duration': 92}\n",
      "{'note': 36, 'velocity': 44, 'start_time': 43532, 'track': 0, 'end_time': 43625, 'duration': 93}\n",
      "{'note': 38, 'velocity': 80, 'start_time': 43660, 'track': 0, 'end_time': 43753, 'duration': 93}\n",
      "{'note': 44, 'velocity': 22, 'start_time': 43661, 'track': 0, 'end_time': 43756, 'duration': 95}\n",
      "{'note': 51, 'velocity': 45, 'start_time': 43670, 'track': 0, 'end_time': 43763, 'duration': 93}\n",
      "{'note': 38, 'velocity': 31, 'start_time': 43786, 'track': 0, 'end_time': 43879, 'duration': 93}\n",
      "{'note': 51, 'velocity': 23, 'start_time': 43790, 'track': 0, 'end_time': 43884, 'duration': 94}\n",
      "{'note': 53, 'velocity': 93, 'start_time': 43907, 'track': 0, 'end_time': 44001, 'duration': 94}\n",
      "{'note': 44, 'velocity': 100, 'start_time': 43918, 'track': 0, 'end_time': 44012, 'duration': 94}\n",
      "{'note': 37, 'velocity': 72, 'start_time': 44019, 'track': 0, 'end_time': 44112, 'duration': 93}\n",
      "{'note': 51, 'velocity': 32, 'start_time': 44149, 'track': 0, 'end_time': 44242, 'duration': 93}\n",
      "{'note': 36, 'velocity': 44, 'start_time': 44162, 'track': 0, 'end_time': 44256, 'duration': 94}\n",
      "{'note': 51, 'velocity': 34, 'start_time': 44269, 'track': 0, 'end_time': 44363, 'duration': 94}\n",
      "{'note': 38, 'velocity': 19, 'start_time': 44356, 'track': 0, 'end_time': 44450, 'duration': 94}\n",
      "{'note': 53, 'velocity': 61, 'start_time': 44397, 'track': 0, 'end_time': 44490, 'duration': 93}\n",
      "{'note': 44, 'velocity': 102, 'start_time': 44398, 'track': 0, 'end_time': 44492, 'duration': 94}\n",
      "{'note': 36, 'velocity': 48, 'start_time': 44509, 'track': 0, 'end_time': 44602, 'duration': 93}\n",
      "{'note': 37, 'velocity': 72, 'start_time': 44633, 'track': 0, 'end_time': 44726, 'duration': 93}\n",
      "{'note': 51, 'velocity': 39, 'start_time': 44634, 'track': 0, 'end_time': 44728, 'duration': 94}\n",
      "{'note': 44, 'velocity': 22, 'start_time': 44636, 'track': 0, 'end_time': 44729, 'duration': 93}\n",
      "{'note': 51, 'velocity': 32, 'start_time': 44750, 'track': 0, 'end_time': 44844, 'duration': 94}\n",
      "{'note': 38, 'velocity': 28, 'start_time': 44757, 'track': 0, 'end_time': 44850, 'duration': 93}\n",
      "{'note': 53, 'velocity': 66, 'start_time': 44872, 'track': 0, 'end_time': 44965, 'duration': 93}\n",
      "{'note': 44, 'velocity': 97, 'start_time': 44895, 'track': 0, 'end_time': 44989, 'duration': 94}\n",
      "{'note': 38, 'velocity': 37, 'start_time': 44995, 'track': 0, 'end_time': 45089, 'duration': 94}\n",
      "{'note': 51, 'velocity': 28, 'start_time': 45117, 'track': 0, 'end_time': 45210, 'duration': 93}\n",
      "{'note': 36, 'velocity': 36, 'start_time': 45118, 'track': 0, 'end_time': 45210, 'duration': 92}\n",
      "{'note': 44, 'velocity': 25, 'start_time': 45137, 'track': 0, 'end_time': 45231, 'duration': 94}\n",
      "{'note': 38, 'velocity': 17, 'start_time': 45141, 'track': 0, 'end_time': 45234, 'duration': 93}\n",
      "{'note': 51, 'velocity': 31, 'start_time': 45237, 'track': 0, 'end_time': 45331, 'duration': 94}\n",
      "{'note': 38, 'velocity': 13, 'start_time': 45246, 'track': 0, 'end_time': 45340, 'duration': 94}\n",
      "{'note': 53, 'velocity': 69, 'start_time': 45353, 'track': 0, 'end_time': 45447, 'duration': 94}\n",
      "{'note': 44, 'velocity': 105, 'start_time': 45366, 'track': 0, 'end_time': 45460, 'duration': 94}\n",
      "{'note': 36, 'velocity': 41, 'start_time': 45467, 'track': 0, 'end_time': 45560, 'duration': 93}\n",
      "{'note': 38, 'velocity': 64, 'start_time': 45587, 'track': 0, 'end_time': 45681, 'duration': 94}\n",
      "{'note': 51, 'velocity': 39, 'start_time': 45597, 'track': 0, 'end_time': 45690, 'duration': 93}\n",
      "{'note': 44, 'velocity': 30, 'start_time': 45601, 'track': 0, 'end_time': 45695, 'duration': 94}\n",
      "{'note': 51, 'velocity': 31, 'start_time': 45710, 'track': 0, 'end_time': 45804, 'duration': 94}\n",
      "{'note': 38, 'velocity': 21, 'start_time': 45722, 'track': 0, 'end_time': 45816, 'duration': 94}\n",
      "{'note': 53, 'velocity': 76, 'start_time': 45835, 'track': 0, 'end_time': 45929, 'duration': 94}\n",
      "{'note': 44, 'velocity': 102, 'start_time': 45836, 'track': 0, 'end_time': 45929, 'duration': 93}\n",
      "{'note': 38, 'velocity': 29, 'start_time': 45939, 'track': 0, 'end_time': 46032, 'duration': 93}\n",
      "{'note': 36, 'velocity': 36, 'start_time': 46063, 'track': 0, 'end_time': 46156, 'duration': 93}\n",
      "{'note': 44, 'velocity': 27, 'start_time': 46069, 'track': 0, 'end_time': 46163, 'duration': 94}\n",
      "{'note': 51, 'velocity': 38, 'start_time': 46078, 'track': 0, 'end_time': 46172, 'duration': 94}\n",
      "{'note': 38, 'velocity': 9, 'start_time': 46088, 'track': 0, 'end_time': 46182, 'duration': 94}\n",
      "{'note': 51, 'velocity': 33, 'start_time': 46192, 'track': 0, 'end_time': 46286, 'duration': 94}\n",
      "{'note': 38, 'velocity': 21, 'start_time': 46206, 'track': 0, 'end_time': 46300, 'duration': 94}\n",
      "{'note': 44, 'velocity': 100, 'start_time': 46298, 'track': 0, 'end_time': 46391, 'duration': 93}\n",
      "{'note': 53, 'velocity': 71, 'start_time': 46309, 'track': 0, 'end_time': 46402, 'duration': 93}\n",
      "{'note': 36, 'velocity': 42, 'start_time': 46417, 'track': 0, 'end_time': 46510, 'duration': 93}\n",
      "{'note': 44, 'velocity': 25, 'start_time': 46531, 'track': 0, 'end_time': 46625, 'duration': 94}\n",
      "{'note': 37, 'velocity': 72, 'start_time': 46538, 'track': 0, 'end_time': 46632, 'duration': 94}\n",
      "{'note': 51, 'velocity': 45, 'start_time': 46544, 'track': 0, 'end_time': 46637, 'duration': 93}\n",
      "{'note': 51, 'velocity': 31, 'start_time': 46660, 'track': 0, 'end_time': 46754, 'duration': 94}\n",
      "{'note': 44, 'velocity': 100, 'start_time': 46767, 'track': 0, 'end_time': 46861, 'duration': 94}\n",
      "{'note': 53, 'velocity': 106, 'start_time': 46784, 'track': 0, 'end_time': 46878, 'duration': 94}\n",
      "{'note': 36, 'velocity': 36, 'start_time': 47023, 'track': 0, 'end_time': 47117, 'duration': 94}\n",
      "{'note': 51, 'velocity': 43, 'start_time': 47027, 'track': 0, 'end_time': 47121, 'duration': 94}\n",
      "{'note': 51, 'velocity': 38, 'start_time': 47141, 'track': 0, 'end_time': 47235, 'duration': 94}\n",
      "{'note': 45, 'velocity': 95, 'start_time': 47158, 'track': 0, 'end_time': 47252, 'duration': 94}\n",
      "{'note': 44, 'velocity': 102, 'start_time': 47251, 'track': 0, 'end_time': 47346, 'duration': 95}\n",
      "{'note': 51, 'velocity': 57, 'start_time': 47260, 'track': 0, 'end_time': 47353, 'duration': 93}\n",
      "{'note': 36, 'velocity': 45, 'start_time': 47381, 'track': 0, 'end_time': 47474, 'duration': 93}\n",
      "{'note': 43, 'velocity': 104, 'start_time': 47495, 'track': 0, 'end_time': 47589, 'duration': 94}\n",
      "{'note': 51, 'velocity': 38, 'start_time': 47506, 'track': 0, 'end_time': 47600, 'duration': 94}\n",
      "{'note': 51, 'velocity': 43, 'start_time': 47619, 'track': 0, 'end_time': 47713, 'duration': 94}\n",
      "{'note': 44, 'velocity': 97, 'start_time': 47736, 'track': 0, 'end_time': 47831, 'duration': 95}\n",
      "{'note': 53, 'velocity': 73, 'start_time': 47747, 'track': 0, 'end_time': 47841, 'duration': 94}\n",
      "{'note': 36, 'velocity': 36, 'start_time': 47859, 'track': 0, 'end_time': 47952, 'duration': 93}\n",
      "{'note': 44, 'velocity': 25, 'start_time': 47972, 'track': 0, 'end_time': 48066, 'duration': 94}\n",
      "{'note': 55, 'velocity': 61, 'start_time': 47974, 'track': 0, 'end_time': 48067, 'duration': 93}\n",
      "{'note': 36, 'velocity': 40, 'start_time': 47975, 'track': 0, 'end_time': 48067, 'duration': 92}\n",
      "{'note': 51, 'velocity': 36, 'start_time': 48002, 'track': 0, 'end_time': 48095, 'duration': 93}\n",
      "{'note': 51, 'velocity': 38, 'start_time': 48112, 'track': 0, 'end_time': 48206, 'duration': 94}\n",
      "{'note': 44, 'velocity': 97, 'start_time': 48220, 'track': 0, 'end_time': 48313, 'duration': 93}\n",
      "{'note': 53, 'velocity': 82, 'start_time': 48238, 'track': 0, 'end_time': 48332, 'duration': 94}\n",
      "{'note': 36, 'velocity': 44, 'start_time': 48340, 'track': 0, 'end_time': 48434, 'duration': 94}\n",
      "{'note': 44, 'velocity': 35, 'start_time': 48456, 'track': 0, 'end_time': 48549, 'duration': 93}\n",
      "{'note': 38, 'velocity': 84, 'start_time': 48463, 'track': 0, 'end_time': 48557, 'duration': 94}\n",
      "{'note': 51, 'velocity': 37, 'start_time': 48473, 'track': 0, 'end_time': 48566, 'duration': 93}\n",
      "{'note': 51, 'velocity': 35, 'start_time': 48587, 'track': 0, 'end_time': 48680, 'duration': 93}\n",
      "{'note': 44, 'velocity': 100, 'start_time': 48708, 'track': 0, 'end_time': 48802, 'duration': 94}\n",
      "{'note': 53, 'velocity': 68, 'start_time': 48713, 'track': 0, 'end_time': 48806, 'duration': 93}\n",
      "{'note': 36, 'velocity': 46, 'start_time': 48814, 'track': 0, 'end_time': 48907, 'duration': 93}\n",
      "{'note': 44, 'velocity': 17, 'start_time': 48942, 'track': 0, 'end_time': 49035, 'duration': 93}\n",
      "{'note': 51, 'velocity': 42, 'start_time': 48942, 'track': 0, 'end_time': 49035, 'duration': 93}\n",
      "{'note': 45, 'velocity': 108, 'start_time': 49046, 'track': 0, 'end_time': 49139, 'duration': 93}\n",
      "{'note': 53, 'velocity': 42, 'start_time': 49055, 'track': 0, 'end_time': 49149, 'duration': 94}\n",
      "{'note': 53, 'velocity': 71, 'start_time': 49179, 'track': 0, 'end_time': 49273, 'duration': 94}\n",
      "{'note': 44, 'velocity': 102, 'start_time': 49190, 'track': 0, 'end_time': 49284, 'duration': 94}\n",
      "{'note': 36, 'velocity': 46, 'start_time': 49260, 'track': 0, 'end_time': 49354, 'duration': 94}\n",
      "{'note': 53, 'velocity': 49, 'start_time': 49411, 'track': 0, 'end_time': 49505, 'duration': 94}\n",
      "{'note': 43, 'velocity': 127, 'start_time': 49424, 'track': 0, 'end_time': 49518, 'duration': 94}\n",
      "{'note': 51, 'velocity': 32, 'start_time': 49536, 'track': 0, 'end_time': 49629, 'duration': 93}\n",
      "{'note': 44, 'velocity': 97, 'start_time': 49643, 'track': 0, 'end_time': 49736, 'duration': 93}\n",
      "{'note': 53, 'velocity': 62, 'start_time': 49662, 'track': 0, 'end_time': 49756, 'duration': 94}\n",
      "{'note': 40, 'velocity': 91, 'start_time': 49793, 'track': 0, 'end_time': 49886, 'duration': 93}\n",
      "{'note': 51, 'velocity': 37, 'start_time': 49912, 'track': 0, 'end_time': 50005, 'duration': 93}\n",
      "{'note': 36, 'velocity': 47, 'start_time': 49916, 'track': 0, 'end_time': 50010, 'duration': 94}\n",
      "{'note': 51, 'velocity': 35, 'start_time': 50019, 'track': 0, 'end_time': 50112, 'duration': 93}\n",
      "{'note': 44, 'velocity': 97, 'start_time': 50130, 'track': 0, 'end_time': 50223, 'duration': 93}\n",
      "{'note': 53, 'velocity': 55, 'start_time': 50151, 'track': 0, 'end_time': 50245, 'duration': 94}\n",
      "{'note': 36, 'velocity': 51, 'start_time': 50264, 'track': 0, 'end_time': 50357, 'duration': 93}\n",
      "{'note': 40, 'velocity': 108, 'start_time': 50376, 'track': 0, 'end_time': 50470, 'duration': 94}\n",
      "{'note': 53, 'velocity': 33, 'start_time': 50401, 'track': 0, 'end_time': 50495, 'duration': 94}\n",
      "{'note': 51, 'velocity': 36, 'start_time': 50514, 'track': 0, 'end_time': 50607, 'duration': 93}\n",
      "{'note': 44, 'velocity': 97, 'start_time': 50612, 'track': 0, 'end_time': 50706, 'duration': 94}\n",
      "{'note': 53, 'velocity': 70, 'start_time': 50633, 'track': 0, 'end_time': 50726, 'duration': 93}\n",
      "{'note': 45, 'velocity': 77, 'start_time': 50754, 'track': 0, 'end_time': 50848, 'duration': 94}\n",
      "{'note': 51, 'velocity': 42, 'start_time': 50862, 'track': 0, 'end_time': 50956, 'duration': 94}\n",
      "{'note': 51, 'velocity': 36, 'start_time': 50971, 'track': 0, 'end_time': 51064, 'duration': 93}\n",
      "{'note': 44, 'velocity': 97, 'start_time': 51091, 'track': 0, 'end_time': 51185, 'duration': 94}\n",
      "{'note': 53, 'velocity': 69, 'start_time': 51094, 'track': 0, 'end_time': 51187, 'duration': 93}\n",
      "{'note': 36, 'velocity': 47, 'start_time': 51212, 'track': 0, 'end_time': 51305, 'duration': 93}\n",
      "{'note': 53, 'velocity': 37, 'start_time': 51356, 'track': 0, 'end_time': 51450, 'duration': 94}\n",
      "{'note': 58, 'velocity': 98, 'start_time': 51359, 'track': 0, 'end_time': 51453, 'duration': 94}\n",
      "{'note': 51, 'velocity': 33, 'start_time': 51475, 'track': 0, 'end_time': 51569, 'duration': 94}\n",
      "{'note': 44, 'velocity': 100, 'start_time': 51583, 'track': 0, 'end_time': 51677, 'duration': 94}\n",
      "{'note': 53, 'velocity': 63, 'start_time': 51591, 'track': 0, 'end_time': 51685, 'duration': 94}\n",
      "{'note': 36, 'velocity': 34, 'start_time': 51715, 'track': 0, 'end_time': 51808, 'duration': 93}\n",
      "{'note': 44, 'velocity': 27, 'start_time': 51811, 'track': 0, 'end_time': 51905, 'duration': 94}\n",
      "{'note': 51, 'velocity': 38, 'start_time': 51840, 'track': 0, 'end_time': 51934, 'duration': 94}\n",
      "{'note': 36, 'velocity': 44, 'start_time': 51841, 'track': 0, 'end_time': 51935, 'duration': 94}\n",
      "{'note': 51, 'velocity': 31, 'start_time': 51946, 'track': 0, 'end_time': 52040, 'duration': 94}\n",
      "{'note': 44, 'velocity': 97, 'start_time': 52049, 'track': 0, 'end_time': 52143, 'duration': 94}\n",
      "{'note': 53, 'velocity': 73, 'start_time': 52064, 'track': 0, 'end_time': 52158, 'duration': 94}\n",
      "{'note': 36, 'velocity': 49, 'start_time': 52178, 'track': 0, 'end_time': 52271, 'duration': 93}\n",
      "{'note': 37, 'velocity': 85, 'start_time': 52305, 'track': 0, 'end_time': 52398, 'duration': 93}\n",
      "{'note': 53, 'velocity': 39, 'start_time': 52310, 'track': 0, 'end_time': 52404, 'duration': 94}\n",
      "{'note': 51, 'velocity': 32, 'start_time': 52421, 'track': 0, 'end_time': 52515, 'duration': 94}\n",
      "{'note': 44, 'velocity': 95, 'start_time': 52538, 'track': 0, 'end_time': 52631, 'duration': 93}\n",
      "{'note': 53, 'velocity': 75, 'start_time': 52551, 'track': 0, 'end_time': 52644, 'duration': 93}\n",
      "{'note': 36, 'velocity': 53, 'start_time': 52663, 'track': 0, 'end_time': 52757, 'duration': 94}\n",
      "{'note': 44, 'velocity': 30, 'start_time': 52778, 'track': 0, 'end_time': 52873, 'duration': 95}\n",
      "{'note': 51, 'velocity': 36, 'start_time': 52798, 'track': 0, 'end_time': 52891, 'duration': 93}\n",
      "{'note': 45, 'velocity': 112, 'start_time': 52895, 'track': 0, 'end_time': 52989, 'duration': 94}\n",
      "{'note': 53, 'velocity': 65, 'start_time': 53020, 'track': 0, 'end_time': 53114, 'duration': 94}\n",
      "{'note': 44, 'velocity': 100, 'start_time': 53021, 'track': 0, 'end_time': 53114, 'duration': 93}\n",
      "{'note': 36, 'velocity': 48, 'start_time': 53139, 'track': 0, 'end_time': 53233, 'duration': 94}\n",
      "{'note': 44, 'velocity': 20, 'start_time': 53245, 'track': 0, 'end_time': 53339, 'duration': 94}\n",
      "{'note': 53, 'velocity': 43, 'start_time': 53273, 'track': 0, 'end_time': 53366, 'duration': 93}\n",
      "{'note': 43, 'velocity': 100, 'start_time': 53275, 'track': 0, 'end_time': 53369, 'duration': 94}\n",
      "{'note': 51, 'velocity': 33, 'start_time': 53395, 'track': 0, 'end_time': 53489, 'duration': 94}\n",
      "{'note': 44, 'velocity': 102, 'start_time': 53496, 'track': 0, 'end_time': 53591, 'duration': 95}\n",
      "{'note': 53, 'velocity': 71, 'start_time': 53512, 'track': 0, 'end_time': 53606, 'duration': 94}\n",
      "{'note': 38, 'velocity': 90, 'start_time': 53631, 'track': 0, 'end_time': 53725, 'duration': 94}\n",
      "{'note': 44, 'velocity': 22, 'start_time': 53719, 'track': 0, 'end_time': 53813, 'duration': 94}\n",
      "{'note': 51, 'velocity': 40, 'start_time': 53756, 'track': 0, 'end_time': 53850, 'duration': 94}\n",
      "{'note': 51, 'velocity': 39, 'start_time': 53861, 'track': 0, 'end_time': 53956, 'duration': 95}\n",
      "{'note': 44, 'velocity': 97, 'start_time': 53957, 'track': 0, 'end_time': 54050, 'duration': 93}\n",
      "{'note': 53, 'velocity': 70, 'start_time': 53991, 'track': 0, 'end_time': 54085, 'duration': 94}\n",
      "{'note': 36, 'velocity': 48, 'start_time': 54090, 'track': 0, 'end_time': 54183, 'duration': 93}\n",
      "{'note': 44, 'velocity': 17, 'start_time': 54192, 'track': 0, 'end_time': 54286, 'duration': 94}\n",
      "{'note': 40, 'velocity': 93, 'start_time': 54222, 'track': 0, 'end_time': 54316, 'duration': 94}\n",
      "{'note': 51, 'velocity': 45, 'start_time': 54233, 'track': 0, 'end_time': 54327, 'duration': 94}\n",
      "{'note': 51, 'velocity': 39, 'start_time': 54338, 'track': 0, 'end_time': 54432, 'duration': 94}\n",
      "{'note': 44, 'velocity': 97, 'start_time': 54442, 'track': 0, 'end_time': 54536, 'duration': 94}\n",
      "{'note': 53, 'velocity': 72, 'start_time': 54463, 'track': 0, 'end_time': 54557, 'duration': 94}\n",
      "{'note': 47, 'velocity': 98, 'start_time': 54575, 'track': 0, 'end_time': 54669, 'duration': 94}\n",
      "{'note': 44, 'velocity': 17, 'start_time': 54669, 'track': 0, 'end_time': 54764, 'duration': 95}\n",
      "{'note': 43, 'velocity': 88, 'start_time': 54794, 'track': 0, 'end_time': 54887, 'duration': 93}\n",
      "{'note': 44, 'velocity': 95, 'start_time': 54909, 'track': 0, 'end_time': 55003, 'duration': 94}\n",
      "{'note': 51, 'velocity': 127, 'start_time': 54912, 'track': 0, 'end_time': 55005, 'duration': 93}\n",
      "{'note': 36, 'velocity': 47, 'start_time': 55026, 'track': 0, 'end_time': 55119, 'duration': 93}\n",
      "{'note': 44, 'velocity': 25, 'start_time': 55134, 'track': 0, 'end_time': 55229, 'duration': 95}\n",
      "{'note': 43, 'velocity': 104, 'start_time': 55158, 'track': 0, 'end_time': 55252, 'duration': 94}\n",
      "{'note': 43, 'velocity': 107, 'start_time': 55277, 'track': 0, 'end_time': 55371, 'duration': 94}\n",
      "{'note': 44, 'velocity': 95, 'start_time': 55377, 'track': 0, 'end_time': 55470, 'duration': 93}\n",
      "{'note': 43, 'velocity': 71, 'start_time': 55387, 'track': 0, 'end_time': 55480, 'duration': 93}\n",
      "{'note': 59, 'velocity': 44, 'start_time': 55514, 'track': 0, 'end_time': 55607, 'duration': 93}\n",
      "{'note': 36, 'velocity': 34, 'start_time': 55519, 'track': 0, 'end_time': 55612, 'duration': 93}\n",
      "{'note': 44, 'velocity': 27, 'start_time': 55609, 'track': 0, 'end_time': 55702, 'duration': 93}\n",
      "{'note': 55, 'velocity': 86, 'start_time': 55624, 'track': 0, 'end_time': 55718, 'duration': 94}\n",
      "{'note': 36, 'velocity': 43, 'start_time': 55627, 'track': 0, 'end_time': 55721, 'duration': 94}\n",
      "{'note': 44, 'velocity': 97, 'start_time': 55853, 'track': 0, 'end_time': 55947, 'duration': 94}\n",
      "{'note': 51, 'velocity': 33, 'start_time': 55865, 'track': 0, 'end_time': 55958, 'duration': 93}\n",
      "{'note': 36, 'velocity': 46, 'start_time': 56005, 'track': 0, 'end_time': 56098, 'duration': 93}\n",
      "{'note': 38, 'velocity': 83, 'start_time': 56118, 'track': 0, 'end_time': 56212, 'duration': 94}\n",
      "{'note': 51, 'velocity': 28, 'start_time': 56138, 'track': 0, 'end_time': 56232, 'duration': 94}\n",
      "{'note': 51, 'velocity': 34, 'start_time': 56261, 'track': 0, 'end_time': 56354, 'duration': 93}\n",
      "{'note': 44, 'velocity': 90, 'start_time': 56335, 'track': 0, 'end_time': 56429, 'duration': 94}\n",
      "{'note': 53, 'velocity': 64, 'start_time': 56373, 'track': 0, 'end_time': 56466, 'duration': 93}\n",
      "{'note': 36, 'velocity': 44, 'start_time': 56476, 'track': 0, 'end_time': 56570, 'duration': 94}\n",
      "{'note': 38, 'velocity': 26, 'start_time': 56483, 'track': 0, 'end_time': 56576, 'duration': 93}\n",
      "{'note': 44, 'velocity': 17, 'start_time': 56577, 'track': 0, 'end_time': 56671, 'duration': 94}\n",
      "{'note': 51, 'velocity': 35, 'start_time': 56613, 'track': 0, 'end_time': 56706, 'duration': 93}\n",
      "{'note': 51, 'velocity': 30, 'start_time': 56721, 'track': 0, 'end_time': 56815, 'duration': 94}\n",
      "{'note': 44, 'velocity': 97, 'start_time': 56816, 'track': 0, 'end_time': 56910, 'duration': 94}\n",
      "{'note': 51, 'velocity': 73, 'start_time': 56838, 'track': 0, 'end_time': 56931, 'duration': 93}\n",
      "{'note': 36, 'velocity': 43, 'start_time': 56962, 'track': 0, 'end_time': 57056, 'duration': 94}\n",
      "{'note': 51, 'velocity': 46, 'start_time': 57086, 'track': 0, 'end_time': 57179, 'duration': 93}\n",
      "{'note': 38, 'velocity': 84, 'start_time': 57099, 'track': 0, 'end_time': 57193, 'duration': 94}\n",
      "{'note': 51, 'velocity': 33, 'start_time': 57213, 'track': 0, 'end_time': 57306, 'duration': 93}\n",
      "{'note': 44, 'velocity': 97, 'start_time': 57325, 'track': 0, 'end_time': 57418, 'duration': 93}\n",
      "{'note': 51, 'velocity': 81, 'start_time': 57327, 'track': 0, 'end_time': 57421, 'duration': 94}\n",
      "{'note': 38, 'velocity': 34, 'start_time': 57445, 'track': 0, 'end_time': 57497, 'duration': 52}\n",
      "{'note': 38, 'velocity': 24, 'start_time': 57497, 'track': 0, 'end_time': 57539, 'duration': 42}\n",
      "{'note': 44, 'velocity': 32, 'start_time': 57568, 'track': 0, 'end_time': 57662, 'duration': 94}\n",
      "{'note': 51, 'velocity': 42, 'start_time': 57580, 'track': 0, 'end_time': 57674, 'duration': 94}\n",
      "{'note': 36, 'velocity': 44, 'start_time': 57583, 'track': 0, 'end_time': 57677, 'duration': 94}\n",
      "{'note': 51, 'velocity': 40, 'start_time': 57688, 'track': 0, 'end_time': 57782, 'duration': 94}\n",
      "{'note': 53, 'velocity': 67, 'start_time': 57806, 'track': 0, 'end_time': 57899, 'duration': 93}\n",
      "{'note': 44, 'velocity': 97, 'start_time': 57808, 'track': 0, 'end_time': 57902, 'duration': 94}\n",
      "{'note': 36, 'velocity': 46, 'start_time': 57944, 'track': 0, 'end_time': 58038, 'duration': 94}\n",
      "{'note': 51, 'velocity': 45, 'start_time': 58060, 'track': 0, 'end_time': 58154, 'duration': 94}\n",
      "{'note': 38, 'velocity': 68, 'start_time': 58065, 'track': 0, 'end_time': 58159, 'duration': 94}\n",
      "{'note': 51, 'velocity': 35, 'start_time': 58178, 'track': 0, 'end_time': 58272, 'duration': 94}\n",
      "{'note': 53, 'velocity': 72, 'start_time': 58292, 'track': 0, 'end_time': 58386, 'duration': 94}\n",
      "{'note': 44, 'velocity': 97, 'start_time': 58293, 'track': 0, 'end_time': 58386, 'duration': 93}\n",
      "{'note': 38, 'velocity': 8, 'start_time': 58429, 'track': 0, 'end_time': 58522, 'duration': 93}\n",
      "{'note': 36, 'velocity': 49, 'start_time': 58434, 'track': 0, 'end_time': 58528, 'duration': 94}\n",
      "{'note': 44, 'velocity': 25, 'start_time': 58535, 'track': 0, 'end_time': 58629, 'duration': 94}\n",
      "{'note': 51, 'velocity': 40, 'start_time': 58535, 'track': 0, 'end_time': 58629, 'duration': 94}\n",
      "{'note': 51, 'velocity': 39, 'start_time': 58656, 'track': 0, 'end_time': 58750, 'duration': 94}\n",
      "{'note': 38, 'velocity': 48, 'start_time': 58670, 'track': 0, 'end_time': 58764, 'duration': 94}\n",
      "{'note': 44, 'velocity': 97, 'start_time': 58777, 'track': 0, 'end_time': 58871, 'duration': 94}\n",
      "{'note': 53, 'velocity': 78, 'start_time': 58783, 'track': 0, 'end_time': 58877, 'duration': 94}\n",
      "{'note': 36, 'velocity': 47, 'start_time': 58928, 'track': 0, 'end_time': 59021, 'duration': 93}\n",
      "{'note': 44, 'velocity': 17, 'start_time': 59008, 'track': 0, 'end_time': 59102, 'duration': 94}\n",
      "{'note': 51, 'velocity': 40, 'start_time': 59035, 'track': 0, 'end_time': 59128, 'duration': 93}\n",
      "{'note': 37, 'velocity': 71, 'start_time': 59046, 'track': 0, 'end_time': 59139, 'duration': 93}\n",
      "{'note': 51, 'velocity': 38, 'start_time': 59159, 'track': 0, 'end_time': 59253, 'duration': 94}\n",
      "{'note': 44, 'velocity': 105, 'start_time': 59270, 'track': 0, 'end_time': 59364, 'duration': 94}\n",
      "{'note': 53, 'velocity': 70, 'start_time': 59277, 'track': 0, 'end_time': 59370, 'duration': 93}\n",
      "{'note': 38, 'velocity': 34, 'start_time': 59377, 'track': 0, 'end_time': 59445, 'duration': 68}\n",
      "{'note': 38, 'velocity': 31, 'start_time': 59445, 'track': 0, 'end_time': 59471, 'duration': 26}\n",
      "{'note': 51, 'velocity': 37, 'start_time': 59523, 'track': 0, 'end_time': 59616, 'duration': 93}\n",
      "{'note': 36, 'velocity': 43, 'start_time': 59534, 'track': 0, 'end_time': 59627, 'duration': 93}\n",
      "{'note': 38, 'velocity': 20, 'start_time': 59622, 'track': 0, 'end_time': 59716, 'duration': 94}\n",
      "{'note': 51, 'velocity': 24, 'start_time': 59646, 'track': 0, 'end_time': 59740, 'duration': 94}\n",
      "{'note': 53, 'velocity': 67, 'start_time': 59753, 'track': 0, 'end_time': 59846, 'duration': 93}\n",
      "{'note': 44, 'velocity': 100, 'start_time': 59755, 'track': 0, 'end_time': 59849, 'duration': 94}\n",
      "{'note': 36, 'velocity': 46, 'start_time': 59868, 'track': 0, 'end_time': 59963, 'duration': 95}\n",
      "{'note': 38, 'velocity': 64, 'start_time': 59983, 'track': 0, 'end_time': 60077, 'duration': 94}\n",
      "{'note': 44, 'velocity': 27, 'start_time': 59986, 'track': 0, 'end_time': 60079, 'duration': 93}\n",
      "{'note': 51, 'velocity': 33, 'start_time': 59992, 'track': 0, 'end_time': 60086, 'duration': 94}\n",
      "{'note': 51, 'velocity': 33, 'start_time': 60110, 'track': 0, 'end_time': 60204, 'duration': 94}\n",
      "{'note': 44, 'velocity': 100, 'start_time': 60220, 'track': 0, 'end_time': 60313, 'duration': 93}\n",
      "{'note': 53, 'velocity': 69, 'start_time': 60226, 'track': 0, 'end_time': 60320, 'duration': 94}\n",
      "{'note': 38, 'velocity': 27, 'start_time': 60343, 'track': 0, 'end_time': 60437, 'duration': 94}\n",
      "{'note': 36, 'velocity': 40, 'start_time': 60345, 'track': 0, 'end_time': 60438, 'duration': 93}\n",
      "{'note': 44, 'velocity': 22, 'start_time': 60454, 'track': 0, 'end_time': 60547, 'duration': 93}\n",
      "{'note': 51, 'velocity': 35, 'start_time': 60468, 'track': 0, 'end_time': 60562, 'duration': 94}\n",
      "{'note': 51, 'velocity': 37, 'start_time': 60584, 'track': 0, 'end_time': 60678, 'duration': 94}\n",
      "{'note': 44, 'velocity': 105, 'start_time': 60698, 'track': 0, 'end_time': 60791, 'duration': 93}\n",
      "{'note': 53, 'velocity': 75, 'start_time': 60704, 'track': 0, 'end_time': 60798, 'duration': 94}\n",
      "{'note': 36, 'velocity': 43, 'start_time': 60842, 'track': 0, 'end_time': 60935, 'duration': 93}\n",
      "{'note': 44, 'velocity': 17, 'start_time': 60922, 'track': 0, 'end_time': 61016, 'duration': 94}\n",
      "{'note': 38, 'velocity': 61, 'start_time': 60959, 'track': 0, 'end_time': 61052, 'duration': 93}\n",
      "{'note': 51, 'velocity': 36, 'start_time': 60966, 'track': 0, 'end_time': 61059, 'duration': 93}\n",
      "{'note': 51, 'velocity': 41, 'start_time': 61083, 'track': 0, 'end_time': 61176, 'duration': 93}\n",
      "{'note': 44, 'velocity': 100, 'start_time': 61182, 'track': 0, 'end_time': 61276, 'duration': 94}\n",
      "{'note': 53, 'velocity': 95, 'start_time': 61198, 'track': 0, 'end_time': 61292, 'duration': 94}\n",
      "{'note': 38, 'velocity': 36, 'start_time': 61309, 'track': 0, 'end_time': 61403, 'duration': 94}\n",
      "{'note': 44, 'velocity': 27, 'start_time': 61414, 'track': 0, 'end_time': 61508, 'duration': 94}\n",
      "{'note': 36, 'velocity': 38, 'start_time': 61429, 'track': 0, 'end_time': 61523, 'duration': 94}\n",
      "{'note': 51, 'velocity': 50, 'start_time': 61441, 'track': 0, 'end_time': 61535, 'duration': 94}\n",
      "{'note': 48, 'velocity': 81, 'start_time': 61558, 'track': 0, 'end_time': 61651, 'duration': 93}\n",
      "{'note': 44, 'velocity': 92, 'start_time': 61660, 'track': 0, 'end_time': 61753, 'duration': 93}\n",
      "{'note': 48, 'velocity': 81, 'start_time': 61679, 'track': 0, 'end_time': 61772, 'duration': 93}\n",
      "{'note': 36, 'velocity': 48, 'start_time': 61789, 'track': 0, 'end_time': 61883, 'duration': 94}\n",
      "{'note': 44, 'velocity': 30, 'start_time': 61886, 'track': 0, 'end_time': 61980, 'duration': 94}\n",
      "{'note': 45, 'velocity': 94, 'start_time': 61920, 'track': 0, 'end_time': 62014, 'duration': 94}\n",
      "{'note': 38, 'velocity': 35, 'start_time': 62021, 'track': 0, 'end_time': 62081, 'duration': 60}\n",
      "{'note': 38, 'velocity': 31, 'start_time': 62081, 'track': 0, 'end_time': 62114, 'duration': 33}\n",
      "{'note': 43, 'velocity': 114, 'start_time': 62140, 'track': 0, 'end_time': 62235, 'duration': 95}\n",
      "{'note': 44, 'velocity': 97, 'start_time': 62142, 'track': 0, 'end_time': 62235, 'duration': 93}\n",
      "{'note': 38, 'velocity': 37, 'start_time': 62233, 'track': 0, 'end_time': 62297, 'duration': 64}\n",
      "{'note': 38, 'velocity': 36, 'start_time': 62297, 'track': 0, 'end_time': 62327, 'duration': 30}\n",
      "{'note': 44, 'velocity': 22, 'start_time': 62369, 'track': 0, 'end_time': 62462, 'duration': 93}\n",
      "{'note': 38, 'velocity': 109, 'start_time': 62372, 'track': 0, 'end_time': 62391, 'duration': 19}\n",
      "{'note': 38, 'velocity': 30, 'start_time': 62503, 'track': 0, 'end_time': 62597, 'duration': 94}\n",
      "{'note': 44, 'velocity': 95, 'start_time': 62612, 'track': 0, 'end_time': 62706, 'duration': 94}\n",
      "{'note': 38, 'velocity': 104, 'start_time': 62620, 'track': 0, 'end_time': 62713, 'duration': 93}\n",
      "{'note': 44, 'velocity': 37, 'start_time': 62843, 'track': 0, 'end_time': 62937, 'duration': 94}\n",
      "{'note': 38, 'velocity': 102, 'start_time': 62875, 'track': 0, 'end_time': 62969, 'duration': 94}\n",
      "{'note': 38, 'velocity': 82, 'start_time': 62994, 'track': 0, 'end_time': 63088, 'duration': 94}\n",
      "{'note': 44, 'velocity': 102, 'start_time': 63084, 'track': 0, 'end_time': 63177, 'duration': 93}\n",
      "{'note': 38, 'velocity': 77, 'start_time': 63110, 'track': 0, 'end_time': 63204, 'duration': 94}\n",
      "{'note': 36, 'velocity': 36, 'start_time': 63224, 'track': 0, 'end_time': 63317, 'duration': 93}\n",
      "{'note': 55, 'velocity': 73, 'start_time': 63331, 'track': 0, 'end_time': 63425, 'duration': 94}\n",
      "{'note': 36, 'velocity': 48, 'start_time': 63333, 'track': 0, 'end_time': 63427, 'duration': 94}\n",
      "{'note': 38, 'velocity': 11, 'start_time': 63460, 'track': 0, 'end_time': 63551, 'duration': 91}\n",
      "{'note': 38, 'velocity': 13, 'start_time': 63551, 'track': 0, 'end_time': 63553, 'duration': 2}\n",
      "{'note': 44, 'velocity': 97, 'start_time': 63562, 'track': 0, 'end_time': 63656, 'duration': 94}\n",
      "{'note': 51, 'velocity': 59, 'start_time': 63586, 'track': 0, 'end_time': 63680, 'duration': 94}\n",
      "{'note': 36, 'velocity': 46, 'start_time': 63697, 'track': 0, 'end_time': 63791, 'duration': 94}\n",
      "{'note': 51, 'velocity': 44, 'start_time': 63711, 'track': 0, 'end_time': 63805, 'duration': 94}\n",
      "{'note': 44, 'velocity': 22, 'start_time': 63807, 'track': 0, 'end_time': 63900, 'duration': 93}\n",
      "{'note': 51, 'velocity': 80, 'start_time': 63820, 'track': 0, 'end_time': 63913, 'duration': 93}\n",
      "{'note': 38, 'velocity': 68, 'start_time': 63824, 'track': 0, 'end_time': 63917, 'duration': 93}\n",
      "{'note': 38, 'velocity': 35, 'start_time': 63941, 'track': 0, 'end_time': 64034, 'duration': 93}\n",
      "{'note': 51, 'velocity': 88, 'start_time': 64049, 'track': 0, 'end_time': 64143, 'duration': 94}\n",
      "{'note': 44, 'velocity': 100, 'start_time': 64053, 'track': 0, 'end_time': 64148, 'duration': 95}\n",
      "{'note': 38, 'velocity': 53, 'start_time': 64149, 'track': 0, 'end_time': 64242, 'duration': 93}\n",
      "{'note': 51, 'velocity': 88, 'start_time': 64160, 'track': 0, 'end_time': 64254, 'duration': 94}\n",
      "{'note': 36, 'velocity': 37, 'start_time': 64260, 'track': 0, 'end_time': 64354, 'duration': 94}\n",
      "{'note': 44, 'velocity': 17, 'start_time': 64281, 'track': 0, 'end_time': 64375, 'duration': 94}\n",
      "{'note': 38, 'velocity': 25, 'start_time': 64379, 'track': 0, 'end_time': 64472, 'duration': 93}\n",
      "{'note': 51, 'velocity': 72, 'start_time': 64426, 'track': 0, 'end_time': 64519, 'duration': 93}\n",
      "{'note': 38, 'velocity': 26, 'start_time': 64502, 'track': 0, 'end_time': 64596, 'duration': 94}\n",
      "{'note': 44, 'velocity': 102, 'start_time': 64530, 'track': 0, 'end_time': 64624, 'duration': 94}\n",
      "{'note': 51, 'velocity': 56, 'start_time': 64530, 'track': 0, 'end_time': 64624, 'duration': 94}\n",
      "{'note': 36, 'velocity': 47, 'start_time': 64655, 'track': 0, 'end_time': 64748, 'duration': 93}\n",
      "{'note': 51, 'velocity': 94, 'start_time': 64747, 'track': 0, 'end_time': 64841, 'duration': 94}\n",
      "{'note': 38, 'velocity': 54, 'start_time': 64755, 'track': 0, 'end_time': 64848, 'duration': 93}\n",
      "{'note': 44, 'velocity': 30, 'start_time': 64761, 'track': 0, 'end_time': 64855, 'duration': 94}\n",
      "{'note': 51, 'velocity': 78, 'start_time': 64876, 'track': 0, 'end_time': 64969, 'duration': 93}\n",
      "{'note': 38, 'velocity': 38, 'start_time': 64892, 'track': 0, 'end_time': 64986, 'duration': 94}\n",
      "{'note': 44, 'velocity': 102, 'start_time': 65001, 'track': 0, 'end_time': 65095, 'duration': 94}\n",
      "{'note': 36, 'velocity': 39, 'start_time': 65006, 'track': 0, 'end_time': 65100, 'duration': 94}\n",
      "{'note': 51, 'velocity': 125, 'start_time': 65127, 'track': 0, 'end_time': 65221, 'duration': 94}\n",
      "{'note': 38, 'velocity': 69, 'start_time': 65131, 'track': 0, 'end_time': 65225, 'duration': 94}\n",
      "{'note': 36, 'velocity': 46, 'start_time': 65251, 'track': 0, 'end_time': 65345, 'duration': 94}\n",
      "{'note': 51, 'velocity': 58, 'start_time': 65378, 'track': 0, 'end_time': 65472, 'duration': 94}\n",
      "{'note': 38, 'velocity': 17, 'start_time': 65386, 'track': 0, 'end_time': 65479, 'duration': 93}\n",
      "{'note': 44, 'velocity': 97, 'start_time': 65494, 'track': 0, 'end_time': 65587, 'duration': 93}\n",
      "{'note': 51, 'velocity': 57, 'start_time': 65497, 'track': 0, 'end_time': 65591, 'duration': 94}\n",
      "{'note': 38, 'velocity': 23, 'start_time': 65506, 'track': 0, 'end_time': 65599, 'duration': 93}\n",
      "{'note': 36, 'velocity': 46, 'start_time': 65622, 'track': 0, 'end_time': 65716, 'duration': 94}\n",
      "{'note': 44, 'velocity': 20, 'start_time': 65728, 'track': 0, 'end_time': 65822, 'duration': 94}\n",
      "{'note': 38, 'velocity': 64, 'start_time': 65733, 'track': 0, 'end_time': 65826, 'duration': 93}\n",
      "{'note': 51, 'velocity': 112, 'start_time': 65735, 'track': 0, 'end_time': 65828, 'duration': 93}\n",
      "{'note': 37, 'velocity': 83, 'start_time': 65957, 'track': 0, 'end_time': 66050, 'duration': 93}\n",
      "{'note': 59, 'velocity': 93, 'start_time': 65964, 'track': 0, 'end_time': 66058, 'duration': 94}\n",
      "{'note': 44, 'velocity': 97, 'start_time': 65971, 'track': 0, 'end_time': 66065, 'duration': 94}\n",
      "{'note': 38, 'velocity': 25, 'start_time': 66094, 'track': 0, 'end_time': 66188, 'duration': 94}\n",
      "{'note': 44, 'velocity': 25, 'start_time': 66203, 'track': 0, 'end_time': 66297, 'duration': 94}\n",
      "{'note': 36, 'velocity': 34, 'start_time': 66210, 'track': 0, 'end_time': 66303, 'duration': 93}\n",
      "{'note': 51, 'velocity': 51, 'start_time': 66212, 'track': 0, 'end_time': 66305, 'duration': 93}\n",
      "{'note': 51, 'velocity': 53, 'start_time': 66329, 'track': 0, 'end_time': 66422, 'duration': 93}\n",
      "{'note': 51, 'velocity': 127, 'start_time': 66447, 'track': 0, 'end_time': 66540, 'duration': 93}\n",
      "{'note': 44, 'velocity': 97, 'start_time': 66452, 'track': 0, 'end_time': 66547, 'duration': 95}\n",
      "{'note': 36, 'velocity': 37, 'start_time': 66574, 'track': 0, 'end_time': 66667, 'duration': 93}\n",
      "{'note': 38, 'velocity': 60, 'start_time': 66686, 'track': 0, 'end_time': 66779, 'duration': 93}\n",
      "{'note': 51, 'velocity': 66, 'start_time': 66686, 'track': 0, 'end_time': 66779, 'duration': 93}\n",
      "{'note': 44, 'velocity': 37, 'start_time': 66698, 'track': 0, 'end_time': 66791, 'duration': 93}\n",
      "{'note': 51, 'velocity': 55, 'start_time': 66807, 'track': 0, 'end_time': 66901, 'duration': 94}\n",
      "{'note': 51, 'velocity': 123, 'start_time': 66929, 'track': 0, 'end_time': 67023, 'duration': 94}\n",
      "{'note': 44, 'velocity': 92, 'start_time': 66943, 'track': 0, 'end_time': 67036, 'duration': 93}\n",
      "{'note': 37, 'velocity': 60, 'start_time': 67043, 'track': 0, 'end_time': 67137, 'duration': 94}\n",
      "{'note': 36, 'velocity': 38, 'start_time': 67173, 'track': 0, 'end_time': 67267, 'duration': 94}\n",
      "{'note': 44, 'velocity': 37, 'start_time': 67176, 'track': 0, 'end_time': 67271, 'duration': 95}\n",
      "{'note': 51, 'velocity': 58, 'start_time': 67185, 'track': 0, 'end_time': 67279, 'duration': 94}\n",
      "{'note': 38, 'velocity': 23, 'start_time': 67247, 'track': 0, 'end_time': 67340, 'duration': 93}\n",
      "{'note': 51, 'velocity': 49, 'start_time': 67307, 'track': 0, 'end_time': 67401, 'duration': 94}\n",
      "{'note': 38, 'velocity': 22, 'start_time': 67389, 'track': 0, 'end_time': 67483, 'duration': 94}\n",
      "{'note': 44, 'velocity': 95, 'start_time': 67420, 'track': 0, 'end_time': 67514, 'duration': 94}\n",
      "{'note': 51, 'velocity': 90, 'start_time': 67422, 'track': 0, 'end_time': 67514, 'duration': 92}\n",
      "{'note': 36, 'velocity': 44, 'start_time': 67534, 'track': 0, 'end_time': 67628, 'duration': 94}\n",
      "{'note': 37, 'velocity': 71, 'start_time': 67649, 'track': 0, 'end_time': 67743, 'duration': 94}\n",
      "{'note': 51, 'velocity': 81, 'start_time': 67656, 'track': 0, 'end_time': 67749, 'duration': 93}\n",
      "{'note': 44, 'velocity': 40, 'start_time': 67664, 'track': 0, 'end_time': 67758, 'duration': 94}\n",
      "{'note': 51, 'velocity': 55, 'start_time': 67782, 'track': 0, 'end_time': 67876, 'duration': 94}\n",
      "{'note': 51, 'velocity': 127, 'start_time': 67900, 'track': 0, 'end_time': 67994, 'duration': 94}\n",
      "{'note': 44, 'velocity': 100, 'start_time': 67916, 'track': 0, 'end_time': 68010, 'duration': 94}\n",
      "{'note': 38, 'velocity': 32, 'start_time': 68018, 'track': 0, 'end_time': 68104, 'duration': 86}\n",
      "{'note': 38, 'velocity': 31, 'start_time': 68104, 'track': 0, 'end_time': 68112, 'duration': 8}\n",
      "{'note': 36, 'velocity': 35, 'start_time': 68154, 'track': 0, 'end_time': 68248, 'duration': 94}\n",
      "{'note': 44, 'velocity': 50, 'start_time': 68155, 'track': 0, 'end_time': 68249, 'duration': 94}\n",
      "{'note': 51, 'velocity': 62, 'start_time': 68157, 'track': 0, 'end_time': 68249, 'duration': 92}\n",
      "{'note': 51, 'velocity': 51, 'start_time': 68281, 'track': 0, 'end_time': 68375, 'duration': 94}\n",
      "{'note': 38, 'velocity': 29, 'start_time': 68285, 'track': 0, 'end_time': 68379, 'duration': 94}\n",
      "{'note': 51, 'velocity': 88, 'start_time': 68381, 'track': 0, 'end_time': 68475, 'duration': 94}\n",
      "{'note': 44, 'velocity': 97, 'start_time': 68395, 'track': 0, 'end_time': 68489, 'duration': 94}\n",
      "{'note': 36, 'velocity': 41, 'start_time': 68513, 'track': 0, 'end_time': 68607, 'duration': 94}\n",
      "{'note': 51, 'velocity': 86, 'start_time': 68629, 'track': 0, 'end_time': 68723, 'duration': 94}\n",
      "{'note': 44, 'velocity': 37, 'start_time': 68630, 'track': 0, 'end_time': 68724, 'duration': 94}\n",
      "{'note': 38, 'velocity': 61, 'start_time': 68631, 'track': 0, 'end_time': 68724, 'duration': 93}\n",
      "{'note': 38, 'velocity': 27, 'start_time': 68748, 'track': 0, 'end_time': 68841, 'duration': 93}\n",
      "{'note': 51, 'velocity': 112, 'start_time': 68864, 'track': 0, 'end_time': 68958, 'duration': 94}\n",
      "{'note': 44, 'velocity': 100, 'start_time': 68876, 'track': 0, 'end_time': 68969, 'duration': 93}\n",
      "{'note': 38, 'velocity': 24, 'start_time': 68974, 'track': 0, 'end_time': 69068, 'duration': 94}\n",
      "{'note': 44, 'velocity': 95, 'start_time': 69114, 'track': 0, 'end_time': 69208, 'duration': 94}\n",
      "{'note': 38, 'velocity': 24, 'start_time': 69215, 'track': 0, 'end_time': 69275, 'duration': 60}\n",
      "{'note': 38, 'velocity': 40, 'start_time': 69275, 'track': 0, 'end_time': 69309, 'duration': 34}\n",
      "{'note': 38, 'velocity': 92, 'start_time': 69461, 'track': 0, 'end_time': 69555, 'duration': 94}\n",
      "{'note': 37, 'velocity': 78, 'start_time': 69583, 'track': 0, 'end_time': 69676, 'duration': 93}\n",
      "{'note': 48, 'velocity': 98, 'start_time': 69700, 'track': 0, 'end_time': 69794, 'duration': 94}\n",
      "{'note': 38, 'velocity': 12, 'start_time': 69821, 'track': 0, 'end_time': 69915, 'duration': 94}\n",
      "{'note': 36, 'velocity': 38, 'start_time': 69921, 'track': 0, 'end_time': 70014, 'duration': 93}\n",
      "{'note': 26, 'velocity': 69, 'start_time': 69936, 'track': 0, 'end_time': 70030, 'duration': 94}\n",
      "{'note': 44, 'velocity': 57, 'start_time': 69997, 'track': 0, 'end_time': 70090, 'duration': 93}\n",
      "{'note': 38, 'velocity': 14, 'start_time': 70050, 'track': 0, 'end_time': 70143, 'duration': 93}\n",
      "{'note': 46, 'velocity': 51, 'start_time': 70175, 'track': 0, 'end_time': 70269, 'duration': 94}\n",
      "{'note': 36, 'velocity': 34, 'start_time': 70178, 'track': 0, 'end_time': 70271, 'duration': 93}\n",
      "{'note': 36, 'velocity': 46, 'start_time': 70275, 'track': 0, 'end_time': 70369, 'duration': 94}\n",
      "{'note': 26, 'velocity': 98, 'start_time': 70288, 'track': 0, 'end_time': 70382, 'duration': 94}\n",
      "{'note': 38, 'velocity': 11, 'start_time': 70459, 'track': 0, 'end_time': 70517, 'duration': 58}\n",
      "{'note': 38, 'velocity': 14, 'start_time': 70517, 'track': 0, 'end_time': 70552, 'duration': 35}\n",
      "{'note': 38, 'velocity': 13, 'start_time': 70552, 'track': 0, 'end_time': 70553, 'duration': 1}\n",
      "{'note': 38, 'velocity': 23, 'start_time': 70632, 'track': 0, 'end_time': 70645, 'duration': 13}\n",
      "{'note': 38, 'velocity': 48, 'start_time': 70691, 'track': 0, 'end_time': 70725, 'duration': 34}\n",
      "{'note': 37, 'velocity': 71, 'start_time': 70764, 'track': 0, 'end_time': 70858, 'duration': 94}\n",
      "{'note': 36, 'velocity': 43, 'start_time': 70896, 'track': 0, 'end_time': 70988, 'duration': 92}\n",
      "{'note': 36, 'velocity': 40, 'start_time': 70988, 'track': 0, 'end_time': 70990, 'duration': 2}\n"
     ]
    }
   ],
   "source": [
    "from mido import MidiFile\n",
    "\n",
    "def extract_notes(midi_file_path):\n",
    "    mid = MidiFile(midi_file_path)\n",
    "    notes = []\n",
    "\n",
    "    for i, track in enumerate(mid.tracks):\n",
    "        absolute_time = 0\n",
    "        for msg in track:\n",
    "            absolute_time += msg.time\n",
    "            if msg.type == 'note_on' and msg.velocity > 0:\n",
    "                note_info = {\n",
    "                    'note': msg.note,\n",
    "                    'velocity': msg.velocity,\n",
    "                    'start_time': absolute_time,\n",
    "                    'track': i\n",
    "                }\n",
    "                notes.append(note_info)\n",
    "            elif msg.type == 'note_off' or (msg.type == 'note_on' and msg.velocity == 0):\n",
    "                for note in notes:\n",
    "                    if note['note'] == msg.note and 'end_time' not in note:\n",
    "                        note['end_time'] = absolute_time\n",
    "                        note['duration'] = note['end_time'] - note['start_time']\n",
    "                        break\n",
    "\n",
    "    return notes\n",
    "\n",
    "notes = extract_notes(midi_file_path)\n",
    "\n",
    "for note in notes:\n",
    "    # print(f\"Track: {note['track']}, Note: {note['note']}, Velocity: {note['velocity']}, \"\n",
    "    #       f\"Start Time: {note['start_time']}, Duration: {note.get('duration', 'N/A')}\")\n",
    "    print(note)"
   ]
  },
  {
   "cell_type": "code",
   "execution_count": 9,
   "metadata": {},
   "outputs": [
    {
     "name": "stdout",
     "output_type": "stream",
     "text": [
      "MidiTrack([\n",
      "  MetaMessage('set_tempo', tempo=517241, time=0),\n",
      "  MetaMessage('time_signature', numerator=4, denominator=4, clocks_per_click=24, notated_32nd_notes_per_beat=8, time=0),\n",
      "  MetaMessage('key_signature', key='C', time=0),\n",
      "  Message('program_change', channel=9, program=0, time=0),\n",
      "  Message('control_change', channel=9, control=4, value=81, time=0),\n",
      "  Message('program_change', channel=9, program=0, time=0),\n",
      "  Message('control_change', channel=9, control=4, value=80, time=421),\n",
      "  Message('control_change', channel=9, control=4, value=79, time=417),\n",
      "  Message('note_on', channel=9, note=44, velocity=40, time=97),\n",
      "  Message('note_on', channel=9, note=44, velocity=0, time=94),\n",
      "  Message('control_change', channel=9, control=4, value=78, time=228),\n",
      "  Message('control_change', channel=9, control=4, value=58, time=22),\n",
      "  Message('note_on', channel=9, note=43, velocity=104, time=14),\n",
      "  Message('control_change', channel=9, control=4, value=38, time=8),\n",
      "  Message('control_change', channel=9, control=4, value=33, time=4),\n",
      "  Message('control_change', channel=9, control=4, value=51, time=22),\n",
      "  Message('control_change', channel=9, control=4, value=70, time=22),\n",
      "  Message('control_change', channel=9, control=4, value=76, time=7),\n",
      "  Message('control_change', channel=9, control=4, value=83, time=22),\n",
      "  Message('note_on', channel=9, note=43, velocity=0, time=9),\n",
      "  Message('control_change', channel=9, control=4, value=90, time=12),\n",
      "  Message('note_on', channel=9, note=58, velocity=120, time=25),\n",
      "  Message('control_change', channel=9, control=4, value=87, time=19),\n",
      "  Message('control_change', channel=9, control=4, value=84, time=43),\n",
      "  Message('note_on', channel=9, note=58, velocity=0, time=32),\n",
      "  Message('control_change', channel=9, control=4, value=81, time=12),\n",
      "  Message('control_change', channel=9, control=4, value=78, time=43),\n",
      "  Message('control_change', channel=9, control=4, value=75, time=44),\n",
      "  Message('note_on', channel=9, note=44, velocity=67, time=17),\n",
      "  Message('control_change', channel=9, control=4, value=72, time=26),\n",
      "  Message('control_change', channel=9, control=4, value=69, time=44),\n",
      "  Message('note_on', channel=9, note=44, velocity=0, time=24),\n",
      "  Message('control_change', channel=9, control=4, value=66, time=19),\n",
      "  Message('control_change', channel=9, control=4, value=63, time=44),\n",
      "  Message('control_change', channel=9, control=4, value=60, time=43),\n",
      "  Message('control_change', channel=9, control=4, value=57, time=44),\n",
      "  Message('note_on', channel=9, note=55, velocity=64, time=5),\n",
      "  Message('note_on', channel=9, note=36, velocity=43, time=2),\n",
      "  Message('note_on', channel=9, note=59, velocity=71, time=14),\n",
      "  Message('control_change', channel=9, control=4, value=54, time=22),\n",
      "  Message('control_change', channel=9, control=4, value=51, time=44),\n",
      "  Message('note_on', channel=9, note=55, velocity=0, time=11),\n",
      "  Message('note_on', channel=9, note=36, velocity=0, time=3),\n",
      "  Message('note_on', channel=9, note=59, velocity=0, time=13),\n",
      "  Message('control_change', channel=9, control=4, value=48, time=16),\n",
      "  Message('control_change', channel=9, control=4, value=45, time=44),\n",
      "  Message('control_change', channel=9, control=4, value=42, time=43),\n",
      "  Message('note_on', channel=9, note=44, velocity=85, time=22),\n",
      "  Message('control_change', channel=9, control=4, value=39, time=22),\n",
      "  Message('note_on', channel=9, note=51, velocity=37, time=2),\n",
      "  Message('control_change', channel=9, control=4, value=36, time=41),\n",
      "  Message('note_on', channel=9, note=44, velocity=0, time=28),\n",
      "  Message('control_change', channel=9, control=4, value=33, time=16),\n",
      "  Message('note_on', channel=9, note=51, velocity=0, time=9),\n",
      "  Message('note_on', channel=9, note=36, velocity=38, time=17),\n",
      "  Message('control_change', channel=9, control=4, value=30, time=17),\n",
      "  Message('control_change', channel=9, control=4, value=26, time=44),\n",
      "  Message('control_change', channel=9, control=4, value=46, time=22),\n",
      "  Message('note_on', channel=9, note=36, velocity=0, time=10),\n",
      "  Message('control_change', channel=9, control=4, value=66, time=11),\n",
      "  Message('note_on', channel=9, note=38, velocity=72, time=9),\n",
      "  Message('control_change', channel=9, control=4, value=78, time=4),\n",
      "  Message('note_on', channel=9, note=51, velocity=82, time=6),\n",
      "  Message('control_change', channel=9, control=4, value=84, time=16),\n",
      "  Message('control_change', channel=9, control=4, value=90, time=22),\n",
      "  Message('control_change', channel=9, control=4, value=87, time=43),\n",
      "  Message('note_on', channel=9, note=38, velocity=0, time=2),\n",
      "  Message('note_on', channel=9, note=51, velocity=0, time=10),\n",
      "  Message('note_on', channel=9, note=38, velocity=29, time=17),\n",
      "  Message('control_change', channel=9, control=4, value=83, time=15),\n",
      "  Message('control_change', channel=9, control=4, value=79, time=43),\n",
      "  Message('note_on', channel=9, note=38, velocity=0, time=37),\n",
      "  Message('control_change', channel=9, control=4, value=75, time=7),\n",
      "  Message('note_on', channel=9, note=44, velocity=92, time=10),\n",
      "  Message('note_on', channel=9, note=51, velocity=62, time=14),\n",
      "  Message('control_change', channel=9, control=4, value=72, time=19),\n",
      "  Message('control_change', channel=9, control=4, value=68, time=44),\n",
      "  Message('note_on', channel=9, note=44, velocity=0, time=16),\n",
      "  Message('note_on', channel=9, note=51, velocity=0, time=15),\n",
      "  Message('control_change', channel=9, control=4, value=64, time=12),\n",
      "  Message('note_on', channel=9, note=38, velocity=38, time=9),\n",
      "  Message('note_on', channel=9, note=51, velocity=59, time=8),\n",
      "  Message('control_change', channel=9, control=4, value=60, time=27),\n",
      "  Message('control_change', channel=9, control=4, value=57, time=43),\n",
      "  Message('note_on', channel=9, note=38, velocity=0, time=16),\n",
      "  Message('note_on', channel=9, note=51, velocity=0, time=7),\n",
      "  Message('control_change', channel=9, control=4, value=53, time=21),\n",
      "  Message('note_on', channel=9, note=51, velocity=69, time=20),\n",
      "  Message('control_change', channel=9, control=4, value=49, time=23),\n",
      "  Message('control_change', channel=9, control=4, value=45, time=44),\n",
      "  Message('note_on', channel=9, note=51, velocity=0, time=26),\n",
      "  Message('control_change', channel=9, control=4, value=42, time=7),\n",
      "  Message('note_on', channel=9, note=38, velocity=27, time=11),\n",
      "  Message('control_change', channel=9, control=4, value=23, time=11),\n",
      "  Message('control_change', channel=9, control=4, value=4, time=22),\n",
      "  Message('control_change', channel=9, control=4, value=0, time=4),\n",
      "  Message('control_change', channel=9, control=4, value=30, time=22),\n",
      "  Message('control_change', channel=9, control=4, value=60, time=22),\n",
      "  Message('control_change', channel=9, control=4, value=71, time=7),\n",
      "  Message('note_on', channel=9, note=38, velocity=0, time=5),\n",
      "  Message('control_change', channel=9, control=4, value=80, time=17),\n",
      "  Message('note_on', channel=9, note=44, velocity=85, time=5),\n",
      "  Message('note_on', channel=9, note=38, velocity=21, time=14),\n",
      "  Message('note_on', channel=9, note=51, velocity=62, time=0),\n",
      "  Message('control_change', channel=9, control=4, value=89, time=2),\n",
      "  Message('control_change', channel=9, control=4, value=90, time=0),\n",
      "  Message('note_on', channel=9, note=36, velocity=25, time=0),\n",
      "  Message('control_change', channel=9, control=4, value=88, time=45),\n",
      "  Message('note_on', channel=9, note=44, velocity=0, time=32),\n",
      "  Message('control_change', channel=9, control=4, value=85, time=12),\n",
      "  Message('note_on', channel=9, note=36, velocity=0, time=3),\n",
      "  Message('note_on', channel=9, note=38, velocity=0, time=0),\n",
      "  Message('note_on', channel=9, note=51, velocity=0, time=0),\n",
      "  Message('note_on', channel=9, note=36, velocity=26, time=5),\n",
      "  Message('note_on', channel=9, note=51, velocity=58, time=16),\n",
      "  Message('control_change', channel=9, control=4, value=82, time=18),\n",
      "  Message('control_change', channel=9, control=4, value=80, time=45),\n",
      "  Message('note_on', channel=9, note=36, velocity=0, time=14),\n",
      "  Message('note_on', channel=9, note=51, velocity=0, time=16),\n",
      "  Message('control_change', channel=9, control=4, value=77, time=13),\n",
      "  Message('note_on', channel=9, note=37, velocity=76, time=14),\n",
      "  Message('note_on', channel=9, note=59, velocity=69, time=9),\n",
      "  Message('control_change', channel=9, control=4, value=74, time=21),\n",
      "  Message('control_change', channel=9, control=4, value=72, time=43),\n",
      "  Message('note_on', channel=9, note=37, velocity=0, time=19),\n",
      "  Message('note_on', channel=9, note=59, velocity=0, time=10),\n",
      "  Message('control_change', channel=9, control=4, value=69, time=15),\n",
      "  Message('note_on', channel=9, note=38, velocity=22, time=10),\n",
      "  Message('control_change', channel=9, control=4, value=66, time=33),\n",
      "  Message('control_change', channel=9, control=4, value=64, time=44),\n",
      "  Message('note_on', channel=9, note=38, velocity=0, time=16),\n",
      "  Message('note_on', channel=9, note=44, velocity=102, time=6),\n",
      "  Message('control_change', channel=9, control=4, value=61, time=21),\n",
      "  Message('note_on', channel=9, note=51, velocity=69, time=0),\n",
      "  Message('control_change', channel=9, control=4, value=58, time=44),\n",
      "  Message('control_change', channel=9, control=4, value=57, time=11),\n",
      "  Message('note_on', channel=9, note=44, velocity=0, time=18),\n",
      "  Message('control_change', channel=9, control=4, value=32, time=4),\n",
      "  Message('note_on', channel=9, note=38, velocity=32, time=17),\n",
      "  Message('note_on', channel=9, note=51, velocity=0, time=0),\n",
      "  Message('control_change', channel=9, control=4, value=6, time=5),\n",
      "  Message('control_change', channel=9, control=4, value=0, time=4),\n",
      "  Message('note_on', channel=9, note=51, velocity=61, time=11),\n",
      "  Message('control_change', channel=9, control=4, value=20, time=11),\n",
      "  Message('control_change', channel=9, control=4, value=41, time=22),\n",
      "  Message('control_change', channel=9, control=4, value=62, time=21),\n",
      "  Message('control_change', channel=9, control=4, value=66, time=5),\n",
      "  Message('note_on', channel=9, note=38, velocity=0, time=15),\n",
      "  Message('control_change', channel=9, control=4, value=77, time=7),\n",
      "  Message('note_on', channel=9, note=51, velocity=0, time=13),\n",
      "  Message('control_change', channel=9, control=4, value=89, time=8),\n",
      "  Message('control_change', channel=9, control=4, value=90, time=2),\n",
      "  Message('note_on', channel=9, note=36, velocity=43, time=0),\n",
      "  Message('note_on', channel=9, note=51, velocity=64, time=15),\n",
      "  Message('control_change', channel=9, control=4, value=88, time=28),\n",
      "  Message('control_change', channel=9, control=4, value=85, time=44),\n",
      "  Message('note_on', channel=9, note=36, velocity=0, time=7),\n",
      "  Message('note_on', channel=9, note=51, velocity=0, time=15),\n",
      "  Message('control_change', channel=9, control=4, value=83, time=21),\n",
      "  Message('note_on', channel=9, note=38, velocity=24, time=3),\n",
      "  Message('control_change', channel=9, control=4, value=80, time=41),\n",
      "  Message('control_change', channel=9, control=4, value=78, time=43),\n",
      "  Message('note_on', channel=9, note=38, velocity=0, time=10),\n",
      "  Message('note_on', channel=9, note=44, velocity=87, time=12),\n",
      "  Message('note_on', channel=9, note=38, velocity=17, time=11),\n",
      "  Message('note_on', channel=9, note=51, velocity=61, time=4),\n",
      "  Message('control_change', channel=9, control=4, value=75, time=7),\n",
      "  Message('control_change', channel=9, control=4, value=73, time=43),\n",
      "  Message('note_on', channel=9, note=44, velocity=0, time=29),\n",
      "  Message('note_on', channel=9, note=38, velocity=0, time=11),\n",
      "  Message('control_change', channel=9, control=4, value=70, time=4),\n",
      "  Message('note_on', channel=9, note=51, velocity=0, time=0),\n",
      "  Message('note_on', channel=9, note=36, velocity=20, time=16),\n",
      "  Message('note_on', channel=9, note=51, velocity=51, time=15),\n",
      "  Message('control_change', channel=9, control=4, value=67, time=12),\n",
      "  Message('control_change', channel=9, control=4, value=65, time=44),\n",
      "  Message('note_on', channel=9, note=36, velocity=0, time=22),\n",
      "  Message('note_on', channel=9, note=51, velocity=0, time=15),\n",
      "  Message('control_change', channel=9, control=4, value=62, time=6),\n",
      "  Message('note_on', channel=9, note=37, velocity=75, time=21),\n",
      "  Message('note_on', channel=9, note=51, velocity=79, time=5),\n",
      "  Message('control_change', channel=9, control=4, value=60, time=18),\n",
      "  Message('control_change', channel=9, control=4, value=57, time=36),\n",
      "  Message('control_change', channel=9, control=4, value=34, time=22),\n",
      "  Message('note_on', channel=9, note=37, velocity=0, time=12),\n",
      "  Message('note_on', channel=9, note=51, velocity=0, time=5),\n",
      "  Message('control_change', channel=9, control=4, value=11, time=4),\n",
      "  Message('control_change', channel=9, control=4, value=0, time=11),\n",
      "  Message('control_change', channel=9, control=4, value=23, time=21),\n",
      "  Message('note_on', channel=9, note=38, velocity=11, time=6),\n",
      "  Message('control_change', channel=9, control=4, value=46, time=16),\n",
      "  Message('control_change', channel=9, control=4, value=68, time=20),\n",
      "  Message('control_change', channel=9, control=4, value=78, time=22),\n",
      "  Message('note_on', channel=9, note=44, velocity=90, time=16),\n",
      "  Message('control_change', channel=9, control=4, value=89, time=6),\n",
      "  Message('control_change', channel=9, control=4, value=90, time=1),\n",
      "  Message('note_on', channel=9, note=38, velocity=0, time=12),\n",
      "  Message('note_on', channel=9, note=51, velocity=66, time=12),\n",
      "  Message('note_on', channel=9, note=38, velocity=23, time=12),\n",
      "  Message('note_on', channel=9, note=44, velocity=0, time=50),\n",
      "  Message('note_on', channel=9, note=51, velocity=0, time=32),\n",
      "  Message('note_on', channel=9, note=38, velocity=0, time=11),\n",
      "  Message('note_on', channel=9, note=36, velocity=49, time=8),\n",
      "  Message('note_on', channel=9, note=51, velocity=66, time=10),\n",
      "  Message('note_on', channel=9, note=36, velocity=0, time=83),\n",
      "  Message('control_change', channel=9, control=4, value=90, time=5),\n",
      "  Message('note_on', channel=9, note=51, velocity=0, time=5),\n",
      "  Message('note_on', channel=9, note=51, velocity=65, time=22),\n",
      "  Message('control_change', channel=9, control=4, value=86, time=17),\n",
      "  Message('control_change', channel=9, control=4, value=81, time=43),\n",
      "  Message('note_on', channel=9, note=51, velocity=0, time=33),\n",
      "  Message('control_change', channel=9, control=4, value=76, time=11),\n",
      "  Message('note_on', channel=9, note=38, velocity=18, time=12),\n",
      "  Message('control_change', channel=9, control=4, value=71, time=31),\n",
      "  Message('control_change', channel=9, control=4, value=67, time=44),\n",
      "  Message('note_on', channel=9, note=38, velocity=0, time=19),\n",
      "  Message('note_on', channel=9, note=36, velocity=32, time=11),\n",
      "  Message('note_on', channel=9, note=51, velocity=64, time=7),\n",
      "  Message('note_on', channel=9, note=44, velocity=87, time=1),\n",
      "  Message('note_on', channel=9, note=38, velocity=20, time=2),\n",
      "  Message('control_change', channel=9, control=4, value=62, time=3),\n",
      "  Message('control_change', channel=9, control=4, value=58, time=32),\n",
      "  Message('control_change', channel=9, control=4, value=29, time=22),\n",
      "  Message('control_change', channel=9, control=4, value=0, time=22),\n",
      "  Message('note_on', channel=9, note=36, velocity=0, time=4),\n",
      "  Message('note_on', channel=9, note=44, velocity=0, time=8),\n",
      "  Message('note_on', channel=9, note=51, velocity=0, time=0),\n",
      "  Message('note_on', channel=9, note=38, velocity=0, time=4),\n",
      "  Message('control_change', channel=9, control=4, value=22, time=5),\n",
      "  Message('note_on', channel=9, note=51, velocity=58, time=19),\n",
      "  Message('note_on', channel=9, note=36, velocity=50, time=1),\n",
      "  Message('control_change', channel=9, control=4, value=44, time=2),\n",
      "  Message('control_change', channel=9, control=4, value=66, time=22),\n",
      "  Message('control_change', channel=9, control=4, value=78, time=10),\n",
      "  Message('control_change', channel=9, control=4, value=84, time=22),\n",
      "  Message('control_change', channel=9, control=4, value=90, time=22),\n",
      "  Message('note_on', channel=9, note=36, velocity=0, time=14),\n",
      "  Message('note_on', channel=9, note=51, velocity=0, time=0),\n",
      "  Message('control_change', channel=9, control=4, value=87, time=29),\n",
      "  Message('note_on', channel=9, note=51, velocity=95, time=6),\n",
      "  Message('note_on', channel=9, note=37, velocity=70, time=3),\n",
      "  Message('control_change', channel=9, control=4, value=83, time=35),\n",
      "  Message('control_change', channel=9, control=4, value=79, time=43),\n",
      "  Message('note_on', channel=9, note=51, velocity=0, time=12),\n",
      "  Message('note_on', channel=9, note=37, velocity=0, time=4),\n",
      "  Message('control_change', channel=9, control=4, value=75, time=28),\n",
      "  Message('note_on', channel=9, note=38, velocity=15, time=14),\n",
      "  Message('control_change', channel=9, control=4, value=71, time=29),\n",
      "  Message('control_change', channel=9, control=4, value=68, time=44),\n",
      "  Message('note_on', channel=9, note=38, velocity=0, time=21),\n",
      "  Message('note_on', channel=9, note=44, velocity=102, time=2),\n",
      "  Message('note_on', channel=9, note=51, velocity=67, time=9),\n",
      "  Message('control_change', channel=9, control=4, value=64, time=11),\n",
      "  Message('control_change', channel=9, control=4, value=60, time=44),\n",
      "  Message('note_on', channel=9, note=38, velocity=33, time=30),\n",
      "  Message('note_on', channel=9, note=44, velocity=0, time=0),\n",
      "  Message('note_on', channel=9, note=51, velocity=0, time=9),\n",
      "  Message('control_change', channel=9, control=4, value=56, time=4),\n",
      "  Message('note_on', channel=9, note=51, velocity=59, time=16),\n",
      "  Message('control_change', channel=9, control=4, value=52, time=28),\n",
      "  Message('note_on', channel=9, note=38, velocity=0, time=37),\n",
      "  Message('control_change', channel=9, control=4, value=49, time=6),\n",
      "  Message('note_on', channel=9, note=51, velocity=0, time=23),\n",
      "  Message('note_on', channel=9, note=36, velocity=44, time=15),\n",
      "  Message('control_change', channel=9, control=4, value=45, time=6),\n",
      "  Message('note_on', channel=9, note=51, velocity=66, time=8),\n",
      "  Message('control_change', channel=9, control=4, value=42, time=19),\n",
      "  Message('control_change', channel=9, control=4, value=22, time=22),\n",
      "  Message('control_change', channel=9, control=4, value=0, time=22),\n",
      "  Message('control_change', channel=9, control=4, value=1, time=0),\n",
      "  Message('note_on', channel=9, note=36, velocity=0, time=16),\n",
      "  Message('control_change', channel=9, control=4, value=29, time=5),\n",
      "  Message('note_on', channel=9, note=51, velocity=0, time=9),\n",
      "  Message('control_change', channel=9, control=4, value=58, time=13),\n",
      "  Message('note_on', channel=9, note=38, velocity=24, time=9),\n",
      "  Message('control_change', channel=9, control=4, value=76, time=4),\n",
      "  Message('control_change', channel=9, control=4, value=83, time=22),\n",
      "  Message('control_change', channel=9, control=4, value=90, time=22),\n",
      "  Message('note_on', channel=9, note=38, velocity=0, time=46),\n",
      "  Message('note_on', channel=9, note=44, velocity=85, time=28),\n",
      "  Message('note_on', channel=9, note=51, velocity=64, time=1),\n",
      "  Message('note_on', channel=9, note=36, velocity=33, time=3),\n",
      "  Message('note_on', channel=9, note=38, velocity=15, time=9),\n",
      "  Message('note_on', channel=9, note=44, velocity=0, time=81),\n",
      "  Message('note_on', channel=9, note=51, velocity=0, time=0),\n",
      "  Message('note_on', channel=9, note=36, velocity=0, time=3),\n",
      "  Message('note_on', channel=9, note=38, velocity=0, time=10),\n",
      "  Message('note_on', channel=9, note=36, velocity=43, time=15),\n",
      "  Message('note_on', channel=9, note=51, velocity=49, time=6),\n",
      "  Message('control_change', channel=9, control=4, value=90, time=34),\n",
      "  Message('control_change', channel=9, control=4, value=86, time=44),\n",
      "  Message('note_on', channel=9, note=36, velocity=0, time=9),\n",
      "  Message('note_on', channel=9, note=51, velocity=0, time=7),\n",
      "  Message('control_change', channel=9, control=4, value=81, time=27),\n",
      "  Message('note_on', channel=9, note=51, velocity=77, time=2),\n",
      "  Message('note_on', channel=9, note=38, velocity=75, time=9),\n",
      "  Message('control_change', channel=9, control=4, value=76, time=33),\n",
      "  Message('control_change', channel=9, control=4, value=71, time=43),\n",
      "  Message('note_on', channel=9, note=51, velocity=0, time=9),\n",
      "  Message('note_on', channel=9, note=38, velocity=0, time=9),\n",
      "  Message('control_change', channel=9, control=4, value=66, time=26),\n",
      "  Message('control_change', channel=9, control=4, value=62, time=43),\n",
      "  Message('control_change', channel=9, control=4, value=58, time=28),\n",
      "  Message('note_on', channel=9, note=44, velocity=90, time=20),\n",
      "  Message('control_change', channel=9, control=4, value=32, time=1),\n",
      "  Message('control_change', channel=9, control=4, value=5, time=22),\n",
      "  Message('control_change', channel=9, control=4, value=0, time=3),\n",
      "  Message('note_on', channel=9, note=51, velocity=55, time=3),\n",
      "  Message('note_on', channel=9, note=38, velocity=20, time=4),\n",
      "  Message('control_change', channel=9, control=4, value=23, time=15),\n",
      "  Message('control_change', channel=9, control=4, value=47, time=21),\n",
      "  Message('control_change', channel=9, control=4, value=70, time=22),\n",
      "  Message('note_on', channel=9, note=44, velocity=0, time=3),\n",
      "  Message('control_change', channel=9, control=4, value=78, time=4),\n",
      "  Message('control_change', channel=9, control=4, value=84, time=22),\n",
      "  Message('note_on', channel=9, note=36, velocity=45, time=3),\n",
      "  Message('note_on', channel=9, note=51, velocity=0, time=0),\n",
      "  Message('note_on', channel=9, note=38, velocity=0, time=4),\n",
      "  Message('control_change', channel=9, control=4, value=90, time=15),\n",
      "  Message('note_on', channel=9, note=51, velocity=58, time=3),\n",
      "  Message('note_on', channel=9, note=36, velocity=0, time=72),\n",
      "  Message('control_change', channel=9, control=4, value=88, time=12),\n",
      "  Message('note_on', channel=9, note=51, velocity=0, time=9),\n",
      "  Message('note_on', channel=9, note=51, velocity=53, time=24),\n",
      "  Message('control_change', channel=9, control=4, value=85, time=54),\n",
      "  Message('note_on', channel=9, note=38, velocity=21, time=35),\n",
      "  Message('note_on', channel=9, note=51, velocity=0, time=4),\n",
      "  Message('control_change', channel=9, control=4, value=83, time=6),\n",
      "  Message('control_change', channel=9, control=4, value=86, time=22),\n",
      "  Message('control_change', channel=9, control=4, value=89, time=21),\n",
      "  Message('control_change', channel=9, control=4, value=90, time=2),\n",
      "  Message('note_on', channel=9, note=38, velocity=0, time=38),\n",
      "  Message('control_change', channel=9, control=4, value=86, time=5),\n",
      "  Message('note_on', channel=9, note=36, velocity=23, time=18),\n",
      "  Message('note_on', channel=9, note=44, velocity=92, time=7),\n",
      "  Message('note_on', channel=9, note=51, velocity=65, time=10),\n",
      "  Message('control_change', channel=9, control=4, value=81, time=9),\n",
      "  Message('control_change', channel=9, control=4, value=76, time=43),\n",
      "  Message('note_on', channel=9, note=36, velocity=0, time=25),\n",
      "  Message('note_on', channel=9, note=44, velocity=0, time=6),\n",
      "  Message('note_on', channel=9, note=51, velocity=0, time=11),\n",
      "  Message('control_change', channel=9, control=4, value=71, time=2),\n",
      "  Message('note_on', channel=9, note=36, velocity=37, time=3),\n",
      "  Message('note_on', channel=9, note=51, velocity=54, time=19),\n",
      "  Message('control_change', channel=9, control=4, value=67, time=21),\n",
      "  Message('control_change', channel=9, control=4, value=62, time=44),\n",
      "  Message('note_on', channel=9, note=36, velocity=0, time=10),\n",
      "  Message('note_on', channel=9, note=51, velocity=0, time=18),\n",
      "  Message('control_change', channel=9, control=4, value=58, time=4),\n",
      "  Message('control_change', channel=9, control=4, value=33, time=22),\n",
      "  Message('note_on', channel=9, note=51, velocity=76, time=7),\n",
      "  Message('note_on', channel=9, note=38, velocity=89, time=9),\n",
      "  Message('control_change', channel=9, control=4, value=7, time=5),\n",
      "  Message('control_change', channel=9, control=4, value=0, time=6),\n",
      "  Message('control_change', channel=9, control=4, value=20, time=22),\n",
      "  Message('control_change', channel=9, control=4, value=40, time=22),\n",
      "  Message('control_change', channel=9, control=4, value=61, time=21),\n",
      "  Message('control_change', channel=9, control=4, value=66, time=5),\n",
      "  Message('note_on', channel=9, note=51, velocity=0, time=3),\n",
      "  Message('note_on', channel=9, note=38, velocity=0, time=10),\n",
      "  Message('control_change', channel=9, control=4, value=77, time=8),\n",
      "  Message('control_change', channel=9, control=4, value=89, time=22),\n",
      "  Message('control_change', channel=9, control=4, value=90, time=0),\n",
      "  Message('note_on', channel=9, note=38, velocity=28, time=10),\n",
      "  Message('note_on', channel=9, note=38, velocity=0, time=95),\n",
      "  Message('note_on', channel=9, note=44, velocity=100, time=0),\n",
      "  Message('note_on', channel=9, note=51, velocity=71, time=2),\n",
      "  Message('note_on', channel=9, note=44, velocity=0, time=92),\n",
      "  Message('note_on', channel=9, note=51, velocity=0, time=2),\n",
      "  Message('note_on', channel=9, note=51, velocity=64, time=26),\n",
      "  Message('note_on', channel=9, note=38, velocity=24, time=7),\n",
      "  Message('control_change', channel=9, control=4, value=90, time=27),\n",
      "  Message('control_change', channel=9, control=4, value=85, time=44),\n",
      "  Message('note_on', channel=9, note=51, velocity=0, time=15),\n",
      "  Message('note_on', channel=9, note=38, velocity=0, time=7),\n",
      "  Message('note_on', channel=9, note=36, velocity=37, time=8),\n",
      "  Message('note_on', channel=9, note=51, velocity=76, time=5),\n",
      "  Message('control_change', channel=9, control=4, value=80, time=8),\n",
      "  Message('control_change', channel=9, control=4, value=75, time=44),\n",
      "  Message('note_on', channel=9, note=36, velocity=0, time=37),\n",
      "  Message('note_on', channel=9, note=51, velocity=0, time=5),\n",
      "  Message('control_change', channel=9, control=4, value=70, time=1),\n",
      "  Message('control_change', channel=9, control=4, value=65, time=44),\n",
      "  Message('note_on', channel=9, note=38, velocity=26, time=1),\n",
      "  Message('control_change', channel=9, control=4, value=60, time=42),\n",
      "  Message('control_change', channel=9, control=4, value=57, time=20),\n",
      "  Message('control_change', channel=9, control=4, value=29, time=22),\n",
      "  Message('note_on', channel=9, note=36, velocity=30, time=6),\n",
      "  Message('note_on', channel=9, note=38, velocity=0, time=4),\n",
      "  Message('note_on', channel=9, note=44, velocity=82, time=8),\n",
      "  Message('note_on', channel=9, note=51, velocity=68, time=0),\n",
      "  Message('control_change', channel=9, control=4, value=0, time=4),\n",
      "  Message('note_on', channel=9, note=38, velocity=31, time=1),\n",
      "  Message('control_change', channel=9, control=4, value=21, time=21),\n",
      "  Message('control_change', channel=9, control=4, value=43, time=21),\n",
      "  Message('control_change', channel=9, control=4, value=65, time=22),\n",
      "  Message('control_change', channel=9, control=4, value=76, time=10),\n",
      "  Message('note_on', channel=9, note=36, velocity=0, time=2),\n",
      "  Message('note_on', channel=9, note=44, velocity=0, time=12),\n",
      "  Message('note_on', channel=9, note=51, velocity=0, time=0),\n",
      "  Message('note_on', channel=9, note=38, velocity=0, time=5),\n",
      "  Message('control_change', channel=9, control=4, value=83, time=3),\n",
      "  Message('note_on', channel=9, note=51, velocity=57, time=17),\n",
      "  Message('note_on', channel=9, note=36, velocity=43, time=2),\n",
      "  Message('control_change', channel=9, control=4, value=90, time=3),\n",
      "  Message('control_change', channel=9, control=4, value=87, time=43),\n",
      "  Message('control_change', channel=9, control=4, value=83, time=44),\n",
      "  Message('note_on', channel=9, note=51, velocity=0, time=1),\n",
      "  Message('note_on', channel=9, note=36, velocity=0, time=3),\n",
      "  Message('note_on', channel=9, note=51, velocity=78, time=34),\n",
      "  Message('control_change', channel=9, control=4, value=79, time=5),\n",
      "  Message('note_on', channel=9, note=38, velocity=73, time=2),\n",
      "  Message('control_change', channel=9, control=4, value=75, time=42),\n",
      "  Message('control_change', channel=9, control=4, value=71, time=43),\n",
      "  Message('note_on', channel=9, note=51, velocity=0, time=2),\n",
      "  Message('note_on', channel=9, note=38, velocity=0, time=6),\n",
      "  Message('note_on', channel=9, note=38, velocity=36, time=17),\n",
      "  Message('control_change', channel=9, control=4, value=67, time=19),\n",
      "  Message('control_change', channel=9, control=4, value=63, time=43),\n",
      "  Message('note_on', channel=9, note=38, velocity=0, time=31),\n",
      "  Message('control_change', channel=9, control=4, value=60, time=13),\n",
      "  Message('note_on', channel=9, note=44, velocity=100, time=12),\n",
      "  Message('note_on', channel=9, note=51, velocity=64, time=5),\n",
      "  Message('note_on', channel=9, note=38, velocity=26, time=6),\n",
      "  Message('control_change', channel=9, control=4, value=56, time=20),\n",
      "  Message('control_change', channel=9, control=4, value=52, time=44),\n",
      "  Message('note_on', channel=9, note=44, velocity=0, time=20),\n",
      "  Message('note_on', channel=9, note=51, velocity=0, time=3),\n",
      "  Message('note_on', channel=9, note=38, velocity=0, time=7),\n",
      "  Message('control_change', channel=9, control=4, value=48, time=13),\n",
      "  Message('note_on', channel=9, note=51, velocity=57, time=10),\n",
      "  Message('note_on', channel=9, note=36, velocity=44, time=6),\n",
      "  Message('control_change', channel=9, control=4, value=44, time=28),\n",
      "  Message('control_change', channel=9, control=4, value=42, time=19),\n",
      "  Message('control_change', channel=9, control=4, value=24, time=21),\n",
      "  Message('note_on', channel=9, note=51, velocity=0, time=19),\n",
      "  Message('control_change', channel=9, control=4, value=5, time=3),\n",
      "  Message('note_on', channel=9, note=36, velocity=0, time=3),\n",
      "  Message('control_change', channel=9, control=4, value=0, time=2),\n",
      "  Message('note_on', channel=9, note=51, velocity=64, time=10),\n",
      "  Message('control_change', channel=9, control=4, value=23, time=11),\n",
      "  Message('control_change', channel=9, control=4, value=47, time=22),\n",
      "  Message('control_change', channel=9, control=4, value=71, time=22),\n",
      "  Message('control_change', channel=9, control=4, value=80, time=22),\n",
      "  Message('note_on', channel=9, note=51, velocity=0, time=17),\n",
      "  Message('control_change', channel=9, control=4, value=89, time=4),\n",
      "  Message('control_change', channel=9, control=4, value=90, time=0),\n",
      "  Message('note_on', channel=9, note=38, velocity=33, time=20),\n",
      "  Message('control_change', channel=9, control=4, value=87, time=25),\n",
      "  Message('control_change', channel=9, control=4, value=83, time=44),\n",
      "  Message('note_on', channel=9, note=38, velocity=0, time=24),\n",
      "  Message('note_on', channel=9, note=36, velocity=33, time=6),\n",
      "  Message('note_on', channel=9, note=51, velocity=76, time=8),\n",
      "  Message('control_change', channel=9, control=4, value=79, time=5),\n",
      "  Message('note_on', channel=9, note=44, velocity=100, time=6),\n",
      "  Message('control_change', channel=9, control=4, value=75, time=38),\n",
      "  Message('note_on', channel=9, note=36, velocity=0, time=36),\n",
      "  Message('control_change', channel=9, control=4, value=71, time=7),\n",
      "  Message('control_change', channel=9, control=4, value=72, time=0),\n",
      "  Message('note_on', channel=9, note=51, velocity=0, time=2),\n",
      "  Message('note_on', channel=9, note=44, velocity=0, time=10),\n",
      "  Message('control_change', channel=9, control=4, value=75, time=10),\n",
      "  Message('note_on', channel=9, note=51, velocity=66, time=6),\n",
      "  Message('note_on', channel=9, note=36, velocity=40, time=7),\n",
      "  Message('control_change', channel=9, control=4, value=79, time=9),\n",
      "  Message('control_change', channel=9, control=4, value=84, time=22),\n",
      "  Message('control_change', channel=9, control=4, value=88, time=21),\n",
      "  Message('control_change', channel=9, control=4, value=90, time=6),\n",
      "  Message('control_change', channel=9, control=4, value=87, time=22),\n",
      "  Message('note_on', channel=9, note=51, velocity=0, time=7),\n",
      "  Message('note_on', channel=9, note=36, velocity=0, time=7),\n",
      "  Message('control_change', channel=9, control=4, value=84, time=8),\n",
      "  Message('note_on', channel=9, note=51, velocity=86, time=13),\n",
      "  Message('note_on', channel=9, note=37, velocity=88, time=1),\n",
      "  Message('control_change', channel=9, control=4, value=81, time=7),\n",
      "  Message('control_change', channel=9, control=4, value=77, time=22),\n",
      "  Message('control_change', channel=9, control=4, value=74, time=22),\n",
      "  Message('control_change', channel=9, control=4, value=71, time=22),\n",
      "  Message('note_on', channel=9, note=51, velocity=0, time=19),\n",
      "  Message('control_change', channel=9, control=4, value=67, time=2),\n",
      "  Message('note_on', channel=9, note=37, velocity=0, time=0),\n",
      "  Message('control_change', channel=9, control=4, value=64, time=22),\n",
      "  Message('control_change', channel=9, control=4, value=61, time=22),\n",
      "  Message('control_change', channel=9, control=4, value=58, time=14),\n",
      "  Message('control_change', channel=9, control=4, value=33, time=22),\n",
      "  Message('control_change', channel=9, control=4, value=7, time=22),\n",
      "  Message('control_change', channel=9, control=4, value=0, time=6),\n",
      "  Message('control_change', channel=9, control=4, value=23, time=21),\n",
      "  Message('note_on', channel=9, note=44, velocity=105, time=21),\n",
      "  Message('control_change', channel=9, control=4, value=47, time=1),\n",
      "  Message('note_on', channel=9, note=40, velocity=94, time=8),\n",
      "  Message('note_on', channel=9, note=51, velocity=84, time=3),\n",
      "  Message('control_change', channel=9, control=4, value=71, time=11),\n",
      "  Message('control_change', channel=9, control=4, value=76, time=4),\n",
      "  Message('control_change', channel=9, control=4, value=83, time=22),\n",
      "  Message('control_change', channel=9, control=4, value=90, time=22),\n",
      "  Message('note_on', channel=9, note=44, velocity=0, time=23),\n",
      "  Message('note_on', channel=9, note=40, velocity=0, time=9),\n",
      "  Message('note_on', channel=9, note=51, velocity=0, time=2),\n",
      "  Message('control_change', channel=9, control=4, value=87, time=9),\n",
      "  Message('note_on', channel=9, note=51, velocity=53, time=26),\n",
      "  Message('control_change', channel=9, control=4, value=84, time=18),\n",
      "  Message('control_change', channel=9, control=4, value=81, time=43),\n",
      "  Message('note_on', channel=9, note=51, velocity=0, time=32),\n",
      "  Message('control_change', channel=9, control=4, value=78, time=12),\n",
      "  Message('note_on', channel=9, note=36, velocity=48, time=3),\n",
      "  Message('note_on', channel=9, note=51, velocity=87, time=12),\n",
      "  Message('control_change', channel=9, control=4, value=75, time=28),\n",
      "  Message('control_change', channel=9, control=4, value=80, time=22),\n",
      "  Message('control_change', channel=9, control=4, value=85, time=22),\n",
      "  Message('note_on', channel=9, note=36, velocity=0, time=9),\n",
      "  Message('control_change', channel=9, control=4, value=90, time=11),\n",
      "  Message('note_on', channel=9, note=51, velocity=0, time=2),\n",
      "  Message('control_change', channel=9, control=4, value=86, time=20),\n",
      "  Message('note_on', channel=9, note=38, velocity=25, time=18),\n",
      "  Message('control_change', channel=9, control=4, value=82, time=4),\n",
      "  Message('control_change', channel=9, control=4, value=78, time=21),\n",
      "  Message('control_change', channel=9, control=4, value=74, time=22),\n",
      "  Message('control_change', channel=9, control=4, value=70, time=22),\n",
      "  Message('control_change', channel=9, control=4, value=66, time=22),\n",
      "  Message('note_on', channel=9, note=38, velocity=0, time=3),\n",
      "  Message('note_on', channel=9, note=44, velocity=90, time=1),\n",
      "  Message('note_on', channel=9, note=51, velocity=71, time=9),\n",
      "  Message('note_on', channel=9, note=38, velocity=32, time=6),\n",
      "  Message('control_change', channel=9, control=4, value=62, time=2),\n",
      "  Message('control_change', channel=9, control=4, value=58, time=22),\n",
      "  Message('control_change', channel=9, control=4, value=54, time=22),\n",
      "  Message('control_change', channel=9, control=4, value=50, time=22),\n",
      "  Message('note_on', channel=9, note=44, velocity=0, time=11),\n",
      "  Message('note_on', channel=9, note=51, velocity=0, time=8),\n",
      "  Message('control_change', channel=9, control=4, value=46, time=2),\n",
      "  Message('note_on', channel=9, note=38, velocity=0, time=5),\n",
      "  Message('note_on', channel=9, note=36, velocity=46, time=7),\n",
      "  Message('control_change', channel=9, control=4, value=43, time=1),\n",
      "  Message('note_on', channel=9, note=51, velocity=53, time=16),\n",
      "  Message('control_change', channel=9, control=4, value=22, time=6),\n",
      "  Message('control_change', channel=9, control=4, value=0, time=22),\n",
      "  Message('control_change', channel=9, control=4, value=1, time=0),\n",
      "  Message('control_change', channel=9, control=4, value=25, time=22),\n",
      "  Message('control_change', channel=9, control=4, value=50, time=21),\n",
      "  Message('note_on', channel=9, note=36, velocity=0, time=7),\n",
      "  Message('control_change', channel=9, control=4, value=76, time=15),\n",
      "  Message('note_on', channel=9, note=51, velocity=0, time=1),\n",
      "  Message('control_change', channel=9, control=4, value=78, time=1),\n",
      "  Message('note_on', channel=9, note=51, velocity=73, time=17),\n",
      "  Message('control_change', channel=9, control=4, value=84, time=4),\n",
      "  Message('note_on', channel=9, note=37, velocity=84, time=2),\n",
      "  Message('control_change', channel=9, control=4, value=90, time=20),\n",
      "  Message('control_change', channel=9, control=4, value=89, time=44),\n",
      "  Message('note_on', channel=9, note=51, velocity=0, time=24),\n",
      "  Message('note_on', channel=9, note=37, velocity=0, time=6),\n",
      "  Message('control_change', channel=9, control=4, value=87, time=13),\n",
      "  Message('control_change', channel=9, control=4, value=85, time=44),\n",
      "  Message('control_change', channel=9, control=4, value=83, time=43),\n",
      "  Message('control_change', channel=9, control=4, value=82, time=22),\n",
      "  Message('note_on', channel=9, note=44, velocity=100, time=8),\n",
      "  Message('control_change', channel=9, control=4, value=85, time=14),\n",
      "  Message('note_on', channel=9, note=51, velocity=76, time=3),\n",
      "  Message('control_change', channel=9, control=4, value=88, time=18),\n",
      "  Message('control_change', channel=9, control=4, value=90, time=9),\n",
      "  Message('control_change', channel=9, control=4, value=86, time=43),\n",
      "  Message('note_on', channel=9, note=44, velocity=0, time=7),\n",
      "  Message('note_on', channel=9, note=51, velocity=0, time=17),\n",
      "  Message('control_change', channel=9, control=4, value=81, time=20),\n",
      "  Message('note_on', channel=9, note=51, velocity=67, time=4),\n",
      "  Message('note_on', channel=9, note=36, velocity=47, time=4),\n",
      "  Message('control_change', channel=9, control=4, value=76, time=35),\n",
      "  Message('control_change', channel=9, control=4, value=72, time=44),\n",
      "  Message('note_on', channel=9, note=51, velocity=0, time=11),\n",
      "  Message('note_on', channel=9, note=36, velocity=0, time=3),\n",
      "  Message('note_on', channel=9, note=51, velocity=62, time=18),\n",
      "  Message('control_change', channel=9, control=4, value=67, time=11),\n",
      "  Message('control_change', channel=9, control=4, value=62, time=44),\n",
      "  Message('control_change', channel=9, control=4, value=58, time=32),\n",
      "  Message('note_on', channel=9, note=51, velocity=0, time=6),\n",
      "  Message('control_change', channel=9, control=4, value=33, time=16),\n",
      "  Message('note_on', channel=9, note=38, velocity=34, time=9),\n",
      "  Message('control_change', channel=9, control=4, value=7, time=12),\n",
      "  Message('control_change', channel=9, control=4, value=0, time=6),\n",
      "  Message('control_change', channel=9, control=4, value=19, time=22),\n",
      "  Message('control_change', channel=9, control=4, value=38, time=22),\n",
      "  Message('control_change', channel=9, control=4, value=58, time=21),\n",
      "  Message('note_on', channel=9, note=38, velocity=0, time=11),\n",
      "  Message('note_on', channel=9, note=38, velocity=17, time=3),\n",
      "  Message('control_change', channel=9, control=4, value=71, time=1),\n",
      "  Message('note_on', channel=9, note=36, velocity=29, time=7),\n",
      "  Message('note_on', channel=9, note=51, velocity=79, time=7),\n",
      "  Message('note_on', channel=9, note=44, velocity=90, time=3),\n",
      "  Message('control_change', channel=9, control=4, value=80, time=5),\n",
      "  Message('control_change', channel=9, control=4, value=89, time=21),\n",
      "  Message('control_change', channel=9, control=4, value=90, time=0),\n",
      "  Message('control_change', channel=9, control=4, value=89, time=44),\n",
      "  Message('note_on', channel=9, note=38, velocity=0, time=5),\n",
      "  Message('note_on', channel=9, note=36, velocity=0, time=9),\n",
      "  Message('note_on', channel=9, note=51, velocity=0, time=6),\n",
      "  Message('note_on', channel=9, note=44, velocity=0, time=4),\n",
      "  Message('control_change', channel=9, control=4, value=87, time=19),\n",
      "  Message('note_on', channel=9, note=51, velocity=62, time=0),\n",
      "  Message('note_on', channel=9, note=36, velocity=40, time=4),\n",
      "  Message('control_change', channel=9, control=4, value=85, time=40),\n",
      "  Message('control_change', channel=9, control=4, value=83, time=43),\n",
      "  Message('note_on', channel=9, note=51, velocity=0, time=7),\n",
      "  Message('note_on', channel=9, note=36, velocity=0, time=4),\n",
      "  Message('control_change', channel=9, control=4, value=82, time=11),\n",
      "  Message('note_on', channel=9, note=51, velocity=76, time=19),\n",
      "  Message('note_on', channel=9, note=40, velocity=120, time=10),\n",
      "  Message('control_change', channel=9, control=4, value=87, time=15),\n",
      "  Message('control_change', channel=9, control=4, value=90, time=17),\n",
      "  Message('control_change', channel=9, control=4, value=87, time=22),\n",
      "  Message('control_change', channel=9, control=4, value=83, time=20),\n",
      "  Message('note_on', channel=9, note=51, velocity=0, time=9),\n",
      "  Message('note_on', channel=9, note=40, velocity=0, time=10),\n",
      "  Message('control_change', channel=9, control=4, value=79, time=4),\n",
      "  Message('control_change', channel=9, control=4, value=76, time=22),\n",
      "  Message('note_on', channel=9, note=38, velocity=27, time=2),\n",
      "  Message('control_change', channel=9, control=4, value=72, time=20),\n",
      "  Message('control_change', channel=9, control=4, value=68, time=22),\n",
      "  Message('control_change', channel=9, control=4, value=64, time=21),\n",
      "  Message('control_change', channel=9, control=4, value=61, time=22),\n",
      "  Message('note_on', channel=9, note=38, velocity=0, time=9),\n",
      "  Message('control_change', channel=9, control=4, value=57, time=13),\n",
      "  Message('note_on', channel=9, note=44, velocity=95, time=1),\n",
      "  Message('note_on', channel=9, note=51, velocity=68, time=7),\n",
      "  Message('control_change', channel=9, control=4, value=53, time=14),\n",
      "  Message('control_change', channel=9, control=4, value=50, time=21),\n",
      "  Message('control_change', channel=9, control=4, value=46, time=22),\n",
      "  Message('control_change', channel=9, control=4, value=42, time=19),\n",
      "  Message('note_on', channel=9, note=44, velocity=0, time=11),\n",
      "  Message('note_on', channel=9, note=51, velocity=0, time=6),\n",
      "  Message('control_change', channel=9, control=4, value=22, time=5),\n",
      "  Message('note_on', channel=9, note=51, velocity=62, time=16),\n",
      "  Message('control_change', channel=9, control=4, value=0, time=5),\n",
      "  Message('control_change', channel=9, control=4, value=1, time=0),\n",
      "  Message('note_on', channel=9, note=38, velocity=38, time=11),\n",
      "  Message('control_change', channel=9, control=4, value=22, time=13),\n",
      "  Message('control_change', channel=9, control=4, value=45, time=21),\n",
      "  Message('control_change', channel=9, control=4, value=68, time=22),\n",
      "  Message('control_change', channel=9, control=4, value=70, time=2),\n",
      "  Message('note_on', channel=9, note=51, velocity=0, time=19),\n",
      "  Message('control_change', channel=9, control=4, value=80, time=2),\n",
      "  Message('note_on', channel=9, note=38, velocity=0, time=15),\n",
      "  Message('note_on', channel=9, note=36, velocity=37, time=1),\n",
      "  Message('note_on', channel=9, note=51, velocity=51, time=5),\n",
      "  Message('control_change', channel=9, control=4, value=90, time=1),\n",
      "  Message('control_change', channel=9, control=4, value=87, time=44),\n",
      "  Message('control_change', channel=9, control=4, value=83, time=43),\n",
      "  Message('note_on', channel=9, note=36, velocity=0, time=1),\n",
      "  Message('note_on', channel=9, note=51, velocity=0, time=4),\n",
      "  Message('control_change', channel=9, control=4, value=80, time=39),\n",
      "  Message('note_on', channel=9, note=38, velocity=30, time=14),\n",
      "  Message('control_change', channel=9, control=4, value=76, time=29),\n",
      "  Message('control_change', channel=9, control=4, value=73, time=33),\n",
      "  Message('note_on', channel=9, note=44, velocity=90, time=21),\n",
      "  Message('note_on', channel=9, note=38, velocity=0, time=11),\n",
      "  Message('note_on', channel=9, note=51, velocity=68, time=10),\n",
      "  Message('control_change', channel=9, control=4, value=78, time=2),\n",
      "  Message('note_on', channel=9, note=38, velocity=21, time=2),\n",
      "  Message('control_change', channel=9, control=4, value=80, time=7),\n",
      "  Message('control_change', channel=9, control=4, value=84, time=21),\n",
      "  Message('control_change', channel=9, control=4, value=89, time=22),\n",
      "  Message('control_change', channel=9, control=4, value=90, time=0),\n",
      "  Message('note_on', channel=9, note=44, velocity=0, time=19),\n",
      "  Message('control_change', channel=9, control=4, value=87, time=3),\n",
      "  Message('note_on', channel=9, note=51, velocity=0, time=18),\n",
      "  Message('note_on', channel=9, note=38, velocity=0, time=3),\n",
      "  Message('control_change', channel=9, control=4, value=84, time=1),\n",
      "  Message('note_on', channel=9, note=36, velocity=46, time=19),\n",
      "  Message('control_change', channel=9, control=4, value=81, time=2),\n",
      "  Message('note_on', channel=9, note=51, velocity=49, time=5),\n",
      "  Message('control_change', channel=9, control=4, value=78, time=17),\n",
      "  Message('control_change', channel=9, control=4, value=75, time=22),\n",
      "  Message('control_change', channel=9, control=4, value=72, time=22),\n",
      "  Message('control_change', channel=9, control=4, value=69, time=21),\n",
      "  Message('note_on', channel=9, note=36, velocity=0, time=4),\n",
      "  Message('note_on', channel=9, note=51, velocity=0, time=8),\n",
      "  Message('control_change', channel=9, control=4, value=66, time=10),\n",
      "  Message('note_on', channel=9, note=51, velocity=79, time=16),\n",
      "  Message('note_on', channel=9, note=37, velocity=78, time=3),\n",
      "  Message('control_change', channel=9, control=4, value=63, time=3),\n",
      "  Message('control_change', channel=9, control=4, value=60, time=22),\n",
      "  Message('control_change', channel=9, control=4, value=58, time=13),\n",
      "  Message('control_change', channel=9, control=4, value=31, time=21),\n",
      "  Message('control_change', channel=9, control=4, value=4, time=22),\n",
      "  Message('control_change', channel=9, control=4, value=0, time=3),\n",
      "  Message('note_on', channel=9, note=51, velocity=0, time=6),\n",
      "  Message('note_on', channel=9, note=37, velocity=0, time=4),\n",
      "  Message('control_change', channel=9, control=4, value=21, time=12),\n",
      "  Message('note_on', channel=9, note=38, velocity=29, time=17),\n",
      "  Message('control_change', channel=9, control=4, value=43, time=5),\n",
      "  Message('control_change', channel=9, control=4, value=65, time=21),\n",
      "  Message('control_change', channel=9, control=4, value=78, time=13),\n",
      "  Message('control_change', channel=9, control=4, value=84, time=22),\n",
      "  Message('control_change', channel=9, control=4, value=90, time=22),\n",
      "  Message('note_on', channel=9, note=38, velocity=0, time=11),\n",
      "  Message('note_on', channel=9, note=44, velocity=100, time=11),\n",
      "  Message('note_on', channel=9, note=38, velocity=19, time=13),\n",
      "  Message('control_change', channel=9, control=4, value=87, time=8),\n",
      "  Message('note_on', channel=9, note=51, velocity=65, time=1),\n",
      "  Message('control_change', channel=9, control=4, value=83, time=43),\n",
      "  Message('note_on', channel=9, note=44, velocity=0, time=28),\n",
      "  Message('note_on', channel=9, note=38, velocity=0, time=14),\n",
      "  Message('control_change', channel=9, control=4, value=79, time=1),\n",
      "  Message('note_on', channel=9, note=51, velocity=0, time=7),\n",
      "  Message('note_on', channel=9, note=36, velocity=45, time=10),\n",
      "  Message('note_on', channel=9, note=51, velocity=69, time=11),\n",
      "  Message('control_change', channel=9, control=4, value=75, time=16),\n",
      "  Message('control_change', channel=9, control=4, value=73, time=17),\n",
      "  Message('control_change', channel=9, control=4, value=78, time=44),\n",
      "  Message('note_on', channel=9, note=36, velocity=0, time=6),\n",
      "  Message('control_change', channel=9, control=4, value=80, time=8),\n",
      "  Message('note_on', channel=9, note=51, velocity=0, time=2),\n",
      "  Message('note_on', channel=9, note=51, velocity=58, time=17),\n",
      "  Message('control_change', channel=9, control=4, value=84, time=3),\n",
      "  Message('control_change', channel=9, control=4, value=89, time=22),\n",
      "  Message('control_change', channel=9, control=4, value=90, time=0),\n",
      "  Message('control_change', channel=9, control=4, value=87, time=22),\n",
      "  Message('control_change', channel=9, control=4, value=84, time=21),\n",
      "  Message('control_change', channel=9, control=4, value=81, time=22),\n",
      "  Message('note_on', channel=9, note=51, velocity=0, time=3),\n",
      "  Message('control_change', channel=9, control=4, value=78, time=19),\n",
      "  Message('note_on', channel=9, note=38, velocity=32, time=7),\n",
      "  Message('control_change', channel=9, control=4, value=75, time=15),\n",
      "  Message('control_change', channel=9, control=4, value=72, time=21),\n",
      "  Message('control_change', channel=9, control=4, value=69, time=22),\n",
      "  Message('control_change', channel=9, control=4, value=66, time=22),\n",
      "  Message('note_on', channel=9, note=38, velocity=0, time=14),\n",
      "  Message('control_change', channel=9, control=4, value=63, time=8),\n",
      "  Message('note_on', channel=9, note=38, velocity=24, time=0),\n",
      "  Message('note_on', channel=9, note=36, velocity=25, time=1),\n",
      "  Message('note_on', channel=9, note=51, velocity=83, time=9),\n",
      "  Message('note_on', channel=9, note=44, velocity=95, time=4),\n",
      "  Message('control_change', channel=9, control=4, value=60, time=7),\n",
      "  Message('control_change', channel=9, control=4, value=59, time=3),\n",
      "  Message('control_change', channel=9, control=4, value=35, time=22),\n",
      "  Message('control_change', channel=9, control=4, value=10, time=22),\n",
      "  Message('control_change', channel=9, control=4, value=0, time=8),\n",
      "  Message('note_on', channel=9, note=38, velocity=0, time=18),\n",
      "  Message('note_on', channel=9, note=36, velocity=0, time=1),\n",
      "  Message('control_change', channel=9, control=4, value=19, time=3),\n",
      "  Message('note_on', channel=9, note=51, velocity=0, time=5),\n",
      "  Message('note_on', channel=9, note=44, velocity=0, time=5),\n",
      "  Message('note_on', channel=9, note=36, velocity=37, time=11),\n",
      "  Message('control_change', channel=9, control=4, value=39, time=1),\n",
      "  Message('note_on', channel=9, note=51, velocity=63, time=7),\n",
      "  Message('control_change', channel=9, control=4, value=59, time=15),\n",
      "  Message('control_change', channel=9, control=4, value=71, time=11),\n",
      "  Message('control_change', channel=9, control=4, value=80, time=22),\n",
      "  Message('control_change', channel=9, control=4, value=89, time=22),\n",
      "  Message('control_change', channel=9, control=4, value=90, time=0),\n",
      "  Message('note_on', channel=9, note=36, velocity=0, time=15),\n",
      "  Message('note_on', channel=9, note=51, velocity=0, time=9),\n",
      "  Message('note_on', channel=9, note=38, velocity=89, time=29),\n",
      "  Message('note_on', channel=9, note=51, velocity=88, time=0),\n",
      "  Message('control_change', channel=9, control=4, value=88, time=35),\n",
      "  Message('note_on', channel=9, note=38, velocity=0, time=58),\n",
      "  Message('note_on', channel=9, note=51, velocity=0, time=0),\n",
      "  Message('control_change', channel=9, control=4, value=85, time=29),\n",
      "  Message('note_on', channel=9, note=38, velocity=29, time=4),\n",
      "  Message('control_change', channel=9, control=4, value=84, time=5),\n",
      "  Message('control_change', channel=9, control=4, value=87, time=43),\n",
      "  Message('control_change', channel=9, control=4, value=90, time=25),\n",
      "  Message('note_on', channel=9, note=38, velocity=0, time=21),\n",
      "  Message('control_change', channel=9, control=4, value=85, time=23),\n",
      "  Message('note_on', channel=9, note=44, velocity=100, time=3),\n",
      "  Message('note_on', channel=9, note=51, velocity=77, time=1),\n",
      "  Message('control_change', channel=9, control=4, value=80, time=39),\n",
      "  Message('control_change', channel=9, control=4, value=75, time=44),\n",
      "  Message('note_on', channel=9, note=44, velocity=0, time=9),\n",
      "  Message('note_on', channel=9, note=51, velocity=0, time=0),\n",
      "  Message('note_on', channel=9, note=38, velocity=55, time=10),\n",
      "  Message('note_on', channel=9, note=51, velocity=68, time=0),\n",
      "  Message('control_change', channel=9, control=4, value=69, time=24),\n",
      "  Message('control_change', channel=9, control=4, value=64, time=44),\n",
      "  Message('note_on', channel=9, note=38, velocity=0, time=25),\n",
      "  Message('note_on', channel=9, note=51, velocity=0, time=0),\n",
      "  Message('control_change', channel=9, control=4, value=58, time=18),\n",
      "  Message('control_change', channel=9, control=4, value=59, time=0),\n",
      "  Message('note_on', channel=9, note=36, velocity=45, time=2),\n",
      "  Message('note_on', channel=9, note=51, velocity=64, time=10),\n",
      "  Message('control_change', channel=9, control=4, value=32, time=11),\n",
      "  Message('control_change', channel=9, control=4, value=6, time=22),\n",
      "  Message('control_change', channel=9, control=4, value=0, time=4),\n",
      "  Message('control_change', channel=9, control=4, value=18, time=22),\n",
      "  Message('control_change', channel=9, control=4, value=36, time=22),\n",
      "  Message('note_on', channel=9, note=36, velocity=0, time=2),\n",
      "  Message('note_on', channel=9, note=51, velocity=0, time=11),\n",
      "  Message('control_change', channel=9, control=4, value=54, time=9),\n",
      "  Message('control_change', channel=9, control=4, value=72, time=20),\n",
      "  Message('note_on', channel=9, note=38, velocity=21, time=1),\n",
      "  Message('control_change', channel=9, control=4, value=80, time=21),\n",
      "  Message('control_change', channel=9, control=4, value=89, time=21),\n",
      "  Message('control_change', channel=9, control=4, value=90, time=0),\n",
      "  Message('control_change', channel=9, control=4, value=87, time=44),\n",
      "  Message('note_on', channel=9, note=38, velocity=0, time=8),\n",
      "  Message('note_on', channel=9, note=44, velocity=100, time=15),\n",
      "  Message('note_on', channel=9, note=51, velocity=69, time=4),\n",
      "  Message('note_on', channel=9, note=38, velocity=24, time=7),\n",
      "  Message('control_change', channel=9, control=4, value=84, time=9),\n",
      "  Message('control_change', channel=9, control=4, value=81, time=44),\n",
      "  Message('note_on', channel=9, note=44, velocity=0, time=30),\n",
      "  Message('note_on', channel=9, note=51, velocity=0, time=4),\n",
      "  Message('note_on', channel=9, note=38, velocity=0, time=7),\n",
      "  Message('control_change', channel=9, control=4, value=77, time=2),\n",
      "  Message('note_on', channel=9, note=51, velocity=50, time=24),\n",
      "  Message('control_change', channel=9, control=4, value=75, time=1),\n",
      "  Message('note_on', channel=9, note=36, velocity=46, time=6),\n",
      "  Message('control_change', channel=9, control=4, value=78, time=16),\n",
      "  Message('control_change', channel=9, control=4, value=82, time=22),\n",
      "  Message('control_change', channel=9, control=4, value=85, time=21),\n",
      "  Message('control_change', channel=9, control=4, value=89, time=22),\n",
      "  Message('control_change', channel=9, control=4, value=90, time=3),\n",
      "  Message('note_on', channel=9, note=51, velocity=0, time=2),\n",
      "  Message('note_on', channel=9, note=36, velocity=0, time=7),\n",
      "  Message('note_on', channel=9, note=51, velocity=77, time=18),\n",
      "  Message('note_on', channel=9, note=37, velocity=79, time=9),\n",
      "  Message('control_change', channel=9, control=4, value=85, time=7),\n",
      "  Message('control_change', channel=9, control=4, value=79, time=44),\n",
      "  Message('note_on', channel=9, note=51, velocity=0, time=34),\n",
      "  Message('control_change', channel=9, control=4, value=73, time=9),\n",
      "  Message('note_on', channel=9, note=37, velocity=0, time=0),\n",
      "  Message('note_on', channel=9, note=38, velocity=26, time=31),\n",
      "  Message('control_change', channel=9, control=4, value=67, time=13),\n",
      "  Message('control_change', channel=9, control=4, value=61, time=43),\n",
      "  Message('control_change', channel=9, control=4, value=57, time=27),\n",
      "  Message('note_on', channel=9, note=38, velocity=0, time=11),\n",
      "  Message('control_change', channel=9, control=4, value=32, time=10),\n",
      "  Message('note_on', channel=9, note=44, velocity=87, time=7),\n",
      "  Message('note_on', channel=9, note=51, velocity=61, time=4),\n",
      "  Message('note_on', channel=9, note=38, velocity=25, time=4),\n",
      "  Message('control_change', channel=9, control=4, value=7, time=7),\n",
      "  Message('control_change', channel=9, control=4, value=0, time=6),\n",
      "  Message('control_change', channel=9, control=4, value=20, time=22),\n",
      "  Message('control_change', channel=9, control=4, value=41, time=21),\n",
      "  Message('control_change', channel=9, control=4, value=62, time=22),\n",
      "  Message('note_on', channel=9, note=44, velocity=0, time=7),\n",
      "  Message('note_on', channel=9, note=51, velocity=0, time=5),\n",
      "  Message('control_change', channel=9, control=4, value=78, time=4),\n",
      "  Message('note_on', channel=9, note=38, velocity=0, time=0),\n",
      "  Message('note_on', channel=9, note=51, velocity=65, time=19),\n",
      "  Message('control_change', channel=9, control=4, value=84, time=3),\n",
      "  Message('control_change', channel=9, control=4, value=90, time=22),\n",
      "  Message('note_on', channel=9, note=36, velocity=51, time=0),\n",
      "  Message('control_change', channel=9, control=4, value=87, time=43),\n",
      "  Message('note_on', channel=9, note=51, velocity=0, time=26),\n",
      "  Message('control_change', channel=9, control=4, value=84, time=18),\n",
      "  Message('note_on', channel=9, note=51, velocity=61, time=1),\n",
      "  Message('note_on', channel=9, note=36, velocity=0, time=5),\n",
      "  Message('control_change', channel=9, control=4, value=81, time=37),\n",
      "  Message('control_change', channel=9, control=4, value=78, time=44),\n",
      "  Message('note_on', channel=9, note=51, velocity=0, time=8),\n",
      "  Message('note_on', channel=9, note=38, velocity=38, time=21),\n",
      "  Message('control_change', channel=9, control=4, value=75, time=14),\n",
      "  Message('control_change', channel=9, control=4, value=74, time=15),\n",
      "  Message('control_change', channel=9, control=4, value=79, time=21),\n",
      "  Message('control_change', channel=9, control=4, value=84, time=22),\n",
      "  Message('control_change', channel=9, control=4, value=89, time=22),\n",
      "  Message('note_on', channel=9, note=38, velocity=0, time=0),\n",
      "  Message('control_change', channel=9, control=4, value=90, time=3),\n",
      "  Message('note_on', channel=9, note=44, velocity=92, time=19),\n",
      "  Message('control_change', channel=9, control=4, value=87, time=2),\n",
      "  Message('note_on', channel=9, note=51, velocity=66, time=1),\n",
      "  Message('note_on', channel=9, note=36, velocity=30, time=9),\n",
      "  Message('control_change', channel=9, control=4, value=84, time=12),\n",
      "  Message('control_change', channel=9, control=4, value=81, time=22),\n",
      "  Message('control_change', channel=9, control=4, value=77, time=22),\n",
      "  Message('control_change', channel=9, control=4, value=74, time=21),\n",
      "  Message('note_on', channel=9, note=44, velocity=0, time=5),\n",
      "  Message('note_on', channel=9, note=51, velocity=0, time=3),\n",
      "  Message('note_on', channel=9, note=36, velocity=0, time=8),\n",
      "  Message('control_change', channel=9, control=4, value=71, time=6),\n",
      "  Message('note_on', channel=9, note=51, velocity=62, time=15),\n",
      "  Message('note_on', channel=9, note=36, velocity=38, time=1),\n",
      "  Message('control_change', channel=9, control=4, value=67, time=6),\n",
      "  Message('control_change', channel=9, control=4, value=64, time=22),\n",
      "  Message('control_change', channel=9, control=4, value=61, time=21),\n",
      "  Message('control_change', channel=9, control=4, value=57, time=22),\n",
      "  Message('note_on', channel=9, note=36, velocity=0, time=21),\n",
      "  Message('note_on', channel=9, note=51, velocity=0, time=0),\n",
      "  Message('control_change', channel=9, control=4, value=29, time=1),\n",
      "  Message('note_on', channel=9, note=37, velocity=79, time=7),\n",
      "  Message('note_on', channel=9, note=51, velocity=88, time=13),\n",
      "  Message('control_change', channel=9, control=4, value=0, time=2),\n",
      "  Message('control_change', channel=9, control=4, value=1, time=0),\n",
      "  Message('control_change', channel=9, control=4, value=19, time=21),\n",
      "  Message('control_change', channel=9, control=4, value=39, time=22),\n",
      "  Message('control_change', channel=9, control=4, value=58, time=22),\n",
      "  Message('note_on', channel=9, note=37, velocity=0, time=14),\n",
      "  Message('control_change', channel=9, control=4, value=77, time=6),\n",
      "  Message('note_on', channel=9, note=51, velocity=0, time=6),\n",
      "  Message('control_change', channel=9, control=4, value=83, time=16),\n",
      "  Message('note_on', channel=9, note=38, velocity=31, time=14),\n",
      "  Message('control_change', channel=9, control=4, value=90, time=8),\n",
      "  Message('control_change', channel=9, control=4, value=88, time=43),\n",
      "  Message('note_on', channel=9, note=38, velocity=0, time=43),\n",
      "  Message('control_change', channel=9, control=4, value=85, time=1),\n",
      "  Message('note_on', channel=9, note=44, velocity=102, time=12),\n",
      "  Message('note_on', channel=9, note=51, velocity=79, time=12),\n",
      "  Message('control_change', channel=9, control=4, value=82, time=19),\n",
      "  Message('control_change', channel=9, control=4, value=79, time=44),\n",
      "  Message('note_on', channel=9, note=44, velocity=0, time=20),\n",
      "  Message('note_on', channel=9, note=38, velocity=15, time=5),\n",
      "  Message('note_on', channel=9, note=51, velocity=0, time=6),\n",
      "  Message('control_change', channel=9, control=4, value=75, time=12),\n",
      "  Message('control_change', channel=9, control=4, value=76, time=0),\n",
      "  Message('note_on', channel=9, note=51, velocity=68, time=10),\n",
      "  Message('control_change', channel=9, control=4, value=79, time=13),\n",
      "  Message('control_change', channel=9, control=4, value=83, time=22),\n",
      "  Message('control_change', channel=9, control=4, value=87, time=22),\n",
      "  Message('note_on', channel=9, note=38, velocity=0, time=9),\n",
      "  Message('control_change', channel=9, control=4, value=90, time=1),\n",
      "  Message('control_change', channel=9, control=4, value=86, time=22),\n",
      "  Message('note_on', channel=9, note=51, velocity=0, time=5),\n",
      "  Message('control_change', channel=9, control=4, value=82, time=17),\n",
      "  Message('note_on', channel=9, note=36, velocity=49, time=5),\n",
      "  Message('note_on', channel=9, note=51, velocity=86, time=13),\n",
      "  Message('control_change', channel=9, control=4, value=78, time=3),\n",
      "  Message('control_change', channel=9, control=4, value=73, time=22),\n",
      "  Message('control_change', channel=9, control=4, value=69, time=22),\n",
      "  Message('control_change', channel=9, control=4, value=65, time=22),\n",
      "  Message('note_on', channel=9, note=36, velocity=0, time=12),\n",
      "  Message('control_change', channel=9, control=4, value=60, time=9),\n",
      "  Message('note_on', channel=9, note=51, velocity=0, time=4),\n",
      "  Message('control_change', channel=9, control=4, value=56, time=18),\n",
      "  Message('note_on', channel=9, note=38, velocity=20, time=10),\n",
      "  Message('control_change', channel=9, control=4, value=52, time=12),\n",
      "  Message('control_change', channel=9, control=4, value=47, time=22),\n",
      "  Message('control_change', channel=9, control=4, value=43, time=21),\n",
      "  Message('control_change', channel=9, control=4, value=42, time=3),\n",
      "  Message('control_change', channel=9, control=4, value=21, time=22),\n",
      "  Message('note_on', channel=9, note=44, velocity=102, time=11),\n",
      "  Message('note_on', channel=9, note=38, velocity=0, time=3),\n",
      "  Message('control_change', channel=9, control=4, value=0, time=8),\n",
      "  Message('note_on', channel=9, note=43, velocity=113, time=11),\n",
      "  Message('control_change', channel=9, control=4, value=19, time=10),\n",
      "  Message('control_change', channel=9, control=4, value=38, time=22),\n",
      "  Message('control_change', channel=9, control=4, value=57, time=22),\n",
      "  Message('control_change', channel=9, control=4, value=67, time=10),\n",
      "  Message('note_on', channel=9, note=44, velocity=0, time=8),\n",
      "  Message('control_change', channel=9, control=4, value=78, time=14),\n",
      "  Message('note_on', channel=9, note=43, velocity=0, time=8),\n",
      "  Message('control_change', channel=9, control=4, value=89, time=14),\n",
      "  Message('control_change', channel=9, control=4, value=90, time=0),\n",
      "  Message('note_on', channel=9, note=38, velocity=14, time=21),\n",
      "  Message('control_change', channel=9, control=4, value=87, time=22),\n",
      "  Message('control_change', channel=9, control=4, value=83, time=44),\n",
      "  Message('note_on', channel=9, note=38, velocity=0, time=28),\n",
      "  Message('control_change', channel=9, control=4, value=79, time=15),\n",
      "  Message('note_on', channel=9, note=45, velocity=89, time=10),\n",
      "  Message('control_change', channel=9, control=4, value=75, time=34),\n",
      "  Message('control_change', channel=9, control=4, value=73, time=23),\n",
      "  Message('note_on', channel=9, note=45, velocity=0, time=36),\n",
      "  Message('note_on', channel=9, note=38, velocity=18, time=5),\n",
      "  Message('control_change', channel=9, control=4, value=77, time=2),\n",
      "  Message('control_change', channel=9, control=4, value=79, time=18),\n",
      "  Message('control_change', channel=9, control=4, value=84, time=21),\n",
      "  Message('control_change', channel=9, control=4, value=90, time=22),\n",
      "  Message('control_change', channel=9, control=4, value=87, time=22),\n",
      "  Message('note_on', channel=9, note=38, velocity=0, time=9),\n",
      "  Message('control_change', channel=9, control=4, value=84, time=13),\n",
      "  Message('note_on', channel=9, note=44, velocity=97, time=3),\n",
      "  Message('control_change', channel=9, control=4, value=81, time=18),\n",
      "  Message('note_on', channel=9, note=48, velocity=105, time=2),\n",
      "  Message('control_change', channel=9, control=4, value=77, time=20),\n",
      "  Message('control_change', channel=9, control=4, value=74, time=22),\n",
      "  Message('control_change', channel=9, control=4, value=71, time=22),\n",
      "  Message('note_on', channel=9, note=44, velocity=0, time=9),\n",
      "  Message('control_change', channel=9, control=4, value=68, time=12),\n",
      "  Message('note_on', channel=9, note=48, velocity=0, time=9),\n",
      "  Message('control_change', channel=9, control=4, value=64, time=13),\n",
      "  Message('note_on', channel=9, note=38, velocity=24, time=8),\n",
      "  Message('control_change', channel=9, control=4, value=61, time=14),\n",
      "  Message('control_change', channel=9, control=4, value=58, time=22),\n",
      "  Message('control_change', channel=9, control=4, value=57, time=3),\n",
      "  Message('control_change', channel=9, control=4, value=34, time=21),\n",
      "  Message('control_change', channel=9, control=4, value=10, time=22),\n",
      "  Message('control_change', channel=9, control=4, value=0, time=9),\n",
      "  Message('note_on', channel=9, note=38, velocity=0, time=2),\n",
      "  Message('control_change', channel=9, control=4, value=19, time=20),\n",
      "  Message('note_on', channel=9, note=38, velocity=74, time=17),\n",
      "  Message('control_change', channel=9, control=4, value=39, time=4),\n",
      "  Message('control_change', channel=9, control=4, value=59, time=22),\n",
      "  Message('control_change', channel=9, control=4, value=71, time=13),\n",
      "  Message('control_change', channel=9, control=4, value=80, time=22),\n",
      "  Message('control_change', channel=9, control=4, value=89, time=22),\n",
      "  Message('control_change', channel=9, control=4, value=90, time=0),\n",
      "  Message('note_on', channel=9, note=38, velocity=0, time=11),\n",
      "  Message('note_on', channel=9, note=38, velocity=93, time=31),\n",
      "  Message('control_change', channel=9, control=4, value=87, time=1),\n",
      "  Message('control_change', channel=9, control=4, value=84, time=44),\n",
      "  Message('control_change', channel=9, control=4, value=81, time=43),\n",
      "  Message('note_on', channel=9, note=44, velocity=95, time=2),\n",
      "  Message('note_on', channel=9, note=38, velocity=0, time=4),\n",
      "  Message('control_change', channel=9, control=4, value=78, time=38),\n",
      "  Message('control_change', channel=9, control=4, value=76, time=26),\n",
      "  Message('control_change', channel=9, control=4, value=80, time=21),\n",
      "  Message('note_on', channel=9, note=44, velocity=0, time=5),\n",
      "  Message('control_change', channel=9, control=4, value=84, time=17),\n",
      "  Message('control_change', channel=9, control=4, value=88, time=22),\n",
      "  Message('control_change', channel=9, control=4, value=90, time=9),\n",
      "  Message('note_on', channel=9, note=38, velocity=100, time=11),\n",
      "  Message('control_change', channel=9, control=4, value=86, time=10),\n",
      "  Message('control_change', channel=9, control=4, value=81, time=22),\n",
      "  Message('control_change', channel=9, control=4, value=76, time=22),\n",
      "  Message('control_change', channel=9, control=4, value=71, time=22),\n",
      "  Message('note_on', channel=9, note=38, velocity=0, time=17),\n",
      "  Message('control_change', channel=9, control=4, value=67, time=4),\n",
      "  Message('control_change', channel=9, control=4, value=62, time=22),\n",
      "  Message('note_on', channel=9, note=40, velocity=113, time=11),\n",
      "  Message('control_change', channel=9, control=4, value=57, time=11),\n",
      "  Message('control_change', channel=9, control=4, value=52, time=22),\n",
      "  Message('control_change', channel=9, control=4, value=48, time=21),\n",
      "  Message('control_change', channel=9, control=4, value=43, time=22),\n",
      "  Message('control_change', channel=9, control=4, value=41, time=7),\n",
      "  Message('note_on', channel=9, note=40, velocity=0, time=11),\n",
      "  Message('control_change', channel=9, control=4, value=22, time=11),\n",
      "  Message('control_change', channel=9, control=4, value=2, time=22),\n",
      "  Message('control_change', channel=9, control=4, value=0, time=1),\n",
      "  Message('control_change', channel=9, control=4, value=18, time=22),\n",
      "  Message('control_change', channel=9, control=4, value=37, time=22),\n",
      "  Message('control_change', channel=9, control=4, value=56, time=22),\n",
      "  Message('control_change', channel=9, control=4, value=75, time=21),\n",
      "  Message('control_change', channel=9, control=4, value=77, time=3),\n",
      "  Message('note_on', channel=9, note=44, velocity=100, time=13),\n",
      "  Message('control_change', channel=9, control=4, value=83, time=9),\n",
      "  Message('control_change', channel=9, control=4, value=90, time=22),\n",
      "  Message('control_change', channel=9, control=4, value=88, time=43),\n",
      "  Message('note_on', channel=9, note=44, velocity=0, time=20),\n",
      "  Message('control_change', channel=9, control=4, value=86, time=24),\n",
      "  Message('note_on', channel=9, note=51, velocity=57, time=14),\n",
      "  Message('control_change', channel=9, control=4, value=84, time=29),\n",
      "  Message('control_change', channel=9, control=4, value=82, time=32),\n",
      "  Message('note_on', channel=9, note=51, velocity=0, time=3),\n",
      "  Message('note_on', channel=9, note=51, velocity=85, time=0),\n",
      "  Message('note_on', channel=9, note=51, velocity=0, time=30),\n",
      "  Message('control_change', channel=9, control=4, value=79, time=11),\n",
      "  Message('control_change', channel=9, control=4, value=78, time=3),\n",
      "  Message('note_on', channel=9, note=36, velocity=66, time=9),\n",
      "  Message('note_on', channel=9, note=55, velocity=96, time=2),\n",
      "  Message('control_change', channel=9, control=4, value=82, time=10),\n",
      "  Message('control_change', channel=9, control=4, value=86, time=22),\n",
      "  Message('control_change', channel=9, control=4, value=90, time=20),\n",
      "  Message('note_on', channel=9, note=36, velocity=0, time=40),\n",
      "  Message('note_on', channel=9, note=55, velocity=0, time=1),\n",
      "  Message('control_change', channel=9, control=4, value=85, time=3),\n",
      "  Message('control_change', channel=9, control=4, value=80, time=43),\n",
      "  Message('control_change', channel=9, control=4, value=74, time=44),\n",
      "  Message('control_change', channel=9, control=4, value=69, time=43),\n",
      "  Message('note_on', channel=9, note=44, velocity=102, time=10),\n",
      "  Message('control_change', channel=9, control=4, value=64, time=34),\n",
      "  Message('control_change', channel=9, control=4, value=58, time=43),\n",
      "  Message('control_change', channel=9, control=4, value=57, time=8),\n",
      "  Message('note_on', channel=9, note=44, velocity=0, time=9),\n",
      "  Message('control_change', channel=9, control=4, value=29, time=12),\n",
      "  Message('note_on', channel=9, note=36, velocity=47, time=1),\n",
      "  Message('control_change', channel=9, control=4, value=0, time=21),\n",
      "  Message('control_change', channel=9, control=4, value=1, time=0),\n",
      "  Message('control_change', channel=9, control=4, value=19, time=22),\n",
      "  Message('control_change', channel=9, control=4, value=38, time=22),\n",
      "  Message('control_change', channel=9, control=4, value=57, time=21),\n",
      "  Message('note_on', channel=9, note=36, velocity=0, time=8),\n",
      "  Message('control_change', channel=9, control=4, value=76, time=14),\n",
      "  Message('control_change', channel=9, control=4, value=78, time=3),\n",
      "  Message('note_on', channel=9, note=38, velocity=93, time=19),\n",
      "  Message('control_change', channel=9, control=4, value=84, time=3),\n",
      "  Message('note_on', channel=9, note=51, velocity=127, time=7),\n",
      "  Message('control_change', channel=9, control=4, value=90, time=15),\n",
      "  Message('control_change', channel=9, control=4, value=87, time=43),\n",
      "  Message('note_on', channel=9, note=38, velocity=0, time=26),\n",
      "  Message('note_on', channel=9, note=51, velocity=0, time=9),\n",
      "  Message('control_change', channel=9, control=4, value=83, time=9),\n",
      "  Message('note_on', channel=9, note=38, velocity=20, time=13),\n",
      "  Message('control_change', channel=9, control=4, value=80, time=30),\n",
      "  Message('control_change', channel=9, control=4, value=76, time=44),\n",
      "  Message('note_on', channel=9, note=38, velocity=0, time=20),\n",
      "  Message('control_change', channel=9, control=4, value=73, time=16),\n",
      "  Message('note_on', channel=9, note=51, velocity=48, time=13),\n",
      "  Message('note_on', channel=9, note=44, velocity=105, time=5),\n",
      "  Message('control_change', channel=9, control=4, value=77, time=4),\n",
      "  Message('control_change', channel=9, control=4, value=81, time=21),\n",
      "  Message('control_change', channel=9, control=4, value=85, time=22),\n",
      "  Message('control_change', channel=9, control=4, value=89, time=22),\n",
      "  Message('control_change', channel=9, control=4, value=90, time=0),\n",
      "  Message('note_on', channel=9, note=38, velocity=37, time=14),\n",
      "  Message('note_on', channel=9, note=51, velocity=0, time=6),\n",
      "  Message('control_change', channel=9, control=4, value=87, time=2),\n",
      "  Message('note_on', channel=9, note=44, velocity=0, time=3),\n",
      "  Message('note_on', channel=9, note=51, velocity=48, time=9),\n",
      "  Message('control_change', channel=9, control=4, value=84, time=9),\n",
      "  Message('control_change', channel=9, control=4, value=81, time=22),\n",
      "  Message('control_change', channel=9, control=4, value=77, time=22),\n",
      "  Message('note_on', channel=9, note=38, velocity=0, time=21),\n",
      "  Message('control_change', channel=9, control=4, value=74, time=1),\n",
      "  Message('note_on', channel=9, note=51, velocity=0, time=19),\n",
      "  Message('control_change', channel=9, control=4, value=71, time=2),\n",
      "  Message('control_change', channel=9, control=4, value=67, time=22),\n",
      "  Message('note_on', channel=9, note=51, velocity=95, time=14),\n",
      "  Message('control_change', channel=9, control=4, value=64, time=8),\n",
      "  Message('control_change', channel=9, control=4, value=61, time=22),\n",
      "  Message('control_change', channel=9, control=4, value=57, time=21),\n",
      "  Message('control_change', channel=9, control=4, value=34, time=22),\n",
      "  Message('note_on', channel=9, note=51, velocity=0, time=21),\n",
      "  Message('control_change', channel=9, control=4, value=11, time=1),\n",
      "  Message('note_on', channel=9, note=38, velocity=28, time=9),\n",
      "  Message('control_change', channel=9, control=4, value=0, time=1),\n",
      "  Message('control_change', channel=9, control=4, value=19, time=22),\n",
      "  Message('control_change', channel=9, control=4, value=38, time=21),\n",
      "  Message('control_change', channel=9, control=4, value=58, time=22),\n",
      "  Message('control_change', channel=9, control=4, value=77, time=20),\n",
      "  Message('note_on', channel=9, note=38, velocity=0, time=8),\n",
      "  Message('control_change', channel=9, control=4, value=83, time=14),\n",
      "  Message('note_on', channel=9, note=36, velocity=27, time=4),\n",
      "  Message('note_on', channel=9, note=51, velocity=71, time=12),\n",
      "  Message('control_change', channel=9, control=4, value=90, time=6),\n",
      "  Message('note_on', channel=9, note=44, velocity=105, time=1),\n",
      "  Message('note_on', channel=9, note=38, velocity=33, time=1),\n",
      "  Message('control_change', channel=9, control=4, value=87, time=41),\n",
      "  Message('note_on', channel=9, note=36, velocity=0, time=32),\n",
      "  Message('control_change', channel=9, control=4, value=83, time=12),\n",
      "  Message('note_on', channel=9, note=51, velocity=0, time=1),\n",
      "  Message('note_on', channel=9, note=38, velocity=0, time=7),\n",
      "  Message('note_on', channel=9, note=44, velocity=0, time=0),\n",
      "  Message('note_on', channel=9, note=36, velocity=45, time=9),\n",
      "  Message('note_on', channel=9, note=51, velocity=62, time=9),\n",
      "  Message('control_change', channel=9, control=4, value=79, time=17),\n",
      "  Message('control_change', channel=9, control=4, value=76, time=44),\n",
      "  Message('note_on', channel=9, note=36, velocity=0, time=24),\n",
      "  Message('control_change', channel=9, control=4, value=73, time=4),\n",
      "  Message('note_on', channel=9, note=51, velocity=0, time=4),\n",
      "  Message('control_change', channel=9, control=4, value=75, time=39),\n",
      "  Message('note_on', channel=9, note=51, velocity=127, time=0),\n",
      "  Message('note_on', channel=9, note=37, velocity=81, time=4),\n",
      "  Message('control_change', channel=9, control=4, value=77, time=13),\n",
      "  Message('control_change', channel=9, control=4, value=82, time=22),\n",
      "  Message('control_change', channel=9, control=4, value=88, time=22),\n",
      "  Message('control_change', channel=9, control=4, value=90, time=7),\n",
      "  Message('control_change', channel=9, control=4, value=87, time=22),\n",
      "  Message('note_on', channel=9, note=51, velocity=0, time=4),\n",
      "  Message('note_on', channel=9, note=37, velocity=0, time=2),\n",
      "  Message('control_change', channel=9, control=4, value=84, time=16),\n",
      "  Message('note_on', channel=9, note=38, velocity=31, time=19),\n",
      "  Message('control_change', channel=9, control=4, value=81, time=2),\n",
      "  Message('control_change', channel=9, control=4, value=77, time=22),\n",
      "  Message('control_change', channel=9, control=4, value=74, time=22),\n",
      "  Message('control_change', channel=9, control=4, value=71, time=22),\n",
      "  Message('control_change', channel=9, control=4, value=68, time=21),\n",
      "  Message('note_on', channel=9, note=38, velocity=0, time=4),\n",
      "  Message('note_on', channel=9, note=44, velocity=102, time=11),\n",
      "  Message('control_change', channel=9, control=4, value=64, time=7),\n",
      "  Message('note_on', channel=9, note=51, velocity=66, time=15),\n",
      "  Message('control_change', channel=9, control=4, value=61, time=7),\n",
      "  Message('control_change', channel=9, control=4, value=58, time=19),\n",
      "  Message('control_change', channel=9, control=4, value=31, time=22),\n",
      "  Message('control_change', channel=9, control=4, value=4, time=21),\n",
      "  Message('control_change', channel=9, control=4, value=0, time=3),\n",
      "  Message('note_on', channel=9, note=44, velocity=0, time=0),\n",
      "  Message('note_on', channel=9, note=51, velocity=0, time=21),\n",
      "  Message('control_change', channel=9, control=4, value=20, time=1),\n",
      "  Message('note_on', channel=9, note=51, velocity=62, time=12),\n",
      "  Message('note_on', channel=9, note=38, velocity=26, time=8),\n",
      "  Message('control_change', channel=9, control=4, value=40, time=2),\n",
      "  Message('control_change', channel=9, control=4, value=61, time=21),\n",
      "  Message('control_change', channel=9, control=4, value=76, time=16),\n",
      "  Message('control_change', channel=9, control=4, value=83, time=22),\n",
      "  Message('control_change', channel=9, control=4, value=90, time=22),\n",
      "  Message('note_on', channel=9, note=51, velocity=0, time=3),\n",
      "  Message('note_on', channel=9, note=38, velocity=0, time=7),\n",
      "  Message('note_on', channel=9, note=36, velocity=43, time=15),\n",
      "  Message('note_on', channel=9, note=51, velocity=73, time=4),\n",
      "  Message('control_change', channel=9, control=4, value=86, time=14),\n",
      "  Message('control_change', channel=9, control=4, value=81, time=44),\n",
      "  Message('note_on', channel=9, note=36, velocity=0, time=32),\n",
      "  Message('note_on', channel=9, note=51, velocity=0, time=3),\n",
      "  Message('control_change', channel=9, control=4, value=76, time=8),\n",
      "  Message('note_on', channel=9, note=38, velocity=24, time=26),\n",
      "  Message('control_change', channel=9, control=4, value=71, time=18),\n",
      "  Message('control_change', channel=9, control=4, value=68, time=25),\n",
      "  Message('control_change', channel=9, control=4, value=71, time=21),\n",
      "  Message('control_change', channel=9, control=4, value=74, time=22),\n",
      "  Message('control_change', channel=9, control=4, value=75, time=0),\n",
      "  Message('note_on', channel=9, note=38, velocity=0, time=7),\n",
      "  Message('note_on', channel=9, note=44, velocity=102, time=10),\n",
      "  Message('note_on', channel=9, note=51, velocity=67, time=4),\n",
      "  Message('control_change', channel=9, control=4, value=81, time=2),\n",
      "  Message('note_on', channel=9, note=38, velocity=26, time=9),\n",
      "  Message('control_change', channel=9, control=4, value=88, time=13),\n",
      "  Message('control_change', channel=9, control=4, value=90, time=6),\n",
      "  Message('control_change', channel=9, control=4, value=87, time=22),\n",
      "  Message('control_change', channel=9, control=4, value=83, time=21),\n",
      "  Message('note_on', channel=9, note=44, velocity=0, time=16),\n",
      "  Message('note_on', channel=9, note=51, velocity=0, time=5),\n",
      "  Message('control_change', channel=9, control=4, value=80, time=1),\n",
      "  Message('note_on', channel=9, note=38, velocity=0, time=9),\n",
      "  Message('control_change', channel=9, control=4, value=76, time=13),\n",
      "  Message('note_on', channel=9, note=36, velocity=42, time=2),\n",
      "  Message('note_on', channel=9, note=51, velocity=63, time=0),\n",
      "  Message('control_change', channel=9, control=4, value=72, time=20),\n",
      "  Message('control_change', channel=9, control=4, value=69, time=21),\n",
      "  Message('control_change', channel=9, control=4, value=65, time=22),\n",
      "  Message('control_change', channel=9, control=4, value=61, time=20),\n",
      "  Message('note_on', channel=9, note=36, velocity=0, time=10),\n",
      "  Message('note_on', channel=9, note=51, velocity=0, time=0),\n",
      "  Message('control_change', channel=9, control=4, value=58, time=9),\n",
      "  Message('control_change', channel=9, control=4, value=32, time=22),\n",
      "  Message('note_on', channel=9, note=51, velocity=86, time=4),\n",
      "  Message('note_on', channel=9, note=38, velocity=67, time=1),\n",
      "  Message('control_change', channel=9, control=4, value=5, time=17),\n",
      "  Message('control_change', channel=9, control=4, value=0, time=3),\n",
      "  Message('control_change', channel=9, control=4, value=12, time=21),\n",
      "  Message('control_change', channel=9, control=4, value=25, time=22),\n",
      "  Message('control_change', channel=9, control=4, value=37, time=22),\n",
      "  Message('note_on', channel=9, note=38, velocity=0, time=7),\n",
      "  Message('note_on', channel=9, note=51, velocity=0, time=0),\n",
      "  Message('control_change', channel=9, control=4, value=50, time=15),\n",
      "  Message('note_on', channel=9, note=38, velocity=19, time=10),\n",
      "  Message('control_change', channel=9, control=4, value=68, time=11),\n",
      "  Message('control_change', channel=9, control=4, value=87, time=22),\n",
      "  Message('control_change', channel=9, control=4, value=90, time=3),\n",
      "  Message('note_on', channel=9, note=38, velocity=0, time=58),\n",
      "  Message('note_on', channel=9, note=44, velocity=97, time=6),\n",
      "  Message('control_change', channel=9, control=4, value=88, time=23),\n",
      "  Message('note_on', channel=9, note=51, velocity=64, time=5),\n",
      "  Message('note_on', channel=9, note=38, velocity=26, time=4),\n",
      "  Message('note_on', channel=9, note=44, velocity=0, time=62),\n",
      "  Message('control_change', channel=9, control=4, value=86, time=16),\n",
      "  Message('note_on', channel=9, note=51, velocity=0, time=12),\n",
      "  Message('note_on', channel=9, note=38, velocity=0, time=4),\n",
      "  Message('note_on', channel=9, note=51, velocity=61, time=1),\n",
      "  Message('note_on', channel=9, note=36, velocity=55, time=2),\n",
      "  Message('control_change', channel=9, control=4, value=84, time=19),\n",
      "  Message('control_change', channel=9, control=4, value=89, time=43),\n",
      "  Message('control_change', channel=9, control=4, value=90, time=5),\n",
      "  Message('note_on', channel=9, note=51, velocity=0, time=25),\n",
      "  Message('note_on', channel=9, note=36, velocity=0, time=2),\n",
      "  Message('control_change', channel=9, control=4, value=86, time=16),\n",
      "  Message('note_on', channel=9, note=51, velocity=71, time=16),\n",
      "  Message('control_change', channel=9, control=4, value=81, time=28),\n",
      "  Message('control_change', channel=9, control=4, value=77, time=43),\n",
      "  Message('note_on', channel=9, note=51, velocity=0, time=23),\n",
      "  Message('note_on', channel=9, note=38, velocity=28, time=17),\n",
      "  Message('control_change', channel=9, control=4, value=72, time=4),\n",
      "  Message('control_change', channel=9, control=4, value=67, time=43),\n",
      "  Message('control_change', channel=9, control=4, value=63, time=44),\n",
      "  Message('note_on', channel=9, note=38, velocity=0, time=3),\n",
      "  Message('note_on', channel=9, note=44, velocity=87, time=16),\n",
      "  Message('note_on', channel=9, note=51, velocity=61, time=10),\n",
      "  Message('note_on', channel=9, note=36, velocity=25, time=1),\n",
      "  Message('control_change', channel=9, control=4, value=58, time=7),\n",
      "  Message('control_change', channel=9, control=4, value=32, time=22),\n",
      "  Message('control_change', channel=9, control=4, value=5, time=22),\n",
      "  Message('control_change', channel=9, control=4, value=0, time=4),\n",
      "  Message('control_change', channel=9, control=4, value=24, time=22),\n",
      "  Message('note_on', channel=9, note=44, velocity=0, time=6),\n",
      "  Message('note_on', channel=9, note=51, velocity=0, time=9),\n",
      "  Message('note_on', channel=9, note=36, velocity=0, time=2),\n",
      "  Message('control_change', channel=9, control=4, value=49, time=5),\n",
      "  Message('note_on', channel=9, note=36, velocity=39, time=9),\n",
      "  Message('control_change', channel=9, control=4, value=73, time=12),\n",
      "  Message('note_on', channel=9, note=51, velocity=56, time=2),\n",
      "  Message('control_change', channel=9, control=4, value=78, time=1),\n",
      "  Message('control_change', channel=9, control=4, value=84, time=22),\n",
      "  Message('control_change', channel=9, control=4, value=90, time=22),\n",
      "  Message('note_on', channel=9, note=36, velocity=0, time=35),\n",
      "  Message('control_change', channel=9, control=4, value=87, time=8),\n",
      "  Message('note_on', channel=9, note=51, velocity=0, time=6),\n",
      "  Message('note_on', channel=9, note=37, velocity=77, time=16),\n",
      "  Message('note_on', channel=9, note=51, velocity=94, time=5),\n",
      "  Message('control_change', channel=9, control=4, value=83, time=17),\n",
      "  Message('control_change', channel=9, control=4, value=80, time=43),\n",
      "  Message('note_on', channel=9, note=37, velocity=0, time=28),\n",
      "  Message('note_on', channel=9, note=51, velocity=0, time=6),\n",
      "  Message('control_change', channel=9, control=4, value=76, time=10),\n",
      "  Message('note_on', channel=9, note=38, velocity=14, time=28),\n",
      "  Message('control_change', channel=9, control=4, value=73, time=9),\n",
      "  Message('control_change', channel=9, control=4, value=77, time=22),\n",
      "  Message('control_change', channel=9, control=4, value=82, time=22),\n",
      "  Message('control_change', channel=9, control=4, value=87, time=22),\n",
      "  Message('control_change', channel=9, control=4, value=90, time=13),\n",
      "  Message('note_on', channel=9, note=38, velocity=0, time=6),\n",
      "  Message('note_on', channel=9, note=44, velocity=100, time=6),\n",
      "  Message('control_change', channel=9, control=4, value=87, time=9),\n",
      "  Message('note_on', channel=9, note=51, velocity=70, time=1),\n",
      "  Message('control_change', channel=9, control=4, value=84, time=21),\n",
      "  Message('control_change', channel=9, control=4, value=80, time=22),\n",
      "  Message('control_change', channel=9, control=4, value=77, time=22),\n",
      "  Message('note_on', channel=9, note=44, velocity=0, time=19),\n",
      "  Message('control_change', channel=9, control=4, value=74, time=2),\n",
      "  Message('note_on', channel=9, note=51, velocity=0, time=8),\n",
      "  Message('control_change', channel=9, control=4, value=70, time=14),\n",
      "  Message('note_on', channel=9, note=38, velocity=44, time=3),\n",
      "  Message('note_on', channel=9, note=51, velocity=66, time=6),\n",
      "  Message('control_change', channel=9, control=4, value=67, time=13),\n",
      "  Message('control_change', channel=9, control=4, value=64, time=22),\n",
      "  Message('control_change', channel=9, control=4, value=60, time=21),\n",
      "  Message('control_change', channel=9, control=4, value=58, time=12),\n",
      "  Message('note_on', channel=9, note=38, velocity=0, time=19),\n",
      "  Message('control_change', channel=9, control=4, value=34, time=3),\n",
      "  Message('note_on', channel=9, note=51, velocity=0, time=3),\n",
      "  Message('control_change', channel=9, control=4, value=10, time=19),\n",
      "  Message('note_on', channel=9, note=51, velocity=69, time=6),\n",
      "  Message('control_change', channel=9, control=4, value=0, time=2),\n",
      "  Message('note_on', channel=9, note=36, velocity=38, time=4),\n",
      "  Message('control_change', channel=9, control=4, value=18, time=18),\n",
      "  Message('control_change', channel=9, control=4, value=37, time=22),\n",
      "  Message('control_change', channel=9, control=4, value=56, time=22),\n",
      "  Message('control_change', channel=9, control=4, value=70, time=15),\n",
      "  Message('note_on', channel=9, note=51, velocity=0, time=11),\n",
      "  Message('note_on', channel=9, note=36, velocity=0, time=5),\n",
      "  Message('control_change', channel=9, control=4, value=79, time=6),\n",
      "  Message('note_on', channel=9, note=38, velocity=30, time=11),\n",
      "  Message('control_change', channel=9, control=4, value=89, time=11),\n",
      "  Message('control_change', channel=9, control=4, value=90, time=0),\n",
      "  Message('control_change', channel=9, control=4, value=87, time=43),\n",
      "  Message('note_on', channel=9, note=38, velocity=0, time=40),\n",
      "  Message('control_change', channel=9, control=4, value=83, time=4),\n",
      "  Message('note_on', channel=9, note=36, velocity=53, time=23),\n",
      "  Message('note_on', channel=9, note=51, velocity=71, time=4),\n",
      "  Message('note_on', channel=9, note=44, velocity=107, time=1),\n",
      "  Message('note_on', channel=9, note=38, velocity=32, time=5),\n",
      "  Message('control_change', channel=9, control=4, value=79, time=10),\n",
      "  Message('control_change', channel=9, control=4, value=75, time=44),\n",
      "  Message('control_change', channel=9, control=4, value=73, time=22),\n",
      "  Message('note_on', channel=9, note=36, velocity=0, time=7),\n",
      "  Message('note_on', channel=9, note=51, velocity=0, time=4),\n",
      "  Message('note_on', channel=9, note=44, velocity=0, time=2),\n",
      "  Message('note_on', channel=9, note=38, velocity=0, time=5),\n",
      "  Message('control_change', channel=9, control=4, value=76, time=3),\n",
      "  Message('control_change', channel=9, control=4, value=80, time=22),\n",
      "  Message('note_on', channel=9, note=51, velocity=63, time=2),\n",
      "  Message('control_change', channel=9, control=4, value=84, time=20),\n",
      "  Message('control_change', channel=9, control=4, value=88, time=22),\n",
      "  Message('control_change', channel=9, control=4, value=90, time=11),\n",
      "  Message('control_change', channel=9, control=4, value=87, time=22),\n",
      "  Message('note_on', channel=9, note=51, velocity=0, time=19),\n",
      "  Message('control_change', channel=9, control=4, value=84, time=3),\n",
      "  Message('note_on', channel=9, note=51, velocity=80, time=16),\n",
      "  Message('note_on', channel=9, note=38, velocity=74, time=5),\n",
      "  Message('control_change', channel=9, control=4, value=80, time=1),\n",
      "  Message('control_change', channel=9, control=4, value=77, time=21),\n",
      "  Message('control_change', channel=9, control=4, value=74, time=22),\n",
      "  Message('control_change', channel=9, control=4, value=70, time=22),\n",
      "  Message('control_change', channel=9, control=4, value=67, time=22),\n",
      "  Message('note_on', channel=9, note=51, velocity=0, time=1),\n",
      "  Message('note_on', channel=9, note=38, velocity=0, time=5),\n",
      "  Message('control_change', channel=9, control=4, value=64, time=15),\n",
      "  Message('note_on', channel=9, note=36, velocity=53, time=16),\n",
      "  Message('control_change', channel=9, control=4, value=60, time=6),\n",
      "  Message('control_change', channel=9, control=4, value=57, time=19),\n",
      "  Message('control_change', channel=9, control=4, value=30, time=22),\n",
      "  Message('control_change', channel=9, control=4, value=2, time=21),\n",
      "  Message('control_change', channel=9, control=4, value=0, time=2),\n",
      "  Message('control_change', channel=9, control=4, value=19, time=22),\n",
      "  Message('note_on', channel=9, note=36, velocity=0, time=1),\n",
      "  Message('note_on', channel=9, note=44, velocity=102, time=19),\n",
      "  Message('control_change', channel=9, control=4, value=38, time=1),\n",
      "  Message('note_on', channel=9, note=51, velocity=60, time=12),\n",
      "  Message('control_change', channel=9, control=4, value=57, time=10),\n",
      "  Message('control_change', channel=9, control=4, value=76, time=20),\n",
      "  Message('control_change', channel=9, control=4, value=83, time=22),\n",
      "  Message('control_change', channel=9, control=4, value=90, time=22),\n",
      "  Message('note_on', channel=9, note=44, velocity=0, time=7),\n",
      "  Message('note_on', channel=9, note=51, velocity=0, time=13),\n",
      "  Message('control_change', channel=9, control=4, value=87, time=23),\n",
      "  Message('note_on', channel=9, note=51, velocity=47, time=17),\n",
      "  Message('note_on', channel=9, note=36, velocity=53, time=4),\n",
      "  Message('control_change', channel=9, control=4, value=84, time=23),\n",
      "  Message('control_change', channel=9, control=4, value=81, time=43),\n",
      "  Message('note_on', channel=9, note=51, velocity=0, time=23),\n",
      "  Message('note_on', channel=9, note=36, velocity=0, time=5),\n",
      "  Message('control_change', channel=9, control=4, value=77, time=14),\n",
      "  Message('note_on', channel=9, note=51, velocity=70, time=12),\n",
      "  Message('control_change', channel=9, control=4, value=74, time=32),\n",
      "  Message('control_change', channel=9, control=4, value=72, time=16),\n",
      "  Message('control_change', channel=9, control=4, value=79, time=22),\n",
      "  Message('control_change', channel=9, control=4, value=87, time=21),\n",
      "  Message('note_on', channel=9, note=51, velocity=0, time=3),\n",
      "  Message('control_change', channel=9, control=4, value=90, time=5),\n",
      "  Message('note_on', channel=9, note=38, velocity=26, time=6),\n",
      "  Message('control_change', channel=9, control=4, value=87, time=15),\n",
      "  Message('control_change', channel=9, control=4, value=84, time=22),\n",
      "  Message('control_change', channel=9, control=4, value=81, time=22),\n",
      "  Message('control_change', channel=9, control=4, value=77, time=22),\n",
      "  Message('note_on', channel=9, note=38, velocity=0, time=13),\n",
      "  Message('control_change', channel=9, control=4, value=74, time=8),\n",
      "  Message('note_on', channel=9, note=36, velocity=40, time=7),\n",
      "  Message('note_on', channel=9, note=44, velocity=110, time=6),\n",
      "  Message('control_change', channel=9, control=4, value=71, time=9),\n",
      "  Message('note_on', channel=9, note=38, velocity=32, time=4),\n",
      "  Message('note_on', channel=9, note=51, velocity=75, time=4),\n",
      "  Message('control_change', channel=9, control=4, value=67, time=14),\n",
      "  Message('control_change', channel=9, control=4, value=64, time=22),\n",
      "  Message('control_change', channel=9, control=4, value=61, time=21),\n",
      "  Message('control_change', channel=9, control=4, value=59, time=11),\n",
      "  Message('note_on', channel=9, note=36, velocity=0, time=3),\n",
      "  Message('note_on', channel=9, note=44, velocity=0, time=5),\n",
      "  Message('control_change', channel=9, control=4, value=36, time=13),\n",
      "  Message('note_on', channel=9, note=38, velocity=0, time=0),\n",
      "  Message('note_on', channel=9, note=51, velocity=0, time=5),\n",
      "  Message('control_change', channel=9, control=4, value=13, time=17),\n",
      "  Message('note_on', channel=9, note=36, velocity=52, time=2),\n",
      "  Message('control_change', channel=9, control=4, value=0, time=10),\n",
      "  Message('note_on', channel=9, note=51, velocity=62, time=2),\n",
      "  Message('control_change', channel=9, control=4, value=18, time=19),\n",
      "  Message('control_change', channel=9, control=4, value=36, time=22),\n",
      "  Message('control_change', channel=9, control=4, value=54, time=22),\n",
      "  Message('note_on', channel=9, note=36, velocity=0, time=18),\n",
      "  Message('control_change', channel=9, control=4, value=72, time=4),\n",
      "  Message('control_change', channel=9, control=4, value=78, time=5),\n",
      "  Message('note_on', channel=9, note=51, velocity=0, time=4),\n",
      "  Message('note_on', channel=9, note=38, velocity=76, time=17),\n",
      "  Message('control_change', channel=9, control=4, value=84, time=1),\n",
      "  Message('note_on', channel=9, note=51, velocity=90, time=14),\n",
      "  Message('control_change', channel=9, control=4, value=90, time=8),\n",
      "  Message('control_change', channel=9, control=4, value=85, time=43),\n",
      "  Message('note_on', channel=9, note=38, velocity=0, time=27),\n",
      "  Message('note_on', channel=9, note=51, velocity=0, time=16),\n",
      "  Message('control_change', channel=9, control=4, value=79, time=1),\n",
      "  Message('note_on', channel=9, note=38, velocity=34, time=6),\n",
      "  Message('control_change', channel=9, control=4, value=74, time=37),\n",
      "  Message('control_change', channel=9, control=4, value=68, time=44),\n",
      "  Message('note_on', channel=9, note=38, velocity=0, time=12),\n",
      "  Message('control_change', channel=9, control=4, value=64, time=20),\n",
      "  Message('note_on', channel=9, note=44, velocity=110, time=3),\n",
      "  Message('note_on', channel=9, note=51, velocity=91, time=13),\n",
      "  Message('control_change', channel=9, control=4, value=69, time=6),\n",
      "  Message('control_change', channel=9, control=4, value=74, time=21),\n",
      "  Message('control_change', channel=9, control=4, value=77, time=11),\n",
      "  Message('control_change', channel=9, control=4, value=83, time=21),\n",
      "  Message('control_change', channel=9, control=4, value=89, time=22),\n",
      "  Message('note_on', channel=9, note=44, velocity=0, time=0),\n",
      "  Message('control_change', channel=9, control=4, value=90, time=3),\n",
      "  Message('note_on', channel=9, note=51, velocity=0, time=9),\n",
      "  Message('control_change', channel=9, control=4, value=85, time=13),\n",
      "  Message('note_on', channel=9, note=51, velocity=71, time=7),\n",
      "  Message('control_change', channel=9, control=4, value=80, time=14),\n",
      "  Message('control_change', channel=9, control=4, value=75, time=22),\n",
      "  Message('control_change', channel=9, control=4, value=70, time=22),\n",
      "  Message('control_change', channel=9, control=4, value=65, time=22),\n",
      "  Message('note_on', channel=9, note=51, velocity=0, time=14),\n",
      "  Message('control_change', channel=9, control=4, value=59, time=7),\n",
      "  Message('note_on', channel=9, note=36, velocity=44, time=14),\n",
      "  Message('control_change', channel=9, control=4, value=54, time=8),\n",
      "  Message('note_on', channel=9, note=51, velocity=81, time=2),\n",
      "  Message('control_change', channel=9, control=4, value=49, time=20),\n",
      "  Message('control_change', channel=9, control=4, value=44, time=22),\n",
      "  Message('control_change', channel=9, control=4, value=42, time=4),\n",
      "  Message('control_change', channel=9, control=4, value=22, time=22),\n",
      "  Message('note_on', channel=9, note=36, velocity=0, time=15),\n",
      "  Message('control_change', channel=9, control=4, value=0, time=7),\n",
      "  Message('control_change', channel=9, control=4, value=1, time=0),\n",
      "  Message('note_on', channel=9, note=51, velocity=0, time=3),\n",
      "  Message('control_change', channel=9, control=4, value=15, time=20),\n",
      "  Message('note_on', channel=9, note=38, velocity=29, time=11),\n",
      "  Message('control_change', channel=9, control=4, value=31, time=10),\n",
      "  Message('control_change', channel=9, control=4, value=47, time=22),\n",
      "  Message('control_change', channel=9, control=4, value=63, time=22),\n",
      "  Message('control_change', channel=9, control=4, value=71, time=10),\n",
      "  Message('control_change', channel=9, control=4, value=80, time=22),\n",
      "  Message('note_on', channel=9, note=38, velocity=0, time=8),\n",
      "  Message('note_on', channel=9, note=44, velocity=100, time=7),\n",
      "  Message('control_change', channel=9, control=4, value=89, time=7),\n",
      "  Message('control_change', channel=9, control=4, value=90, time=0),\n",
      "  Message('note_on', channel=9, note=43, velocity=108, time=2),\n",
      "  Message('control_change', channel=9, control=4, value=88, time=43),\n",
      "  Message('control_change', channel=9, control=4, value=86, time=43),\n",
      "  Message('note_on', channel=9, note=44, velocity=0, time=0),\n",
      "  Message('note_on', channel=9, note=43, velocity=0, time=8),\n",
      "  Message('note_on', channel=9, note=38, velocity=24, time=19),\n",
      "  Message('control_change', channel=9, control=4, value=83, time=17),\n",
      "  Message('control_change', channel=9, control=4, value=81, time=36),\n",
      "  Message('control_change', channel=9, control=4, value=70, time=22),\n",
      "  Message('note_on', channel=9, note=38, velocity=0, time=18),\n",
      "  Message('control_change', channel=9, control=4, value=58, time=3),\n",
      "  Message('note_on', channel=9, note=38, velocity=29, time=18),\n",
      "  Message('control_change', channel=9, control=4, value=61, time=4),\n",
      "  Message('control_change', channel=9, control=4, value=65, time=22),\n",
      "  Message('control_change', channel=9, control=4, value=66, time=1),\n",
      "  Message('control_change', channel=9, control=4, value=75, time=22),\n",
      "  Message('control_change', channel=9, control=4, value=84, time=22),\n",
      "  Message('control_change', channel=9, control=4, value=90, time=13),\n",
      "  Message('note_on', channel=9, note=38, velocity=0, time=10),\n",
      "  Message('control_change', channel=9, control=4, value=86, time=33),\n",
      "  Message('note_on', channel=9, note=51, velocity=99, time=3),\n",
      "  Message('note_on', channel=9, note=36, velocity=47, time=6),\n",
      "  Message('control_change', channel=9, control=4, value=82, time=35),\n",
      "  Message('control_change', channel=9, control=4, value=78, time=43),\n",
      "  Message('note_on', channel=9, note=51, velocity=0, time=10),\n",
      "  Message('note_on', channel=9, note=36, velocity=0, time=5),\n",
      "  Message('note_on', channel=9, note=44, velocity=100, time=1),\n",
      "  Message('note_on', channel=9, note=38, velocity=59, time=14),\n",
      "  Message('control_change', channel=9, control=4, value=74, time=11),\n",
      "  Message('control_change', channel=9, control=4, value=44, time=22),\n",
      "  Message('control_change', channel=9, control=4, value=14, time=21),\n",
      "  Message('control_change', channel=9, control=4, value=0, time=9),\n",
      "  Message('note_on', channel=9, note=44, velocity=0, time=18),\n",
      "  Message('control_change', channel=9, control=4, value=14, time=4),\n",
      "  Message('note_on', channel=9, note=38, velocity=0, time=8),\n",
      "  Message('control_change', channel=9, control=4, value=28, time=14),\n",
      "  Message('note_on', channel=9, note=36, velocity=45, time=19),\n",
      "  Message('control_change', channel=9, control=4, value=43, time=2),\n",
      "  Message('note_on', channel=9, note=51, velocity=75, time=7),\n",
      "  Message('control_change', channel=9, control=4, value=57, time=15),\n",
      "  Message('control_change', channel=9, control=4, value=71, time=22),\n",
      "  Message('control_change', channel=9, control=4, value=78, time=10),\n",
      "  Message('control_change', channel=9, control=4, value=84, time=22),\n",
      "  Message('note_on', channel=9, note=44, velocity=20, time=8),\n",
      "  Message('note_on', channel=9, note=36, velocity=0, time=8),\n",
      "  Message('control_change', channel=9, control=4, value=90, time=6),\n",
      "  Message('note_on', channel=9, note=51, velocity=0, time=3),\n",
      "  Message('note_on', channel=9, note=51, velocity=67, time=25),\n",
      "  Message('control_change', channel=9, control=4, value=86, time=15),\n",
      "  Message('note_on', channel=9, note=44, velocity=0, time=37),\n",
      "  Message('control_change', channel=9, control=4, value=82, time=7),\n",
      "  Message('note_on', channel=9, note=51, velocity=0, time=35),\n",
      "  Message('control_change', channel=9, control=4, value=77, time=8),\n",
      "  Message('note_on', channel=9, note=38, velocity=31, time=14),\n",
      "  Message('control_change', channel=9, control=4, value=72, time=30),\n",
      "  Message('control_change', channel=9, control=4, value=73, time=0),\n",
      "  Message('control_change', channel=9, control=4, value=61, time=21),\n",
      "  Message('control_change', channel=9, control=4, value=49, time=22),\n",
      "  Message('control_change', channel=9, control=4, value=40, time=17),\n",
      "  Message('note_on', channel=9, note=38, velocity=0, time=3),\n",
      "  Message('control_change', channel=9, control=4, value=52, time=19),\n",
      "  Message('note_on', channel=9, note=44, velocity=95, time=3),\n",
      "  Message('note_on', channel=9, note=36, velocity=53, time=2),\n",
      "  Message('note_on', channel=9, note=51, velocity=70, time=14),\n",
      "  Message('control_change', channel=9, control=4, value=65, time=3),\n",
      "  Message('control_change', channel=9, control=4, value=68, time=4),\n",
      "  Message('control_change', channel=9, control=4, value=77, time=22),\n",
      "  Message('control_change', channel=9, control=4, value=86, time=22),\n",
      "  Message('control_change', channel=9, control=4, value=90, time=8),\n",
      "  Message('note_on', channel=9, note=44, velocity=0, time=19),\n",
      "  Message('note_on', channel=9, note=36, velocity=0, time=2),\n",
      "  Message('note_on', channel=9, note=38, velocity=80, time=14),\n",
      "  Message('note_on', channel=9, note=51, velocity=0, time=0),\n",
      "  Message('control_change', channel=9, control=4, value=87, time=9),\n",
      "  Message('control_change', channel=9, control=4, value=83, time=43),\n",
      "  Message('note_on', channel=9, note=38, velocity=0, time=42),\n",
      "  Message('control_change', channel=9, control=4, value=79, time=2),\n",
      "  Message('control_change', channel=9, control=4, value=76, time=43),\n",
      "  Message('note_on', channel=9, note=43, velocity=127, time=5),\n",
      "  Message('control_change', channel=9, control=4, value=74, time=10),\n",
      "  Message('control_change', channel=9, control=4, value=44, time=22),\n",
      "  Message('control_change', channel=9, control=4, value=13, time=21),\n",
      "  Message('control_change', channel=9, control=4, value=0, time=9),\n",
      "  Message('control_change', channel=9, control=4, value=12, time=22),\n",
      "  Message('note_on', channel=9, note=43, velocity=0, time=10),\n",
      "  Message('note_on', channel=9, note=38, velocity=33, time=11),\n",
      "  Message('control_change', channel=9, control=4, value=24, time=1),\n",
      "  Message('control_change', channel=9, control=4, value=37, time=21),\n",
      "  Message('control_change', channel=9, control=4, value=49, time=22),\n",
      "  Message('control_change', channel=9, control=4, value=62, time=22),\n",
      "  Message('control_change', channel=9, control=4, value=71, time=14),\n",
      "  Message('note_on', channel=9, note=44, velocity=100, time=13),\n",
      "  Message('note_on', channel=9, note=38, velocity=0, time=1),\n",
      "  Message('control_change', channel=9, control=4, value=80, time=8),\n",
      "  Message('control_change', channel=9, control=4, value=89, time=22),\n",
      "  Message('control_change', channel=9, control=4, value=90, time=0),\n",
      "  Message('note_on', channel=9, note=51, velocity=75, time=0),\n",
      "  Message('control_change', channel=9, control=4, value=88, time=45),\n",
      "  Message('note_on', channel=9, note=44, velocity=0, time=18),\n",
      "  Message('control_change', channel=9, control=4, value=85, time=25),\n",
      "  Message('note_on', channel=9, note=51, velocity=0, time=6),\n",
      "  Message('note_on', channel=9, note=36, velocity=37, time=13),\n",
      "  Message('control_change', channel=9, control=4, value=82, time=25),\n",
      "  Message('control_change', channel=9, control=4, value=80, time=29),\n",
      "  Message('control_change', channel=9, control=4, value=70, time=22),\n",
      "  Message('note_on', channel=9, note=36, velocity=0, time=18),\n",
      "  Message('control_change', channel=9, control=4, value=59, time=3),\n",
      "  Message('control_change', channel=9, control=4, value=49, time=21),\n",
      "  Message('note_on', channel=9, note=36, velocity=53, time=6),\n",
      "  Message('note_on', channel=9, note=59, velocity=97, time=12),\n",
      "  Message('control_change', channel=9, control=4, value=56, time=3),\n",
      "  Message('control_change', channel=9, control=4, value=63, time=22),\n",
      "  Message('control_change', channel=9, control=4, value=65, time=6),\n",
      "  Message('control_change', channel=9, control=4, value=74, time=22),\n",
      "  Message('control_change', channel=9, control=4, value=84, time=21),\n",
      "  Message('note_on', channel=9, note=36, velocity=0, time=8),\n",
      "  Message('control_change', channel=9, control=4, value=90, time=4),\n",
      "  Message('note_on', channel=9, note=38, velocity=13, time=3),\n",
      "  Message('note_on', channel=9, note=59, velocity=0, time=4),\n",
      "  Message('control_change', channel=9, control=4, value=87, time=15),\n",
      "  Message('control_change', channel=9, control=4, value=83, time=22),\n",
      "  Message('control_change', channel=9, control=4, value=79, time=21),\n",
      "  Message('control_change', channel=9, control=4, value=75, time=22),\n",
      "  Message('note_on', channel=9, note=38, velocity=0, time=10),\n",
      "  Message('control_change', channel=9, control=4, value=71, time=12),\n",
      "  Message('note_on', channel=9, note=38, velocity=17, time=0),\n",
      "  Message('note_on', channel=9, note=44, velocity=102, time=10),\n",
      "  Message('control_change', channel=9, control=4, value=67, time=12),\n",
      "  Message('control_change', channel=9, control=4, value=63, time=21),\n",
      "  Message('note_on', channel=9, note=51, velocity=48, time=8),\n",
      "  Message('control_change', channel=9, control=4, value=59, time=14),\n",
      "  Message('control_change', channel=9, control=4, value=58, time=4),\n",
      "  Message('control_change', channel=9, control=4, value=30, time=22),\n",
      "  Message('note_on', channel=9, note=38, velocity=0, time=3),\n",
      "  Message('note_on', channel=9, note=44, velocity=0, time=10),\n",
      "  Message('control_change', channel=9, control=4, value=2, time=9),\n",
      "  Message('control_change', channel=9, control=4, value=0, time=1),\n",
      "  Message('control_change', channel=9, control=4, value=13, time=22),\n",
      "  Message('note_on', channel=9, note=36, velocity=44, time=5),\n",
      "  Message('note_on', channel=9, note=51, velocity=0, time=4),\n",
      "  Message('control_change', channel=9, control=4, value=27, time=13),\n",
      "  Message('note_on', channel=9, note=51, velocity=54, time=13),\n",
      "  Message('control_change', channel=9, control=4, value=40, time=9),\n",
      "  Message('control_change', channel=9, control=4, value=54, time=21),\n",
      "  Message('control_change', channel=9, control=4, value=67, time=22),\n",
      "  Message('control_change', channel=9, control=4, value=69, time=3),\n",
      "  Message('note_on', channel=9, note=36, velocity=0, time=9),\n",
      "  Message('control_change', channel=9, control=4, value=79, time=13),\n",
      "  Message('note_on', channel=9, note=37, velocity=83, time=16),\n",
      "  Message('note_on', channel=9, note=51, velocity=0, time=0),\n",
      "  Message('control_change', channel=9, control=4, value=89, time=6),\n",
      "  Message('control_change', channel=9, control=4, value=90, time=0),\n",
      "  Message('note_on', channel=9, note=51, velocity=80, time=7),\n",
      "  Message('control_change', channel=9, control=4, value=88, time=36),\n",
      "  Message('control_change', channel=9, control=4, value=85, time=44),\n",
      "  Message('note_on', channel=9, note=37, velocity=0, time=0),\n",
      "  Message('note_on', channel=9, note=51, velocity=0, time=13),\n",
      "  Message('note_on', channel=9, note=38, velocity=32, time=10),\n",
      "  Message('control_change', channel=9, control=4, value=82, time=20),\n",
      "  Message('control_change', channel=9, control=4, value=80, time=32),\n",
      "  Message('control_change', channel=9, control=4, value=71, time=22),\n",
      "  Message('note_on', channel=9, note=38, velocity=0, time=19),\n",
      "  Message('control_change', channel=9, control=4, value=62, time=2),\n",
      "  Message('note_on', channel=9, note=44, velocity=92, time=21),\n",
      "  Message('control_change', channel=9, control=4, value=52, time=1),\n",
      "  Message('note_on', channel=9, note=51, velocity=79, time=0),\n",
      "  Message('control_change', channel=9, control=4, value=59, time=22),\n",
      "  Message('control_change', channel=9, control=4, value=67, time=22),\n",
      "  Message('control_change', channel=9, control=4, value=68, time=1),\n",
      "  Message('control_change', channel=9, control=4, value=77, time=22),\n",
      "  Message('control_change', channel=9, control=4, value=86, time=22),\n",
      "  Message('note_on', channel=9, note=44, velocity=0, time=4),\n",
      "  Message('note_on', channel=9, note=51, velocity=0, time=0),\n",
      "  Message('control_change', channel=9, control=4, value=90, time=3),\n",
      "  Message('note_on', channel=9, note=38, velocity=40, time=1),\n",
      "  Message('note_on', channel=9, note=51, velocity=64, time=12),\n",
      "  Message('control_change', channel=9, control=4, value=87, time=9),\n",
      "  Message('control_change', channel=9, control=4, value=84, time=21),\n",
      "  Message('control_change', channel=9, control=4, value=80, time=22),\n",
      "  Message('control_change', channel=9, control=4, value=77, time=22),\n",
      "  Message('note_on', channel=9, note=38, velocity=0, time=8),\n",
      "  Message('note_on', channel=9, note=51, velocity=0, time=12),\n",
      "  Message('control_change', channel=9, control=4, value=73, time=2),\n",
      "  Message('control_change', channel=9, control=4, value=70, time=21),\n",
      "  Message('note_on', channel=9, note=51, velocity=59, time=3),\n",
      "  Message('note_on', channel=9, note=36, velocity=43, time=8),\n",
      "  Message('control_change', channel=9, control=4, value=66, time=11),\n",
      "  Message('control_change', channel=9, control=4, value=63, time=22),\n",
      "  Message('control_change', channel=9, control=4, value=60, time=22),\n",
      "  Message('control_change', channel=9, control=4, value=58, time=7),\n",
      "  Message('control_change', channel=9, control=4, value=30, time=22),\n",
      "  Message('note_on', channel=9, note=51, velocity=0, time=1),\n",
      "  Message('note_on', channel=9, note=36, velocity=0, time=9),\n",
      "  Message('control_change', channel=9, control=4, value=0, time=11),\n",
      "  Message('control_change', channel=9, control=4, value=1, time=0),\n",
      "  Message('note_on', channel=9, note=38, velocity=32, time=4),\n",
      "  Message('control_change', channel=9, control=4, value=14, time=18),\n",
      "  Message('control_change', channel=9, control=4, value=29, time=22),\n",
      "  Message('control_change', channel=9, control=4, value=44, time=22),\n",
      "  Message('control_change', channel=9, control=4, value=59, time=21),\n",
      "  Message('control_change', channel=9, control=4, value=66, time=11),\n",
      "  Message('note_on', channel=9, note=38, velocity=0, time=0),\n",
      "  Message('control_change', channel=9, control=4, value=77, time=21),\n",
      "  Message('note_on', channel=9, note=51, velocity=69, time=4),\n",
      "  Message('note_on', channel=9, note=38, velocity=30, time=6),\n",
      "  Message('note_on', channel=9, note=44, velocity=105, time=3),\n",
      "  Message('control_change', channel=9, control=4, value=89, time=9),\n",
      "  Message('control_change', channel=9, control=4, value=90, time=0),\n",
      "  Message('control_change', channel=9, control=4, value=87, time=22),\n",
      "  Message('control_change', channel=9, control=4, value=84, time=22),\n",
      "  Message('control_change', channel=9, control=4, value=81, time=21),\n",
      "  Message('note_on', channel=9, note=51, velocity=0, time=11),\n",
      "  Message('note_on', channel=9, note=38, velocity=0, time=6),\n",
      "  Message('note_on', channel=9, note=44, velocity=0, time=2),\n",
      "  Message('control_change', channel=9, control=4, value=78, time=3),\n",
      "  Message('control_change', channel=9, control=4, value=75, time=22),\n",
      "  Message('note_on', channel=9, note=51, velocity=57, time=2),\n",
      "  Message('note_on', channel=9, note=36, velocity=48, time=14),\n",
      "  Message('control_change', channel=9, control=4, value=72, time=6),\n",
      "  Message('control_change', channel=9, control=4, value=69, time=21),\n",
      "  Message('control_change', channel=9, control=4, value=66, time=22),\n",
      "  Message('control_change', channel=9, control=4, value=62, time=22),\n",
      "  Message('control_change', channel=9, control=4, value=61, time=7),\n",
      "  Message('note_on', channel=9, note=51, velocity=0, time=1),\n",
      "  Message('note_on', channel=9, note=36, velocity=0, time=14),\n",
      "  Message('note_on', channel=9, note=37, velocity=79, time=23),\n",
      "  Message('note_on', channel=9, note=59, velocity=82, time=0),\n",
      "  Message('control_change', channel=9, control=4, value=65, time=6),\n",
      "  Message('control_change', channel=9, control=4, value=68, time=18),\n",
      "  Message('control_change', channel=9, control=4, value=76, time=22),\n",
      "  Message('control_change', channel=9, control=4, value=85, time=22),\n",
      "  Message('control_change', channel=9, control=4, value=90, time=13),\n",
      "  Message('note_on', channel=9, note=37, velocity=0, time=13),\n",
      "  Message('note_on', channel=9, note=59, velocity=0, time=0),\n",
      "  Message('control_change', channel=9, control=4, value=87, time=9),\n",
      "  Message('note_on', channel=9, note=38, velocity=21, time=13),\n",
      "  Message('control_change', channel=9, control=4, value=83, time=8),\n",
      "  Message('control_change', channel=9, control=4, value=79, time=22),\n",
      "  Message('control_change', channel=9, control=4, value=75, time=22),\n",
      "  Message('control_change', channel=9, control=4, value=71, time=22),\n",
      "  Message('note_on', channel=9, note=38, velocity=0, time=18),\n",
      "  Message('control_change', channel=9, control=4, value=67, time=3),\n",
      "  Message('control_change', channel=9, control=4, value=63, time=22),\n",
      "  Message('note_on', channel=9, note=44, velocity=95, time=13),\n",
      "  Message('note_on', channel=9, note=51, velocity=59, time=8),\n",
      "  Message('control_change', channel=9, control=4, value=59, time=1),\n",
      "  Message('control_change', channel=9, control=4, value=58, time=1),\n",
      "  Message('control_change', channel=9, control=4, value=33, time=22),\n",
      "  Message('control_change', channel=9, control=4, value=7, time=22),\n",
      "  Message('control_change', channel=9, control=4, value=0, time=6),\n",
      "  Message('control_change', channel=9, control=4, value=16, time=21),\n",
      "  Message('note_on', channel=9, note=38, velocity=41, time=11),\n",
      "  Message('note_on', channel=9, note=44, velocity=0, time=2),\n",
      "  Message('note_on', channel=9, note=51, velocity=0, time=7),\n",
      "  Message('control_change', channel=9, control=4, value=33, time=2),\n",
      "  Message('note_on', channel=9, note=51, velocity=54, time=19),\n",
      "  Message('control_change', channel=9, control=4, value=49, time=3),\n",
      "  Message('control_change', channel=9, control=4, value=66, time=22),\n",
      "  Message('control_change', channel=9, control=4, value=69, time=3),\n",
      "  Message('control_change', channel=9, control=4, value=79, time=21),\n",
      "  Message('note_on', channel=9, note=38, velocity=0, time=15),\n",
      "  Message('control_change', channel=9, control=4, value=89, time=7),\n",
      "  Message('control_change', channel=9, control=4, value=90, time=0),\n",
      "  Message('control_change', channel=9, control=4, value=87, time=23),\n",
      "  Message('note_on', channel=9, note=51, velocity=0, time=0),\n",
      "  Message('control_change', channel=9, control=4, value=83, time=22),\n",
      "  Message('note_on', channel=9, note=36, velocity=45, time=1),\n",
      "  Message('note_on', channel=9, note=51, velocity=64, time=9),\n",
      "  Message('control_change', channel=9, control=4, value=79, time=12),\n",
      "  Message('control_change', channel=9, control=4, value=75, time=22),\n",
      "  Message('control_change', channel=9, control=4, value=71, time=21),\n",
      "  Message('control_change', channel=9, control=4, value=67, time=22),\n",
      "  Message('note_on', channel=9, note=36, velocity=0, time=7),\n",
      "  Message('note_on', channel=9, note=51, velocity=0, time=10),\n",
      "  Message('control_change', channel=9, control=4, value=63, time=5),\n",
      "  Message('note_on', channel=9, note=38, velocity=28, time=19),\n",
      "  Message('control_change', channel=9, control=4, value=60, time=3),\n",
      "  Message('control_change', channel=9, control=4, value=55, time=21),\n",
      "  Message('control_change', channel=9, control=4, value=56, time=0),\n",
      "  Message('control_change', channel=9, control=4, value=60, time=22),\n",
      "  Message('control_change', channel=9, control=4, value=65, time=22),\n",
      "  Message('control_change', channel=9, control=4, value=67, time=8),\n",
      "  Message('note_on', channel=9, note=38, velocity=0, time=19),\n",
      "  Message('control_change', channel=9, control=4, value=75, time=3),\n",
      "  Message('note_on', channel=9, note=44, velocity=92, time=14),\n",
      "  Message('note_on', channel=9, note=51, velocity=67, time=7),\n",
      "  Message('control_change', channel=9, control=4, value=84, time=1),\n",
      "  Message('note_on', channel=9, note=38, velocity=33, time=12),\n",
      "  Message('control_change', channel=9, control=4, value=90, time=1),\n",
      "  Message('control_change', channel=9, control=4, value=87, time=22),\n",
      "  Message('control_change', channel=9, control=4, value=84, time=22),\n",
      "  Message('control_change', channel=9, control=4, value=81, time=21),\n",
      "  Message('note_on', channel=9, note=44, velocity=0, time=8),\n",
      "  Message('note_on', channel=9, note=51, velocity=0, time=7),\n",
      "  Message('control_change', channel=9, control=4, value=78, time=7),\n",
      "  Message('note_on', channel=9, note=38, velocity=0, time=6),\n",
      "  Message('control_change', channel=9, control=4, value=75, time=16),\n",
      "  Message('note_on', channel=9, note=51, velocity=49, time=4),\n",
      "  Message('note_on', channel=9, note=36, velocity=48, time=5),\n",
      "  Message('control_change', channel=9, control=4, value=71, time=13),\n",
      "  Message('control_change', channel=9, control=4, value=68, time=21),\n",
      "  Message('control_change', channel=9, control=4, value=65, time=22),\n",
      "  Message('control_change', channel=9, control=4, value=62, time=22),\n",
      "  Message('note_on', channel=9, note=51, velocity=0, time=10),\n",
      "  Message('note_on', channel=9, note=36, velocity=0, time=6),\n",
      "  Message('control_change', channel=9, control=4, value=59, time=6),\n",
      "  Message('control_change', channel=9, control=4, value=57, time=7),\n",
      "  Message('note_on', channel=9, note=51, velocity=112, time=16),\n",
      "  Message('note_on', channel=9, note=38, velocity=82, time=3),\n",
      "  Message('control_change', channel=9, control=4, value=29, time=3),\n",
      "  Message('control_change', channel=9, control=4, value=0, time=21),\n",
      "  Message('control_change', channel=9, control=4, value=19, time=22),\n",
      "  Message('control_change', channel=9, control=4, value=38, time=22),\n",
      "  Message('control_change', channel=9, control=4, value=58, time=22),\n",
      "  Message('note_on', channel=9, note=51, velocity=0, time=0),\n",
      "  Message('note_on', channel=9, note=38, velocity=0, time=4),\n",
      "  Message('control_change', channel=9, control=4, value=70, time=9),\n",
      "  Message('note_on', channel=9, note=38, velocity=32, time=15),\n",
      "  Message('control_change', channel=9, control=4, value=80, time=6),\n",
      "  Message('control_change', channel=9, control=4, value=90, time=22),\n",
      "  Message('control_change', channel=9, control=4, value=88, time=44),\n",
      "  Message('note_on', channel=9, note=38, velocity=0, time=21),\n",
      "  Message('control_change', channel=9, control=4, value=85, time=22),\n",
      "  Message('note_on', channel=9, note=44, velocity=105, time=1),\n",
      "  Message('note_on', channel=9, note=51, velocity=68, time=3),\n",
      "  Message('control_change', channel=9, control=4, value=82, time=40),\n",
      "  Message('note_on', channel=9, note=38, velocity=14, time=37),\n",
      "  Message('control_change', channel=9, control=4, value=80, time=6),\n",
      "  Message('note_on', channel=9, note=44, velocity=0, time=9),\n",
      "  Message('note_on', channel=9, note=51, velocity=0, time=2),\n",
      "  Message('note_on', channel=9, note=51, velocity=61, time=16),\n",
      "  Message('control_change', channel=9, control=4, value=77, time=17),\n",
      "  Message('control_change', channel=9, control=4, value=74, time=43),\n",
      "  Message('note_on', channel=9, note=38, velocity=0, time=1),\n",
      "  Message('note_on', channel=9, note=51, velocity=0, time=32),\n",
      "  Message('control_change', channel=9, control=4, value=72, time=11),\n",
      "  Message('note_on', channel=9, note=36, velocity=40, time=14),\n",
      "  Message('note_on', channel=9, note=51, velocity=79, time=5),\n",
      "  Message('control_change', channel=9, control=4, value=69, time=24),\n",
      "  Message('control_change', channel=9, control=4, value=66, time=44),\n",
      "  Message('note_on', channel=9, note=36, velocity=0, time=20),\n",
      "  Message('note_on', channel=9, note=51, velocity=0, time=7),\n",
      "  Message('control_change', channel=9, control=4, value=64, time=16),\n",
      "  Message('note_on', channel=9, note=37, velocity=74, time=25),\n",
      "  Message('control_change', channel=9, control=4, value=61, time=19),\n",
      "  Message('control_change', channel=9, control=4, value=58, time=42),\n",
      "  Message('control_change', channel=9, control=4, value=31, time=21),\n",
      "  Message('note_on', channel=9, note=37, velocity=0, time=11),\n",
      "  Message('control_change', channel=9, control=4, value=3, time=11),\n",
      "  Message('control_change', channel=9, control=4, value=0, time=2),\n",
      "  Message('note_on', channel=9, note=51, velocity=70, time=2),\n",
      "  Message('note_on', channel=9, note=44, velocity=102, time=5),\n",
      "  Message('control_change', channel=9, control=4, value=17, time=14),\n",
      "  Message('control_change', channel=9, control=4, value=34, time=22),\n",
      "  Message('control_change', channel=9, control=4, value=52, time=22),\n",
      "  Message('control_change', channel=9, control=4, value=66, time=17),\n",
      "  Message('note_on', channel=9, note=51, velocity=0, time=15),\n",
      "  Message('note_on', channel=9, note=44, velocity=0, time=4),\n",
      "  Message('control_change', channel=9, control=4, value=77, time=3),\n",
      "  Message('note_on', channel=9, note=51, velocity=59, time=16),\n",
      "  Message('note_on', channel=9, note=36, velocity=46, time=1),\n",
      "  Message('control_change', channel=9, control=4, value=89, time=5),\n",
      "  Message('control_change', channel=9, control=4, value=90, time=0),\n",
      "  Message('control_change', channel=9, control=4, value=89, time=45),\n",
      "  Message('control_change', channel=9, control=4, value=87, time=43),\n",
      "  Message('note_on', channel=9, note=36, velocity=0, time=0),\n",
      "  Message('note_on', channel=9, note=51, velocity=0, time=0),\n",
      "  Message('note_on', channel=9, note=38, velocity=70, time=27),\n",
      "  Message('note_on', channel=9, note=51, velocity=105, time=0),\n",
      "  Message('control_change', channel=9, control=4, value=85, time=17),\n",
      "  Message('control_change', channel=9, control=4, value=83, time=43),\n",
      "  Message('control_change', channel=9, control=4, value=82, time=13),\n",
      "  Message('note_on', channel=9, note=38, velocity=0, time=20),\n",
      "  Message('note_on', channel=9, note=51, velocity=0, time=0),\n",
      "  Message('control_change', channel=9, control=4, value=85, time=2),\n",
      "  Message('note_on', channel=9, note=38, velocity=35, time=20),\n",
      "  Message('control_change', channel=9, control=4, value=88, time=2),\n",
      "  Message('control_change', channel=9, control=4, value=90, time=8),\n",
      "  Message('control_change', channel=9, control=4, value=85, time=44),\n",
      "  Message('note_on', channel=9, note=38, velocity=0, time=39),\n",
      "  Message('control_change', channel=9, control=4, value=80, time=4),\n",
      "  Message('note_on', channel=9, note=51, velocity=77, time=25),\n",
      "  Message('note_on', channel=9, note=44, velocity=100, time=6),\n",
      "  Message('control_change', channel=9, control=4, value=75, time=13),\n",
      "  Message('control_change', channel=9, control=4, value=70, time=43),\n",
      "  Message('note_on', channel=9, note=38, velocity=42, time=31),\n",
      "  Message('note_on', channel=9, note=51, velocity=0, time=1),\n",
      "  Message('note_on', channel=9, note=44, velocity=0, time=5),\n",
      "  Message('control_change', channel=9, control=4, value=65, time=7),\n",
      "  Message('note_on', channel=9, note=51, velocity=65, time=8),\n",
      "  Message('control_change', channel=9, control=4, value=59, time=35),\n",
      "  Message('control_change', channel=9, control=4, value=58, time=9),\n",
      "  Message('control_change', channel=9, control=4, value=32, time=22),\n",
      "  Message('note_on', channel=9, note=38, velocity=0, time=6),\n",
      "  Message('control_change', channel=9, control=4, value=6, time=16),\n",
      "  Message('control_change', channel=9, control=4, value=0, time=4),\n",
      "  Message('note_on', channel=9, note=51, velocity=0, time=2),\n",
      "  Message('control_change', channel=9, control=4, value=18, time=20),\n",
      "  Message('note_on', channel=9, note=36, velocity=42, time=5),\n",
      "  Message('note_on', channel=9, note=51, velocity=56, time=2),\n",
      "  Message('control_change', channel=9, control=4, value=37, time=14),\n",
      "  Message('control_change', channel=9, control=4, value=55, time=22),\n",
      "  Message('control_change', channel=9, control=4, value=68, time=15),\n",
      "  Message('control_change', channel=9, control=4, value=78, time=21),\n",
      "  Message('note_on', channel=9, note=36, velocity=0, time=20),\n",
      "  Message('control_change', channel=9, control=4, value=89, time=1),\n",
      "  Message('control_change', channel=9, control=4, value=90, time=0),\n",
      "  Message('note_on', channel=9, note=51, velocity=0, time=1),\n",
      "  Message('note_on', channel=9, note=38, velocity=29, time=33),\n",
      "  Message('control_change', channel=9, control=4, value=86, time=11),\n",
      "  Message('control_change', channel=9, control=4, value=82, time=43),\n",
      "  Message('note_on', channel=9, note=38, velocity=0, time=40),\n",
      "  Message('control_change', channel=9, control=4, value=78, time=4),\n",
      "  Message('note_on', channel=9, note=44, velocity=102, time=18),\n",
      "  Message('note_on', channel=9, note=38, velocity=21, time=4),\n",
      "  Message('note_on', channel=9, note=51, velocity=61, time=3),\n",
      "  Message('control_change', channel=9, control=4, value=74, time=18),\n",
      "  Message('control_change', channel=9, control=4, value=72, time=21),\n",
      "  Message('control_change', channel=9, control=4, value=76, time=21),\n",
      "  Message('control_change', channel=9, control=4, value=80, time=22),\n",
      "  Message('note_on', channel=9, note=44, velocity=0, time=5),\n",
      "  Message('note_on', channel=9, note=38, velocity=0, time=4),\n",
      "  Message('note_on', channel=9, note=51, velocity=0, time=2),\n",
      "  Message('control_change', channel=9, control=4, value=84, time=11),\n",
      "  Message('note_on', channel=9, note=36, velocity=46, time=13),\n",
      "  Message('control_change', channel=9, control=4, value=89, time=9),\n",
      "  Message('note_on', channel=9, note=51, velocity=47, time=0),\n",
      "  Message('control_change', channel=9, control=4, value=90, time=5),\n",
      "  Message('control_change', channel=9, control=4, value=86, time=22),\n",
      "  Message('control_change', channel=9, control=4, value=81, time=22),\n",
      "  Message('control_change', channel=9, control=4, value=76, time=22),\n",
      "  Message('note_on', channel=9, note=36, velocity=0, time=14),\n",
      "  Message('control_change', channel=9, control=4, value=72, time=7),\n",
      "  Message('note_on', channel=9, note=51, velocity=0, time=2),\n",
      "  Message('note_on', channel=9, note=51, velocity=82, time=15),\n",
      "  Message('note_on', channel=9, note=38, velocity=77, time=2),\n",
      "  Message('control_change', channel=9, control=4, value=67, time=3),\n",
      "  Message('control_change', channel=9, control=4, value=62, time=22),\n",
      "  Message('control_change', channel=9, control=4, value=57, time=22),\n",
      "  Message('control_change', channel=9, control=4, value=53, time=21),\n",
      "  Message('control_change', channel=9, control=4, value=48, time=22),\n",
      "  Message('note_on', channel=9, note=51, velocity=0, time=0),\n",
      "  Message('note_on', channel=9, note=38, velocity=0, time=5),\n",
      "  Message('control_change', channel=9, control=4, value=43, time=17),\n",
      "  Message('control_change', channel=9, control=4, value=42, time=3),\n",
      "  Message('control_change', channel=9, control=4, value=22, time=21),\n",
      "  Message('control_change', channel=9, control=4, value=2, time=22),\n",
      "  Message('control_change', channel=9, control=4, value=0, time=3),\n",
      "  Message('control_change', channel=9, control=4, value=16, time=22),\n",
      "  Message('control_change', channel=9, control=4, value=32, time=22),\n",
      "  Message('control_change', channel=9, control=4, value=48, time=21),\n",
      "  Message('note_on', channel=9, note=44, velocity=100, time=14),\n",
      "  Message('note_on', channel=9, note=51, velocity=68, time=7),\n",
      "  Message('control_change', channel=9, control=4, value=64, time=1),\n",
      "  Message('control_change', channel=9, control=4, value=68, time=4),\n",
      "  Message('control_change', channel=9, control=4, value=78, time=22),\n",
      "  Message('control_change', channel=9, control=4, value=89, time=22),\n",
      "  Message('control_change', channel=9, control=4, value=90, time=1),\n",
      "  Message('note_on', channel=9, note=44, velocity=0, time=37),\n",
      "  Message('control_change', channel=9, control=4, value=87, time=7),\n",
      "  Message('note_on', channel=9, note=51, velocity=0, time=0),\n",
      "  Message('note_on', channel=9, note=38, velocity=16, time=3),\n",
      "  Message('note_on', channel=9, note=51, velocity=56, time=16),\n",
      "  Message('control_change', channel=9, control=4, value=84, time=24),\n",
      "  Message('control_change', channel=9, control=4, value=81, time=44),\n",
      "  Message('note_on', channel=9, note=38, velocity=0, time=10),\n",
      "  Message('note_on', channel=9, note=51, velocity=0, time=16),\n",
      "  Message('control_change', channel=9, control=4, value=78, time=17),\n",
      "  Message('note_on', channel=9, note=51, velocity=64, time=3),\n",
      "  Message('note_on', channel=9, note=36, velocity=37, time=4),\n",
      "  Message('control_change', channel=9, control=4, value=75, time=21),\n",
      "  Message('control_change', channel=9, control=4, value=78, time=22),\n",
      "  Message('control_change', channel=9, control=4, value=82, time=21),\n",
      "  Message('control_change', channel=9, control=4, value=86, time=22),\n",
      "  Message('note_on', channel=9, note=51, velocity=0, time=4),\n",
      "  Message('note_on', channel=9, note=36, velocity=0, time=4),\n",
      "  Message('control_change', channel=9, control=4, value=90, time=11),\n",
      "  Message('note_on', channel=9, note=38, velocity=25, time=24),\n",
      "  Message('control_change', channel=9, control=4, value=87, time=20),\n",
      "  Message('control_change', channel=9, control=4, value=84, time=43),\n",
      "  Message('note_on', channel=9, note=38, velocity=0, time=32),\n",
      "  Message('note_on', channel=9, note=44, velocity=100, time=11),\n",
      "  Message('control_change', channel=9, control=4, value=81, time=1),\n",
      "  Message('note_on', channel=9, note=51, velocity=73, time=9),\n",
      "  Message('note_on', channel=9, note=38, velocity=33, time=7),\n",
      "  Message('control_change', channel=9, control=4, value=78, time=27),\n",
      "  Message('control_change', channel=9, control=4, value=75, time=44),\n",
      "  Message('note_on', channel=9, note=44, velocity=0, time=5),\n",
      "  Message('control_change', channel=9, control=4, value=74, time=6),\n",
      "  Message('note_on', channel=9, note=51, velocity=0, time=5),\n",
      "  Message('note_on', channel=9, note=38, velocity=0, time=7),\n",
      "  Message('control_change', channel=9, control=4, value=40, time=10),\n",
      "  Message('note_on', channel=9, note=36, velocity=46, time=3),\n",
      "  Message('note_on', channel=9, note=51, velocity=57, time=9),\n",
      "  Message('control_change', channel=9, control=4, value=6, time=10),\n",
      "  Message('control_change', channel=9, control=4, value=0, time=4),\n",
      "  Message('control_change', channel=9, control=4, value=18, time=22),\n",
      "  Message('control_change', channel=9, control=4, value=37, time=22),\n",
      "  Message('control_change', channel=9, control=4, value=56, time=21),\n",
      "  Message('note_on', channel=9, note=36, velocity=0, time=6),\n",
      "  Message('note_on', channel=9, note=51, velocity=0, time=9),\n",
      "  Message('control_change', channel=9, control=4, value=74, time=7),\n",
      "  Message('control_change', channel=9, control=4, value=78, time=3),\n",
      "  Message('note_on', channel=9, note=38, velocity=90, time=7),\n",
      "  Message('note_on', channel=9, note=51, velocity=73, time=0),\n",
      "  Message('control_change', channel=9, control=4, value=84, time=15),\n",
      "  Message('control_change', channel=9, control=4, value=90, time=21),\n",
      "  Message('control_change', channel=9, control=4, value=89, time=44),\n",
      "  Message('note_on', channel=9, note=38, velocity=0, time=13),\n",
      "  Message('note_on', channel=9, note=51, velocity=0, time=0),\n",
      "  Message('control_change', channel=9, control=4, value=87, time=30),\n",
      "  Message('note_on', channel=9, note=38, velocity=16, time=22),\n",
      "  Message('control_change', channel=9, control=4, value=85, time=22),\n",
      "  Message('control_change', channel=9, control=4, value=83, time=43),\n",
      "  Message('control_change', channel=9, control=4, value=82, time=19),\n",
      "  Message('note_on', channel=9, note=38, velocity=0, time=10),\n",
      "  Message('note_on', channel=9, note=51, velocity=81, time=11),\n",
      "  Message('note_on', channel=9, note=44, velocity=102, time=3),\n",
      "  Message('control_change', channel=9, control=4, value=87, time=20),\n",
      "  Message('control_change', channel=9, control=4, value=90, time=16),\n",
      "  Message('control_change', channel=9, control=4, value=87, time=21),\n",
      "  Message('control_change', channel=9, control=4, value=83, time=22),\n",
      "  Message('note_on', channel=9, note=51, velocity=0, time=12),\n",
      "  Message('note_on', channel=9, note=44, velocity=0, time=2),\n",
      "  Message('control_change', channel=9, control=4, value=79, time=8),\n",
      "  Message('note_on', channel=9, note=51, velocity=61, time=12),\n",
      "  Message('control_change', channel=9, control=4, value=75, time=10),\n",
      "  Message('control_change', channel=9, control=4, value=71, time=21),\n",
      "  Message('control_change', channel=9, control=4, value=67, time=22),\n",
      "  Message('control_change', channel=9, control=4, value=63, time=22),\n",
      "  Message('note_on', channel=9, note=51, velocity=0, time=18),\n",
      "  Message('control_change', channel=9, control=4, value=59, time=4),\n",
      "  Message('note_on', channel=9, note=36, velocity=43, time=19),\n",
      "  Message('control_change', channel=9, control=4, value=55, time=2),\n",
      "  Message('note_on', channel=9, note=51, velocity=62, time=7),\n",
      "  Message('control_change', channel=9, control=4, value=51, time=15),\n",
      "  Message('control_change', channel=9, control=4, value=47, time=22),\n",
      "  Message('control_change', channel=9, control=4, value=43, time=22),\n",
      "  Message('control_change', channel=9, control=4, value=42, time=3),\n",
      "  Message('control_change', channel=9, control=4, value=22, time=21),\n",
      "  Message('note_on', channel=9, note=36, velocity=0, time=1),\n",
      "  Message('note_on', channel=9, note=51, velocity=0, time=9),\n",
      "  Message('control_change', channel=9, control=4, value=2, time=12),\n",
      "  Message('control_change', channel=9, control=4, value=0, time=2),\n",
      "  Message('control_change', channel=9, control=4, value=16, time=21),\n",
      "  Message('control_change', channel=9, control=4, value=32, time=22),\n",
      "  Message('control_change', channel=9, control=4, value=49, time=22),\n",
      "  Message('control_change', channel=9, control=4, value=65, time=22),\n",
      "  Message('control_change', channel=9, control=4, value=78, time=16),\n",
      "  Message('note_on', channel=9, note=44, velocity=102, time=18),\n",
      "  Message('control_change', channel=9, control=4, value=84, time=3),\n",
      "  Message('note_on', channel=9, note=38, velocity=89, time=8),\n",
      "  Message('control_change', channel=9, control=4, value=90, time=14),\n",
      "  Message('control_change', channel=9, control=4, value=87, time=44),\n",
      "  Message('note_on', channel=9, note=44, velocity=0, time=25),\n",
      "  Message('note_on', channel=9, note=38, velocity=0, time=11),\n",
      "  Message('control_change', channel=9, control=4, value=83, time=7),\n",
      "  Message('note_on', channel=9, note=38, velocity=73, time=18),\n",
      "  Message('control_change', channel=9, control=4, value=80, time=26),\n",
      "  Message('control_change', channel=9, control=4, value=76, time=43),\n",
      "  Message('note_on', channel=9, note=44, velocity=22, time=24),\n",
      "  Message('note_on', channel=9, note=38, velocity=0, time=1),\n",
      "  Message('control_change', channel=9, control=4, value=73, time=5),\n",
      "  Message('note_on', channel=9, note=38, velocity=86, time=24),\n",
      "  Message('control_change', channel=9, control=4, value=75, time=20),\n",
      "  Message('control_change', channel=9, control=4, value=76, time=14),\n",
      "  Message('control_change', channel=9, control=4, value=81, time=22),\n",
      "  Message('note_on', channel=9, note=44, velocity=0, time=7),\n",
      "  Message('control_change', channel=9, control=4, value=87, time=15),\n",
      "  Message('control_change', channel=9, control=4, value=90, time=9),\n",
      "  Message('note_on', channel=9, note=38, velocity=0, time=6),\n",
      "  Message('control_change', channel=9, control=4, value=87, time=15),\n",
      "  Message('note_on', channel=9, note=38, velocity=80, time=12),\n",
      "  Message('control_change', channel=9, control=4, value=83, time=10),\n",
      "  Message('control_change', channel=9, control=4, value=79, time=22),\n",
      "  Message('control_change', channel=9, control=4, value=75, time=22),\n",
      "  Message('control_change', channel=9, control=4, value=71, time=21),\n",
      "  Message('note_on', channel=9, note=44, velocity=100, time=12),\n",
      "  Message('note_on', channel=9, note=38, velocity=0, time=7),\n",
      "  Message('control_change', channel=9, control=4, value=67, time=3),\n",
      "  Message('note_on', channel=9, note=38, velocity=76, time=14),\n",
      "  Message('control_change', channel=9, control=4, value=63, time=8),\n",
      "  Message('control_change', channel=9, control=4, value=59, time=22),\n",
      "  Message('control_change', channel=9, control=4, value=57, time=8),\n",
      "  Message('control_change', channel=9, control=4, value=30, time=22),\n",
      "  Message('note_on', channel=9, note=44, velocity=0, time=9),\n",
      "  Message('control_change', channel=9, control=4, value=2, time=13),\n",
      "  Message('control_change', channel=9, control=4, value=0, time=1),\n",
      "  Message('note_on', channel=9, note=38, velocity=0, time=11),\n",
      "  Message('control_change', channel=9, control=4, value=13, time=11),\n",
      "  Message('note_on', channel=9, note=38, velocity=59, time=11),\n",
      "  Message('control_change', channel=9, control=4, value=27, time=11),\n",
      "  Message('control_change', channel=9, control=4, value=40, time=22),\n",
      "  Message('control_change', channel=9, control=4, value=54, time=21),\n",
      "  Message('control_change', channel=9, control=4, value=67, time=22),\n",
      "  Message('control_change', channel=9, control=4, value=68, time=0),\n",
      "  Message('note_on', channel=9, note=38, velocity=0, time=18),\n",
      "  Message('control_change', channel=9, control=4, value=78, time=4),\n",
      "  Message('note_on', channel=9, note=44, velocity=20, time=0),\n",
      "  Message('note_on', channel=9, note=36, velocity=46, time=17),\n",
      "  Message('control_change', channel=9, control=4, value=89, time=5),\n",
      "  Message('control_change', channel=9, control=4, value=90, time=0),\n",
      "  Message('note_on', channel=9, note=51, velocity=67, time=3),\n",
      "  Message('control_change', channel=9, control=4, value=85, time=42),\n",
      "  Message('note_on', channel=9, note=44, velocity=0, time=27),\n",
      "  Message('control_change', channel=9, control=4, value=80, time=16),\n",
      "  Message('note_on', channel=9, note=36, velocity=0, time=0),\n",
      "  Message('note_on', channel=9, note=38, velocity=29, time=7),\n",
      "  Message('note_on', channel=9, note=51, velocity=0, time=2),\n",
      "  Message('control_change', channel=9, control=4, value=75, time=35),\n",
      "  Message('control_change', channel=9, control=4, value=71, time=26),\n",
      "  Message('control_change', channel=9, control=4, value=65, time=20),\n",
      "  Message('note_on', channel=9, note=38, velocity=0, time=11),\n",
      "  Message('control_change', channel=9, control=4, value=59, time=12),\n",
      "  Message('control_change', channel=9, control=4, value=58, time=3),\n",
      "  Message('note_on', channel=9, note=38, velocity=33, time=8),\n",
      "  Message('control_change', channel=9, control=4, value=67, time=14),\n",
      "  Message('note_on', channel=9, note=44, velocity=97, time=2),\n",
      "  Message('control_change', channel=9, control=4, value=76, time=20),\n",
      "  Message('control_change', channel=9, control=4, value=79, time=5),\n",
      "  Message('control_change', channel=9, control=4, value=84, time=22),\n",
      "  Message('control_change', channel=9, control=4, value=90, time=22),\n",
      "  Message('note_on', channel=9, note=38, velocity=0, time=8),\n",
      "  Message('note_on', channel=9, note=44, velocity=0, time=16),\n",
      "  Message('note_on', channel=9, note=36, velocity=51, time=10),\n",
      "  Message('control_change', channel=9, control=4, value=85, time=9),\n",
      "  Message('control_change', channel=9, control=4, value=79, time=44),\n",
      "  Message('note_on', channel=9, note=36, velocity=0, time=41),\n",
      "  Message('control_change', channel=9, control=4, value=73, time=2),\n",
      "  Message('note_on', channel=9, note=55, velocity=70, time=43),\n",
      "  Message('control_change', channel=9, control=4, value=67, time=1),\n",
      "  Message('note_on', channel=9, note=40, velocity=108, time=10),\n",
      "  Message('control_change', channel=9, control=4, value=61, time=33),\n",
      "  Message('control_change', channel=9, control=4, value=59, time=10),\n",
      "  Message('control_change', channel=9, control=4, value=35, time=22),\n",
      "  Message('note_on', channel=9, note=55, velocity=0, time=17),\n",
      "  Message('control_change', channel=9, control=4, value=10, time=5),\n",
      "  Message('note_on', channel=9, note=40, velocity=0, time=7),\n",
      "  Message('control_change', channel=9, control=4, value=0, time=2),\n",
      "  Message('control_change', channel=9, control=4, value=18, time=21),\n",
      "  Message('note_on', channel=9, note=38, velocity=32, time=20),\n",
      "  Message('control_change', channel=9, control=4, value=36, time=2),\n",
      "  Message('control_change', channel=9, control=4, value=55, time=22),\n",
      "  Message('control_change', channel=9, control=4, value=73, time=22),\n",
      "  Message('control_change', channel=9, control=4, value=78, time=5),\n",
      "  Message('control_change', channel=9, control=4, value=84, time=22),\n",
      "  Message('note_on', channel=9, note=44, velocity=97, time=7),\n",
      "  Message('note_on', channel=9, note=38, velocity=0, time=13),\n",
      "  Message('control_change', channel=9, control=4, value=90, time=2),\n",
      "  Message('note_on', channel=9, note=51, velocity=51, time=15),\n",
      "  Message('control_change', channel=9, control=4, value=89, time=28),\n",
      "  Message('note_on', channel=9, note=44, velocity=0, time=37),\n",
      "  Message('control_change', channel=9, control=4, value=87, time=6),\n",
      "  Message('note_on', channel=9, note=51, velocity=0, time=22),\n",
      "  Message('note_on', channel=9, note=38, velocity=66, time=10),\n",
      "  Message('control_change', channel=9, control=4, value=86, time=12),\n",
      "  Message('control_change', channel=9, control=4, value=84, time=35),\n",
      "  Message('control_change', channel=9, control=4, value=80, time=22),\n",
      "  Message('control_change', channel=9, control=4, value=76, time=22),\n",
      "  Message('note_on', channel=9, note=38, velocity=0, time=2),\n",
      "  Message('control_change', channel=9, control=4, value=73, time=12),\n",
      "  Message('control_change', channel=9, control=4, value=77, time=22),\n",
      "  Message('note_on', channel=9, note=36, velocity=46, time=2),\n",
      "  Message('note_on', channel=9, note=51, velocity=79, time=2),\n",
      "  Message('control_change', channel=9, control=4, value=82, time=18),\n",
      "  Message('control_change', channel=9, control=4, value=86, time=22),\n",
      "  Message('control_change', channel=9, control=4, value=90, time=14),\n",
      "  Message('control_change', channel=9, control=4, value=87, time=22),\n",
      "  Message('note_on', channel=9, note=36, velocity=0, time=16),\n",
      "  Message('note_on', channel=9, note=51, velocity=0, time=0),\n",
      "  Message('control_change', channel=9, control=4, value=84, time=6),\n",
      "  Message('note_on', channel=9, note=38, velocity=22, time=12),\n",
      "  Message('control_change', channel=9, control=4, value=81, time=9),\n",
      "  Message('control_change', channel=9, control=4, value=77, time=22),\n",
      "  Message('control_change', channel=9, control=4, value=74, time=22),\n",
      "  Message('control_change', channel=9, control=4, value=71, time=22),\n",
      "  Message('note_on', channel=9, note=38, velocity=0, time=19),\n",
      "  Message('control_change', channel=9, control=4, value=67, time=2),\n",
      "  Message('note_on', channel=9, note=38, velocity=27, time=17),\n",
      "  Message('note_on', channel=9, note=44, velocity=97, time=0),\n",
      "  Message('control_change', channel=9, control=4, value=64, time=5),\n",
      "  Message('note_on', channel=9, note=51, velocity=58, time=6),\n",
      "  Message('control_change', channel=9, control=4, value=61, time=16),\n",
      "  Message('control_change', channel=9, control=4, value=57, time=20),\n",
      "  Message('control_change', channel=9, control=4, value=29, time=22),\n",
      "  Message('control_change', channel=9, control=4, value=0, time=22),\n",
      "  Message('note_on', channel=9, note=38, velocity=0, time=3),\n",
      "  Message('note_on', channel=9, note=44, velocity=0, time=0),\n",
      "  Message('note_on', channel=9, note=51, velocity=0, time=10),\n",
      "  Message('control_change', channel=9, control=4, value=17, time=8),\n",
      "  Message('note_on', channel=9, note=51, velocity=55, time=11),\n",
      "  Message('note_on', channel=9, note=36, velocity=50, time=5),\n",
      "  Message('control_change', channel=9, control=4, value=34, time=6),\n",
      "  Message('control_change', channel=9, control=4, value=51, time=22),\n",
      "  Message('control_change', channel=9, control=4, value=68, time=22),\n",
      "  Message('control_change', channel=9, control=4, value=77, time=11),\n",
      "  Message('control_change', channel=9, control=4, value=83, time=22),\n",
      "  Message('note_on', channel=9, note=51, velocity=0, time=6),\n",
      "  Message('note_on', channel=9, note=36, velocity=0, time=4),\n",
      "  Message('control_change', channel=9, control=4, value=90, time=12),\n",
      "  Message('note_on', channel=9, note=38, velocity=77, time=10),\n",
      "  Message('note_on', channel=9, note=51, velocity=127, time=10),\n",
      "  Message('control_change', channel=9, control=4, value=88, time=23),\n",
      "  Message('control_change', channel=9, control=4, value=85, time=44),\n",
      "  Message('note_on', channel=9, note=38, velocity=0, time=17),\n",
      "  Message('note_on', channel=9, note=51, velocity=0, time=9),\n",
      "  Message('control_change', channel=9, control=4, value=82, time=17),\n",
      "  Message('note_on', channel=9, note=38, velocity=33, time=6),\n",
      "  Message('control_change', channel=9, control=4, value=80, time=10),\n",
      "  Message('control_change', channel=9, control=4, value=71, time=22),\n",
      "  Message('control_change', channel=9, control=4, value=62, time=22),\n",
      "  Message('control_change', channel=9, control=4, value=52, time=21),\n",
      "  Message('control_change', channel=9, control=4, value=53, time=0),\n",
      "  Message('note_on', channel=9, note=38, velocity=0, time=18),\n",
      "  Message('control_change', channel=9, control=4, value=62, time=4),\n",
      "  Message('note_on', channel=9, note=44, velocity=95, time=11),\n",
      "  Message('control_change', channel=9, control=4, value=72, time=11),\n",
      "  Message('note_on', channel=9, note=51, velocity=65, time=3),\n",
      "  Message('control_change', channel=9, control=4, value=77, time=7),\n",
      "  Message('control_change', channel=9, control=4, value=83, time=22),\n",
      "  Message('control_change', channel=9, control=4, value=89, time=22),\n",
      "  Message('control_change', channel=9, control=4, value=90, time=2),\n",
      "  Message('control_change', channel=9, control=4, value=87, time=22),\n",
      "  Message('note_on', channel=9, note=44, velocity=0, time=5),\n",
      "  Message('note_on', channel=9, note=38, velocity=37, time=3),\n",
      "  Message('note_on', channel=9, note=51, velocity=0, time=11),\n",
      "  Message('control_change', channel=9, control=4, value=83, time=3),\n",
      "  Message('control_change', channel=9, control=4, value=79, time=22),\n",
      "  Message('note_on', channel=9, note=51, velocity=52, time=1),\n",
      "  Message('control_change', channel=9, control=4, value=75, time=20),\n",
      "  Message('control_change', channel=9, control=4, value=72, time=22),\n",
      "  Message('note_on', channel=9, note=38, velocity=0, time=14),\n",
      "  Message('control_change', channel=9, control=4, value=68, time=8),\n",
      "  Message('control_change', channel=9, control=4, value=64, time=22),\n",
      "  Message('note_on', channel=9, note=36, velocity=41, time=4),\n",
      "  Message('note_on', channel=9, note=51, velocity=0, time=4),\n",
      "  Message('control_change', channel=9, control=4, value=60, time=13),\n",
      "  Message('control_change', channel=9, control=4, value=58, time=12),\n",
      "  Message('note_on', channel=9, note=51, velocity=75, time=2),\n",
      "  Message('control_change', channel=9, control=4, value=32, time=20),\n",
      "  Message('control_change', channel=9, control=4, value=6, time=22),\n",
      "  Message('control_change', channel=9, control=4, value=0, time=4),\n",
      "  Message('note_on', channel=9, note=36, velocity=0, time=17),\n",
      "  Message('control_change', channel=9, control=4, value=16, time=5),\n",
      "  Message('control_change', channel=9, control=4, value=33, time=21),\n",
      "  Message('note_on', channel=9, note=51, velocity=0, time=5),\n",
      "  Message('note_on', channel=9, note=38, velocity=26, time=13),\n",
      "  Message('control_change', channel=9, control=4, value=50, time=4),\n",
      "  Message('control_change', channel=9, control=4, value=66, time=22),\n",
      "  Message('control_change', channel=9, control=4, value=78, time=14),\n",
      "  Message('control_change', channel=9, control=4, value=84, time=22),\n",
      "  Message('control_change', channel=9, control=4, value=90, time=22),\n",
      "  Message('note_on', channel=9, note=38, velocity=0, time=10),\n",
      "  Message('note_on', channel=9, note=44, velocity=97, time=8),\n",
      "  Message('note_on', channel=9, note=38, velocity=33, time=10),\n",
      "  Message('note_on', channel=9, note=51, velocity=78, time=9),\n",
      "  Message('control_change', channel=9, control=4, value=88, time=6),\n",
      "  Message('control_change', channel=9, control=4, value=86, time=44),\n",
      "  Message('note_on', channel=9, note=44, velocity=0, time=26),\n",
      "  Message('note_on', channel=9, note=38, velocity=0, time=9),\n",
      "  Message('control_change', channel=9, control=4, value=83, time=8),\n",
      "  Message('note_on', channel=9, note=51, velocity=0, time=0),\n",
      "  Message('note_on', channel=9, note=36, velocity=46, time=15),\n",
      "  Message('control_change', channel=9, control=4, value=81, time=13),\n",
      "  Message('note_on', channel=9, note=51, velocity=69, time=3),\n",
      "  Message('control_change', channel=9, control=4, value=74, time=19),\n",
      "  Message('control_change', channel=9, control=4, value=67, time=21),\n",
      "  Message('control_change', channel=9, control=4, value=66, time=2),\n",
      "  Message('note_on', channel=9, note=36, velocity=0, time=36),\n",
      "  Message('control_change', channel=9, control=4, value=71, time=7),\n",
      "  Message('note_on', channel=9, note=51, velocity=0, time=8),\n",
      "  Message('note_on', channel=9, note=38, velocity=67, time=12),\n",
      "  Message('control_change', channel=9, control=4, value=75, time=4),\n",
      "  Message('note_on', channel=9, note=51, velocity=101, time=12),\n",
      "  Message('control_change', channel=9, control=4, value=81, time=9),\n",
      "  Message('control_change', channel=9, control=4, value=88, time=22),\n",
      "  Message('control_change', channel=9, control=4, value=90, time=7),\n",
      "  Message('control_change', channel=9, control=4, value=86, time=22),\n",
      "  Message('note_on', channel=9, note=38, velocity=0, time=18),\n",
      "  Message('control_change', channel=9, control=4, value=81, time=4),\n",
      "  Message('note_on', channel=9, note=51, velocity=0, time=12),\n",
      "  Message('control_change', channel=9, control=4, value=77, time=10),\n",
      "  Message('note_on', channel=9, note=38, velocity=26, time=14),\n",
      "  Message('control_change', channel=9, control=4, value=72, time=7),\n",
      "  Message('control_change', channel=9, control=4, value=67, time=22),\n",
      "  Message('control_change', channel=9, control=4, value=63, time=22),\n",
      "  Message('control_change', channel=9, control=4, value=58, time=19),\n",
      "  Message('control_change', channel=9, control=4, value=33, time=21),\n",
      "  Message('note_on', channel=9, note=38, velocity=0, time=3),\n",
      "  Message('note_on', channel=9, note=44, velocity=102, time=6),\n",
      "  Message('note_on', channel=9, note=51, velocity=127, time=5),\n",
      "  Message('control_change', channel=9, control=4, value=7, time=8),\n",
      "  Message('control_change', channel=9, control=4, value=0, time=6),\n",
      "  Message('control_change', channel=9, control=4, value=14, time=22),\n",
      "  Message('control_change', channel=9, control=4, value=29, time=21),\n",
      "  Message('control_change', channel=9, control=4, value=44, time=22),\n",
      "  Message('note_on', channel=9, note=44, velocity=0, time=9),\n",
      "  Message('note_on', channel=9, note=51, velocity=0, time=5),\n",
      "  Message('control_change', channel=9, control=4, value=58, time=8),\n",
      "  Message('control_change', channel=9, control=4, value=73, time=22),\n",
      "  Message('control_change', channel=9, control=4, value=77, time=4),\n",
      "  Message('note_on', channel=9, note=38, velocity=80, time=7),\n",
      "  Message('control_change', channel=9, control=4, value=83, time=15),\n",
      "  Message('control_change', channel=9, control=4, value=90, time=22),\n",
      "  Message('control_change', channel=9, control=4, value=86, time=21),\n",
      "  Message('control_change', channel=9, control=4, value=81, time=22),\n",
      "  Message('note_on', channel=9, note=38, velocity=0, time=14),\n",
      "  Message('control_change', channel=9, control=4, value=76, time=8),\n",
      "  Message('note_on', channel=9, note=36, velocity=39, time=11),\n",
      "  Message('note_on', channel=9, note=51, velocity=52, time=0),\n",
      "  Message('control_change', channel=9, control=4, value=71, time=11),\n",
      "  Message('control_change', channel=9, control=4, value=66, time=21),\n",
      "  Message('control_change', channel=9, control=4, value=62, time=22),\n",
      "  Message('control_change', channel=9, control=4, value=57, time=22),\n",
      "  Message('note_on', channel=9, note=36, velocity=0, time=18),\n",
      "  Message('note_on', channel=9, note=51, velocity=0, time=0),\n",
      "  Message('control_change', channel=9, control=4, value=52, time=1),\n",
      "  Message('control_change', channel=9, control=4, value=42, time=21),\n",
      "  Message('note_on', channel=9, note=51, velocity=51, time=5),\n",
      "  Message('control_change', channel=9, control=4, value=32, time=17),\n",
      "  Message('control_change', channel=9, control=4, value=23, time=18),\n",
      "  Message('control_change', channel=9, control=4, value=45, time=21),\n",
      "  Message('control_change', channel=9, control=4, value=68, time=22),\n",
      "  Message('control_change', channel=9, control=4, value=78, time=9),\n",
      "  Message('note_on', channel=9, note=51, velocity=0, time=7),\n",
      "  Message('note_on', channel=9, note=44, velocity=100, time=14),\n",
      "  Message('control_change', channel=9, control=4, value=84, time=1),\n",
      "  Message('note_on', channel=9, note=51, velocity=98, time=17),\n",
      "  Message('control_change', channel=9, control=4, value=90, time=4),\n",
      "  Message('control_change', channel=9, control=4, value=86, time=22),\n",
      "  Message('control_change', channel=9, control=4, value=81, time=22),\n",
      "  Message('control_change', channel=9, control=4, value=76, time=22),\n",
      "  Message('note_on', channel=9, note=44, velocity=0, time=5),\n",
      "  Message('control_change', channel=9, control=4, value=71, time=16),\n",
      "  Message('note_on', channel=9, note=51, velocity=0, time=2),\n",
      "  Message('control_change', channel=9, control=4, value=66, time=20),\n",
      "  Message('note_on', channel=9, note=36, velocity=42, time=3),\n",
      "  Message('control_change', channel=9, control=4, value=61, time=19),\n",
      "  Message('control_change', channel=9, control=4, value=56, time=22),\n",
      "  Message('control_change', channel=9, control=4, value=51, time=21),\n",
      "  Message('control_change', channel=9, control=4, value=46, time=22),\n",
      "  Message('note_on', channel=9, note=36, velocity=0, time=10),\n",
      "  Message('control_change', channel=9, control=4, value=42, time=7),\n",
      "  Message('note_on', channel=9, note=38, velocity=58, time=16),\n",
      "  Message('note_on', channel=9, note=51, velocity=83, time=5),\n",
      "  Message('control_change', channel=9, control=4, value=23, time=1),\n",
      "  Message('control_change', channel=9, control=4, value=4, time=22),\n",
      "  Message('control_change', channel=9, control=4, value=0, time=4),\n",
      "  Message('control_change', channel=9, control=4, value=16, time=22),\n",
      "  Message('control_change', channel=9, control=4, value=32, time=22),\n",
      "  Message('note_on', channel=9, note=38, velocity=0, time=18),\n",
      "  Message('control_change', channel=9, control=4, value=48, time=4),\n",
      "  Message('note_on', channel=9, note=51, velocity=0, time=1),\n",
      "  Message('note_on', channel=9, note=38, velocity=29, time=7),\n",
      "  Message('control_change', channel=9, control=4, value=64, time=13),\n",
      "  Message('control_change', channel=9, control=4, value=67, time=3),\n",
      "  Message('note_on', channel=9, note=51, velocity=51, time=7),\n",
      "  Message('control_change', channel=9, control=4, value=78, time=15),\n",
      "  Message('control_change', channel=9, control=4, value=89, time=22),\n",
      "  Message('control_change', channel=9, control=4, value=90, time=0),\n",
      "  Message('note_on', channel=9, note=38, velocity=0, time=34),\n",
      "  Message('control_change', channel=9, control=4, value=88, time=9),\n",
      "  Message('note_on', channel=9, note=51, velocity=0, time=12),\n",
      "  Message('note_on', channel=9, note=44, velocity=97, time=19),\n",
      "  Message('note_on', channel=9, note=51, velocity=95, time=4),\n",
      "  Message('control_change', channel=9, control=4, value=86, time=9),\n",
      "  Message('control_change', channel=9, control=4, value=84, time=43),\n",
      "  Message('note_on', channel=9, note=44, velocity=0, time=38),\n",
      "  Message('note_on', channel=9, note=51, velocity=0, time=4),\n",
      "  Message('control_change', channel=9, control=4, value=82, time=2),\n",
      "  Message('note_on', channel=9, note=38, velocity=62, time=13),\n",
      "  Message('control_change', channel=9, control=4, value=80, time=30),\n",
      "  Message('control_change', channel=9, control=4, value=78, time=38),\n",
      "  Message('control_change', channel=9, control=4, value=82, time=22),\n",
      "  Message('note_on', channel=9, note=38, velocity=0, time=3),\n",
      "  Message('control_change', channel=9, control=4, value=87, time=18),\n",
      "  Message('note_on', channel=9, note=36, velocity=38, time=3),\n",
      "  Message('note_on', channel=9, note=44, velocity=20, time=1),\n",
      "  Message('control_change', channel=9, control=4, value=90, time=7),\n",
      "  Message('note_on', channel=9, note=51, velocity=52, time=13),\n",
      "  Message('control_change', channel=9, control=4, value=86, time=30),\n",
      "  Message('note_on', channel=9, note=36, velocity=0, time=43),\n",
      "  Message('control_change', channel=9, control=4, value=81, time=1),\n",
      "  Message('note_on', channel=9, note=44, velocity=0, time=0),\n",
      "  Message('note_on', channel=9, note=51, velocity=0, time=19),\n",
      "  Message('note_on', channel=9, note=38, velocity=32, time=14),\n",
      "  Message('control_change', channel=9, control=4, value=77, time=10),\n",
      "  Message('control_change', channel=9, control=4, value=74, time=19),\n",
      "  Message('control_change', channel=9, control=4, value=42, time=20),\n",
      "  Message('control_change', channel=9, control=4, value=9, time=23),\n",
      "  Message('control_change', channel=9, control=4, value=0, time=6),\n",
      "  Message('note_on', channel=9, note=38, velocity=0, time=15),\n",
      "  Message('control_change', channel=9, control=4, value=15, time=7),\n",
      "  Message('note_on', channel=9, note=44, velocity=100, time=12),\n",
      "  Message('note_on', channel=9, note=51, velocity=74, time=8),\n",
      "  Message('control_change', channel=9, control=4, value=31, time=2),\n",
      "  Message('note_on', channel=9, note=38, velocity=32, time=1),\n",
      "  Message('control_change', channel=9, control=4, value=47, time=20),\n",
      "  Message('control_change', channel=9, control=4, value=62, time=22),\n",
      "  Message('control_change', channel=9, control=4, value=76, time=18),\n",
      "  Message('control_change', channel=9, control=4, value=83, time=21),\n",
      "  Message('note_on', channel=9, note=44, velocity=0, time=1),\n",
      "  Message('note_on', channel=9, note=51, velocity=0, time=8),\n",
      "  Message('note_on', channel=9, note=38, velocity=0, time=4),\n",
      "  Message('control_change', channel=9, control=4, value=90, time=9),\n",
      "  Message('note_on', channel=9, note=51, velocity=64, time=15),\n",
      "  Message('note_on', channel=9, note=36, velocity=43, time=1),\n",
      "  Message('control_change', channel=9, control=4, value=87, time=28),\n",
      "  Message('control_change', channel=9, control=4, value=83, time=43),\n",
      "  Message('note_on', channel=9, note=36, velocity=0, time=22),\n",
      "  Message('note_on', channel=9, note=51, velocity=0, time=0),\n",
      "  Message('note_on', channel=9, note=44, velocity=27, time=5),\n",
      "  Message('control_change', channel=9, control=4, value=80, time=17),\n",
      "  Message('note_on', channel=9, note=51, velocity=90, time=4),\n",
      "  Message('note_on', channel=9, note=38, velocity=69, time=5),\n",
      "  Message('control_change', channel=9, control=4, value=76, time=34),\n",
      "  Message('control_change', channel=9, control=4, value=74, time=20),\n",
      "  Message('note_on', channel=9, note=44, velocity=0, time=13),\n",
      "  Message('note_on', channel=9, note=51, velocity=0, time=22),\n",
      "  Message('note_on', channel=9, note=38, velocity=0, time=5),\n",
      "  Message('control_change', channel=9, control=4, value=76, time=4),\n",
      "  Message('control_change', channel=9, control=4, value=78, time=23),\n",
      "  Message('note_on', channel=9, note=38, velocity=35, time=9),\n",
      "  Message('control_change', channel=9, control=4, value=83, time=13),\n",
      "  Message('control_change', channel=9, control=4, value=89, time=22),\n",
      "  Message('control_change', channel=9, control=4, value=90, time=4),\n",
      "  Message('control_change', channel=9, control=4, value=87, time=22),\n",
      "  Message('control_change', channel=9, control=4, value=83, time=21),\n",
      "  Message('note_on', channel=9, note=44, velocity=100, time=9),\n",
      "  Message('note_on', channel=9, note=38, velocity=0, time=3),\n",
      "  Message('control_change', channel=9, control=4, value=80, time=10),\n",
      "  Message('note_on', channel=9, note=51, velocity=98, time=6),\n",
      "  Message('control_change', channel=9, control=4, value=76, time=16),\n",
      "  Message('control_change', channel=9, control=4, value=72, time=22),\n",
      "  Message('control_change', channel=9, control=4, value=69, time=21),\n",
      "  Message('note_on', channel=9, note=44, velocity=0, time=16),\n",
      "  Message('control_change', channel=9, control=4, value=65, time=6),\n",
      "  Message('note_on', channel=9, note=51, velocity=0, time=12),\n",
      "  Message('control_change', channel=9, control=4, value=61, time=10),\n",
      "  Message('control_change', channel=9, control=4, value=58, time=16),\n",
      "  Message('note_on', channel=9, note=38, velocity=45, time=3),\n",
      "  Message('note_on', channel=9, note=51, velocity=65, time=4),\n",
      "  Message('control_change', channel=9, control=4, value=31, time=15),\n",
      "  Message('control_change', channel=9, control=4, value=4, time=21),\n",
      "  Message('control_change', channel=9, control=4, value=0, time=3),\n",
      "  Message('control_change', channel=9, control=4, value=15, time=22),\n",
      "  Message('control_change', channel=9, control=4, value=31, time=22),\n",
      "  Message('note_on', channel=9, note=38, velocity=0, time=6),\n",
      "  Message('note_on', channel=9, note=51, velocity=0, time=5),\n",
      "  Message('note_on', channel=9, note=36, velocity=38, time=10),\n",
      "  Message('control_change', channel=9, control=4, value=47, time=1),\n",
      "  Message('note_on', channel=9, note=51, velocity=62, time=9),\n",
      "  Message('control_change', channel=9, control=4, value=63, time=12),\n",
      "  Message('control_change', channel=9, control=4, value=78, time=21),\n",
      "  Message('control_change', channel=9, control=4, value=84, time=21),\n",
      "  Message('control_change', channel=9, control=4, value=90, time=22),\n",
      "  Message('note_on', channel=9, note=36, velocity=0, time=8),\n",
      "  Message('note_on', channel=9, note=51, velocity=0, time=10),\n",
      "  Message('control_change', channel=9, control=4, value=87, time=26),\n",
      "  Message('note_on', channel=9, note=38, velocity=30, time=1),\n",
      "  Message('control_change', channel=9, control=4, value=83, time=42),\n",
      "  Message('control_change', channel=9, control=4, value=80, time=44),\n",
      "  Message('note_on', channel=9, note=38, velocity=0, time=7),\n",
      "  Message('note_on', channel=9, note=44, velocity=105, time=0),\n",
      "  Message('note_on', channel=9, note=51, velocity=72, time=21),\n",
      "  Message('note_on', channel=9, note=38, velocity=33, time=7),\n",
      "  Message('control_change', channel=9, control=4, value=76, time=8),\n",
      "  Message('control_change', channel=9, control=4, value=74, time=17),\n",
      "  Message('note_on', channel=9, note=44, velocity=0, time=41),\n",
      "  Message('control_change', channel=9, control=4, value=76, time=3),\n",
      "  Message('note_on', channel=9, note=51, velocity=0, time=18),\n",
      "  Message('control_change', channel=9, control=4, value=78, time=5),\n",
      "  Message('note_on', channel=9, note=38, velocity=0, time=2),\n",
      "  Message('control_change', channel=9, control=4, value=83, time=20),\n",
      "  Message('note_on', channel=9, note=51, velocity=71, time=6),\n",
      "  Message('note_on', channel=9, note=36, velocity=40, time=7),\n",
      "  Message('control_change', channel=9, control=4, value=88, time=9),\n",
      "  Message('control_change', channel=9, control=4, value=90, time=5),\n",
      "  Message('control_change', channel=9, control=4, value=87, time=22),\n",
      "  Message('control_change', channel=9, control=4, value=84, time=22),\n",
      "  Message('control_change', channel=9, control=4, value=81, time=22),\n",
      "  Message('note_on', channel=9, note=51, velocity=0, time=7),\n",
      "  Message('note_on', channel=9, note=36, velocity=0, time=6),\n",
      "  Message('control_change', channel=9, control=4, value=78, time=8),\n",
      "  Message('note_on', channel=9, note=51, velocity=83, time=10),\n",
      "  Message('note_on', channel=9, note=37, velocity=71, time=4),\n",
      "  Message('control_change', channel=9, control=4, value=75, time=8),\n",
      "  Message('control_change', channel=9, control=4, value=71, time=22),\n",
      "  Message('control_change', channel=9, control=4, value=68, time=22),\n",
      "  Message('control_change', channel=9, control=4, value=65, time=21),\n",
      "  Message('note_on', channel=9, note=51, velocity=0, time=17),\n",
      "  Message('note_on', channel=9, note=37, velocity=0, time=3),\n",
      "  Message('control_change', channel=9, control=4, value=62, time=2),\n",
      "  Message('control_change', channel=9, control=4, value=59, time=22),\n",
      "  Message('note_on', channel=9, note=38, velocity=18, time=0),\n",
      "  Message('control_change', channel=9, control=4, value=58, time=1),\n",
      "  Message('control_change', channel=9, control=4, value=31, time=22),\n",
      "  Message('control_change', channel=9, control=4, value=3, time=22),\n",
      "  Message('control_change', channel=9, control=4, value=0, time=1),\n",
      "  Message('control_change', channel=9, control=4, value=17, time=22),\n",
      "  Message('control_change', channel=9, control=4, value=34, time=22),\n",
      "  Message('note_on', channel=9, note=38, velocity=0, time=3),\n",
      "  Message('note_on', channel=9, note=44, velocity=95, time=9),\n",
      "  Message('control_change', channel=9, control=4, value=52, time=10),\n",
      "  Message('control_change', channel=9, control=4, value=69, time=21),\n",
      "  Message('control_change', channel=9, control=4, value=70, time=0),\n",
      "  Message('note_on', channel=9, note=38, velocity=28, time=1),\n",
      "  Message('control_change', channel=9, control=4, value=79, time=23),\n",
      "  Message('control_change', channel=9, control=4, value=89, time=21),\n",
      "  Message('control_change', channel=9, control=4, value=90, time=0),\n",
      "  Message('note_on', channel=9, note=44, velocity=0, time=18),\n",
      "  Message('control_change', channel=9, control=4, value=85, time=26),\n",
      "  Message('note_on', channel=9, note=38, velocity=0, time=6),\n",
      "  Message('note_on', channel=9, note=36, velocity=46, time=16),\n",
      "  Message('note_on', channel=9, note=51, velocity=102, time=6),\n",
      "  Message('control_change', channel=9, control=4, value=80, time=15),\n",
      "  Message('control_change', channel=9, control=4, value=75, time=44),\n",
      "  Message('note_on', channel=9, note=44, velocity=17, time=22),\n",
      "  Message('note_on', channel=9, note=36, velocity=0, time=7),\n",
      "  Message('note_on', channel=9, note=51, velocity=0, time=5),\n",
      "  Message('control_change', channel=9, control=4, value=70, time=9),\n",
      "  Message('note_on', channel=9, note=38, velocity=22, time=28),\n",
      "  Message('control_change', channel=9, control=4, value=65, time=16),\n",
      "  Message('control_change', channel=9, control=4, value=64, time=9),\n",
      "  Message('control_change', channel=9, control=4, value=68, time=21),\n",
      "  Message('note_on', channel=9, note=44, velocity=0, time=0),\n",
      "  Message('control_change', channel=9, control=4, value=72, time=22),\n",
      "  Message('control_change', channel=9, control=4, value=75, time=13),\n",
      "  Message('note_on', channel=9, note=36, velocity=11, time=9),\n",
      "  Message('note_on', channel=9, note=38, velocity=0, time=4),\n",
      "  Message('note_on', channel=9, note=51, velocity=54, time=7),\n",
      "  Message('control_change', channel=9, control=4, value=81, time=2),\n",
      "  Message('control_change', channel=9, control=4, value=88, time=22),\n",
      "  Message('control_change', channel=9, control=4, value=90, time=7),\n",
      "  Message('control_change', channel=9, control=4, value=86, time=22),\n",
      "  Message('control_change', channel=9, control=4, value=82, time=21),\n",
      "  Message('note_on', channel=9, note=36, velocity=0, time=9),\n",
      "  Message('note_on', channel=9, note=51, velocity=0, time=11),\n",
      "  Message('control_change', channel=9, control=4, value=77, time=2),\n",
      "  Message('note_on', channel=9, note=36, velocity=52, time=12),\n",
      "  Message('note_on', channel=9, note=44, velocity=105, time=1),\n",
      "  Message('note_on', channel=9, note=51, velocity=113, time=4),\n",
      "  Message('control_change', channel=9, control=4, value=73, time=5),\n",
      "  Message('control_change', channel=9, control=4, value=69, time=22),\n",
      "  Message('control_change', channel=9, control=4, value=64, time=21),\n",
      "  Message('control_change', channel=9, control=4, value=60, time=22),\n",
      "  Message('control_change', channel=9, control=4, value=58, time=7),\n",
      "  Message('note_on', channel=9, note=36, velocity=0, time=11),\n",
      "  Message('note_on', channel=9, note=44, velocity=0, time=0),\n",
      "  Message('note_on', channel=9, note=51, velocity=0, time=6),\n",
      "  Message('control_change', channel=9, control=4, value=34, time=5),\n",
      "  Message('note_on', channel=9, note=38, velocity=25, time=19),\n",
      "  Message('control_change', channel=9, control=4, value=10, time=3),\n",
      "  Message('control_change', channel=9, control=4, value=0, time=9),\n",
      "  Message('control_change', channel=9, control=4, value=15, time=21),\n",
      "  Message('control_change', channel=9, control=4, value=31, time=22),\n",
      "  Message('control_change', channel=9, control=4, value=47, time=22),\n",
      "  Message('note_on', channel=9, note=38, velocity=0, time=17),\n",
      "  Message('note_on', channel=9, note=44, velocity=22, time=4),\n",
      "  Message('control_change', channel=9, control=4, value=63, time=1),\n",
      "  Message('control_change', channel=9, control=4, value=73, time=13),\n",
      "  Message('note_on', channel=9, note=38, velocity=33, time=10),\n",
      "  Message('control_change', channel=9, control=4, value=81, time=11),\n",
      "  Message('control_change', channel=9, control=4, value=90, time=22),\n",
      "  Message('note_on', channel=9, note=44, velocity=0, time=36),\n",
      "  Message('control_change', channel=9, control=4, value=86, time=8),\n",
      "  Message('note_on', channel=9, note=38, velocity=0, time=16),\n",
      "  Message('note_on', channel=9, note=36, velocity=52, time=22),\n",
      "  Message('control_change', channel=9, control=4, value=82, time=5),\n",
      "  Message('note_on', channel=9, note=51, velocity=127, time=10),\n",
      "  Message('control_change', channel=9, control=4, value=78, time=34),\n",
      "  Message('control_change', channel=9, control=4, value=74, time=43),\n",
      "  Message('note_on', channel=9, note=36, velocity=0, time=2),\n",
      "  Message('control_change', channel=9, control=4, value=73, time=2),\n",
      "  Message('note_on', channel=9, note=44, velocity=97, time=10),\n",
      "  Message('note_on', channel=9, note=51, velocity=0, time=3),\n",
      "  Message('control_change', channel=9, control=4, value=67, time=9),\n",
      "  Message('note_on', channel=9, note=37, velocity=77, time=6),\n",
      "  Message('control_change', channel=9, control=4, value=61, time=16),\n",
      "  Message('control_change', channel=9, control=4, value=58, time=10),\n",
      "  Message('control_change', channel=9, control=4, value=65, time=22),\n",
      "  Message('control_change', channel=9, control=4, value=73, time=22),\n",
      "  Message('note_on', channel=9, note=44, velocity=0, time=5),\n",
      "  Message('control_change', channel=9, control=4, value=78, time=6),\n",
      "  Message('note_on', channel=9, note=37, velocity=0, time=12),\n",
      "  Message('control_change', channel=9, control=4, value=83, time=10),\n",
      "  Message('control_change', channel=9, control=4, value=89, time=22),\n",
      "  Message('note_on', channel=9, note=38, velocity=41, time=2),\n",
      "  Message('control_change', channel=9, control=4, value=90, time=1),\n",
      "  Message('control_change', channel=9, control=4, value=87, time=21),\n",
      "  Message('control_change', channel=9, control=4, value=83, time=22),\n",
      "  Message('control_change', channel=9, control=4, value=80, time=22),\n",
      "  Message('control_change', channel=9, control=4, value=76, time=22),\n",
      "  Message('note_on', channel=9, note=38, velocity=0, time=6),\n",
      "  Message('note_on', channel=9, note=36, velocity=51, time=3),\n",
      "  Message('control_change', channel=9, control=4, value=73, time=12),\n",
      "  Message('control_change', channel=9, control=4, value=69, time=22),\n",
      "  Message('note_on', channel=9, note=51, velocity=117, time=2),\n",
      "  Message('control_change', channel=9, control=4, value=66, time=20),\n",
      "  Message('control_change', channel=9, control=4, value=62, time=22),\n",
      "  Message('note_on', channel=9, note=36, velocity=0, time=16),\n",
      "  Message('control_change', channel=9, control=4, value=59, time=5),\n",
      "  Message('control_change', channel=9, control=4, value=57, time=6),\n",
      "  Message('note_on', channel=9, note=38, velocity=21, time=7),\n",
      "  Message('control_change', channel=9, control=4, value=29, time=15),\n",
      "  Message('note_on', channel=9, note=51, velocity=0, time=3),\n",
      "  Message('control_change', channel=9, control=4, value=0, time=19),\n",
      "  Message('control_change', channel=9, control=4, value=16, time=21),\n",
      "  Message('control_change', channel=9, control=4, value=33, time=22),\n",
      "  Message('note_on', channel=9, note=38, velocity=0, time=14),\n",
      "  Message('control_change', channel=9, control=4, value=50, time=8),\n",
      "  Message('note_on', channel=9, note=44, velocity=102, time=20),\n",
      "  Message('control_change', channel=9, control=4, value=67, time=2),\n",
      "  Message('control_change', channel=9, control=4, value=76, time=11),\n",
      "  Message('note_on', channel=9, note=45, velocity=98, time=6),\n",
      "  Message('control_change', channel=9, control=4, value=83, time=16),\n",
      "  Message('control_change', channel=9, control=4, value=90, time=22),\n",
      "  Message('note_on', channel=9, note=44, velocity=0, time=37),\n",
      "  Message('control_change', channel=9, control=4, value=88, time=6),\n",
      "  Message('note_on', channel=9, note=45, velocity=0, time=13),\n",
      "  Message('note_on', channel=9, note=38, velocity=30, time=9),\n",
      "  Message('control_change', channel=9, control=4, value=86, time=22),\n",
      "  Message('control_change', channel=9, control=4, value=84, time=43),\n",
      "  Message('note_on', channel=9, note=38, velocity=0, time=29),\n",
      "  Message('control_change', channel=9, control=4, value=81, time=15),\n",
      "  Message('control_change', channel=9, control=4, value=80, time=17),\n",
      "  Message('note_on', channel=9, note=38, velocity=28, time=1),\n",
      "  Message('control_change', channel=9, control=4, value=72, time=21),\n",
      "  Message('control_change', channel=9, control=4, value=63, time=22),\n",
      "  Message('control_change', channel=9, control=4, value=68, time=21),\n",
      "  Message('control_change', channel=9, control=4, value=73, time=22),\n",
      "  Message('control_change', channel=9, control=4, value=74, time=4),\n",
      "  Message('note_on', channel=9, note=38, velocity=0, time=3),\n",
      "  Message('note_on', channel=9, note=36, velocity=18, time=11),\n",
      "  Message('control_change', channel=9, control=4, value=80, time=8),\n",
      "  Message('control_change', channel=9, control=4, value=87, time=22),\n",
      "  Message('note_on', channel=9, note=51, velocity=85, time=6),\n",
      "  Message('control_change', channel=9, control=4, value=90, time=3),\n",
      "  Message('control_change', channel=9, control=4, value=86, time=21),\n",
      "  Message('control_change', channel=9, control=4, value=82, time=22),\n",
      "  Message('note_on', channel=9, note=36, velocity=0, time=12),\n",
      "  Message('control_change', channel=9, control=4, value=78, time=10),\n",
      "  Message('control_change', channel=9, control=4, value=74, time=22),\n",
      "  Message('note_on', channel=9, note=51, velocity=0, time=3),\n",
      "  Message('note_on', channel=9, note=36, velocity=55, time=8),\n",
      "  Message('note_on', channel=9, note=44, velocity=97, time=2),\n",
      "  Message('control_change', channel=9, control=4, value=70, time=8),\n",
      "  Message('note_on', channel=9, note=51, velocity=127, time=8),\n",
      "  Message('control_change', channel=9, control=4, value=66, time=14),\n",
      "  Message('control_change', channel=9, control=4, value=62, time=22),\n",
      "  Message('control_change', channel=9, control=4, value=58, time=22),\n",
      "  Message('note_on', channel=9, note=36, velocity=0, time=17),\n",
      "  Message('note_on', channel=9, note=44, velocity=0, time=2),\n",
      "  Message('control_change', channel=9, control=4, value=29, time=2),\n",
      "  Message('note_on', channel=9, note=51, velocity=0, time=15),\n",
      "  Message('control_change', channel=9, control=4, value=0, time=7),\n",
      "  Message('note_on', channel=9, note=38, velocity=29, time=4),\n",
      "  Message('control_change', channel=9, control=4, value=16, time=18),\n",
      "  Message('control_change', channel=9, control=4, value=32, time=22),\n",
      "  Message('control_change', channel=9, control=4, value=48, time=21),\n",
      "  Message('control_change', channel=9, control=4, value=64, time=22),\n",
      "  Message('control_change', channel=9, control=4, value=71, time=9),\n",
      "  Message('note_on', channel=9, note=38, velocity=0, time=2),\n",
      "  Message('control_change', channel=9, control=4, value=80, time=20),\n",
      "  Message('note_on', channel=9, note=38, velocity=31, time=3),\n",
      "  Message('control_change', channel=9, control=4, value=90, time=18),\n",
      "  Message('control_change', channel=9, control=4, value=87, time=44),\n",
      "  Message('note_on', channel=9, note=38, velocity=0, time=32),\n",
      "  Message('control_change', channel=9, control=4, value=84, time=11),\n",
      "  Message('note_on', channel=9, note=36, velocity=26, time=14),\n",
      "  Message('note_on', channel=9, note=51, velocity=80, time=5),\n",
      "  Message('control_change', channel=9, control=4, value=80, time=25),\n",
      "  Message('control_change', channel=9, control=4, value=78, time=25),\n",
      "  Message('control_change', channel=9, control=4, value=66, time=21),\n",
      "  Message('note_on', channel=9, note=36, velocity=0, time=17),\n",
      "  Message('control_change', channel=9, control=4, value=54, time=5),\n",
      "  Message('note_on', channel=9, note=51, velocity=0, time=1),\n",
      "  Message('control_change', channel=9, control=4, value=45, time=14),\n",
      "  Message('note_on', channel=9, note=44, velocity=102, time=20),\n",
      "  Message('control_change', channel=9, control=4, value=54, time=1),\n",
      "  Message('note_on', channel=9, note=36, velocity=56, time=1),\n",
      "  Message('note_on', channel=9, note=51, velocity=117, time=4),\n",
      "  Message('control_change', channel=9, control=4, value=63, time=17),\n",
      "  Message('control_change', channel=9, control=4, value=72, time=22),\n",
      "  Message('control_change', channel=9, control=4, value=73, time=0),\n",
      "  Message('control_change', channel=9, control=4, value=80, time=22),\n",
      "  Message('control_change', channel=9, control=4, value=88, time=21),\n",
      "  Message('control_change', channel=9, control=4, value=90, time=5),\n",
      "  Message('note_on', channel=9, note=44, velocity=0, time=0),\n",
      "  Message('note_on', channel=9, note=36, velocity=0, time=3),\n",
      "  Message('note_on', channel=9, note=51, velocity=0, time=4),\n",
      "  Message('control_change', channel=9, control=4, value=87, time=14),\n",
      "  Message('note_on', channel=9, note=38, velocity=33, time=6),\n",
      "  Message('control_change', channel=9, control=4, value=84, time=16),\n",
      "  Message('control_change', channel=9, control=4, value=81, time=22),\n",
      "  Message('control_change', channel=9, control=4, value=77, time=22),\n",
      "  Message('control_change', channel=9, control=4, value=74, time=21),\n",
      "  Message('note_on', channel=9, note=38, velocity=0, time=13),\n",
      "  Message('control_change', channel=9, control=4, value=71, time=9),\n",
      "  Message('note_on', channel=9, note=44, velocity=22, time=6),\n",
      "  Message('note_on', channel=9, note=38, velocity=32, time=7),\n",
      "  Message('control_change', channel=9, control=4, value=67, time=9),\n",
      "  Message('control_change', channel=9, control=4, value=64, time=22),\n",
      "  Message('control_change', channel=9, control=4, value=61, time=21),\n",
      "  Message('control_change', channel=9, control=4, value=59, time=11),\n",
      "  Message('control_change', channel=9, control=4, value=31, time=21),\n",
      "  Message('note_on', channel=9, note=44, velocity=0, time=2),\n",
      "  Message('note_on', channel=9, note=38, velocity=0, time=8),\n",
      "  Message('control_change', channel=9, control=4, value=2, time=12),\n",
      "  Message('control_change', channel=9, control=4, value=0, time=1),\n",
      "  Message('note_on', channel=9, note=43, velocity=106, time=19),\n",
      "  Message('control_change', channel=9, control=4, value=16, time=3),\n",
      "  Message('control_change', channel=9, control=4, value=32, time=22),\n",
      "  Message('control_change', channel=9, control=4, value=48, time=22),\n",
      "  Message('control_change', channel=9, control=4, value=64, time=21),\n",
      "  Message('control_change', channel=9, control=4, value=78, time=18),\n",
      "  Message('note_on', channel=9, note=43, velocity=0, time=7),\n",
      "  Message('control_change', channel=9, control=4, value=84, time=15),\n",
      "  Message('note_on', channel=9, note=37, velocity=71, time=0),\n",
      "  Message('note_on', channel=9, note=44, velocity=102, time=2),\n",
      "  Message('control_change', channel=9, control=4, value=90, time=19),\n",
      "  Message('control_change', channel=9, control=4, value=86, time=44),\n",
      "  Message('note_on', channel=9, note=37, velocity=0, time=29),\n",
      "  Message('note_on', channel=9, note=44, velocity=0, time=2),\n",
      "  Message('control_change', channel=9, control=4, value=82, time=12),\n",
      "  Message('note_on', channel=9, note=36, velocity=51, time=18),\n",
      "  Message('note_on', channel=9, note=51, velocity=88, time=2),\n",
      "  Message('control_change', channel=9, control=4, value=78, time=24),\n",
      "  Message('control_change', channel=9, control=4, value=74, time=43),\n",
      "  Message('control_change', channel=9, control=4, value=73, time=5),\n",
      "  Message('note_on', channel=9, note=36, velocity=0, time=20),\n",
      "  Message('note_on', channel=9, note=51, velocity=0, time=0),\n",
      "  Message('control_change', channel=9, control=4, value=64, time=1),\n",
      "  Message('note_on', channel=9, note=38, velocity=29, time=11),\n",
      "  Message('control_change', channel=9, control=4, value=55, time=11),\n",
      "  Message('control_change', channel=9, control=4, value=54, time=2),\n",
      "  Message('control_change', channel=9, control=4, value=59, time=21),\n",
      "  Message('control_change', channel=9, control=4, value=64, time=22),\n",
      "  Message('control_change', channel=9, control=4, value=67, time=10),\n",
      "  Message('control_change', channel=9, control=4, value=75, time=22),\n",
      "  Message('note_on', channel=9, note=38, velocity=0, time=6),\n",
      "  Message('control_change', channel=9, control=4, value=83, time=16),\n",
      "  Message('note_on', channel=9, note=36, velocity=26, time=13),\n",
      "  Message('control_change', channel=9, control=4, value=90, time=3),\n",
      "  Message('note_on', channel=9, note=51, velocity=77, time=0),\n",
      "  Message('control_change', channel=9, control=4, value=87, time=22),\n",
      "  Message('control_change', channel=9, control=4, value=83, time=21),\n",
      "  Message('control_change', channel=9, control=4, value=79, time=22),\n",
      "  Message('control_change', channel=9, control=4, value=75, time=22),\n",
      "  Message('note_on', channel=9, note=36, velocity=0, time=4),\n",
      "  Message('note_on', channel=9, note=51, velocity=0, time=2),\n",
      "  Message('control_change', channel=9, control=4, value=72, time=16),\n",
      "  Message('note_on', channel=9, note=44, velocity=85, time=8),\n",
      "  Message('note_on', channel=9, note=51, velocity=99, time=12),\n",
      "  Message('control_change', channel=9, control=4, value=68, time=1),\n",
      "  Message('note_on', channel=9, note=36, velocity=51, time=8),\n",
      "  Message('control_change', channel=9, control=4, value=64, time=14),\n",
      "  Message('control_change', channel=9, control=4, value=60, time=22),\n",
      "  Message('control_change', channel=9, control=4, value=59, time=6),\n",
      "  Message('control_change', channel=9, control=4, value=33, time=21),\n",
      "  Message('note_on', channel=9, note=44, velocity=0, time=10),\n",
      "  Message('control_change', channel=9, control=4, value=7, time=12),\n",
      "  Message('note_on', channel=9, note=51, velocity=0, time=0),\n",
      "  Message('control_change', channel=9, control=4, value=0, time=6),\n",
      "  Message('note_on', channel=9, note=38, velocity=21, time=1),\n",
      "  Message('note_on', channel=9, note=36, velocity=0, time=2),\n",
      "  Message('control_change', channel=9, control=4, value=18, time=19),\n",
      "  Message('control_change', channel=9, control=4, value=36, time=21),\n",
      "  Message('control_change', channel=9, control=4, value=54, time=22),\n",
      "  Message('control_change', channel=9, control=4, value=72, time=22),\n",
      "  Message('control_change', channel=9, control=4, value=78, time=7),\n",
      "  Message('note_on', channel=9, note=38, velocity=0, time=0),\n",
      "  Message('control_change', channel=9, control=4, value=84, time=22),\n",
      "  Message('note_on', channel=9, note=51, velocity=36, time=7),\n",
      "  Message('control_change', channel=9, control=4, value=90, time=15),\n",
      "  Message('note_on', channel=9, note=38, velocity=12, time=6),\n",
      "  Message('control_change', channel=9, control=4, value=88, time=37),\n",
      "  Message('note_on', channel=9, note=51, velocity=0, time=36),\n",
      "  Message('control_change', channel=9, control=4, value=86, time=8),\n",
      "  Message('note_on', channel=9, note=38, velocity=0, time=13),\n",
      "  Message('note_on', channel=9, note=51, velocity=29, time=20),\n",
      "  Message('note_on', channel=9, note=36, velocity=48, time=1),\n",
      "  Message('control_change', channel=9, control=4, value=83, time=9),\n",
      "  Message('control_change', channel=9, control=4, value=81, time=28),\n",
      "  Message('control_change', channel=9, control=4, value=76, time=21),\n",
      "  Message('control_change', channel=9, control=4, value=71, time=22),\n",
      "  Message('control_change', channel=9, control=4, value=67, time=13),\n",
      "  Message('note_on', channel=9, note=36, velocity=0, time=0),\n",
      "  Message('note_on', channel=9, note=51, velocity=0, time=0),\n",
      "  Message('control_change', channel=9, control=4, value=70, time=22),\n",
      "  Message('note_on', channel=9, note=44, velocity=102, time=13),\n",
      "  Message('note_on', channel=9, note=53, velocity=84, time=6),\n",
      "  Message('control_change', channel=9, control=4, value=73, time=1),\n",
      "  Message('note_on', channel=9, note=40, velocity=98, time=3),\n",
      "  Message('control_change', channel=9, control=4, value=76, time=20),\n",
      "  Message('control_change', channel=9, control=4, value=77, time=0),\n",
      "  Message('control_change', channel=9, control=4, value=82, time=22),\n",
      "  Message('control_change', channel=9, control=4, value=87, time=22),\n",
      "  Message('control_change', channel=9, control=4, value=90, time=9),\n",
      "  Message('note_on', channel=9, note=44, velocity=0, time=10),\n",
      "  Message('note_on', channel=9, note=53, velocity=0, time=7),\n",
      "  Message('note_on', channel=9, note=40, velocity=0, time=4),\n",
      "  Message('control_change', channel=9, control=4, value=86, time=22),\n",
      "  Message('note_on', channel=9, note=38, velocity=32, time=24),\n",
      "  Message('control_change', channel=9, control=4, value=82, time=20),\n",
      "  Message('control_change', channel=9, control=4, value=77, time=43),\n",
      "  Message('note_on', channel=9, note=44, velocity=25, time=20),\n",
      "  Message('control_change', channel=9, control=4, value=74, time=8),\n",
      "  Message('note_on', channel=9, note=38, velocity=0, time=3),\n",
      "  Message('note_on', channel=9, note=36, velocity=41, time=11),\n",
      "  Message('control_change', channel=9, control=4, value=42, time=7),\n",
      "  Message('note_on', channel=9, note=51, velocity=43, time=8),\n",
      "  Message('control_change', channel=9, control=4, value=10, time=14),\n",
      "  Message('control_change', channel=9, control=4, value=0, time=7),\n",
      "  Message('control_change', channel=9, control=4, value=15, time=22),\n",
      "  Message('note_on', channel=9, note=44, velocity=0, time=14),\n",
      "  Message('control_change', channel=9, control=4, value=31, time=8),\n",
      "  Message('note_on', channel=9, note=36, velocity=0, time=13),\n",
      "  Message('control_change', channel=9, control=4, value=47, time=9),\n",
      "  Message('note_on', channel=9, note=38, velocity=19, time=5),\n",
      "  Message('note_on', channel=9, note=51, velocity=0, time=1),\n",
      "  Message('control_change', channel=9, control=4, value=63, time=15),\n",
      "  Message('control_change', channel=9, control=4, value=78, time=19),\n",
      "  Message('control_change', channel=9, control=4, value=84, time=22),\n",
      "  Message('control_change', channel=9, control=4, value=90, time=22),\n",
      "  Message('note_on', channel=9, note=38, velocity=0, time=15),\n",
      "  Message('note_on', channel=9, note=44, velocity=97, time=25),\n",
      "  Message('note_on', channel=9, note=38, velocity=16, time=1),\n",
      "  Message('control_change', channel=9, control=4, value=88, time=2),\n",
      "  Message('note_on', channel=9, note=51, velocity=79, time=6),\n",
      "  Message('control_change', channel=9, control=4, value=86, time=38),\n",
      "  Message('control_change', channel=9, control=4, value=84, time=43),\n",
      "  Message('note_on', channel=9, note=38, velocity=0, time=4),\n",
      "  Message('note_on', channel=9, note=44, velocity=0, time=0),\n",
      "  Message('note_on', channel=9, note=51, velocity=0, time=9),\n",
      "  Message('control_change', channel=9, control=4, value=82, time=29),\n",
      "  Message('note_on', channel=9, note=36, velocity=44, time=4),\n",
      "  Message('control_change', channel=9, control=4, value=72, time=18),\n",
      "  Message('control_change', channel=9, control=4, value=61, time=22),\n",
      "  Message('control_change', channel=9, control=4, value=64, time=22),\n",
      "  Message('control_change', channel=9, control=4, value=67, time=21),\n",
      "  Message('note_on', channel=9, note=36, velocity=0, time=10),\n",
      "  Message('control_change', channel=9, control=4, value=69, time=2),\n",
      "  Message('note_on', channel=9, note=44, velocity=20, time=13),\n",
      "  Message('note_on', channel=9, note=37, velocity=81, time=3),\n",
      "  Message('control_change', channel=9, control=4, value=77, time=6),\n",
      "  Message('note_on', channel=9, note=51, velocity=40, time=11),\n",
      "  Message('control_change', channel=9, control=4, value=86, time=10),\n",
      "  Message('control_change', channel=9, control=4, value=90, time=11),\n",
      "  Message('control_change', channel=9, control=4, value=86, time=43),\n",
      "  Message('note_on', channel=9, note=44, velocity=0, time=9),\n",
      "  Message('note_on', channel=9, note=37, velocity=0, time=5),\n",
      "  Message('note_on', channel=9, note=51, velocity=0, time=16),\n",
      "  Message('control_change', channel=9, control=4, value=82, time=14),\n",
      "  Message('note_on', channel=9, note=38, velocity=29, time=8),\n",
      "  Message('note_on', channel=9, note=51, velocity=39, time=4),\n",
      "  Message('control_change', channel=9, control=4, value=77, time=31),\n",
      "  Message('control_change', channel=9, control=4, value=74, time=31),\n",
      "  Message('control_change', channel=9, control=4, value=44, time=21),\n",
      "  Message('note_on', channel=9, note=38, velocity=0, time=6),\n",
      "  Message('note_on', channel=9, note=51, velocity=0, time=6),\n",
      "  Message('control_change', channel=9, control=4, value=14, time=10),\n",
      "  Message('control_change', channel=9, control=4, value=0, time=9),\n",
      "  Message('note_on', channel=9, note=44, velocity=102, time=4),\n",
      "  Message('note_on', channel=9, note=53, velocity=72, time=3),\n",
      "  Message('control_change', channel=9, control=4, value=14, time=15),\n",
      "  Message('control_change', channel=9, control=4, value=29, time=21),\n",
      "  Message('control_change', channel=9, control=4, value=44, time=22),\n",
      "  Message('control_change', channel=9, control=4, value=59, time=22),\n",
      "  Message('note_on', channel=9, note=44, velocity=0, time=10),\n",
      "  Message('control_change', channel=9, control=4, value=69, time=4),\n",
      "  Message('note_on', channel=9, note=53, velocity=0, time=0),\n",
      "  Message('control_change', channel=9, control=4, value=79, time=22),\n",
      "  Message('note_on', channel=9, note=38, velocity=31, time=12),\n",
      "  Message('control_change', channel=9, control=4, value=89, time=10),\n",
      "  Message('control_change', channel=9, control=4, value=90, time=0),\n",
      "  Message('control_change', channel=9, control=4, value=87, time=45),\n",
      "  Message('note_on', channel=9, note=38, velocity=0, time=39),\n",
      "  Message('control_change', channel=9, control=4, value=84, time=4),\n",
      "  Message('note_on', channel=9, note=36, velocity=34, time=7),\n",
      "  Message('note_on', channel=9, note=44, velocity=30, time=4),\n",
      "  Message('note_on', channel=9, note=51, velocity=35, time=6),\n",
      "  Message('control_change', channel=9, control=4, value=81, time=27),\n",
      "  Message('note_on', channel=9, note=38, velocity=8, time=19),\n",
      "  Message('control_change', channel=9, control=4, value=78, time=24),\n",
      "  Message('note_on', channel=9, note=36, velocity=0, time=14),\n",
      "  Message('control_change', channel=9, control=4, value=76, time=2),\n",
      "  Message('note_on', channel=9, note=44, velocity=0, time=2),\n",
      "  Message('note_on', channel=9, note=51, velocity=0, time=6),\n",
      "  Message('note_on', channel=9, note=51, velocity=22, time=18),\n",
      "  Message('control_change', channel=9, control=4, value=81, time=18),\n",
      "  Message('note_on', channel=9, note=38, velocity=0, time=10),\n",
      "  Message('control_change', channel=9, control=4, value=86, time=33),\n",
      "  Message('note_on', channel=9, note=51, velocity=0, time=33),\n",
      "  Message('control_change', channel=9, control=4, value=90, time=2),\n",
      "  Message('note_on', channel=9, note=53, velocity=73, time=20),\n",
      "  Message('control_change', channel=9, control=4, value=87, time=2),\n",
      "  Message('note_on', channel=9, note=44, velocity=100, time=7),\n",
      "  Message('control_change', channel=9, control=4, value=83, time=14),\n",
      "  Message('control_change', channel=9, control=4, value=80, time=22),\n",
      "  Message('control_change', channel=9, control=4, value=76, time=22),\n",
      "  Message('control_change', channel=9, control=4, value=73, time=22),\n",
      "  Message('note_on', channel=9, note=53, velocity=0, time=4),\n",
      "  Message('note_on', channel=9, note=44, velocity=0, time=10),\n",
      "  Message('control_change', channel=9, control=4, value=69, time=7),\n",
      "  Message('note_on', channel=9, note=36, velocity=40, time=3),\n",
      "  Message('control_change', channel=9, control=4, value=66, time=19),\n",
      "  Message('control_change', channel=9, control=4, value=62, time=22),\n",
      "  Message('control_change', channel=9, control=4, value=59, time=22),\n",
      "  Message('control_change', channel=9, control=4, value=57, time=8),\n",
      "  Message('control_change', channel=9, control=4, value=29, time=22),\n",
      "  Message('note_on', channel=9, note=36, velocity=0, time=1),\n",
      "  Message('control_change', channel=9, control=4, value=0, time=21),\n",
      "  Message('note_on', channel=9, note=51, velocity=42, time=12),\n",
      "  Message('note_on', channel=9, note=44, velocity=25, time=9),\n",
      "  Message('control_change', channel=9, control=4, value=16, time=1),\n",
      "  Message('note_on', channel=9, note=38, velocity=70, time=2),\n",
      "  Message('control_change', channel=9, control=4, value=33, time=19),\n",
      "  Message('control_change', channel=9, control=4, value=50, time=22),\n",
      "  Message('control_change', channel=9, control=4, value=67, time=22),\n",
      "  Message('control_change', channel=9, control=4, value=78, time=13),\n",
      "  Message('note_on', channel=9, note=51, velocity=0, time=6),\n",
      "  Message('note_on', channel=9, note=38, velocity=0, time=9),\n",
      "  Message('note_on', channel=9, note=38, velocity=22, time=0),\n",
      "  Message('note_on', channel=9, note=44, velocity=0, time=0),\n",
      "  Message('note_on', channel=9, note=38, velocity=0, time=3),\n",
      "  Message('control_change', channel=9, control=4, value=84, time=4),\n",
      "  Message('note_on', channel=9, note=51, velocity=38, time=8),\n",
      "  Message('control_change', channel=9, control=4, value=90, time=13),\n",
      "  Message('control_change', channel=9, control=4, value=88, time=44),\n",
      "  Message('note_on', channel=9, note=51, velocity=0, time=36),\n",
      "  Message('control_change', channel=9, control=4, value=86, time=7),\n",
      "  Message('note_on', channel=9, note=53, velocity=66, time=28),\n",
      "  Message('note_on', channel=9, note=44, velocity=97, time=9),\n",
      "  Message('control_change', channel=9, control=4, value=83, time=7),\n",
      "  Message('control_change', channel=9, control=4, value=81, time=33),\n",
      "  Message('control_change', channel=9, control=4, value=73, time=22),\n",
      "  Message('control_change', channel=9, control=4, value=64, time=22),\n",
      "  Message('note_on', channel=9, note=53, velocity=0, time=0),\n",
      "  Message('control_change', channel=9, control=4, value=63, time=3),\n",
      "  Message('note_on', channel=9, note=44, velocity=0, time=8),\n",
      "  Message('control_change', channel=9, control=4, value=66, time=13),\n",
      "  Message('note_on', channel=9, note=38, velocity=28, time=2),\n",
      "  Message('control_change', channel=9, control=4, value=70, time=20),\n",
      "  Message('control_change', channel=9, control=4, value=74, time=22),\n",
      "  Message('control_change', channel=9, control=4, value=75, time=1),\n",
      "  Message('control_change', channel=9, control=4, value=81, time=22),\n",
      "  Message('control_change', channel=9, control=4, value=87, time=22),\n",
      "  Message('note_on', channel=9, note=38, velocity=0, time=7),\n",
      "  Message('control_change', channel=9, control=4, value=90, time=2),\n",
      "  Message('note_on', channel=9, note=36, velocity=36, time=10),\n",
      "  Message('note_on', channel=9, note=44, velocity=30, time=13),\n",
      "  Message('note_on', channel=9, note=38, velocity=30, time=1),\n",
      "  Message('note_on', channel=9, note=51, velocity=35, time=5),\n",
      "  Message('control_change', channel=9, control=4, value=86, time=14),\n",
      "  Message('control_change', channel=9, control=4, value=82, time=44),\n",
      "  Message('note_on', channel=9, note=36, velocity=0, time=16),\n",
      "  Message('note_on', channel=9, note=38, velocity=0, time=14),\n",
      "  Message('note_on', channel=9, note=44, velocity=0, time=0),\n",
      "  Message('note_on', channel=9, note=51, velocity=0, time=5),\n",
      "  Message('control_change', channel=9, control=4, value=77, time=8),\n",
      "  Message('note_on', channel=9, note=51, velocity=36, time=10),\n",
      "  Message('note_on', channel=9, note=38, velocity=26, time=11),\n",
      "  Message('control_change', channel=9, control=4, value=74, time=8),\n",
      "  Message('control_change', channel=9, control=4, value=44, time=22),\n",
      "  Message('control_change', channel=9, control=4, value=14, time=22),\n",
      "  Message('control_change', channel=9, control=4, value=0, time=10),\n",
      "  Message('note_on', channel=9, note=51, velocity=0, time=21),\n",
      "  Message('control_change', channel=9, control=4, value=14, time=1),\n",
      "  Message('note_on', channel=9, note=38, velocity=0, time=10),\n",
      "  Message('control_change', channel=9, control=4, value=29, time=11),\n",
      "  Message('note_on', channel=9, note=53, velocity=67, time=6),\n",
      "  Message('note_on', channel=9, note=44, velocity=100, time=2),\n",
      "  Message('control_change', channel=9, control=4, value=44, time=14),\n",
      "  Message('control_change', channel=9, control=4, value=59, time=22),\n",
      "  Message('control_change', channel=9, control=4, value=67, time=10),\n",
      "  Message('control_change', channel=9, control=4, value=78, time=22),\n",
      "  Message('control_change', channel=9, control=4, value=89, time=21),\n",
      "  Message('control_change', channel=9, control=4, value=90, time=2),\n",
      "  Message('note_on', channel=9, note=44, velocity=0, time=1),\n",
      "  Message('note_on', channel=9, note=53, velocity=0, time=0),\n",
      "  Message('note_on', channel=9, note=36, velocity=44, time=12),\n",
      "  Message('control_change', channel=9, control=4, value=86, time=30),\n",
      "  Message('control_change', channel=9, control=4, value=82, time=44),\n",
      "  Message('note_on', channel=9, note=36, velocity=0, time=19),\n",
      "  Message('control_change', channel=9, control=4, value=78, time=24),\n",
      "  Message('note_on', channel=9, note=38, velocity=80, time=11),\n",
      "  Message('note_on', channel=9, note=44, velocity=22, time=1),\n",
      "  Message('note_on', channel=9, note=51, velocity=45, time=9),\n",
      "  Message('control_change', channel=9, control=4, value=74, time=23),\n",
      "  Message('control_change', channel=9, control=4, value=73, time=4),\n",
      "  Message('control_change', channel=9, control=4, value=67, time=22),\n",
      "  Message('control_change', channel=9, control=4, value=60, time=22),\n",
      "  Message('control_change', channel=9, control=4, value=59, time=3),\n",
      "  Message('note_on', channel=9, note=38, velocity=0, time=9),\n",
      "  Message('note_on', channel=9, note=44, velocity=0, time=3),\n",
      "  Message('note_on', channel=9, note=51, velocity=0, time=7),\n",
      "  Message('control_change', channel=9, control=4, value=64, time=2),\n",
      "  Message('note_on', channel=9, note=38, velocity=31, time=21),\n",
      "  Message('control_change', channel=9, control=4, value=69, time=1),\n",
      "  Message('note_on', channel=9, note=51, velocity=23, time=3),\n",
      "  Message('control_change', channel=9, control=4, value=71, time=4),\n",
      "  Message('control_change', channel=9, control=4, value=78, time=22),\n",
      "  Message('control_change', channel=9, control=4, value=85, time=22),\n",
      "  Message('control_change', channel=9, control=4, value=90, time=13),\n",
      "  Message('control_change', channel=9, control=4, value=87, time=22),\n",
      "  Message('note_on', channel=9, note=38, velocity=0, time=6),\n",
      "  Message('note_on', channel=9, note=51, velocity=0, time=5),\n",
      "  Message('control_change', channel=9, control=4, value=84, time=10),\n",
      "  Message('note_on', channel=9, note=53, velocity=93, time=13),\n",
      "  Message('control_change', channel=9, control=4, value=80, time=9),\n",
      "  Message('note_on', channel=9, note=44, velocity=100, time=2),\n",
      "  Message('control_change', channel=9, control=4, value=77, time=20),\n",
      "  Message('control_change', channel=9, control=4, value=74, time=22),\n",
      "  Message('control_change', channel=9, control=4, value=70, time=21),\n",
      "  Message('note_on', channel=9, note=53, velocity=0, time=20),\n",
      "  Message('control_change', channel=9, control=4, value=67, time=2),\n",
      "  Message('note_on', channel=9, note=44, velocity=0, time=9),\n",
      "  Message('note_on', channel=9, note=37, velocity=72, time=7),\n",
      "  Message('control_change', channel=9, control=4, value=64, time=6),\n",
      "  Message('control_change', channel=9, control=4, value=60, time=22),\n",
      "  Message('control_change', channel=9, control=4, value=58, time=11),\n",
      "  Message('control_change', channel=9, control=4, value=29, time=22),\n",
      "  Message('control_change', channel=9, control=4, value=0, time=22),\n",
      "  Message('note_on', channel=9, note=37, velocity=0, time=10),\n",
      "  Message('control_change', channel=9, control=4, value=17, time=12),\n",
      "  Message('control_change', channel=9, control=4, value=35, time=21),\n",
      "  Message('note_on', channel=9, note=51, velocity=32, time=4),\n",
      "  Message('note_on', channel=9, note=36, velocity=44, time=13),\n",
      "  Message('control_change', channel=9, control=4, value=53, time=5),\n",
      "  Message('control_change', channel=9, control=4, value=71, time=22),\n",
      "  Message('control_change', channel=9, control=4, value=77, time=7),\n",
      "  Message('control_change', channel=9, control=4, value=83, time=22),\n",
      "  Message('control_change', channel=9, control=4, value=90, time=22),\n",
      "  Message('note_on', channel=9, note=51, velocity=0, time=2),\n",
      "  Message('note_on', channel=9, note=36, velocity=0, time=14),\n",
      "  Message('control_change', channel=9, control=4, value=87, time=5),\n",
      "  Message('note_on', channel=9, note=51, velocity=34, time=8),\n",
      "  Message('control_change', channel=9, control=4, value=84, time=14),\n",
      "  Message('control_change', channel=9, control=4, value=80, time=22),\n",
      "  Message('control_change', channel=9, control=4, value=77, time=22),\n",
      "  Message('control_change', channel=9, control=4, value=74, time=21),\n",
      "  Message('note_on', channel=9, note=38, velocity=19, time=8),\n",
      "  Message('note_on', channel=9, note=51, velocity=0, time=7),\n",
      "  Message('control_change', channel=9, control=4, value=70, time=7),\n",
      "  Message('control_change', channel=9, control=4, value=67, time=22),\n",
      "  Message('note_on', channel=9, note=53, velocity=61, time=5),\n",
      "  Message('note_on', channel=9, note=44, velocity=102, time=1),\n",
      "  Message('control_change', channel=9, control=4, value=63, time=16),\n",
      "  Message('control_change', channel=9, control=4, value=60, time=17),\n",
      "  Message('note_on', channel=9, note=38, velocity=0, time=19),\n",
      "  Message('control_change', channel=9, control=4, value=64, time=24),\n",
      "  Message('note_on', channel=9, note=53, velocity=0, time=16),\n",
      "  Message('note_on', channel=9, note=44, velocity=0, time=2),\n",
      "  Message('control_change', channel=9, control=4, value=67, time=3),\n",
      "  Message('note_on', channel=9, note=36, velocity=48, time=14),\n",
      "  Message('control_change', channel=9, control=4, value=75, time=7),\n",
      "  Message('control_change', channel=9, control=4, value=84, time=22),\n",
      "  Message('control_change', channel=9, control=4, value=90, time=13),\n",
      "  Message('control_change', channel=9, control=4, value=86, time=22),\n",
      "  Message('control_change', channel=9, control=4, value=82, time=22),\n",
      "  Message('note_on', channel=9, note=36, velocity=0, time=7),\n",
      "  Message('control_change', channel=9, control=4, value=78, time=15),\n",
      "  Message('note_on', channel=9, note=37, velocity=72, time=16),\n",
      "  Message('note_on', channel=9, note=51, velocity=39, time=1),\n",
      "  Message('note_on', channel=9, note=44, velocity=22, time=2),\n",
      "  Message('control_change', channel=9, control=4, value=74, time=2),\n",
      "  Message('control_change', channel=9, control=4, value=70, time=22),\n",
      "  Message('control_change', channel=9, control=4, value=65, time=22),\n",
      "  Message('control_change', channel=9, control=4, value=61, time=22),\n",
      "  Message('control_change', channel=9, control=4, value=58, time=14),\n",
      "  Message('note_on', channel=9, note=37, velocity=0, time=8),\n",
      "  Message('note_on', channel=9, note=51, velocity=0, time=2),\n",
      "  Message('note_on', channel=9, note=44, velocity=0, time=1),\n",
      "  Message('control_change', channel=9, control=4, value=30, time=11),\n",
      "  Message('note_on', channel=9, note=51, velocity=32, time=10),\n",
      "  Message('note_on', channel=9, note=38, velocity=28, time=7),\n",
      "  Message('control_change', channel=9, control=4, value=2, time=5),\n",
      "  Message('control_change', channel=9, control=4, value=0, time=1),\n",
      "  Message('control_change', channel=9, control=4, value=15, time=22),\n",
      "  Message('control_change', channel=9, control=4, value=30, time=21),\n",
      "  Message('control_change', channel=9, control=4, value=46, time=22),\n",
      "  Message('note_on', channel=9, note=51, velocity=0, time=16),\n",
      "  Message('control_change', channel=9, control=4, value=61, time=6),\n",
      "  Message('note_on', channel=9, note=38, velocity=0, time=0),\n",
      "  Message('control_change', channel=9, control=4, value=76, time=22),\n",
      "  Message('note_on', channel=9, note=53, velocity=66, time=0),\n",
      "  Message('control_change', channel=9, control=4, value=78, time=1),\n",
      "  Message('control_change', channel=9, control=4, value=84, time=22),\n",
      "  Message('note_on', channel=9, note=44, velocity=97, time=0),\n",
      "  Message('control_change', channel=9, control=4, value=90, time=22),\n",
      "  Message('control_change', channel=9, control=4, value=85, time=43),\n",
      "  Message('note_on', channel=9, note=53, velocity=0, time=5),\n",
      "  Message('note_on', channel=9, note=44, velocity=0, time=24),\n",
      "  Message('note_on', channel=9, note=38, velocity=37, time=6),\n",
      "  Message('control_change', channel=9, control=4, value=79, time=9),\n",
      "  Message('control_change', channel=9, control=4, value=73, time=43),\n",
      "  Message('control_change', channel=9, control=4, value=68, time=34),\n",
      "  Message('note_on', channel=9, note=38, velocity=0, time=8),\n",
      "  Message('control_change', channel=9, control=4, value=54, time=13),\n",
      "  Message('note_on', channel=9, note=51, velocity=28, time=15),\n",
      "  Message('note_on', channel=9, note=36, velocity=36, time=1),\n",
      "  Message('control_change', channel=9, control=4, value=39, time=6),\n",
      "  Message('control_change', channel=9, control=4, value=31, time=10),\n",
      "  Message('note_on', channel=9, note=44, velocity=25, time=3),\n",
      "  Message('note_on', channel=9, note=38, velocity=17, time=4),\n",
      "  Message('control_change', channel=9, control=4, value=43, time=15),\n",
      "  Message('control_change', channel=9, control=4, value=56, time=22),\n",
      "  Message('control_change', channel=9, control=4, value=63, time=11),\n",
      "  Message('note_on', channel=9, note=36, velocity=0, time=21),\n",
      "  Message('note_on', channel=9, note=51, velocity=0, time=0),\n",
      "  Message('control_change', channel=9, control=4, value=74, time=1),\n",
      "  Message('note_on', channel=9, note=44, velocity=0, time=20),\n",
      "  Message('control_change', channel=9, control=4, value=86, time=2),\n",
      "  Message('note_on', channel=9, note=38, velocity=0, time=1),\n",
      "  Message('note_on', channel=9, note=51, velocity=31, time=3),\n",
      "  Message('control_change', channel=9, control=4, value=90, time=2),\n",
      "  Message('note_on', channel=9, note=38, velocity=13, time=7),\n",
      "  Message('control_change', channel=9, control=4, value=86, time=14),\n",
      "  Message('control_change', channel=9, control=4, value=81, time=22),\n",
      "  Message('control_change', channel=9, control=4, value=76, time=22),\n",
      "  Message('control_change', channel=9, control=4, value=71, time=22),\n",
      "  Message('note_on', channel=9, note=51, velocity=0, time=5),\n",
      "  Message('note_on', channel=9, note=38, velocity=0, time=9),\n",
      "  Message('control_change', channel=9, control=4, value=67, time=7),\n",
      "  Message('note_on', channel=9, note=53, velocity=69, time=6),\n",
      "  Message('note_on', channel=9, note=44, velocity=105, time=13),\n",
      "  Message('control_change', channel=9, control=4, value=62, time=3),\n",
      "  Message('control_change', channel=9, control=4, value=58, time=15),\n",
      "  Message('control_change', channel=9, control=4, value=30, time=21),\n",
      "  Message('control_change', channel=9, control=4, value=2, time=22),\n",
      "  Message('control_change', channel=9, control=4, value=0, time=2),\n",
      "  Message('note_on', channel=9, note=53, velocity=0, time=18),\n",
      "  Message('control_change', channel=9, control=4, value=14, time=3),\n",
      "  Message('note_on', channel=9, note=44, velocity=0, time=10),\n",
      "  Message('note_on', channel=9, note=36, velocity=41, time=7),\n",
      "  Message('control_change', channel=9, control=4, value=28, time=5),\n",
      "  Message('control_change', channel=9, control=4, value=43, time=22),\n",
      "  Message('control_change', channel=9, control=4, value=57, time=22),\n",
      "  Message('control_change', channel=9, control=4, value=72, time=21),\n",
      "  Message('control_change', channel=9, control=4, value=80, time=22),\n",
      "  Message('note_on', channel=9, note=36, velocity=0, time=1),\n",
      "  Message('control_change', channel=9, control=4, value=89, time=21),\n",
      "  Message('control_change', channel=9, control=4, value=90, time=0),\n",
      "  Message('note_on', channel=9, note=38, velocity=64, time=6),\n",
      "  Message('note_on', channel=9, note=51, velocity=39, time=10),\n",
      "  Message('note_on', channel=9, note=44, velocity=30, time=4),\n",
      "  Message('control_change', channel=9, control=4, value=87, time=2),\n",
      "  Message('control_change', channel=9, control=4, value=84, time=21),\n",
      "  Message('control_change', channel=9, control=4, value=81, time=22),\n",
      "  Message('control_change', channel=9, control=4, value=77, time=22),\n",
      "  Message('note_on', channel=9, note=38, velocity=0, time=13),\n",
      "  Message('control_change', channel=9, control=4, value=74, time=9),\n",
      "  Message('note_on', channel=9, note=51, velocity=0, time=0),\n",
      "  Message('note_on', channel=9, note=44, velocity=0, time=5),\n",
      "  Message('note_on', channel=9, note=51, velocity=31, time=15),\n",
      "  Message('control_change', channel=9, control=4, value=71, time=1),\n",
      "  Message('note_on', channel=9, note=38, velocity=21, time=11),\n",
      "  Message('control_change', channel=9, control=4, value=68, time=11),\n",
      "  Message('control_change', channel=9, control=4, value=65, time=15),\n",
      "  Message('control_change', channel=9, control=4, value=56, time=21),\n",
      "  Message('control_change', channel=9, control=4, value=46, time=22),\n",
      "  Message('note_on', channel=9, note=51, velocity=0, time=13),\n",
      "  Message('control_change', channel=9, control=4, value=36, time=7),\n",
      "  Message('note_on', channel=9, note=38, velocity=0, time=5),\n",
      "  Message('control_change', channel=9, control=4, value=45, time=17),\n",
      "  Message('note_on', channel=9, note=53, velocity=76, time=2),\n",
      "  Message('note_on', channel=9, note=44, velocity=102, time=1),\n",
      "  Message('control_change', channel=9, control=4, value=55, time=19),\n",
      "  Message('control_change', channel=9, control=4, value=64, time=22),\n",
      "  Message('control_change', channel=9, control=4, value=66, time=2),\n",
      "  Message('control_change', channel=9, control=4, value=76, time=22),\n",
      "  Message('control_change', channel=9, control=4, value=87, time=22),\n",
      "  Message('control_change', channel=9, control=4, value=90, time=4),\n",
      "  Message('note_on', channel=9, note=44, velocity=0, time=2),\n",
      "  Message('note_on', channel=9, note=53, velocity=0, time=0),\n",
      "  Message('note_on', channel=9, note=38, velocity=29, time=10),\n",
      "  Message('control_change', channel=9, control=4, value=86, time=10),\n",
      "  Message('control_change', channel=9, control=4, value=82, time=22),\n",
      "  Message('control_change', channel=9, control=4, value=78, time=22),\n",
      "  Message('control_change', channel=9, control=4, value=74, time=21),\n",
      "  Message('note_on', channel=9, note=38, velocity=0, time=18),\n",
      "  Message('control_change', channel=9, control=4, value=70, time=4),\n",
      "  Message('control_change', channel=9, control=4, value=66, time=22),\n",
      "  Message('note_on', channel=9, note=36, velocity=36, time=5),\n",
      "  Message('note_on', channel=9, note=44, velocity=27, time=6),\n",
      "  Message('note_on', channel=9, note=51, velocity=38, time=9),\n",
      "  Message('control_change', channel=9, control=4, value=62, time=2),\n",
      "  Message('note_on', channel=9, note=38, velocity=9, time=8),\n",
      "  Message('control_change', channel=9, control=4, value=58, time=13),\n",
      "  Message('control_change', channel=9, control=4, value=32, time=22),\n",
      "  Message('control_change', channel=9, control=4, value=6, time=22),\n",
      "  Message('control_change', channel=9, control=4, value=0, time=4),\n",
      "  Message('note_on', channel=9, note=36, velocity=0, time=7),\n",
      "  Message('note_on', channel=9, note=44, velocity=0, time=7),\n",
      "  Message('control_change', channel=9, control=4, value=17, time=8),\n",
      "  Message('note_on', channel=9, note=51, velocity=0, time=1),\n",
      "  Message('note_on', channel=9, note=38, velocity=0, time=10),\n",
      "  Message('note_on', channel=9, note=51, velocity=33, time=10),\n",
      "  Message('control_change', channel=9, control=4, value=34, time=1),\n",
      "  Message('note_on', channel=9, note=38, velocity=21, time=13),\n",
      "  Message('control_change', channel=9, control=4, value=52, time=8),\n",
      "  Message('control_change', channel=9, control=4, value=69, time=22),\n",
      "  Message('control_change', channel=9, control=4, value=78, time=10),\n",
      "  Message('control_change', channel=9, control=4, value=84, time=22),\n",
      "  Message('note_on', channel=9, note=51, velocity=0, time=18),\n",
      "  Message('control_change', channel=9, control=4, value=90, time=4),\n",
      "  Message('note_on', channel=9, note=44, velocity=100, time=8),\n",
      "  Message('note_on', channel=9, note=38, velocity=0, time=2),\n",
      "  Message('note_on', channel=9, note=53, velocity=71, time=9),\n",
      "  Message('control_change', channel=9, control=4, value=88, time=24),\n",
      "  Message('control_change', channel=9, control=4, value=85, time=44),\n",
      "  Message('note_on', channel=9, note=44, velocity=0, time=14),\n",
      "  Message('note_on', channel=9, note=53, velocity=0, time=11),\n",
      "  Message('note_on', channel=9, note=36, velocity=42, time=15),\n",
      "  Message('control_change', channel=9, control=4, value=83, time=3),\n",
      "  Message('control_change', channel=9, control=4, value=81, time=24),\n",
      "  Message('control_change', channel=9, control=4, value=73, time=21),\n",
      "  Message('control_change', channel=9, control=4, value=64, time=22),\n",
      "  Message('control_change', channel=9, control=4, value=63, time=1),\n",
      "  Message('note_on', channel=9, note=36, velocity=0, time=22),\n",
      "  Message('note_on', channel=9, note=44, velocity=25, time=21),\n",
      "  Message('note_on', channel=9, note=37, velocity=72, time=7),\n",
      "  Message('note_on', channel=9, note=51, velocity=45, time=6),\n",
      "  Message('control_change', channel=9, control=4, value=65, time=8),\n",
      "  Message('control_change', channel=9, control=4, value=73, time=22),\n",
      "  Message('control_change', channel=9, control=4, value=82, time=22),\n",
      "  Message('control_change', channel=9, control=4, value=90, time=20),\n",
      "  Message('note_on', channel=9, note=44, velocity=0, time=9),\n",
      "  Message('note_on', channel=9, note=37, velocity=0, time=7),\n",
      "  Message('note_on', channel=9, note=51, velocity=0, time=5),\n",
      "  Message('control_change', channel=9, control=4, value=86, time=1),\n",
      "  Message('control_change', channel=9, control=4, value=82, time=22),\n",
      "  Message('note_on', channel=9, note=51, velocity=31, time=0),\n",
      "  Message('control_change', channel=9, control=4, value=78, time=21),\n",
      "  Message('control_change', channel=9, control=4, value=73, time=22),\n",
      "  Message('control_change', channel=9, control=4, value=69, time=22),\n",
      "  Message('control_change', channel=9, control=4, value=65, time=22),\n",
      "  Message('note_on', channel=9, note=51, velocity=0, time=7),\n",
      "  Message('note_on', channel=9, note=44, velocity=100, time=13),\n",
      "  Message('control_change', channel=9, control=4, value=60, time=1),\n",
      "  Message('control_change', channel=9, control=4, value=58, time=9),\n",
      "  Message('note_on', channel=9, note=53, velocity=106, time=7),\n",
      "  Message('control_change', channel=9, control=4, value=32, time=15),\n",
      "  Message('control_change', channel=9, control=4, value=5, time=22),\n",
      "  Message('control_change', channel=9, control=4, value=0, time=2),\n",
      "  Message('control_change', channel=9, control=4, value=16, time=22),\n",
      "  Message('note_on', channel=9, note=44, velocity=0, time=16),\n",
      "  Message('control_change', channel=9, control=4, value=32, time=6),\n",
      "  Message('note_on', channel=9, note=53, velocity=0, time=11),\n",
      "  Message('control_change', channel=9, control=4, value=48, time=11),\n",
      "  Message('control_change', channel=9, control=4, value=64, time=21),\n",
      "  Message('control_change', channel=9, control=4, value=78, time=19),\n",
      "  Message('control_change', channel=9, control=4, value=84, time=22),\n",
      "  Message('control_change', channel=9, control=4, value=90, time=22),\n",
      "  Message('control_change', channel=9, control=4, value=88, time=43),\n",
      "  Message('note_on', channel=9, note=36, velocity=36, time=7),\n",
      "  Message('note_on', channel=9, note=51, velocity=43, time=4),\n",
      "  Message('control_change', channel=9, control=4, value=85, time=33),\n",
      "  Message('control_change', channel=9, control=4, value=83, time=43),\n",
      "  Message('note_on', channel=9, note=36, velocity=0, time=14),\n",
      "  Message('note_on', channel=9, note=51, velocity=0, time=4),\n",
      "  Message('control_change', channel=9, control=4, value=81, time=4),\n",
      "  Message('note_on', channel=9, note=51, velocity=38, time=16),\n",
      "  Message('control_change', channel=9, control=4, value=74, time=6),\n",
      "  Message('note_on', channel=9, note=45, velocity=95, time=11),\n",
      "  Message('control_change', channel=9, control=4, value=67, time=11),\n",
      "  Message('control_change', channel=9, control=4, value=64, time=8),\n",
      "  Message('control_change', channel=9, control=4, value=67, time=44),\n",
      "  Message('note_on', channel=9, note=51, velocity=0, time=14),\n",
      "  Message('control_change', channel=9, control=4, value=69, time=5),\n",
      "  Message('note_on', channel=9, note=44, velocity=102, time=11),\n",
      "  Message('note_on', channel=9, note=45, velocity=0, time=1),\n",
      "  Message('note_on', channel=9, note=51, velocity=57, time=8),\n",
      "  Message('control_change', channel=9, control=4, value=77, time=1),\n",
      "  Message('control_change', channel=9, control=4, value=86, time=22),\n",
      "  Message('control_change', channel=9, control=4, value=90, time=9),\n",
      "  Message('control_change', channel=9, control=4, value=87, time=22),\n",
      "  Message('control_change', channel=9, control=4, value=83, time=21),\n",
      "  Message('note_on', channel=9, note=44, velocity=0, time=11),\n",
      "  Message('note_on', channel=9, note=51, velocity=0, time=7),\n",
      "  Message('control_change', channel=9, control=4, value=80, time=4),\n",
      "  Message('control_change', channel=9, control=4, value=76, time=22),\n",
      "  Message('note_on', channel=9, note=36, velocity=45, time=2),\n",
      "  Message('control_change', channel=9, control=4, value=72, time=20),\n",
      "  Message('control_change', channel=9, control=4, value=69, time=21),\n",
      "  Message('control_change', channel=9, control=4, value=65, time=22),\n",
      "  Message('control_change', channel=9, control=4, value=62, time=22),\n",
      "  Message('note_on', channel=9, note=36, velocity=0, time=8),\n",
      "  Message('control_change', channel=9, control=4, value=58, time=11),\n",
      "  Message('note_on', channel=9, note=43, velocity=104, time=10),\n",
      "  Message('control_change', channel=9, control=4, value=33, time=11),\n",
      "  Message('note_on', channel=9, note=51, velocity=38, time=0),\n",
      "  Message('control_change', channel=9, control=4, value=7, time=22),\n",
      "  Message('control_change', channel=9, control=4, value=0, time=4),\n",
      "  Message('control_change', channel=9, control=4, value=16, time=22),\n",
      "  Message('control_change', channel=9, control=4, value=32, time=22),\n",
      "  Message('note_on', channel=9, note=43, velocity=0, time=13),\n",
      "  Message('control_change', channel=9, control=4, value=48, time=9),\n",
      "  Message('note_on', channel=9, note=51, velocity=0, time=2),\n",
      "  Message('control_change', channel=9, control=4, value=65, time=19),\n",
      "  Message('note_on', channel=9, note=51, velocity=43, time=0),\n",
      "  Message('control_change', channel=9, control=4, value=76, time=15),\n",
      "  Message('control_change', channel=9, control=4, value=83, time=22),\n",
      "  Message('control_change', channel=9, control=4, value=90, time=21),\n",
      "  Message('note_on', channel=9, note=51, velocity=0, time=36),\n",
      "  Message('control_change', channel=9, control=4, value=87, time=8),\n",
      "  Message('note_on', channel=9, note=44, velocity=97, time=15),\n",
      "  Message('note_on', channel=9, note=53, velocity=73, time=11),\n",
      "  Message('control_change', channel=9, control=4, value=84, time=17),\n",
      "  Message('control_change', channel=9, control=4, value=81, time=44),\n",
      "  Message('control_change', channel=9, control=4, value=79, time=20),\n",
      "  Message('note_on', channel=9, note=44, velocity=0, time=3),\n",
      "  Message('note_on', channel=9, note=53, velocity=0, time=10),\n",
      "  Message('control_change', channel=9, control=4, value=65, time=9),\n",
      "  Message('note_on', channel=9, note=36, velocity=36, time=9),\n",
      "  Message('control_change', channel=9, control=4, value=51, time=13),\n",
      "  Message('control_change', channel=9, control=4, value=42, time=13),\n",
      "  Message('control_change', channel=9, control=4, value=51, time=22),\n",
      "  Message('control_change', channel=9, control=4, value=60, time=21),\n",
      "  Message('control_change', channel=9, control=4, value=70, time=22),\n",
      "  Message('note_on', channel=9, note=36, velocity=0, time=2),\n",
      "  Message('control_change', channel=9, control=4, value=72, time=2),\n",
      "  Message('note_on', channel=9, note=44, velocity=25, time=18),\n",
      "  Message('note_on', channel=9, note=55, velocity=61, time=2),\n",
      "  Message('note_on', channel=9, note=36, velocity=40, time=1),\n",
      "  Message('control_change', channel=9, control=4, value=79, time=1),\n",
      "  Message('control_change', channel=9, control=4, value=87, time=22),\n",
      "  Message('note_on', channel=9, note=51, velocity=36, time=4),\n",
      "  Message('control_change', channel=9, control=4, value=90, time=2),\n",
      "  Message('control_change', channel=9, control=4, value=86, time=21),\n",
      "  Message('control_change', channel=9, control=4, value=82, time=22),\n",
      "  Message('note_on', channel=9, note=44, velocity=0, time=19),\n",
      "  Message('note_on', channel=9, note=36, velocity=0, time=1),\n",
      "  Message('note_on', channel=9, note=55, velocity=0, time=0),\n",
      "  Message('control_change', channel=9, control=4, value=78, time=2),\n",
      "  Message('control_change', channel=9, control=4, value=74, time=22),\n",
      "  Message('note_on', channel=9, note=51, velocity=0, time=4),\n",
      "  Message('control_change', channel=9, control=4, value=70, time=17),\n",
      "  Message('note_on', channel=9, note=51, velocity=38, time=0),\n",
      "  Message('control_change', channel=9, control=4, value=66, time=22),\n",
      "  Message('control_change', channel=9, control=4, value=62, time=22),\n",
      "  Message('control_change', channel=9, control=4, value=58, time=22),\n",
      "  Message('control_change', channel=9, control=4, value=32, time=21),\n",
      "  Message('note_on', channel=9, note=51, velocity=0, time=7),\n",
      "  Message('note_on', channel=9, note=44, velocity=97, time=14),\n",
      "  Message('control_change', channel=9, control=4, value=6, time=1),\n",
      "  Message('control_change', channel=9, control=4, value=0, time=5),\n",
      "  Message('note_on', channel=9, note=53, velocity=82, time=12),\n",
      "  Message('control_change', channel=9, control=4, value=16, time=9),\n",
      "  Message('control_change', channel=9, control=4, value=33, time=22),\n",
      "  Message('control_change', channel=9, control=4, value=50, time=22),\n",
      "  Message('control_change', channel=9, control=4, value=66, time=22),\n",
      "  Message('note_on', channel=9, note=44, velocity=0, time=0),\n",
      "  Message('control_change', channel=9, control=4, value=78, time=14),\n",
      "  Message('note_on', channel=9, note=53, velocity=0, time=5),\n",
      "  Message('note_on', channel=9, note=36, velocity=44, time=8),\n",
      "  Message('control_change', channel=9, control=4, value=84, time=7),\n",
      "  Message('control_change', channel=9, control=4, value=90, time=24),\n",
      "  Message('control_change', channel=9, control=4, value=88, time=43),\n",
      "  Message('note_on', channel=9, note=36, velocity=0, time=20),\n",
      "  Message('note_on', channel=9, note=44, velocity=35, time=22),\n",
      "  Message('control_change', channel=9, control=4, value=86, time=2),\n",
      "  Message('note_on', channel=9, note=38, velocity=84, time=5),\n",
      "  Message('note_on', channel=9, note=51, velocity=37, time=10),\n",
      "  Message('control_change', channel=9, control=4, value=84, time=28),\n",
      "  Message('control_change', channel=9, control=4, value=82, time=28),\n",
      "  Message('note_on', channel=9, note=44, velocity=0, time=20),\n",
      "  Message('control_change', channel=9, control=4, value=73, time=1),\n",
      "  Message('note_on', channel=9, note=38, velocity=0, time=7),\n",
      "  Message('note_on', channel=9, note=51, velocity=0, time=9),\n",
      "  Message('control_change', channel=9, control=4, value=63, time=6),\n",
      "  Message('note_on', channel=9, note=51, velocity=35, time=15),\n",
      "  Message('control_change', channel=9, control=4, value=53, time=7),\n",
      "  Message('control_change', channel=9, control=4, value=52, time=3),\n",
      "  Message('control_change', channel=9, control=4, value=57, time=22),\n",
      "  Message('control_change', channel=9, control=4, value=63, time=21),\n",
      "  Message('control_change', channel=9, control=4, value=66, time=10),\n",
      "  Message('control_change', channel=9, control=4, value=74, time=22),\n",
      "  Message('note_on', channel=9, note=51, velocity=0, time=8),\n",
      "  Message('control_change', channel=9, control=4, value=83, time=14),\n",
      "  Message('control_change', channel=9, control=4, value=90, time=14),\n",
      "  Message('note_on', channel=9, note=44, velocity=100, time=0),\n",
      "  Message('note_on', channel=9, note=53, velocity=68, time=5),\n",
      "  Message('control_change', channel=9, control=4, value=85, time=17),\n",
      "  Message('control_change', channel=9, control=4, value=80, time=22),\n",
      "  Message('control_change', channel=9, control=4, value=75, time=22),\n",
      "  Message('control_change', channel=9, control=4, value=70, time=21),\n",
      "  Message('note_on', channel=9, note=44, velocity=0, time=7),\n",
      "  Message('note_on', channel=9, note=53, velocity=0, time=4),\n",
      "  Message('note_on', channel=9, note=36, velocity=46, time=8),\n",
      "  Message('control_change', channel=9, control=4, value=65, time=3),\n",
      "  Message('control_change', channel=9, control=4, value=60, time=22),\n",
      "  Message('control_change', channel=9, control=4, value=57, time=9),\n",
      "  Message('control_change', channel=9, control=4, value=30, time=21),\n",
      "  Message('control_change', channel=9, control=4, value=3, time=22),\n",
      "  Message('control_change', channel=9, control=4, value=0, time=3),\n",
      "  Message('note_on', channel=9, note=36, velocity=0, time=13),\n",
      "  Message('control_change', channel=9, control=4, value=15, time=9),\n",
      "  Message('control_change', channel=9, control=4, value=31, time=22),\n",
      "  Message('note_on', channel=9, note=44, velocity=17, time=4),\n",
      "  Message('note_on', channel=9, note=51, velocity=42, time=0),\n",
      "  Message('control_change', channel=9, control=4, value=46, time=17),\n",
      "  Message('control_change', channel=9, control=4, value=62, time=22),\n",
      "  Message('control_change', channel=9, control=4, value=76, time=19),\n",
      "  Message('control_change', channel=9, control=4, value=83, time=22),\n",
      "  Message('note_on', channel=9, note=44, velocity=0, time=13),\n",
      "  Message('note_on', channel=9, note=51, velocity=0, time=0),\n",
      "  Message('control_change', channel=9, control=4, value=90, time=8),\n",
      "  Message('note_on', channel=9, note=45, velocity=108, time=3),\n",
      "  Message('note_on', channel=9, note=53, velocity=42, time=9),\n",
      "  Message('control_change', channel=9, control=4, value=87, time=10),\n",
      "  Message('control_change', channel=9, control=4, value=83, time=22),\n",
      "  Message('control_change', channel=9, control=4, value=80, time=22),\n",
      "  Message('control_change', channel=9, control=4, value=76, time=21),\n",
      "  Message('note_on', channel=9, note=45, velocity=0, time=9),\n",
      "  Message('note_on', channel=9, note=53, velocity=0, time=10),\n",
      "  Message('control_change', channel=9, control=4, value=73, time=3),\n",
      "  Message('control_change', channel=9, control=4, value=69, time=22),\n",
      "  Message('note_on', channel=9, note=53, velocity=71, time=5),\n",
      "  Message('note_on', channel=9, note=44, velocity=102, time=11),\n",
      "  Message('control_change', channel=9, control=4, value=66, time=6),\n",
      "  Message('control_change', channel=9, control=4, value=62, time=21),\n",
      "  Message('control_change', channel=9, control=4, value=59, time=22),\n",
      "  Message('control_change', channel=9, control=4, value=58, time=2),\n",
      "  Message('note_on', channel=9, note=36, velocity=46, time=19),\n",
      "  Message('control_change', channel=9, control=4, value=50, time=2),\n",
      "  Message('note_on', channel=9, note=53, velocity=0, time=11),\n",
      "  Message('control_change', channel=9, control=4, value=41, time=11),\n",
      "  Message('control_change', channel=9, control=4, value=42, time=0),\n",
      "  Message('note_on', channel=9, note=44, velocity=0, time=0),\n",
      "  Message('control_change', channel=9, control=4, value=53, time=23),\n",
      "  Message('control_change', channel=9, control=4, value=65, time=22),\n",
      "  Message('control_change', channel=9, control=4, value=70, time=7),\n",
      "  Message('note_on', channel=9, note=36, velocity=0, time=18),\n",
      "  Message('control_change', channel=9, control=4, value=78, time=4),\n",
      "  Message('control_change', channel=9, control=4, value=87, time=22),\n",
      "  Message('control_change', channel=9, control=4, value=90, time=7),\n",
      "  Message('control_change', channel=9, control=4, value=86, time=22),\n",
      "  Message('note_on', channel=9, note=53, velocity=49, time=2),\n",
      "  Message('note_on', channel=9, note=43, velocity=127, time=13),\n",
      "  Message('control_change', channel=9, control=4, value=81, time=7),\n",
      "  Message('control_change', channel=9, control=4, value=77, time=21),\n",
      "  Message('control_change', channel=9, control=4, value=72, time=22),\n",
      "  Message('control_change', channel=9, control=4, value=68, time=22),\n",
      "  Message('note_on', channel=9, note=53, velocity=0, time=9),\n",
      "  Message('control_change', channel=9, control=4, value=63, time=13),\n",
      "  Message('note_on', channel=9, note=43, velocity=0, time=0),\n",
      "  Message('note_on', channel=9, note=51, velocity=32, time=18),\n",
      "  Message('control_change', channel=9, control=4, value=58, time=3),\n",
      "  Message('control_change', channel=9, control=4, value=59, time=0),\n",
      "  Message('control_change', channel=9, control=4, value=33, time=22),\n",
      "  Message('control_change', channel=9, control=4, value=7, time=22),\n",
      "  Message('control_change', channel=9, control=4, value=0, time=6),\n",
      "  Message('control_change', channel=9, control=4, value=14, time=21),\n",
      "  Message('note_on', channel=9, note=51, velocity=0, time=19),\n",
      "  Message('control_change', channel=9, control=4, value=29, time=3),\n",
      "  Message('note_on', channel=9, note=44, velocity=97, time=11),\n",
      "  Message('control_change', channel=9, control=4, value=43, time=11),\n",
      "  Message('note_on', channel=9, note=53, velocity=62, time=8),\n",
      "  Message('control_change', channel=9, control=4, value=58, time=14),\n",
      "  Message('control_change', channel=9, control=4, value=72, time=21),\n",
      "  Message('control_change', channel=9, control=4, value=73, time=0),\n",
      "  Message('control_change', channel=9, control=4, value=81, time=22),\n",
      "  Message('note_on', channel=9, note=44, velocity=0, time=17),\n",
      "  Message('control_change', channel=9, control=4, value=90, time=5),\n",
      "  Message('note_on', channel=9, note=53, velocity=0, time=15),\n",
      "  Message('control_change', channel=9, control=4, value=87, time=28),\n",
      "  Message('note_on', channel=9, note=40, velocity=91, time=9),\n",
      "  Message('control_change', channel=9, control=4, value=84, time=35),\n",
      "  Message('control_change', channel=9, control=4, value=81, time=43),\n",
      "  Message('note_on', channel=9, note=40, velocity=0, time=15),\n",
      "  Message('control_change', channel=9, control=4, value=79, time=6),\n",
      "  Message('note_on', channel=9, note=51, velocity=37, time=20),\n",
      "  Message('control_change', channel=9, control=4, value=72, time=1),\n",
      "  Message('note_on', channel=9, note=36, velocity=47, time=3),\n",
      "  Message('control_change', channel=9, control=4, value=65, time=19),\n",
      "  Message('control_change', channel=9, control=4, value=64, time=3),\n",
      "  Message('control_change', channel=9, control=4, value=57, time=22),\n",
      "  Message('control_change', channel=9, control=4, value=49, time=22),\n",
      "  Message('control_change', channel=9, control=4, value=48, time=2),\n",
      "  Message('note_on', channel=9, note=51, velocity=0, time=21),\n",
      "  Message('control_change', channel=9, control=4, value=61, time=1),\n",
      "  Message('note_on', channel=9, note=36, velocity=0, time=4),\n",
      "  Message('note_on', channel=9, note=51, velocity=35, time=9),\n",
      "  Message('control_change', channel=9, control=4, value=75, time=9),\n",
      "  Message('control_change', channel=9, control=4, value=77, time=1),\n",
      "  Message('control_change', channel=9, control=4, value=83, time=22),\n",
      "  Message('control_change', channel=9, control=4, value=89, time=22),\n",
      "  Message('control_change', channel=9, control=4, value=90, time=1),\n",
      "  Message('control_change', channel=9, control=4, value=86, time=22),\n",
      "  Message('note_on', channel=9, note=51, velocity=0, time=16),\n",
      "  Message('control_change', channel=9, control=4, value=82, time=6),\n",
      "  Message('note_on', channel=9, note=44, velocity=97, time=12),\n",
      "  Message('control_change', channel=9, control=4, value=78, time=10),\n",
      "  Message('note_on', channel=9, note=53, velocity=55, time=11),\n",
      "  Message('control_change', channel=9, control=4, value=73, time=10),\n",
      "  Message('control_change', channel=9, control=4, value=69, time=22),\n",
      "  Message('control_change', channel=9, control=4, value=65, time=22),\n",
      "  Message('note_on', channel=9, note=44, velocity=0, time=18),\n",
      "  Message('control_change', channel=9, control=4, value=61, time=4),\n",
      "  Message('control_change', channel=9, control=4, value=58, time=11),\n",
      "  Message('note_on', channel=9, note=53, velocity=0, time=7),\n",
      "  Message('control_change', channel=9, control=4, value=30, time=15),\n",
      "  Message('note_on', channel=9, note=36, velocity=51, time=4),\n",
      "  Message('control_change', channel=9, control=4, value=0, time=18),\n",
      "  Message('control_change', channel=9, control=4, value=1, time=0),\n",
      "  Message('control_change', channel=9, control=4, value=13, time=21),\n",
      "  Message('control_change', channel=9, control=4, value=26, time=22),\n",
      "  Message('control_change', channel=9, control=4, value=39, time=22),\n",
      "  Message('note_on', channel=9, note=36, velocity=0, time=10),\n",
      "  Message('control_change', channel=9, control=4, value=52, time=12),\n",
      "  Message('note_on', channel=9, note=40, velocity=108, time=7),\n",
      "  Message('control_change', channel=9, control=4, value=65, time=14),\n",
      "  Message('control_change', channel=9, control=4, value=67, time=3),\n",
      "  Message('note_on', channel=9, note=53, velocity=33, time=8),\n",
      "  Message('control_change', channel=9, control=4, value=78, time=14),\n",
      "  Message('control_change', channel=9, control=4, value=89, time=22),\n",
      "  Message('control_change', channel=9, control=4, value=90, time=0),\n",
      "  Message('control_change', channel=9, control=4, value=86, time=23),\n",
      "  Message('note_on', channel=9, note=40, velocity=0, time=10),\n",
      "  Message('control_change', channel=9, control=4, value=82, time=12),\n",
      "  Message('note_on', channel=9, note=53, velocity=0, time=13),\n",
      "  Message('control_change', channel=9, control=4, value=77, time=9),\n",
      "  Message('note_on', channel=9, note=51, velocity=36, time=10),\n",
      "  Message('control_change', channel=9, control=4, value=73, time=11),\n",
      "  Message('control_change', channel=9, control=4, value=68, time=22),\n",
      "  Message('control_change', channel=9, control=4, value=64, time=22),\n",
      "  Message('control_change', channel=9, control=4, value=59, time=22),\n",
      "  Message('note_on', channel=9, note=51, velocity=0, time=16),\n",
      "  Message('control_change', channel=9, control=4, value=55, time=5),\n",
      "  Message('note_on', channel=9, note=44, velocity=97, time=0),\n",
      "  Message('control_change', channel=9, control=4, value=54, time=2),\n",
      "  Message('note_on', channel=9, note=53, velocity=70, time=19),\n",
      "  Message('control_change', channel=9, control=4, value=49, time=2),\n",
      "  Message('control_change', channel=9, control=4, value=44, time=22),\n",
      "  Message('control_change', channel=9, control=4, value=41, time=12),\n",
      "  Message('control_change', channel=9, control=4, value=50, time=22),\n",
      "  Message('note_on', channel=9, note=44, velocity=0, time=15),\n",
      "  Message('control_change', channel=9, control=4, value=60, time=6),\n",
      "  Message('note_on', channel=9, note=53, velocity=0, time=14),\n",
      "  Message('control_change', channel=9, control=4, value=68, time=2),\n",
      "  Message('control_change', channel=9, control=4, value=76, time=22),\n",
      "  Message('note_on', channel=9, note=45, velocity=77, time=4),\n",
      "  Message('control_change', channel=9, control=4, value=85, time=18),\n",
      "  Message('control_change', channel=9, control=4, value=90, time=11),\n",
      "  Message('control_change', channel=9, control=4, value=86, time=22),\n",
      "  Message('control_change', channel=9, control=4, value=82, time=22),\n",
      "  Message('note_on', channel=9, note=45, velocity=0, time=21),\n",
      "  Message('control_change', channel=9, control=4, value=78, time=1),\n",
      "  Message('note_on', channel=9, note=51, velocity=42, time=13),\n",
      "  Message('control_change', channel=9, control=4, value=74, time=8),\n",
      "  Message('control_change', channel=9, control=4, value=70, time=22),\n",
      "  Message('control_change', channel=9, control=4, value=66, time=22),\n",
      "  Message('control_change', channel=9, control=4, value=62, time=22),\n",
      "  Message('control_change', channel=9, control=4, value=59, time=11),\n",
      "  Message('note_on', channel=9, note=51, velocity=0, time=9),\n",
      "  Message('control_change', channel=9, control=4, value=32, time=13),\n",
      "  Message('note_on', channel=9, note=51, velocity=36, time=2),\n",
      "  Message('control_change', channel=9, control=4, value=5, time=20),\n",
      "  Message('control_change', channel=9, control=4, value=0, time=3),\n",
      "  Message('control_change', channel=9, control=4, value=14, time=21),\n",
      "  Message('control_change', channel=9, control=4, value=29, time=22),\n",
      "  Message('control_change', channel=9, control=4, value=44, time=22),\n",
      "  Message('note_on', channel=9, note=51, velocity=0, time=5),\n",
      "  Message('control_change', channel=9, control=4, value=59, time=17),\n",
      "  Message('note_on', channel=9, note=44, velocity=97, time=10),\n",
      "  Message('note_on', channel=9, note=53, velocity=69, time=3),\n",
      "  Message('control_change', channel=9, control=4, value=74, time=8),\n",
      "  Message('control_change', channel=9, control=4, value=77, time=5),\n",
      "  Message('control_change', channel=9, control=4, value=83, time=21),\n",
      "  Message('control_change', channel=9, control=4, value=90, time=22),\n",
      "  Message('note_on', channel=9, note=44, velocity=0, time=35),\n",
      "  Message('note_on', channel=9, note=53, velocity=0, time=2),\n",
      "  Message('control_change', channel=9, control=4, value=85, time=7),\n",
      "  Message('note_on', channel=9, note=36, velocity=47, time=18),\n",
      "  Message('control_change', channel=9, control=4, value=80, time=25),\n",
      "  Message('control_change', channel=9, control=4, value=75, time=44),\n",
      "  Message('note_on', channel=9, note=36, velocity=0, time=24),\n",
      "  Message('control_change', channel=9, control=4, value=70, time=13),\n",
      "  Message('control_change', channel=9, control=4, value=59, time=22),\n",
      "  Message('note_on', channel=9, note=53, velocity=37, time=16),\n",
      "  Message('note_on', channel=9, note=58, velocity=98, time=3),\n",
      "  Message('control_change', channel=9, control=4, value=48, time=3),\n",
      "  Message('control_change', channel=9, control=4, value=39, time=16),\n",
      "  Message('control_change', channel=9, control=4, value=50, time=22),\n",
      "  Message('control_change', channel=9, control=4, value=62, time=21),\n",
      "  Message('control_change', channel=9, control=4, value=69, time=12),\n",
      "  Message('note_on', channel=9, note=53, velocity=0, time=17),\n",
      "  Message('note_on', channel=9, note=58, velocity=0, time=3),\n",
      "  Message('control_change', channel=9, control=4, value=78, time=2),\n",
      "  Message('note_on', channel=9, note=51, velocity=33, time=20),\n",
      "  Message('control_change', channel=9, control=4, value=88, time=1),\n",
      "  Message('control_change', channel=9, control=4, value=90, time=5),\n",
      "  Message('control_change', channel=9, control=4, value=86, time=22),\n",
      "  Message('control_change', channel=9, control=4, value=81, time=21),\n",
      "  Message('control_change', channel=9, control=4, value=76, time=22),\n",
      "  Message('control_change', channel=9, control=4, value=72, time=22),\n",
      "  Message('note_on', channel=9, note=51, velocity=0, time=1),\n",
      "  Message('note_on', channel=9, note=44, velocity=100, time=14),\n",
      "  Message('control_change', channel=9, control=4, value=67, time=7),\n",
      "  Message('note_on', channel=9, note=53, velocity=63, time=1),\n",
      "  Message('control_change', channel=9, control=4, value=62, time=20),\n",
      "  Message('control_change', channel=9, control=4, value=58, time=18),\n",
      "  Message('control_change', channel=9, control=4, value=30, time=21),\n",
      "  Message('control_change', channel=9, control=4, value=2, time=22),\n",
      "  Message('control_change', channel=9, control=4, value=0, time=2),\n",
      "  Message('note_on', channel=9, note=44, velocity=0, time=3),\n",
      "  Message('note_on', channel=9, note=53, velocity=0, time=8),\n",
      "  Message('control_change', channel=9, control=4, value=15, time=10),\n",
      "  Message('note_on', channel=9, note=36, velocity=34, time=20),\n",
      "  Message('control_change', channel=9, control=4, value=30, time=2),\n",
      "  Message('control_change', channel=9, control=4, value=46, time=22),\n",
      "  Message('control_change', channel=9, control=4, value=61, time=22),\n",
      "  Message('control_change', channel=9, control=4, value=77, time=21),\n",
      "  Message('control_change', channel=9, control=4, value=78, time=0),\n",
      "  Message('control_change', channel=9, control=4, value=84, time=24),\n",
      "  Message('note_on', channel=9, note=36, velocity=0, time=2),\n",
      "  Message('note_on', channel=9, note=44, velocity=27, time=3),\n",
      "  Message('control_change', channel=9, control=4, value=90, time=16),\n",
      "  Message('note_on', channel=9, note=51, velocity=38, time=13),\n",
      "  Message('note_on', channel=9, note=36, velocity=44, time=1),\n",
      "  Message('control_change', channel=9, control=4, value=87, time=30),\n",
      "  Message('note_on', channel=9, note=44, velocity=0, time=34),\n",
      "  Message('control_change', channel=9, control=4, value=83, time=9),\n",
      "  Message('note_on', channel=9, note=51, velocity=0, time=20),\n",
      "  Message('note_on', channel=9, note=36, velocity=0, time=1),\n",
      "  Message('note_on', channel=9, note=51, velocity=31, time=11),\n",
      "  Message('control_change', channel=9, control=4, value=79, time=12),\n",
      "  Message('control_change', channel=9, control=4, value=78, time=6),\n",
      "  Message('control_change', channel=9, control=4, value=63, time=21),\n",
      "  Message('control_change', channel=9, control=4, value=48, time=22),\n",
      "  Message('control_change', channel=9, control=4, value=38, time=15),\n",
      "  Message('note_on', channel=9, note=51, velocity=0, time=18),\n",
      "  Message('control_change', channel=9, control=4, value=31, time=3),\n",
      "  Message('note_on', channel=9, note=44, velocity=97, time=6),\n",
      "  Message('note_on', channel=9, note=53, velocity=73, time=15),\n",
      "  Message('control_change', channel=9, control=4, value=23, time=1),\n",
      "  Message('control_change', channel=9, control=4, value=44, time=22),\n",
      "  Message('control_change', channel=9, control=4, value=65, time=22),\n",
      "  Message('control_change', channel=9, control=4, value=68, time=3),\n",
      "  Message('control_change', channel=9, control=4, value=78, time=21),\n",
      "  Message('note_on', channel=9, note=44, velocity=0, time=10),\n",
      "  Message('control_change', channel=9, control=4, value=88, time=11),\n",
      "  Message('control_change', channel=9, control=4, value=90, time=4),\n",
      "  Message('note_on', channel=9, note=53, velocity=0, time=0),\n",
      "  Message('note_on', channel=9, note=36, velocity=49, time=20),\n",
      "  Message('control_change', channel=9, control=4, value=86, time=2),\n",
      "  Message('control_change', channel=9, control=4, value=82, time=21),\n",
      "  Message('control_change', channel=9, control=4, value=78, time=22),\n",
      "  Message('control_change', channel=9, control=4, value=74, time=22),\n",
      "  Message('control_change', channel=9, control=4, value=70, time=22),\n",
      "  Message('note_on', channel=9, note=36, velocity=0, time=4),\n",
      "  Message('control_change', channel=9, control=4, value=65, time=17),\n",
      "  Message('note_on', channel=9, note=37, velocity=85, time=17),\n",
      "  Message('control_change', channel=9, control=4, value=61, time=5),\n",
      "  Message('note_on', channel=9, note=53, velocity=39, time=0),\n",
      "  Message('control_change', channel=9, control=4, value=59, time=9),\n",
      "  Message('control_change', channel=9, control=4, value=33, time=22),\n",
      "  Message('control_change', channel=9, control=4, value=6, time=21),\n",
      "  Message('control_change', channel=9, control=4, value=0, time=5),\n",
      "  Message('control_change', channel=9, control=4, value=14, time=22),\n",
      "  Message('note_on', channel=9, note=37, velocity=0, time=9),\n",
      "  Message('note_on', channel=9, note=53, velocity=0, time=6),\n",
      "  Message('control_change', channel=9, control=4, value=28, time=6),\n",
      "  Message('note_on', channel=9, note=51, velocity=32, time=11),\n",
      "  Message('control_change', channel=9, control=4, value=43, time=11),\n",
      "  Message('control_change', channel=9, control=4, value=57, time=22),\n",
      "  Message('control_change', channel=9, control=4, value=71, time=19),\n",
      "  Message('control_change', channel=9, control=4, value=80, time=21),\n",
      "  Message('note_on', channel=9, note=51, velocity=0, time=21),\n",
      "  Message('control_change', channel=9, control=4, value=90, time=1),\n",
      "  Message('control_change', channel=9, control=4, value=87, time=22),\n",
      "  Message('note_on', channel=9, note=44, velocity=95, time=0),\n",
      "  Message('note_on', channel=9, note=53, velocity=75, time=13),\n",
      "  Message('control_change', channel=9, control=4, value=84, time=9),\n",
      "  Message('control_change', channel=9, control=4, value=80, time=21),\n",
      "  Message('control_change', channel=9, control=4, value=77, time=22),\n",
      "  Message('control_change', channel=9, control=4, value=74, time=22),\n",
      "  Message('note_on', channel=9, note=44, velocity=0, time=6),\n",
      "  Message('note_on', channel=9, note=53, velocity=0, time=13),\n",
      "  Message('control_change', channel=9, control=4, value=70, time=3),\n",
      "  Message('note_on', channel=9, note=36, velocity=53, time=16),\n",
      "  Message('control_change', channel=9, control=4, value=67, time=5),\n",
      "  Message('control_change', channel=9, control=4, value=64, time=22),\n",
      "  Message('control_change', channel=9, control=4, value=61, time=13),\n",
      "  Message('control_change', channel=9, control=4, value=56, time=22),\n",
      "  Message('control_change', channel=9, control=4, value=51, time=22),\n",
      "  Message('note_on', channel=9, note=36, velocity=0, time=10),\n",
      "  Message('control_change', channel=9, control=4, value=47, time=6),\n",
      "  Message('note_on', channel=9, note=44, velocity=30, time=15),\n",
      "  Message('control_change', channel=9, control=4, value=60, time=6),\n",
      "  Message('note_on', channel=9, note=51, velocity=36, time=14),\n",
      "  Message('control_change', channel=9, control=4, value=73, time=8),\n",
      "  Message('control_change', channel=9, control=4, value=74, time=0),\n",
      "  Message('control_change', channel=9, control=4, value=81, time=22),\n",
      "  Message('control_change', channel=9, control=4, value=89, time=22),\n",
      "  Message('control_change', channel=9, control=4, value=90, time=3),\n",
      "  Message('note_on', channel=9, note=44, velocity=0, time=20),\n",
      "  Message('control_change', channel=9, control=4, value=86, time=1),\n",
      "  Message('note_on', channel=9, note=51, velocity=0, time=17),\n",
      "  Message('note_on', channel=9, note=45, velocity=112, time=4),\n",
      "  Message('control_change', channel=9, control=4, value=81, time=1),\n",
      "  Message('control_change', channel=9, control=4, value=77, time=22),\n",
      "  Message('control_change', channel=9, control=4, value=72, time=22),\n",
      "  Message('control_change', channel=9, control=4, value=68, time=21),\n",
      "  Message('control_change', channel=9, control=4, value=63, time=22),\n",
      "  Message('note_on', channel=9, note=45, velocity=0, time=6),\n",
      "  Message('control_change', channel=9, control=4, value=58, time=16),\n",
      "  Message('note_on', channel=9, note=53, velocity=65, time=15),\n",
      "  Message('note_on', channel=9, note=44, velocity=100, time=1),\n",
      "  Message('control_change', channel=9, control=4, value=31, time=6),\n",
      "  Message('control_change', channel=9, control=4, value=3, time=21),\n",
      "  Message('control_change', channel=9, control=4, value=0, time=3),\n",
      "  Message('control_change', channel=9, control=4, value=14, time=22),\n",
      "  Message('control_change', channel=9, control=4, value=29, time=22),\n",
      "  Message('note_on', channel=9, note=44, velocity=0, time=19),\n",
      "  Message('note_on', channel=9, note=53, velocity=0, time=0),\n",
      "  Message('control_change', channel=9, control=4, value=44, time=2),\n",
      "  Message('control_change', channel=9, control=4, value=58, time=22),\n",
      "  Message('note_on', channel=9, note=36, velocity=48, time=1),\n",
      "  Message('control_change', channel=9, control=4, value=73, time=19),\n",
      "  Message('control_change', channel=9, control=4, value=81, time=22),\n",
      "  Message('control_change', channel=9, control=4, value=90, time=22),\n",
      "  Message('note_on', channel=9, note=36, velocity=0, time=31),\n",
      "  Message('control_change', channel=9, control=4, value=85, time=12),\n",
      "  Message('note_on', channel=9, note=44, velocity=20, time=0),\n",
      "  Message('note_on', channel=9, note=53, velocity=43, time=28),\n",
      "  Message('note_on', channel=9, note=43, velocity=100, time=2),\n",
      "  Message('control_change', channel=9, control=4, value=79, time=14),\n",
      "  Message('control_change', channel=9, control=4, value=73, time=43),\n",
      "  Message('note_on', channel=9, note=44, velocity=0, time=7),\n",
      "  Message('note_on', channel=9, note=53, velocity=0, time=27),\n",
      "  Message('control_change', channel=9, control=4, value=68, time=1),\n",
      "  Message('note_on', channel=9, note=43, velocity=0, time=2),\n",
      "  Message('control_change', channel=9, control=4, value=61, time=20),\n",
      "  Message('note_on', channel=9, note=51, velocity=33, time=6),\n",
      "  Message('control_change', channel=9, control=4, value=54, time=16),\n",
      "  Message('control_change', channel=9, control=4, value=52, time=3),\n",
      "  Message('control_change', channel=9, control=4, value=57, time=21),\n",
      "  Message('control_change', channel=9, control=4, value=62, time=22),\n",
      "  Message('control_change', channel=9, control=4, value=68, time=22),\n",
      "  Message('note_on', channel=9, note=51, velocity=0, time=10),\n",
      "  Message('control_change', channel=9, control=4, value=71, time=2),\n",
      "  Message('note_on', channel=9, note=44, velocity=102, time=5),\n",
      "  Message('control_change', channel=9, control=4, value=78, time=16),\n",
      "  Message('note_on', channel=9, note=53, velocity=71, time=0),\n",
      "  Message('control_change', channel=9, control=4, value=85, time=22),\n",
      "  Message('control_change', channel=9, control=4, value=90, time=13),\n",
      "  Message('control_change', channel=9, control=4, value=86, time=22),\n",
      "  Message('control_change', channel=9, control=4, value=82, time=22),\n",
      "  Message('note_on', channel=9, note=44, velocity=0, time=0),\n",
      "  Message('note_on', channel=9, note=53, velocity=0, time=15),\n",
      "  Message('control_change', channel=9, control=4, value=78, time=6),\n",
      "  Message('note_on', channel=9, note=38, velocity=90, time=19),\n",
      "  Message('control_change', channel=9, control=4, value=73, time=3),\n",
      "  Message('control_change', channel=9, control=4, value=69, time=22),\n",
      "  Message('control_change', channel=9, control=4, value=65, time=22),\n",
      "  Message('control_change', channel=9, control=4, value=60, time=21),\n",
      "  Message('control_change', channel=9, control=4, value=57, time=13),\n",
      "  Message('note_on', channel=9, note=44, velocity=22, time=7),\n",
      "  Message('note_on', channel=9, note=38, velocity=0, time=6),\n",
      "  Message('control_change', channel=9, control=4, value=30, time=9),\n",
      "  Message('control_change', channel=9, control=4, value=2, time=22),\n",
      "  Message('note_on', channel=9, note=51, velocity=40, time=0),\n",
      "  Message('control_change', channel=9, control=4, value=0, time=1),\n",
      "  Message('control_change', channel=9, control=4, value=15, time=22),\n",
      "  Message('control_change', channel=9, control=4, value=30, time=22),\n",
      "  Message('note_on', channel=9, note=44, velocity=0, time=12),\n",
      "  Message('control_change', channel=9, control=4, value=45, time=10),\n",
      "  Message('control_change', channel=9, control=4, value=60, time=21),\n",
      "  Message('note_on', channel=9, note=51, velocity=0, time=6),\n",
      "  Message('note_on', channel=9, note=51, velocity=39, time=11),\n",
      "  Message('control_change', channel=9, control=4, value=75, time=5),\n",
      "  Message('control_change', channel=9, control=4, value=78, time=3),\n",
      "  Message('control_change', channel=9, control=4, value=84, time=22),\n",
      "  Message('control_change', channel=9, control=4, value=90, time=21),\n",
      "  Message('control_change', channel=9, control=4, value=87, time=22),\n",
      "  Message('control_change', channel=9, control=4, value=83, time=22),\n",
      "  Message('note_on', channel=9, note=51, velocity=0, time=0),\n",
      "  Message('note_on', channel=9, note=44, velocity=97, time=1),\n",
      "  Message('control_change', channel=9, control=4, value=80, time=21),\n",
      "  Message('note_on', channel=9, note=53, velocity=70, time=13),\n",
      "  Message('control_change', channel=9, control=4, value=76, time=8),\n",
      "  Message('control_change', channel=9, control=4, value=72, time=22),\n",
      "  Message('control_change', channel=9, control=4, value=69, time=22),\n",
      "  Message('note_on', channel=9, note=44, velocity=0, time=7),\n",
      "  Message('control_change', channel=9, control=4, value=65, time=15),\n",
      "  Message('note_on', channel=9, note=53, velocity=0, time=20),\n",
      "  Message('control_change', channel=9, control=4, value=61, time=1),\n",
      "  Message('note_on', channel=9, note=36, velocity=48, time=4),\n",
      "  Message('control_change', channel=9, control=4, value=58, time=12),\n",
      "  Message('control_change', channel=9, control=4, value=50, time=22),\n",
      "  Message('control_change', channel=9, control=4, value=42, time=22),\n",
      "  Message('control_change', channel=9, control=4, value=40, time=3),\n",
      "  Message('control_change', channel=9, control=4, value=56, time=22),\n",
      "  Message('note_on', channel=9, note=36, velocity=0, time=12),\n",
      "  Message('control_change', channel=9, control=4, value=72, time=9),\n",
      "  Message('note_on', channel=9, note=44, velocity=17, time=0),\n",
      "  Message('control_change', channel=9, control=4, value=79, time=9),\n",
      "  Message('note_on', channel=9, note=40, velocity=93, time=21),\n",
      "  Message('control_change', channel=9, control=4, value=84, time=1),\n",
      "  Message('note_on', channel=9, note=51, velocity=45, time=10),\n",
      "  Message('control_change', channel=9, control=4, value=90, time=12),\n",
      "  Message('control_change', channel=9, control=4, value=86, time=21),\n",
      "  Message('note_on', channel=9, note=44, velocity=0, time=20),\n",
      "  Message('control_change', channel=9, control=4, value=82, time=2),\n",
      "  Message('control_change', channel=9, control=4, value=78, time=22),\n",
      "  Message('note_on', channel=9, note=40, velocity=0, time=6),\n",
      "  Message('note_on', channel=9, note=51, velocity=0, time=11),\n",
      "  Message('control_change', channel=9, control=4, value=74, time=5),\n",
      "  Message('note_on', channel=9, note=51, velocity=39, time=6),\n",
      "  Message('control_change', channel=9, control=4, value=70, time=15),\n",
      "  Message('control_change', channel=9, control=4, value=66, time=22),\n",
      "  Message('control_change', channel=9, control=4, value=62, time=22),\n",
      "  Message('control_change', channel=9, control=4, value=59, time=13),\n",
      "  Message('control_change', channel=9, control=4, value=36, time=22),\n",
      "  Message('note_on', channel=9, note=51, velocity=0, time=0),\n",
      "  Message('note_on', channel=9, note=44, velocity=97, time=10),\n",
      "  Message('control_change', channel=9, control=4, value=12, time=11),\n",
      "  Message('note_on', channel=9, note=53, velocity=72, time=10),\n",
      "  Message('control_change', channel=9, control=4, value=0, time=2),\n",
      "  Message('control_change', channel=9, control=4, value=14, time=22),\n",
      "  Message('control_change', channel=9, control=4, value=29, time=21),\n",
      "  Message('control_change', channel=9, control=4, value=43, time=22),\n",
      "  Message('note_on', channel=9, note=44, velocity=0, time=6),\n",
      "  Message('control_change', channel=9, control=4, value=58, time=16),\n",
      "  Message('note_on', channel=9, note=53, velocity=0, time=5),\n",
      "  Message('control_change', channel=9, control=4, value=73, time=17),\n",
      "  Message('note_on', channel=9, note=47, velocity=98, time=1),\n",
      "  Message('control_change', channel=9, control=4, value=81, time=20),\n",
      "  Message('control_change', channel=9, control=4, value=89, time=22),\n",
      "  Message('control_change', channel=9, control=4, value=90, time=0),\n",
      "  Message('control_change', channel=9, control=4, value=87, time=22),\n",
      "  Message('control_change', channel=9, control=4, value=83, time=22),\n",
      "  Message('note_on', channel=9, note=44, velocity=17, time=8),\n",
      "  Message('note_on', channel=9, note=47, velocity=0, time=0),\n",
      "  Message('control_change', channel=9, control=4, value=80, time=13),\n",
      "  Message('control_change', channel=9, control=4, value=76, time=22),\n",
      "  Message('control_change', channel=9, control=4, value=73, time=22),\n",
      "  Message('control_change', channel=9, control=4, value=69, time=22),\n",
      "  Message('note_on', channel=9, note=44, velocity=0, time=16),\n",
      "  Message('control_change', channel=9, control=4, value=66, time=5),\n",
      "  Message('control_change', channel=9, control=4, value=64, time=8),\n",
      "  Message('note_on', channel=9, note=43, velocity=88, time=17),\n",
      "  Message('control_change', channel=9, control=4, value=54, time=4),\n",
      "  Message('control_change', channel=9, control=4, value=43, time=22),\n",
      "  Message('control_change', channel=9, control=4, value=35, time=16),\n",
      "  Message('control_change', channel=9, control=4, value=47, time=22),\n",
      "  Message('control_change', channel=9, control=4, value=60, time=22),\n",
      "  Message('note_on', channel=9, note=43, velocity=0, time=7),\n",
      "  Message('control_change', channel=9, control=4, value=65, time=1),\n",
      "  Message('note_on', channel=9, note=44, velocity=95, time=21),\n",
      "  Message('control_change', channel=9, control=4, value=76, time=1),\n",
      "  Message('note_on', channel=9, note=51, velocity=127, time=2),\n",
      "  Message('control_change', channel=9, control=4, value=87, time=20),\n",
      "  Message('control_change', channel=9, control=4, value=90, time=6),\n",
      "  Message('control_change', channel=9, control=4, value=86, time=21),\n",
      "  Message('control_change', channel=9, control=4, value=81, time=22),\n",
      "  Message('control_change', channel=9, control=4, value=77, time=22),\n",
      "  Message('note_on', channel=9, note=44, velocity=0, time=0),\n",
      "  Message('note_on', channel=9, note=51, velocity=0, time=2),\n",
      "  Message('control_change', channel=9, control=4, value=72, time=20),\n",
      "  Message('note_on', channel=9, note=36, velocity=47, time=1),\n",
      "  Message('control_change', channel=9, control=4, value=67, time=20),\n",
      "  Message('control_change', channel=9, control=4, value=63, time=22),\n",
      "  Message('control_change', channel=9, control=4, value=58, time=22),\n",
      "  Message('control_change', channel=9, control=4, value=57, time=3),\n",
      "  Message('control_change', channel=9, control=4, value=30, time=22),\n",
      "  Message('note_on', channel=9, note=36, velocity=0, time=4),\n",
      "  Message('note_on', channel=9, note=44, velocity=25, time=15),\n",
      "  Message('control_change', channel=9, control=4, value=2, time=2),\n",
      "  Message('control_change', channel=9, control=4, value=0, time=2),\n",
      "  Message('note_on', channel=9, note=43, velocity=104, time=20),\n",
      "  Message('control_change', channel=9, control=4, value=14, time=1),\n",
      "  Message('control_change', channel=9, control=4, value=28, time=22),\n",
      "  Message('control_change', channel=9, control=4, value=42, time=22),\n",
      "  Message('control_change', channel=9, control=4, value=56, time=22),\n",
      "  Message('note_on', channel=9, note=44, velocity=0, time=4),\n",
      "  Message('control_change', channel=9, control=4, value=71, time=17),\n",
      "  Message('control_change', channel=9, control=4, value=72, time=2),\n",
      "  Message('note_on', channel=9, note=43, velocity=0, time=4),\n",
      "  Message('control_change', channel=9, control=4, value=80, time=18),\n",
      "  Message('note_on', channel=9, note=43, velocity=107, time=7),\n",
      "  Message('control_change', channel=9, control=4, value=89, time=14),\n",
      "  Message('control_change', channel=9, control=4, value=90, time=0),\n",
      "  Message('control_change', channel=9, control=4, value=87, time=24),\n",
      "  Message('control_change', channel=9, control=4, value=84, time=21),\n",
      "  Message('control_change', channel=9, control=4, value=81, time=22),\n",
      "  Message('note_on', channel=9, note=43, velocity=0, time=13),\n",
      "  Message('note_on', channel=9, note=44, velocity=95, time=6),\n",
      "  Message('control_change', channel=9, control=4, value=78, time=3),\n",
      "  Message('note_on', channel=9, note=43, velocity=71, time=7),\n",
      "  Message('control_change', channel=9, control=4, value=74, time=15),\n",
      "  Message('control_change', channel=9, control=4, value=71, time=21),\n",
      "  Message('control_change', channel=9, control=4, value=68, time=22),\n",
      "  Message('control_change', channel=9, control=4, value=65, time=22),\n",
      "  Message('note_on', channel=9, note=44, velocity=0, time=3),\n",
      "  Message('control_change', channel=9, control=4, value=63, time=4),\n",
      "  Message('note_on', channel=9, note=43, velocity=0, time=6),\n",
      "  Message('note_on', channel=9, note=59, velocity=44, time=34),\n",
      "  Message('control_change', channel=9, control=4, value=59, time=4),\n",
      "  Message('note_on', channel=9, note=36, velocity=34, time=1),\n",
      "  Message('control_change', channel=9, control=4, value=58, time=3),\n",
      "  Message('control_change', channel=9, control=4, value=64, time=22),\n",
      "  Message('control_change', channel=9, control=4, value=71, time=21),\n",
      "  Message('control_change', channel=9, control=4, value=73, time=5),\n",
      "  Message('control_change', channel=9, control=4, value=80, time=22),\n",
      "  Message('note_on', channel=9, note=59, velocity=0, time=15),\n",
      "  Message('note_on', channel=9, note=44, velocity=27, time=2),\n",
      "  Message('note_on', channel=9, note=36, velocity=0, time=3),\n",
      "  Message('control_change', channel=9, control=4, value=88, time=1),\n",
      "  Message('control_change', channel=9, control=4, value=90, time=5),\n",
      "  Message('note_on', channel=9, note=55, velocity=86, time=6),\n",
      "  Message('note_on', channel=9, note=36, velocity=43, time=3),\n",
      "  Message('control_change', channel=9, control=4, value=86, time=12),\n",
      "  Message('control_change', channel=9, control=4, value=81, time=22),\n",
      "  Message('control_change', channel=9, control=4, value=77, time=22),\n",
      "  Message('note_on', channel=9, note=44, velocity=0, time=19),\n",
      "  Message('control_change', channel=9, control=4, value=72, time=3),\n",
      "  Message('note_on', channel=9, note=55, velocity=0, time=13),\n",
      "  Message('note_on', channel=9, note=36, velocity=0, time=3),\n",
      "  Message('control_change', channel=9, control=4, value=68, time=5),\n",
      "  Message('control_change', channel=9, control=4, value=63, time=22),\n",
      "  Message('control_change', channel=9, control=4, value=59, time=22),\n",
      "  Message('control_change', channel=9, control=4, value=58, time=3),\n",
      "  Message('control_change', channel=9, control=4, value=36, time=22),\n",
      "  Message('control_change', channel=9, control=4, value=13, time=21),\n",
      "  Message('control_change', channel=9, control=4, value=0, time=12),\n",
      "  Message('control_change', channel=9, control=4, value=13, time=22),\n",
      "  Message('note_on', channel=9, note=44, velocity=97, time=3),\n",
      "  Message('note_on', channel=9, note=51, velocity=33, time=12),\n",
      "  Message('control_change', channel=9, control=4, value=26, time=6),\n",
      "  Message('control_change', channel=9, control=4, value=40, time=22),\n",
      "  Message('control_change', channel=9, control=4, value=53, time=22),\n",
      "  Message('control_change', channel=9, control=4, value=67, time=22),\n",
      "  Message('control_change', channel=9, control=4, value=69, time=3),\n",
      "  Message('note_on', channel=9, note=44, velocity=0, time=7),\n",
      "  Message('note_on', channel=9, note=51, velocity=0, time=11),\n",
      "  Message('control_change', channel=9, control=4, value=79, time=3),\n",
      "  Message('control_change', channel=9, control=4, value=89, time=22),\n",
      "  Message('control_change', channel=9, control=4, value=90, time=0),\n",
      "  Message('note_on', channel=9, note=36, velocity=46, time=22),\n",
      "  Message('control_change', channel=9, control=4, value=88, time=22),\n",
      "  Message('control_change', channel=9, control=4, value=86, time=43),\n",
      "  Message('note_on', channel=9, note=36, velocity=0, time=28),\n",
      "  Message('control_change', channel=9, control=4, value=84, time=16),\n",
      "  Message('note_on', channel=9, note=38, velocity=83, time=4),\n",
      "  Message('control_change', channel=9, control=4, value=82, time=20),\n",
      "  Message('note_on', channel=9, note=51, velocity=28, time=0),\n",
      "  Message('control_change', channel=9, control=4, value=78, time=22),\n",
      "  Message('control_change', channel=9, control=4, value=73, time=22),\n",
      "  Message('control_change', channel=9, control=4, value=69, time=16),\n",
      "  Message('note_on', channel=9, note=38, velocity=0, time=14),\n",
      "  Message('control_change', channel=9, control=4, value=72, time=7),\n",
      "  Message('note_on', channel=9, note=51, velocity=0, time=13),\n",
      "  Message('control_change', channel=9, control=4, value=75, time=9),\n",
      "  Message('note_on', channel=9, note=51, velocity=34, time=20),\n",
      "  Message('control_change', channel=9, control=4, value=78, time=2),\n",
      "  Message('control_change', channel=9, control=4, value=79, time=1),\n",
      "  Message('control_change', channel=9, control=4, value=84, time=22),\n",
      "  Message('control_change', channel=9, control=4, value=89, time=22),\n",
      "  Message('control_change', channel=9, control=4, value=90, time=1),\n",
      "  Message('control_change', channel=9, control=4, value=86, time=22),\n",
      "  Message('note_on', channel=9, note=44, velocity=90, time=4),\n",
      "  Message('control_change', channel=9, control=4, value=82, time=18),\n",
      "  Message('note_on', channel=9, note=51, velocity=0, time=1),\n",
      "  Message('note_on', channel=9, note=53, velocity=64, time=19),\n",
      "  Message('control_change', channel=9, control=4, value=78, time=2),\n",
      "  Message('control_change', channel=9, control=4, value=74, time=21),\n",
      "  Message('control_change', channel=9, control=4, value=69, time=22),\n",
      "  Message('note_on', channel=9, note=44, velocity=0, time=11),\n",
      "  Message('control_change', channel=9, control=4, value=65, time=11),\n",
      "  Message('control_change', channel=9, control=4, value=61, time=22),\n",
      "  Message('note_on', channel=9, note=53, velocity=0, time=4),\n",
      "  Message('control_change', channel=9, control=4, value=58, time=7),\n",
      "  Message('note_on', channel=9, note=36, velocity=44, time=3),\n",
      "  Message('note_on', channel=9, note=38, velocity=26, time=7),\n",
      "  Message('control_change', channel=9, control=4, value=34, time=12),\n",
      "  Message('control_change', channel=9, control=4, value=10, time=22),\n",
      "  Message('control_change', channel=9, control=4, value=0, time=8),\n",
      "  Message('control_change', channel=9, control=4, value=13, time=22),\n",
      "  Message('control_change', channel=9, control=4, value=26, time=22),\n",
      "  Message('note_on', channel=9, note=36, velocity=0, time=1),\n",
      "  Message('note_on', channel=9, note=38, velocity=0, time=6),\n",
      "  Message('note_on', channel=9, note=44, velocity=17, time=1),\n",
      "  Message('control_change', channel=9, control=4, value=39, time=14),\n",
      "  Message('control_change', channel=9, control=4, value=53, time=21),\n",
      "  Message('note_on', channel=9, note=51, velocity=35, time=1),\n",
      "  Message('control_change', channel=9, control=4, value=66, time=21),\n",
      "  Message('control_change', channel=9, control=4, value=78, time=19),\n",
      "  Message('note_on', channel=9, note=44, velocity=0, time=18),\n",
      "  Message('control_change', channel=9, control=4, value=84, time=4),\n",
      "  Message('control_change', channel=9, control=4, value=90, time=21),\n",
      "  Message('note_on', channel=9, note=51, velocity=0, time=10),\n",
      "  Message('note_on', channel=9, note=51, velocity=30, time=15),\n",
      "  Message('control_change', channel=9, control=4, value=87, time=19),\n",
      "  Message('control_change', channel=9, control=4, value=83, time=43),\n",
      "  Message('note_on', channel=9, note=51, velocity=0, time=32),\n",
      "  Message('note_on', channel=9, note=44, velocity=97, time=1),\n",
      "  Message('control_change', channel=9, control=4, value=79, time=11),\n",
      "  Message('control_change', channel=9, control=4, value=78, time=10),\n",
      "  Message('note_on', channel=9, note=51, velocity=73, time=1),\n",
      "  Message('control_change', channel=9, control=4, value=71, time=21),\n",
      "  Message('control_change', channel=9, control=4, value=63, time=22),\n",
      "  Message('control_change', channel=9, control=4, value=57, time=21),\n",
      "  Message('note_on', channel=9, note=44, velocity=0, time=8),\n",
      "  Message('control_change', channel=9, control=4, value=51, time=14),\n",
      "  Message('control_change', channel=9, control=4, value=49, time=7),\n",
      "  Message('note_on', channel=9, note=51, velocity=0, time=0),\n",
      "  Message('control_change', channel=9, control=4, value=61, time=22),\n",
      "  Message('note_on', channel=9, note=36, velocity=43, time=9),\n",
      "  Message('control_change', channel=9, control=4, value=74, time=13),\n",
      "  Message('control_change', channel=9, control=4, value=77, time=3),\n",
      "  Message('control_change', channel=9, control=4, value=83, time=22),\n",
      "  Message('control_change', channel=9, control=4, value=89, time=21),\n",
      "  Message('control_change', channel=9, control=4, value=90, time=2),\n",
      "  Message('control_change', channel=9, control=4, value=84, time=21),\n",
      "  Message('note_on', channel=9, note=36, velocity=0, time=12),\n",
      "  Message('control_change', channel=9, control=4, value=78, time=10),\n",
      "  Message('note_on', channel=9, note=51, velocity=46, time=20),\n",
      "  Message('control_change', channel=9, control=4, value=72, time=2),\n",
      "  Message('note_on', channel=9, note=38, velocity=84, time=11),\n",
      "  Message('control_change', channel=9, control=4, value=66, time=11),\n",
      "  Message('control_change', channel=9, control=4, value=59, time=21),\n",
      "  Message('control_change', channel=9, control=4, value=53, time=22),\n",
      "  Message('control_change', channel=9, control=4, value=47, time=22),\n",
      "  Message('note_on', channel=9, note=51, velocity=0, time=4),\n",
      "  Message('control_change', channel=9, control=4, value=42, time=12),\n",
      "  Message('note_on', channel=9, note=38, velocity=0, time=2),\n",
      "  Message('control_change', channel=9, control=4, value=24, time=20),\n",
      "  Message('note_on', channel=9, note=51, velocity=33, time=0),\n",
      "  Message('control_change', channel=9, control=4, value=5, time=21),\n",
      "  Message('control_change', channel=9, control=4, value=0, time=6),\n",
      "  Message('control_change', channel=9, control=4, value=12, time=22),\n",
      "  Message('control_change', channel=9, control=4, value=24, time=22),\n",
      "  Message('control_change', channel=9, control=4, value=36, time=21),\n",
      "  Message('note_on', channel=9, note=51, velocity=0, time=1),\n",
      "  Message('note_on', channel=9, note=44, velocity=97, time=19),\n",
      "  Message('control_change', channel=9, control=4, value=48, time=2),\n",
      "  Message('note_on', channel=9, note=51, velocity=81, time=0),\n",
      "  Message('control_change', channel=9, control=4, value=61, time=22),\n",
      "  Message('control_change', channel=9, control=4, value=68, time=13),\n",
      "  Message('control_change', channel=9, control=4, value=78, time=22),\n",
      "  Message('control_change', channel=9, control=4, value=89, time=22),\n",
      "  Message('control_change', channel=9, control=4, value=90, time=1),\n",
      "  Message('note_on', channel=9, note=44, velocity=0, time=11),\n",
      "  Message('note_on', channel=9, note=51, velocity=0, time=3),\n",
      "  Message('note_on', channel=9, note=38, velocity=34, time=24),\n",
      "  Message('control_change', channel=9, control=4, value=86, time=5),\n",
      "  Message('control_change', channel=9, control=4, value=81, time=44),\n",
      "  Message('note_on', channel=9, note=38, velocity=0, time=3),\n",
      "  Message('note_on', channel=9, note=38, velocity=24, time=0),\n",
      "  Message('control_change', channel=9, control=4, value=76, time=40),\n",
      "  Message('note_on', channel=9, note=38, velocity=0, time=2),\n",
      "  Message('control_change', channel=9, control=4, value=75, time=4),\n",
      "  Message('control_change', channel=9, control=4, value=63, time=22),\n",
      "  Message('note_on', channel=9, note=44, velocity=32, time=3),\n",
      "  Message('note_on', channel=9, note=51, velocity=42, time=12),\n",
      "  Message('note_on', channel=9, note=36, velocity=44, time=3),\n",
      "  Message('control_change', channel=9, control=4, value=50, time=4),\n",
      "  Message('control_change', channel=9, control=4, value=40, time=16),\n",
      "  Message('control_change', channel=9, control=4, value=34, time=21),\n",
      "  Message('control_change', channel=9, control=4, value=26, time=22),\n",
      "  Message('control_change', channel=9, control=4, value=27, time=0),\n",
      "  Message('note_on', channel=9, note=44, velocity=0, time=16),\n",
      "  Message('control_change', channel=9, control=4, value=47, time=6),\n",
      "  Message('note_on', channel=9, note=51, velocity=0, time=6),\n",
      "  Message('note_on', channel=9, note=36, velocity=0, time=3),\n",
      "  Message('note_on', channel=9, note=51, velocity=40, time=11),\n",
      "  Message('control_change', channel=9, control=4, value=68, time=2),\n",
      "  Message('control_change', channel=9, control=4, value=71, time=3),\n",
      "  Message('control_change', channel=9, control=4, value=79, time=21),\n",
      "  Message('control_change', channel=9, control=4, value=88, time=22),\n",
      "  Message('control_change', channel=9, control=4, value=90, time=3),\n",
      "  Message('control_change', channel=9, control=4, value=86, time=22),\n",
      "  Message('note_on', channel=9, note=51, velocity=0, time=21),\n",
      "  Message('control_change', channel=9, control=4, value=81, time=1),\n",
      "  Message('control_change', channel=9, control=4, value=76, time=21),\n",
      "  Message('note_on', channel=9, note=53, velocity=67, time=2),\n",
      "  Message('note_on', channel=9, note=44, velocity=97, time=2),\n",
      "  Message('control_change', channel=9, control=4, value=72, time=18),\n",
      "  Message('control_change', channel=9, control=4, value=67, time=22),\n",
      "  Message('control_change', channel=9, control=4, value=62, time=22),\n",
      "  Message('control_change', channel=9, control=4, value=58, time=15),\n",
      "  Message('note_on', channel=9, note=53, velocity=0, time=14),\n",
      "  Message('note_on', channel=9, note=44, velocity=0, time=3),\n",
      "  Message('control_change', channel=9, control=4, value=33, time=5),\n",
      "  Message('control_change', channel=9, control=4, value=8, time=22),\n",
      "  Message('control_change', channel=9, control=4, value=0, time=7),\n",
      "  Message('note_on', channel=9, note=36, velocity=46, time=8),\n",
      "  Message('control_change', channel=9, control=4, value=14, time=14),\n",
      "  Message('control_change', channel=9, control=4, value=29, time=22),\n",
      "  Message('control_change', channel=9, control=4, value=44, time=21),\n",
      "  Message('control_change', channel=9, control=4, value=59, time=22),\n",
      "  Message('note_on', channel=9, note=36, velocity=0, time=15),\n",
      "  Message('control_change', channel=9, control=4, value=74, time=7),\n",
      "  Message('control_change', channel=9, control=4, value=76, time=1),\n",
      "  Message('note_on', channel=9, note=51, velocity=45, time=14),\n",
      "  Message('note_on', channel=9, note=38, velocity=68, time=5),\n",
      "  Message('control_change', channel=9, control=4, value=83, time=5),\n",
      "  Message('control_change', channel=9, control=4, value=90, time=21),\n",
      "  Message('control_change', channel=9, control=4, value=86, time=44),\n",
      "  Message('note_on', channel=9, note=51, velocity=0, time=19),\n",
      "  Message('note_on', channel=9, note=38, velocity=0, time=5),\n",
      "  Message('control_change', channel=9, control=4, value=81, time=19),\n",
      "  Message('note_on', channel=9, note=51, velocity=35, time=0),\n",
      "  Message('control_change', channel=9, control=4, value=76, time=44),\n",
      "  Message('control_change', channel=9, control=4, value=71, time=35),\n",
      "  Message('note_on', channel=9, note=51, velocity=0, time=15),\n",
      "  Message('control_change', channel=9, control=4, value=63, time=6),\n",
      "  Message('note_on', channel=9, note=53, velocity=72, time=14),\n",
      "  Message('note_on', channel=9, note=44, velocity=97, time=1),\n",
      "  Message('control_change', channel=9, control=4, value=54, time=7),\n",
      "  Message('control_change', channel=9, control=4, value=45, time=20),\n",
      "  Message('control_change', channel=9, control=4, value=58, time=22),\n",
      "  Message('control_change', channel=9, control=4, value=72, time=22),\n",
      "  Message('control_change', channel=9, control=4, value=76, time=6),\n",
      "  Message('note_on', channel=9, note=44, velocity=0, time=16),\n",
      "  Message('note_on', channel=9, note=53, velocity=0, time=0),\n",
      "  Message('control_change', channel=9, control=4, value=82, time=6),\n",
      "  Message('control_change', channel=9, control=4, value=89, time=21),\n",
      "  Message('control_change', channel=9, control=4, value=90, time=2),\n",
      "  Message('note_on', channel=9, note=38, velocity=8, time=14),\n",
      "  Message('note_on', channel=9, note=36, velocity=49, time=5),\n",
      "  Message('control_change', channel=9, control=4, value=86, time=2),\n",
      "  Message('control_change', channel=9, control=4, value=82, time=22),\n",
      "  Message('control_change', channel=9, control=4, value=77, time=22),\n",
      "  Message('control_change', channel=9, control=4, value=73, time=22),\n",
      "  Message('note_on', channel=9, note=38, velocity=0, time=20),\n",
      "  Message('control_change', channel=9, control=4, value=69, time=1),\n",
      "  Message('note_on', channel=9, note=36, velocity=0, time=5),\n",
      "  Message('note_on', channel=9, note=44, velocity=25, time=7),\n",
      "  Message('note_on', channel=9, note=51, velocity=40, time=0),\n",
      "  Message('control_change', channel=9, control=4, value=64, time=10),\n",
      "  Message('control_change', channel=9, control=4, value=60, time=22),\n",
      "  Message('control_change', channel=9, control=4, value=58, time=7),\n",
      "  Message('control_change', channel=9, control=4, value=35, time=22),\n",
      "  Message('control_change', channel=9, control=4, value=11, time=22),\n",
      "  Message('control_change', channel=9, control=4, value=0, time=10),\n",
      "  Message('note_on', channel=9, note=44, velocity=0, time=1),\n",
      "  Message('note_on', channel=9, note=51, velocity=0, time=0),\n",
      "  Message('control_change', channel=9, control=4, value=13, time=21),\n",
      "  Message('note_on', channel=9, note=51, velocity=39, time=6),\n",
      "  Message('note_on', channel=9, note=38, velocity=48, time=14),\n",
      "  Message('control_change', channel=9, control=4, value=27, time=1),\n",
      "  Message('control_change', channel=9, control=4, value=40, time=22),\n",
      "  Message('control_change', channel=9, control=4, value=54, time=22),\n",
      "  Message('control_change', channel=9, control=4, value=66, time=17),\n",
      "  Message('note_on', channel=9, note=51, velocity=0, time=18),\n",
      "  Message('control_change', channel=9, control=4, value=77, time=4),\n",
      "  Message('note_on', channel=9, note=38, velocity=0, time=10),\n",
      "  Message('control_change', channel=9, control=4, value=89, time=12),\n",
      "  Message('control_change', channel=9, control=4, value=90, time=1),\n",
      "  Message('note_on', channel=9, note=44, velocity=97, time=0),\n",
      "  Message('note_on', channel=9, note=53, velocity=78, time=6),\n",
      "  Message('control_change', channel=9, control=4, value=85, time=38),\n",
      "  Message('control_change', channel=9, control=4, value=79, time=43),\n",
      "  Message('note_on', channel=9, note=44, velocity=0, time=7),\n",
      "  Message('note_on', channel=9, note=53, velocity=0, time=6),\n",
      "  Message('control_change', channel=9, control=4, value=73, time=31),\n",
      "  Message('note_on', channel=9, note=36, velocity=47, time=20),\n",
      "  Message('control_change', channel=9, control=4, value=68, time=16),\n",
      "  Message('control_change', channel=9, control=4, value=57, time=22),\n",
      "  Message('control_change', channel=9, control=4, value=45, time=21),\n",
      "  Message('control_change', channel=9, control=4, value=35, time=19),\n",
      "  Message('note_on', channel=9, note=44, velocity=17, time=2),\n",
      "  Message('note_on', channel=9, note=36, velocity=0, time=13),\n",
      "  Message('control_change', channel=9, control=4, value=47, time=7),\n",
      "  Message('note_on', channel=9, note=51, velocity=40, time=7),\n",
      "  Message('note_on', channel=9, note=37, velocity=71, time=11),\n",
      "  Message('control_change', channel=9, control=4, value=59, time=4),\n",
      "  Message('control_change', channel=9, control=4, value=71, time=22),\n",
      "  Message('control_change', channel=9, control=4, value=76, time=8),\n",
      "  Message('control_change', channel=9, control=4, value=82, time=22),\n",
      "  Message('note_on', channel=9, note=44, velocity=0, time=0),\n",
      "  Message('control_change', channel=9, control=4, value=89, time=22),\n",
      "  Message('control_change', channel=9, control=4, value=90, time=1),\n",
      "  Message('note_on', channel=9, note=51, velocity=0, time=3),\n",
      "  Message('note_on', channel=9, note=37, velocity=0, time=11),\n",
      "  Message('control_change', channel=9, control=4, value=86, time=8),\n",
      "  Message('note_on', channel=9, note=51, velocity=38, time=12),\n",
      "  Message('control_change', channel=9, control=4, value=82, time=10),\n",
      "  Message('control_change', channel=9, control=4, value=78, time=21),\n",
      "  Message('control_change', channel=9, control=4, value=74, time=22),\n",
      "  Message('control_change', channel=9, control=4, value=69, time=22),\n",
      "  Message('note_on', channel=9, note=51, velocity=0, time=19),\n",
      "  Message('control_change', channel=9, control=4, value=65, time=3),\n",
      "  Message('note_on', channel=9, note=44, velocity=105, time=14),\n",
      "  Message('control_change', channel=9, control=4, value=61, time=7),\n",
      "  Message('note_on', channel=9, note=53, velocity=70, time=0),\n",
      "  Message('control_change', channel=9, control=4, value=59, time=8),\n",
      "  Message('control_change', channel=9, control=4, value=36, time=21),\n",
      "  Message('control_change', channel=9, control=4, value=12, time=22),\n",
      "  Message('control_change', channel=9, control=4, value=0, time=10),\n",
      "  Message('control_change', channel=9, control=4, value=13, time=22),\n",
      "  Message('note_on', channel=9, note=44, velocity=0, time=4),\n",
      "  Message('note_on', channel=9, note=53, velocity=0, time=6),\n",
      "  Message('note_on', channel=9, note=38, velocity=34, time=7),\n",
      "  Message('control_change', channel=9, control=4, value=27, time=5),\n",
      "  Message('control_change', channel=9, control=4, value=41, time=22),\n",
      "  Message('control_change', channel=9, control=4, value=55, time=21),\n",
      "  Message('note_on', channel=9, note=38, velocity=0, time=20),\n",
      "  Message('note_on', channel=9, note=38, velocity=31, time=0),\n",
      "  Message('control_change', channel=9, control=4, value=69, time=2),\n",
      "  Message('control_change', channel=9, control=4, value=76, time=10),\n",
      "  Message('note_on', channel=9, note=38, velocity=0, time=14),\n",
      "  Message('control_change', channel=9, control=4, value=83, time=8),\n",
      "  Message('control_change', channel=9, control=4, value=90, time=22),\n",
      "  Message('note_on', channel=9, note=51, velocity=37, time=22),\n",
      "  Message('note_on', channel=9, note=36, velocity=43, time=11),\n",
      "  Message('control_change', channel=9, control=4, value=86, time=10),\n",
      "  Message('control_change', channel=9, control=4, value=82, time=44),\n",
      "  Message('note_on', channel=9, note=51, velocity=0, time=28),\n",
      "  Message('note_on', channel=9, note=38, velocity=20, time=6),\n",
      "  Message('note_on', channel=9, note=36, velocity=0, time=5),\n",
      "  Message('control_change', channel=9, control=4, value=78, time=4),\n",
      "  Message('control_change', channel=9, control=4, value=77, time=10),\n",
      "  Message('note_on', channel=9, note=51, velocity=24, time=5),\n",
      "  Message('control_change', channel=9, control=4, value=66, time=17),\n",
      "  Message('control_change', channel=9, control=4, value=55, time=22),\n",
      "  Message('control_change', channel=9, control=4, value=45, time=19),\n",
      "  Message('note_on', channel=9, note=38, velocity=0, time=12),\n",
      "  Message('control_change', channel=9, control=4, value=38, time=10),\n",
      "  Message('note_on', channel=9, note=51, velocity=0, time=14),\n",
      "  Message('control_change', channel=9, control=4, value=31, time=7),\n",
      "  Message('control_change', channel=9, control=4, value=30, time=3),\n",
      "  Message('note_on', channel=9, note=53, velocity=67, time=3),\n",
      "  Message('note_on', channel=9, note=44, velocity=100, time=2),\n",
      "  Message('control_change', channel=9, control=4, value=52, time=17),\n",
      "  Message('control_change', channel=9, control=4, value=75, time=22),\n",
      "  Message('control_change', channel=9, control=4, value=78, time=3),\n",
      "  Message('control_change', channel=9, control=4, value=84, time=21),\n",
      "  Message('control_change', channel=9, control=4, value=90, time=22),\n",
      "  Message('note_on', channel=9, note=53, velocity=0, time=6),\n",
      "  Message('note_on', channel=9, note=44, velocity=0, time=3),\n",
      "  Message('control_change', channel=9, control=4, value=86, time=13),\n",
      "  Message('note_on', channel=9, note=36, velocity=46, time=6),\n",
      "  Message('control_change', channel=9, control=4, value=81, time=16),\n",
      "  Message('control_change', channel=9, control=4, value=76, time=21),\n",
      "  Message('control_change', channel=9, control=4, value=72, time=22),\n",
      "  Message('control_change', channel=9, control=4, value=67, time=22),\n",
      "  Message('note_on', channel=9, note=36, velocity=0, time=14),\n",
      "  Message('control_change', channel=9, control=4, value=62, time=8),\n",
      "  Message('note_on', channel=9, note=38, velocity=64, time=12),\n",
      "  Message('note_on', channel=9, note=44, velocity=27, time=3),\n",
      "  Message('control_change', channel=9, control=4, value=58, time=2),\n",
      "  Message('note_on', channel=9, note=51, velocity=33, time=4),\n",
      "  Message('control_change', channel=9, control=4, value=32, time=18),\n",
      "  Message('control_change', channel=9, control=4, value=6, time=21),\n",
      "  Message('control_change', channel=9, control=4, value=0, time=5),\n",
      "  Message('control_change', channel=9, control=4, value=13, time=22),\n",
      "  Message('note_on', channel=9, note=38, velocity=0, time=19),\n",
      "  Message('control_change', channel=9, control=4, value=27, time=2),\n",
      "  Message('note_on', channel=9, note=44, velocity=0, time=0),\n",
      "  Message('note_on', channel=9, note=51, velocity=0, time=7),\n",
      "  Message('control_change', channel=9, control=4, value=41, time=15),\n",
      "  Message('note_on', channel=9, note=51, velocity=33, time=9),\n",
      "  Message('control_change', channel=9, control=4, value=54, time=13),\n",
      "  Message('control_change', channel=9, control=4, value=68, time=22),\n",
      "  Message('control_change', channel=9, control=4, value=76, time=11),\n",
      "  Message('control_change', channel=9, control=4, value=83, time=22),\n",
      "  Message('control_change', channel=9, control=4, value=90, time=22),\n",
      "  Message('note_on', channel=9, note=51, velocity=0, time=4),\n",
      "  Message('note_on', channel=9, note=44, velocity=100, time=16),\n",
      "  Message('note_on', channel=9, note=53, velocity=69, time=6),\n",
      "  Message('control_change', channel=9, control=4, value=86, time=17),\n",
      "  Message('control_change', channel=9, control=4, value=82, time=44),\n",
      "  Message('note_on', channel=9, note=44, velocity=0, time=26),\n",
      "  Message('note_on', channel=9, note=53, velocity=0, time=7),\n",
      "  Message('control_change', channel=9, control=4, value=78, time=10),\n",
      "  Message('note_on', channel=9, note=38, velocity=27, time=13),\n",
      "  Message('control_change', channel=9, control=4, value=76, time=2),\n",
      "  Message('note_on', channel=9, note=36, velocity=40, time=0),\n",
      "  Message('control_change', channel=9, control=4, value=61, time=21),\n",
      "  Message('control_change', channel=9, control=4, value=46, time=22),\n",
      "  Message('control_change', channel=9, control=4, value=37, time=13),\n",
      "  Message('control_change', channel=9, control=4, value=30, time=22),\n",
      "  Message('note_on', channel=9, note=38, velocity=0, time=14),\n",
      "  Message('note_on', channel=9, note=36, velocity=0, time=1),\n",
      "  Message('control_change', channel=9, control=4, value=22, time=7),\n",
      "  Message('control_change', channel=9, control=4, value=23, time=0),\n",
      "  Message('note_on', channel=9, note=44, velocity=22, time=9),\n",
      "  Message('control_change', channel=9, control=4, value=38, time=12),\n",
      "  Message('note_on', channel=9, note=51, velocity=35, time=2),\n",
      "  Message('control_change', channel=9, control=4, value=54, time=20),\n",
      "  Message('control_change', channel=9, control=4, value=65, time=15),\n",
      "  Message('control_change', channel=9, control=4, value=76, time=21),\n",
      "  Message('control_change', channel=9, control=4, value=87, time=22),\n",
      "  Message('note_on', channel=9, note=44, velocity=0, time=1),\n",
      "  Message('control_change', channel=9, control=4, value=90, time=5),\n",
      "  Message('note_on', channel=9, note=51, velocity=0, time=10),\n",
      "  Message('control_change', channel=9, control=4, value=86, time=12),\n",
      "  Message('note_on', channel=9, note=51, velocity=37, time=10),\n",
      "  Message('control_change', channel=9, control=4, value=82, time=12),\n",
      "  Message('control_change', channel=9, control=4, value=78, time=21),\n",
      "  Message('control_change', channel=9, control=4, value=74, time=22),\n",
      "  Message('control_change', channel=9, control=4, value=70, time=22),\n",
      "  Message('note_on', channel=9, note=51, velocity=0, time=17),\n",
      "  Message('control_change', channel=9, control=4, value=65, time=5),\n",
      "  Message('note_on', channel=9, note=44, velocity=105, time=15),\n",
      "  Message('control_change', channel=9, control=4, value=61, time=6),\n",
      "  Message('note_on', channel=9, note=53, velocity=75, time=0),\n",
      "  Message('control_change', channel=9, control=4, value=59, time=9),\n",
      "  Message('control_change', channel=9, control=4, value=36, time=22),\n",
      "  Message('control_change', channel=9, control=4, value=12, time=21),\n",
      "  Message('control_change', channel=9, control=4, value=0, time=11),\n",
      "  Message('control_change', channel=9, control=4, value=14, time=21),\n",
      "  Message('note_on', channel=9, note=44, velocity=0, time=3),\n",
      "  Message('note_on', channel=9, note=53, velocity=0, time=7),\n",
      "  Message('control_change', channel=9, control=4, value=28, time=12),\n",
      "  Message('control_change', channel=9, control=4, value=43, time=22),\n",
      "  Message('note_on', channel=9, note=36, velocity=43, time=10),\n",
      "  Message('control_change', channel=9, control=4, value=57, time=12),\n",
      "  Message('control_change', channel=9, control=4, value=71, time=21),\n",
      "  Message('control_change', channel=9, control=4, value=76, time=8),\n",
      "  Message('control_change', channel=9, control=4, value=83, time=21),\n",
      "  Message('note_on', channel=9, note=44, velocity=17, time=18),\n",
      "  Message('control_change', channel=9, control=4, value=90, time=4),\n",
      "  Message('note_on', channel=9, note=36, velocity=0, time=9),\n",
      "  Message('note_on', channel=9, note=38, velocity=61, time=24),\n",
      "  Message('note_on', channel=9, note=51, velocity=36, time=7),\n",
      "  Message('control_change', channel=9, control=4, value=86, time=4),\n",
      "  Message('control_change', channel=9, control=4, value=82, time=43),\n",
      "  Message('note_on', channel=9, note=44, velocity=0, time=3),\n",
      "  Message('note_on', channel=9, note=38, velocity=0, time=36),\n",
      "  Message('control_change', channel=9, control=4, value=77, time=5),\n",
      "  Message('note_on', channel=9, note=51, velocity=0, time=2),\n",
      "  Message('control_change', channel=9, control=4, value=75, time=14),\n",
      "  Message('note_on', channel=9, note=51, velocity=41, time=10),\n",
      "  Message('control_change', channel=9, control=4, value=64, time=11),\n",
      "  Message('control_change', channel=9, control=4, value=52, time=22),\n",
      "  Message('control_change', channel=9, control=4, value=42, time=19),\n",
      "  Message('control_change', channel=9, control=4, value=36, time=22),\n",
      "  Message('note_on', channel=9, note=51, velocity=0, time=19),\n",
      "  Message('control_change', channel=9, control=4, value=29, time=2),\n",
      "  Message('note_on', channel=9, note=44, velocity=100, time=4),\n",
      "  Message('control_change', channel=9, control=4, value=27, time=1),\n",
      "  Message('note_on', channel=9, note=53, velocity=95, time=15),\n",
      "  Message('control_change', channel=9, control=4, value=49, time=7),\n",
      "  Message('control_change', channel=9, control=4, value=72, time=21),\n",
      "  Message('control_change', channel=9, control=4, value=78, time=6),\n",
      "  Message('control_change', channel=9, control=4, value=84, time=22),\n",
      "  Message('control_change', channel=9, control=4, value=90, time=22),\n",
      "  Message('note_on', channel=9, note=44, velocity=0, time=0),\n",
      "  Message('note_on', channel=9, note=53, velocity=0, time=16),\n",
      "  Message('control_change', channel=9, control=4, value=86, time=5),\n",
      "  Message('note_on', channel=9, note=38, velocity=36, time=12),\n",
      "  Message('control_change', channel=9, control=4, value=81, time=10),\n",
      "  Message('control_change', channel=9, control=4, value=77, time=22),\n",
      "  Message('control_change', channel=9, control=4, value=72, time=22),\n",
      "  Message('control_change', channel=9, control=4, value=68, time=21),\n",
      "  Message('note_on', channel=9, note=38, velocity=0, time=19),\n",
      "  Message('control_change', channel=9, control=4, value=63, time=3),\n",
      "  Message('note_on', channel=9, note=44, velocity=27, time=8),\n",
      "  Message('control_change', channel=9, control=4, value=58, time=14),\n",
      "  Message('note_on', channel=9, note=36, velocity=38, time=1),\n",
      "  Message('note_on', channel=9, note=51, velocity=50, time=12),\n",
      "  Message('control_change', channel=9, control=4, value=33, time=9),\n",
      "  Message('control_change', channel=9, control=4, value=8, time=21),\n",
      "  Message('control_change', channel=9, control=4, value=0, time=6),\n",
      "  Message('control_change', channel=9, control=4, value=14, time=22),\n",
      "  Message('note_on', channel=9, note=44, velocity=0, time=9),\n",
      "  Message('control_change', channel=9, control=4, value=29, time=13),\n",
      "  Message('note_on', channel=9, note=36, velocity=0, time=2),\n",
      "  Message('note_on', channel=9, note=51, velocity=0, time=12),\n",
      "  Message('control_change', channel=9, control=4, value=44, time=7),\n",
      "  Message('note_on', channel=9, note=48, velocity=81, time=16),\n",
      "  Message('control_change', channel=9, control=4, value=59, time=6),\n",
      "  Message('control_change', channel=9, control=4, value=72, time=19),\n",
      "  Message('control_change', channel=9, control=4, value=80, time=22),\n",
      "  Message('control_change', channel=9, control=4, value=89, time=21),\n",
      "  Message('control_change', channel=9, control=4, value=90, time=0),\n",
      "  Message('control_change', channel=9, control=4, value=86, time=22),\n",
      "  Message('note_on', channel=9, note=48, velocity=0, time=3),\n",
      "  Message('note_on', channel=9, note=44, velocity=92, time=9),\n",
      "  Message('control_change', channel=9, control=4, value=81, time=10),\n",
      "  Message('note_on', channel=9, note=48, velocity=81, time=9),\n",
      "  Message('control_change', channel=9, control=4, value=76, time=13),\n",
      "  Message('control_change', channel=9, control=4, value=71, time=21),\n",
      "  Message('control_change', channel=9, control=4, value=67, time=22),\n",
      "  Message('note_on', channel=9, note=44, velocity=0, time=18),\n",
      "  Message('control_change', channel=9, control=4, value=62, time=4),\n",
      "  Message('note_on', channel=9, note=48, velocity=0, time=15),\n",
      "  Message('control_change', channel=9, control=4, value=57, time=7),\n",
      "  Message('note_on', channel=9, note=36, velocity=48, time=10),\n",
      "  Message('control_change', channel=9, control=4, value=52, time=11),\n",
      "  Message('control_change', channel=9, control=4, value=41, time=22),\n",
      "  Message('control_change', channel=9, control=4, value=29, time=22),\n",
      "  Message('control_change', channel=9, control=4, value=21, time=14),\n",
      "  Message('control_change', channel=9, control=4, value=37, time=22),\n",
      "  Message('note_on', channel=9, note=36, velocity=0, time=3),\n",
      "  Message('note_on', channel=9, note=44, velocity=30, time=3),\n",
      "  Message('control_change', channel=9, control=4, value=54, time=16),\n",
      "  Message('note_on', channel=9, note=45, velocity=94, time=18),\n",
      "  Message('control_change', channel=9, control=4, value=71, time=4),\n",
      "  Message('control_change', channel=9, control=4, value=78, time=8),\n",
      "  Message('control_change', channel=9, control=4, value=84, time=22),\n",
      "  Message('control_change', channel=9, control=4, value=90, time=22),\n",
      "  Message('note_on', channel=9, note=44, velocity=0, time=4),\n",
      "  Message('control_change', channel=9, control=4, value=86, time=18),\n",
      "  Message('note_on', channel=9, note=45, velocity=0, time=16),\n",
      "  Message('control_change', channel=9, control=4, value=82, time=5),\n",
      "  Message('note_on', channel=9, note=38, velocity=35, time=2),\n",
      "  Message('control_change', channel=9, control=4, value=77, time=20),\n",
      "  Message('control_change', channel=9, control=4, value=73, time=22),\n",
      "  Message('note_on', channel=9, note=38, velocity=0, time=18),\n",
      "  Message('note_on', channel=9, note=38, velocity=31, time=0),\n",
      "  Message('control_change', channel=9, control=4, value=69, time=4),\n",
      "  Message('control_change', channel=9, control=4, value=64, time=21),\n",
      "  Message('note_on', channel=9, note=38, velocity=0, time=8),\n",
      "  Message('control_change', channel=9, control=4, value=60, time=14),\n",
      "  Message('control_change', channel=9, control=4, value=58, time=9),\n",
      "  Message('note_on', channel=9, note=43, velocity=114, time=3),\n",
      "  Message('note_on', channel=9, note=44, velocity=97, time=2),\n",
      "  Message('control_change', channel=9, control=4, value=32, time=17),\n",
      "  Message('control_change', channel=9, control=4, value=6, time=21),\n",
      "  Message('control_change', channel=9, control=4, value=0, time=5),\n",
      "  Message('control_change', channel=9, control=4, value=15, time=21),\n",
      "  Message('control_change', channel=9, control=4, value=31, time=22),\n",
      "  Message('note_on', channel=9, note=38, velocity=37, time=5),\n",
      "  Message('note_on', channel=9, note=43, velocity=0, time=2),\n",
      "  Message('note_on', channel=9, note=44, velocity=0, time=0),\n",
      "  Message('control_change', channel=9, control=4, value=47, time=15),\n",
      "  Message('control_change', channel=9, control=4, value=63, time=22),\n",
      "  Message('control_change', channel=9, control=4, value=77, time=17),\n",
      "  Message('note_on', channel=9, note=38, velocity=0, time=8),\n",
      "  Message('note_on', channel=9, note=38, velocity=36, time=0),\n",
      "  Message('control_change', channel=9, control=4, value=83, time=14),\n",
      "  Message('note_on', channel=9, note=38, velocity=0, time=16),\n",
      "  Message('control_change', channel=9, control=4, value=90, time=6),\n",
      "  Message('control_change', channel=9, control=4, value=87, time=21),\n",
      "  Message('note_on', channel=9, note=44, velocity=22, time=15),\n",
      "  Message('note_on', channel=9, note=38, velocity=109, time=3),\n",
      "  Message('control_change', channel=9, control=4, value=84, time=4),\n",
      "  Message('note_on', channel=9, note=38, velocity=0, time=15),\n",
      "  Message('control_change', channel=9, control=4, value=81, time=7),\n",
      "  Message('control_change', channel=9, control=4, value=77, time=22),\n",
      "  Message('control_change', channel=9, control=4, value=74, time=21),\n",
      "  Message('note_on', channel=9, note=44, velocity=0, time=21),\n",
      "  Message('control_change', channel=9, control=4, value=71, time=1),\n",
      "  Message('control_change', channel=9, control=4, value=67, time=22),\n",
      "  Message('control_change', channel=9, control=4, value=66, time=7),\n",
      "  Message('note_on', channel=9, note=38, velocity=30, time=11),\n",
      "  Message('control_change', channel=9, control=4, value=52, time=11),\n",
      "  Message('control_change', channel=9, control=4, value=37, time=22),\n",
      "  Message('control_change', channel=9, control=4, value=29, time=11),\n",
      "  Message('control_change', channel=9, control=4, value=43, time=22),\n",
      "  Message('control_change', channel=9, control=4, value=57, time=22),\n",
      "  Message('note_on', channel=9, note=38, velocity=0, time=6),\n",
      "  Message('control_change', channel=9, control=4, value=72, time=15),\n",
      "  Message('note_on', channel=9, note=44, velocity=95, time=0),\n",
      "  Message('control_change', channel=9, control=4, value=77, time=8),\n",
      "  Message('note_on', channel=9, note=38, velocity=104, time=0),\n",
      "  Message('control_change', channel=9, control=4, value=83, time=21),\n",
      "  Message('control_change', channel=9, control=4, value=90, time=22),\n",
      "  Message('note_on', channel=9, note=44, velocity=0, time=43),\n",
      "  Message('control_change', channel=9, control=4, value=86, time=1),\n",
      "  Message('note_on', channel=9, note=38, velocity=0, time=6),\n",
      "  Message('control_change', channel=9, control=4, value=81, time=37),\n",
      "  Message('control_change', channel=9, control=4, value=76, time=44),\n",
      "  Message('control_change', channel=9, control=4, value=74, time=10),\n",
      "  Message('control_change', channel=9, control=4, value=44, time=22),\n",
      "  Message('note_on', channel=9, note=44, velocity=37, time=17),\n",
      "  Message('control_change', channel=9, control=4, value=13, time=4),\n",
      "  Message('control_change', channel=9, control=4, value=0, time=9),\n",
      "  Message('note_on', channel=9, note=38, velocity=102, time=19),\n",
      "  Message('control_change', channel=9, control=4, value=13, time=3),\n",
      "  Message('control_change', channel=9, control=4, value=27, time=22),\n",
      "  Message('control_change', channel=9, control=4, value=40, time=21),\n",
      "  Message('note_on', channel=9, note=44, velocity=0, time=16),\n",
      "  Message('control_change', channel=9, control=4, value=54, time=6),\n",
      "  Message('control_change', channel=9, control=4, value=68, time=22),\n",
      "  Message('control_change', channel=9, control=4, value=70, time=3),\n",
      "  Message('note_on', channel=9, note=38, velocity=0, time=1),\n",
      "  Message('control_change', channel=9, control=4, value=79, time=20),\n",
      "  Message('note_on', channel=9, note=38, velocity=82, time=5),\n",
      "  Message('control_change', channel=9, control=4, value=89, time=17),\n",
      "  Message('control_change', channel=9, control=4, value=90, time=0),\n",
      "  Message('control_change', channel=9, control=4, value=86, time=45),\n",
      "  Message('note_on', channel=9, note=44, velocity=102, time=28),\n",
      "  Message('note_on', channel=9, note=38, velocity=0, time=4),\n",
      "  Message('control_change', channel=9, control=4, value=81, time=12),\n",
      "  Message('note_on', channel=9, note=38, velocity=77, time=10),\n",
      "  Message('control_change', channel=9, control=4, value=76, time=30),\n",
      "  Message('control_change', channel=9, control=4, value=61, time=22),\n",
      "  Message('note_on', channel=9, note=44, velocity=0, time=15),\n",
      "  Message('control_change', channel=9, control=4, value=46, time=7),\n",
      "  Message('control_change', channel=9, control=4, value=37, time=13),\n",
      "  Message('note_on', channel=9, note=38, velocity=0, time=7),\n",
      "  Message('control_change', channel=9, control=4, value=29, time=15),\n",
      "  Message('note_on', channel=9, note=36, velocity=36, time=5),\n",
      "  Message('control_change', channel=9, control=4, value=20, time=16),\n",
      "  Message('control_change', channel=9, control=4, value=38, time=22),\n",
      "  Message('control_change', channel=9, control=4, value=56, time=22),\n",
      "  Message('control_change', channel=9, control=4, value=74, time=22),\n",
      "  Message('control_change', channel=9, control=4, value=78, time=2),\n",
      "  Message('note_on', channel=9, note=36, velocity=0, time=9),\n",
      "  Message('control_change', channel=9, control=4, value=84, time=13),\n",
      "  Message('note_on', channel=9, note=55, velocity=73, time=1),\n",
      "  Message('note_on', channel=9, note=36, velocity=48, time=2),\n",
      "  Message('control_change', channel=9, control=4, value=90, time=19),\n",
      "  Message('control_change', channel=9, control=4, value=86, time=22),\n",
      "  Message('control_change', channel=9, control=4, value=82, time=21),\n",
      "  Message('control_change', channel=9, control=4, value=78, time=22),\n",
      "  Message('note_on', channel=9, note=55, velocity=0, time=8),\n",
      "  Message('note_on', channel=9, note=36, velocity=0, time=2),\n",
      "  Message('control_change', channel=9, control=4, value=74, time=12),\n",
      "  Message('note_on', channel=9, note=38, velocity=11, time=21),\n",
      "  Message('control_change', channel=9, control=4, value=70, time=1),\n",
      "  Message('control_change', channel=9, control=4, value=66, time=21),\n",
      "  Message('control_change', channel=9, control=4, value=62, time=22),\n",
      "  Message('control_change', channel=9, control=4, value=58, time=18),\n",
      "  Message('control_change', channel=9, control=4, value=30, time=21),\n",
      "  Message('note_on', channel=9, note=38, velocity=0, time=8),\n",
      "  Message('note_on', channel=9, note=38, velocity=13, time=0),\n",
      "  Message('note_on', channel=9, note=38, velocity=0, time=2),\n",
      "  Message('note_on', channel=9, note=44, velocity=97, time=9),\n",
      "  Message('control_change', channel=9, control=4, value=0, time=3),\n",
      "  Message('control_change', channel=9, control=4, value=1, time=0),\n",
      "  Message('note_on', channel=9, note=51, velocity=59, time=21),\n",
      "  Message('control_change', channel=9, control=4, value=13, time=1),\n",
      "  Message('control_change', channel=9, control=4, value=26, time=22),\n",
      "  Message('control_change', channel=9, control=4, value=40, time=21),\n",
      "  Message('control_change', channel=9, control=4, value=53, time=22),\n",
      "  Message('note_on', channel=9, note=44, velocity=0, time=4),\n",
      "  Message('control_change', channel=9, control=4, value=66, time=18),\n",
      "  Message('control_change', channel=9, control=4, value=70, time=6),\n",
      "  Message('note_on', channel=9, note=51, velocity=0, time=0),\n",
      "  Message('note_on', channel=9, note=36, velocity=46, time=17),\n",
      "  Message('control_change', channel=9, control=4, value=79, time=4),\n",
      "  Message('note_on', channel=9, note=51, velocity=44, time=10),\n",
      "  Message('control_change', channel=9, control=4, value=89, time=12),\n",
      "  Message('control_change', channel=9, control=4, value=90, time=0),\n",
      "  Message('control_change', channel=9, control=4, value=85, time=44),\n",
      "  Message('note_on', channel=9, note=36, velocity=0, time=24),\n",
      "  Message('note_on', channel=9, note=51, velocity=0, time=14),\n",
      "  Message('note_on', channel=9, note=44, velocity=22, time=2),\n",
      "  Message('control_change', channel=9, control=4, value=80, time=3),\n",
      "  Message('note_on', channel=9, note=51, velocity=80, time=10),\n",
      "  Message('note_on', channel=9, note=38, velocity=68, time=4),\n",
      "  Message('control_change', channel=9, control=4, value=74, time=30),\n",
      "  Message('control_change', channel=9, control=4, value=69, time=43),\n",
      "  Message('control_change', channel=9, control=4, value=68, time=3),\n",
      "  Message('note_on', channel=9, note=44, velocity=0, time=0),\n",
      "  Message('note_on', channel=9, note=51, velocity=0, time=13),\n",
      "  Message('note_on', channel=9, note=38, velocity=0, time=4),\n",
      "  Message('control_change', channel=9, control=4, value=59, time=5),\n",
      "  Message('note_on', channel=9, note=38, velocity=35, time=19),\n",
      "  Message('control_change', channel=9, control=4, value=49, time=3),\n",
      "  Message('control_change', channel=9, control=4, value=41, time=18),\n",
      "  Message('control_change', channel=9, control=4, value=51, time=22),\n",
      "  Message('control_change', channel=9, control=4, value=62, time=22),\n",
      "  Message('control_change', channel=9, control=4, value=69, time=13),\n",
      "  Message('note_on', channel=9, note=38, velocity=0, time=15),\n",
      "  Message('control_change', channel=9, control=4, value=78, time=7),\n",
      "  Message('note_on', channel=9, note=51, velocity=88, time=8),\n",
      "  Message('note_on', channel=9, note=44, velocity=100, time=4),\n",
      "  Message('control_change', channel=9, control=4, value=87, time=9),\n",
      "  Message('control_change', channel=9, control=4, value=90, time=6),\n",
      "  Message('control_change', channel=9, control=4, value=86, time=22),\n",
      "  Message('control_change', channel=9, control=4, value=81, time=22),\n",
      "  Message('control_change', channel=9, control=4, value=76, time=22),\n",
      "  Message('note_on', channel=9, note=51, velocity=0, time=9),\n",
      "  Message('note_on', channel=9, note=44, velocity=0, time=5),\n",
      "  Message('note_on', channel=9, note=38, velocity=53, time=1),\n",
      "  Message('control_change', channel=9, control=4, value=71, time=6),\n",
      "  Message('note_on', channel=9, note=51, velocity=88, time=5),\n",
      "  Message('control_change', channel=9, control=4, value=66, time=17),\n",
      "  Message('control_change', channel=9, control=4, value=62, time=22),\n",
      "  Message('control_change', channel=9, control=4, value=57, time=17),\n",
      "  Message('control_change', channel=9, control=4, value=30, time=22),\n",
      "  Message('note_on', channel=9, note=38, velocity=0, time=4),\n",
      "  Message('note_on', channel=9, note=51, velocity=0, time=12),\n",
      "  Message('control_change', channel=9, control=4, value=3, time=6),\n",
      "  Message('note_on', channel=9, note=36, velocity=37, time=0),\n",
      "  Message('control_change', channel=9, control=4, value=0, time=3),\n",
      "  Message('note_on', channel=9, note=44, velocity=17, time=18),\n",
      "  Message('control_change', channel=9, control=4, value=13, time=3),\n",
      "  Message('control_change', channel=9, control=4, value=26, time=22),\n",
      "  Message('control_change', channel=9, control=4, value=39, time=22),\n",
      "  Message('control_change', channel=9, control=4, value=53, time=22),\n",
      "  Message('note_on', channel=9, note=36, velocity=0, time=4),\n",
      "  Message('control_change', channel=9, control=4, value=66, time=17),\n",
      "  Message('note_on', channel=9, note=44, velocity=0, time=4),\n",
      "  Message('control_change', channel=9, control=4, value=69, time=1),\n",
      "  Message('note_on', channel=9, note=38, velocity=25, time=3),\n",
      "  Message('control_change', channel=9, control=4, value=79, time=18),\n",
      "  Message('control_change', channel=9, control=4, value=90, time=22),\n",
      "  Message('note_on', channel=9, note=51, velocity=72, time=7),\n",
      "  Message('control_change', channel=9, control=4, value=85, time=37),\n",
      "  Message('note_on', channel=9, note=38, velocity=0, time=9),\n",
      "  Message('note_on', channel=9, note=38, velocity=26, time=30),\n",
      "  Message('control_change', channel=9, control=4, value=80, time=4),\n",
      "  Message('note_on', channel=9, note=51, velocity=0, time=13),\n",
      "  Message('note_on', channel=9, note=44, velocity=102, time=11),\n",
      "  Message('note_on', channel=9, note=51, velocity=56, time=0),\n",
      "  Message('control_change', channel=9, control=4, value=75, time=20),\n",
      "  Message('control_change', channel=9, control=4, value=74, time=8),\n",
      "  Message('control_change', channel=9, control=4, value=57, time=22),\n",
      "  Message('note_on', channel=9, note=38, velocity=0, time=16),\n",
      "  Message('control_change', channel=9, control=4, value=40, time=6),\n",
      "  Message('control_change', channel=9, control=4, value=32, time=9),\n",
      "  Message('note_on', channel=9, note=44, velocity=0, time=13),\n",
      "  Message('note_on', channel=9, note=51, velocity=0, time=0),\n",
      "  Message('control_change', channel=9, control=4, value=26, time=8),\n",
      "  Message('control_change', channel=9, control=4, value=20, time=22),\n",
      "  Message('note_on', channel=9, note=36, velocity=47, time=1),\n",
      "  Message('control_change', channel=9, control=4, value=18, time=3),\n",
      "  Message('control_change', channel=9, control=4, value=34, time=22),\n",
      "  Message('control_change', channel=9, control=4, value=51, time=22),\n",
      "  Message('control_change', channel=9, control=4, value=61, time=12),\n",
      "  Message('control_change', channel=9, control=4, value=73, time=21),\n",
      "  Message('note_on', channel=9, note=51, velocity=94, time=12),\n",
      "  Message('note_on', channel=9, note=36, velocity=0, time=1),\n",
      "  Message('note_on', channel=9, note=38, velocity=54, time=7),\n",
      "  Message('control_change', channel=9, control=4, value=85, time=2),\n",
      "  Message('note_on', channel=9, note=44, velocity=30, time=4),\n",
      "  Message('control_change', channel=9, control=4, value=90, time=3),\n",
      "  Message('control_change', channel=9, control=4, value=87, time=22),\n",
      "  Message('control_change', channel=9, control=4, value=83, time=22),\n",
      "  Message('control_change', channel=9, control=4, value=80, time=22),\n",
      "  Message('note_on', channel=9, note=51, velocity=0, time=11),\n",
      "  Message('note_on', channel=9, note=38, velocity=0, time=7),\n",
      "  Message('control_change', channel=9, control=4, value=76, time=3),\n",
      "  Message('note_on', channel=9, note=44, velocity=0, time=4),\n",
      "  Message('control_change', channel=9, control=4, value=73, time=18),\n",
      "  Message('note_on', channel=9, note=51, velocity=78, time=3),\n",
      "  Message('note_on', channel=9, note=38, velocity=38, time=16),\n",
      "  Message('control_change', channel=9, control=4, value=69, time=3),\n",
      "  Message('control_change', channel=9, control=4, value=65, time=22),\n",
      "  Message('control_change', channel=9, control=4, value=62, time=21),\n",
      "  Message('control_change', channel=9, control=4, value=61, time=2),\n",
      "  Message('control_change', channel=9, control=4, value=34, time=21),\n",
      "  Message('note_on', channel=9, note=51, velocity=0, time=8),\n",
      "  Message('control_change', channel=9, control=4, value=7, time=14),\n",
      "  Message('note_on', channel=9, note=38, velocity=0, time=3),\n",
      "  Message('control_change', channel=9, control=4, value=0, time=3),\n",
      "  Message('note_on', channel=9, note=44, velocity=102, time=12),\n",
      "  Message('note_on', channel=9, note=36, velocity=39, time=5),\n",
      "  Message('control_change', channel=9, control=4, value=15, time=5),\n",
      "  Message('control_change', channel=9, control=4, value=30, time=22),\n",
      "  Message('control_change', channel=9, control=4, value=46, time=21),\n",
      "  Message('control_change', channel=9, control=4, value=61, time=22),\n",
      "  Message('note_on', channel=9, note=44, velocity=0, time=19),\n",
      "  Message('control_change', channel=9, control=4, value=77, time=3),\n",
      "  Message('control_change', channel=9, control=4, value=78, time=0),\n",
      "  Message('note_on', channel=9, note=36, velocity=0, time=2),\n",
      "  Message('control_change', channel=9, control=4, value=84, time=20),\n",
      "  Message('note_on', channel=9, note=51, velocity=125, time=7),\n",
      "  Message('note_on', channel=9, note=38, velocity=69, time=4),\n",
      "  Message('control_change', channel=9, control=4, value=90, time=10),\n",
      "  Message('control_change', channel=9, control=4, value=86, time=44),\n",
      "  Message('note_on', channel=9, note=51, velocity=0, time=36),\n",
      "  Message('note_on', channel=9, note=38, velocity=0, time=4),\n",
      "  Message('control_change', channel=9, control=4, value=82, time=3),\n",
      "  Message('note_on', channel=9, note=36, velocity=46, time=23),\n",
      "  Message('control_change', channel=9, control=4, value=77, time=21),\n",
      "  Message('control_change', channel=9, control=4, value=73, time=43),\n",
      "  Message('control_change', channel=9, control=4, value=72, time=6),\n",
      "  Message('control_change', channel=9, control=4, value=60, time=22),\n",
      "  Message('note_on', channel=9, note=36, velocity=0, time=2),\n",
      "  Message('control_change', channel=9, control=4, value=47, time=20),\n",
      "  Message('note_on', channel=9, note=51, velocity=58, time=13),\n",
      "  Message('control_change', channel=9, control=4, value=37, time=3),\n",
      "  Message('note_on', channel=9, note=38, velocity=17, time=5),\n",
      "  Message('control_change', channel=9, control=4, value=47, time=16),\n",
      "  Message('control_change', channel=9, control=4, value=57, time=22),\n",
      "  Message('control_change', channel=9, control=4, value=65, time=17),\n",
      "  Message('control_change', channel=9, control=4, value=76, time=22),\n",
      "  Message('note_on', channel=9, note=51, velocity=0, time=9),\n",
      "  Message('note_on', channel=9, note=38, velocity=0, time=7),\n",
      "  Message('control_change', channel=9, control=4, value=87, time=6),\n",
      "  Message('control_change', channel=9, control=4, value=90, time=6),\n",
      "  Message('note_on', channel=9, note=44, velocity=97, time=3),\n",
      "  Message('note_on', channel=9, note=51, velocity=57, time=3),\n",
      "  Message('note_on', channel=9, note=38, velocity=23, time=9),\n",
      "  Message('control_change', channel=9, control=4, value=85, time=6),\n",
      "  Message('control_change', channel=9, control=4, value=80, time=22),\n",
      "  Message('control_change', channel=9, control=4, value=75, time=21),\n",
      "  Message('control_change', channel=9, control=4, value=70, time=23),\n",
      "  Message('note_on', channel=9, note=44, velocity=0, time=9),\n",
      "  Message('note_on', channel=9, note=51, velocity=0, time=4),\n",
      "  Message('control_change', channel=9, control=4, value=65, time=8),\n",
      "  Message('note_on', channel=9, note=38, velocity=0, time=0),\n",
      "  Message('control_change', channel=9, control=4, value=60, time=22),\n",
      "  Message('note_on', channel=9, note=36, velocity=46, time=1),\n",
      "  Message('control_change', channel=9, control=4, value=57, time=11),\n",
      "  Message('control_change', channel=9, control=4, value=30, time=22),\n",
      "  Message('control_change', channel=9, control=4, value=3, time=21),\n",
      "  Message('control_change', channel=9, control=4, value=0, time=2),\n",
      "  Message('control_change', channel=9, control=4, value=15, time=22),\n",
      "  Message('note_on', channel=9, note=36, velocity=0, time=16),\n",
      "  Message('control_change', channel=9, control=4, value=30, time=5),\n",
      "  Message('note_on', channel=9, note=44, velocity=20, time=7),\n",
      "  Message('note_on', channel=9, note=38, velocity=64, time=5),\n",
      "  Message('note_on', channel=9, note=51, velocity=112, time=2),\n",
      "  Message('control_change', channel=9, control=4, value=45, time=8),\n",
      "  Message('control_change', channel=9, control=4, value=60, time=22),\n",
      "  Message('control_change', channel=9, control=4, value=69, time=13),\n",
      "  Message('control_change', channel=9, control=4, value=79, time=22),\n",
      "  Message('control_change', channel=9, control=4, value=89, time=21),\n",
      "  Message('control_change', channel=9, control=4, value=90, time=0),\n",
      "  Message('note_on', channel=9, note=44, velocity=0, time=1),\n",
      "  Message('note_on', channel=9, note=38, velocity=0, time=4),\n",
      "  Message('note_on', channel=9, note=51, velocity=0, time=2),\n",
      "  Message('control_change', channel=9, control=4, value=87, time=38),\n",
      "  Message('control_change', channel=9, control=4, value=83, time=44),\n",
      "  Message('control_change', channel=9, control=4, value=80, time=43),\n",
      "  Message('note_on', channel=9, note=37, velocity=83, time=4),\n",
      "  Message('note_on', channel=9, note=59, velocity=93, time=7),\n",
      "  Message('control_change', channel=9, control=4, value=78, time=7),\n",
      "  Message('note_on', channel=9, note=44, velocity=97, time=0),\n",
      "  Message('control_change', channel=9, control=4, value=61, time=21),\n",
      "  Message('control_change', channel=9, control=4, value=44, time=22),\n",
      "  Message('control_change', channel=9, control=4, value=35, time=10),\n",
      "  Message('control_change', channel=9, control=4, value=28, time=22),\n",
      "  Message('note_on', channel=9, note=37, velocity=0, time=4),\n",
      "  Message('note_on', channel=9, note=59, velocity=0, time=8),\n",
      "  Message('note_on', channel=9, note=44, velocity=0, time=7),\n",
      "  Message('control_change', channel=9, control=4, value=20, time=3),\n",
      "  Message('control_change', channel=9, control=4, value=18, time=3),\n",
      "  Message('control_change', channel=9, control=4, value=44, time=21),\n",
      "  Message('note_on', channel=9, note=38, velocity=25, time=2),\n",
      "  Message('control_change', channel=9, control=4, value=70, time=20),\n",
      "  Message('control_change', channel=9, control=4, value=78, time=6),\n",
      "  Message('control_change', channel=9, control=4, value=84, time=22),\n",
      "  Message('control_change', channel=9, control=4, value=90, time=22),\n",
      "  Message('control_change', channel=9, control=4, value=86, time=21),\n",
      "  Message('note_on', channel=9, note=38, velocity=0, time=3),\n",
      "  Message('note_on', channel=9, note=44, velocity=25, time=15),\n",
      "  Message('control_change', channel=9, control=4, value=81, time=4),\n",
      "  Message('note_on', channel=9, note=36, velocity=34, time=3),\n",
      "  Message('note_on', channel=9, note=51, velocity=51, time=2),\n",
      "  Message('control_change', channel=9, control=4, value=76, time=17),\n",
      "  Message('control_change', channel=9, control=4, value=71, time=22),\n",
      "  Message('control_change', channel=9, control=4, value=66, time=21),\n",
      "  Message('control_change', channel=9, control=4, value=61, time=22),\n",
      "  Message('note_on', channel=9, note=44, velocity=0, time=3),\n",
      "  Message('note_on', channel=9, note=36, velocity=0, time=6),\n",
      "  Message('control_change', channel=9, control=4, value=58, time=1),\n",
      "  Message('note_on', channel=9, note=51, velocity=0, time=1),\n",
      "  Message('control_change', channel=9, control=4, value=32, time=21),\n",
      "  Message('note_on', channel=9, note=51, velocity=53, time=3),\n",
      "  Message('control_change', channel=9, control=4, value=5, time=19),\n",
      "  Message('control_change', channel=9, control=4, value=0, time=4),\n",
      "  Message('control_change', channel=9, control=4, value=13, time=22),\n",
      "  Message('control_change', channel=9, control=4, value=27, time=22),\n",
      "  Message('control_change', channel=9, control=4, value=40, time=20),\n",
      "  Message('note_on', channel=9, note=51, velocity=0, time=6),\n",
      "  Message('control_change', channel=9, control=4, value=54, time=17),\n",
      "  Message('note_on', channel=9, note=51, velocity=127, time=8),\n",
      "  Message('note_on', channel=9, note=44, velocity=97, time=5),\n",
      "  Message('control_change', channel=9, control=4, value=68, time=9),\n",
      "  Message('control_change', channel=9, control=4, value=79, time=22),\n",
      "  Message('control_change', channel=9, control=4, value=90, time=21),\n",
      "  Message('note_on', channel=9, note=51, velocity=0, time=36),\n",
      "  Message('note_on', channel=9, note=44, velocity=0, time=7),\n",
      "  Message('control_change', channel=9, control=4, value=87, time=1),\n",
      "  Message('note_on', channel=9, note=36, velocity=37, time=26),\n",
      "  Message('control_change', channel=9, control=4, value=83, time=17),\n",
      "  Message('control_change', channel=9, control=4, value=79, time=44),\n",
      "  Message('control_change', channel=9, control=4, value=78, time=8),\n",
      "  Message('control_change', channel=9, control=4, value=64, time=22),\n",
      "  Message('note_on', channel=9, note=36, velocity=0, time=2),\n",
      "  Message('note_on', channel=9, note=38, velocity=60, time=19),\n",
      "  Message('note_on', channel=9, note=51, velocity=66, time=0),\n",
      "  Message('control_change', channel=9, control=4, value=49, time=1),\n",
      "  Message('note_on', channel=9, note=44, velocity=37, time=11),\n",
      "  Message('control_change', channel=9, control=4, value=40, time=2),\n",
      "  Message('control_change', channel=9, control=4, value=32, time=22),\n",
      "  Message('control_change', channel=9, control=4, value=23, time=22),\n",
      "  Message('control_change', channel=9, control=4, value=44, time=21),\n",
      "  Message('note_on', channel=9, note=38, velocity=0, time=14),\n",
      "  Message('note_on', channel=9, note=51, velocity=0, time=0),\n",
      "  Message('control_change', channel=9, control=4, value=65, time=8),\n",
      "  Message('note_on', channel=9, note=44, velocity=0, time=4),\n",
      "  Message('control_change', channel=9, control=4, value=78, time=9),\n",
      "  Message('note_on', channel=9, note=51, velocity=55, time=7),\n",
      "  Message('control_change', channel=9, control=4, value=84, time=15),\n",
      "  Message('control_change', channel=9, control=4, value=90, time=22),\n",
      "  Message('control_change', channel=9, control=4, value=85, time=21),\n",
      "  Message('control_change', channel=9, control=4, value=80, time=22),\n",
      "  Message('note_on', channel=9, note=51, velocity=0, time=14),\n",
      "  Message('control_change', channel=9, control=4, value=74, time=8),\n",
      "  Message('note_on', channel=9, note=51, velocity=123, time=20),\n",
      "  Message('control_change', channel=9, control=4, value=69, time=2),\n",
      "  Message('note_on', channel=9, note=44, velocity=92, time=12),\n",
      "  Message('control_change', channel=9, control=4, value=63, time=9),\n",
      "  Message('control_change', channel=9, control=4, value=58, time=21),\n",
      "  Message('control_change', channel=9, control=4, value=34, time=21),\n",
      "  Message('control_change', channel=9, control=4, value=10, time=22),\n",
      "  Message('note_on', channel=9, note=51, velocity=0, time=7),\n",
      "  Message('control_change', channel=9, control=4, value=0, time=2),\n",
      "  Message('note_on', channel=9, note=44, velocity=0, time=11),\n",
      "  Message('note_on', channel=9, note=37, velocity=60, time=7),\n",
      "  Message('control_change', channel=9, control=4, value=14, time=4),\n",
      "  Message('control_change', channel=9, control=4, value=29, time=21),\n",
      "  Message('control_change', channel=9, control=4, value=44, time=22),\n",
      "  Message('control_change', channel=9, control=4, value=58, time=22),\n",
      "  Message('control_change', channel=9, control=4, value=71, time=17),\n",
      "  Message('note_on', channel=9, note=37, velocity=0, time=8),\n",
      "  Message('control_change', channel=9, control=4, value=80, time=14),\n",
      "  Message('control_change', channel=9, control=4, value=89, time=22),\n",
      "  Message('control_change', channel=9, control=4, value=90, time=0),\n",
      "  Message('note_on', channel=9, note=36, velocity=38, time=0),\n",
      "  Message('note_on', channel=9, note=44, velocity=37, time=3),\n",
      "  Message('note_on', channel=9, note=51, velocity=58, time=9),\n",
      "  Message('control_change', channel=9, control=4, value=85, time=33),\n",
      "  Message('note_on', channel=9, note=38, velocity=23, time=29),\n",
      "  Message('control_change', channel=9, control=4, value=79, time=14),\n",
      "  Message('note_on', channel=9, note=36, velocity=0, time=6),\n",
      "  Message('note_on', channel=9, note=44, velocity=0, time=4),\n",
      "  Message('note_on', channel=9, note=51, velocity=0, time=8),\n",
      "  Message('control_change', channel=9, control=4, value=74, time=26),\n",
      "  Message('note_on', channel=9, note=51, velocity=49, time=2),\n",
      "  Message('control_change', channel=9, control=4, value=69, time=31),\n",
      "  Message('note_on', channel=9, note=38, velocity=0, time=2),\n",
      "  Message('control_change', channel=9, control=4, value=58, time=20),\n",
      "  Message('control_change', channel=9, control=4, value=47, time=22),\n",
      "  Message('note_on', channel=9, note=38, velocity=22, time=7),\n",
      "  Message('note_on', channel=9, note=51, velocity=0, time=12),\n",
      "  Message('control_change', channel=9, control=4, value=36, time=1),\n",
      "  Message('note_on', channel=9, note=44, velocity=95, time=18),\n",
      "  Message('note_on', channel=9, note=51, velocity=90, time=2),\n",
      "  Message('control_change', channel=9, control=4, value=47, time=2),\n",
      "  Message('control_change', channel=9, control=4, value=58, time=21),\n",
      "  Message('control_change', channel=9, control=4, value=68, time=19),\n",
      "  Message('note_on', channel=9, note=38, velocity=0, time=19),\n",
      "  Message('control_change', channel=9, control=4, value=78, time=3),\n",
      "  Message('control_change', channel=9, control=4, value=88, time=22),\n",
      "  Message('control_change', channel=9, control=4, value=90, time=4),\n",
      "  Message('note_on', channel=9, note=44, velocity=0, time=2),\n",
      "  Message('note_on', channel=9, note=51, velocity=0, time=0),\n",
      "  Message('control_change', channel=9, control=4, value=85, time=20),\n",
      "  Message('note_on', channel=9, note=36, velocity=44, time=0),\n",
      "  Message('control_change', channel=9, control=4, value=80, time=22),\n",
      "  Message('control_change', channel=9, control=4, value=75, time=21),\n",
      "  Message('control_change', channel=9, control=4, value=69, time=22),\n",
      "  Message('control_change', channel=9, control=4, value=64, time=22),\n",
      "  Message('note_on', channel=9, note=36, velocity=0, time=7),\n",
      "  Message('control_change', channel=9, control=4, value=59, time=15),\n",
      "  Message('control_change', channel=9, control=4, value=57, time=5),\n",
      "  Message('note_on', channel=9, note=37, velocity=71, time=1),\n",
      "  Message('note_on', channel=9, note=51, velocity=81, time=7),\n",
      "  Message('note_on', channel=9, note=44, velocity=40, time=8),\n",
      "  Message('control_change', channel=9, control=4, value=31, time=6),\n",
      "  Message('control_change', channel=9, control=4, value=4, time=22),\n",
      "  Message('control_change', channel=9, control=4, value=0, time=3),\n",
      "  Message('control_change', channel=9, control=4, value=14, time=21),\n",
      "  Message('control_change', channel=9, control=4, value=28, time=22),\n",
      "  Message('note_on', channel=9, note=37, velocity=0, time=5),\n",
      "  Message('note_on', channel=9, note=51, velocity=0, time=6),\n",
      "  Message('note_on', channel=9, note=44, velocity=0, time=9),\n",
      "  Message('control_change', channel=9, control=4, value=42, time=2),\n",
      "  Message('control_change', channel=9, control=4, value=57, time=22),\n",
      "  Message('note_on', channel=9, note=51, velocity=55, time=0),\n",
      "  Message('control_change', channel=9, control=4, value=71, time=21),\n",
      "  Message('control_change', channel=9, control=4, value=77, time=9),\n",
      "  Message('control_change', channel=9, control=4, value=83, time=22),\n",
      "  Message('control_change', channel=9, control=4, value=90, time=22),\n",
      "  Message('note_on', channel=9, note=51, velocity=0, time=20),\n",
      "  Message('control_change', channel=9, control=4, value=88, time=23),\n",
      "  Message('note_on', channel=9, note=51, velocity=127, time=1),\n",
      "  Message('note_on', channel=9, note=44, velocity=100, time=16),\n",
      "  Message('control_change', channel=9, control=4, value=85, time=27),\n",
      "  Message('control_change', channel=9, control=4, value=82, time=43),\n",
      "  Message('note_on', channel=9, note=51, velocity=0, time=8),\n",
      "  Message('control_change', channel=9, control=4, value=80, time=8),\n",
      "  Message('note_on', channel=9, note=44, velocity=0, time=8),\n",
      "  Message('note_on', channel=9, note=38, velocity=32, time=8),\n",
      "  Message('control_change', channel=9, control=4, value=73, time=6),\n",
      "  Message('control_change', channel=9, control=4, value=64, time=22),\n",
      "  Message('control_change', channel=9, control=4, value=65, time=0),\n",
      "  Message('control_change', channel=9, control=4, value=68, time=43),\n",
      "  Message('note_on', channel=9, note=38, velocity=0, time=15),\n",
      "  Message('note_on', channel=9, note=38, velocity=31, time=0),\n",
      "  Message('note_on', channel=9, note=38, velocity=0, time=8),\n",
      "  Message('control_change', channel=9, control=4, value=71, time=6),\n",
      "  Message('control_change', channel=9, control=4, value=78, time=22),\n",
      "  Message('note_on', channel=9, note=36, velocity=35, time=14),\n",
      "  Message('note_on', channel=9, note=44, velocity=50, time=1),\n",
      "  Message('note_on', channel=9, note=51, velocity=62, time=2),\n",
      "  Message('control_change', channel=9, control=4, value=85, time=5),\n",
      "  Message('control_change', channel=9, control=4, value=90, time=13),\n",
      "  Message('control_change', channel=9, control=4, value=87, time=21),\n",
      "  Message('control_change', channel=9, control=4, value=83, time=22),\n",
      "  Message('control_change', channel=9, control=4, value=79, time=22),\n",
      "  Message('note_on', channel=9, note=36, velocity=0, time=8),\n",
      "  Message('note_on', channel=9, note=44, velocity=0, time=1),\n",
      "  Message('note_on', channel=9, note=51, velocity=0, time=0),\n",
      "  Message('control_change', channel=9, control=4, value=75, time=13),\n",
      "  Message('note_on', channel=9, note=51, velocity=51, time=19),\n",
      "  Message('control_change', channel=9, control=4, value=71, time=2),\n",
      "  Message('note_on', channel=9, note=38, velocity=29, time=2),\n",
      "  Message('control_change', channel=9, control=4, value=68, time=20),\n",
      "  Message('control_change', channel=9, control=4, value=64, time=22),\n",
      "  Message('control_change', channel=9, control=4, value=60, time=22),\n",
      "  Message('control_change', channel=9, control=4, value=59, time=3),\n",
      "  Message('control_change', channel=9, control=4, value=34, time=21),\n",
      "  Message('note_on', channel=9, note=51, velocity=0, time=2),\n",
      "  Message('note_on', channel=9, note=38, velocity=0, time=4),\n",
      "  Message('note_on', channel=9, note=51, velocity=88, time=2),\n",
      "  Message('control_change', channel=9, control=4, value=9, time=14),\n",
      "  Message('note_on', channel=9, note=44, velocity=97, time=0),\n",
      "  Message('control_change', channel=9, control=4, value=0, time=7),\n",
      "  Message('control_change', channel=9, control=4, value=15, time=22),\n",
      "  Message('control_change', channel=9, control=4, value=30, time=22),\n",
      "  Message('control_change', channel=9, control=4, value=45, time=22),\n",
      "  Message('note_on', channel=9, note=51, velocity=0, time=7),\n",
      "  Message('control_change', channel=9, control=4, value=60, time=14),\n",
      "  Message('note_on', channel=9, note=44, velocity=0, time=0),\n",
      "  Message('control_change', channel=9, control=4, value=75, time=22),\n",
      "  Message('note_on', channel=9, note=36, velocity=41, time=2),\n",
      "  Message('control_change', channel=9, control=4, value=77, time=1),\n",
      "  Message('control_change', channel=9, control=4, value=83, time=22),\n",
      "  Message('control_change', channel=9, control=4, value=90, time=21),\n",
      "  Message('control_change', channel=9, control=4, value=87, time=22),\n",
      "  Message('control_change', channel=9, control=4, value=84, time=22),\n",
      "  Message('note_on', channel=9, note=36, velocity=0, time=6),\n",
      "  Message('control_change', channel=9, control=4, value=81, time=16),\n",
      "  Message('note_on', channel=9, note=51, velocity=86, time=6),\n",
      "  Message('note_on', channel=9, note=44, velocity=37, time=1),\n",
      "  Message('note_on', channel=9, note=38, velocity=61, time=1),\n",
      "  Message('control_change', channel=9, control=4, value=78, time=13),\n",
      "  Message('control_change', channel=9, control=4, value=75, time=22),\n",
      "  Message('control_change', channel=9, control=4, value=72, time=22),\n",
      "  Message('control_change', channel=9, control=4, value=69, time=22),\n",
      "  Message('control_change', channel=9, control=4, value=68, time=6),\n",
      "  Message('note_on', channel=9, note=51, velocity=0, time=7),\n",
      "  Message('note_on', channel=9, note=38, velocity=0, time=1),\n",
      "  Message('note_on', channel=9, note=44, velocity=0, time=0),\n",
      "  Message('control_change', channel=9, control=4, value=59, time=13),\n",
      "  Message('note_on', channel=9, note=38, velocity=27, time=11),\n",
      "  Message('control_change', channel=9, control=4, value=50, time=11),\n",
      "  Message('control_change', channel=9, control=4, value=40, time=22),\n",
      "  Message('control_change', channel=9, control=4, value=41, time=0),\n",
      "  Message('control_change', channel=9, control=4, value=49, time=22),\n",
      "  Message('control_change', channel=9, control=4, value=59, time=21),\n",
      "  Message('note_on', channel=9, note=38, velocity=0, time=17),\n",
      "  Message('control_change', channel=9, control=4, value=69, time=5),\n",
      "  Message('note_on', channel=9, note=51, velocity=112, time=18),\n",
      "  Message('control_change', channel=9, control=4, value=78, time=4),\n",
      "  Message('note_on', channel=9, note=44, velocity=100, time=8),\n",
      "  Message('control_change', channel=9, control=4, value=87, time=14),\n",
      "  Message('control_change', channel=9, control=4, value=90, time=5),\n",
      "  Message('control_change', channel=9, control=4, value=86, time=22),\n",
      "  Message('control_change', channel=9, control=4, value=82, time=22),\n",
      "  Message('note_on', channel=9, note=51, velocity=0, time=19),\n",
      "  Message('control_change', channel=9, control=4, value=77, time=3),\n",
      "  Message('note_on', channel=9, note=44, velocity=0, time=8),\n",
      "  Message('note_on', channel=9, note=38, velocity=24, time=5),\n",
      "  Message('control_change', channel=9, control=4, value=73, time=8),\n",
      "  Message('control_change', channel=9, control=4, value=69, time=22),\n",
      "  Message('control_change', channel=9, control=4, value=64, time=22),\n",
      "  Message('control_change', channel=9, control=4, value=60, time=22),\n",
      "  Message('control_change', channel=9, control=4, value=58, time=8),\n",
      "  Message('note_on', channel=9, note=38, velocity=0, time=12),\n",
      "  Message('control_change', channel=9, control=4, value=29, time=10),\n",
      "  Message('control_change', channel=9, control=4, value=0, time=22),\n",
      "  Message('note_on', channel=9, note=44, velocity=95, time=14),\n",
      "  Message('control_change', channel=9, control=4, value=14, time=8),\n",
      "  Message('control_change', channel=9, control=4, value=28, time=21),\n",
      "  Message('control_change', channel=9, control=4, value=43, time=22),\n",
      "  Message('control_change', channel=9, control=4, value=57, time=22),\n",
      "  Message('note_on', channel=9, note=44, velocity=0, time=21),\n",
      "  Message('control_change', channel=9, control=4, value=71, time=1),\n",
      "  Message('note_on', channel=9, note=38, velocity=24, time=6),\n",
      "  Message('control_change', channel=9, control=4, value=78, time=2),\n",
      "  Message('control_change', channel=9, control=4, value=84, time=22),\n",
      "  Message('control_change', channel=9, control=4, value=90, time=22),\n",
      "  Message('note_on', channel=9, note=38, velocity=0, time=14),\n",
      "  Message('note_on', channel=9, note=38, velocity=40, time=0),\n",
      "  Message('control_change', channel=9, control=4, value=86, time=29),\n",
      "  Message('note_on', channel=9, note=38, velocity=0, time=5),\n",
      "  Message('control_change', channel=9, control=4, value=81, time=39),\n",
      "  Message('control_change', channel=9, control=4, value=76, time=43),\n",
      "  Message('control_change', channel=9, control=4, value=64, time=22),\n",
      "  Message('control_change', channel=9, control=4, value=51, time=22),\n",
      "  Message('control_change', channel=9, control=4, value=41, time=17),\n",
      "  Message('note_on', channel=9, note=38, velocity=92, time=9),\n",
      "  Message('control_change', channel=9, control=4, value=35, time=13),\n",
      "  Message('control_change', channel=9, control=4, value=28, time=22),\n",
      "  Message('control_change', channel=9, control=4, value=27, time=3),\n",
      "  Message('control_change', channel=9, control=4, value=45, time=21),\n",
      "  Message('control_change', channel=9, control=4, value=63, time=22),\n",
      "  Message('note_on', channel=9, note=38, velocity=0, time=13),\n",
      "  Message('control_change', channel=9, control=4, value=78, time=4),\n",
      "  Message('control_change', channel=9, control=4, value=83, time=22),\n",
      "  Message('note_on', channel=9, note=37, velocity=78, time=2),\n",
      "  Message('control_change', channel=9, control=4, value=89, time=20),\n",
      "  Message('control_change', channel=9, control=4, value=90, time=0),\n",
      "  Message('control_change', channel=9, control=4, value=86, time=22),\n",
      "  Message('control_change', channel=9, control=4, value=81, time=21),\n",
      "  Message('control_change', channel=9, control=4, value=76, time=22),\n",
      "  Message('note_on', channel=9, note=37, velocity=0, time=8),\n",
      "  Message('control_change', channel=9, control=4, value=71, time=14),\n",
      "  Message('note_on', channel=9, note=48, velocity=98, time=10),\n",
      "  Message('control_change', channel=9, control=4, value=66, time=12),\n",
      "  Message('control_change', channel=9, control=4, value=62, time=21),\n",
      "  Message('control_change', channel=9, control=4, value=58, time=15),\n",
      "  Message('control_change', channel=9, control=4, value=32, time=22),\n",
      "  Message('control_change', channel=9, control=4, value=5, time=21),\n",
      "  Message('control_change', channel=9, control=4, value=0, time=3),\n",
      "  Message('note_on', channel=9, note=48, velocity=0, time=0),\n",
      "  Message('control_change', channel=9, control=4, value=12, time=22),\n",
      "  Message('note_on', channel=9, note=38, velocity=12, time=5),\n",
      "  Message('control_change', channel=9, control=4, value=24, time=17),\n",
      "  Message('control_change', channel=9, control=4, value=36, time=22),\n",
      "  Message('control_change', channel=9, control=4, value=48, time=21),\n",
      "  Message('control_change', channel=9, control=4, value=60, time=22),\n",
      "  Message('note_on', channel=9, note=38, velocity=0, time=12),\n",
      "  Message('control_change', channel=9, control=4, value=68, time=1),\n",
      "  Message('note_on', channel=9, note=36, velocity=38, time=5),\n",
      "  Message('note_on', channel=9, note=26, velocity=69, time=15),\n",
      "  Message('control_change', channel=9, control=4, value=78, time=2),\n",
      "  Message('control_change', channel=9, control=4, value=89, time=22),\n",
      "  Message('control_change', channel=9, control=4, value=90, time=0),\n",
      "  Message('control_change', channel=9, control=4, value=86, time=23),\n",
      "  Message('note_on', channel=9, note=44, velocity=57, time=14),\n",
      "  Message('control_change', channel=9, control=4, value=82, time=8),\n",
      "  Message('note_on', channel=9, note=36, velocity=0, time=9),\n",
      "  Message('control_change', channel=9, control=4, value=78, time=12),\n",
      "  Message('note_on', channel=9, note=26, velocity=0, time=4),\n",
      "  Message('control_change', channel=9, control=4, value=74, time=18),\n",
      "  Message('note_on', channel=9, note=38, velocity=14, time=2),\n",
      "  Message('control_change', channel=9, control=4, value=69, time=20),\n",
      "  Message('note_on', channel=9, note=44, velocity=0, time=20),\n",
      "  Message('control_change', channel=9, control=4, value=65, time=2),\n",
      "  Message('control_change', channel=9, control=4, value=61, time=21),\n",
      "  Message('control_change', channel=9, control=4, value=57, time=22),\n",
      "  Message('note_on', channel=9, note=38, velocity=0, time=8),\n",
      "  Message('control_change', channel=9, control=4, value=54, time=4),\n",
      "  Message('control_change', channel=9, control=4, value=42, time=21),\n",
      "  Message('note_on', channel=9, note=46, velocity=51, time=7),\n",
      "  Message('note_on', channel=9, note=36, velocity=34, time=3),\n",
      "  Message('control_change', channel=9, control=4, value=30, time=12),\n",
      "  Message('control_change', channel=9, control=4, value=21, time=16),\n",
      "  Message('control_change', channel=9, control=4, value=44, time=22),\n",
      "  Message('control_change', channel=9, control=4, value=67, time=22),\n",
      "  Message('control_change', channel=9, control=4, value=78, time=10),\n",
      "  Message('note_on', channel=9, note=46, velocity=0, time=9),\n",
      "  Message('note_on', channel=9, note=36, velocity=0, time=2),\n",
      "  Message('note_on', channel=9, note=36, velocity=46, time=4),\n",
      "  Message('control_change', channel=9, control=4, value=84, time=7),\n",
      "  Message('note_on', channel=9, note=26, velocity=98, time=6),\n",
      "  Message('control_change', channel=9, control=4, value=90, time=15),\n",
      "  Message('control_change', channel=9, control=4, value=86, time=44),\n",
      "  Message('note_on', channel=9, note=36, velocity=0, time=22),\n",
      "  Message('note_on', channel=9, note=26, velocity=0, time=13),\n",
      "  Message('control_change', channel=9, control=4, value=81, time=8),\n",
      "  Message('control_change', channel=9, control=4, value=77, time=44),\n",
      "  Message('control_change', channel=9, control=4, value=74, time=20),\n",
      "  Message('note_on', channel=9, note=38, velocity=11, time=5),\n",
      "  Message('control_change', channel=9, control=4, value=45, time=17),\n",
      "  Message('control_change', channel=9, control=4, value=16, time=22),\n",
      "  Message('control_change', channel=9, control=4, value=0, time=11),\n",
      "  Message('note_on', channel=9, note=38, velocity=0, time=8),\n",
      "  Message('note_on', channel=9, note=38, velocity=14, time=0),\n",
      "  Message('control_change', channel=9, control=4, value=12, time=14),\n",
      "  Message('note_on', channel=9, note=38, velocity=0, time=21),\n",
      "  Message('note_on', channel=9, note=38, velocity=13, time=0),\n",
      "  Message('control_change', channel=9, control=4, value=25, time=1),\n",
      "  Message('note_on', channel=9, note=38, velocity=0, time=0),\n",
      "  Message('control_change', channel=9, control=4, value=38, time=21),\n",
      "  Message('control_change', channel=9, control=4, value=51, time=22),\n",
      "  Message('control_change', channel=9, control=4, value=64, time=22),\n",
      "  Message('control_change', channel=9, control=4, value=68, time=6),\n",
      "  Message('note_on', channel=9, note=38, velocity=23, time=8),\n",
      "  Message('control_change', channel=9, control=4, value=78, time=13),\n",
      "  Message('note_on', channel=9, note=38, velocity=0, time=0),\n",
      "  Message('control_change', channel=9, control=4, value=89, time=22),\n",
      "  Message('control_change', channel=9, control=4, value=90, time=2),\n",
      "  Message('note_on', channel=9, note=38, velocity=48, time=22),\n",
      "  Message('control_change', channel=9, control=4, value=86, time=21),\n",
      "  Message('note_on', channel=9, note=38, velocity=0, time=13),\n",
      "  Message('control_change', channel=9, control=4, value=82, time=31),\n",
      "  Message('note_on', channel=9, note=37, velocity=71, time=8),\n",
      "  Message('control_change', channel=9, control=4, value=77, time=31),\n",
      "  Message('control_change', channel=9, control=4, value=64, time=22),\n",
      "  Message('control_change', channel=9, control=4, value=50, time=21),\n",
      "  Message('control_change', channel=9, control=4, value=41, time=13),\n",
      "  Message('note_on', channel=9, note=37, velocity=0, time=7),\n",
      "  Message('control_change', channel=9, control=4, value=34, time=15),\n",
      "  Message('control_change', channel=9, control=4, value=27, time=22),\n",
      "  Message('control_change', channel=9, control=4, value=26, time=1),\n",
      "  Message('note_on', channel=9, note=36, velocity=43, time=0),\n",
      "  Message('control_change', channel=9, control=4, value=39, time=22),\n",
      "  Message('control_change', channel=9, control=4, value=53, time=22),\n",
      "  Message('control_change', channel=9, control=4, value=65, time=17),\n",
      "  Message('control_change', channel=9, control=4, value=75, time=22),\n",
      "  Message('note_on', channel=9, note=36, velocity=0, time=9),\n",
      "  Message('note_on', channel=9, note=36, velocity=40, time=0),\n",
      "  Message('note_on', channel=9, note=36, velocity=0, time=2),\n",
      "  Message('control_change', channel=9, control=4, value=86, time=11),\n",
      "  Message('control_change', channel=9, control=4, value=90, time=7),\n",
      "  Message('control_change', channel=9, control=4, value=87, time=22),\n",
      "  Message('control_change', channel=9, control=4, value=83, time=21),\n",
      "  Message('control_change', channel=9, control=4, value=79, time=22),\n",
      "  Message('control_change', channel=9, control=4, value=75, time=22),\n",
      "  Message('control_change', channel=9, control=4, value=71, time=22),\n",
      "  Message('control_change', channel=9, control=4, value=67, time=21),\n",
      "  Message('control_change', channel=9, control=4, value=63, time=22),\n",
      "  Message('control_change', channel=9, control=4, value=60, time=13),\n",
      "  Message('control_change', channel=9, control=4, value=34, time=22),\n",
      "  Message('control_change', channel=9, control=4, value=7, time=22),\n",
      "  Message('control_change', channel=9, control=4, value=0, time=6),\n",
      "  Message('control_change', channel=9, control=4, value=16, time=21),\n",
      "  Message('control_change', channel=9, control=4, value=32, time=22),\n",
      "  Message('control_change', channel=9, control=4, value=49, time=22),\n",
      "  Message('control_change', channel=9, control=4, value=65, time=22),\n",
      "  Message('control_change', channel=9, control=4, value=78, time=16),\n",
      "  Message('control_change', channel=9, control=4, value=84, time=21),\n",
      "  Message('control_change', channel=9, control=4, value=90, time=22),\n",
      "  Message('control_change', channel=9, control=4, value=86, time=22),\n",
      "  Message('control_change', channel=9, control=4, value=82, time=22),\n",
      "  Message('control_change', channel=9, control=4, value=78, time=21),\n",
      "  Message('control_change', channel=9, control=4, value=73, time=22),\n",
      "  Message('control_change', channel=9, control=4, value=69, time=22),\n",
      "  Message('control_change', channel=9, control=4, value=65, time=22),\n",
      "  Message('control_change', channel=9, control=4, value=61, time=21),\n",
      "  Message('control_change', channel=9, control=4, value=56, time=22),\n",
      "  Message('control_change', channel=9, control=4, value=54, time=10),\n",
      "  Message('control_change', channel=9, control=4, value=48, time=22),\n",
      "  Message('control_change', channel=9, control=4, value=42, time=22),\n",
      "  Message('control_change', channel=9, control=4, value=40, time=4),\n",
      "  Message('control_change', channel=9, control=4, value=51, time=22),\n",
      "  Message('control_change', channel=9, control=4, value=62, time=22),\n",
      "  Message('control_change', channel=9, control=4, value=64, time=4),\n",
      "  Message('control_change', channel=9, control=4, value=74, time=22),\n",
      "  Message('control_change', channel=9, control=4, value=85, time=21),\n",
      "  Message('control_change', channel=9, control=4, value=90, time=11),\n",
      "  Message('control_change', channel=9, control=4, value=87, time=21),\n",
      "  Message('control_change', channel=9, control=4, value=84, time=22),\n",
      "  Message('control_change', channel=9, control=4, value=81, time=22),\n",
      "  Message('control_change', channel=9, control=4, value=78, time=22),\n",
      "  Message('control_change', channel=9, control=4, value=75, time=21),\n",
      "  Message('control_change', channel=9, control=4, value=74, time=8),\n",
      "  Message('control_change', channel=9, control=4, value=42, time=21),\n",
      "  Message('control_change', channel=9, control=4, value=10, time=22),\n",
      "  Message('control_change', channel=9, control=4, value=0, time=6),\n",
      "  Message('control_change', channel=9, control=4, value=13, time=22),\n",
      "  Message('control_change', channel=9, control=4, value=26, time=21),\n",
      "  Message('control_change', channel=9, control=4, value=40, time=22),\n",
      "  Message('control_change', channel=9, control=4, value=53, time=22),\n",
      "  Message('control_change', channel=9, control=4, value=66, time=22),\n",
      "  Message('control_change', channel=9, control=4, value=68, time=2),\n",
      "  Message('control_change', channel=9, control=4, value=78, time=22),\n",
      "  Message('control_change', channel=9, control=4, value=89, time=22),\n",
      "  Message('control_change', channel=9, control=4, value=90, time=1),\n",
      "  Message('control_change', channel=9, control=4, value=86, time=44),\n",
      "  Message('control_change', channel=9, control=4, value=81, time=43),\n",
      "  Message('control_change', channel=9, control=4, value=77, time=44),\n",
      "  Message('control_change', channel=9, control=4, value=75, time=10),\n",
      "  Message('control_change', channel=9, control=4, value=63, time=22),\n",
      "  Message('control_change', channel=9, control=4, value=51, time=22),\n",
      "  Message('control_change', channel=9, control=4, value=43, time=14),\n",
      "  Message('control_change', channel=9, control=4, value=50, time=22),\n",
      "  Message('control_change', channel=9, control=4, value=58, time=22),\n",
      "  Message('control_change', channel=9, control=4, value=66, time=21),\n",
      "  Message('control_change', channel=9, control=4, value=74, time=22),\n",
      "  Message('control_change', channel=9, control=4, value=75, time=3),\n",
      "  Message('control_change', channel=9, control=4, value=82, time=22),\n",
      "  Message('control_change', channel=9, control=4, value=89, time=21),\n",
      "  Message('control_change', channel=9, control=4, value=90, time=3),\n",
      "  Message('control_change', channel=9, control=4, value=86, time=22),\n",
      "  Message('control_change', channel=9, control=4, value=82, time=22),\n",
      "  Message('control_change', channel=9, control=4, value=77, time=22),\n",
      "  Message('control_change', channel=9, control=4, value=73, time=21),\n",
      "  Message('control_change', channel=9, control=4, value=69, time=22),\n",
      "  Message('control_change', channel=9, control=4, value=64, time=22),\n",
      "  Message('control_change', channel=9, control=4, value=60, time=22),\n",
      "  Message('control_change', channel=9, control=4, value=58, time=7),\n",
      "  Message('control_change', channel=9, control=4, value=30, time=22),\n",
      "  Message('control_change', channel=9, control=4, value=0, time=21),\n",
      "  Message('control_change', channel=9, control=4, value=1, time=0),\n",
      "  Message('control_change', channel=9, control=4, value=13, time=22),\n",
      "  Message('control_change', channel=9, control=4, value=26, time=22),\n",
      "  Message('control_change', channel=9, control=4, value=40, time=22),\n",
      "  Message('control_change', channel=9, control=4, value=53, time=21),\n",
      "  Message('control_change', channel=9, control=4, value=67, time=22),\n",
      "  Message('control_change', channel=9, control=4, value=77, time=16),\n",
      "  Message('control_change', channel=9, control=4, value=83, time=22),\n",
      "  Message('control_change', channel=9, control=4, value=90, time=22),\n",
      "  Message('control_change', channel=9, control=4, value=85, time=21),\n",
      "  Message('control_change', channel=9, control=4, value=80, time=22),\n",
      "  Message('control_change', channel=9, control=4, value=75, time=22),\n",
      "  Message('control_change', channel=9, control=4, value=70, time=22),\n",
      "  Message('control_change', channel=9, control=4, value=65, time=21),\n",
      "  Message('control_change', channel=9, control=4, value=60, time=22),\n",
      "  Message('control_change', channel=9, control=4, value=55, time=22),\n",
      "  Message('control_change', channel=9, control=4, value=49, time=22),\n",
      "  Message('control_change', channel=9, control=4, value=50, time=0),\n",
      "  Message('control_change', channel=9, control=4, value=43, time=23),\n",
      "  Message('control_change', channel=9, control=4, value=37, time=22),\n",
      "  Message('control_change', channel=9, control=4, value=35, time=2),\n",
      "  Message('control_change', channel=9, control=4, value=45, time=22),\n",
      "  Message('control_change', channel=9, control=4, value=56, time=22),\n",
      "  Message('control_change', channel=9, control=4, value=67, time=22),\n",
      "  Message('control_change', channel=9, control=4, value=74, time=14),\n",
      "  Message('control_change', channel=9, control=4, value=81, time=22),\n",
      "  Message('control_change', channel=9, control=4, value=89, time=22),\n",
      "  Message('control_change', channel=9, control=4, value=90, time=3),\n",
      "  Message('control_change', channel=9, control=4, value=85, time=43),\n",
      "  Message('control_change', channel=9, control=4, value=80, time=44),\n",
      "  Message('control_change', channel=9, control=4, value=75, time=43),\n",
      "  Message('control_change', channel=9, control=4, value=74, time=6),\n",
      "  Message('control_change', channel=9, control=4, value=45, time=22),\n",
      "  Message('control_change', channel=9, control=4, value=15, time=21),\n",
      "  Message('control_change', channel=9, control=4, value=0, time=11),\n",
      "  Message('control_change', channel=9, control=4, value=12, time=21),\n",
      "  Message('control_change', channel=9, control=4, value=25, time=22),\n",
      "  Message('control_change', channel=9, control=4, value=38, time=22),\n",
      "  Message('control_change', channel=9, control=4, value=50, time=22),\n",
      "  Message('control_change', channel=9, control=4, value=63, time=21),\n",
      "  Message('control_change', channel=9, control=4, value=68, time=9),\n",
      "  Message('control_change', channel=9, control=4, value=78, time=22),\n",
      "  Message('control_change', channel=9, control=4, value=89, time=21),\n",
      "  Message('control_change', channel=9, control=4, value=90, time=2),\n",
      "  Message('control_change', channel=9, control=4, value=88, time=43),\n",
      "  Message('control_change', channel=9, control=4, value=86, time=44),\n",
      "  Message('control_change', channel=9, control=4, value=84, time=43),\n",
      "  Message('control_change', channel=9, control=4, value=82, time=21),\n",
      "  Message('control_change', channel=9, control=4, value=76, time=21),\n",
      "  Message('control_change', channel=9, control=4, value=69, time=22),\n",
      "  Message('control_change', channel=9, control=4, value=67, time=5),\n",
      "  Message('control_change', channel=9, control=4, value=70, time=21),\n",
      "  Message('control_change', channel=9, control=4, value=73, time=22),\n",
      "  Message('control_change', channel=9, control=4, value=76, time=22),\n",
      "  Message('control_change', channel=9, control=4, value=78, time=11),\n",
      "  Message('control_change', channel=9, control=4, value=83, time=22),\n",
      "  Message('control_change', channel=9, control=4, value=89, time=22),\n",
      "  Message('control_change', channel=9, control=4, value=90, time=3),\n",
      "  Message('control_change', channel=9, control=4, value=86, time=22),\n",
      "  Message('control_change', channel=9, control=4, value=82, time=21),\n",
      "  Message('control_change', channel=9, control=4, value=77, time=22),\n",
      "  Message('control_change', channel=9, control=4, value=73, time=22),\n",
      "  Message('control_change', channel=9, control=4, value=68, time=22),\n",
      "  Message('control_change', channel=9, control=4, value=64, time=21),\n",
      "  Message('control_change', channel=9, control=4, value=59, time=22),\n",
      "  Message('control_change', channel=9, control=4, value=58, time=4),\n",
      "  Message('control_change', channel=9, control=4, value=31, time=22),\n",
      "  Message('control_change', channel=9, control=4, value=4, time=22),\n",
      "  Message('control_change', channel=9, control=4, value=0, time=3),\n",
      "  Message('control_change', channel=9, control=4, value=13, time=22),\n",
      "  Message('control_change', channel=9, control=4, value=26, time=21),\n",
      "  Message('control_change', channel=9, control=4, value=40, time=22),\n",
      "  Message('control_change', channel=9, control=4, value=53, time=22),\n",
      "  Message('control_change', channel=9, control=4, value=67, time=22),\n",
      "  Message('control_change', channel=9, control=4, value=77, time=16),\n",
      "  Message('control_change', channel=9, control=4, value=83, time=21),\n",
      "  Message('control_change', channel=9, control=4, value=90, time=22),\n",
      "  Message('control_change', channel=9, control=4, value=87, time=22),\n",
      "  Message('control_change', channel=9, control=4, value=83, time=22),\n",
      "  Message('control_change', channel=9, control=4, value=80, time=21),\n",
      "  Message('control_change', channel=9, control=4, value=76, time=22),\n",
      "  Message('control_change', channel=9, control=4, value=73, time=22),\n",
      "  Message('control_change', channel=9, control=4, value=69, time=22),\n",
      "  Message('control_change', channel=9, control=4, value=66, time=17),\n",
      "  Message('control_change', channel=9, control=4, value=56, time=22),\n",
      "  Message('control_change', channel=9, control=4, value=45, time=21),\n",
      "  Message('control_change', channel=9, control=4, value=35, time=19),\n",
      "  Message('control_change', channel=9, control=4, value=43, time=22),\n",
      "  Message('control_change', channel=9, control=4, value=51, time=22),\n",
      "  Message('control_change', channel=9, control=4, value=60, time=22),\n",
      "  Message('control_change', channel=9, control=4, value=63, time=7),\n",
      "  Message('control_change', channel=9, control=4, value=73, time=22),\n",
      "  Message('control_change', channel=9, control=4, value=84, time=21),\n",
      "  Message('control_change', channel=9, control=4, value=90, time=12),\n",
      "  Message('control_change', channel=9, control=4, value=86, time=43),\n",
      "  Message('control_change', channel=9, control=4, value=82, time=44),\n",
      "  Message('control_change', channel=9, control=4, value=78, time=43),\n",
      "  Message('control_change', channel=9, control=4, value=74, time=32),\n",
      "  Message('control_change', channel=9, control=4, value=44, time=22),\n",
      "  Message('control_change', channel=9, control=4, value=14, time=22),\n",
      "  Message('control_change', channel=9, control=4, value=0, time=10),\n",
      "  Message('control_change', channel=9, control=4, value=13, time=22),\n",
      "  Message('control_change', channel=9, control=4, value=27, time=21),\n",
      "  Message('control_change', channel=9, control=4, value=41, time=22),\n",
      "  Message('control_change', channel=9, control=4, value=55, time=22),\n",
      "  Message('control_change', channel=9, control=4, value=69, time=22),\n",
      "  Message('control_change', channel=9, control=4, value=76, time=8),\n",
      "  Message('control_change', channel=9, control=4, value=83, time=22),\n",
      "  Message('control_change', channel=9, control=4, value=90, time=22),\n",
      "  Message('control_change', channel=9, control=4, value=86, time=22),\n",
      "  Message('control_change', channel=9, control=4, value=82, time=21),\n",
      "  Message('control_change', channel=9, control=4, value=78, time=22),\n",
      "  Message('control_change', channel=9, control=4, value=73, time=22),\n",
      "  Message('control_change', channel=9, control=4, value=69, time=22),\n",
      "  Message('control_change', channel=9, control=4, value=65, time=21),\n",
      "  Message('control_change', channel=9, control=4, value=62, time=12),\n",
      "  Message('control_change', channel=9, control=4, value=51, time=22),\n",
      "  Message('control_change', channel=9, control=4, value=40, time=21),\n",
      "  Message('control_change', channel=9, control=4, value=31, time=16),\n",
      "  Message('control_change', channel=9, control=4, value=43, time=22),\n",
      "  Message('control_change', channel=9, control=4, value=55, time=22),\n",
      "  Message('control_change', channel=9, control=4, value=67, time=22),\n",
      "  Message('control_change', channel=9, control=4, value=78, time=19),\n",
      "  Message('control_change', channel=9, control=4, value=84, time=21),\n",
      "  Message('control_change', channel=9, control=4, value=90, time=22),\n",
      "  Message('control_change', channel=9, control=4, value=86, time=22),\n",
      "  Message('control_change', channel=9, control=4, value=81, time=22),\n",
      "  Message('control_change', channel=9, control=4, value=76, time=21),\n",
      "  Message('control_change', channel=9, control=4, value=71, time=22),\n",
      "  Message('control_change', channel=9, control=4, value=66, time=22),\n",
      "  Message('control_change', channel=9, control=4, value=61, time=22),\n",
      "  Message('control_change', channel=9, control=4, value=58, time=11),\n",
      "  Message('control_change', channel=9, control=4, value=30, time=22),\n",
      "  Message('control_change', channel=9, control=4, value=0, time=22),\n",
      "  Message('control_change', channel=9, control=4, value=1, time=0),\n",
      "  Message('control_change', channel=9, control=4, value=13, time=21),\n",
      "  Message('control_change', channel=9, control=4, value=26, time=22),\n",
      "  Message('control_change', channel=9, control=4, value=40, time=22),\n",
      "  Message('control_change', channel=9, control=4, value=53, time=22),\n",
      "  Message('control_change', channel=9, control=4, value=66, time=21),\n",
      "  Message('control_change', channel=9, control=4, value=71, time=8),\n",
      "  Message('control_change', channel=9, control=4, value=80, time=21),\n",
      "  Message('control_change', channel=9, control=4, value=89, time=22),\n",
      "  Message('control_change', channel=9, control=4, value=90, time=0),\n",
      "  Message('control_change', channel=9, control=4, value=86, time=44),\n",
      "  Message('control_change', channel=9, control=4, value=82, time=43),\n",
      "  Message('control_change', channel=9, control=4, value=77, time=44),\n",
      "  Message('control_change', channel=9, control=4, value=76, time=7),\n",
      "  Message('control_change', channel=9, control=4, value=68, time=22),\n",
      "  Message('control_change', channel=9, control=4, value=59, time=21),\n",
      "  Message('control_change', channel=9, control=4, value=57, time=5),\n",
      "  Message('control_change', channel=9, control=4, value=60, time=21),\n",
      "  Message('control_change', channel=9, control=4, value=63, time=22),\n",
      "  Message('control_change', channel=9, control=4, value=67, time=22),\n",
      "  Message('control_change', channel=9, control=4, value=70, time=22),\n",
      "  Message('control_change', channel=9, control=4, value=73, time=13),\n",
      "  Message('control_change', channel=9, control=4, value=80, time=22),\n",
      "  Message('control_change', channel=9, control=4, value=87, time=21),\n",
      "  Message('control_change', channel=9, control=4, value=90, time=8),\n",
      "  Message('control_change', channel=9, control=4, value=86, time=21),\n",
      "  Message('control_change', channel=9, control=4, value=82, time=22),\n",
      "  Message('control_change', channel=9, control=4, value=78, time=22),\n",
      "  Message('control_change', channel=9, control=4, value=74, time=22),\n",
      "  Message('control_change', channel=9, control=4, value=70, time=21),\n",
      "  Message('control_change', channel=9, control=4, value=66, time=22),\n",
      "  Message('control_change', channel=9, control=4, value=62, time=22),\n",
      "  Message('control_change', channel=9, control=4, value=59, time=16),\n",
      "  Message('control_change', channel=9, control=4, value=31, time=21),\n",
      "  Message('control_change', channel=9, control=4, value=3, time=22),\n",
      "  Message('control_change', channel=9, control=4, value=0, time=3),\n",
      "  Message('control_change', channel=9, control=4, value=14, time=22),\n",
      "  Message('control_change', channel=9, control=4, value=29, time=22),\n",
      "  Message('control_change', channel=9, control=4, value=44, time=21),\n",
      "  Message('control_change', channel=9, control=4, value=59, time=22),\n",
      "  Message('control_change', channel=9, control=4, value=74, time=22),\n",
      "  Message('control_change', channel=9, control=4, value=78, time=6),\n",
      "  Message('control_change', channel=9, control=4, value=84, time=21),\n",
      "  Message('control_change', channel=9, control=4, value=90, time=22),\n",
      "  Message('control_change', channel=9, control=4, value=85, time=44),\n",
      "  Message('control_change', channel=9, control=4, value=79, time=43),\n",
      "  Message('control_change', channel=9, control=4, value=73, time=44),\n",
      "  Message('control_change', channel=9, control=4, value=68, time=36),\n",
      "  Message('control_change', channel=9, control=4, value=58, time=22),\n",
      "  Message('control_change', channel=9, control=4, value=47, time=21),\n",
      "  Message('control_change', channel=9, control=4, value=39, time=22),\n",
      "  Message('control_change', channel=9, control=4, value=30, time=22),\n",
      "  Message('control_change', channel=9, control=4, value=29, time=1),\n",
      "  Message('control_change', channel=9, control=4, value=49, time=22),\n",
      "  Message('control_change', channel=9, control=4, value=70, time=22),\n",
      "  Message('control_change', channel=9, control=4, value=78, time=7),\n",
      "  Message('control_change', channel=9, control=4, value=84, time=22),\n",
      "  Message('control_change', channel=9, control=4, value=90, time=22),\n",
      "  Message('control_change', channel=9, control=4, value=86, time=21),\n",
      "  Message('control_change', channel=9, control=4, value=81, time=22),\n",
      "  Message('control_change', channel=9, control=4, value=77, time=22),\n",
      "  Message('control_change', channel=9, control=4, value=72, time=22),\n",
      "  Message('control_change', channel=9, control=4, value=67, time=21),\n",
      "  Message('control_change', channel=9, control=4, value=63, time=22),\n",
      "  Message('control_change', channel=9, control=4, value=59, time=16),\n",
      "  Message('control_change', channel=9, control=4, value=32, time=22),\n",
      "  Message('control_change', channel=9, control=4, value=4, time=22),\n",
      "  Message('control_change', channel=9, control=4, value=0, time=2),\n",
      "  Message('control_change', channel=9, control=4, value=13, time=22),\n",
      "  Message('control_change', channel=9, control=4, value=27, time=22),\n",
      "  Message('control_change', channel=9, control=4, value=41, time=22),\n",
      "  Message('control_change', channel=9, control=4, value=55, time=21),\n",
      "  Message('control_change', channel=9, control=4, value=68, time=22),\n",
      "  Message('control_change', channel=9, control=4, value=72, time=5),\n",
      "  Message('control_change', channel=9, control=4, value=80, time=21),\n",
      "  Message('control_change', channel=9, control=4, value=89, time=22),\n",
      "  Message('control_change', channel=9, control=4, value=90, time=0),\n",
      "  Message('control_change', channel=9, control=4, value=87, time=23),\n",
      "  Message('control_change', channel=9, control=4, value=84, time=22),\n",
      "  Message('control_change', channel=9, control=4, value=81, time=22),\n",
      "  Message('control_change', channel=9, control=4, value=78, time=22),\n",
      "  Message('control_change', channel=9, control=4, value=74, time=21),\n",
      "  Message('control_change', channel=9, control=4, value=71, time=21),\n",
      "  Message('control_change', channel=9, control=4, value=68, time=23),\n",
      "  Message('control_change', channel=9, control=4, value=67, time=3),\n",
      "  Message('control_change', channel=9, control=4, value=55, time=21),\n",
      "  Message('control_change', channel=9, control=4, value=43, time=22),\n",
      "  Message('control_change', channel=9, control=4, value=34, time=16),\n",
      "  Message('control_change', channel=9, control=4, value=48, time=22),\n",
      "  Message('control_change', channel=9, control=4, value=62, time=22),\n",
      "  Message('control_change', channel=9, control=4, value=77, time=21),\n",
      "  Message('control_change', channel=9, control=4, value=79, time=3),\n",
      "  Message('control_change', channel=9, control=4, value=84, time=22),\n",
      "  Message('control_change', channel=9, control=4, value=90, time=22),\n",
      "  Message('control_change', channel=9, control=4, value=86, time=22),\n",
      "  Message('control_change', channel=9, control=4, value=82, time=21),\n",
      "  Message('control_change', channel=9, control=4, value=78, time=22),\n",
      "  Message('control_change', channel=9, control=4, value=74, time=22),\n",
      "  Message('control_change', channel=9, control=4, value=70, time=22),\n",
      "  Message('control_change', channel=9, control=4, value=65, time=21),\n",
      "  Message('control_change', channel=9, control=4, value=61, time=22),\n",
      "  Message('control_change', channel=9, control=4, value=59, time=9),\n",
      "  Message('control_change', channel=9, control=4, value=33, time=21),\n",
      "  Message('control_change', channel=9, control=4, value=6, time=22),\n",
      "  Message('control_change', channel=9, control=4, value=0, time=5),\n",
      "  Message('control_change', channel=9, control=4, value=14, time=21),\n",
      "  Message('control_change', channel=9, control=4, value=29, time=22),\n",
      "  Message('control_change', channel=9, control=4, value=44, time=22),\n",
      "  Message('control_change', channel=9, control=4, value=59, time=22),\n",
      "  Message('control_change', channel=9, control=4, value=74, time=21),\n",
      "  Message('control_change', channel=9, control=4, value=77, time=3),\n",
      "  Message('control_change', channel=9, control=4, value=83, time=22),\n",
      "  Message('control_change', channel=9, control=4, value=90, time=22),\n",
      "  Message('control_change', channel=9, control=4, value=87, time=21),\n",
      "  Message('control_change', channel=9, control=4, value=83, time=22),\n",
      "  Message('control_change', channel=9, control=4, value=80, time=22),\n",
      "  Message('control_change', channel=9, control=4, value=76, time=22),\n",
      "  Message('control_change', channel=9, control=4, value=72, time=21),\n",
      "  Message('control_change', channel=9, control=4, value=69, time=22),\n",
      "  Message('control_change', channel=9, control=4, value=66, time=13),\n",
      "  Message('control_change', channel=9, control=4, value=52, time=22),\n",
      "  Message('control_change', channel=9, control=4, value=38, time=22),\n",
      "  Message('control_change', channel=9, control=4, value=30, time=11),\n",
      "  Message('control_change', channel=9, control=4, value=43, time=22),\n",
      "  Message('control_change', channel=9, control=4, value=56, time=22),\n",
      "  Message('control_change', channel=9, control=4, value=69, time=22),\n",
      "  Message('control_change', channel=9, control=4, value=78, time=14),\n",
      "  Message('control_change', channel=9, control=4, value=84, time=22),\n",
      "  Message('control_change', channel=9, control=4, value=90, time=22),\n",
      "  Message('control_change', channel=9, control=4, value=86, time=21),\n",
      "  Message('control_change', channel=9, control=4, value=81, time=22),\n",
      "  Message('control_change', channel=9, control=4, value=76, time=22),\n",
      "  Message('control_change', channel=9, control=4, value=71, time=22),\n",
      "  Message('control_change', channel=9, control=4, value=66, time=21),\n",
      "  Message('control_change', channel=9, control=4, value=61, time=22),\n",
      "  Message('control_change', channel=9, control=4, value=58, time=12),\n",
      "  Message('control_change', channel=9, control=4, value=30, time=21),\n",
      "  Message('control_change', channel=9, control=4, value=2, time=22),\n",
      "  Message('control_change', channel=9, control=4, value=0, time=2),\n",
      "  Message('control_change', channel=9, control=4, value=13, time=21),\n",
      "  Message('control_change', channel=9, control=4, value=26, time=22),\n",
      "  Message('control_change', channel=9, control=4, value=39, time=22),\n",
      "  Message('control_change', channel=9, control=4, value=52, time=22),\n",
      "  Message('control_change', channel=9, control=4, value=65, time=21),\n",
      "  Message('control_change', channel=9, control=4, value=68, time=5),\n",
      "  Message('control_change', channel=9, control=4, value=78, time=22),\n",
      "  Message('control_change', channel=9, control=4, value=89, time=21),\n",
      "  Message('control_change', channel=9, control=4, value=90, time=0),\n",
      "  Message('control_change', channel=9, control=4, value=86, time=22),\n",
      "  Message('control_change', channel=9, control=4, value=81, time=22),\n",
      "  Message('control_change', channel=9, control=4, value=77, time=22),\n",
      "  Message('control_change', channel=9, control=4, value=72, time=21),\n",
      "  Message('control_change', channel=9, control=4, value=67, time=22),\n",
      "  Message('control_change', channel=9, control=4, value=63, time=22),\n",
      "  Message('control_change', channel=9, control=4, value=58, time=22),\n",
      "  Message('control_change', channel=9, control=4, value=54, time=17),\n",
      "  Message('control_change', channel=9, control=4, value=45, time=22),\n",
      "  Message('control_change', channel=9, control=4, value=36, time=21),\n",
      "  Message('control_change', channel=9, control=4, value=27, time=19),\n",
      "  Message('control_change', channel=9, control=4, value=42, time=22),\n",
      "  Message('control_change', channel=9, control=4, value=57, time=22),\n",
      "  Message('control_change', channel=9, control=4, value=71, time=20),\n",
      "  Message('control_change', channel=9, control=4, value=79, time=22),\n",
      "  Message('control_change', channel=9, control=4, value=88, time=22),\n",
      "  Message('control_change', channel=9, control=4, value=90, time=2),\n",
      "  Message('control_change', channel=9, control=4, value=86, time=22),\n",
      "  Message('control_change', channel=9, control=4, value=82, time=22),\n",
      "  Message('control_change', channel=9, control=4, value=77, time=22),\n",
      "  Message('control_change', channel=9, control=4, value=73, time=21),\n",
      "  Message('control_change', channel=9, control=4, value=69, time=22),\n",
      "  Message('control_change', channel=9, control=4, value=64, time=22),\n",
      "  Message('control_change', channel=9, control=4, value=60, time=20),\n",
      "  Message('control_change', channel=9, control=4, value=34, time=22),\n",
      "  Message('control_change', channel=9, control=4, value=7, time=22),\n",
      "  Message('control_change', channel=9, control=4, value=0, time=4),\n",
      "  Message('control_change', channel=9, control=4, value=14, time=22),\n",
      "  Message('control_change', channel=9, control=4, value=28, time=22),\n",
      "  Message('control_change', channel=9, control=4, value=42, time=21),\n",
      "  Message('control_change', channel=9, control=4, value=56, time=22),\n",
      "  Message('control_change', channel=9, control=4, value=70, time=22),\n",
      "  Message('control_change', channel=9, control=4, value=78, time=11),\n",
      "  Message('control_change', channel=9, control=4, value=84, time=22),\n",
      "  Message('control_change', channel=9, control=4, value=90, time=22),\n",
      "  Message('control_change', channel=9, control=4, value=86, time=22),\n",
      "  Message('control_change', channel=9, control=4, value=82, time=21),\n",
      "  Message('control_change', channel=9, control=4, value=78, time=22),\n",
      "  Message('control_change', channel=9, control=4, value=74, time=22),\n",
      "  Message('control_change', channel=9, control=4, value=70, time=22),\n",
      "  Message('control_change', channel=9, control=4, value=66, time=21),\n",
      "  Message('control_change', channel=9, control=4, value=62, time=21),\n",
      "  Message('control_change', channel=9, control=4, value=58, time=23),\n",
      "  Message('control_change', channel=9, control=4, value=56, time=6),\n",
      "  Message('control_change', channel=9, control=4, value=50, time=22),\n",
      "  Message('control_change', channel=9, control=4, value=43, time=21),\n",
      "  Message('control_change', channel=9, control=4, value=42, time=3),\n",
      "  Message('control_change', channel=9, control=4, value=55, time=22),\n",
      "  Message('control_change', channel=9, control=4, value=68, time=22),\n",
      "  Message('control_change', channel=9, control=4, value=79, time=17),\n",
      "  Message('control_change', channel=9, control=4, value=84, time=22),\n",
      "  Message('control_change', channel=9, control=4, value=90, time=22),\n",
      "  Message('control_change', channel=9, control=4, value=85, time=21),\n",
      "  Message('control_change', channel=9, control=4, value=80, time=22),\n",
      "  Message('control_change', channel=9, control=4, value=75, time=22),\n",
      "  Message('control_change', channel=9, control=4, value=69, time=22),\n",
      "  Message('control_change', channel=9, control=4, value=64, time=21),\n",
      "  Message('control_change', channel=9, control=4, value=59, time=22),\n",
      "  Message('control_change', channel=9, control=4, value=58, time=2),\n",
      "  Message('control_change', channel=9, control=4, value=31, time=21),\n",
      "  Message('control_change', channel=9, control=4, value=4, time=22),\n",
      "  Message('control_change', channel=9, control=4, value=0, time=3),\n",
      "  Message('control_change', channel=9, control=4, value=12, time=22),\n",
      "  Message('control_change', channel=9, control=4, value=24, time=21),\n",
      "  Message('control_change', channel=9, control=4, value=36, time=22),\n",
      "  Message('control_change', channel=9, control=4, value=48, time=22),\n",
      "  Message('control_change', channel=9, control=4, value=60, time=22),\n",
      "  Message('control_change', channel=9, control=4, value=68, time=14),\n",
      "  Message('control_change', channel=9, control=4, value=78, time=22),\n",
      "  Message('control_change', channel=9, control=4, value=89, time=22),\n",
      "  Message('control_change', channel=9, control=4, value=90, time=1),\n",
      "  Message('control_change', channel=9, control=4, value=87, time=22),\n",
      "  Message('control_change', channel=9, control=4, value=84, time=22),\n",
      "  Message('control_change', channel=9, control=4, value=81, time=21),\n",
      "  Message('control_change', channel=9, control=4, value=78, time=22),\n",
      "  Message('control_change', channel=9, control=4, value=75, time=22),\n",
      "  Message('control_change', channel=9, control=4, value=72, time=22),\n",
      "  Message('control_change', channel=9, control=4, value=68, time=21),\n",
      "  Message('control_change', channel=9, control=4, value=55, time=22),\n",
      "  Message('control_change', channel=9, control=4, value=42, time=22),\n",
      "  Message('control_change', channel=9, control=4, value=33, time=13),\n",
      "  Message('control_change', channel=9, control=4, value=45, time=22),\n",
      "  Message('control_change', channel=9, control=4, value=58, time=21),\n",
      "  Message('control_change', channel=9, control=4, value=71, time=22),\n",
      "  Message('control_change', channel=9, control=4, value=78, time=10),\n",
      "  Message('control_change', channel=9, control=4, value=84, time=22),\n",
      "  Message('control_change', channel=9, control=4, value=90, time=22),\n",
      "  Message('control_change', channel=9, control=4, value=85, time=22),\n",
      "  Message('control_change', channel=9, control=4, value=80, time=21),\n",
      "  Message('control_change', channel=9, control=4, value=75, time=22),\n",
      "  Message('control_change', channel=9, control=4, value=70, time=22),\n",
      "  Message('control_change', channel=9, control=4, value=65, time=22),\n",
      "  Message('control_change', channel=9, control=4, value=60, time=21),\n",
      "  Message('control_change', channel=9, control=4, value=58, time=9),\n",
      "  Message('control_change', channel=9, control=4, value=33, time=22),\n",
      "  Message('control_change', channel=9, control=4, value=8, time=22),\n",
      "  Message('control_change', channel=9, control=4, value=0, time=7),\n",
      "  Message('control_change', channel=9, control=4, value=14, time=22),\n",
      "  Message('control_change', channel=9, control=4, value=28, time=21),\n",
      "  Message('control_change', channel=9, control=4, value=42, time=22),\n",
      "  Message('control_change', channel=9, control=4, value=56, time=22),\n",
      "  Message('control_change', channel=9, control=4, value=70, time=22),\n",
      "  Message('control_change', channel=9, control=4, value=76, time=8),\n",
      "  Message('control_change', channel=9, control=4, value=83, time=22),\n",
      "  Message('control_change', channel=9, control=4, value=90, time=22),\n",
      "  Message('control_change', channel=9, control=4, value=86, time=21),\n",
      "  Message('control_change', channel=9, control=4, value=82, time=22),\n",
      "  Message('control_change', channel=9, control=4, value=77, time=22),\n",
      "  Message('control_change', channel=9, control=4, value=73, time=22),\n",
      "  Message('control_change', channel=9, control=4, value=68, time=20),\n",
      "  Message('control_change', channel=9, control=4, value=64, time=23),\n",
      "  Message('control_change', channel=9, control=4, value=60, time=22),\n",
      "  Message('control_change', channel=9, control=4, value=56, time=14),\n",
      "  Message('control_change', channel=9, control=4, value=46, time=22),\n",
      "  Message('control_change', channel=9, control=4, value=35, time=22),\n",
      "  Message('control_change', channel=9, control=4, value=26, time=17),\n",
      "  Message('control_change', channel=9, control=4, value=40, time=22),\n",
      "  Message('control_change', channel=9, control=4, value=55, time=22),\n",
      "  Message('control_change', channel=9, control=4, value=68, time=19),\n",
      "  Message('control_change', channel=9, control=4, value=78, time=21),\n",
      "  Message('control_change', channel=9, control=4, value=88, time=22),\n",
      "  Message('control_change', channel=9, control=4, value=90, time=3),\n",
      "  Message('control_change', channel=9, control=4, value=86, time=22),\n",
      "  Message('control_change', channel=9, control=4, value=81, time=22),\n",
      "  Message('control_change', channel=9, control=4, value=76, time=21),\n",
      "  Message('control_change', channel=9, control=4, value=71, time=22),\n",
      "  Message('control_change', channel=9, control=4, value=66, time=22),\n",
      "  Message('control_change', channel=9, control=4, value=61, time=22),\n",
      "  Message('control_change', channel=9, control=4, value=59, time=5),\n",
      "  Message('control_change', channel=9, control=4, value=34, time=22),\n",
      "  Message('control_change', channel=9, control=4, value=8, time=22),\n",
      "  Message('control_change', channel=9, control=4, value=0, time=6),\n",
      "  Message('control_change', channel=9, control=4, value=13, time=21),\n",
      "  Message('control_change', channel=9, control=4, value=26, time=22),\n",
      "  Message('control_change', channel=9, control=4, value=40, time=22),\n",
      "  Message('control_change', channel=9, control=4, value=53, time=22),\n",
      "  Message('control_change', channel=9, control=4, value=66, time=21),\n",
      "  Message('control_change', channel=9, control=4, value=77, time=18),\n",
      "  Message('control_change', channel=9, control=4, value=83, time=22),\n",
      "  Message('control_change', channel=9, control=4, value=90, time=21),\n",
      "  Message('control_change', channel=9, control=4, value=86, time=22),\n",
      "  Message('control_change', channel=9, control=4, value=82, time=22),\n",
      "  Message('control_change', channel=9, control=4, value=78, time=22),\n",
      "  Message('control_change', channel=9, control=4, value=74, time=21),\n",
      "  Message('control_change', channel=9, control=4, value=70, time=22),\n",
      "  Message('control_change', channel=9, control=4, value=66, time=22),\n",
      "  Message('control_change', channel=9, control=4, value=62, time=22),\n",
      "  Message('control_change', channel=9, control=4, value=58, time=21),\n",
      "  Message('control_change', channel=9, control=4, value=57, time=2),\n",
      "  Message('control_change', channel=9, control=4, value=51, time=22),\n",
      "  Message('control_change', channel=9, control=4, value=45, time=21),\n",
      "  Message('control_change', channel=9, control=4, value=42, time=9),\n",
      "  Message('control_change', channel=9, control=4, value=51, time=22),\n",
      "  Message('control_change', channel=9, control=4, value=61, time=22),\n",
      "  Message('control_change', channel=9, control=4, value=68, time=15),\n",
      "  Message('control_change', channel=9, control=4, value=77, time=22),\n",
      "  Message('control_change', channel=9, control=4, value=86, time=22),\n",
      "  Message('control_change', channel=9, control=4, value=90, time=7),\n",
      "  Message('control_change', channel=9, control=4, value=86, time=22),\n",
      "  Message('control_change', channel=9, control=4, value=81, time=22),\n",
      "  Message('control_change', channel=9, control=4, value=76, time=21),\n",
      "  Message('control_change', channel=9, control=4, value=72, time=22),\n",
      "  Message('control_change', channel=9, control=4, value=67, time=22),\n",
      "  Message('control_change', channel=9, control=4, value=62, time=22),\n",
      "  Message('control_change', channel=9, control=4, value=58, time=19),\n",
      "  Message('control_change', channel=9, control=4, value=30, time=21),\n",
      "  Message('control_change', channel=9, control=4, value=2, time=22),\n",
      "  Message('control_change', channel=9, control=4, value=0, time=2),\n",
      "  Message('control_change', channel=9, control=4, value=12, time=21),\n",
      "  Message('control_change', channel=9, control=4, value=25, time=22),\n",
      "  Message('control_change', channel=9, control=4, value=37, time=22),\n",
      "  Message('control_change', channel=9, control=4, value=50, time=22),\n",
      "  Message('control_change', channel=9, control=4, value=62, time=21),\n",
      "  Message('control_change', channel=9, control=4, value=70, time=13),\n",
      "  Message('control_change', channel=9, control=4, value=79, time=22),\n",
      "  Message('control_change', channel=9, control=4, value=89, time=22),\n",
      "  Message('control_change', channel=9, control=4, value=90, time=0),\n",
      "  Message('control_change', channel=9, control=4, value=87, time=43),\n",
      "  Message('control_change', channel=9, control=4, value=83, time=44),\n",
      "  Message('control_change', channel=9, control=4, value=80, time=43),\n",
      "  Message('control_change', channel=9, control=4, value=78, time=15),\n",
      "  Message('control_change', channel=9, control=4, value=72, time=22),\n",
      "  Message('control_change', channel=9, control=4, value=66, time=21),\n",
      "  Message('control_change', channel=9, control=4, value=62, time=10),\n",
      "  Message('control_change', channel=9, control=4, value=54, time=22),\n",
      "  Message('control_change', channel=9, control=4, value=45, time=22),\n",
      "  Message('control_change', channel=9, control=4, value=44, time=1),\n",
      "  Message('control_change', channel=9, control=4, value=55, time=22),\n",
      "  Message('control_change', channel=9, control=4, value=66, time=22),\n",
      "  Message('control_change', channel=9, control=4, value=77, time=20),\n",
      "  Message('control_change', channel=9, control=4, value=83, time=22),\n",
      "  Message('control_change', channel=9, control=4, value=90, time=22),\n",
      "  Message('control_change', channel=9, control=4, value=85, time=43),\n",
      "  Message('control_change', channel=9, control=4, value=80, time=44),\n",
      "  Message('control_change', channel=9, control=4, value=74, time=43),\n",
      "  Message('control_change', channel=9, control=4, value=44, time=22),\n",
      "  Message('control_change', channel=9, control=4, value=14, time=22),\n",
      "  Message('control_change', channel=9, control=4, value=0, time=10),\n",
      "  Message('control_change', channel=9, control=4, value=13, time=22),\n",
      "  Message('control_change', channel=9, control=4, value=26, time=21),\n",
      "  Message('control_change', channel=9, control=4, value=40, time=22),\n",
      "  Message('control_change', channel=9, control=4, value=53, time=22),\n",
      "  Message('control_change', channel=9, control=4, value=66, time=22),\n",
      "  Message('control_change', channel=9, control=4, value=73, time=10),\n",
      "  Message('control_change', channel=9, control=4, value=81, time=22),\n",
      "  Message('control_change', channel=9, control=4, value=90, time=21),\n",
      "  Message('control_change', channel=9, control=4, value=88, time=44),\n",
      "  Message('control_change', channel=9, control=4, value=85, time=43),\n",
      "  Message('control_change', channel=9, control=4, value=82, time=44),\n",
      "  Message('control_change', channel=9, control=4, value=80, time=17),\n",
      "  Message('control_change', channel=9, control=4, value=73, time=22),\n",
      "  Message('control_change', channel=9, control=4, value=65, time=22),\n",
      "  Message('control_change', channel=9, control=4, value=63, time=5),\n",
      "  Message('control_change', channel=9, control=4, value=68, time=44),\n",
      "  Message('control_change', channel=9, control=4, value=71, time=16),\n",
      "  Message('control_change', channel=9, control=4, value=77, time=22),\n",
      "  Message('control_change', channel=9, control=4, value=83, time=21),\n",
      "  Message('control_change', channel=9, control=4, value=89, time=22),\n",
      "  Message('control_change', channel=9, control=4, value=90, time=2),\n",
      "  Message('control_change', channel=9, control=4, value=87, time=21),\n",
      "  Message('control_change', channel=9, control=4, value=84, time=22),\n",
      "  Message('control_change', channel=9, control=4, value=81, time=22),\n",
      "  Message('control_change', channel=9, control=4, value=78, time=22),\n",
      "  Message('control_change', channel=9, control=4, value=75, time=21),\n",
      "  Message('control_change', channel=9, control=4, value=72, time=22),\n",
      "  Message('control_change', channel=9, control=4, value=68, time=22),\n",
      "  Message('control_change', channel=9, control=4, value=65, time=22),\n",
      "  Message('control_change', channel=9, control=4, value=62, time=21),\n",
      "  Message('control_change', channel=9, control=4, value=61, time=5),\n",
      "  Message('control_change', channel=9, control=4, value=35, time=21),\n",
      "  Message('control_change', channel=9, control=4, value=8, time=22),\n",
      "  Message('control_change', channel=9, control=4, value=0, time=6),\n",
      "  Message('control_change', channel=9, control=4, value=13, time=22),\n",
      "  Message('control_change', channel=9, control=4, value=27, time=22),\n",
      "  Message('control_change', channel=9, control=4, value=40, time=21),\n",
      "  Message('control_change', channel=9, control=4, value=54, time=22),\n",
      "  Message('control_change', channel=9, control=4, value=68, time=22),\n",
      "  Message('control_change', channel=9, control=4, value=76, time=13),\n",
      "  Message('control_change', channel=9, control=4, value=83, time=22),\n",
      "  Message('control_change', channel=9, control=4, value=90, time=21),\n",
      "  Message('control_change', channel=9, control=4, value=86, time=22),\n",
      "  Message('control_change', channel=9, control=4, value=82, time=22),\n",
      "  Message('control_change', channel=9, control=4, value=78, time=22),\n",
      "  Message('control_change', channel=9, control=4, value=74, time=21),\n",
      "  Message('control_change', channel=9, control=4, value=70, time=22),\n",
      "  Message('control_change', channel=9, control=4, value=66, time=22),\n",
      "  Message('control_change', channel=9, control=4, value=62, time=22),\n",
      "  Message('control_change', channel=9, control=4, value=58, time=21),\n",
      "  Message('control_change', channel=9, control=4, value=57, time=5),\n",
      "  Message('control_change', channel=9, control=4, value=47, time=21),\n",
      "  Message('control_change', channel=9, control=4, value=37, time=22),\n",
      "  Message('control_change', channel=9, control=4, value=28, time=19),\n",
      "  Message('control_change', channel=9, control=4, value=43, time=22),\n",
      "  Message('control_change', channel=9, control=4, value=59, time=22),\n",
      "  Message('control_change', channel=9, control=4, value=75, time=21),\n",
      "  Message('control_change', channel=9, control=4, value=78, time=5),\n",
      "  Message('control_change', channel=9, control=4, value=84, time=21),\n",
      "  Message('control_change', channel=9, control=4, value=90, time=22),\n",
      "  Message('control_change', channel=9, control=4, value=85, time=22),\n",
      "  Message('control_change', channel=9, control=4, value=80, time=22),\n",
      "  Message('control_change', channel=9, control=4, value=75, time=21),\n",
      "  Message('control_change', channel=9, control=4, value=70, time=22),\n",
      "  Message('control_change', channel=9, control=4, value=65, time=22),\n",
      "  Message('control_change', channel=9, control=4, value=60, time=22),\n",
      "  Message('control_change', channel=9, control=4, value=58, time=8),\n",
      "  Message('control_change', channel=9, control=4, value=30, time=22),\n",
      "  Message('control_change', channel=9, control=4, value=0, time=22),\n",
      "  Message('control_change', channel=9, control=4, value=1, time=0),\n",
      "  Message('control_change', channel=9, control=4, value=14, time=22),\n",
      "  Message('control_change', channel=9, control=4, value=28, time=21),\n",
      "  Message('control_change', channel=9, control=4, value=42, time=22),\n",
      "  Message('control_change', channel=9, control=4, value=56, time=22),\n",
      "  Message('control_change', channel=9, control=4, value=70, time=22),\n",
      "  Message('control_change', channel=9, control=4, value=78, time=13),\n",
      "  Message('control_change', channel=9, control=4, value=84, time=21),\n",
      "  Message('control_change', channel=9, control=4, value=90, time=22),\n",
      "  Message('control_change', channel=9, control=4, value=86, time=22),\n",
      "  Message('control_change', channel=9, control=4, value=81, time=22),\n",
      "  Message('control_change', channel=9, control=4, value=77, time=21),\n",
      "  Message('control_change', channel=9, control=4, value=72, time=22),\n",
      "  Message('control_change', channel=9, control=4, value=68, time=22),\n",
      "  Message('control_change', channel=9, control=4, value=63, time=22),\n",
      "  Message('control_change', channel=9, control=4, value=59, time=21),\n",
      "  Message('control_change', channel=9, control=4, value=54, time=22),\n",
      "  Message('control_change', channel=9, control=4, value=50, time=22),\n",
      "  Message('control_change', channel=9, control=4, value=45, time=22),\n",
      "  Message('control_change', channel=9, control=4, value=42, time=8),\n",
      "  Message('control_change', channel=9, control=4, value=50, time=22),\n",
      "  Message('control_change', channel=9, control=4, value=59, time=22),\n",
      "  Message('control_change', channel=9, control=4, value=67, time=20),\n",
      "  Message('control_change', channel=9, control=4, value=76, time=22),\n",
      "  Message('control_change', channel=9, control=4, value=86, time=22),\n",
      "  Message('control_change', channel=9, control=4, value=90, time=7),\n",
      "  Message('control_change', channel=9, control=4, value=86, time=22),\n",
      "  Message('control_change', channel=9, control=4, value=82, time=21),\n",
      "  Message('control_change', channel=9, control=4, value=77, time=22),\n",
      "  Message('control_change', channel=9, control=4, value=73, time=22),\n",
      "  Message('control_change', channel=9, control=4, value=69, time=22),\n",
      "  Message('control_change', channel=9, control=4, value=64, time=21),\n",
      "  Message('control_change', channel=9, control=4, value=60, time=22),\n",
      "  Message('control_change', channel=9, control=4, value=59, time=3),\n",
      "  Message('control_change', channel=9, control=4, value=33, time=22),\n",
      "  Message('control_change', channel=9, control=4, value=6, time=22),\n",
      "  Message('control_change', channel=9, control=4, value=0, time=4),\n",
      "  Message('control_change', channel=9, control=4, value=13, time=22),\n",
      "  Message('control_change', channel=9, control=4, value=27, time=21),\n",
      "  Message('control_change', channel=9, control=4, value=40, time=22),\n",
      "  Message('control_change', channel=9, control=4, value=54, time=22),\n",
      "  Message('control_change', channel=9, control=4, value=67, time=22),\n",
      "  Message('control_change', channel=9, control=4, value=71, time=5),\n",
      "  Message('control_change', channel=9, control=4, value=80, time=22),\n",
      "  Message('control_change', channel=9, control=4, value=89, time=22),\n",
      "  Message('control_change', channel=9, control=4, value=90, time=0),\n",
      "  Message('control_change', channel=9, control=4, value=87, time=22),\n",
      "  Message('control_change', channel=9, control=4, value=84, time=21),\n",
      "  Message('control_change', channel=9, control=4, value=81, time=22),\n",
      "  Message('control_change', channel=9, control=4, value=78, time=22),\n",
      "  Message('control_change', channel=9, control=4, value=75, time=22),\n",
      "  Message('control_change', channel=9, control=4, value=72, time=21),\n",
      "  Message('control_change', channel=9, control=4, value=69, time=22),\n",
      "  Message('control_change', channel=9, control=4, value=67, time=10),\n",
      "  Message('control_change', channel=9, control=4, value=57, time=22),\n",
      "  Message('control_change', channel=9, control=4, value=47, time=22),\n",
      "  Message('control_change', channel=9, control=4, value=40, time=22),\n",
      "  Message('control_change', channel=9, control=4, value=32, time=21),\n",
      "  Message('control_change', channel=9, control=4, value=30, time=3),\n",
      "  Message('control_change', channel=9, control=4, value=48, time=22),\n",
      "  Message('control_change', channel=9, control=4, value=67, time=22),\n",
      "  Message('control_change', channel=9, control=4, value=78, time=11),\n",
      "  Message('control_change', channel=9, control=4, value=84, time=22),\n",
      "  Message('control_change', channel=9, control=4, value=90, time=22),\n",
      "  Message('control_change', channel=9, control=4, value=86, time=22),\n",
      "  Message('control_change', channel=9, control=4, value=81, time=21),\n",
      "  Message('control_change', channel=9, control=4, value=76, time=22),\n",
      "  Message('control_change', channel=9, control=4, value=71, time=22),\n",
      "  Message('control_change', channel=9, control=4, value=67, time=22),\n",
      "  Message('control_change', channel=9, control=4, value=62, time=21),\n",
      "  Message('control_change', channel=9, control=4, value=58, time=16),\n",
      "  Message('control_change', channel=9, control=4, value=30, time=22),\n",
      "  Message('control_change', channel=9, control=4, value=2, time=22),\n",
      "  Message('control_change', channel=9, control=4, value=0, time=1),\n",
      "  Message('control_change', channel=9, control=4, value=13, time=22),\n",
      "  Message('control_change', channel=9, control=4, value=26, time=22),\n",
      "  Message('control_change', channel=9, control=4, value=39, time=21),\n",
      "  Message('control_change', channel=9, control=4, value=52, time=22),\n",
      "  Message('control_change', channel=9, control=4, value=65, time=22),\n",
      "  Message('control_change', channel=9, control=4, value=69, time=7),\n",
      "  Message('control_change', channel=9, control=4, value=79, time=22),\n",
      "  Message('control_change', channel=9, control=4, value=89, time=22),\n",
      "  Message('control_change', channel=9, control=4, value=90, time=0),\n",
      "  Message('control_change', channel=9, control=4, value=86, time=43),\n",
      "  Message('control_change', channel=9, control=4, value=81, time=44),\n",
      "  Message('control_change', channel=9, control=4, value=77, time=43),\n",
      "  Message('control_change', channel=9, control=4, value=76, time=2),\n",
      "  Message('control_change', channel=9, control=4, value=62, time=21),\n",
      "  Message('control_change', channel=9, control=4, value=47, time=22),\n",
      "  Message('control_change', channel=9, control=4, value=38, time=13),\n",
      "  Message('control_change', channel=9, control=4, value=32, time=22),\n",
      "  Message('control_change', channel=9, control=4, value=25, time=22),\n",
      "  Message('control_change', channel=9, control=4, value=23, time=4),\n",
      "  Message('control_change', channel=9, control=4, value=42, time=22),\n",
      "  Message('control_change', channel=9, control=4, value=61, time=22),\n",
      "  Message('control_change', channel=9, control=4, value=68, time=7),\n",
      "  Message('control_change', channel=9, control=4, value=78, time=22),\n",
      "  Message('control_change', channel=9, control=4, value=88, time=21),\n",
      "  Message('control_change', channel=9, control=4, value=90, time=5),\n",
      "  Message('control_change', channel=9, control=4, value=87, time=21),\n",
      "  Message('control_change', channel=9, control=4, value=83, time=22),\n",
      "  Message('control_change', channel=9, control=4, value=79, time=22),\n",
      "  Message('control_change', channel=9, control=4, value=75, time=22),\n",
      "  Message('control_change', channel=9, control=4, value=71, time=21),\n",
      "  Message('control_change', channel=9, control=4, value=68, time=22),\n",
      "  Message('control_change', channel=9, control=4, value=64, time=22),\n",
      "  Message('control_change', channel=9, control=4, value=60, time=22),\n",
      "  Message('control_change', channel=9, control=4, value=59, time=3),\n",
      "  Message('control_change', channel=9, control=4, value=36, time=21),\n",
      "  Message('control_change', channel=9, control=4, value=12, time=22),\n",
      "  Message('control_change', channel=9, control=4, value=0, time=10),\n",
      "  Message('control_change', channel=9, control=4, value=15, time=22),\n",
      "  Message('control_change', channel=9, control=4, value=30, time=22),\n",
      "  Message('control_change', channel=9, control=4, value=45, time=21),\n",
      "  Message('control_change', channel=9, control=4, value=60, time=22),\n",
      "  Message('control_change', channel=9, control=4, value=73, time=19),\n",
      "  Message('control_change', channel=9, control=4, value=81, time=22),\n",
      "  Message('control_change', channel=9, control=4, value=90, time=22),\n",
      "  Message('control_change', channel=9, control=4, value=89, time=43),\n",
      "  Message('control_change', channel=9, control=4, value=87, time=44),\n",
      "  Message('control_change', channel=9, control=4, value=85, time=43),\n",
      "  Message('control_change', channel=9, control=4, value=82, time=44),\n",
      "  Message('control_change', channel=9, control=4, value=83, time=0),\n",
      "  Message('control_change', channel=9, control=4, value=75, time=23),\n",
      "  Message('control_change', channel=9, control=4, value=67, time=22),\n",
      "  Message('control_change', channel=9, control=4, value=65, time=2),\n",
      "  Message('control_change', channel=9, control=4, value=69, time=44),\n",
      "  Message('control_change', channel=9, control=4, value=72, time=19),\n",
      "  Message('control_change', channel=9, control=4, value=79, time=22),\n",
      "  Message('control_change', channel=9, control=4, value=86, time=21),\n",
      "  Message('control_change', channel=9, control=4, value=90, time=9),\n",
      "  Message('control_change', channel=9, control=4, value=86, time=22),\n",
      "  Message('control_change', channel=9, control=4, value=82, time=21),\n",
      "  Message('control_change', channel=9, control=4, value=78, time=22),\n",
      "  Message('control_change', channel=9, control=4, value=74, time=22),\n",
      "  Message('control_change', channel=9, control=4, value=70, time=22),\n",
      "  Message('control_change', channel=9, control=4, value=65, time=21),\n",
      "  Message('control_change', channel=9, control=4, value=61, time=22),\n",
      "  Message('control_change', channel=9, control=4, value=59, time=9),\n",
      "  Message('control_change', channel=9, control=4, value=32, time=22),\n",
      "  Message('control_change', channel=9, control=4, value=4, time=21),\n",
      "  Message('control_change', channel=9, control=4, value=0, time=3),\n",
      "  Message('control_change', channel=9, control=4, value=12, time=22),\n",
      "  Message('control_change', channel=9, control=4, value=25, time=22),\n",
      "  Message('control_change', channel=9, control=4, value=38, time=22),\n",
      "  Message('control_change', channel=9, control=4, value=51, time=21),\n",
      "  Message('control_change', channel=9, control=4, value=64, time=22),\n",
      "  Message('control_change', channel=9, control=4, value=68, time=6),\n",
      "  Message('control_change', channel=9, control=4, value=78, time=22),\n",
      "  Message('control_change', channel=9, control=4, value=89, time=21),\n",
      "  Message('control_change', channel=9, control=4, value=90, time=2),\n",
      "  Message('control_change', channel=9, control=4, value=85, time=43),\n",
      "  Message('control_change', channel=9, control=4, value=80, time=44),\n",
      "  Message('control_change', channel=9, control=4, value=75, time=42),\n",
      "  Message('control_change', channel=9, control=4, value=59, time=22),\n",
      "  Message('control_change', channel=9, control=4, value=43, time=21),\n",
      "  Message('control_change', channel=9, control=4, value=35, time=11),\n",
      "  Message('control_change', channel=9, control=4, value=29, time=21),\n",
      "  Message('control_change', channel=9, control=4, value=23, time=22),\n",
      "  Message('control_change', channel=9, control=4, value=21, time=4),\n",
      "  Message('control_change', channel=9, control=4, value=41, time=22),\n",
      "  Message('control_change', channel=9, control=4, value=62, time=22),\n",
      "  Message('control_change', channel=9, control=4, value=78, time=17),\n",
      "  Message('control_change', channel=9, control=4, value=84, time=22),\n",
      "  Message('control_change', channel=9, control=4, value=90, time=22),\n",
      "  Message('control_change', channel=9, control=4, value=86, time=22),\n",
      "  Message('control_change', channel=9, control=4, value=81, time=21),\n",
      "  Message('control_change', channel=9, control=4, value=76, time=22),\n",
      "  Message('control_change', channel=9, control=4, value=71, time=22),\n",
      "  Message('control_change', channel=9, control=4, value=66, time=22),\n",
      "  Message('control_change', channel=9, control=4, value=61, time=21),\n",
      "  Message('control_change', channel=9, control=4, value=58, time=12),\n",
      "  Message('control_change', channel=9, control=4, value=31, time=22),\n",
      "  Message('control_change', channel=9, control=4, value=4, time=21),\n",
      "  Message('control_change', channel=9, control=4, value=0, time=3),\n",
      "  Message('control_change', channel=9, control=4, value=14, time=22),\n",
      "  Message('control_change', channel=9, control=4, value=28, time=22),\n",
      "  Message('control_change', channel=9, control=4, value=42, time=22),\n",
      "  Message('control_change', channel=9, control=4, value=56, time=21),\n",
      "  Message('control_change', channel=9, control=4, value=69, time=21),\n",
      "  Message('control_change', channel=9, control=4, value=79, time=21),\n",
      "  Message('control_change', channel=9, control=4, value=90, time=22),\n",
      "  Message('control_change', channel=9, control=4, value=85, time=44),\n",
      "  Message('control_change', channel=9, control=4, value=79, time=43),\n",
      "  Message('control_change', channel=9, control=4, value=73, time=44),\n",
      "  Message('control_change', channel=9, control=4, value=68, time=31),\n",
      "  Message('control_change', channel=9, control=4, value=57, time=22),\n",
      "  Message('control_change', channel=9, control=4, value=45, time=22),\n",
      "  Message('control_change', channel=9, control=4, value=35, time=17),\n",
      "  Message('control_change', channel=9, control=4, value=45, time=22),\n",
      "  Message('control_change', channel=9, control=4, value=56, time=22),\n",
      "  Message('control_change', channel=9, control=4, value=66, time=22),\n",
      "  Message('control_change', channel=9, control=4, value=68, time=3),\n",
      "  Message('control_change', channel=9, control=4, value=78, time=21),\n",
      "  Message('control_change', channel=9, control=4, value=88, time=22),\n",
      "  Message('control_change', channel=9, control=4, value=90, time=4),\n",
      "  Message('control_change', channel=9, control=4, value=86, time=44),\n",
      "  Message('control_change', channel=9, control=4, value=82, time=43),\n",
      "  Message('control_change', channel=9, control=4, value=77, time=44),\n",
      "  Message('control_change', channel=9, control=4, value=74, time=27),\n",
      "  Message('control_change', channel=9, control=4, value=42, time=22),\n",
      "  Message('control_change', channel=9, control=4, value=10, time=22),\n",
      "  Message('control_change', channel=9, control=4, value=0, time=6),\n",
      "  Message('control_change', channel=9, control=4, value=16, time=21),\n",
      "  Message('control_change', channel=9, control=4, value=32, time=22),\n",
      "  Message('control_change', channel=9, control=4, value=48, time=22),\n",
      "  Message('control_change', channel=9, control=4, value=64, time=22),\n",
      "  Message('control_change', channel=9, control=4, value=76, time=16),\n",
      "  Message('control_change', channel=9, control=4, value=83, time=21),\n",
      "  Message('control_change', channel=9, control=4, value=90, time=22),\n",
      "  Message('control_change', channel=9, control=4, value=87, time=22),\n",
      "  Message('control_change', channel=9, control=4, value=84, time=22),\n",
      "  Message('control_change', channel=9, control=4, value=80, time=21),\n",
      "  Message('control_change', channel=9, control=4, value=77, time=22),\n",
      "  Message('control_change', channel=9, control=4, value=73, time=22),\n",
      "  Message('control_change', channel=9, control=4, value=70, time=22),\n",
      "  Message('control_change', channel=9, control=4, value=66, time=21),\n",
      "  Message('control_change', channel=9, control=4, value=67, time=0),\n",
      "  Message('control_change', channel=9, control=4, value=51, time=22),\n",
      "  Message('control_change', channel=9, control=4, value=35, time=22),\n",
      "  Message('control_change', channel=9, control=4, value=26, time=12),\n",
      "  Message('control_change', channel=9, control=4, value=39, time=21),\n",
      "  Message('control_change', channel=9, control=4, value=53, time=22),\n",
      "  Message('control_change', channel=9, control=4, value=67, time=22),\n",
      "  Message('control_change', channel=9, control=4, value=70, time=4),\n",
      "  Message('control_change', channel=9, control=4, value=79, time=22),\n",
      "  Message('control_change', channel=9, control=4, value=88, time=22),\n",
      "  Message('control_change', channel=9, control=4, value=90, time=4),\n",
      "  Message('control_change', channel=9, control=4, value=87, time=22),\n",
      "  Message('control_change', channel=9, control=4, value=84, time=21),\n",
      "  Message('control_change', channel=9, control=4, value=80, time=22),\n",
      "  Message('control_change', channel=9, control=4, value=77, time=22),\n",
      "  Message('control_change', channel=9, control=4, value=73, time=22),\n",
      "  Message('control_change', channel=9, control=4, value=70, time=21),\n",
      "  Message('control_change', channel=9, control=4, value=66, time=22),\n",
      "  Message('control_change', channel=9, control=4, value=63, time=18),\n",
      "  Message('control_change', channel=9, control=4, value=37, time=21),\n",
      "  Message('control_change', channel=9, control=4, value=11, time=22),\n",
      "  Message('control_change', channel=9, control=4, value=0, time=9),\n",
      "  Message('control_change', channel=9, control=4, value=13, time=22),\n",
      "  Message('control_change', channel=9, control=4, value=27, time=21),\n",
      "  Message('control_change', channel=9, control=4, value=41, time=22),\n",
      "  Message('control_change', channel=9, control=4, value=55, time=22),\n",
      "  Message('control_change', channel=9, control=4, value=69, time=22),\n",
      "  Message('control_change', channel=9, control=4, value=71, time=1),\n",
      "  Message('control_change', channel=9, control=4, value=80, time=22),\n",
      "  Message('control_change', channel=9, control=4, value=89, time=22),\n",
      "  Message('control_change', channel=9, control=4, value=90, time=0),\n",
      "  Message('control_change', channel=9, control=4, value=87, time=23),\n",
      "  Message('control_change', channel=9, control=4, value=83, time=21),\n",
      "  Message('control_change', channel=9, control=4, value=79, time=22),\n",
      "  Message('control_change', channel=9, control=4, value=75, time=22),\n",
      "  Message('control_change', channel=9, control=4, value=71, time=22),\n",
      "  Message('control_change', channel=9, control=4, value=67, time=21),\n",
      "  Message('control_change', channel=9, control=4, value=63, time=22),\n",
      "  Message('control_change', channel=9, control=4, value=59, time=19),\n",
      "  Message('control_change', channel=9, control=4, value=49, time=22),\n",
      "  Message('control_change', channel=9, control=4, value=38, time=22),\n",
      "  Message('control_change', channel=9, control=4, value=28, time=18),\n",
      "  Message('control_change', channel=9, control=4, value=46, time=22),\n",
      "  Message('control_change', channel=9, control=4, value=64, time=22),\n",
      "  Message('control_change', channel=9, control=4, value=78, time=16),\n",
      "  Message('control_change', channel=9, control=4, value=84, time=22),\n",
      "  Message('control_change', channel=9, control=4, value=90, time=21),\n",
      "  Message('control_change', channel=9, control=4, value=86, time=22),\n",
      "  Message('control_change', channel=9, control=4, value=81, time=22),\n",
      "  Message('control_change', channel=9, control=4, value=76, time=22),\n",
      "  Message('control_change', channel=9, control=4, value=71, time=21),\n",
      "  Message('control_change', channel=9, control=4, value=66, time=22),\n",
      "  Message('control_change', channel=9, control=4, value=62, time=22),\n",
      "  Message('control_change', channel=9, control=4, value=58, time=14),\n",
      "  Message('control_change', channel=9, control=4, value=31, time=22),\n",
      "  Message('control_change', channel=9, control=4, value=4, time=22),\n",
      "  Message('control_change', channel=9, control=4, value=0, time=3),\n",
      "  Message('control_change', channel=9, control=4, value=12, time=22),\n",
      "  Message('control_change', channel=9, control=4, value=25, time=21),\n",
      "  Message('control_change', channel=9, control=4, value=38, time=22),\n",
      "  Message('control_change', channel=9, control=4, value=50, time=22),\n",
      "  Message('control_change', channel=9, control=4, value=63, time=22),\n",
      "  Message('control_change', channel=9, control=4, value=71, time=13),\n",
      "  Message('control_change', channel=9, control=4, value=80, time=21),\n",
      "  Message('control_change', channel=9, control=4, value=89, time=22),\n",
      "  Message('control_change', channel=9, control=4, value=90, time=0),\n",
      "  Message('control_change', channel=9, control=4, value=87, time=22),\n",
      "  Message('control_change', channel=9, control=4, value=83, time=22),\n",
      "  Message('control_change', channel=9, control=4, value=79, time=21),\n",
      "  Message('control_change', channel=9, control=4, value=75, time=22),\n",
      "  Message('control_change', channel=9, control=4, value=72, time=22),\n",
      "  Message('control_change', channel=9, control=4, value=68, time=22),\n",
      "  Message('control_change', channel=9, control=4, value=64, time=21),\n",
      "  Message('control_change', channel=9, control=4, value=63, time=5),\n",
      "  Message('control_change', channel=9, control=4, value=49, time=21),\n",
      "  Message('control_change', channel=9, control=4, value=35, time=22),\n",
      "  Message('control_change', channel=9, control=4, value=26, time=15),\n",
      "  Message('control_change', channel=9, control=4, value=39, time=21),\n",
      "  Message('control_change', channel=9, control=4, value=53, time=22),\n",
      "  Message('control_change', channel=9, control=4, value=67, time=22),\n",
      "  Message('control_change', channel=9, control=4, value=68, time=1),\n",
      "  Message('control_change', channel=9, control=4, value=78, time=22),\n",
      "  Message('control_change', channel=9, control=4, value=88, time=22),\n",
      "  Message('control_change', channel=9, control=4, value=90, time=3),\n",
      "  Message('control_change', channel=9, control=4, value=86, time=22),\n",
      "  Message('control_change', channel=9, control=4, value=81, time=21),\n",
      "  Message('control_change', channel=9, control=4, value=76, time=22),\n",
      "  Message('control_change', channel=9, control=4, value=72, time=22),\n",
      "  Message('control_change', channel=9, control=4, value=67, time=22),\n",
      "  Message('control_change', channel=9, control=4, value=62, time=21),\n",
      "  Message('control_change', channel=9, control=4, value=59, time=13),\n",
      "  Message('control_change', channel=9, control=4, value=37, time=22),\n",
      "  Message('control_change', channel=9, control=4, value=14, time=22),\n",
      "  Message('control_change', channel=9, control=4, value=0, time=13),\n",
      "  Message('control_change', channel=9, control=4, value=11, time=22),\n",
      "  Message('control_change', channel=9, control=4, value=23, time=21),\n",
      "  Message('control_change', channel=9, control=4, value=34, time=22),\n",
      "  Message('control_change', channel=9, control=4, value=46, time=22),\n",
      "  Message('control_change', channel=9, control=4, value=58, time=22),\n",
      "  Message('control_change', channel=9, control=4, value=68, time=17),\n",
      "  Message('control_change', channel=9, control=4, value=78, time=22),\n",
      "  Message('control_change', channel=9, control=4, value=89, time=22),\n",
      "  Message('control_change', channel=9, control=4, value=90, time=0),\n",
      "  Message('control_change', channel=9, control=4, value=87, time=23),\n",
      "  Message('control_change', channel=9, control=4, value=84, time=21),\n",
      "  Message('control_change', channel=9, control=4, value=81, time=22),\n",
      "  Message('control_change', channel=9, control=4, value=78, time=22),\n",
      "  Message('control_change', channel=9, control=4, value=75, time=22),\n",
      "  Message('control_change', channel=9, control=4, value=72, time=21),\n",
      "  Message('control_change', channel=9, control=4, value=69, time=22),\n",
      "  Message('control_change', channel=9, control=4, value=68, time=7),\n",
      "  Message('control_change', channel=9, control=4, value=59, time=22),\n",
      "  Message('control_change', channel=9, control=4, value=50, time=22),\n",
      "  Message('control_change', channel=9, control=4, value=41, time=20),\n",
      "  Message('control_change', channel=9, control=4, value=54, time=22),\n",
      "  Message('control_change', channel=9, control=4, value=67, time=22),\n",
      "  Message('control_change', channel=9, control=4, value=79, time=19),\n",
      "  Message('control_change', channel=9, control=4, value=84, time=21),\n",
      "  Message('control_change', channel=9, control=4, value=90, time=22),\n",
      "  Message('control_change', channel=9, control=4, value=85, time=22),\n",
      "  Message('control_change', channel=9, control=4, value=80, time=22),\n",
      "  Message('control_change', channel=9, control=4, value=75, time=21),\n",
      "  Message('control_change', channel=9, control=4, value=69, time=22),\n",
      "  Message('control_change', channel=9, control=4, value=64, time=22),\n",
      "  Message('control_change', channel=9, control=4, value=59, time=22),\n",
      "  Message('control_change', channel=9, control=4, value=58, time=1),\n",
      "  Message('control_change', channel=9, control=4, value=34, time=22),\n",
      "  Message('control_change', channel=9, control=4, value=9, time=22),\n",
      "  Message('control_change', channel=9, control=4, value=0, time=7),\n",
      "  Message('control_change', channel=9, control=4, value=12, time=22),\n",
      "  Message('control_change', channel=9, control=4, value=24, time=21),\n",
      "  Message('control_change', channel=9, control=4, value=36, time=22),\n",
      "  Message('control_change', channel=9, control=4, value=49, time=22),\n",
      "  Message('control_change', channel=9, control=4, value=61, time=22),\n",
      "  Message('control_change', channel=9, control=4, value=71, time=17),\n",
      "  Message('control_change', channel=9, control=4, value=80, time=22),\n",
      "  Message('control_change', channel=9, control=4, value=89, time=21),\n",
      "  Message('control_change', channel=9, control=4, value=90, time=0),\n",
      "  Message('control_change', channel=9, control=4, value=86, time=22),\n",
      "  Message('control_change', channel=9, control=4, value=81, time=22),\n",
      "  Message('control_change', channel=9, control=4, value=76, time=22),\n",
      "  Message('control_change', channel=9, control=4, value=72, time=21),\n",
      "  Message('control_change', channel=9, control=4, value=67, time=22),\n",
      "  Message('control_change', channel=9, control=4, value=62, time=22),\n",
      "  Message('control_change', channel=9, control=4, value=57, time=22),\n",
      "  Message('control_change', channel=9, control=4, value=53, time=17),\n",
      "  Message('control_change', channel=9, control=4, value=41, time=22),\n",
      "  Message('control_change', channel=9, control=4, value=29, time=22),\n",
      "  Message('control_change', channel=9, control=4, value=21, time=14),\n",
      "  Message('control_change', channel=9, control=4, value=40, time=22),\n",
      "  Message('control_change', channel=9, control=4, value=59, time=22),\n",
      "  Message('control_change', channel=9, control=4, value=78, time=20),\n",
      "  Message('control_change', channel=9, control=4, value=84, time=22),\n",
      "  Message('control_change', channel=9, control=4, value=90, time=21),\n",
      "  Message('control_change', channel=9, control=4, value=85, time=22),\n",
      "  Message('control_change', channel=9, control=4, value=80, time=22),\n",
      "  Message('control_change', channel=9, control=4, value=75, time=22),\n",
      "  Message('control_change', channel=9, control=4, value=70, time=21),\n",
      "  Message('control_change', channel=9, control=4, value=65, time=22),\n",
      "  Message('control_change', channel=9, control=4, value=60, time=22),\n",
      "  Message('control_change', channel=9, control=4, value=59, time=4),\n",
      "  Message('control_change', channel=9, control=4, value=35, time=22),\n",
      "  Message('control_change', channel=9, control=4, value=10, time=20),\n",
      "  Message('control_change', channel=9, control=4, value=0, time=10),\n",
      "  Message('control_change', channel=9, control=4, value=12, time=22),\n",
      "  Message('control_change', channel=9, control=4, value=25, time=22),\n",
      "  Message('control_change', channel=9, control=4, value=37, time=22),\n",
      "  Message('control_change', channel=9, control=4, value=50, time=21),\n",
      "  Message('control_change', channel=9, control=4, value=62, time=22),\n",
      "  Message('control_change', channel=9, control=4, value=68, time=9),\n",
      "  Message('control_change', channel=9, control=4, value=78, time=22),\n",
      "  Message('control_change', channel=9, control=4, value=89, time=21),\n",
      "  Message('control_change', channel=9, control=4, value=90, time=2),\n",
      "  Message('control_change', channel=9, control=4, value=86, time=43),\n",
      "  Message('control_change', channel=9, control=4, value=81, time=44),\n",
      "  Message('control_change', channel=9, control=4, value=77, time=35),\n",
      "  Message('control_change', channel=9, control=4, value=65, time=21),\n",
      "  Message('control_change', channel=9, control=4, value=53, time=22),\n",
      "  Message('control_change', channel=9, control=4, value=45, time=15),\n",
      "  Message('control_change', channel=9, control=4, value=52, time=21),\n",
      "  Message('control_change', channel=9, control=4, value=60, time=22),\n",
      "  Message('control_change', channel=9, control=4, value=68, time=22),\n",
      "  Message('control_change', channel=9, control=4, value=74, time=16),\n",
      "  Message('control_change', channel=9, control=4, value=81, time=22),\n",
      "  Message('control_change', channel=9, control=4, value=89, time=21),\n",
      "  Message('control_change', channel=9, control=4, value=90, time=3),\n",
      "  Message('control_change', channel=9, control=4, value=86, time=22),\n",
      "  Message('control_change', channel=9, control=4, value=82, time=22),\n",
      "  Message('control_change', channel=9, control=4, value=78, time=22),\n",
      "  Message('control_change', channel=9, control=4, value=73, time=21),\n",
      "  Message('control_change', channel=9, control=4, value=69, time=22),\n",
      "  Message('control_change', channel=9, control=4, value=65, time=22),\n",
      "  Message('control_change', channel=9, control=4, value=60, time=22),\n",
      "  Message('control_change', channel=9, control=4, value=58, time=10),\n",
      "  Message('control_change', channel=9, control=4, value=34, time=21),\n",
      "  Message('control_change', channel=9, control=4, value=9, time=22),\n",
      "  Message('control_change', channel=9, control=4, value=0, time=7),\n",
      "  Message('control_change', channel=9, control=4, value=11, time=22),\n",
      "  Message('control_change', channel=9, control=4, value=23, time=22),\n",
      "  Message('control_change', channel=9, control=4, value=34, time=22),\n",
      "  Message('control_change', channel=9, control=4, value=46, time=21),\n",
      "  Message('control_change', channel=9, control=4, value=57, time=22),\n",
      "  Message('control_change', channel=9, control=4, value=68, time=19),\n",
      "  Message('control_change', channel=9, control=4, value=78, time=22),\n",
      "  Message('control_change', channel=9, control=4, value=89, time=22),\n",
      "  Message('control_change', channel=9, control=4, value=90, time=1),\n",
      "  Message('control_change', channel=9, control=4, value=87, time=22),\n",
      "  Message('control_change', channel=9, control=4, value=83, time=21),\n",
      "  Message('control_change', channel=9, control=4, value=79, time=22),\n",
      "  Message('control_change', channel=9, control=4, value=75, time=22),\n",
      "  Message('control_change', channel=9, control=4, value=71, time=22),\n",
      "  Message('control_change', channel=9, control=4, value=67, time=21),\n",
      "  Message('control_change', channel=9, control=4, value=64, time=22),\n",
      "  Message('control_change', channel=9, control=4, value=60, time=22),\n",
      "  Message('control_change', channel=9, control=4, value=58, time=7),\n",
      "  Message('control_change', channel=9, control=4, value=47, time=22),\n",
      "  Message('control_change', channel=9, control=4, value=36, time=22),\n",
      "  Message('control_change', channel=9, control=4, value=28, time=16),\n",
      "  Message('control_change', channel=9, control=4, value=42, time=21),\n",
      "  Message('control_change', channel=9, control=4, value=57, time=22),\n",
      "  Message('control_change', channel=9, control=4, value=72, time=22),\n",
      "  Message('control_change', channel=9, control=4, value=76, time=4),\n",
      "  Message('control_change', channel=9, control=4, value=83, time=23),\n",
      "  Message('control_change', channel=9, control=4, value=90, time=22),\n",
      "  Message('control_change', channel=9, control=4, value=86, time=22),\n",
      "  Message('control_change', channel=9, control=4, value=81, time=22),\n",
      "  Message('control_change', channel=9, control=4, value=77, time=21),\n",
      "  Message('control_change', channel=9, control=4, value=72, time=22),\n",
      "  Message('control_change', channel=9, control=4, value=68, time=22),\n",
      "  Message('control_change', channel=9, control=4, value=63, time=22),\n",
      "  Message('control_change', channel=9, control=4, value=59, time=17),\n",
      "  Message('control_change', channel=9, control=4, value=32, time=22),\n",
      "  Message('control_change', channel=9, control=4, value=5, time=22),\n",
      "  Message('control_change', channel=9, control=4, value=0, time=3),\n",
      "  Message('control_change', channel=9, control=4, value=14, time=21),\n",
      "  Message('control_change', channel=9, control=4, value=28, time=22),\n",
      "  Message('control_change', channel=9, control=4, value=42, time=22),\n",
      "  Message('control_change', channel=9, control=4, value=56, time=22),\n",
      "  Message('control_change', channel=9, control=4, value=70, time=21),\n",
      "  Message('control_change', channel=9, control=4, value=78, time=12),\n",
      "  Message('control_change', channel=9, control=4, value=84, time=22),\n",
      "  Message('control_change', channel=9, control=4, value=90, time=21),\n",
      "  Message('control_change', channel=9, control=4, value=85, time=44),\n",
      "  Message('control_change', channel=9, control=4, value=80, time=43),\n",
      "  Message('control_change', channel=9, control=4, value=75, time=44),\n",
      "  Message('control_change', channel=9, control=4, value=71, time=33),\n",
      "  Message('control_change', channel=9, control=4, value=64, time=22),\n",
      "  Message('control_change', channel=9, control=4, value=56, time=22),\n",
      "  Message('control_change', channel=9, control=4, value=54, time=3),\n",
      "  Message('control_change', channel=9, control=4, value=59, time=43),\n",
      "  Message('control_change', channel=9, control=4, value=63, time=23),\n",
      "  Message('control_change', channel=9, control=4, value=74, time=22),\n",
      "  Message('control_change', channel=9, control=4, value=85, time=22),\n",
      "  Message('control_change', channel=9, control=4, value=90, time=9),\n",
      "  Message('control_change', channel=9, control=4, value=86, time=21),\n",
      "  Message('control_change', channel=9, control=4, value=82, time=22),\n",
      "  Message('control_change', channel=9, control=4, value=77, time=22),\n",
      "  Message('control_change', channel=9, control=4, value=73, time=22),\n",
      "  Message('control_change', channel=9, control=4, value=68, time=21),\n",
      "  Message('control_change', channel=9, control=4, value=64, time=22),\n",
      "  Message('control_change', channel=9, control=4, value=59, time=22),\n",
      "  Message('control_change', channel=9, control=4, value=58, time=3),\n",
      "  Message('control_change', channel=9, control=4, value=30, time=21),\n",
      "  Message('control_change', channel=9, control=4, value=0, time=22),\n",
      "  Message('control_change', channel=9, control=4, value=1, time=0),\n",
      "  Message('control_change', channel=9, control=4, value=13, time=23),\n",
      "  Message('control_change', channel=9, control=4, value=26, time=22),\n",
      "  Message('control_change', channel=9, control=4, value=39, time=22),\n",
      "  Message('control_change', channel=9, control=4, value=52, time=22),\n",
      "  Message('control_change', channel=9, control=4, value=66, time=21),\n",
      "  Message('control_change', channel=9, control=4, value=71, time=8),\n",
      "  Message('control_change', channel=9, control=4, value=80, time=21),\n",
      "  Message('control_change', channel=9, control=4, value=89, time=22),\n",
      "  Message('control_change', channel=9, control=4, value=90, time=0),\n",
      "  Message('control_change', channel=9, control=4, value=87, time=23),\n",
      "  Message('control_change', channel=9, control=4, value=83, time=22),\n",
      "  Message('control_change', channel=9, control=4, value=79, time=22),\n",
      "  Message('control_change', channel=9, control=4, value=75, time=22),\n",
      "  Message('control_change', channel=9, control=4, value=72, time=21),\n",
      "  Message('control_change', channel=9, control=4, value=68, time=22),\n",
      "  Message('control_change', channel=9, control=4, value=64, time=22),\n",
      "  Message('control_change', channel=9, control=4, value=63, time=3),\n",
      "  Message('control_change', channel=9, control=4, value=48, time=21),\n",
      "  Message('control_change', channel=9, control=4, value=33, time=22),\n",
      "  Message('control_change', channel=9, control=4, value=24, time=12),\n",
      "  Message('control_change', channel=9, control=4, value=38, time=22),\n",
      "  Message('control_change', channel=9, control=4, value=52, time=21),\n",
      "  Message('control_change', channel=9, control=4, value=67, time=22),\n",
      "  Message('control_change', channel=9, control=4, value=78, time=16),\n",
      "  Message('control_change', channel=9, control=4, value=84, time=22),\n",
      "  Message('control_change', channel=9, control=4, value=90, time=22),\n",
      "  Message('control_change', channel=9, control=4, value=86, time=21),\n",
      "  Message('control_change', channel=9, control=4, value=81, time=22),\n",
      "  Message('control_change', channel=9, control=4, value=76, time=22),\n",
      "  Message('control_change', channel=9, control=4, value=71, time=22),\n",
      "  Message('control_change', channel=9, control=4, value=66, time=21),\n",
      "  Message('control_change', channel=9, control=4, value=62, time=22),\n",
      "  Message('control_change', channel=9, control=4, value=58, time=15),\n",
      "  Message('control_change', channel=9, control=4, value=30, time=21),\n",
      "  Message('control_change', channel=9, control=4, value=0, time=22),\n",
      "  Message('control_change', channel=9, control=4, value=1, time=0),\n",
      "  Message('control_change', channel=9, control=4, value=13, time=23),\n",
      "  Message('control_change', channel=9, control=4, value=26, time=22),\n",
      "  Message('control_change', channel=9, control=4, value=39, time=22),\n",
      "  Message('control_change', channel=9, control=4, value=52, time=21),\n",
      "  Message('control_change', channel=9, control=4, value=65, time=22),\n",
      "  Message('control_change', channel=9, control=4, value=69, time=6),\n",
      "  Message('control_change', channel=9, control=4, value=79, time=22),\n",
      "  Message('control_change', channel=9, control=4, value=90, time=22),\n",
      "  Message('control_change', channel=9, control=4, value=86, time=21),\n",
      "  Message('control_change', channel=9, control=4, value=82, time=22),\n",
      "  Message('control_change', channel=9, control=4, value=78, time=22),\n",
      "  Message('control_change', channel=9, control=4, value=73, time=22),\n",
      "  Message('control_change', channel=9, control=4, value=69, time=21),\n",
      "  Message('control_change', channel=9, control=4, value=65, time=22),\n",
      "  Message('control_change', channel=9, control=4, value=60, time=22),\n",
      "  Message('control_change', channel=9, control=4, value=56, time=22),\n",
      "  Message('control_change', channel=9, control=4, value=55, time=4),\n",
      "  Message('control_change', channel=9, control=4, value=47, time=22),\n",
      "  Message('control_change', channel=9, control=4, value=37, time=21),\n",
      "  Message('control_change', channel=9, control=4, value=38, time=0),\n",
      "  Message('control_change', channel=9, control=4, value=51, time=22),\n",
      "  Message('control_change', channel=9, control=4, value=65, time=22),\n",
      "  Message('control_change', channel=9, control=4, value=79, time=20),\n",
      "  Message('control_change', channel=9, control=4, value=84, time=22),\n",
      "  Message('control_change', channel=9, control=4, value=90, time=22),\n",
      "  Message('control_change', channel=9, control=4, value=87, time=21),\n",
      "  Message('control_change', channel=9, control=4, value=83, time=22),\n",
      "  Message('control_change', channel=9, control=4, value=80, time=22),\n",
      "  Message('control_change', channel=9, control=4, value=76, time=22),\n",
      "  Message('control_change', channel=9, control=4, value=73, time=21),\n",
      "  Message('control_change', channel=9, control=4, value=69, time=22),\n",
      "  Message('control_change', channel=9, control=4, value=66, time=22),\n",
      "  Message('control_change', channel=9, control=4, value=62, time=20),\n",
      "  Message('control_change', channel=9, control=4, value=38, time=22),\n",
      "  Message('control_change', channel=9, control=4, value=14, time=22),\n",
      "  Message('control_change', channel=9, control=4, value=0, time=11),\n",
      "  Message('control_change', channel=9, control=4, value=12, time=22),\n",
      "  Message('control_change', channel=9, control=4, value=25, time=22),\n",
      "  Message('control_change', channel=9, control=4, value=38, time=22),\n",
      "  Message('control_change', channel=9, control=4, value=51, time=21),\n",
      "  Message('control_change', channel=9, control=4, value=64, time=22),\n",
      "  Message('control_change', channel=9, control=4, value=68, time=4),\n",
      "  Message('control_change', channel=9, control=4, value=78, time=22),\n",
      "  Message('control_change', channel=9, control=4, value=89, time=22),\n",
      "  Message('control_change', channel=9, control=4, value=90, time=0),\n",
      "  Message('control_change', channel=9, control=4, value=87, time=23),\n",
      "  Message('control_change', channel=9, control=4, value=84, time=22),\n",
      "  Message('control_change', channel=9, control=4, value=80, time=22),\n",
      "  Message('control_change', channel=9, control=4, value=77, time=21),\n",
      "  Message('control_change', channel=9, control=4, value=74, time=22),\n",
      "  Message('control_change', channel=9, control=4, value=70, time=22),\n",
      "  Message('control_change', channel=9, control=4, value=67, time=22),\n",
      "  Message('control_change', channel=9, control=4, value=66, time=1),\n",
      "  Message('control_change', channel=9, control=4, value=55, time=22),\n",
      "  Message('control_change', channel=9, control=4, value=44, time=22),\n",
      "  Message('control_change', channel=9, control=4, value=35, time=17),\n",
      "  Message('control_change', channel=9, control=4, value=43, time=22),\n",
      "  Message('control_change', channel=9, control=4, value=51, time=21),\n",
      "  Message('control_change', channel=9, control=4, value=59, time=22),\n",
      "  Message('control_change', channel=9, control=4, value=63, time=9),\n",
      "  Message('control_change', channel=9, control=4, value=74, time=22),\n",
      "  Message('control_change', channel=9, control=4, value=86, time=21),\n",
      "  Message('control_change', channel=9, control=4, value=90, time=8),\n",
      "  Message('control_change', channel=9, control=4, value=86, time=21),\n",
      "  Message('control_change', channel=9, control=4, value=81, time=22),\n",
      "  Message('control_change', channel=9, control=4, value=76, time=22),\n",
      "  Message('control_change', channel=9, control=4, value=71, time=22),\n",
      "  Message('control_change', channel=9, control=4, value=66, time=21),\n",
      "  Message('control_change', channel=9, control=4, value=61, time=22),\n",
      "  Message('control_change', channel=9, control=4, value=59, time=5),\n",
      "  Message('control_change', channel=9, control=4, value=37, time=21),\n",
      "  Message('control_change', channel=9, control=4, value=14, time=22),\n",
      "  Message('control_change', channel=9, control=4, value=0, time=13),\n",
      "  Message('control_change', channel=9, control=4, value=14, time=22),\n",
      "  Message('control_change', channel=9, control=4, value=28, time=22),\n",
      "  Message('control_change', channel=9, control=4, value=43, time=21),\n",
      "  Message('control_change', channel=9, control=4, value=57, time=22),\n",
      "  Message('control_change', channel=9, control=4, value=72, time=22),\n",
      "  Message('control_change', channel=9, control=4, value=78, time=9),\n",
      "  Message('control_change', channel=9, control=4, value=84, time=21),\n",
      "  Message('control_change', channel=9, control=4, value=90, time=22),\n",
      "  Message('control_change', channel=9, control=4, value=87, time=22),\n",
      "  Message('control_change', channel=9, control=4, value=84, time=22),\n",
      "  Message('control_change', channel=9, control=4, value=81, time=21),\n",
      "  Message('control_change', channel=9, control=4, value=78, time=22),\n",
      "  Message('control_change', channel=9, control=4, value=75, time=22),\n",
      "  Message('control_change', channel=9, control=4, value=72, time=22),\n",
      "  Message('control_change', channel=9, control=4, value=69, time=21),\n",
      "  Message('control_change', channel=9, control=4, value=67, time=10),\n",
      "  Message('control_change', channel=9, control=4, value=57, time=22),\n",
      "  Message('control_change', channel=9, control=4, value=46, time=22),\n",
      "  Message('control_change', channel=9, control=4, value=38, time=16),\n",
      "  Message('control_change', channel=9, control=4, value=50, time=22),\n",
      "  Message('control_change', channel=9, control=4, value=62, time=21),\n",
      "  Message('control_change', channel=9, control=4, value=75, time=22),\n",
      "  Message('control_change', channel=9, control=4, value=79, time=6),\n",
      "  Message('control_change', channel=9, control=4, value=84, time=22),\n",
      "  Message('control_change', channel=9, control=4, value=90, time=21),\n",
      "  Message('control_change', channel=9, control=4, value=86, time=22),\n",
      "  Message('control_change', channel=9, control=4, value=82, time=22),\n",
      "  Message('control_change', channel=9, control=4, value=78, time=22),\n",
      "  Message('control_change', channel=9, control=4, value=74, time=21),\n",
      "  Message('control_change', channel=9, control=4, value=70, time=22),\n",
      "  Message('control_change', channel=9, control=4, value=66, time=22),\n",
      "  Message('control_change', channel=9, control=4, value=62, time=22),\n",
      "  Message('control_change', channel=9, control=4, value=61, time=4),\n",
      "  Message('control_change', channel=9, control=4, value=36, time=22),\n",
      "  Message('control_change', channel=9, control=4, value=10, time=22),\n",
      "  Message('control_change', channel=9, control=4, value=0, time=7),\n",
      "  Message('control_change', channel=9, control=4, value=15, time=22),\n",
      "  Message('control_change', channel=9, control=4, value=30, time=21),\n",
      "  Message('control_change', channel=9, control=4, value=45, time=22),\n",
      "  Message('control_change', channel=9, control=4, value=60, time=22),\n",
      "  Message('control_change', channel=9, control=4, value=75, time=22),\n",
      "  Message('control_change', channel=9, control=4, value=78, time=2),\n",
      "  Message('control_change', channel=9, control=4, value=84, time=22),\n",
      "  Message('control_change', channel=9, control=4, value=90, time=22),\n",
      "  Message('control_change', channel=9, control=4, value=86, time=43),\n",
      "  Message('control_change', channel=9, control=4, value=82, time=44),\n",
      "  Message('control_change', channel=9, control=4, value=78, time=43),\n",
      "  Message('control_change', channel=9, control=4, value=77, time=6),\n",
      "  Message('control_change', channel=9, control=4, value=64, time=22),\n",
      "  Message('control_change', channel=9, control=4, value=51, time=22),\n",
      "  Message('control_change', channel=9, control=4, value=42, time=13),\n",
      "  Message('control_change', channel=9, control=4, value=33, time=22),\n",
      "  Message('control_change', channel=9, control=4, value=22, time=21),\n",
      "  Message('control_change', channel=9, control=4, value=23, time=0),\n",
      "  Message('control_change', channel=9, control=4, value=36, time=23),\n",
      "  Message('control_change', channel=9, control=4, value=50, time=22),\n",
      "  Message('control_change', channel=9, control=4, value=65, time=22),\n",
      "  Message('control_change', channel=9, control=4, value=70, time=7),\n",
      "  Message('control_change', channel=9, control=4, value=79, time=22),\n",
      "  Message('control_change', channel=9, control=4, value=89, time=22),\n",
      "  Message('control_change', channel=9, control=4, value=90, time=1),\n",
      "  Message('control_change', channel=9, control=4, value=86, time=22),\n",
      "  Message('control_change', channel=9, control=4, value=81, time=22),\n",
      "  Message('control_change', channel=9, control=4, value=76, time=21),\n",
      "  Message('control_change', channel=9, control=4, value=71, time=22),\n",
      "  Message('control_change', channel=9, control=4, value=66, time=22),\n",
      "  Message('control_change', channel=9, control=4, value=61, time=22),\n",
      "  Message('control_change', channel=9, control=4, value=58, time=13),\n",
      "  Message('control_change', channel=9, control=4, value=32, time=21),\n",
      "  Message('control_change', channel=9, control=4, value=5, time=22),\n",
      "  Message('control_change', channel=9, control=4, value=0, time=5),\n",
      "  Message('control_change', channel=9, control=4, value=12, time=21),\n",
      "  Message('control_change', channel=9, control=4, value=24, time=22),\n",
      "  Message('control_change', channel=9, control=4, value=37, time=22),\n",
      "  Message('control_change', channel=9, control=4, value=49, time=22),\n",
      "  Message('control_change', channel=9, control=4, value=61, time=21),\n",
      "  Message('control_change', channel=9, control=4, value=69, time=12),\n",
      "  Message('control_change', channel=9, control=4, value=79, time=22),\n",
      "  Message('control_change', channel=9, control=4, value=90, time=21),\n",
      "  Message('control_change', channel=9, control=4, value=86, time=22),\n",
      "  Message('control_change', channel=9, control=4, value=82, time=22),\n",
      "  Message('control_change', channel=9, control=4, value=77, time=22),\n",
      "  Message('control_change', channel=9, control=4, value=73, time=21),\n",
      "  Message('control_change', channel=9, control=4, value=68, time=22),\n",
      "  Message('control_change', channel=9, control=4, value=64, time=22),\n",
      "  Message('control_change', channel=9, control=4, value=59, time=22),\n",
      "  Message('control_change', channel=9, control=4, value=55, time=17),\n",
      "  Message('control_change', channel=9, control=4, value=44, time=22),\n",
      "  Message('control_change', channel=9, control=4, value=33, time=22),\n",
      "  Message('control_change', channel=9, control=4, value=24, time=17),\n",
      "  Message('control_change', channel=9, control=4, value=42, time=22),\n",
      "  Message('control_change', channel=9, control=4, value=60, time=21),\n",
      "  Message('control_change', channel=9, control=4, value=78, time=22),\n",
      "  Message('control_change', channel=9, control=4, value=79, time=0),\n",
      "  Message('control_change', channel=9, control=4, value=84, time=23),\n",
      "  Message('control_change', channel=9, control=4, value=90, time=22),\n",
      "  Message('control_change', channel=9, control=4, value=86, time=22),\n",
      "  Message('control_change', channel=9, control=4, value=82, time=22),\n",
      "  Message('control_change', channel=9, control=4, value=78, time=21),\n",
      "  Message('control_change', channel=9, control=4, value=73, time=22),\n",
      "  Message('control_change', channel=9, control=4, value=69, time=22),\n",
      "  Message('control_change', channel=9, control=4, value=65, time=22),\n",
      "  Message('control_change', channel=9, control=4, value=61, time=14),\n",
      "  Message('control_change', channel=9, control=4, value=35, time=22),\n",
      "  Message('control_change', channel=9, control=4, value=8, time=22),\n",
      "  Message('control_change', channel=9, control=4, value=0, time=7),\n",
      "  Message('control_change', channel=9, control=4, value=14, time=22),\n",
      "  Message('control_change', channel=9, control=4, value=29, time=21),\n",
      "  Message('control_change', channel=9, control=4, value=44, time=22),\n",
      "  Message('control_change', channel=9, control=4, value=58, time=20),\n",
      "  Message('control_change', channel=9, control=4, value=73, time=24),\n",
      "  Message('control_change', channel=9, control=4, value=77, time=4),\n",
      "  Message('control_change', channel=9, control=4, value=83, time=22),\n",
      "  Message('control_change', channel=9, control=4, value=90, time=22),\n",
      "  Message('control_change', channel=9, control=4, value=85, time=21),\n",
      "  Message('control_change', channel=9, control=4, value=80, time=22),\n",
      "  Message('control_change', channel=9, control=4, value=74, time=22),\n",
      "  Message('control_change', channel=9, control=4, value=69, time=22),\n",
      "  Message('control_change', channel=9, control=4, value=63, time=21),\n",
      "  Message('control_change', channel=9, control=4, value=58, time=22),\n",
      "  Message('control_change', channel=9, control=4, value=52, time=22),\n",
      "  Message('control_change', channel=9, control=4, value=47, time=22),\n",
      "  Message('control_change', channel=9, control=4, value=46, time=1),\n",
      "  Message('control_change', channel=9, control=4, value=34, time=22),\n",
      "  Message('control_change', channel=9, control=4, value=22, time=21),\n",
      "  Message('control_change', channel=9, control=4, value=14, time=15),\n",
      "  Message('control_change', channel=9, control=4, value=31, time=22),\n",
      "  Message('control_change', channel=9, control=4, value=49, time=21),\n",
      "  Message('control_change', channel=9, control=4, value=66, time=22),\n",
      "  Message('control_change', channel=9, control=4, value=77, time=12),\n",
      "  Message('control_change', channel=9, control=4, value=83, time=22),\n",
      "  Message('control_change', channel=9, control=4, value=90, time=21),\n",
      "  Message('control_change', channel=9, control=4, value=86, time=22),\n",
      "  Message('control_change', channel=9, control=4, value=82, time=22),\n",
      "  Message('control_change', channel=9, control=4, value=77, time=22),\n",
      "  Message('control_change', channel=9, control=4, value=73, time=21),\n",
      "  Message('control_change', channel=9, control=4, value=69, time=22),\n",
      "  Message('control_change', channel=9, control=4, value=64, time=22),\n",
      "  Message('control_change', channel=9, control=4, value=60, time=22),\n",
      "  Message('control_change', channel=9, control=4, value=59, time=2),\n",
      "  Message('control_change', channel=9, control=4, value=35, time=22),\n",
      "  Message('control_change', channel=9, control=4, value=10, time=22),\n",
      "  Message('control_change', channel=9, control=4, value=0, time=9),\n",
      "  Message('control_change', channel=9, control=4, value=13, time=21),\n",
      "  Message('control_change', channel=9, control=4, value=26, time=22),\n",
      "  Message('control_change', channel=9, control=4, value=39, time=22),\n",
      "  Message('control_change', channel=9, control=4, value=53, time=22),\n",
      "  Message('control_change', channel=9, control=4, value=66, time=21),\n",
      "  Message('control_change', channel=9, control=4, value=69, time=5),\n",
      "  Message('control_change', channel=9, control=4, value=79, time=22),\n",
      "  Message('control_change', channel=9, control=4, value=89, time=21),\n",
      "  Message('control_change', channel=9, control=4, value=90, time=0),\n",
      "  Message('control_change', channel=9, control=4, value=85, time=22),\n",
      "  Message('control_change', channel=9, control=4, value=80, time=22),\n",
      "  Message('control_change', channel=9, control=4, value=75, time=22),\n",
      "  Message('control_change', channel=9, control=4, value=70, time=21),\n",
      "  Message('control_change', channel=9, control=4, value=65, time=22),\n",
      "  Message('control_change', channel=9, control=4, value=60, time=22),\n",
      "  Message('control_change', channel=9, control=4, value=55, time=22),\n",
      "  Message('control_change', channel=9, control=4, value=50, time=21),\n",
      "  Message('control_change', channel=9, control=4, value=49, time=5),\n",
      "  Message('control_change', channel=9, control=4, value=35, time=21),\n",
      "  Message('control_change', channel=9, control=4, value=21, time=22),\n",
      "  Message('control_change', channel=9, control=4, value=12, time=13),\n",
      "  Message('control_change', channel=9, control=4, value=32, time=22),\n",
      "  Message('control_change', channel=9, control=4, value=52, time=22),\n",
      "  Message('control_change', channel=9, control=4, value=73, time=21),\n",
      "  Message('control_change', channel=9, control=4, value=78, time=5),\n",
      "  Message('control_change', channel=9, control=4, value=84, time=22),\n",
      "  Message('control_change', channel=9, control=4, value=90, time=21),\n",
      "  Message('control_change', channel=9, control=4, value=86, time=22),\n",
      "  Message('control_change', channel=9, control=4, value=81, time=22),\n",
      "  Message('control_change', channel=9, control=4, value=76, time=22),\n",
      "  Message('control_change', channel=9, control=4, value=71, time=21),\n",
      "  Message('control_change', channel=9, control=4, value=66, time=22),\n",
      "  Message('control_change', channel=9, control=4, value=62, time=22),\n",
      "  Message('control_change', channel=9, control=4, value=59, time=10),\n",
      "  Message('control_change', channel=9, control=4, value=31, time=22),\n",
      "  Message('control_change', channel=9, control=4, value=3, time=21),\n",
      "  Message('control_change', channel=9, control=4, value=0, time=2),\n",
      "  Message('control_change', channel=9, control=4, value=14, time=22),\n",
      "  Message('control_change', channel=9, control=4, value=28, time=21),\n",
      "  Message('control_change', channel=9, control=4, value=42, time=22),\n",
      "  Message('control_change', channel=9, control=4, value=56, time=22),\n",
      "  Message('control_change', channel=9, control=4, value=70, time=22),\n",
      "  Message('control_change', channel=9, control=4, value=77, time=10),\n",
      "  Message('control_change', channel=9, control=4, value=83, time=22),\n",
      "  Message('control_change', channel=9, control=4, value=90, time=21),\n",
      "  Message('control_change', channel=9, control=4, value=85, time=22),\n",
      "  Message('control_change', channel=9, control=4, value=80, time=22),\n",
      "  Message('control_change', channel=9, control=4, value=74, time=22),\n",
      "  Message('control_change', channel=9, control=4, value=69, time=21),\n",
      "  Message('control_change', channel=9, control=4, value=63, time=22),\n",
      "  Message('control_change', channel=9, control=4, value=58, time=22),\n",
      "  Message('control_change', channel=9, control=4, value=53, time=22),\n",
      "  Message('control_change', channel=9, control=4, value=48, time=15),\n",
      "  Message('control_change', channel=9, control=4, value=37, time=22),\n",
      "  Message('control_change', channel=9, control=4, value=26, time=22),\n",
      "  Message('control_change', channel=9, control=4, value=16, time=19),\n",
      "  Message('control_change', channel=9, control=4, value=31, time=22),\n",
      "  Message('control_change', channel=9, control=4, value=47, time=21),\n",
      "  Message('control_change', channel=9, control=4, value=60, time=18),\n",
      "  Message('control_change', channel=9, control=4, value=73, time=21),\n",
      "  Message('control_change', channel=9, control=4, value=87, time=22),\n",
      "  Message('control_change', channel=9, control=4, value=90, time=5),\n",
      "  Message('control_change', channel=9, control=4, value=86, time=21),\n",
      "  Message('control_change', channel=9, control=4, value=81, time=22),\n",
      "  Message('control_change', channel=9, control=4, value=76, time=22),\n",
      "  Message('control_change', channel=9, control=4, value=72, time=22),\n",
      "  Message('control_change', channel=9, control=4, value=67, time=21),\n",
      "  Message('control_change', channel=9, control=4, value=62, time=22),\n",
      "  Message('control_change', channel=9, control=4, value=58, time=17),\n",
      "  Message('control_change', channel=9, control=4, value=33, time=22),\n",
      "  Message('control_change', channel=9, control=4, value=7, time=22),\n",
      "  Message('control_change', channel=9, control=4, value=0, time=6),\n",
      "  Message('control_change', channel=9, control=4, value=13, time=22),\n",
      "  Message('control_change', channel=9, control=4, value=26, time=21),\n",
      "  Message('control_change', channel=9, control=4, value=40, time=22),\n",
      "  Message('control_change', channel=9, control=4, value=53, time=22),\n",
      "  Message('control_change', channel=9, control=4, value=67, time=22),\n",
      "  Message('control_change', channel=9, control=4, value=71, time=5),\n",
      "  Message('control_change', channel=9, control=4, value=80, time=22),\n",
      "  Message('control_change', channel=9, control=4, value=89, time=22),\n",
      "  Message('control_change', channel=9, control=4, value=90, time=0),\n",
      "  Message('control_change', channel=9, control=4, value=83, time=23),\n",
      "  Message('control_change', channel=9, control=4, value=75, time=22),\n",
      "  Message('control_change', channel=9, control=4, value=67, time=22),\n",
      "  Message('control_change', channel=9, control=4, value=59, time=21),\n",
      "  Message('control_change', channel=9, control=4, value=51, time=22),\n",
      "  Message('control_change', channel=9, control=4, value=44, time=22),\n",
      "  Message('control_change', channel=9, control=4, value=42, time=3),\n",
      "  Message('control_change', channel=9, control=4, value=22, time=21),\n",
      "  Message('control_change', channel=9, control=4, value=0, time=22),\n",
      "  Message('control_change', channel=9, control=4, value=1, time=0),\n",
      "  Message('control_change', channel=9, control=4, value=12, time=22),\n",
      "  Message('control_change', channel=9, control=4, value=24, time=22),\n",
      "  Message('control_change', channel=9, control=4, value=36, time=21),\n",
      "  Message('control_change', channel=9, control=4, value=48, time=22),\n",
      "  Message('control_change', channel=9, control=4, value=60, time=22),\n",
      "  Message('control_change', channel=9, control=4, value=69, time=16),\n",
      "  Message('control_change', channel=9, control=4, value=79, time=22),\n",
      "  Message('control_change', channel=9, control=4, value=89, time=21),\n",
      "  Message('control_change', channel=9, control=4, value=90, time=0),\n",
      "  Message('control_change', channel=9, control=4, value=87, time=22),\n",
      "  Message('control_change', channel=9, control=4, value=83, time=22),\n",
      "  Message('control_change', channel=9, control=4, value=79, time=22),\n",
      "  Message('control_change', channel=9, control=4, value=75, time=21),\n",
      "  Message('control_change', channel=9, control=4, value=71, time=22),\n",
      "  Message('control_change', channel=9, control=4, value=68, time=22),\n",
      "  Message('control_change', channel=9, control=4, value=64, time=22),\n",
      "  Message('control_change', channel=9, control=4, value=60, time=21),\n",
      "  Message('control_change', channel=9, control=4, value=59, time=3),\n",
      "  Message('control_change', channel=9, control=4, value=52, time=22),\n",
      "  Message('control_change', channel=9, control=4, value=44, time=22),\n",
      "  Message('control_change', channel=9, control=4, value=42, time=3),\n",
      "  Message('control_change', channel=9, control=4, value=52, time=21),\n",
      "  Message('control_change', channel=9, control=4, value=63, time=22),\n",
      "  Message('control_change', channel=9, control=4, value=72, time=16),\n",
      "  Message('control_change', channel=9, control=4, value=79, time=22),\n",
      "  Message('control_change', channel=9, control=4, value=87, time=22),\n",
      "  Message('control_change', channel=9, control=4, value=90, time=7),\n",
      "  Message('control_change', channel=9, control=4, value=86, time=43),\n",
      "  Message('control_change', channel=9, control=4, value=81, time=44),\n",
      "  Message('control_change', channel=9, control=4, value=77, time=43),\n",
      "  Message('control_change', channel=9, control=4, value=75, time=13),\n",
      "  Message('control_change', channel=9, control=4, value=78, time=22),\n",
      "  Message('control_change', channel=9, control=4, value=81, time=22),\n",
      "  Message('control_change', channel=9, control=4, value=84, time=22),\n",
      "  Message('control_change', channel=9, control=4, value=87, time=21),\n",
      "  Message('control_change', channel=9, control=4, value=90, time=22),\n",
      "  Message('control_change', channel=9, control=4, value=88, time=44),\n",
      "  Message('control_change', channel=9, control=4, value=85, time=43),\n",
      "  Message('control_change', channel=9, control=4, value=82, time=44),\n",
      "  Message('control_change', channel=9, control=4, value=79, time=43),\n",
      "  Message('control_change', channel=9, control=4, value=76, time=44),\n",
      "  Message('control_change', channel=9, control=4, value=73, time=43),\n",
      "  Message('control_change', channel=9, control=4, value=70, time=44),\n",
      "  Message('control_change', channel=9, control=4, value=68, time=43),\n",
      "  Message('control_change', channel=9, control=4, value=65, time=44),\n",
      "  Message('control_change', channel=9, control=4, value=62, time=43),\n",
      "  Message('control_change', channel=9, control=4, value=59, time=35),\n",
      "  Message('control_change', channel=9, control=4, value=33, time=22),\n",
      "  Message('control_change', channel=9, control=4, value=7, time=21),\n",
      "  Message('control_change', channel=9, control=4, value=0, time=6),\n",
      "  Message('control_change', channel=9, control=4, value=0, time=45),\n",
      "  Message('control_change', channel=9, control=4, value=17, time=22),\n",
      "  Message('control_change', channel=9, control=4, value=34, time=22),\n",
      "  Message('control_change', channel=9, control=4, value=51, time=21),\n",
      "  Message('control_change', channel=9, control=4, value=68, time=21),\n",
      "  Message('control_change', channel=9, control=4, value=78, time=22),\n",
      "  Message('control_change', channel=9, control=4, value=89, time=21),\n",
      "  Message('control_change', channel=9, control=4, value=90, time=2),\n",
      "  Message('control_change', channel=9, control=4, value=87, time=43),\n",
      "  Message('control_change', channel=9, control=4, value=83, time=44),\n",
      "  Message('control_change', channel=9, control=4, value=79, time=43),\n",
      "  Message('control_change', channel=9, control=4, value=78, time=7),\n",
      "  Message('control_change', channel=9, control=4, value=55, time=22),\n",
      "  Message('control_change', channel=9, control=4, value=30, time=22),\n",
      "  Message('control_change', channel=9, control=4, value=31, time=0),\n",
      "  Message('control_change', channel=9, control=4, value=16, time=22),\n",
      "  Message('control_change', channel=9, control=4, value=0, time=21),\n",
      "  Message('control_change', channel=9, control=4, value=1, time=0),\n",
      "  Message('control_change', channel=9, control=4, value=0, time=156),\n",
      "  Message('control_change', channel=9, control=4, value=1, time=87),\n",
      "  Message('control_change', channel=9, control=4, value=2, time=87),\n",
      "  Message('control_change', channel=9, control=4, value=3, time=87),\n",
      "  Message('control_change', channel=9, control=4, value=4, time=87),\n",
      "  Message('control_change', channel=9, control=4, value=5, time=87),\n",
      "  Message('control_change', channel=9, control=4, value=6, time=87),\n",
      "  Message('control_change', channel=9, control=4, value=7, time=87),\n",
      "  Message('control_change', channel=9, control=4, value=8, time=87),\n",
      "  Message('control_change', channel=9, control=4, value=10, time=87),\n",
      "  Message('control_change', channel=9, control=4, value=11, time=87),\n",
      "  Message('control_change', channel=9, control=4, value=12, time=87),\n",
      "  Message('control_change', channel=9, control=4, value=13, time=87),\n",
      "  Message('control_change', channel=9, control=4, value=14, time=46),\n",
      "  MetaMessage('end_of_track', time=1)])\n"
     ]
    }
   ],
   "source": [
    "mid = MidiFile(midi_file_path)\n",
    "for i, track in enumerate(mid.tracks):\n",
    "    print(track)"
   ]
  },
  {
   "cell_type": "code",
   "execution_count": 11,
   "metadata": {},
   "outputs": [
    {
     "data": {
      "text/plain": [
       "MetaMessage('set_tempo', tempo=517241, time=0)"
      ]
     },
     "execution_count": 11,
     "metadata": {},
     "output_type": "execute_result"
    }
   ],
   "source": [
    "mid.tracks[0][0]"
   ]
  },
  {
   "cell_type": "code",
   "execution_count": 12,
   "metadata": {},
   "outputs": [
    {
     "data": {
      "text/plain": [
       "116.00008506672904"
      ]
     },
     "execution_count": 12,
     "metadata": {},
     "output_type": "execute_result"
    }
   ],
   "source": [
    "tempo2bpm(517241)"
   ]
  },
  {
   "cell_type": "code",
   "execution_count": null,
   "metadata": {},
   "outputs": [],
   "source": []
  }
 ],
 "metadata": {
  "kernelspec": {
   "display_name": "cmc",
   "language": "python",
   "name": "python3"
  },
  "language_info": {
   "codemirror_mode": {
    "name": "ipython",
    "version": 3
   },
   "file_extension": ".py",
   "mimetype": "text/x-python",
   "name": "python",
   "nbconvert_exporter": "python",
   "pygments_lexer": "ipython3",
   "version": "3.10.6"
  }
 },
 "nbformat": 4,
 "nbformat_minor": 2
}
